<svg width="750" height="306" xmlns="http://www.w3.org/2000/svg" xmlns:xlink="http://www.w3.org/1999/xlink" xml:space="preserve" overflow="hidden"><defs><clipPath id="clip0"><rect x="56" y="634" width="750" height="306"/></clipPath></defs><g clip-path="url(#clip0)" transform="translate(-56 -634)"><path d="M345.746 20.5452C352.649 19.1922 359.626 17.9505 366.688 17.9453 371.162 18.0354 374.812 21.0494 379.037 22.1158 387.17 23.9676 395.506 24.7848 403.837 25.0714 405.694 25.135 407.572 25.2517 409.377 25.7611 416.338 27.6607 423.262 29.762 430.372 31.0248 436.209 31.773 441.998 30.1227 447.83 30.1334 452.79 30.2713 457.715 31.0832 462.687 31.0353 470.656 30.9717 478.351 28.6636 486.171 27.4113 490.708 26.7799 495.298 26.5729 499.883 26.626 502.817 26.6101 505.353 28.6636 508.314 28.4938 516.437 27.7881 524.768 26.0689 532.833 28.1383 535.279 28.6318 537.657 29.5126 540.151 29.7461 542.565 29.4329 543.934 26.5198 546.491 26.6738 551.453 26.9179 556.303 28.1701 561.025 29.6664 564.134 30.6533 567.148 32.017 570.4 32.4839 574.619 33.2109 578.912 33.0199 583.172 33.0835 585.862 33.004 588.176 34.5533 590.596 35.4978 596.617 38.2411 603.346 39.1696 609.114 42.5177 612.043 43.9451 615.041 46.37 618.511 45.521 625.202 43.8391 631.899 41.7378 638.86 41.6741 643.815 41.5149 648.426 43.6427 653.213 44.5607 656.328 44.4864 659.516 43.6002 662.075 41.775 663.485 40.804 664.425 39.2811 665.905 38.4056 671.572 38.7771 677.18 40.3529 682.889 40.0399 688.26 38.8725 692.892 35.7154 697.774 33.3383 698.065 34.6117 698.357 35.8851 698.654 37.1639 700.629 36.2831 702.522 35.1317 704.667 34.6913 707.685 35.5297 710.025 37.8325 712.939 38.9574 713.416 39.228 713.926 39.2652 714.457 39.0688 717.13 38.3578 719.517 36.8774 722.155 36.055 725.408 35.0362 728.74 34.2827 731.993 33.248 733.117 32.8553 734.301 33.1844 735.436 33.3967 738.265 34.0493 741.21 33.8423 744.059 34.3942 748.001 34.9832 751.821 36.1399 755.679 37.1109 763.128 38.9043 770.849 38.0394 778.432 38.3896 776.866 41.0268 774.362 43.6586 774.946 46.9802 775.641 49.2193 777.359 50.9173 778.628 52.8435 781.143 56.7063 783.318 60.7973 786.099 64.4904 789.208 68.645 789.182 74.089 789.314 79.0397 789.388 83.4437 791.214 87.6037 793.751 91.1323 791.183 94.3106 789.861 98.2425 788.789 102.127 787.881 105.443 786.13 108.473 783.806 110.998 785.228 111.492 786.655 112.001 788.042 112.601 786.751 112.686 785.468 112.749 784.189 112.829 782.523 116.548 780.867 120.311 780.167 124.359 784.215 124.004 788.258 123.446 792.328 123.298 788.656 124.455 784.481 124.699 781.397 127.219 780.777 129.06 781.981 130.822 783.122 132.164 784.884 134.329 787.256 136.271 787.787 139.157 788.327 141.912 788.863 144.681 789.112 147.483 788.604 150.703 786.698 153.532 786.407 156.812 789.214 156.287 792.026 155.777 794.875 155.479 793.527 157.798 792.211 160.16 790.449 162.192 789.214 163.597 788.009 165.036 787.064 166.654 787.558 168.273 788.491 169.684 789.495 171.037 787.951 172.422 786.067 173.701 785.468 175.796 784.782 178.307 784.847 181.076 783.446 183.352 782.125 185.353 780.092 186.78 778.872 188.86 778.008 190.191 777.742 191.778 777.365 193.296 775.083 193.477 772.802 193.684 770.531 193.88 770.165 195.694 769.396 197.563 769.867 199.419 771.247 203.239 775.392 205.224 776.729 209.076 777.683 211.888 778.622 214.717 779.297 217.608 779.964 219.954 778.707 222.347 779.26 224.697 780.336 227.302 782.862 228.984 783.934 231.59 784.385 234.259 783.621 237.023 784.327 239.665 785.128 241.767 787.197 242.908 788.927 244.165 788.068 246.023 787.219 248.098 787.781 250.172 788.476 252.809 789.325 255.68 791.596 257.415 795.491 260.291 800.559 261.171 804.208 264.44 805.965 266.032 807.982 267.295 810.071 268.415 808.703 268.362 807.344 268.282 805.996 268.234 806.771 269.724 807.738 271.148 808.22 272.782 808.538 274.92 807.043 276.931 807.366 279.064 808.601 281.605 810.926 283.42 812.109 286.004 811.212 288.562 809.308 290.572 808.241 293.04 807.514 294.686 807.812 296.526 807.812 298.272 802.728 297.056 797.667 295.778 792.614 294.457 791.028 293.889 789.436 294.59 787.872 294.812 786.714 295.067 785.648 294.403 784.566 294.138 780.979 293.014 777.233 294.033 773.587 294.096 771.899 294.085 770.494 292.929 768.854 292.737 766.382 292.785 763.962 293.985 761.489 293.353 756.581 292.201 751.647 291.13 746.871 289.511 745.577 289.119 744.159 288.446 742.854 289.15 740.016 290.456 737.542 292.436 734.715 293.75 733.117 294.51 731.313 294.351 729.605 294.383 724.888 294.372 720.192 295.067 715.644 296.287 713.331 296.967 711.001 295.98 708.72 295.634 708.089 296.596 707.468 297.561 706.858 298.532 704.343 298.341 701.827 298.097 699.313 298.187 697.577 298.261 695.9 299.328 694.165 298.744 690.636 297.884 687.119 296.781 683.457 296.775 679.213 296.781 674.978 297.158 670.744 297.476 666.61 297.836 662.45 297.986 658.371 298.787 656.009 299.142 653.557 299.742 651.196 299.11 646.272 297.927 641.247 297.104 636.18 296.94 632.265 296.808 629.346 293.698 625.648 292.887 624.147 293.098 622.724 293.661 621.239 293.92 618.14 294.479 614.999 293.948 611.883 294.053 609.273 294.303 606.96 295.704 604.386 296.096 602.099 295.932 600.2 294.399 597.945 294.096 596.299 294.224 594.883 295.381 593.228 295.348 587.338 293.682 581.835 290.833 575.951 289.161 574.322 291.008 572.857 292.987 571.504 295.046 568.638 293.639 566.033 291.613 562.957 290.716 557.857 290.408 552.673 291.533 548.168 293.952 546.289 292.425 544.368 290.934 542.24 289.777 540.114 288.625 537.64 288.679 535.301 288.487 530.716 288.228 526.137 287.936 521.559 287.712 518.645 287.501 516.204 290.058 513.281 289.442 507.481 288.058 501.814 286.174 496.29 283.961 496.826 285.33 497.42 286.684 497.984 288.047 493.143 288.694 488.277 289.74 483.376 289.272 476.271 288.44 469.341 286.381 462.171 286.105 458.829 286.349 456.133 288.679 452.903 289.379 444.359 291.522 435.738 288.551 427.157 288.318 423.256 288.1 419.936 290.955 416.031 290.69 412.305 290.546 408.591 290.265 404.871 290.197 400.419 290.112 396.032 291.103 391.585 290.997 386.719 290.711 382.076 289.045 377.28 288.365 371.316 288.424 365.845 291.511 359.897 291.729 356.013 291.491 352.235 290.408 348.356 290.127 344.977 289.771 341.469 290.186 338.249 288.891 335.653 288.239 333.085 286.477 330.332 287.277 323.036 289.161 315.878 291.92 308.29 292.403 302.83 292.685 297.365 292.907 291.905 293.173 283.552 293.761 275.116 291.803 266.827 293.491 265.862 293.576 264.764 294.053 263.899 293.412 261.994 292.292 260.201 290.997 258.37 289.766 258.078 290.737 257.781 291.709 257.489 292.68 254.523 291.798 251.572 290.881 248.601 290.032 248.569 291.517 248.549 293.003 248.516 294.494 242 293.449 235.496 292.297 229.001 291.108 224.724 290.212 220.734 292.774 216.49 292.669 212.557 292.138 208.822 290.731 205.091 289.437 203.622 288.943 202.168 288.243 200.582 288.302 191.789 288.037 183.517 291.448 175.239 293.926 173.701 292.748 172.146 291.295 170.109 291.182 165.587 290.774 161.061 290.413 156.562 289.851 154.619 289.686 152.667 289.235 150.725 289.522 148.279 290.234 146.262 291.968 143.774 292.558 140.133 291.92 136.696 290.478 133.167 289.416 131.411 290.626 129.633 292.223 127.362 292.164 120.83 292.303 114.108 292.445 107.937 294.845 106.753 295.248 105.48 295.719 104.212 295.39 99.2984 294.25 94.4857 292.652 89.4821 291.942 86.8874 291.528 84.2556 291.517 81.6555 291.236 84.5368 290.986 87.4233 290.807 90.3099 290.583 89.4503 289.087 88.3625 287.665 87.9751 285.961 88.2723 283.972 89.1956 282.121 89.3442 280.104 89.5458 277.632 89.2486 275.064 90.1825 272.701 90.729 270.865 91.9759 269.062 91.5091 267.073 91.143 265.433 90.5327 263.862 90.2568 262.207 92.0556 260.132 94.0559 258.243 95.9449 256.253 94.8041 253.859 93.1699 251.552 93 248.83 92.9576 245.168 95.8813 242.463 96.7462 239.066 97.2396 235.984 96.4809 232.837 97.022 229.759 97.4837 227.143 99.378 224.968 99.5372 222.284 99.6857 218.559 99.0118 214.717 100.28 211.108 101.973 206.291 104.429 201.78 106.265 197.016 108.064 192.463 110.797 188.303 112.277 183.633 110.446 181.415 107.793 180.126 105.873 178.02 105.236 177.388 105.31 176.434 105.241 175.617 105.199 171.701 106.918 167.907 106.297 163.98 105.883 160.966 105.475 157.947 105.395 154.9 105.39 153.097 106.223 151.42 106.313 149.627 105.188 147.403 102.88 146.151 100.933 144.735 101.171 143.737 101.405 142.74 101.644 141.742 100.625 141.265 99.6062 140.786 98.5926 140.303 100.551 139.074 103.283 138.394 104.127 135.99 105.172 131.825 105.751 127.559 106.451 123.324 107.088 119.286 110.919 116.262 110.526 111.985 109.953 107.629 109.019 103.225 109.592 98.8156 110.218 95.5894 112.182 92.5172 111.609 89.1319 110.653 83.8098 106.6 79.7985 104.817 74.816 104.811 71.9136 107.523 69.7858 107.401 66.8622 107.194 64.3259 105.395 62.3626 104.307 60.1659 102.753 57.3643 102.349 54.0001 100.275 51.4798 98.7518 49.2936 96.5763 47.4418 95.8388 44.7994 94.9579 40.3795 96.4119 35.8851 98.4547 31.9904 99.4311 33.6089 100.243 35.6464 102.259 36.1929 106.865 37.7794 111.603 38.9574 116.267 40.3741 117.933 38.6125 119.573 36.7713 121.579 35.3864 126.333 35.4129 131.002 37.4611 135.82 36.8297 139.089 36.3734 142.298 35.3598 145.191 33.7521 147.298 32.5795 148.767 30.6162 150.391 28.8917 150.842 30.3509 151.245 31.8313 151.691 33.2958 154.238 33.2798 157.145 34.1394 159.4 32.5636 161.321 30.8072 162.845 28.6636 164.59 26.7428 167.461 27.8412 170.299 29.5072 173.478 29.2896 176.242 29.1252 179.006 29.0084 181.766 28.7644 184.345 28.5256 185.231 25.1404 187.884 25.0289 192.537 24.5036 197.112 23.4265 201.59 22.0574 203.197 23.9253 204.858 25.7505 206.609 27.4856 209.665 26.7374 212.223 24.4824 215.432 24.3019 218.999 24.4665 222.585 26.0053 226.157 24.9864 233.07 23.0497 240.037 20.9856 247.253 20.6831 254.974 20.3065 262.466 22.5457 270.081 23.3787 273.03 23.7554 274.962 20.4868 277.902 20.7681 285.229 21.3147 292.584 21.8877 299.933 21.4101 300.288 22.1583 300.643 22.9064 301 23.66 303.721 23.0974 306.433 22.2803 309.234 22.2378 311.298 23.3947 313.097 25.0714 315.406 25.7718 318.043 26.5623 320.977 27.7933 323.667 26.4775 326.421 25.5542 329.036 23.193 332.098 24.0684 334.481 24.5301 336.816 25.2199 339.171 25.8141 339.686 24.546 339.952 23.0815 340.943 22.0787 342.409 21.2245 344.117 20.9325 345.746 20.5452Z" fill="#E8E8E9" transform="matrix(1 0 0 1.00531 -18.0373 628.555)"/></g></svg>