<svg width="431" height="568" xmlns="http://www.w3.org/2000/svg" xmlns:xlink="http://www.w3.org/1999/xlink" xml:space="preserve" overflow="hidden"><defs><clipPath id="clip0"><rect x="91" y="233" width="431" height="568"/></clipPath><clipPath id="clip1"><rect x="91" y="259" width="431" height="526"/></clipPath><clipPath id="clip2"><rect x="89" y="259" width="435" height="526"/></clipPath><clipPath id="clip3"><rect x="89" y="259" width="435" height="526"/></clipPath></defs><g clip-path="url(#clip0)" transform="translate(-91 -233)"><g clip-path="url(#clip1)"><g clip-path="url(#clip2)"><g clip-path="url(#clip3)"><path d="M360.299 88.6694C369.316 87.0311 379.506 85.3794 387.844 90.2411 399.325 96.3816 405.985 109.741 405.359 122.568 404.88 130.533 402.469 138.219 400.257 145.851 436.194 147.356 471.705 138.672 507.642 140.523 510.545 140.697 513.528 142.201 514.688 145.012 517.498 150.846 517.405 157.492 517.604 163.806 517.831 182.946 521.761 201.874 521.174 221.027 520.974 230.431 518.883 239.649 518.164 249.012 515.98 272.854 520.149 296.63 520.454 320.446 500.276 318.062 480.07 310.789 459.623 314.865 444.586 318.741 435.835 334.432 434.929 349.11 434.476 352.547 437.633 354.771 439.964 356.676 451.605 365.839 466.364 369.875 480.868 371.513 494.508 372.713 508.201 371.473 521.801 370.475 522.279 402.868 519.283 435.182 517.538 467.496 516.513 486.849 515.14 506.162 514.568 525.53 501.981 526.102 489.407 525.024 476.94 523.332 454.882 520.189 432.544 520.441 410.328 520.694 406.558 520.814 402.802 521.201 399.072 521.694 401.71 535.226 403.84 549.638 398.886 562.918 395.609 573.041 388.696 582.352 378.679 586.521 358.607 595.659 333.925 594.272 315.078 582.765 309.617 579.622 303.85 575.532 302.385 568.992 298.189 551.516 305.834 533.948 316.01 520.056 295.259 521.454 274.586 517.031 253.861 519.416 241.18 520.149 228.447 522.24 215.753 520.774 210.012 520.256 204.244 519.669 198.491 520.176 192.87 520.628 188.354 524.331 183.239 526.315 181.055 519.882 181.268 513.01 182.094 506.362 183.253 497.013 183.093 487.569 182.72 478.178 182.108 463.1 181.934 447.996 182.334 432.918 183.133 411.18 185.184 389.428 183.812 367.677 174.982 369.915 166.416 373.671 157.187 373.885 145.105 374.284 131.866 374.458 121.475 367.318 113.018 361.831 107.45 351.175 110.021 341.078 114.869 322.618 130.44 307.299 149.181 303.277 160.583 300.72 172.317 302.331 183.892 301.865 184.958 280.647 182.56 259.215 186.436 238.183 187.835 225.45 188.354 212.583 187.515 199.796 187.529 183.426 187.382 166.696 192.004 150.846 202.593 150.593 213.195 151.166 223.759 150.259 245.482 149.807 267.22 149.407 288.945 149.661 305.235 150.193 321.245 146.676 337.362 144.998 334.485 134.223 328.451 123.207 332.154 111.819 335.59 99.0055 347.937 91.2267 360.299 88.6694M343.569 109.182C339.959 113.817 339.999 119.837 340.612 125.378 342.929 134.342 347.032 142.681 349.829 151.499 308.938 160.743 266.728 159.144 225.104 159.065 216.019 159.317 207.029 157.612 197.945 158.158 197.185 164.871 196.653 171.625 196.786 178.391 196.958 206.909 196.985 235.493 193.722 263.864 191.75 280.873 194.855 298.242 190.965 315.052 184.291 313.067 177.552 310.802 170.506 310.909 162.208 310.896 153.762 310.589 145.665 312.614 140.19 314.372 136.047 318.581 131.812 322.258 125.098 328.184 119.544 336.043 118.266 345.074 117.214 351.894 122.222 357.874 127.683 361.258 136.154 366.292 146.411 366.039 155.92 365.627 168.841 364.654 180.523 358.541 192.723 354.731 193.243 362.137 192.83 369.569 192.883 376.988 192.83 391.227 193.255 405.505 191.844 419.704 190.952 427.59 190.925 435.529 190.845 443.453 190.925 466.031 190.619 488.621 191.045 511.185 205.031 512.05 219.056 511.45 233.055 511.45 259.242 510.092 285.468 510.172 311.669 510.425 319.46 510.385 327.412 510.865 334.672 513.981 333.007 522.892 323.23 526.022 318.675 533.068 312.521 542.459 309.084 554.886 313.387 565.702 317.942 574.519 328.184 577.917 337.095 580.567 350.255 584.443 365.107 582.805 376.576 575.079 387.67 568.1 394.517 554.646 392.998 541.554 392.013 531.79 384.994 523.932 384.061 514.141 403.202 510.185 422.795 511.877 442.175 511.57 464.086 511.225 485.437 517.778 507.335 517.445 508.054 502.606 506.962 487.742 508.161 472.93 509.719 442.681 512.117 412.419 511.81 382.116 488.421 382.076 463.5 381.797 442.695 369.702 437.06 366.226 431.079 362.496 427.63 356.676 423.927 349.057 427.363 340.718 429.388 333.153 432.824 321.551 441.322 311.309 453.017 307.473 472.011 300.027 491.95 308.192 511.145 310.136 510.958 298.175 508.827 286.348 508.8 274.386 508.4 258.349 510.718 242.432 511.331 226.435 512.676 214.475 511.158 202.499 510.492 190.552 509.427 176.566 508.627 162.554 507.135 148.608 499.303 148.368 491.432 148.355 483.653 149.407 450.819 151.192 418.132 157.2 385.153 155.255 390.495 142.708 397.807 130.001 396.009 115.802 394.078 107.81 388.976 100.084 380.931 97.2873 367.637 93.6377 352.054 98.0731 343.569 109.182Z" transform="matrix(1 0 0 1.0003 -11.3638 185.763)"/><path d="M362.177 215.966C368.17 213.968 374.431 211.397 380.864 212.703 386.339 213.742 391.573 219.149 390.175 225.024 389.016 230.898 383.195 234.041 377.921 235.546 357.941 241.54 338.228 249.971 322.191 263.57 304.623 278.595 293.087 299.734 287.453 321.978 283.723 335.723 282.698 351.028 288.665 364.294 292.274 372.087 300.093 376.681 307.966 379.239 314.932 359.419 324.908 340.213 339.919 325.268 349.975 315.132 362.829 307.273 377.121 305.168 387.298 303.783 398.259 305.275 406.998 310.936 415.895 316.717 419.904 328.158 418.159 338.415 415.696 354.465 404.733 367.93 391.826 377.148 372.073 391.067 348.004 397.421 324.202 399.579 324.601 404.174 324.695 409.168 327.572 413.044 329.077 415.736 332.207 418.719 330.129 421.969 325.787 428.975 314.052 430.786 308.684 423.967 303.223 417.161 303.197 407.903 303.277 399.605 291.955 397.527 280.94 391.933 274.293 382.276 263.557 366.879 262.065 346.899 264.97 328.824 273.134 277.037 312.92 232.683 362.177 215.966M361.471 332.047C345.287 343.969 335.763 362.483 328.517 380.757 349.59 379.199 370.488 371.168 386.339 357.048 392.758 351.162 398.593 343.289 398.339 334.165 398.379 330.316 395.503 327.079 391.96 325.961 381.584 322.204 369.995 325.601 361.471 332.047Z" transform="matrix(1 0 0 1.0003 -11.3638 185.763)"/><path d="M343.569 109.182C352.054 98.0731 367.637 93.6377 380.931 97.2873 388.976 100.084 394.078 107.81 396.009 115.802 397.807 130.001 390.495 142.708 385.153 155.255 418.132 157.2 450.819 151.192 483.653 149.407 491.432 148.355 499.303 148.368 507.135 148.608 508.627 162.554 509.427 176.566 510.492 190.552 511.158 202.499 512.676 214.475 511.331 226.435 510.718 242.432 508.4 258.349 508.8 274.386 508.827 286.348 510.958 298.175 511.145 310.136 491.95 308.192 472.011 300.027 453.017 307.473 441.322 311.309 432.824 321.551 429.388 333.153 427.363 340.718 423.927 349.057 427.63 356.676 431.079 362.496 437.06 366.226 442.695 369.702 463.5 381.797 488.421 382.076 511.81 382.116 512.117 412.419 509.719 442.681 508.161 472.93 506.962 487.742 508.054 502.606 507.335 517.445 485.437 517.778 464.086 511.225 442.175 511.57 422.795 511.877 403.202 510.185 384.061 514.141 384.994 523.932 392.013 531.79 392.998 541.554 394.517 554.646 387.67 568.1 376.576 575.079 365.107 582.805 350.255 584.443 337.095 580.567 328.184 577.917 317.942 574.519 313.387 565.702 309.084 554.886 312.521 542.459 318.675 533.068 323.23 526.022 333.007 522.892 334.672 513.981 327.412 510.865 319.46 510.385 311.669 510.425 285.468 510.172 259.242 510.092 233.055 511.45 219.056 511.45 205.031 512.05 191.045 511.185 190.619 488.621 190.925 466.031 190.845 443.453 190.925 435.529 190.952 427.59 191.844 419.704 193.255 405.505 192.83 391.227 192.883 376.988 192.83 369.569 193.243 362.137 192.723 354.731 180.523 358.541 168.841 364.654 155.92 365.627 146.411 366.039 136.154 366.292 127.683 361.258 122.222 357.874 117.214 351.894 118.266 345.074 119.544 336.043 125.098 328.184 131.812 322.258 136.047 318.581 140.19 314.372 145.665 312.614 153.762 310.589 162.208 310.896 170.506 310.909 177.552 310.802 184.291 313.067 190.965 315.052 194.855 298.242 191.75 280.873 193.722 263.864 196.985 235.493 196.958 206.909 196.786 178.391 196.653 171.625 197.185 164.871 197.945 158.158 207.029 157.612 216.019 159.317 225.104 159.065 266.728 159.144 308.938 160.743 349.829 151.499 347.032 142.681 342.929 134.342 340.612 125.378 339.999 119.837 339.959 113.817 343.569 109.182M362.177 215.966C312.92 232.683 273.134 277.037 264.97 328.824 262.065 346.899 263.557 366.879 274.293 382.276 280.94 391.933 291.955 397.527 303.277 399.605 303.197 407.903 303.223 417.161 308.684 423.967 314.052 430.786 325.787 428.975 330.129 421.969 332.207 418.719 329.077 415.736 327.572 413.044 324.695 409.168 324.601 404.174 324.202 399.579 348.004 397.421 372.073 391.067 391.826 377.148 404.733 367.93 415.696 354.465 418.159 338.415 419.904 328.158 415.895 316.717 406.998 310.936 398.259 305.275 387.298 303.783 377.121 305.168 362.829 307.273 349.975 315.132 339.919 325.268 324.908 340.213 314.932 359.419 307.966 379.239 300.093 376.681 292.274 372.087 288.665 364.294 282.698 351.028 283.723 335.723 287.453 321.978 293.087 299.734 304.623 278.595 322.191 263.57 338.228 249.971 357.941 241.54 377.921 235.546 383.195 234.041 389.016 230.898 390.175 225.024 391.573 219.149 386.339 213.742 380.864 212.703 374.431 211.397 368.17 213.968 362.177 215.966Z" fill="#8FBEE5" transform="matrix(1 0 0 1.0003 -11.3638 185.763)"/><path d="M361.471 332.047C369.995 325.601 381.584 322.204 391.96 325.961 395.503 327.079 398.379 330.316 398.339 334.165 398.593 343.289 392.758 351.162 386.339 357.048 370.488 371.168 349.59 379.199 328.517 380.757 335.763 362.483 345.287 343.969 361.471 332.047Z" fill="#8FBEE5" transform="matrix(1 0 0 1.0003 -11.3638 185.763)"/></g></g></g></g></svg>