<svg width="487" height="563" xmlns="http://www.w3.org/2000/svg" xmlns:xlink="http://www.w3.org/1999/xlink" xml:space="preserve" overflow="hidden"><defs><clipPath id="clip0"><rect x="307" y="345" width="487" height="563"/></clipPath></defs><g clip-path="url(#clip0)" transform="translate(-307 -345)"><path d="M524.436 395.44C529.746 373.682 551.624 356.313 574.303 358.301 584.522 359.221 594.527 365.371 598.636 374.989 608.628 397.215 607.281 422.548 602.558 445.921 626.784 445.267 651.051 446.254 675.25 444.707 693.954 444.587 712.604 441.545 731.321 443.173 736.123 443.6 741.273 447.749 740.312 453.005 739.352 488.811 734.149 524.323 732.962 560.116 731.881 568.68 732.228 577.311 732.228 585.929 740.739 582.581 750.117 579.633 759.242 582.167 763.872 584.555 767.033 588.918 769.888 593.133 780.961 610.036 787.097 630.393 786.083 650.631 785.083 659.969 784.256 670.135 778.319 677.845 772.516 683.955 763.818 685.89 755.8 687.224 750.131 688.038 744.288 689.812 738.591 688.304 732.735 686.023 728.546 681.154 724.103 676.952 719.474 721.536 736.123 766.493 725.077 810.69 705.587 816.467 685.736 807.408 666.046 810.677 646.608 812.131 627.118 810.01 607.894 807.182 618.287 828.206 621.888 853.326 614.124 875.805 611.83 882.649 608.441 889.559 602.291 893.721 595.714 898.537 587.123 899.925 579.199 898.404 562.777 897.443 548.969 887.305 536.883 877.046 527.731 869.322 525.01 856.688 524.996 845.229 525.143 836.651 524.85 828.019 526.05 819.508 513.257 816.974 500.13 817.961 487.163 817.654 477.304 818.107 467.472 815.719 457.613 817.054 449.289 818.508 440.818 817.294 432.427 817.814 425.756 818.214 419.073 818.081 412.442 817.307 398.969 818.694 385.268 819.201 372.207 823.11 365.284 824.991 358.04 824.204 350.969 824.538 344.032 824.377 336.041 825.151 330.438 820.255 330.572 805.474 331.426 790.599 329.371 775.911 329.104 768.334 329.811 760.717 328.744 753.179 327.223 744.134 328.784 734.903 327.383 725.831 326.61 721.149 326.476 716.399 326.97 711.69 327.61 705.941 326.223 700.204 326.81 694.454 327.73 686.063 327.197 677.485 329.491 669.281 339.043 676.578 346.594 686.29 356.973 692.52 360.681 694.801 364.457 696.949 368.379 698.83 372.114 701.245 375.943 697.669 379.051 695.775 389.604 687.064 399.422 676.191 402.491 662.451 405.279 653.232 403.278 643.614 401.743 634.382 400.596 629.126 399.249 623.536 395.593 619.414 389.537 614.411 381.199 615.212 373.888 613.971 360.775 614.345 351.263 624.59 340.417 630.58 337.362 632.461 332.093 631.807 330.892 628.032 328.958 620.481 327.69 612.757 327.183 604.993 326.983 606.447 326.796 607.915 326.596 609.382 327.61 598.856 322.541 588.971 323.315 578.459 323.755 570.014 323.088 561.61 322.194 553.219 322.367 541.145 320.326 529.219 320.593 517.132 318.539 502.992 319.713 488.677 319.446 474.443 319.513 465.745 318.725 456.86 321.007 448.362 345.5 443.466 370.46 447.548 395.073 449.096 417.792 451.404 440.604 449.363 463.163 446.388 461.456 446.241 459.775 446.014 458.094 445.734 461.509 444.747 465.004 445.974 468.459 445.801 474.689 445.641 480.879 444.187 487.136 444.867 501.597 446.054 516.058 450.016 530.626 447.375 525.77 430.593 521.074 412.983 524.436 395.44M533.574 403.778C531.693 421.294 536.736 439.624 547.942 453.298 522.382 463.037 494.98 456.02 468.553 456.433 456.8 456.14 445.474 460.369 433.721 459.995 429.705 459.955 425.703 459.942 421.701 459.968 390.831 460.969 360.268 454.552 329.371 455.659 329.104 465.425 328.758 475.243 329.971 484.955 330.692 497.469 329.985 510.022 330.772 522.535 332.279 532.981 330.999 543.627 332.613 554.072 333.907 575.51 335.775 596.922 338.456 618.24 354.811 603.579 379.745 598.283 400.129 607.021 409.641 613.798 412.923 626.084 414.137 637.13 414.937 650.017 416.151 663.678 410.615 675.764 404.505 690.305 392.245 701.151 379.011 709.156 377.81 709.916 376.503 710.236 375.089 710.143 360.294 708.395 346.073 701.832 335.561 691.159 336.415 718.067 337.869 744.948 339.39 771.843 339.523 786.317 339.35 800.805 339.457 815.293 340.684 815.052 343.125 814.572 344.353 814.332 353.264 813.838 362.296 814.439 371.047 812.291 403.438 805.047 436.949 806.368 469.833 808.235 480.946 808.209 492.059 808.235 503.171 808.169 515.645 807.422 528.158 806.194 540.658 807.021 544.26 807.288 547.262 809.516 549.97 811.704 546.314 813.585 542.472 815.106 538.857 817.067 537.15 818.027 537.283 820.255 536.816 821.923 534.948 833.142 532.801 844.695 535.055 856.034 535.695 859.676 537.27 863.185 539.898 865.84 547.168 873.617 556.04 880.007 565.978 883.889 576.904 888.318 589.631 888.865 600.57 884.196 605.093 869.548 610.989 854.287 607.574 838.732 605.386 823.457 595.328 811.09 590.178 796.936 597.369 797.136 604.599 796.656 611.776 797.43 627.665 798.684 643.473 802.366 659.482 800.965 678.999 798.977 698.65 800.978 717.993 803.806 722.182 771.242 716.273 738.625 714.365 706.127 714.005 693.507 714.138 680.887 714.231 668.267 717.967 666.986 721.769 664.772 725.864 665.572 732.268 668.28 736.483 674.897 743.247 676.765 754.186 677.325 768.874 675.924 773.743 664.318 777.812 649.283 776.105 633.195 771.609 618.44 767.7 607.915 761.564 597.656 751.972 591.412 749.17 589.758 746.169 592.186 743.807 593.56 736.323 598.83 728.919 604.219 721.182 609.115 723.783 556.46 726.478 503.779 732.295 451.377 707.068 453.352 681.841 456.14 656.507 455.526 638.271 455.633 620.034 455.526 601.811 455.766 597.369 455.753 592.953 455.286 588.564 454.672 595.261 434.928 598.276 413.544 594.02 392.932 592.766 388.477 591.872 383.888 590.018 379.632 587.19 374.136 581.067 371.107 575.223 369.92 555.466 367.372 534.588 383.514 533.574 403.778Z"/><path d="M574.943 511.463C578.292 507.621 579.506 500.337 585.802 500.51 591.912 500.897 597.649 505.219 600.157 510.742 602.465 515.452 598.129 519.494 597.262 523.936 596.275 529.606 596.582 535.409 596.408 541.145 596.181 567.266 596.021 593.4 596.275 619.521 606.814 617.44 617.406 615.585 628.038 614.065 629.826 610.903 631.921 606.274 636.376 607.021 644.674 608.421 651.584 618.587 647.422 626.605 644.794 631.474 638.764 632.341 633.855 633.235 621.795 634.929 609.655 635.916 597.595 637.544 598.636 651.378 600.384 665.145 602.852 678.806 604.332 686.69 606.107 694.534 607.094 702.512 609.188 711.85 597.649 719.561 589.431 716.266 584.001 712.677 582.827 705.62 581.413 699.737 578.012 680.567 576.651 661.103 575.183 641.706 538.457 648.576 502.598 659.355 465.885 666.253 459.028 668.44 452.304 663.558 449.196 657.741 447.261 653.753 449.236 649.163 452.251 646.335 470.26 629.166 486.402 610.169 503.958 592.546 529.946 567.626 551.664 538.811 574.943 511.463M485.108 640.559C496.234 637.971 507.574 636.37 518.7 633.728 536.963 629.513 555.466 626.418 573.809 622.576 572.368 596.682 573.716 570.708 574.036 544.787 544.82 577.125 514.524 608.421 485.108 640.559Z"/><path d="M533.574 403.778C534.588 383.514 555.466 367.372 575.223 369.92 581.067 371.107 587.19 374.136 590.018 379.632 591.872 383.888 592.766 388.477 594.02 392.932 598.276 413.544 595.261 434.928 588.564 454.672 592.953 455.286 597.369 455.753 601.811 455.766 620.034 455.526 638.271 455.633 656.507 455.526 681.841 456.14 707.068 453.352 732.295 451.377 726.478 503.779 723.783 556.46 721.182 609.115 728.919 604.219 736.323 598.83 743.807 593.56 746.169 592.186 749.17 589.758 751.972 591.412 761.564 597.656 767.7 607.915 771.609 618.44 776.105 633.195 777.812 649.283 773.743 664.318 768.874 675.924 754.186 677.325 743.247 676.765 736.483 674.897 732.268 668.28 725.864 665.572 721.769 664.772 717.967 666.986 714.231 668.267 714.138 680.887 714.005 693.507 714.365 706.127 716.273 738.625 722.182 771.242 717.993 803.806 698.65 800.978 678.999 798.977 659.482 800.965 643.473 802.366 627.665 798.684 611.776 797.43 604.599 796.656 597.369 797.136 590.178 796.936 595.328 811.09 605.386 823.457 607.574 838.732 610.989 854.287 605.093 869.548 600.57 884.196 589.631 888.865 576.904 888.318 565.978 883.889 556.04 880.007 547.168 873.617 539.898 865.84 537.27 863.185 535.695 859.676 535.055 856.034 532.801 844.695 534.948 833.142 536.816 821.923 537.283 820.255 537.15 818.027 538.857 817.067 542.472 815.106 546.314 813.585 549.97 811.704 547.262 809.516 544.26 807.288 540.658 807.021 528.158 806.194 515.645 807.422 503.171 808.169 492.059 808.235 480.946 808.209 469.833 808.235 436.949 806.368 403.438 805.047 371.047 812.291 362.296 814.439 353.264 813.838 344.353 814.332 343.125 814.572 340.684 815.052 339.457 815.293 339.35 800.805 339.523 786.317 339.39 771.843 337.869 744.948 336.415 718.067 335.561 691.159 346.073 701.832 360.294 708.395 375.089 710.143 376.503 710.236 377.81 709.916 379.011 709.156 392.245 701.151 404.505 690.305 410.615 675.764 416.151 663.678 414.937 650.017 414.137 637.13 412.923 626.084 409.641 613.798 400.129 607.021 379.745 598.283 354.811 603.579 338.456 618.24 335.775 596.922 333.907 575.51 332.613 554.072 330.999 543.627 332.279 532.981 330.772 522.535 329.985 510.022 330.692 497.469 329.971 484.955 328.758 475.243 329.104 465.425 329.371 455.659 360.268 454.552 390.831 460.969 421.701 459.968 425.703 459.942 429.705 459.955 433.721 459.995 445.474 460.369 456.8 456.14 468.553 456.433 494.98 456.02 522.382 463.037 547.942 453.298 536.736 439.624 531.693 421.294 533.574 403.778M574.943 511.463C551.664 538.811 529.946 567.626 503.958 592.546 486.402 610.169 470.26 629.166 452.251 646.335 449.236 649.163 447.261 653.753 449.196 657.741 452.304 663.558 459.028 668.44 465.885 666.253 502.598 659.355 538.457 648.576 575.183 641.706 576.651 661.103 578.012 680.567 581.413 699.737 582.827 705.62 584.001 712.677 589.431 716.266 597.649 719.561 609.188 711.85 607.094 702.512 606.107 694.534 604.332 686.69 602.852 678.806 600.384 665.145 598.636 651.378 597.595 637.544 609.655 635.916 621.795 634.929 633.855 633.235 638.764 632.341 644.794 631.474 647.422 626.605 651.584 618.587 644.674 608.421 636.376 607.021 631.921 606.274 629.826 610.903 628.038 614.065 617.406 615.585 606.814 617.44 596.275 619.521 596.021 593.4 596.181 567.266 596.408 541.145 596.582 535.409 596.275 529.606 597.262 523.936 598.129 519.494 602.465 515.452 600.157 510.742 597.649 505.219 591.912 500.897 585.802 500.51 579.506 500.337 578.292 507.621 574.943 511.463Z" fill="#B7C0A1"/><path d="M485.108 640.559C514.524 608.421 544.82 577.125 574.036 544.787 573.716 570.708 572.368 596.682 573.809 622.576 555.466 626.418 536.963 629.513 518.7 633.728 507.574 636.37 496.234 637.971 485.108 640.559Z" fill="#B7C0A1"/></g></svg>