<svg width="495" height="565" xmlns="http://www.w3.org/2000/svg" xmlns:xlink="http://www.w3.org/1999/xlink" xml:space="preserve" overflow="hidden"><defs><clipPath id="clip0"><rect x="116" y="69" width="495" height="565"/></clipPath><clipPath id="clip1"><rect x="116" y="100" width="495" height="465"/></clipPath><clipPath id="clip2"><rect x="116" y="100" width="495" height="465"/></clipPath></defs><g clip-path="url(#clip0)" transform="translate(-116 -69)"><g clip-path="url(#clip1)"><g clip-path="url(#clip2)"><path d="M215.425 27.5431C228.01 18.5976 242.889 11.8518 258.607 12.0651 269.405 11.9984 281.644 11.4785 290.509 18.7042 298.628 27.1831 298.468 39.7815 300.388 50.6468 301.481 58.9257 294.362 64.5783 290.429 70.9375 329.424 73.8438 368.486 60.2055 407.227 69.1244 413.173 85.6689 405.974 102.987 407.307 119.904 408.987 140.129 407.454 160.433 404.681 180.497 423.985 170.538 447.662 167.512 468.046 176.031 476.498 179.203 483.257 186.922 484.684 195.908 485.191 201.347 485.017 206.853 484.391 212.266 482.644 224.398 475.778 234.916 468.793 244.688 463.287 252.794 453.941 258.713 443.956 258.513 434.477 258.647 425.012 258.487 415.546 258.433 412.747 271.698 414.68 285.35 413.147 298.748 413.16 309.28 412.32 319.865 413.733 330.344 413.92 338.396 413.773 346.475 414.12 354.541 412.947 372.232 415 390.056 419.052 407.294 419.626 416.386 419.799 425.545 419.306 434.65 419.066 437.717 418.413 440.916 416.479 443.383 410.64 444.302 404.601 443.263 398.682 443.529 389.283 443.196 380.004 445.236 370.619 444.836 363.046 444.489 355.607 446.449 348.035 446.116 339.956 445.769 332.01 447.755 323.945 447.382 310.506 447.035 296.842 448.449 283.657 445.102 286.603 439.383 291.629 435.21 295.522 430.171 301.494 422.665 307.147 414.4 310.027 405.228 308.347 398.002 302.294 393.002 297.428 387.803 289.642 379.271 278.044 374.498 266.579 374.405 258.433 375.418 249.968 376.245 242.515 379.924 237.769 381.991 236.463 387.51 235.756 392.136 235.01 398.282 233.916 404.721 235.943 410.747 238.916 419.519 244.915 426.758 249.314 434.81 251.074 437.757 250.128 442.716 246.448 443.583 236.289 446.689 225.597 447.342 215.265 449.702 205.027 452.515 194.322 450.115 183.936 451.675 176.031 452.968 167.952 451.901 160.046 453.288 146.234 454.008 132.41 454.554 118.571 454.328 109.213 454.088 99.7604 454.941 90.4816 453.581 88.0286 452.781 88.2152 449.995 87.842 447.942 83.9491 415.506 91.7881 383.137 90.0417 350.661 89.2551 327.984 83.0026 305.307 86.9754 282.617 88.7752 273.191 88.6152 263.566 88.0419 254.034 76.6567 257.14 65.2449 261.233 53.2864 260.9 28.9429 262.299 8.2656 238.223 9.66542 214.639 9.29213 203.454 16.2379 191.988 26.9698 188.189 45.7274 180.31 66.8447 181.417 86.3222 185.749 86.2955 162.926 86.1355 140.102 85.6156 117.278 84.4957 99.5604 83.7492 81.8027 84.2691 64.0584 84.1091 59.0724 88.0286 54.6729 93.0413 54.5263 110.439 56.0594 127.917 57.0326 145.315 58.8724 166.712 60.4855 188.136 62.9785 209.626 62.3253 207.56 55.0729 204.587 47.6472 205.827 39.9815 206.773 34.5422 211.173 30.636 215.425 27.5431M257.5 21.7838 257.18 22.6637 256.54 22.0638C242.382 22.6904 227.784 28.5696 218.265 39.4082 215.132 42.0746 213.639 46.7006 216.012 50.3401 220.931 57.7925 226.037 65.1382 230.357 72.9772 221.078 72.9106 211.799 72.7106 202.547 72.204 194.748 70.7242 186.736 71.844 178.924 70.5775 149.901 68.8978 120.904 66.578 92.0548 62.8185 93.0546 84.5757 95.8409 106.2 95.401 128.01 95.1344 151.807 95.9609 175.644 94.9744 199.428 86.4555 196.908 78.0699 193.735 69.1644 192.815 55.4995 191.655 41.1413 192.002 28.5163 197.948 21.7705 201.774 19.7574 210.199 20.0641 217.452 20.7706 231.917 30.556 247.128 45.4075 250.074 56.5393 250.821 68.2045 251.314 78.6032 246.515 84.4957 244.595 88.7485 239.342 94.7344 237.956 95.4143 246.648 98.2406 255.114 97.934 263.899 98.4273 279.044 96.2275 294.042 96.3609 309.187 96.8408 314.946 95.9876 320.852 97.5474 326.504 100.414 343.262 98.7339 360.327 99.1605 377.245 98.6006 391.136 96.5742 404.934 96.3075 418.852 94.8411 427.345 95.7476 436.024 95.4676 444.596 108.519 445.636 121.571 444.196 134.609 443.703 149.101 443.983 163.539 442.743 177.99 441.863 183.63 440.276 189.589 441.45 195.335 440.49 200.494 439.25 205.827 439.743 211.053 439.036 219.865 437.343 229.184 438.023 237.743 435.33 228.584 425.905 225.371 412.4 223.824 399.762 223.651 397.775 224.064 395.842 224.411 393.896 225.171 388.056 225.571 381.777 228.85 376.698 234.823 369.139 244.315 365.193 253.74 364.3 256.194 363.806 258.66 363.473 261.166 363.513 261.433 363.006 261.979 361.993 262.246 361.473L261.873 364.126C268.845 364.153 275.978 363.54 282.79 365.246 297.055 369.659 308.147 380.964 315.852 393.389 317.266 395.895 319.225 398.335 319.545 401.281 317.679 415.133 312.64 428.824 302.827 439.077 315.879 437.41 329.117 438.543 342.182 436.93 349.315 436.277 356.581 437.063 363.646 435.664 379.524 435.197 395.402 435.41 411.28 435.357 410.56 423.492 410.56 411.507 407.961 399.855 400.775 362.9 405.961 325.198 405.161 287.909 405.348 273.298 403.321 258.7 404.334 244.102 404.961 241.142 405.987 237.423 408.894 235.983 410.827 239.636 412.32 243.488 414.186 247.181 422.252 248.621 430.344 250.394 438.597 250.261 444.329 250.194 450.768 249.874 455.248 245.795 463.26 237.756 469.939 228.077 472.899 216.999 475.245 207.52 475.352 197.174 472.179 187.869 461.234 184.469 450.315 179.403 438.57 180.377 422.572 181.243 409.414 191.322 395.549 198.188 395.375 185.069 395.202 171.871 397.642 158.953 399.122 144.355 398.028 129.677 398.055 115.052 398.148 109.639 397.682 104.147 398.895 98.8272 399.548 91.3215 399.842 83.7758 399.855 76.2435 369.659 72.3906 339.463 78.7631 309.307 80.0963 300.334 80.2163 291.362 80.083 282.403 80.1363 280.937 76.5634 279.391 72.9372 279.404 69.0044 282.497 61.8853 290.536 56.6193 289.203 48.0871 289.576 39.2083 287.883 28.023 278.964 23.7303 272.111 21.4639 264.619 21.0373 257.5 21.7838Z" transform="matrix(1.00013 0 0 1 116.167 100.478)"/><path d="M238.742 104.8C246.315 103.707 253.021 98.9472 260.873 99.4405 265.726 100.28 268.792 104.213 271.498 107.946 281.764 107.239 291.562 103.88 301.334 100.96 309.427 100.067 318.039 97.9473 325.944 100.76 331.744 104.64 332.624 112.839 329.811 118.865 325.784 121.411 321.505 123.504 317.026 125.104 298.188 132.743 278.697 138.582 259.46 145.101 249.981 147.968 240.715 151.487 231.263 154.407 214.026 160.793 196.161 165.165 178.724 170.898 165.725 173.818 153.34 179.057 140.209 181.363 138.195 178.444 135.369 175.724 135.196 171.951 134.876 167.645 133.823 162.072 137.796 159.046 145.874 152.674 155.82 149.461 164.979 144.995 173.671 140.702 183.283 138.569 191.695 133.676 191.162 131.196 190.602 128.717 190.029 126.264 191.415 124.051 192.948 121.798 195.375 120.611 202.587 116.732 210.266 113.745 218.065 111.239 224.958 109.079 231.543 105.853 238.742 104.8M251.941 107.933C246.221 110.319 239.889 110.532 234.076 112.665 222.505 116.932 210.399 119.984 199.561 126.05 197.148 127.01 196.241 129.143 196.468 131.676 203.294 129.797 209.48 126.17 216.399 124.584 226.731 121.984 236.729 118.358 246.755 114.772 253.221 112.639 260.1 112.079 266.565 109.906 265.166 108.253 263.753 106.586 262.366 104.92 258.807 105.6 255.287 106.506 251.941 107.933M300.374 108.706C288.123 112.652 275.338 114.492 263.033 118.198 259.766 119.118 256.34 119.145 253.047 119.851 241.369 123.957 229.717 128.117 217.705 131.183 204.654 134.316 193.148 141.542 180.537 145.928 172.644 148.834 165.045 152.46 157.366 155.86 152.034 158.313 146.554 160.753 142.088 164.619 139.555 167.218 140.728 171.191 140.688 174.417 149.501 172.364 158.006 169.231 166.658 166.618 177.217 164.392 187.322 160.459 197.708 157.526 213.959 153.02 229.69 146.901 245.728 141.728 273.005 132.783 300.534 124.291 326.784 112.559 325.984 110.812 325.185 109.053 324.398 107.293 316.492 105.093 308.227 107.266 300.374 108.706Z" transform="matrix(1.00013 0 0 1 116.167 100.478)"/><path d="M325.798 129.903C329.384 128.477 333.317 133.783 330.277 136.622 326.998 140.555 321.625 141.622 317.466 144.395 327.424 144.448 338.29 143.155 347.182 148.621 352.141 151.847 357.927 153.62 362.553 157.38 367.006 160.952 372.538 163.179 376.258 167.632 379.244 170.925 381.204 175.044 382.137 179.377 380.084 180.457 378.031 181.497 375.965 182.523 367.686 172.498 357.94 163.366 346.022 157.886 335.943 154.66 325.358 151.954 314.693 153.34 316.759 156.233 320.159 157.793 322.158 160.726 323.598 162.632 322.918 165.125 323.092 167.338 311.813 168.218 305.054 157.66 295.562 153.58 295.202 152.834 294.509 151.354 294.162 150.621 295.615 147.248 297.135 143.275 301.134 142.315 309.933 139.342 317.079 132.996 325.798 129.903Z" transform="matrix(1.00013 0 0 1 116.167 100.478)"/><path d="M313.239 174.097C323.158 172.964 333.157 173.084 343.116 173.138 340.503 186.483 336.89 199.641 334.37 213.012 331.597 229.317 325.678 244.888 322.372 261.073 320.119 271.885 314.946 281.75 312.4 292.482 305.92 308.507 301.334 325.984 289.776 339.303 281.804 345.115 271.232 341.902 262.166 344.102 256.06 344.862 249.954 345.649 243.822 346.142 236.503 347.515 228.984 346.995 221.625 346.169 212.133 346.422 202.667 345.475 193.268 344.235 189.309 343.036 185.683 340.849 181.536 340.209 179.35 335.037 178.87 329.397 177.324 324.038 173.991 313.466 170.418 302.867 169.085 291.829 167.752 279.177 163.019 267.272 159.393 255.167 155.353 244.235 152.66 232.877 149.181 221.771 146.768 213.266 142.528 205.24 141.702 196.335 140.062 195.948 138.422 195.668 136.796 195.295 136.569 193.748 136.342 192.202 136.129 190.669 138.169 189.629 140.275 188.429 142.662 188.522 150.207 188.336 157.753 187.776 165.219 186.576 179.47 183.336 194.242 184.083 208.6 181.563 219.812 179.603 231.237 179.617 242.529 178.47 248.075 178.057 253.674 178.057 259.113 179.31 259.233 179.31 259.46 179.297 259.58 179.297L259.58 179.35C265.392 177.724 271.498 177.924 277.417 176.83 289.269 174.777 301.348 175.644 313.239 174.097M272.458 184.283C259.54 185.816 246.488 183.936 233.583 185.643 217.332 187.589 200.974 188.576 184.803 191.149 172.258 191.722 160.059 195.055 147.514 195.455 152.127 210.986 158.1 226.077 162.152 241.795 166.698 256.967 173.764 271.485 175.657 287.363 176.964 294.669 178.324 301.974 180.07 309.2 182.83 317.226 185.296 325.358 187.442 333.583 188.042 337.676 193.122 337.183 196.188 337.943 211.453 340.916 226.997 338.716 242.409 339.076 250.621 339.449 258.5 336.57 266.685 336.556 272.871 336.01 279.484 337.036 285.31 334.517 293.189 323.331 295.535 309.507 300.921 297.148 303.774 287.349 308.547 278.271 311.386 268.459 319.279 246.621 325.691 224.238 329.477 201.307 331.184 194.521 332.877 187.709 333.703 180.737 329.744 179.11 325.491 180.35 321.385 180.417 305.081 181.763 288.696 182.176 272.458 184.283Z" transform="matrix(1.00013 0 0 1 116.167 100.478)"/><path d="M228.117 200.867C233.543 197.921 239.876 196.175 245.955 198.041 251.008 200.961 254.434 206.16 256.207 211.626 262.046 235.716 261.886 260.7 262.246 285.35 262.086 292.909 262.739 300.774 259.953 307.973 258.78 311.08 257.447 314.239 257.807 317.652 254.287 323.931 246.141 326.144 239.502 324.358 234.343 321.598 230.97 315.986 230.677 310.173 227.891 285.07 230.65 259.753 229.077 234.583 228.49 223.358 228.184 212.119 228.117 200.867M234.05 207.786C233.396 218.132 236.009 228.277 236.116 238.596 235.876 240.382 235.556 242.169 235.716 243.982 237.009 254.567 235.929 265.259 236.209 275.884 236.703 284.496 234.143 293.002 235.876 301.588 237.543 307.92 236.596 315.932 242.529 320.239 245.675 320.518 248.808 318.559 250.261 315.812 254.02 309.413 256.58 302.161 256.42 294.669 256.953 271.445 256.26 248.128 253.314 225.064 252.234 219.198 249.928 213.612 247.621 208.133 245.915 205.373 243.795 201.374 239.916 202.147 236.823 202.001 234.023 204.72 234.05 207.786Z" transform="matrix(1.00013 0 0 1 116.167 100.478)"/><path d="M291.989 201.521C292.989 199.841 293.455 197.081 296.002 197.441 302.587 197.308 310.533 196.575 315.439 201.921 319.465 207.493 316.746 214.426 315.279 220.398 309.773 238.649 308.36 257.82 302.881 276.084 299.561 289.669 294.295 302.641 288.883 315.506 287.003 320.199 283.283 323.731 278.977 326.211 274.564 325.478 268.325 325.011 266.899 319.812 265.072 313.093 265.752 305.84 267.179 299.108 270.978 286.03 274.271 272.791 278.551 259.873 280.63 247.395 282.483 234.876 284.87 222.451 286.123 216.105 288.296 209.946 288.896 203.48 289.922 202.827 290.962 202.174 291.989 201.521M293.135 218.385C287.563 236.396 288.429 255.834 281.59 273.511 278.924 286.403 273.338 298.681 272.791 311.986 272.791 314.799 272.698 317.972 274.644 320.252 276.524 321.705 278.124 319.065 279.244 317.866 285.576 308.56 288.243 297.455 292.296 287.083 296.615 271.618 300.921 256.047 303.001 240.089 305.094 229.357 307.72 218.732 310.173 208.093 311.133 201.214 302.681 202.374 298.321 202.187 295.148 207.08 293.669 212.626 293.135 218.385Z" transform="matrix(1.00013 0 0 1 116.167 100.478)"/><path d="M177.804 203.12C181.297 201.587 186.109 201.254 188.896 204.32 192.482 208.133 194.388 213.132 196.868 217.678 206.787 236.823 210.146 258.313 215.625 278.937 217.985 286.803 220.132 294.722 222.598 302.561 223.784 308.747 224.104 315.586 221.385 321.438 220.118 324.518 216.799 326.891 213.386 326.278 206.467 325.558 200.921 320.452 197.028 315.026 193.602 308.173 191.642 300.681 188.922 293.535 186.336 287.096 186.016 280.044 183.683 273.538 181.457 264.992 178.964 256.513 177.217 247.848 174.391 236.983 170.031 226.091 171.231 214.639 171.125 209.999 173.218 204.893 177.804 203.12M179.443 209.853C178.524 215.399 179.19 221.078 179.617 226.651 179.71 229.397 178.23 232.437 179.883 234.97 182.803 239.476 183.11 244.942 184.496 249.994 187.056 258.673 188.656 267.605 191.509 276.204 193.215 287.229 197.521 297.548 201.201 308 203.374 314.386 208.92 318.892 214.706 321.932 216.065 319.265 217.598 316.452 217.265 313.333 216.719 301.388 210.986 290.522 208.8 278.897 207.933 274.498 205.827 270.445 205.107 266.006 201.001 245.848 194.948 225.597 183.096 208.546 182.363 206.253 179.243 208 179.443 209.853Z" transform="matrix(1.00013 0 0 1 116.167 100.478)"/><path d="M257.5 21.7838C264.619 21.0373 272.111 21.4639 278.964 23.7303 287.883 28.023 289.576 39.2083 289.203 48.0871 290.536 56.6193 282.497 61.8853 279.404 69.0044 279.391 72.9372 280.937 76.5634 282.403 80.1363 291.362 80.083 300.334 80.2163 309.307 80.0963 339.463 78.7631 369.659 72.3906 399.855 76.2435 399.842 83.7758 399.548 91.3215 398.895 98.8272 397.682 104.147 398.148 109.639 398.055 115.052 398.028 129.677 399.122 144.355 397.642 158.953 395.202 171.871 395.375 185.069 395.549 198.188 409.414 191.322 422.572 181.243 438.57 180.377 450.315 179.403 461.234 184.469 472.179 187.869 475.352 197.174 475.245 207.52 472.899 216.999 441.516 214.732 410.04 214.706 378.591 214.879 363.94 214.319 349.395 216.985 334.743 216.225 334.65 215.425 334.463 213.826 334.37 213.012 336.89 199.641 340.503 186.483 343.116 173.138 333.157 173.084 323.158 172.964 313.239 174.097 301.348 175.644 289.269 174.777 277.417 176.83 271.498 177.924 265.392 177.724 259.58 179.35L259.58 179.297C259.22 167.898 259.78 156.5 259.46 145.101 278.697 138.582 298.188 132.743 317.026 125.104 321.505 123.504 325.784 121.411 329.811 118.865 332.624 112.839 331.744 104.64 325.944 100.76 318.039 97.9473 309.427 100.067 301.334 100.96 291.562 103.88 281.764 107.239 271.498 107.946 268.792 104.213 265.726 100.28 260.873 99.4405 260.166 98.7339 259.446 98.0406 258.713 97.3874 258.74 72.4706 257.767 47.5672 257.18 22.6637L257.5 21.7838M325.798 129.903C317.079 132.996 309.933 139.342 301.134 142.315 297.135 143.275 295.615 147.248 294.162 150.621 294.509 151.354 295.202 152.834 295.562 153.58 305.054 157.66 311.813 168.218 323.092 167.338 322.918 165.125 323.598 162.632 322.158 160.726 320.159 157.793 316.759 156.233 314.693 153.34 325.358 151.954 335.943 154.66 346.022 157.886 357.94 163.366 367.686 172.498 375.965 182.523 378.031 181.497 380.084 180.457 382.137 179.377 381.204 175.044 379.244 170.925 376.258 167.632 372.538 163.179 367.006 160.952 362.553 157.38 357.927 153.62 352.141 151.847 347.182 148.621 338.29 143.155 327.424 144.448 317.466 144.395 321.625 141.622 326.998 140.555 330.277 136.622 333.317 133.783 329.384 128.477 325.798 129.903Z" fill="#E89480" transform="matrix(1.00013 0 0 1 116.167 100.478)"/><path d="M377.378 357.567C379.231 356.874 379.844 357.487 379.244 359.393 377.378 360.073 376.765 359.46 377.378 357.567Z" fill="#E89480" transform="matrix(1.00013 0 0 1 116.167 100.478)"/><path d="M218.265 39.4082C227.784 28.5696 242.382 22.6904 256.54 22.0638L257.18 22.6637C257.767 47.5672 258.74 72.4706 258.713 97.3874 259.446 98.0406 260.166 98.7339 260.873 99.4405 253.021 98.9472 246.315 103.707 238.742 104.8 231.543 105.853 224.958 109.079 218.065 111.239 210.266 113.745 202.587 116.732 195.375 120.611 192.948 121.798 191.415 124.051 190.029 126.264 190.602 128.717 191.162 131.196 191.695 133.676 183.283 138.569 173.671 140.702 164.979 144.995 155.82 149.461 145.874 152.674 137.796 159.046 133.823 162.072 134.876 167.645 135.196 171.951 135.369 175.724 138.195 178.444 140.209 181.363 153.34 179.057 165.725 173.818 178.724 170.898 196.161 165.165 214.026 160.793 231.263 154.407 240.715 151.487 249.981 147.968 259.46 145.101 259.78 156.5 259.22 167.898 259.58 179.297 259.46 179.297 259.233 179.31 259.113 179.31 253.674 178.057 248.075 178.057 242.529 178.47 231.237 179.617 219.812 179.603 208.6 181.563 194.242 184.083 179.47 183.336 165.219 186.576 157.753 187.776 150.207 188.336 142.662 188.522 140.275 188.429 138.169 189.629 136.129 190.669 136.342 192.202 136.569 193.748 136.796 195.295 138.422 195.668 140.062 195.948 141.702 196.335 142.528 205.24 146.768 213.266 149.181 221.771 106.106 223.504 62.8985 222.438 20.0641 217.452 19.7574 210.199 21.7705 201.774 28.5163 197.948 41.1413 192.002 55.4995 191.655 69.1644 192.815 78.0699 193.735 86.4555 196.908 94.9744 199.428 95.9609 175.644 95.1344 151.807 95.401 128.01 95.8409 106.2 93.0546 84.5757 92.0548 62.8185 120.904 66.578 149.901 68.8978 178.924 70.5775 186.736 71.844 194.748 70.7242 202.547 72.204 211.799 72.7106 221.078 72.9106 230.357 72.9772 226.037 65.1382 220.931 57.7925 216.012 50.3401 213.639 46.7006 215.132 42.0746 218.265 39.4082Z" fill="#8FBEE5" transform="matrix(1.00013 0 0 1 116.167 100.478)"/><path d="M251.941 107.933C255.287 106.506 258.807 105.6 262.366 104.92 263.753 106.586 265.166 108.253 266.565 109.906 260.1 112.079 253.221 112.639 246.755 114.772 236.729 118.358 226.731 121.984 216.399 124.584 209.48 126.17 203.294 129.797 196.468 131.676 196.241 129.143 197.148 127.01 199.561 126.05 210.399 119.984 222.505 116.932 234.076 112.665 239.889 110.532 246.221 110.319 251.941 107.933Z" fill="#7C7C7C" transform="matrix(1.00013 0 0 1 116.167 100.478)"/><path d="M300.374 108.706C308.227 107.266 316.492 105.093 324.398 107.293 325.185 109.053 325.984 110.812 326.784 112.559 300.534 124.291 273.005 132.783 245.728 141.728 229.69 146.901 213.959 153.02 197.708 157.526 187.322 160.459 177.217 164.392 166.658 166.618 158.006 169.231 149.501 172.364 140.688 174.417 140.728 171.191 139.555 167.218 142.088 164.619 146.554 160.753 152.034 158.313 157.366 155.86 165.045 152.46 172.644 148.834 180.537 145.928 193.148 141.542 204.654 134.316 217.705 131.183 229.717 128.117 241.369 123.957 253.047 119.851 256.34 119.145 259.766 119.118 263.033 118.198 275.338 114.492 288.123 112.652 300.374 108.706Z" fill="#7C7C7C" transform="matrix(1.00013 0 0 1 116.167 100.478)"/><path d="M272.458 184.283C288.696 182.176 305.081 181.763 321.385 180.417 325.491 180.35 329.744 179.11 333.703 180.737 332.877 187.709 331.184 194.521 329.477 201.307 325.691 224.238 319.279 246.621 311.386 268.459 308.547 278.271 303.774 287.349 300.921 297.148 295.535 309.507 293.189 323.331 285.31 334.517 279.484 337.036 272.871 336.01 266.685 336.556 258.5 336.57 250.621 339.449 242.409 339.076 226.997 338.716 211.453 340.916 196.188 337.943 193.122 337.183 188.042 337.676 187.442 333.583 185.296 325.358 182.83 317.226 180.07 309.2 178.324 301.974 176.964 294.669 175.657 287.363 173.764 271.485 166.698 256.967 162.152 241.795 158.1 226.077 152.127 210.986 147.514 195.455 160.059 195.055 172.258 191.722 184.803 191.149 200.974 188.576 217.332 187.589 233.583 185.643 246.488 183.936 259.54 185.816 272.458 184.283M228.117 200.867C228.184 212.119 228.49 223.358 229.077 234.583 230.65 259.753 227.891 285.07 230.677 310.173 230.97 315.986 234.343 321.598 239.502 324.358 246.141 326.144 254.287 323.931 257.807 317.652 257.447 314.239 258.78 311.08 259.953 307.973 262.739 300.774 262.086 292.909 262.246 285.35 261.886 260.7 262.046 235.716 256.207 211.626 254.434 206.16 251.008 200.961 245.955 198.041 239.876 196.175 233.543 197.921 228.117 200.867M291.989 201.521C290.962 202.174 289.922 202.827 288.896 203.48 288.296 209.946 286.123 216.105 284.87 222.451 282.483 234.876 280.63 247.395 278.551 259.873 274.271 272.791 270.978 286.03 267.179 299.108 265.752 305.84 265.072 313.093 266.899 319.812 268.325 325.011 274.564 325.478 278.977 326.211 283.283 323.731 287.003 320.199 288.883 315.506 294.295 302.641 299.561 289.669 302.881 276.084 308.36 257.82 309.773 238.649 315.279 220.398 316.746 214.426 319.465 207.493 315.439 201.921 310.533 196.575 302.587 197.308 296.002 197.441 293.455 197.081 292.989 199.841 291.989 201.521M177.804 203.12C173.218 204.893 171.125 209.999 171.231 214.639 170.031 226.091 174.391 236.983 177.217 247.848 178.964 256.513 181.457 264.992 183.683 273.538 186.016 280.044 186.336 287.096 188.922 293.535 191.642 300.681 193.602 308.173 197.028 315.026 200.921 320.452 206.467 325.558 213.386 326.278 216.799 326.891 220.118 324.518 221.385 321.438 224.104 315.586 223.784 308.747 222.598 302.561 220.132 294.722 217.985 286.803 215.625 278.937 210.146 258.313 206.787 236.823 196.868 217.678 194.388 213.132 192.482 208.133 188.896 204.32 186.109 201.254 181.297 201.587 177.804 203.12Z" fill="#7C7C7C" transform="matrix(1.00013 0 0 1 116.167 100.478)"/><path d="M234.05 207.786C234.023 204.72 236.823 202.001 239.916 202.147 243.795 201.374 245.915 205.373 247.621 208.133 249.928 213.612 252.234 219.198 253.314 225.064 256.26 248.128 256.953 271.445 256.42 294.669 256.58 302.161 254.02 309.413 250.261 315.812 248.808 318.559 245.675 320.518 242.529 320.239 236.596 315.932 237.543 307.92 235.876 301.588 234.143 293.002 236.703 284.496 236.209 275.884 235.929 265.259 237.009 254.567 235.716 243.982 235.556 242.169 235.876 240.382 236.116 238.596 236.009 228.277 233.396 218.132 234.05 207.786Z" fill="#E8E8E9" transform="matrix(1.00013 0 0 1 116.167 100.478)"/><path d="M293.135 218.385C293.669 212.626 295.148 207.08 298.321 202.187 302.681 202.374 311.133 201.214 310.173 208.093 307.72 218.732 305.094 229.357 303.001 240.089 300.921 256.047 296.615 271.618 292.296 287.083 288.243 297.455 285.576 308.56 279.244 317.866 278.124 319.065 276.524 321.705 274.644 320.252 272.698 317.972 272.791 314.799 272.791 311.986 273.338 298.681 278.924 286.403 281.59 273.511 288.429 255.834 287.563 236.396 293.135 218.385Z" fill="#E8E8E9" transform="matrix(1.00013 0 0 1 116.167 100.478)"/><path d="M179.443 209.853C179.243 208 182.363 206.253 183.096 208.546 194.948 225.597 201.001 245.848 205.107 266.006 205.827 270.445 207.933 274.498 208.8 278.897 210.986 290.522 216.719 301.388 217.265 313.333 217.598 316.452 216.065 319.265 214.706 321.932 208.92 318.892 203.374 314.386 201.201 308 197.521 297.548 193.215 287.229 191.509 276.204 188.656 267.605 187.056 258.673 184.496 249.994 183.11 244.942 182.803 239.476 179.883 234.97 178.23 232.437 179.71 229.397 179.617 226.651 179.19 221.078 178.524 215.399 179.443 209.853Z" fill="#E8E8E9" transform="matrix(1.00013 0 0 1 116.167 100.478)"/><path d="M322.372 261.073C325.678 244.888 331.597 229.317 334.37 213.012 334.463 213.826 334.65 215.425 334.743 216.225 349.395 216.985 363.94 214.319 378.591 214.879 410.04 214.706 441.516 214.732 472.899 216.999 469.939 228.077 463.26 237.756 455.248 245.795 450.768 249.874 444.329 250.194 438.597 250.261 430.344 250.394 422.252 248.621 414.186 247.181 412.32 243.488 410.827 239.636 408.894 235.983 405.987 237.423 404.961 241.142 404.334 244.102 403.321 258.7 405.348 273.298 405.161 287.909 405.961 325.198 400.775 362.9 407.961 399.855 410.56 411.507 410.56 423.492 411.28 435.357 395.402 435.41 379.524 435.197 363.646 435.664 356.581 437.063 349.315 436.277 342.182 436.93 329.117 438.543 315.879 437.41 302.827 439.077 312.64 428.824 317.679 415.133 319.545 401.281 319.225 398.335 317.266 395.895 315.852 393.389 308.147 380.964 297.055 369.659 282.79 365.246 275.978 363.54 268.845 364.153 261.873 364.126L262.246 361.473C263.099 355.714 262.433 349.888 262.166 344.102 271.232 341.902 281.804 345.115 289.776 339.303 301.334 325.984 305.92 308.507 312.4 292.482 314.946 281.75 320.119 271.885 322.372 261.073M377.378 357.567C376.765 359.46 377.378 360.073 379.244 359.393 379.844 357.487 379.231 356.874 377.378 357.567Z" fill="#F3DD81" transform="matrix(1.00013 0 0 1 116.167 100.478)"/><path d="M20.0641 217.452C62.8985 222.438 106.106 223.504 149.181 221.771 152.66 232.877 155.353 244.235 159.393 255.167 163.019 267.272 167.752 279.177 169.085 291.829 170.418 302.867 173.991 313.466 177.324 324.038 178.87 329.397 179.35 335.037 181.536 340.209 185.683 340.849 189.309 343.036 193.268 344.235 202.667 345.475 212.133 346.422 221.625 346.169 228.984 346.995 236.503 347.515 243.822 346.142 249.954 345.649 256.06 344.862 262.166 344.102 262.433 349.888 263.099 355.714 262.246 361.473 261.979 361.993 261.433 363.006 261.166 363.513 258.66 363.473 256.194 363.806 253.74 364.3 244.315 365.193 234.823 369.139 228.85 376.698 225.571 381.777 225.171 388.056 224.411 393.896 224.064 395.842 223.651 397.775 223.824 399.762 225.371 412.4 228.584 425.905 237.743 435.33 229.184 438.023 219.865 437.343 211.053 439.036 205.827 439.743 200.494 439.25 195.335 440.49 189.589 441.45 183.63 440.276 177.99 441.863 163.539 442.743 149.101 443.983 134.609 443.703 121.571 444.196 108.519 445.636 95.4676 444.596 95.7476 436.024 94.8411 427.345 96.3075 418.852 96.5742 404.934 98.6006 391.136 99.1605 377.245 98.7339 360.327 100.414 343.262 97.5474 326.504 95.9876 320.852 96.8408 314.946 96.3609 309.187 96.2275 294.042 98.4273 279.044 97.934 263.899 98.2406 255.114 95.4143 246.648 94.7344 237.956 88.7485 239.342 84.4957 244.595 78.6032 246.515 68.2045 251.314 56.5393 250.821 45.4075 250.074 30.556 247.128 20.7706 231.917 20.0641 217.452Z" fill="#B7C0A1" transform="matrix(1.00013 0 0 1 116.167 100.478)"/></g></g></g></svg>