<svg width="425" height="554" xmlns="http://www.w3.org/2000/svg" xmlns:xlink="http://www.w3.org/1999/xlink" xml:space="preserve" overflow="hidden"><defs><clipPath id="clip0"><rect x="294" y="168" width="425" height="554"/></clipPath><clipPath id="clip1"><rect x="294" y="194" width="425" height="528"/></clipPath><clipPath id="clip2"><rect x="292" y="194" width="431" height="529"/></clipPath><clipPath id="clip3"><rect x="292" y="194" width="431" height="529"/></clipPath></defs><g clip-path="url(#clip0)" transform="translate(-294 -168)"><g clip-path="url(#clip1)"><g clip-path="url(#clip2)"><g clip-path="url(#clip3)"><path d="M196.272 49.3879C198.777 37.0076 208.519 25.5735 221.299 23.4012 232.507 22.4685 244.101 24.4674 254.042 29.838 264.304 35.2618 271.007 47.0957 269.714 58.7431 268.861 66.4858 265.597 73.6554 263.251 81.0116 279.882 82.8774 296.434 86.4222 313.265 85.7425 345.169 85.2095 377.046 86.8353 408.936 86.9552 415.439 110.236 412.814 134.69 413.414 158.545 413.094 170.046 416.093 181.267 416.559 192.714 417.279 207.813 416.239 222.951 417.039 238.051 429.046 238.531 441.293 236.785 453.087 239.77 469.772 243.861 483.751 256.854 489.588 272.94 491.774 278.377 492.36 284.654 490.161 290.184 487.069 298.9 479.154 305.189 470.504 307.882 461.416 310.627 451.78 310.467 442.399 310.027 433.643 309.561 425.514 306.002 417.106 303.897 415.825 324.766 417.625 345.649 418.505 366.504 419.198 385.175 418.625 403.859 417.972 422.516 417.492 431.845 418.865 441.107 419.424 450.394 419.331 454.42 419.677 459.124 417.012 462.428 412.148 460.456 407.884 456.805 402.472 456.472 392.678 455.579 382.963 457.964 373.181 457.591 354.537 456.712 335.907 453.807 317.223 455.512 306.415 456.672 295.527 456.765 284.667 456.325 295.141 470.051 302.591 487.788 298.513 505.247 296.888 512.51 290.157 516.654 284.134 520.039 264.944 531.007 240.103 531.833 220.313 521.944 209.812 516.921 203.549 506.139 200.71 495.238 197.271 482.991 199.458 470.211 201.75 457.978 193.634 456.765 185.411 456.898 177.229 456.898 158.971 456.685 140.648 457.191 122.55 459.79 110.503 461.429 98.3494 462.362 86.1823 461.829 84.7963 422.889 81.7713 384.029 79.7189 345.116 79.2126 332.309 78.6128 319.503 78.9594 306.682 96.537 307.935 114.514 309.841 131.879 305.776 143.233 303.324 154.334 298.713 163.13 290.97 164.702 289.531 166.235 287.679 165.888 285.387 164.995 270.647 156.186 254.882 141.074 251.044 120.645 247.019 100.468 254.242 80.3187 256.654 80.5985 232.826 84.783 209.065 82.5975 185.211 81.8779 175.83 79.7856 166.594 79.5857 157.186 78.9994 138.008 82.9307 119.072 83.1572 99.9352 83.3971 93.2586 83.2105 86.1023 86.6354 80.1187 88.2612 77.3468 91.6861 76.6006 94.6712 76.5072 130.107 75.0813 165.115 83.4104 200.564 81.9578 197.591 71.4432 193.74 60.3956 196.272 49.3879M215.449 35.6084C207.933 40.5525 204.082 49.801 204.668 58.6365 205.108 70.417 211.358 80.7318 215.676 91.3796 174.83 93.6851 134.437 84.2899 93.6452 84.6897 91.8594 101.747 90.8465 118.886 89.6871 135.996 87.0751 160.89 92.5124 185.691 91.966 210.584 91.9127 222.538 89.8205 234.372 89.6205 246.326 102.08 245.153 114.141 241.262 126.682 240.703 138.715 239.783 151.389 243.181 160.544 251.244 168.793 259.079 172.378 270.367 174.43 281.255 175.79 286.999 174.11 293.568 169.566 297.5 161.29 305.149 150.989 310.494 140.142 313.412 123.549 318.262 106.092 318.249 88.9542 318.329 88.6611 348.661 91.0465 378.938 92.6057 409.216 93.8051 424.035 92.6989 438.907 93.4453 453.74 115.328 454.047 136.663 447.543 158.572 447.863 177.989 448.182 197.618 446.463 216.782 450.434 215.822 460.27 208.772 468.146 207.799 477.968 206.147 492.413 214.73 506.872 227.536 513.389 243.208 522.211 262.758 519.546 278.07 511.283 282.774 508.671 287.159 504.647 288.465 499.236 291.197 488.108 287.465 476.008 280.482 467.2 275.965 461.575 267.409 458.417 266.476 450.514 272.513 447.063 279.722 446.983 286.479 446.757 313.572 446.45 340.678 446.344 367.745 447.729 381.79 447.743 395.863 448.342 409.882 447.49 410.389 434.256 409.909 421.037 410.069 407.804 410.016 388.653 410.695 369.437 408.616 350.353 407.67 330.576 407.937 310.734 408.203 290.943 416.986 293.728 425.421 297.54 434.323 299.952 443.345 302.537 452.914 302.418 462.162 301.392 471.037 300.019 480.606 294.595 482.658 285.227 483.364 275.352 477.395 266.276 470.504 259.72 465.92 255.655 461.455 250.978 455.552 248.872 446.916 246.752 437.921 247.019 429.099 247.14 422.489 247.207 416.2 249.432 409.922 251.257 406.111 234.426 409.136 217.075 407.204 200.071 403.939 171.685 403.966 143.086 404.139 114.568 404.272 107.771 403.753 101.014 402.979 94.2714 393.478 93.7518 384.056 95.5108 374.554 95.1777 333.322 95.4975 291.703 96.3771 251.124 87.9281 253.536 78.8793 257.973 70.537 260.253 61.4217 260.6 56.5309 261.093 51.2537 258.307 46.9092 253.509 39.0732 244.647 34.3156 235.812 32.6099 228.989 32.0102 221.339 31.4238 215.449 35.6084Z" transform="matrix(1 0 0 1.00037 224.407 182.112)"/><path d="M259.893 167.9C274.499 160.064 291.343 155.307 307.975 157.319 322.807 159.304 334.135 171.885 337.999 185.837 342.21 187.85 346.862 190.795 347.408 195.912 348.381 206.627 335.654 213.104 337 223.819 337.546 250.538 338.053 277.284 339.425 303.977 339.358 320.782 343.316 338.279 336.813 354.43 336.267 355.644 335.614 356.79 334.841 357.869 330.616 364.599 323.913 369.077 317.25 373.115 307.148 378.245 295.981 380.791 284.934 383.003 267.782 385.908 250.418 387.707 233.013 387.907 225.471 388.133 217.901 387.054 210.398 388.24 204.841 389.626 198.777 385.695 197.565 380.138 197.311 376.593 198.178 372.608 201.11 370.33 205.507 366.451 211.825 367.037 217.261 366.837 239.703 368.011 262.199 365.958 284.281 362.014 292.969 360.055 301.871 358.029 309.628 353.498 312.732 351.486 316.117 349.353 317.703 345.862 320.102 340.131 319.929 333.775 319.796 327.684 319.315 318.875 318.689 310.067 317.849 301.285 317.516 284.068 317.303 266.836 317.116 249.618 303.977 268.328 290.797 287.759 272.1 301.431 261.639 309.494 249.259 315.491 235.986 316.717 224.578 317.943 211.998 316.41 202.976 308.735 194.566 301.658 190.156 290.757 189.396 279.949 188.17 262.638 192.914 245.367 200.67 230.001 213.744 204.108 234.426 181.906 259.893 167.9M284.534 179.468C276.391 181.413 268.861 185.371 261.985 190.076 244.914 201.79 231.174 218.034 221.566 236.332 215.609 247.726 211.611 260.346 211.278 273.273 210.398 282.321 216.395 291.73 225.378 293.915 238.024 296.941 250.978 291.343 260.586 283.307 283.254 265.01 297.9 239.317 314.371 215.782 316.237 212.877 318.835 210.131 319.129 206.534 320.142 197.884 317.729 188.104 310.44 182.719 302.991 177.456 293.102 177.615 284.534 179.468Z" transform="matrix(1 0 0 1.00037 224.407 182.112)"/><path d="M215.449 35.6084C221.339 31.4238 228.989 32.0102 235.812 32.6099 244.647 34.3156 253.509 39.0732 258.307 46.9092 261.093 51.2537 260.6 56.5309 260.253 61.4217 257.973 70.537 253.536 78.8793 251.124 87.9281 291.703 96.3771 333.322 95.4975 374.554 95.1777 384.056 95.5108 393.478 93.7518 402.979 94.2714 403.753 101.014 404.272 107.771 404.139 114.568 403.966 143.086 403.939 171.685 407.204 200.071 409.136 217.075 406.111 234.426 409.922 251.257 416.2 249.432 422.489 247.207 429.099 247.14 437.921 247.019 446.916 246.752 455.552 248.872 461.455 250.978 465.92 255.655 470.504 259.72 477.395 266.276 483.364 275.352 482.658 285.227 480.606 294.595 471.037 300.019 462.162 301.392 452.914 302.418 443.345 302.537 434.323 299.952 425.421 297.54 416.986 293.728 408.203 290.943 407.937 310.734 407.67 330.576 408.616 350.353 410.695 369.437 410.016 388.653 410.069 407.804 409.909 421.037 410.389 434.256 409.882 447.49 395.863 448.342 381.79 447.743 367.745 447.729 340.678 446.344 313.572 446.45 286.479 446.757 279.722 446.983 272.513 447.063 266.476 450.514 267.409 458.417 275.965 461.575 280.482 467.2 287.465 476.008 291.197 488.108 288.465 499.236 287.159 504.647 282.774 508.671 278.07 511.283 262.758 519.546 243.208 522.211 227.536 513.389 214.73 506.872 206.147 492.413 207.799 477.968 208.772 468.146 215.822 460.27 216.782 450.434 197.618 446.463 177.989 448.182 158.572 447.863 136.663 447.543 115.328 454.047 93.4453 453.74 92.6989 438.907 93.8051 424.035 92.6057 409.216 91.0465 378.938 88.6611 348.661 88.9542 318.329 106.092 318.249 123.549 318.262 140.142 313.412 150.989 310.494 161.29 305.149 169.566 297.5 174.11 293.568 175.79 286.999 174.43 281.255 172.378 270.367 168.793 259.079 160.544 251.244 151.389 243.181 138.715 239.783 126.682 240.703 114.141 241.262 102.08 245.153 89.6205 246.326 89.8205 234.372 91.9127 222.538 91.966 210.584 92.5124 185.691 87.0751 160.89 89.6871 135.996 90.8465 118.886 91.8594 101.747 93.6452 84.6897 134.437 84.2899 174.83 93.6851 215.676 91.3796 211.358 80.7318 205.108 70.417 204.668 58.6365 204.082 49.801 207.933 40.5525 215.449 35.6084M259.893 167.9C234.426 181.906 213.744 204.108 200.67 230.001 192.914 245.367 188.17 262.638 189.396 279.949 190.156 290.757 194.566 301.658 202.976 308.735 211.998 316.41 224.578 317.943 235.986 316.717 249.259 315.491 261.639 309.494 272.1 301.431 290.797 287.759 303.977 268.328 317.116 249.618 317.303 266.836 317.516 284.068 317.849 301.285 318.689 310.067 319.315 318.875 319.796 327.684 319.929 333.775 320.102 340.131 317.703 345.862 316.117 349.353 312.732 351.486 309.628 353.498 301.871 358.029 292.969 360.055 284.281 362.014 262.199 365.958 239.703 368.011 217.261 366.837 211.825 367.037 205.507 366.451 201.11 370.33 198.178 372.608 197.311 376.593 197.565 380.138 198.777 385.695 204.841 389.626 210.398 388.24 217.901 387.054 225.471 388.133 233.013 387.907 250.418 387.707 267.782 385.908 284.934 383.003 295.981 380.791 307.148 378.245 317.25 373.115 323.913 369.077 330.616 364.599 334.841 357.869 335.614 356.79 336.267 355.644 336.813 354.43 343.316 338.279 339.358 320.782 339.425 303.977 338.053 277.284 337.546 250.538 337 223.819 335.654 213.104 348.381 206.627 347.408 195.912 346.862 190.795 342.21 187.85 337.999 185.837 334.135 171.885 322.807 159.304 307.975 157.319 291.343 155.307 274.499 160.064 259.893 167.9Z" fill="#8FBEE5" transform="matrix(1 0 0 1.00037 224.407 182.112)"/><path d="M284.534 179.468C293.102 177.615 302.991 177.456 310.44 182.719 317.729 188.104 320.142 197.884 319.129 206.534 318.835 210.131 316.237 212.877 314.371 215.782 297.9 239.317 283.254 265.01 260.586 283.307 250.978 291.343 238.024 296.941 225.378 293.915 216.395 291.73 210.398 282.321 211.278 273.273 211.611 260.346 215.609 247.726 221.566 236.332 231.174 218.034 244.914 201.79 261.985 190.076 268.861 185.371 276.391 181.413 284.534 179.468Z" fill="#8FBEE5" transform="matrix(1 0 0 1.00037 224.407 182.112)"/></g></g></g></g></svg>