<?xml version="1.0" encoding="UTF-8" ?>
<!DOCTYPE svg PUBLIC "-//W3C//DTD SVG 1.1//EN" "http://www.w3.org/Graphics/SVG/1.1/DTD/svg11.dtd">
<svg width="1235pt" height="2244pt" viewBox="0 0 1235 2244" version="1.1" xmlns="http://www.w3.org/2000/svg">
<g id="#000000ff">
<path fill="#000000" opacity="1.00" d=" M 412.94 120.85 C 434.07 117.20 455.67 115.07 477.08 117.30 C 490.30 118.78 504.06 121.83 514.68 130.31 C 522.53 136.50 527.20 146.11 528.13 155.98 C 529.54 167.08 526.75 178.46 520.99 187.98 C 512.90 201.49 500.79 212.01 488.17 221.16 C 476.05 229.98 462.90 237.22 449.80 244.44 C 462.12 244.76 475.23 246.90 485.00 255.01 C 494.23 262.47 498.49 274.44 499.17 286.00 C 500.41 299.77 495.99 313.42 489.23 325.28 C 469.27 359.76 431.45 382.40 392.03 386.07 C 380.45 387.24 368.02 387.42 357.59 381.47 C 352.40 378.62 347.09 373.53 347.90 367.06 C 348.06 363.08 351.53 359.20 355.75 360.01 C 358.16 362.00 359.98 364.62 362.59 366.38 C 367.91 370.14 374.65 371.01 381.01 370.81 C 411.99 370.13 442.34 356.02 463.14 333.11 C 472.21 322.92 479.67 310.63 481.62 296.93 C 482.68 288.03 481.72 278.22 476.12 270.89 C 471.16 264.39 462.92 261.41 455.01 260.71 C 438.42 259.49 421.77 262.20 405.90 266.95 C 402.21 268.31 397.72 268.11 394.76 265.29 C 392.12 262.95 392.33 258.79 393.99 255.95 C 395.63 253.20 398.61 251.69 401.42 250.40 C 423.07 241.14 444.39 230.92 464.33 218.34 C 477.10 210.17 489.54 201.06 499.38 189.41 C 505.80 181.70 511.17 172.31 511.12 162.01 C 511.22 154.85 509.46 147.04 503.83 142.16 C 497.46 136.64 488.89 134.79 480.78 133.58 C 464.28 131.48 447.55 132.13 431.05 133.86 C 408.80 136.30 386.78 140.87 365.37 147.38 C 354.30 150.81 343.30 154.66 333.00 160.02 C 329.27 161.91 325.82 164.30 322.75 167.13 C 334.49 176.71 342.66 189.88 348.16 203.85 C 356.56 224.79 360.28 247.24 362.37 269.59 C 364.18 265.84 365.52 261.89 366.98 258.00 C 374.41 238.11 381.90 218.25 389.31 198.35 C 390.82 194.54 392.31 190.25 395.90 187.89 C 401.28 184.42 410.61 189.70 408.40 196.37 C 391.25 242.51 373.93 288.59 356.76 334.73 C 355.05 339.27 353.28 344.17 349.41 347.36 C 346.61 349.65 341.95 350.50 339.12 347.84 C 336.44 344.86 336.19 340.26 337.72 336.68 C 340.65 328.94 343.55 321.18 346.47 313.43 C 347.83 309.75 349.65 306.07 349.41 302.04 C 349.19 282.37 348.18 262.65 344.74 243.26 C 342.08 228.68 338.32 214.02 330.93 201.05 C 325.50 191.28 316.94 182.92 306.04 179.66 C 305.46 168.18 310.03 155.27 320.64 149.61 C 330.82 143.83 341.86 139.78 352.91 136.00 C 372.51 129.49 392.60 124.44 412.94 120.85 Z" />
<path fill="#000000" opacity="1.00" d=" M 559.63 211.79 C 576.69 209.91 593.87 209.11 611.03 208.98 C 614.71 209.10 618.75 208.93 621.97 211.03 C 623.71 212.12 623.83 214.88 622.13 216.07 C 619.22 218.16 615.42 218.13 612.00 218.30 C 603.61 218.34 595.22 218.42 586.85 218.82 C 576.90 263.48 567.45 308.26 557.64 352.96 C 565.78 353.00 573.92 352.80 582.06 352.94 C 585.07 353.12 588.37 353.21 590.91 355.07 C 592.52 356.16 592.60 358.86 590.95 359.96 C 588.42 361.88 585.06 361.98 582.03 362.18 C 561.98 362.39 541.92 363.22 521.96 365.16 C 519.92 365.49 517.14 364.44 517.41 361.97 C 518.01 358.74 521.14 356.89 524.08 356.11 C 531.65 354.04 539.56 353.93 547.34 353.32 C 556.96 308.78 566.80 264.28 576.18 219.69 C 567.40 220.26 558.66 221.36 549.99 222.82 C 547.24 223.20 544.16 223.90 541.67 222.29 C 539.67 219.45 542.09 216.06 544.80 214.85 C 549.45 212.76 554.65 212.51 559.63 211.79 Z" />
<path fill="#000000" opacity="1.00" d=" M 629.57 219.54 C 659.04 213.84 689.00 210.85 718.96 209.36 C 729.36 209.17 740.26 207.73 750.17 211.77 C 753.63 212.94 756.52 215.37 760.00 216.45 C 789.50 212.43 819.21 209.15 849.02 208.99 C 858.62 208.92 868.20 212.26 875.53 218.49 C 877.73 221.02 880.95 219.18 883.62 218.65 C 904.35 213.41 925.70 210.94 947.00 209.51 C 958.58 209.04 970.73 207.72 981.73 212.24 C 989.43 215.30 996.32 221.81 997.73 230.25 C 998.01 232.27 998.28 235.43 995.74 236.07 C 993.58 237.05 990.90 236.28 989.70 234.23 C 986.86 230.17 984.91 225.22 980.54 222.49 C 973.01 217.51 963.55 218.28 954.96 218.43 C 930.86 219.34 906.68 221.93 883.29 227.97 C 883.52 230.37 884.29 232.94 883.24 235.26 C 881.78 236.25 879.90 236.83 878.19 236.25 C 876.01 235.06 874.53 233.00 872.87 231.23 C 870.21 232.38 867.48 233.44 865.13 235.16 C 862.60 236.88 862.49 240.39 860.35 242.44 C 858.23 244.00 854.73 243.89 853.21 241.57 C 851.45 238.67 852.59 234.95 854.53 232.44 C 857.71 228.32 862.62 226.20 867.06 223.76 C 862.19 220.09 856.14 218.28 850.07 218.33 C 835.19 218.33 820.33 219.28 805.51 220.50 C 795.64 266.31 785.70 312.09 775.81 357.89 C 775.06 360.90 773.93 364.60 770.62 365.62 C 768.38 366.44 765.66 365.08 765.37 362.62 C 764.80 359.03 766.22 355.51 766.85 352.02 C 776.26 308.49 785.70 264.97 795.05 221.43 C 785.86 222.19 776.68 223.22 767.61 224.87 C 768.72 228.13 770.94 231.80 769.21 235.24 C 767.38 236.64 764.50 237.06 762.72 235.38 C 760.13 232.91 758.29 229.80 756.08 227.01 C 750.65 227.85 745.40 229.58 739.97 230.30 C 735.71 230.51 733.92 224.59 736.82 221.88 C 738.75 220.50 741.17 220.07 743.35 219.17 C 737.29 217.88 731.07 218.35 724.93 218.49 C 713.77 218.89 702.62 219.53 691.50 220.50 C 681.63 266.30 671.69 312.09 661.80 357.89 C 661.07 361.33 659.29 365.87 655.10 365.82 C 652.49 366.00 651.00 363.26 651.19 360.96 C 651.40 357.33 652.52 353.84 653.22 350.29 C 662.49 307.33 671.82 264.39 681.04 221.42 C 662.77 222.75 644.74 226.19 626.91 230.22 C 623.27 231.15 620.30 226.96 621.70 223.70 C 622.76 220.39 626.74 220.25 629.57 219.54 Z" />
<path fill="#000000" opacity="1.00" d=" M 894.58 234.46 C 896.69 232.91 900.22 233.09 901.67 235.48 C 902.75 237.03 901.96 238.93 901.63 240.59 C 897.35 255.94 892.94 271.26 888.82 286.66 C 906.90 285.11 924.93 283.04 942.99 281.29 C 944.97 281.17 947.14 281.01 948.93 282.08 C 951.49 283.48 951.66 287.67 949.25 289.29 C 947.71 290.19 945.88 290.31 944.17 290.55 C 924.84 292.45 905.51 294.46 886.19 296.41 C 882.37 309.34 878.96 322.38 875.25 335.34 C 873.49 341.08 871.80 347.66 874.68 353.32 C 877.01 357.53 882.54 357.37 886.66 356.61 C 905.94 352.63 925.19 348.49 944.46 344.44 C 946.95 343.73 950.51 344.15 951.18 347.16 C 952.05 350.61 948.67 353.12 945.64 353.58 C 926.65 357.66 907.64 361.59 888.65 365.64 C 882.51 367.04 875.55 366.52 870.47 362.48 C 863.72 357.29 861.68 347.75 863.80 339.78 C 867.50 325.79 871.68 311.94 875.23 297.92 C 873.19 297.58 871.08 297.54 869.18 296.72 C 866.25 295.37 866.29 290.48 869.25 289.20 C 872.02 288.08 875.09 288.21 878.01 287.85 C 882.64 272.02 886.81 256.06 891.29 240.20 C 891.97 238.11 892.73 235.83 894.58 234.46 Z" />
<path fill="#000000" opacity="1.00" d=" M 641.02 457.05 C 648.67 451.20 657.40 446.19 667.11 445.02 C 662.49 461.04 651.33 474.12 645.75 489.76 C 644.40 492.98 643.60 496.39 642.93 499.81 C 643.76 499.28 644.59 498.76 645.43 498.23 C 659.66 488.33 676.77 483.04 694.02 482.12 C 692.94 491.92 690.63 501.53 689.17 511.28 C 695.47 507.74 700.31 501.67 707.41 499.61 C 718.51 497.87 729.49 503.12 737.60 510.39 C 746.48 518.23 753.59 527.79 761.24 536.78 C 765.65 541.80 768.95 547.76 770.75 554.20 C 772.86 560.93 772.40 568.08 772.30 575.03 C 771.82 581.93 770.28 589.24 765.56 594.56 C 760.69 600.34 753.81 603.74 747.76 608.08 C 752.59 625.64 758.25 643.15 759.35 661.46 C 770.45 652.95 780.93 643.64 791.72 634.72 C 797.62 629.56 804.00 624.94 809.74 619.59 C 806.99 615.25 803.58 611.31 801.33 606.67 C 798.01 599.48 796.38 591.01 799.48 583.45 C 802.64 575.84 805.13 567.17 812.07 562.05 C 817.17 558.30 822.09 553.98 828.33 552.23 C 834.04 549.88 840.43 549.04 845.71 545.73 C 850.96 539.74 857.09 533.45 865.35 532.20 C 875.69 530.91 886.88 530.51 896.34 535.59 C 902.48 538.15 910.28 541.52 911.29 548.99 C 912.84 556.34 907.73 562.44 905.47 568.99 C 908.39 572.66 911.56 576.24 913.35 580.65 C 915.70 586.33 918.99 591.83 919.47 598.08 C 919.92 604.43 919.93 610.91 918.34 617.11 C 917.20 622.08 914.23 626.33 912.43 631.06 C 924.16 628.68 936.06 627.05 948.04 626.89 C 963.18 626.58 977.25 639.87 977.85 654.98 C 978.26 660.53 975.22 665.63 971.46 669.46 C 966.72 674.18 960.60 677.08 954.68 680.01 C 965.52 693.85 977.20 707.02 988.40 720.58 C 1041.05 783.28 1093.79 845.91 1146.17 908.84 C 1151.08 914.91 1156.40 920.67 1160.98 927.02 C 1170.20 940.77 1174.34 957.54 1174.21 973.99 C 1173.87 994.67 1164.87 1014.77 1150.71 1029.70 C 1146.51 1034.19 1141.60 1037.93 1136.93 1041.92 C 1111.56 1063.23 1086.17 1084.50 1060.72 1105.73 C 1053.97 1111.55 1046.09 1116.78 1042.13 1125.08 C 1039.87 1130.03 1037.85 1135.16 1034.58 1139.57 C 1028.58 1147.81 1020.86 1154.61 1013.02 1161.04 C 1005.36 1167.38 997.83 1173.88 990.13 1180.17 C 982.90 1186.03 974.96 1191.35 965.90 1193.88 C 959.28 1195.94 951.82 1196.67 946.46 1201.49 C 940.88 1206.52 939.12 1214.13 935.49 1220.45 C 930.78 1229.36 923.23 1236.24 915.64 1242.67 C 908.18 1248.85 900.79 1255.12 893.40 1261.38 C 886.20 1267.35 878.86 1273.44 870.15 1277.10 C 861.94 1280.66 852.59 1281.33 845.06 1286.48 C 846.72 1293.78 850.25 1300.46 852.36 1307.63 C 859.63 1328.76 865.06 1350.93 863.77 1373.44 C 855.83 1373.19 851.68 1365.44 846.24 1360.84 C 846.00 1371.81 847.19 1382.96 844.79 1393.79 C 844.12 1397.00 841.00 1399.07 837.94 1399.64 C 836.59 1400.06 836.02 1398.51 835.39 1397.71 C 831.56 1391.53 828.46 1384.93 825.62 1378.26 C 825.13 1391.86 824.92 1405.47 824.27 1419.07 C 822.07 1444.69 818.36 1470.30 811.02 1495.01 C 815.31 1498.33 820.68 1500.53 824.00 1504.96 C 826.83 1512.72 820.85 1520.20 822.03 1528.03 C 822.55 1533.04 823.10 1538.05 823.56 1543.08 C 833.70 1543.69 843.89 1542.78 854.02 1543.85 C 874.12 1545.16 894.71 1550.54 910.70 1563.29 C 919.48 1570.16 924.03 1582.01 922.07 1592.99 C 920.69 1600.02 916.64 1606.54 910.96 1610.91 C 903.84 1616.18 894.66 1617.73 885.99 1617.70 C 861.71 1616.28 837.39 1614.12 813.05 1615.54 C 799.61 1615.96 786.37 1618.54 772.97 1619.33 C 760.27 1619.87 746.59 1617.89 736.47 1609.58 C 736.35 1596.06 736.62 1582.54 736.45 1569.03 C 736.33 1559.45 733.67 1550.20 730.90 1541.12 C 728.40 1532.05 725.20 1522.73 726.57 1513.21 C 728.05 1506.73 733.94 1502.86 738.00 1498.06 C 739.05 1496.98 738.74 1495.37 738.83 1494.05 C 737.52 1460.22 737.37 1425.83 745.77 1392.79 C 747.99 1382.89 751.87 1373.45 753.95 1363.51 C 748.04 1367.67 742.81 1372.68 737.19 1377.20 C 678.80 1426.16 620.44 1475.15 562.03 1524.08 C 559.76 1525.64 559.70 1528.56 559.22 1531.01 C 557.51 1541.65 553.11 1551.62 551.25 1562.23 C 548.52 1579.25 549.95 1596.53 549.56 1613.68 C 540.79 1618.49 531.04 1621.79 521.01 1622.32 C 508.61 1623.13 496.52 1619.69 484.25 1618.57 C 471.25 1616.62 458.05 1617.65 444.96 1617.47 C 425.27 1618.59 405.54 1618.31 385.83 1618.34 C 377.10 1616.92 370.32 1609.64 367.52 1601.53 C 365.65 1596.92 365.72 1591.89 365.68 1587.02 C 365.91 1584.13 363.47 1582.17 361.86 1580.13 C 349.27 1565.93 337.10 1551.32 326.36 1535.65 C 275.56 1474.81 224.33 1414.31 173.63 1353.39 C 169.17 1347.87 163.94 1343.06 158.99 1338.01 C 150.98 1329.95 144.12 1320.86 136.79 1312.20 C 132.12 1306.54 127.14 1301.12 122.90 1295.13 C 113.09 1280.77 107.75 1263.36 107.95 1245.96 C 108.28 1225.27 116.96 1205.07 130.92 1189.93 C 136.19 1184.14 142.46 1179.43 148.38 1174.36 C 184.97 1143.60 221.72 1113.02 258.19 1082.11 C 255.54 1076.50 252.77 1070.89 251.02 1064.92 C 249.07 1058.75 248.10 1052.31 245.76 1046.27 C 243.66 1040.76 241.98 1034.93 242.05 1028.99 C 242.58 1019.13 246.92 1010.12 249.95 1000.89 C 251.97 994.34 256.35 988.86 260.65 983.66 C 265.57 979.20 270.09 973.96 276.36 971.36 C 281.53 968.65 287.47 966.97 291.52 962.53 C 308.42 944.09 322.29 923.21 337.13 903.15 C 341.31 897.59 344.41 891.26 349.15 886.13 C 391.33 834.41 440.39 787.78 496.85 751.89 C 502.32 748.36 506.93 743.70 511.45 739.06 C 502.91 727.38 495.65 714.67 491.21 700.85 C 480.51 668.78 482.55 632.80 496.25 601.93 C 483.86 598.34 471.45 591.39 465.51 579.43 C 460.91 570.94 462.10 560.75 464.92 551.90 C 471.76 530.72 488.77 513.75 508.98 504.96 C 513.93 502.90 519.24 500.58 524.73 501.58 C 530.18 502.51 535.16 505.07 540.50 506.40 C 540.43 498.33 540.29 490.04 537.55 482.35 C 535.07 475.42 529.46 470.21 526.69 463.45 C 525.63 460.97 526.95 458.50 527.92 456.26 C 555.78 461.30 580.54 478.70 596.69 501.70 C 601.20 491.87 607.91 483.14 616.25 476.25 C 624.22 469.49 632.72 463.39 641.02 457.05 M 628.23 477.24 C 622.62 481.93 617.14 486.93 612.99 492.99 C 606.95 501.87 602.64 511.75 597.26 521.01 C 592.01 514.81 587.31 508.17 582.06 501.97 C 572.86 490.66 562.11 479.95 548.70 473.81 C 549.02 478.37 549.97 482.85 550.53 487.39 C 551.77 501.25 551.41 516.44 542.95 528.19 C 536.68 523.45 531.70 517.19 525.22 512.73 C 523.65 511.26 521.54 512.12 519.82 512.74 C 508.25 517.21 498.04 524.60 489.09 533.10 C 481.90 540.19 475.97 549.06 473.96 559.08 C 473.10 566.01 472.83 574.39 478.49 579.49 C 482.57 582.92 487.25 585.88 492.36 587.48 C 499.56 587.53 506.99 585.61 514.02 588.23 C 512.72 594.35 509.78 599.94 507.94 605.89 C 502.35 623.07 498.60 640.94 497.76 659.01 C 498.17 676.70 502.85 694.06 509.36 710.42 C 510.82 705.73 511.09 700.80 511.96 695.99 C 515.51 676.05 521.90 656.51 531.86 638.82 C 534.66 633.74 538.15 629.08 540.97 624.00 C 533.36 614.00 523.47 604.75 520.94 591.92 C 519.93 582.40 520.09 572.31 524.58 563.61 C 536.63 538.25 569.39 524.83 595.62 535.37 C 605.99 539.24 613.77 547.42 621.17 555.31 C 627.85 550.63 633.63 544.67 641.03 541.05 C 654.08 533.73 670.12 533.03 684.17 537.75 C 696.49 542.12 707.33 551.20 712.89 563.13 C 716.79 572.12 718.14 582.22 716.81 591.93 C 715.44 601.08 710.41 609.04 705.83 616.88 C 704.78 618.84 703.21 621.12 704.68 623.30 C 707.86 629.66 711.75 635.66 715.01 641.99 C 722.36 655.00 728.80 668.51 734.23 682.44 C 739.51 678.70 744.99 674.85 749.08 669.81 C 750.21 664.15 749.08 658.35 748.34 652.72 C 745.86 635.35 738.46 619.29 732.57 602.92 C 739.45 598.19 747.73 595.67 753.89 589.88 C 760.98 583.58 762.60 573.20 761.59 564.21 C 759.41 552.10 752.09 541.78 744.79 532.19 C 737.39 522.82 728.14 513.40 715.91 511.17 C 707.81 509.80 702.29 517.15 697.15 522.15 C 695.41 523.47 693.86 526.38 691.37 525.62 C 685.89 524.00 681.88 519.25 679.94 514.03 C 677.21 507.78 677.78 500.84 677.01 494.22 C 670.13 496.53 663.16 499.01 657.13 503.12 C 650.06 508.89 644.81 516.65 637.33 521.98 C 634.04 512.71 634.11 502.69 635.03 493.01 C 635.92 484.29 639.31 476.10 641.01 467.55 C 636.24 470.07 632.36 473.86 628.23 477.24 M 861.77 540.79 C 858.09 542.96 859.58 548.73 855.82 550.75 C 845.02 556.58 832.48 558.54 822.00 565.02 C 810.82 573.02 803.65 588.54 809.05 601.92 C 811.23 606.58 814.41 611.41 819.13 613.72 C 823.08 613.14 826.54 610.95 829.93 608.98 C 829.96 606.32 829.93 603.66 830.19 601.01 C 830.36 596.89 833.86 593.22 837.96 592.82 C 842.81 592.28 848.61 593.04 851.69 597.28 C 855.99 603.02 857.21 610.25 858.90 617.04 C 860.34 623.07 863.37 628.83 867.98 633.05 C 871.18 636.06 875.85 636.35 880.02 636.43 C 890.23 636.29 899.91 631.14 906.91 623.92 C 912.83 617.19 911.73 607.32 909.83 599.24 C 907.32 587.30 900.22 577.16 894.55 566.61 C 894.50 561.02 901.31 556.54 899.49 550.61 C 896.36 544.67 889.40 542.40 883.39 540.52 C 876.44 538.68 868.32 536.73 861.77 540.79 M 545.98 555.99 C 537.11 564.17 531.58 576.82 534.14 588.91 C 536.91 600.04 544.94 608.62 551.03 618.01 C 551.53 619.16 552.99 620.40 552.19 621.76 C 547.73 632.90 542.50 643.72 537.72 654.73 C 531.06 670.13 524.56 686.02 523.36 702.94 C 522.94 711.90 521.87 721.07 524.16 729.88 C 527.57 743.75 536.35 755.73 546.80 765.22 C 561.55 779.10 580.84 787.33 600.47 791.48 C 603.86 792.61 606.21 789.40 608.59 787.60 C 630.53 769.20 652.43 750.73 674.45 732.43 C 681.39 727.83 687.53 722.20 693.92 716.89 C 703.86 708.49 713.84 700.12 723.79 691.72 C 725.71 690.69 724.74 688.41 724.41 686.78 C 717.38 662.49 704.18 640.59 689.63 620.13 C 695.89 610.77 704.63 602.38 707.07 591.02 C 707.44 584.26 708.05 577.10 705.28 570.72 C 699.71 556.86 685.78 547.07 671.03 545.63 C 656.64 545.38 641.96 551.58 632.82 562.85 C 628.37 567.81 624.34 573.26 618.96 577.28 C 615.23 568.80 610.95 560.31 604.05 553.95 C 597.77 547.57 588.98 543.87 580.03 543.89 C 567.64 542.83 554.84 547.21 545.98 555.99 M 838.34 604.95 C 841.32 604.90 844.32 604.73 847.28 604.26 C 846.23 602.70 845.35 600.96 843.87 599.76 C 840.55 598.92 839.46 602.69 838.34 604.95 M 822.14 623.10 C 817.14 625.94 813.32 630.36 808.57 633.53 C 802.08 638.30 796.13 643.76 789.91 648.86 C 767.52 667.47 745.52 686.53 723.06 705.06 C 662.90 755.19 603.10 805.77 543.03 856.02 C 504.54 888.57 465.70 920.71 427.10 953.13 C 393.05 981.74 358.93 1010.27 324.86 1038.85 C 319.99 1043.73 314.38 1047.74 308.87 1051.87 C 300.92 1057.73 293.92 1064.84 285.54 1070.12 C 285.04 1076.07 286.88 1081.79 288.55 1087.41 C 295.61 1081.90 301.64 1075.16 309.01 1070.04 C 317.43 1063.51 325.48 1056.52 333.66 1049.70 C 382.26 1008.96 430.85 968.20 479.45 927.46 C 523.27 890.24 567.56 853.58 611.52 816.53 C 657.74 777.76 704.13 739.18 750.15 700.17 C 771.79 682.50 793.02 664.33 814.52 646.49 C 826.03 636.57 841.43 631.93 856.50 632.25 C 852.61 627.09 850.00 621.04 849.23 614.60 C 839.50 614.25 830.18 617.86 822.14 623.10 M 889.01 642.72 C 897.70 647.62 903.18 656.15 909.27 663.74 C 981.71 750.59 1054.64 837.03 1127.29 923.70 C 1131.69 929.00 1136.36 934.13 1139.97 940.03 C 1144.28 946.87 1147.32 954.53 1148.60 962.53 C 1151.55 979.66 1146.43 997.92 1135.04 1011.06 C 1128.29 1019.33 1119.47 1025.51 1111.48 1032.49 C 956.98 1161.98 802.61 1291.63 648.09 1421.10 C 587.86 1471.54 527.81 1522.19 467.55 1572.58 C 451.58 1585.93 428.81 1590.81 408.99 1584.03 C 394.70 1579.16 383.39 1568.47 373.79 1557.20 C 301.71 1471.29 229.60 1385.41 157.51 1299.51 C 151.57 1292.65 145.97 1285.45 141.39 1277.60 C 136.21 1268.65 132.49 1258.49 133.12 1248.00 C 132.51 1228.76 141.91 1209.80 156.94 1197.94 C 197.31 1164.08 237.66 1130.21 278.04 1096.36 C 272.75 1096.13 267.90 1093.78 264.24 1089.99 C 225.46 1121.92 187.23 1154.50 148.65 1186.67 C 132.60 1199.93 121.23 1219.23 119.01 1240.07 C 117.08 1259.29 122.90 1279.07 134.54 1294.44 C 138.80 1299.83 143.35 1304.98 147.73 1310.28 C 221.05 1397.63 294.35 1484.99 367.69 1572.32 C 382.98 1590.70 406.87 1602.27 430.96 1600.73 C 449.36 1599.77 467.03 1591.91 480.79 1579.78 C 575.68 1500.00 670.90 1420.59 765.72 1340.72 C 888.36 1238.04 1010.88 1135.22 1133.45 1032.46 C 1144.38 1023.04 1153.70 1011.37 1158.68 997.71 C 1166.35 976.75 1164.56 952.22 1152.95 933.04 C 1147.95 925.81 1142.31 919.03 1136.83 912.16 C 1131.01 905.23 1126.35 897.43 1120.30 890.68 C 1062.10 821.54 1004.30 752.06 945.81 683.17 C 940.47 677.18 935.74 670.63 929.88 665.12 C 920.88 656.03 913.48 645.45 904.11 636.71 C 899.27 639.17 894.19 641.11 889.01 642.72 M 844.35 638.32 C 838.30 639.22 832.34 640.97 826.92 643.82 C 820.67 646.95 815.75 652.01 810.35 656.31 C 646.00 793.99 481.81 931.85 317.52 1069.59 C 309.09 1076.45 301.19 1083.94 292.69 1090.71 C 291.18 1091.83 290.30 1093.52 289.04 1094.88 C 286.70 1096.20 284.34 1097.52 282.29 1099.28 C 243.54 1131.49 205.05 1164.00 166.40 1196.33 C 160.74 1200.98 154.73 1205.37 150.19 1211.19 C 141.88 1222.21 137.69 1236.20 138.34 1249.97 C 138.64 1260.20 142.24 1270.04 147.03 1278.98 C 152.49 1287.92 159.90 1295.44 166.54 1303.49 C 238.08 1388.63 309.54 1473.83 381.06 1558.99 C 392.90 1572.76 410.67 1581.80 428.99 1581.63 C 436.54 1581.68 443.86 1579.44 450.92 1576.99 C 459.01 1574.01 466.71 1569.88 473.30 1564.30 C 564.33 1487.99 655.48 1411.83 746.32 1335.31 C 808.98 1282.63 871.88 1230.24 934.55 1177.57 C 996.02 1126.02 1057.48 1074.46 1118.95 1022.91 C 1126.50 1016.25 1132.65 1008.06 1137.19 999.08 C 1140.76 991.86 1143.79 984.17 1144.17 976.03 C 1144.70 963.61 1140.87 951.47 1135.64 940.35 C 1130.07 928.32 1119.83 919.55 1110.73 910.27 C 1095.45 893.79 1081.95 875.79 1067.09 858.94 C 1054.79 845.10 1042.72 830.94 1032.59 815.40 C 1027.36 807.47 1020.52 800.83 1013.74 794.25 C 1001.65 781.92 991.02 768.25 980.13 754.87 C 975.10 748.48 971.27 741.22 965.86 735.13 C 958.56 726.16 949.61 718.72 942.17 709.88 C 935.47 702.39 930.79 693.39 924.18 685.84 C 915.86 676.17 908.36 665.73 898.95 657.07 C 890.94 650.29 882.28 643.02 871.55 641.47 C 867.61 640.65 864.15 638.21 860.07 637.95 C 854.84 637.47 849.54 637.52 844.35 638.32 M 922.90 642.05 C 929.87 651.44 937.76 660.15 945.34 669.05 C 953.25 666.71 960.60 662.65 967.24 657.80 C 964.39 651.73 960.66 645.83 955.44 641.54 C 952.25 638.88 947.89 638.99 943.99 639.05 C 936.88 639.25 929.73 640.02 922.90 642.05 M 508.86 757.87 C 503.13 761.92 496.87 765.15 490.97 768.95 C 478.37 777.22 466.12 786.03 454.07 795.09 C 451.77 797.29 448.31 799.41 448.34 802.96 C 449.76 807.35 452.85 810.96 454.89 815.06 C 467.75 839.05 479.34 863.92 486.93 890.11 C 498.54 881.06 509.53 871.23 520.92 861.90 C 527.22 856.90 532.67 850.95 538.99 845.98 C 551.15 835.66 563.57 825.64 575.54 815.11 C 573.42 808.28 572.79 801.15 572.03 794.08 C 566.50 790.89 560.67 788.24 555.35 784.69 C 544.86 777.76 535.15 769.62 526.68 760.33 C 523.36 756.74 520.60 752.68 517.10 749.26 C 514.30 752.08 512.18 755.59 508.86 757.87 M 582.87 798.96 C 583.28 801.68 584.22 804.29 585.82 806.55 C 588.14 804.86 590.32 802.99 592.29 800.90 C 589.27 799.76 586.09 799.15 582.87 798.96 M 428.94 815.90 C 393.25 847.48 362.64 884.37 335.30 923.29 C 327.02 934.68 319.65 946.76 310.44 957.46 C 304.87 963.83 299.81 970.99 292.40 975.39 C 285.24 979.49 276.69 980.95 270.15 986.15 C 266.04 989.73 262.69 994.09 259.43 998.44 C 252.38 1008.50 250.88 1021.09 250.66 1033.05 C 250.82 1038.58 253.81 1043.43 255.41 1048.61 C 258.45 1058.84 261.70 1069.29 267.94 1078.09 C 271.32 1082.85 276.73 1085.60 282.25 1087.09 C 281.55 1079.09 278.23 1071.18 280.02 1063.09 C 282.25 1052.33 289.49 1043.59 296.49 1035.48 C 300.35 1031.27 304.16 1026.11 310.16 1025.05 C 314.61 1023.83 319.08 1025.30 323.40 1026.34 C 326.11 1027.09 328.15 1024.55 330.10 1023.12 C 335.09 1018.45 340.69 1014.40 345.20 1009.23 C 339.24 1005.65 332.29 1004.64 325.75 1002.60 C 328.02 998.35 332.41 996.03 335.68 992.69 C 349.02 979.20 364.04 967.51 379.43 956.47 C 390.96 948.16 403.23 940.96 415.02 933.03 C 424.93 926.90 435.45 921.79 446.15 917.18 C 457.00 912.25 468.75 907.91 476.70 898.57 C 476.73 893.71 474.65 889.10 473.56 884.41 C 465.07 857.64 451.39 832.97 438.67 808.06 C 435.08 810.22 431.97 813.04 428.94 815.90 M 421.83 941.86 C 410.66 949.33 399.50 956.82 388.43 964.43 C 377.44 972.71 366.50 981.10 356.12 990.15 C 352.89 993.01 349.48 995.76 346.92 999.28 C 349.03 1000.27 351.12 1001.28 353.20 1002.34 C 371.06 987.87 388.49 972.87 406.16 958.18 C 414.82 950.64 423.98 943.64 432.30 935.74 C 428.61 937.42 425.24 939.70 421.83 941.86 M 308.53 1031.55 C 303.57 1035.54 299.29 1040.31 294.96 1044.95 C 293.45 1046.26 293.19 1048.23 293.07 1050.13 C 297.69 1049.01 300.77 1045.17 304.27 1042.26 C 308.70 1038.23 314.07 1035.34 318.20 1030.96 C 315.05 1030.24 311.23 1029.08 308.53 1031.55 M 819.85 1307.84 C 803.34 1321.66 786.90 1335.59 770.36 1349.38 C 769.47 1350.34 767.87 1351.17 768.07 1352.72 C 768.20 1355.57 768.34 1358.48 767.30 1361.22 C 757.21 1393.22 748.41 1426.20 748.48 1460.00 C 748.66 1472.73 748.13 1485.47 748.80 1498.19 C 762.19 1498.87 775.60 1498.11 788.99 1498.36 C 792.93 1498.04 798.34 1498.67 800.49 1494.51 C 803.80 1487.99 804.94 1480.64 806.70 1473.61 C 814.90 1434.88 812.90 1395.03 817.34 1355.86 C 824.15 1360.18 828.70 1367.21 835.67 1371.31 C 834.91 1360.44 833.30 1349.60 833.55 1338.68 C 840.17 1337.66 845.47 1342.58 851.43 1344.50 C 850.10 1336.66 847.58 1329.09 845.58 1321.42 C 842.82 1312.24 840.72 1302.81 836.82 1294.02 C 830.77 1298.13 825.53 1303.26 819.85 1307.84 M 738.89 1509.42 C 737.43 1519.91 740.07 1530.40 742.73 1540.49 C 744.96 1549.59 748.72 1558.48 748.51 1568.02 C 748.43 1579.72 745.56 1591.20 745.04 1602.89 C 756.90 1607.09 769.73 1610.70 782.37 1608.23 C 795.79 1606.00 809.38 1604.47 823.00 1604.83 C 834.67 1604.99 846.37 1604.37 858.02 1605.41 C 869.68 1606.01 881.37 1605.72 893.05 1605.81 C 897.69 1605.97 902.51 1604.08 905.28 1600.25 C 909.21 1594.81 911.09 1587.79 910.20 1581.14 C 901.22 1570.63 888.89 1561.93 874.88 1560.18 C 860.96 1558.15 846.89 1557.73 832.90 1556.47 C 828.46 1556.06 823.80 1556.26 819.66 1554.37 C 816.14 1552.71 813.22 1550.07 810.19 1547.70 C 810.36 1534.24 809.44 1520.70 811.01 1507.31 C 804.67 1506.63 798.32 1507.02 791.98 1507.32 C 774.26 1507.56 756.63 1509.68 738.89 1509.42 M 527.81 1552.80 C 511.69 1566.33 495.56 1579.87 479.42 1593.38 C 472.73 1599.07 464.71 1602.76 456.95 1606.73 C 467.12 1606.61 477.32 1607.16 487.35 1608.90 C 503.99 1611.71 521.69 1614.07 537.91 1607.98 C 539.63 1607.58 540.08 1605.78 540.38 1604.30 C 542.50 1590.18 538.40 1575.95 540.72 1561.86 C 541.58 1553.71 544.51 1546.01 546.04 1538.01 C 539.60 1542.47 533.89 1547.87 527.81 1552.80 M 377.72 1596.17 C 379.49 1600.91 382.39 1605.81 387.45 1607.56 C 393.80 1609.54 400.56 1609.64 407.16 1609.64 C 403.40 1607.99 399.47 1606.77 395.62 1605.39 C 389.22 1603.20 383.67 1599.27 377.72 1596.17 Z" />
<path fill="#000000" opacity="1.00" d=" M 577.39 570.36 C 579.92 569.39 583.12 569.96 584.95 572.05 C 591.97 581.51 594.60 594.17 591.57 605.59 C 590.33 609.77 588.54 614.26 584.67 616.66 C 582.73 618.02 579.98 618.48 577.92 617.15 C 573.67 614.57 571.04 609.96 569.69 605.30 C 567.38 597.04 568.82 588.41 569.27 580.02 C 569.47 575.47 573.15 571.62 577.39 570.36 Z" />
<path fill="#000000" opacity="1.00" d=" M 654.44 580.41 C 657.03 575.84 662.07 573.51 667.03 572.54 C 669.96 576.69 674.62 580.43 674.42 585.98 C 674.68 594.33 674.69 603.20 670.82 610.84 C 668.62 615.30 664.63 618.52 660.43 621.00 C 657.48 617.85 653.61 615.37 651.49 611.55 C 649.60 601.28 648.86 589.72 654.44 580.41 Z" />
<path fill="#000000" opacity="1.00" d=" M 597.36 640.39 C 603.88 637.20 612.64 640.99 615.23 647.68 C 616.23 650.06 615.70 652.66 615.17 655.09 C 610.85 653.99 606.56 652.79 602.19 651.92 C 602.15 655.28 602.24 658.64 602.42 661.99 C 607.30 662.67 612.23 662.76 617.14 663.19 C 614.48 667.14 612.89 673.78 607.02 673.55 C 598.42 673.60 591.64 665.92 589.87 657.99 C 588.05 651.30 591.57 643.92 597.36 640.39 Z" />
<path fill="#000000" opacity="1.00" d=" M 629.21 650.24 C 633.90 647.18 638.84 643.05 644.75 643.33 C 649.74 644.88 654.65 648.29 656.49 653.39 C 658.17 657.61 658.43 662.36 658.16 666.85 C 656.13 670.31 653.34 673.23 650.91 676.40 C 646.04 676.46 641.05 676.93 636.28 675.84 C 631.45 673.63 631.50 667.48 630.57 663.00 C 636.22 662.86 641.81 663.94 647.47 663.79 C 643.39 656.95 635.67 654.18 629.21 650.24 Z" />
<path fill="#000000" opacity="1.00" d=" M 567.93 710.64 C 568.64 707.78 569.52 704.96 570.63 702.24 C 580.44 703.84 588.24 710.74 597.76 713.20 C 619.59 718.59 643.03 721.46 664.92 714.85 C 672.13 712.71 678.67 708.91 684.96 704.86 C 687.38 707.55 689.67 710.36 691.84 713.27 C 682.75 723.55 668.03 725.81 658.45 735.46 C 651.55 742.51 645.26 750.54 636.56 755.50 C 629.70 759.49 620.67 759.34 614.07 754.88 C 607.16 750.35 603.23 742.85 598.94 736.05 C 596.52 732.25 594.55 727.88 590.65 725.33 C 583.28 720.12 575.19 716.02 567.93 710.64 M 606.66 729.15 C 608.68 733.33 611.50 737.03 614.28 740.73 C 617.02 744.34 620.32 748.24 625.07 748.96 C 630.45 749.80 635.48 746.80 639.32 743.32 C 643.32 739.59 647.47 735.88 650.42 731.21 C 635.82 730.79 621.25 729.60 606.66 729.15 Z" />
<path fill="#000000" opacity="1.00" d=" M 969.94 819.84 C 973.03 812.18 980.71 806.84 988.99 806.66 C 991.93 809.20 994.71 812.11 996.36 815.69 C 997.46 817.54 995.88 819.42 995.04 821.02 C 991.85 825.76 988.48 830.56 983.80 833.96 C 977.11 831.92 972.59 826.04 969.94 819.84 Z" />
<path fill="#000000" opacity="1.00" d=" M 627.58 912.59 C 655.34 894.19 690.38 888.78 722.94 893.97 C 755.35 898.98 786.31 915.26 807.21 940.79 C 832.71 967.06 854.21 996.77 877.18 1025.18 C 886.18 1016.97 897.00 1010.88 904.97 1001.57 C 906.36 1009.59 906.15 1017.78 904.63 1025.78 C 899.79 1053.18 891.02 1079.65 883.83 1106.48 C 872.36 1108.64 860.68 1109.44 849.02 1109.15 C 833.33 1108.96 817.70 1106.90 801.99 1107.29 C 796.53 1107.39 791.09 1108.25 785.90 1109.95 C 785.05 1107.89 784.22 1105.82 783.40 1103.76 C 791.78 1098.41 797.95 1090.42 805.73 1084.31 C 796.80 1070.24 783.60 1059.73 772.31 1047.69 C 761.24 1036.32 750.61 1024.43 741.80 1011.21 C 738.10 1006.18 735.70 1000.20 731.18 995.81 C 722.95 987.98 711.05 985.09 699.95 985.95 C 690.66 986.56 681.77 990.03 674.04 995.10 C 664.37 999.46 656.12 1006.28 648.00 1012.99 C 612.81 1042.69 580.86 1075.99 545.71 1105.72 C 537.37 1112.55 528.94 1119.58 518.98 1123.95 C 512.61 1128.96 507.61 1135.79 504.34 1143.21 C 499.96 1153.06 500.29 1164.94 505.70 1174.33 C 509.54 1181.50 515.93 1186.73 521.50 1192.50 C 549.39 1220.89 574.32 1252.02 598.12 1283.87 C 607.07 1295.67 615.67 1307.74 625.05 1319.20 C 615.66 1332.56 603.77 1343.99 590.56 1353.52 C 578.41 1362.40 565.73 1370.51 553.41 1379.15 C 539.95 1364.57 528.27 1348.49 516.29 1332.71 C 494.23 1303.40 471.83 1274.13 445.54 1248.45 C 440.64 1244.20 437.33 1238.56 433.76 1233.24 C 423.20 1216.58 415.63 1197.94 412.33 1178.46 C 408.36 1155.93 410.05 1132.36 417.66 1110.76 C 424.59 1090.71 436.73 1072.65 452.00 1058.00 C 466.77 1044.30 482.89 1032.17 498.65 1019.65 C 533.76 991.88 569.20 964.43 602.43 934.40 C 610.59 926.88 618.17 918.61 627.58 912.59 M 619.01 928.05 C 609.84 937.21 600.12 945.81 590.32 954.30 C 559.35 980.84 527.17 1005.92 495.14 1031.15 C 482.55 1041.18 469.72 1050.94 457.94 1061.93 C 442.92 1075.75 431.21 1093.18 424.36 1112.43 C 415.81 1136.23 414.97 1162.53 421.14 1186.99 C 426.01 1206.18 434.80 1224.43 446.98 1240.05 C 461.16 1253.91 474.49 1268.64 487.06 1283.97 C 510.47 1311.93 530.72 1342.39 554.45 1370.08 C 576.24 1354.80 600.32 1341.27 616.29 1319.34 C 605.68 1305.71 595.54 1291.71 585.07 1277.97 C 561.48 1246.87 536.51 1216.72 508.67 1189.32 C 502.35 1183.18 497.50 1175.40 495.49 1166.78 C 490.98 1148.13 501.24 1129.12 515.63 1117.73 C 520.65 1115.70 525.36 1112.99 529.63 1109.66 C 545.72 1097.60 560.35 1083.74 575.16 1070.18 C 589.14 1057.16 603.04 1044.07 617.08 1031.12 C 630.79 1018.76 644.34 1006.10 659.45 995.45 C 663.99 992.09 669.32 990.10 674.07 987.09 C 688.29 978.64 706.34 976.34 721.94 982.16 C 730.55 985.32 738.09 991.45 742.53 999.53 C 756.01 1022.56 775.42 1041.16 794.21 1059.79 C 802.08 1067.97 810.33 1076.33 814.52 1087.12 C 808.11 1090.38 803.31 1095.79 798.12 1100.60 C 824.85 1099.35 851.76 1105.23 878.36 1100.40 C 885.76 1072.72 895.25 1045.39 898.85 1016.86 C 891.10 1022.58 883.21 1028.30 876.80 1035.55 C 853.63 1007.58 832.59 977.82 807.67 951.33 C 801.51 945.13 796.29 938.04 789.65 932.32 C 763.83 909.09 728.46 897.74 693.97 899.07 C 666.76 900.06 639.18 909.32 619.01 928.05 Z" />
<path fill="#000000" opacity="1.00" d=" M 279.09 1704.04 C 301.54 1696.61 325.28 1692.56 348.96 1693.55 C 364.94 1694.29 381.77 1698.07 394.01 1709.00 C 405.45 1719.08 410.93 1734.18 412.88 1748.96 C 415.32 1768.03 413.74 1787.43 410.29 1806.28 C 403.59 1841.22 389.55 1874.85 368.84 1903.82 C 352.66 1926.25 331.82 1946.38 305.89 1956.94 C 287.70 1964.37 266.89 1966.10 248.08 1959.95 C 236.69 1956.45 226.47 1950.06 217.11 1942.80 C 215.50 1948.85 214.31 1955.32 210.40 1960.41 C 208.02 1963.61 202.90 1964.96 199.65 1962.32 C 196.82 1959.58 196.64 1955.14 197.56 1951.55 C 199.42 1944.05 201.52 1936.62 203.23 1929.10 C 197.52 1922.22 192.09 1915.02 188.02 1907.03 C 186.05 1903.19 186.58 1897.90 190.09 1895.14 C 193.46 1892.28 199.81 1893.22 201.29 1897.69 C 203.13 1902.17 205.09 1906.64 207.97 1910.57 C 213.54 1890.73 218.40 1870.69 223.69 1850.78 C 228.52 1832.01 233.53 1813.17 241.49 1795.44 C 245.12 1787.52 249.30 1779.69 255.20 1773.22 C 259.58 1768.42 265.38 1764.48 272.00 1763.92 C 277.00 1763.34 282.66 1765.13 285.40 1769.60 C 287.08 1772.38 287.66 1776.59 284.91 1778.94 C 281.52 1781.95 276.51 1780.69 272.64 1782.63 C 266.55 1785.65 262.59 1791.52 259.19 1797.19 C 250.99 1811.75 246.31 1827.94 242.09 1844.01 C 235.29 1871.35 228.20 1898.62 221.60 1926.00 C 223.55 1929.10 226.99 1930.93 229.84 1933.16 C 244.39 1943.40 262.46 1949.71 280.38 1947.33 C 300.33 1945.00 318.33 1934.30 332.78 1920.78 C 353.84 1900.92 368.98 1875.51 379.82 1848.86 C 387.99 1828.45 393.63 1806.96 395.82 1785.06 C 397.14 1770.27 397.53 1755.03 393.38 1740.62 C 390.87 1731.96 386.02 1723.71 378.57 1718.42 C 370.02 1712.27 359.32 1710.11 348.99 1709.48 C 332.72 1708.62 316.40 1710.76 300.60 1714.61 C 280.89 1719.45 261.83 1727.04 244.33 1737.33 C 231.46 1744.97 219.35 1754.15 209.54 1765.52 C 202.12 1774.16 196.01 1784.21 193.40 1795.40 C 192.52 1798.94 191.42 1803.03 187.97 1804.95 C 184.79 1806.78 180.53 1805.36 178.63 1802.36 C 176.65 1799.55 176.85 1795.89 177.71 1792.74 C 182.10 1775.51 192.48 1760.38 204.96 1747.95 C 225.63 1727.57 251.72 1713.28 279.09 1704.04 Z" />
<path fill="#000000" opacity="1.00" d=" M 446.12 1807.14 C 462.65 1794.47 483.10 1786.71 503.98 1786.03 C 513.09 1785.89 522.53 1786.34 531.04 1789.96 C 536.89 1792.40 541.77 1797.30 543.63 1803.44 C 546.88 1814.06 544.94 1825.89 539.46 1835.45 C 529.56 1852.41 511.79 1863.12 493.65 1869.40 C 498.53 1873.54 503.05 1878.23 505.99 1883.99 C 512.42 1895.99 515.75 1909.32 521.20 1921.75 C 523.61 1926.72 527.42 1931.81 533.13 1933.04 C 535.16 1933.76 538.08 1933.54 539.15 1935.82 C 540.61 1938.47 539.08 1942.61 535.79 1942.78 C 531.58 1942.98 527.59 1941.08 524.20 1938.76 C 517.69 1934.15 512.84 1927.42 509.95 1920.03 C 506.32 1910.62 503.08 1901.06 499.28 1891.72 C 496.84 1886.23 494.13 1880.48 489.24 1876.76 C 483.46 1872.44 475.10 1877.35 469.59 1872.41 C 467.06 1870.49 465.90 1865.82 469.26 1864.11 C 472.48 1863.87 475.55 1865.96 478.77 1864.89 C 494.17 1861.44 509.22 1854.73 520.75 1843.75 C 528.12 1836.67 534.03 1827.40 534.91 1817.03 C 535.27 1812.01 534.90 1806.47 531.64 1802.40 C 528.31 1798.30 522.93 1796.80 517.93 1796.03 C 497.60 1793.14 476.81 1798.94 459.39 1809.38 C 448.23 1816.19 437.91 1825.30 432.16 1837.25 C 430.26 1840.96 429.72 1845.18 427.98 1848.95 C 426.79 1851.52 422.99 1852.00 421.18 1849.84 C 419.03 1847.57 419.96 1844.24 420.71 1841.61 C 424.91 1827.61 434.72 1815.96 446.12 1807.14 Z" />
<path fill="#000000" opacity="1.00" d=" M 645.48 1786.71 C 653.98 1786.23 662.52 1785.59 671.03 1786.30 C 679.58 1787.13 688.40 1790.18 694.20 1796.80 C 697.34 1800.41 699.60 1805.07 699.48 1809.95 C 699.52 1814.00 693.28 1814.63 691.48 1811.50 C 688.55 1807.46 686.69 1802.43 682.33 1799.63 C 675.82 1795.15 667.55 1795.18 659.98 1795.34 C 636.67 1795.92 613.34 1798.39 590.57 1803.52 C 582.48 1805.56 574.12 1807.50 566.97 1811.98 C 564.24 1813.53 564.13 1817.05 562.17 1819.26 C 560.00 1821.07 556.11 1820.93 554.64 1818.31 C 552.88 1814.86 554.65 1810.75 557.18 1808.20 C 561.55 1803.78 567.44 1801.35 573.17 1799.22 C 596.47 1791.44 621.10 1788.66 645.48 1786.71 Z" />
<path fill="#000000" opacity="1.00" d=" M 786.60 1786.40 C 789.72 1784.94 792.96 1789.03 792.97 1791.94 C 784.22 1817.33 780.03 1844.00 774.83 1870.27 C 779.40 1870.29 784.13 1869.00 788.62 1870.25 C 792.30 1871.41 792.17 1877.45 788.40 1878.40 C 783.31 1879.51 778.04 1879.30 772.89 1879.96 C 768.98 1899.82 765.11 1919.69 761.51 1939.61 C 761.20 1940.69 760.91 1942.32 759.56 1942.58 C 755.31 1943.97 750.73 1939.60 752.03 1935.27 C 755.37 1917.05 759.15 1898.91 762.43 1880.68 C 742.65 1881.99 722.87 1883.45 703.10 1885.04 C 700.05 1898.52 697.26 1912.06 694.31 1925.57 C 693.65 1928.16 692.91 1931.04 690.69 1932.79 C 688.95 1934.11 685.95 1934.35 684.55 1932.41 C 683.11 1930.31 683.64 1927.65 684.09 1925.36 C 686.90 1912.26 689.79 1899.18 692.47 1886.06 C 689.24 1885.89 685.80 1886.57 682.75 1885.28 C 679.60 1883.72 679.99 1878.35 683.43 1877.43 C 687.06 1876.49 690.86 1876.57 694.58 1876.27 C 699.65 1854.29 704.21 1832.19 709.05 1810.15 C 709.96 1806.54 710.17 1802.51 712.51 1799.48 C 715.64 1796.10 722.14 1800.31 720.52 1804.57 C 715.40 1828.20 710.18 1851.82 705.09 1875.46 C 718.44 1874.72 731.76 1873.53 745.11 1872.62 C 751.58 1872.06 758.09 1871.92 764.52 1870.95 C 768.76 1848.85 772.51 1826.59 778.99 1805.00 C 781.08 1798.65 782.85 1792.01 786.60 1786.40 Z" />
<path fill="#000000" opacity="1.00" d=" M 896.47 1786.65 C 905.22 1786.20 914.04 1785.47 922.78 1786.50 C 930.97 1787.55 939.32 1790.80 944.71 1797.31 C 947.61 1800.84 949.68 1805.31 949.55 1809.97 C 949.56 1814.02 943.32 1814.62 941.53 1811.47 C 938.62 1807.43 936.76 1802.43 932.42 1799.63 C 925.89 1795.14 917.59 1795.18 909.99 1795.34 C 886.95 1795.91 863.90 1798.35 841.38 1803.35 C 833.25 1805.35 824.89 1807.32 817.61 1811.60 C 815.00 1812.84 814.30 1815.75 813.07 1818.09 C 811.41 1821.46 805.50 1821.24 804.36 1817.54 C 803.04 1813.42 805.67 1809.29 808.77 1806.77 C 814.68 1801.97 822.04 1799.50 829.21 1797.27 C 851.10 1791.04 873.83 1788.32 896.47 1786.65 Z" />
<path fill="#000000" opacity="1.00" d=" M 1036.46 1800.43 C 1039.95 1793.62 1045.60 1786.23 1053.96 1786.01 C 1057.66 1785.58 1057.67 1790.23 1058.14 1792.77 C 1053.38 1796.41 1048.20 1799.91 1045.21 1805.27 C 1040.78 1813.08 1038.69 1821.93 1036.55 1830.58 C 1028.98 1865.81 1022.85 1901.35 1015.60 1936.64 C 1015.08 1941.28 1009.76 1941.90 1007.54 1945.28 C 1005.71 1942.18 1000.80 1941.68 1000.45 1937.69 C 995.67 1902.99 991.37 1868.22 986.47 1833.53 C 985.04 1825.74 984.38 1817.52 980.62 1810.43 C 979.02 1806.95 973.76 1806.51 971.95 1810.03 C 967.89 1816.67 966.72 1824.57 964.85 1832.02 C 957.91 1863.70 950.98 1895.38 944.06 1927.06 C 943.45 1930.04 941.98 1934.34 938.14 1933.80 C 934.30 1933.25 933.48 1928.52 934.39 1925.40 C 941.33 1893.03 948.25 1860.65 955.17 1828.28 C 956.88 1820.38 958.92 1812.30 963.53 1805.55 C 966.30 1801.43 970.82 1798.06 975.99 1798.22 C 980.89 1798.00 985.54 1800.82 988.01 1805.00 C 992.33 1812.17 993.61 1820.63 995.12 1828.74 C 1000.02 1859.82 1003.27 1891.15 1008.15 1922.23 C 1013.09 1898.05 1017.57 1873.77 1022.33 1849.55 C 1025.67 1832.85 1028.82 1815.79 1036.46 1800.43 Z" />
<path fill="#000000" opacity="1.00" d=" M 592.71 1817.75 C 593.57 1814.89 594.76 1811.32 598.07 1810.61 C 601.04 1809.59 604.74 1812.40 603.66 1815.62 C 599.43 1831.68 594.63 1847.59 590.41 1863.66 C 608.77 1862.09 627.08 1859.95 645.42 1858.23 C 648.20 1857.90 652.09 1858.71 652.49 1862.06 C 653.14 1865.05 650.34 1867.25 647.60 1867.32 C 627.62 1869.46 607.60 1871.23 587.64 1873.53 C 583.86 1887.13 580.11 1900.74 576.26 1914.33 C 574.95 1918.67 574.12 1923.34 575.27 1927.83 C 575.81 1930.16 577.32 1932.39 579.63 1933.30 C 583.05 1934.59 586.80 1933.88 590.29 1933.23 C 608.48 1929.33 626.70 1925.58 644.89 1921.66 C 646.89 1921.31 649.18 1920.64 651.06 1921.81 C 653.17 1923.02 653.42 1926.11 651.97 1927.95 C 650.37 1930.08 647.53 1930.48 645.12 1931.09 C 626.65 1934.89 608.21 1938.87 589.76 1942.73 C 583.65 1944.06 576.74 1943.36 571.78 1939.27 C 565.12 1933.92 563.26 1924.35 565.48 1916.39 C 569.23 1902.52 573.21 1888.72 576.91 1874.84 C 573.72 1874.56 568.49 1874.43 568.60 1870.00 C 568.84 1864.39 575.87 1865.50 579.73 1864.78 C 584.04 1849.10 588.39 1833.43 592.71 1817.75 Z" />
<path fill="#000000" opacity="1.00" d=" M 843.81 1814.83 C 844.79 1810.32 851.98 1808.53 853.77 1813.37 C 853.95 1817.71 851.83 1821.79 850.92 1826.00 C 847.47 1838.55 843.80 1851.06 840.49 1863.66 C 858.82 1862.09 877.10 1859.96 895.42 1858.24 C 898.21 1857.90 902.15 1858.67 902.57 1862.05 C 903.23 1865.07 900.39 1867.27 897.62 1867.32 C 877.66 1869.47 857.65 1871.22 837.70 1873.54 C 834.17 1886.36 830.61 1899.18 827.01 1911.99 C 825.32 1917.50 823.67 1923.57 825.81 1929.22 C 826.74 1931.83 829.28 1933.65 832.04 1933.90 C 837.03 1934.41 841.89 1932.79 846.74 1931.87 C 862.74 1928.46 878.76 1925.16 894.75 1921.70 C 896.83 1921.34 899.20 1920.60 901.17 1921.81 C 903.26 1923.06 903.49 1926.17 902.01 1928.01 C 900.58 1929.88 898.12 1930.36 895.96 1930.92 C 877.22 1934.80 858.50 1938.82 839.76 1942.74 C 833.42 1944.13 826.21 1943.24 821.26 1938.76 C 815.10 1933.34 813.43 1924.22 815.53 1916.54 C 819.26 1902.62 823.28 1888.79 826.98 1874.87 C 824.78 1874.52 822.45 1874.58 820.46 1873.51 C 817.85 1871.89 818.13 1867.24 821.06 1866.13 C 823.84 1865.10 826.88 1865.17 829.80 1864.80 C 834.54 1848.16 838.73 1831.35 843.81 1814.83 Z" />
<path fill="#000000" opacity="1.00" d=" M 467.45 1828.33 C 470.85 1826.06 475.08 1829.87 473.50 1833.54 C 465.25 1866.24 456.85 1898.90 448.59 1931.60 C 447.81 1934.41 447.40 1937.38 446.08 1940.04 C 444.50 1942.18 441.24 1943.48 438.71 1942.39 C 436.13 1940.29 437.20 1936.53 437.73 1933.76 C 445.91 1901.57 454.07 1869.38 462.20 1837.18 C 463.12 1833.87 464.39 1830.23 467.45 1828.33 Z" />
</g>
<g id="#704f30ff">
<path fill="#704f30" opacity="1.00" d=" M 628.23 477.24 C 632.36 473.86 636.24 470.07 641.01 467.55 C 639.31 476.10 635.92 484.29 635.03 493.01 C 634.11 502.69 634.04 512.71 637.33 521.98 C 644.81 516.65 650.06 508.89 657.13 503.12 C 663.16 499.01 670.13 496.53 677.01 494.22 C 677.78 500.84 677.21 507.78 679.94 514.03 C 681.88 519.25 685.89 524.00 691.37 525.62 C 693.86 526.38 695.41 523.47 697.15 522.15 C 702.29 517.15 707.81 509.80 715.91 511.17 C 728.14 513.40 737.39 522.82 744.79 532.19 C 752.09 541.78 759.41 552.10 761.59 564.21 C 762.60 573.20 760.98 583.58 753.89 589.88 C 747.73 595.67 739.45 598.19 732.57 602.92 C 738.46 619.29 745.86 635.35 748.34 652.72 C 749.08 658.35 750.21 664.15 749.08 669.81 C 744.99 674.85 739.51 678.70 734.23 682.44 C 728.80 668.51 722.36 655.00 715.01 641.99 C 711.75 635.66 707.86 629.66 704.68 623.30 C 703.21 621.12 704.78 618.84 705.83 616.88 C 710.41 609.04 715.44 601.08 716.81 591.93 C 718.14 582.22 716.79 572.12 712.89 563.13 C 707.33 551.20 696.49 542.12 684.17 537.75 C 670.12 533.03 654.08 533.73 641.03 541.05 C 633.63 544.67 627.85 550.63 621.17 555.31 C 613.77 547.42 605.99 539.24 595.62 535.37 C 569.39 524.83 536.63 538.25 524.58 563.61 C 520.09 572.31 519.93 582.40 520.94 591.92 C 523.47 604.75 533.36 614.00 540.97 624.00 C 538.15 629.08 534.66 633.74 531.86 638.82 C 521.90 656.51 515.51 676.05 511.96 695.99 C 511.09 700.80 510.82 705.73 509.36 710.42 C 502.85 694.06 498.17 676.70 497.76 659.01 C 498.60 640.94 502.35 623.07 507.94 605.89 C 509.78 599.94 512.72 594.35 514.02 588.23 C 506.99 585.61 499.56 587.53 492.36 587.48 C 487.25 585.88 482.57 582.92 478.49 579.49 C 472.83 574.39 473.10 566.01 473.96 559.08 C 475.97 549.06 481.90 540.19 489.09 533.10 C 498.04 524.60 508.25 517.21 519.82 512.74 C 521.54 512.12 523.65 511.26 525.22 512.73 C 531.70 517.19 536.68 523.45 542.95 528.19 C 551.41 516.44 551.77 501.25 550.53 487.39 C 549.97 482.85 549.02 478.37 548.70 473.81 C 562.11 479.95 572.86 490.66 582.06 501.97 C 587.31 508.17 592.01 514.81 597.26 521.01 C 602.64 511.75 606.95 501.87 612.99 492.99 C 617.14 486.93 622.62 481.93 628.23 477.24 Z" />
<path fill="#704f30" opacity="1.00" d=" M 861.77 540.79 C 868.32 536.73 876.44 538.68 883.39 540.52 C 889.40 542.40 896.36 544.67 899.49 550.61 C 901.31 556.54 894.50 561.02 894.55 566.61 C 900.22 577.16 907.32 587.30 909.83 599.24 C 911.73 607.32 912.83 617.19 906.91 623.92 C 899.91 631.14 890.23 636.29 880.02 636.43 C 875.85 636.35 871.18 636.06 867.98 633.05 C 863.37 628.83 860.34 623.07 858.90 617.04 C 857.21 610.25 855.99 603.02 851.69 597.28 C 848.61 593.04 842.81 592.28 837.96 592.82 C 833.86 593.22 830.36 596.89 830.19 601.01 C 829.93 603.66 829.96 606.32 829.93 608.98 C 826.54 610.95 823.08 613.14 819.13 613.72 C 814.41 611.41 811.23 606.58 809.05 601.92 C 803.65 588.54 810.82 573.02 822.00 565.02 C 832.48 558.54 845.02 556.58 855.82 550.75 C 859.58 548.73 858.09 542.96 861.77 540.79 Z" />
<path fill="#704f30" opacity="1.00" d=" M 922.90 642.05 C 929.73 640.02 936.88 639.25 943.99 639.05 C 947.89 638.99 952.25 638.88 955.44 641.54 C 960.66 645.83 964.39 651.73 967.24 657.80 C 960.60 662.65 953.25 666.71 945.34 669.05 C 937.76 660.15 929.87 651.44 922.90 642.05 Z" />
<path fill="#704f30" opacity="1.00" d=" M 582.87 798.96 C 586.09 799.15 589.27 799.76 592.29 800.90 C 590.32 802.99 588.14 804.86 585.82 806.55 C 584.22 804.29 583.28 801.68 582.87 798.96 Z" />
<path fill="#704f30" opacity="1.00" d=" M 428.94 815.90 C 431.97 813.04 435.08 810.22 438.67 808.06 C 451.39 832.97 465.07 857.64 473.56 884.41 C 474.65 889.10 476.73 893.71 476.70 898.57 C 468.75 907.91 457.00 912.25 446.15 917.18 C 435.45 921.79 424.93 926.90 415.02 933.03 C 403.23 940.96 390.96 948.16 379.43 956.47 C 364.04 967.51 349.02 979.20 335.68 992.69 C 332.41 996.03 328.02 998.35 325.75 1002.60 C 332.29 1004.64 339.24 1005.65 345.20 1009.23 C 340.69 1014.40 335.09 1018.45 330.10 1023.12 C 328.15 1024.55 326.11 1027.09 323.40 1026.34 C 319.08 1025.30 314.61 1023.83 310.16 1025.05 C 304.16 1026.11 300.35 1031.27 296.49 1035.48 C 289.49 1043.59 282.25 1052.33 280.02 1063.09 C 278.23 1071.18 281.55 1079.09 282.25 1087.09 C 276.73 1085.60 271.32 1082.85 267.94 1078.09 C 261.70 1069.29 258.45 1058.84 255.41 1048.61 C 253.81 1043.43 250.82 1038.58 250.66 1033.05 C 250.88 1021.09 252.38 1008.50 259.43 998.44 C 262.69 994.09 266.04 989.73 270.15 986.15 C 276.69 980.95 285.24 979.49 292.40 975.39 C 299.81 970.99 304.87 963.83 310.44 957.46 C 319.65 946.76 327.02 934.68 335.30 923.29 C 362.64 884.37 393.25 847.48 428.94 815.90 Z" />
<path fill="#704f30" opacity="1.00" d=" M 819.85 1307.84 C 825.53 1303.26 830.77 1298.13 836.82 1294.02 C 840.72 1302.81 842.82 1312.24 845.58 1321.42 C 847.58 1329.09 850.10 1336.66 851.43 1344.50 C 845.47 1342.58 840.17 1337.66 833.55 1338.68 C 833.30 1349.60 834.91 1360.44 835.67 1371.31 C 828.70 1367.21 824.15 1360.18 817.34 1355.86 C 812.90 1395.03 814.90 1434.88 806.70 1473.61 C 804.94 1480.64 803.80 1487.99 800.49 1494.51 C 798.34 1498.67 792.93 1498.04 788.99 1498.36 C 775.60 1498.11 762.19 1498.87 748.80 1498.19 C 748.13 1485.47 748.66 1472.73 748.48 1460.00 C 748.41 1426.20 757.21 1393.22 767.30 1361.22 C 768.34 1358.48 768.20 1355.57 768.07 1352.72 C 767.87 1351.17 769.47 1350.34 770.36 1349.38 C 786.90 1335.59 803.34 1321.66 819.85 1307.84 Z" />
<path fill="#704f30" opacity="1.00" d=" M 385.83 1618.34 C 405.54 1618.31 425.27 1618.59 444.96 1617.47 C 458.05 1617.65 471.25 1616.62 484.25 1618.57 C 473.72 1618.80 463.19 1617.47 452.67 1618.18 C 436.78 1618.71 420.85 1618.25 404.98 1619.38 C 398.59 1619.29 392.21 1618.68 385.83 1618.34 Z" />
</g>
<g id="#88b44aff">
<path fill="#88b44a" opacity="1.00" d=" M 642.93 499.81 C 643.60 496.39 644.40 492.98 645.75 489.76 C 645.31 492.26 644.61 494.71 643.93 497.16 C 644.30 497.43 645.05 497.97 645.43 498.23 C 644.59 498.76 643.76 499.28 642.93 499.81 Z" />
<path fill="#88b44a" opacity="1.00" d=" M 508.86 757.87 C 512.18 755.59 514.30 752.08 517.10 749.26 C 520.60 752.68 523.36 756.74 526.68 760.33 C 535.15 769.62 544.86 777.76 555.35 784.69 C 560.67 788.24 566.50 790.89 572.03 794.08 C 572.79 801.15 573.42 808.28 575.54 815.11 C 563.57 825.64 551.15 835.66 538.99 845.98 C 532.67 850.95 527.22 856.90 520.92 861.90 C 509.53 871.23 498.54 881.06 486.93 890.11 C 479.34 863.92 467.75 839.05 454.89 815.06 C 452.85 810.96 449.76 807.35 448.34 802.96 C 448.31 799.41 451.77 797.29 454.07 795.09 C 466.12 786.03 478.37 777.22 490.97 768.95 C 496.87 765.15 503.13 761.92 508.86 757.87 Z" />
</g>
<g id="#ebe982ff">
<path fill="#ebe982" opacity="1.00" d=" M 545.98 555.99 C 554.84 547.21 567.64 542.83 580.03 543.89 C 588.98 543.87 597.77 547.57 604.05 553.95 C 610.95 560.31 615.23 568.80 618.96 577.28 C 624.34 573.26 628.37 567.81 632.82 562.85 C 641.96 551.58 656.64 545.38 671.03 545.63 C 685.78 547.07 699.71 556.86 705.28 570.72 C 708.05 577.10 707.44 584.26 707.07 591.02 C 704.63 602.38 695.89 610.77 689.63 620.13 C 704.18 640.59 717.38 662.49 724.41 686.78 C 724.74 688.41 725.71 690.69 723.79 691.72 C 713.84 700.12 703.86 708.49 693.92 716.89 C 687.53 722.20 681.39 727.83 674.45 732.43 C 652.43 750.73 630.53 769.20 608.59 787.60 C 606.21 789.40 603.86 792.61 600.47 791.48 C 580.84 787.33 561.55 779.10 546.80 765.22 C 536.35 755.73 527.57 743.75 524.16 729.88 C 521.87 721.07 522.94 711.90 523.36 702.94 C 524.56 686.02 531.06 670.13 537.72 654.73 C 542.50 643.72 547.73 632.90 552.19 621.76 C 552.99 620.40 551.53 619.16 551.03 618.01 C 544.94 608.62 536.91 600.04 534.14 588.91 C 531.58 576.82 537.11 564.17 545.98 555.99 M 577.39 570.36 C 573.15 571.62 569.47 575.47 569.27 580.02 C 568.82 588.41 567.38 597.04 569.69 605.30 C 571.04 609.96 573.67 614.57 577.92 617.15 C 579.98 618.48 582.73 618.02 584.67 616.66 C 588.54 614.26 590.33 609.77 591.57 605.59 C 594.60 594.17 591.97 581.51 584.95 572.05 C 583.12 569.96 579.92 569.39 577.39 570.36 M 654.44 580.41 C 648.86 589.72 649.60 601.28 651.49 611.55 C 653.61 615.37 657.48 617.85 660.43 621.00 C 664.63 618.52 668.62 615.30 670.82 610.84 C 674.69 603.20 674.68 594.33 674.42 585.98 C 674.62 580.43 669.96 576.69 667.03 572.54 C 662.07 573.51 657.03 575.84 654.44 580.41 M 597.36 640.39 C 591.57 643.92 588.05 651.30 589.87 657.99 C 591.64 665.92 598.42 673.60 607.02 673.55 C 612.89 673.78 614.48 667.14 617.14 663.19 C 612.23 662.76 607.30 662.67 602.42 661.99 C 602.24 658.64 602.15 655.28 602.19 651.92 C 606.56 652.79 610.85 653.99 615.17 655.09 C 615.70 652.66 616.23 650.06 615.23 647.68 C 612.64 640.99 603.88 637.20 597.36 640.39 M 629.21 650.24 C 635.67 654.18 643.39 656.95 647.47 663.79 C 641.81 663.94 636.22 662.86 630.57 663.00 C 631.50 667.48 631.45 673.63 636.28 675.84 C 641.05 676.93 646.04 676.46 650.91 676.40 C 653.34 673.23 656.13 670.31 658.16 666.85 C 658.43 662.36 658.17 657.61 656.49 653.39 C 654.65 648.29 649.74 644.88 644.75 643.33 C 638.84 643.05 633.90 647.18 629.21 650.24 M 567.93 710.64 C 575.19 716.02 583.28 720.12 590.65 725.33 C 594.55 727.88 596.52 732.25 598.94 736.05 C 603.23 742.85 607.16 750.35 614.07 754.88 C 620.67 759.34 629.70 759.49 636.56 755.50 C 645.26 750.54 651.55 742.51 658.45 735.46 C 668.03 725.81 682.75 723.55 691.84 713.27 C 689.67 710.36 687.38 707.55 684.96 704.86 C 678.67 708.91 672.13 712.71 664.92 714.85 C 643.03 721.46 619.59 718.59 597.76 713.20 C 588.24 710.74 580.44 703.84 570.63 702.24 C 569.52 704.96 568.64 707.78 567.93 710.64 Z" />
</g>
<g id="#ffffffff">
<path fill="#ffffff" opacity="1.00" d=" M 822.14 623.10 C 830.18 617.86 839.50 614.25 849.23 614.60 C 850.00 621.04 852.61 627.09 856.50 632.25 C 841.43 631.93 826.03 636.57 814.52 646.49 C 793.02 664.33 771.79 682.50 750.15 700.17 C 704.13 739.18 657.74 777.76 611.52 816.53 C 567.56 853.58 523.27 890.24 479.45 927.46 C 430.85 968.20 382.26 1008.96 333.66 1049.70 C 325.48 1056.52 317.43 1063.51 309.01 1070.04 C 301.64 1075.16 295.61 1081.90 288.55 1087.41 C 286.88 1081.79 285.04 1076.07 285.54 1070.12 C 293.92 1064.84 300.92 1057.73 308.87 1051.87 C 314.38 1047.74 319.99 1043.73 324.86 1038.85 C 358.93 1010.27 393.05 981.74 427.10 953.13 C 465.70 920.71 504.54 888.57 543.03 856.02 C 603.10 805.77 662.90 755.19 723.06 705.06 C 745.52 686.53 767.52 667.47 789.91 648.86 C 796.13 643.76 802.08 638.30 808.57 633.53 C 813.32 630.36 817.14 625.94 822.14 623.10 Z" />
<path fill="#ffffff" opacity="1.00" d=" M 889.01 642.72 C 894.19 641.11 899.27 639.17 904.11 636.71 C 913.48 645.45 920.88 656.03 929.88 665.12 C 935.74 670.63 940.47 677.18 945.81 683.17 C 1004.30 752.06 1062.10 821.54 1120.30 890.68 C 1126.35 897.43 1131.01 905.23 1136.83 912.16 C 1142.31 919.03 1147.95 925.81 1152.95 933.04 C 1164.56 952.22 1166.35 976.75 1158.68 997.71 C 1153.70 1011.37 1144.38 1023.04 1133.45 1032.46 C 1010.88 1135.22 888.36 1238.04 765.72 1340.72 C 670.90 1420.59 575.68 1500.00 480.79 1579.78 C 467.03 1591.91 449.36 1599.77 430.96 1600.73 C 406.87 1602.27 382.98 1590.70 367.69 1572.32 C 294.35 1484.99 221.05 1397.63 147.73 1310.28 C 143.35 1304.98 138.80 1299.83 134.54 1294.44 C 122.90 1279.07 117.08 1259.29 119.01 1240.07 C 121.23 1219.23 132.60 1199.93 148.65 1186.67 C 187.23 1154.50 225.46 1121.92 264.24 1089.99 C 267.90 1093.78 272.75 1096.13 278.04 1096.36 C 237.66 1130.21 197.31 1164.08 156.94 1197.94 C 141.91 1209.80 132.51 1228.76 133.12 1248.00 C 132.49 1258.49 136.21 1268.65 141.39 1277.60 C 145.97 1285.45 151.57 1292.65 157.51 1299.51 C 229.60 1385.41 301.71 1471.29 373.79 1557.20 C 383.39 1568.47 394.70 1579.16 408.99 1584.03 C 428.81 1590.81 451.58 1585.93 467.55 1572.58 C 527.81 1522.19 587.86 1471.54 648.09 1421.10 C 802.61 1291.63 956.98 1161.98 1111.48 1032.49 C 1119.47 1025.51 1128.29 1019.33 1135.04 1011.06 C 1146.43 997.92 1151.55 979.66 1148.60 962.53 C 1147.32 954.53 1144.28 946.87 1139.97 940.03 C 1136.36 934.13 1131.69 929.00 1127.29 923.70 C 1054.64 837.03 981.71 750.59 909.27 663.74 C 903.18 656.15 897.70 647.62 889.01 642.72 Z" />
<path fill="#ffffff" opacity="1.00" d=" M 844.35 638.32 C 849.54 637.52 854.84 637.47 860.07 637.95 C 864.15 638.21 867.61 640.65 871.55 641.47 C 882.28 643.02 890.94 650.29 898.95 657.07 C 908.36 665.73 915.86 676.17 924.18 685.84 C 930.79 693.39 935.47 702.39 942.17 709.88 C 949.61 718.72 958.56 726.16 965.86 735.13 C 971.27 741.22 975.10 748.48 980.13 754.87 C 991.02 768.25 1001.65 781.92 1013.74 794.25 C 1020.52 800.83 1027.36 807.47 1032.59 815.40 C 1042.72 830.94 1054.79 845.10 1067.09 858.94 C 1081.95 875.79 1095.45 893.79 1110.73 910.27 C 1119.83 919.55 1130.07 928.32 1135.64 940.35 C 1140.87 951.47 1144.70 963.61 1144.17 976.03 C 1143.79 984.17 1140.76 991.86 1137.19 999.08 C 1132.65 1008.06 1126.50 1016.25 1118.95 1022.91 C 1057.48 1074.46 996.02 1126.02 934.55 1177.57 C 871.88 1230.24 808.98 1282.63 746.32 1335.31 C 655.48 1411.83 564.33 1487.99 473.30 1564.30 C 466.71 1569.88 459.01 1574.01 450.92 1576.99 C 443.86 1579.44 436.54 1581.68 428.99 1581.63 C 410.67 1581.80 392.90 1572.76 381.06 1558.99 C 309.54 1473.83 238.08 1388.63 166.54 1303.49 C 159.90 1295.44 152.49 1287.92 147.03 1278.98 C 142.24 1270.04 138.64 1260.20 138.34 1249.97 C 137.69 1236.20 141.88 1222.21 150.19 1211.19 C 154.73 1205.37 160.74 1200.98 166.40 1196.33 C 205.05 1164.00 243.54 1131.49 282.29 1099.28 C 284.34 1097.52 286.70 1096.20 289.04 1094.88 C 290.30 1093.52 291.18 1091.83 292.69 1090.71 C 301.19 1083.94 309.09 1076.45 317.52 1069.59 C 481.81 931.85 646.00 793.99 810.35 656.31 C 815.75 652.01 820.67 646.95 826.92 643.82 C 832.34 640.97 838.30 639.22 844.35 638.32 M 969.94 819.84 C 972.59 826.04 977.11 831.92 983.80 833.96 C 988.48 830.56 991.85 825.76 995.04 821.02 C 995.88 819.42 997.46 817.54 996.36 815.69 C 994.71 812.11 991.93 809.20 988.99 806.66 C 980.71 806.84 973.03 812.18 969.94 819.84 M 627.58 912.59 C 618.17 918.61 610.59 926.88 602.43 934.40 C 569.20 964.43 533.76 991.88 498.65 1019.65 C 482.89 1032.17 466.77 1044.30 452.00 1058.00 C 436.73 1072.65 424.59 1090.71 417.66 1110.76 C 410.05 1132.36 408.36 1155.93 412.33 1178.46 C 415.63 1197.94 423.20 1216.58 433.76 1233.24 C 437.33 1238.56 440.64 1244.20 445.54 1248.45 C 471.83 1274.13 494.23 1303.40 516.29 1332.71 C 528.27 1348.49 539.95 1364.57 553.41 1379.15 C 565.73 1370.51 578.41 1362.40 590.56 1353.52 C 603.77 1343.99 615.66 1332.56 625.05 1319.20 C 615.67 1307.74 607.07 1295.67 598.12 1283.87 C 574.32 1252.02 549.39 1220.89 521.50 1192.50 C 515.93 1186.73 509.54 1181.50 505.70 1174.33 C 500.29 1164.94 499.96 1153.06 504.34 1143.21 C 507.61 1135.79 512.61 1128.96 518.98 1123.95 C 528.94 1119.58 537.37 1112.55 545.71 1105.72 C 580.86 1075.99 612.81 1042.69 648.00 1012.99 C 656.12 1006.28 664.37 999.46 674.04 995.10 C 681.77 990.03 690.66 986.56 699.95 985.95 C 711.05 985.09 722.95 987.98 731.18 995.81 C 735.70 1000.20 738.10 1006.18 741.80 1011.21 C 750.61 1024.43 761.24 1036.32 772.31 1047.69 C 783.60 1059.73 796.80 1070.24 805.73 1084.31 C 797.95 1090.42 791.78 1098.41 783.40 1103.76 C 784.22 1105.82 785.05 1107.89 785.90 1109.95 C 791.09 1108.25 796.53 1107.39 801.99 1107.29 C 817.70 1106.90 833.33 1108.96 849.02 1109.15 C 860.68 1109.44 872.36 1108.64 883.83 1106.48 C 891.02 1079.65 899.79 1053.18 904.63 1025.78 C 906.15 1017.78 906.36 1009.59 904.97 1001.57 C 897.00 1010.88 886.18 1016.97 877.18 1025.18 C 854.21 996.77 832.71 967.06 807.21 940.79 C 786.31 915.26 755.35 898.98 722.94 893.97 C 690.38 888.78 655.34 894.19 627.58 912.59 Z" />
<path fill="#ffffff" opacity="1.00" d=" M 619.01 928.05 C 639.18 909.32 666.76 900.06 693.97 899.07 C 728.46 897.74 763.83 909.09 789.65 932.32 C 796.29 938.04 801.51 945.13 807.67 951.33 C 832.59 977.82 853.63 1007.58 876.80 1035.55 C 883.21 1028.30 891.10 1022.58 898.85 1016.86 C 895.25 1045.39 885.76 1072.72 878.36 1100.40 C 851.76 1105.23 824.85 1099.35 798.12 1100.60 C 803.31 1095.79 808.11 1090.38 814.52 1087.12 C 810.33 1076.33 802.08 1067.97 794.21 1059.79 C 775.42 1041.16 756.01 1022.56 742.53 999.53 C 738.09 991.45 730.55 985.32 721.94 982.16 C 706.34 976.34 688.29 978.64 674.07 987.09 C 669.32 990.10 663.99 992.09 659.45 995.45 C 644.34 1006.10 630.79 1018.76 617.08 1031.12 C 603.04 1044.07 589.14 1057.16 575.16 1070.18 C 560.35 1083.74 545.72 1097.60 529.63 1109.66 C 525.36 1112.99 520.65 1115.70 515.63 1117.73 C 501.24 1129.12 490.98 1148.13 495.49 1166.78 C 497.50 1175.40 502.35 1183.18 508.67 1189.32 C 536.51 1216.72 561.48 1246.87 585.07 1277.97 C 595.54 1291.71 605.68 1305.71 616.29 1319.34 C 600.32 1341.27 576.24 1354.80 554.45 1370.08 C 530.72 1342.39 510.47 1311.93 487.06 1283.97 C 474.49 1268.64 461.16 1253.91 446.98 1240.05 C 434.80 1224.43 426.01 1206.18 421.14 1186.99 C 414.97 1162.53 415.81 1136.23 424.36 1112.43 C 431.21 1093.18 442.92 1075.75 457.94 1061.93 C 469.72 1050.94 482.55 1041.18 495.14 1031.15 C 527.17 1005.92 559.35 980.84 590.32 954.30 C 600.12 945.81 609.84 937.21 619.01 928.05 Z" />
</g>
<g id="#641713ff">
<path fill="#641713" opacity="1.00" d=" M 606.66 729.15 C 621.25 729.60 635.82 730.79 650.42 731.21 C 647.47 735.88 643.32 739.59 639.32 743.32 C 635.48 746.80 630.45 749.80 625.07 748.96 C 620.32 748.24 617.02 744.34 614.28 740.73 C 611.50 737.03 608.68 733.33 606.66 729.15 Z" />
<path fill="#641713" opacity="1.00" d=" M 527.81 1552.80 C 533.89 1547.87 539.60 1542.47 546.04 1538.01 C 544.51 1546.01 541.58 1553.71 540.72 1561.86 C 538.40 1575.95 542.50 1590.18 540.38 1604.30 C 540.08 1605.78 539.63 1607.58 537.91 1607.98 C 521.69 1614.07 503.99 1611.71 487.35 1608.90 C 477.32 1607.16 467.12 1606.61 456.95 1606.73 C 464.71 1602.76 472.73 1599.07 479.42 1593.38 C 495.56 1579.87 511.69 1566.33 527.81 1552.80 Z" />
<path fill="#641713" opacity="1.00" d=" M 377.72 1596.17 C 383.67 1599.27 389.22 1603.20 395.62 1605.39 C 399.47 1606.77 403.40 1607.99 407.16 1609.64 C 400.56 1609.64 393.80 1609.54 387.45 1607.56 C 382.39 1605.81 379.49 1600.91 377.72 1596.17 Z" />
</g>
<g id="#6287c5ff">
<path fill="#6287c5" opacity="1.00" d=" M 738.89 1509.42 C 756.63 1509.68 774.26 1507.56 791.98 1507.32 C 798.32 1507.02 804.67 1506.63 811.01 1507.31 C 809.44 1520.70 810.36 1534.24 810.19 1547.70 C 813.22 1550.07 816.14 1552.71 819.66 1554.37 C 823.80 1556.26 828.46 1556.06 832.90 1556.47 C 846.89 1557.73 860.96 1558.15 874.88 1560.18 C 888.89 1561.93 901.22 1570.63 910.20 1581.14 C 911.09 1587.79 909.21 1594.81 905.28 1600.25 C 902.51 1604.08 897.69 1605.97 893.05 1605.81 C 881.37 1605.72 869.68 1606.01 858.02 1605.41 C 846.37 1604.37 834.67 1604.99 823.00 1604.83 C 809.38 1604.47 795.79 1606.00 782.37 1608.23 C 769.73 1610.70 756.90 1607.09 745.04 1602.89 C 745.56 1591.20 748.43 1579.72 748.51 1568.02 C 748.72 1558.48 744.96 1549.59 742.73 1540.49 C 740.07 1530.40 737.43 1519.91 738.89 1509.42 Z" />
</g>
</svg>
