<svg width="521" height="952" xmlns="http://www.w3.org/2000/svg" xmlns:xlink="http://www.w3.org/1999/xlink" xml:space="preserve" overflow="hidden"><defs><clipPath id="clip0"><rect x="94" y="94" width="521" height="952"/></clipPath><clipPath id="clip1"><rect x="94" y="253" width="521" height="793"/></clipPath><clipPath id="clip2"><rect x="94" y="253" width="521" height="793"/></clipPath></defs><g clip-path="url(#clip0)" transform="translate(-94 -94)"><g clip-path="url(#clip1)"><g clip-path="url(#clip2)"><path d="M208.421 5.05439C214.69 6.17218 220.571 8.79658 225.455 12.8547 236.511 21.6269 249.901 29.087 255.198 42.9866 265.598 27.4832 282.171 16.2081 300.517 12.6603 304.138 17.1801 298.986 21.068 296.97 24.9803 292.328 31.0067 292.668 38.8313 292.28 46.0241 297.601 44.4203 303.069 41.0426 308.755 43.181 326.931 49.1102 342.629 65.5855 344.16 85.147 344.087 97.5157 332.812 106.434 321.537 108.864 334.829 138.024 331.597 174.425 311.428 199.697 352.252 236.9 382.991 283.896 405.906 333.881 407.875 333.201 411.787 331.791 413.731 331.087 425.225 348.413 432.831 367.853 442.332 386.248 448.212 397.231 449.865 411.495 460.994 418.785 469.256 425.103 477.785 432.393 481.358 442.478 484.152 449.257 479.486 455.527 476.182 461.091 491.709 487.894 506.532 515.305 517.151 544.513 500.652 554.355 482.913 562.325 464.396 567.452 449.598 537.345 433.973 507.626 420.413 476.911 410.572 477.081 401.872 470.738 398.786 461.456 393.805 451.128 400.269 439.878 397.037 429.283 391.739 409.6 378.204 393.732 366.006 377.937 354.731 365.593 344.452 352.13 331.16 341.827 321.756 334.221 313.615 325.109 307.662 314.563 314.441 336.238 317.576 358.837 320.37 381.29 322.509 411.398 316.264 441.238 312.959 470.981 317.333 484.273 326.47 495.427 332.229 508.185 349.19 536.81 364.11 567.282 370.137 600.281 370.355 606.745 370.428 613.185 370.453 619.648 366.978 616.562 363.527 613.452 360.077 610.342 359.834 619.454 358.108 628.445 355.241 637.096 351.742 632.139 348.267 627.157 344.816 622.176 344.913 649.27 343.698 676.778 335.218 702.754 336.481 703.046 339.008 703.653 340.272 703.969 341.487 705.111 343.966 707.444 345.205 708.611 344.233 712.523 343.091 716.435 341.803 720.275 342.313 724.6 342.726 728.95 343.139 733.299 362.409 733.105 383.404 733.129 399.613 745.206 412.905 753.371 410.232 778.959 393.732 781.267 367.828 782.604 341.633 778.157 315.924 783.138 305.693 785.082 295.293 783.017 286.278 777.914 286.18 767.392 286.958 756.822 285.719 746.348 284.334 735.486 278.38 725.402 279.449 714.224 279.255 709.583 283.435 706.74 286.108 703.556 286.642 691.771 286.132 679.961 286.423 668.151 287.541 647.521 291.672 627.011 299.327 607.79 292.425 599.091 285.038 590.78 278.113 582.105 259.378 556.517 247.957 526.677 235.782 497.663 228.031 498.003 220.085 497.201 212.503 499.048 207.643 510.129 203.099 521.38 198.142 532.46 194.788 540.212 202.005 547.065 204.8 553.796 200.013 552.192 195.201 550.661 190.39 549.13 182.663 563.103 175.032 577.342 164.608 589.565 159.821 595.519 154.135 600.84 150.368 607.547 150.708 613.209 153.017 618.506 154.523 623.925 162.324 648.833 162.615 675.295 161.182 701.126 164.972 704.698 170.1 708.513 169.759 714.37 169.468 725.183 163.612 734.976 163.028 745.765 162.567 755.558 163.004 765.351 163.028 775.12 153.357 783.114 140.454 782.288 128.79 780.757 107.867 777.647 86.6293 779.008 65.6341 780.563 57.3236 780.976 47.5307 779.056 43.0595 771.207 36.8873 762.484 40.1435 749.799 48.6485 743.894 64.7593 731.72 85.8517 730.845 105.219 731.574 105.583 727.322 106.045 723.069 106.555 718.841 105.656 714.516 103.348 709.801 105.267 705.452 107.795 703.143 110.808 701.491 113.627 699.62 106.069 674.445 104.077 648.007 104.344 621.811 101.914 626.744 99.7513 631.847 96.7381 636.464 93.7978 636.367 91.1977 634.666 91.1005 631.483 89.6668 624.606 90.1771 617.51 90.4444 610.536 86.7994 613.622 84.0292 619.211 78.6346 619.162 77.4925 596.393 86.2405 574.645 94.4782 553.869 100.043 539.216 108.159 525.778 116.202 512.413 105.292 504.904 94.7698 496.861 84.175 488.939 70.6156 493.143 54.0674 493.872 42.3548 484.711 33.4367 477.032 34.5059 464.372 35.6723 453.874 26.8028 447.338 17.739 441.068 8.96668 434.41 11.0079 425.589 15.7707 417.91 19.8531 409.964 18.225 401.557 12.6846 394.121 10.4004 385.737 1.1664 357.792 9.79288 327.685 22.5989 302.34 36.1097 276.169 63.0097 258.26 70.8586 229.003 76.4962 209.393 67.4323 188.689 53.4842 174.911 43.8614 166.6 30.4235 166.139 19.2456 160.89 12.4416 157.877 4.17959 153.527 3.28049 145.241 3.03749 134.354 13.3407 124.634 24.227 125.436 39.5603 126.141 55.9142 128.838 68.0641 138.947 84.3208 152.215 96.5923 170.901 100.213 191.751 106.069 220.328 100.019 251.334 83.3974 275.367 70.8586 297.844 55.7927 319.083 46.7531 343.334 41.2613 359.591 43.1324 378.229 52.8038 392.566 55.9142 381.776 58.0769 370.55 63.6415 360.66 67.5052 353.831 71.9764 347.392 76.2532 340.782 73.9933 341.098 69.4978 341.754 67.2622 342.07 68.5987 328.681 76.0102 317.114 81.9637 305.377 103.955 268.587 129.713 233.085 163.15 205.845 155.836 189.904 147.306 173.574 147.914 155.52 146.747 140.842 151.632 126.87 155.495 112.97 149.42 109.155 142.228 105.413 140.259 97.8802 137.538 87.1882 138.558 74.7223 146.261 66.2173 155.034 56.303 163.004 42.938 177.39 41.1398 184.291 39.6089 189.078 46.0241 194.254 49.4261 193.063 42.8894 191.775 36.377 190.779 29.7917 202.905 30.3263 214.666 34.19 224.459 41.4071 222.442 27.8477 212.357 17.8362 208.421 5.05439M225.771 19.8045C229.877 31.517 233.012 44.6633 228.371 56.7161 223.632 53.1197 220.23 48.1382 215.856 44.2016 211.798 41.1884 206.841 39.8519 202.224 37.9322 202.346 46.4858 201.325 56.5946 191.556 59.219 187.547 55.8413 184.364 50.6654 179.188 49.1102 169.249 48.9887 162.081 57.3236 156.37 64.4434 150.392 72.5596 143.831 82.717 147.185 93.2389 148.74 102.57 158.946 105.219 165.944 109.423 160.914 121.913 155.52 134.622 154.572 148.23 153.454 160.161 156.54 171.898 159.116 183.44 161.522 160.768 173.599 141.183 184.412 121.743 180.281 114.113 174.376 106.628 175.616 97.3213 173.963 79.072 191.338 63.8359 208.931 64.492 220.668 63.6658 230.801 70.3726 238.893 78.1 244.652 71.6119 251.31 65.1238 260.179 63.4228 281.175 57.8096 306.86 74.3821 305.961 97.1269 306.641 107.916 298.646 116.008 292.207 123.59 304.308 140.502 310.821 160.501 312.886 181.059 316.871 168.933 321.197 156.394 320.225 143.418 318.961 128.498 315.219 113.821 309.265 100.091 314.028 97.9774 319.107 98.4634 324.04 99.5812 328.389 97.0297 334.343 95.3044 335.825 89.8369 338.498 81.0889 333.784 71.9278 328.025 65.4883 321.197 58.49 313.032 52.4636 303.652 49.4261 298.889 52.658 295.026 57.0077 290.87 60.9443 283.192 50.1065 284.479 36.7415 286.909 24.4457 272.815 31.1768 264.165 44.3474 254.761 56.1572 251.456 49.9121 248.491 43.4726 244.628 37.5434 239.768 30.2777 232.356 25.3691 225.771 19.8045M240.618 93.0931C236.924 89.9827 233.79 86.2891 230.704 82.5955 224.896 75.5242 215.54 71.9278 206.525 71.8306 193.962 72.754 181.35 83.9077 182.128 97.1026 181.278 106.75 189.126 113.699 193.938 121.111 177.487 143.88 162.275 172.578 170.221 201.398 172.943 214.69 184.437 223.705 196.319 228.735 223.365 239.768 256.024 238.99 280.883 222.83 293.908 213.718 305.718 199.041 303.871 182.201 304.43 160.21 291.915 141.158 284.188 121.378 288.756 113.627 296.241 106.847 296.945 97.3699 297.334 82.0852 282.074 69.3034 267.129 70.8586 253.813 69.8866 244.652 81.7693 240.618 93.0931M10.3761 145.751C25.6607 157.196 46.7288 156.929 60.92 170.075 79.7038 187.061 85.633 215.711 76.7635 239.184 67.165 264.189 44.7605 281.126 32.1974 304.454 14.3127 333.881 8.62648 373.393 27.5318 403.768 30.5936 402.067 33.6068 400.22 36.863 398.835 42.209 401.338 46.8989 405.007 51.8561 408.166 45.8054 396.502 37.6406 385.348 36.3284 371.886 33.5582 348.777 42.8165 326.372 54.9665 307.224 69.838 279.619 92.8258 254.177 94.2838 221.372 96.568 197.048 87.6742 172.651 72.1222 154.135 60.3368 140.405 41.8202 134.087 24.1055 133.747 16.7913 133.066 13.8753 140.891 10.3761 145.751M271.625 236.05C271.163 242.878 270.799 250.532 265.38 255.514 251.626 268.952 228.808 271.017 212.236 261.686 201.349 256.267 194.91 245.551 190.609 234.616 181.278 229.319 173.161 222.199 166.698 213.621 147.598 230.947 129.907 249.803 114.064 270.142 124.1 279.012 134.67 287.225 145.216 295.487 148.764 291.526 152.336 287.59 156.054 283.775 159.286 304.357 153.09 324.793 151.802 345.278 150.319 366.37 146.261 387.122 142.714 407.923 139.433 425.929 141.085 444.592 146.407 462.063 199.964 468.77 255.368 468.746 307.759 454.409 309.849 430.085 312.594 405.809 313.785 381.412 312.57 365.665 310.432 349.895 306.811 334.489 304.478 323.602 297.188 313.348 300.153 301.805 304.478 304.697 308.731 307.734 312.935 310.821 324.161 293.057 337.259 276.509 352.106 261.637 355.727 259.013 351.231 255.222 349.846 252.719 336.724 236.536 322.728 221.032 307.759 206.501 298.185 219.064 286.059 229.489 271.625 236.05M200.888 239.525C206.525 246.717 212.819 254.153 221.81 257.142 237.435 263.824 259.791 257.045 264.286 239.306 254.007 241.323 243.826 244.652 233.255 244.506 222.247 244.579 211.652 241.323 200.888 239.525M318.208 318.718C318.378 321.804 321.221 323.748 323.092 325.887 332.788 334.756 344.063 341.803 353.005 351.499 372.032 371.716 391.326 392.711 402.772 418.348 408.045 429.817 405.469 442.405 404.958 454.458 404.254 461.942 410.936 466.51 415.966 470.641 413.561 467.264 411.082 463.934 408.579 460.654 413.196 455.94 418.445 451.712 424.763 449.549 435.309 445.661 446.511 441.311 457.957 443.158 464.275 444.009 468.551 449.209 473.776 452.368 474.213 447.532 473.703 442.502 470.714 438.492 460.727 422.892 441.02 418.032 429.307 404.084 419.32 391.861 414.047 376.673 408.798 361.996 396.138 327.976 380.318 295.001 359.275 265.331 344.427 282.147 328.487 298.573 318.208 318.718M77.7841 326.275C81.988 326.664 88.5247 324.672 88.8892 330.819 87.8686 338.328 82.1095 343.99 78.1 350.114 62.2322 371.789 57.8339 399.297 56.9105 425.541 57.1292 436.135 49.013 443.814 44.5418 452.659 39.7547 461.067 41.8202 472.391 48.4784 479.171 55.7198 484.832 65.6827 482.524 74.212 483.277 73.2157 475.307 71.1988 466.632 75.2083 459.147 78.829 451.274 87.1882 447.629 94.2109 443.45 98.0017 444.835 101.841 446.195 105.68 447.508 102.667 435.261 89.1565 434.046 79.0234 431.324 80.8216 419.296 87.9415 409.065 91.5865 397.596 97.2241 383.283 98.269 367.245 106.531 354.002 116.737 336.263 129.13 319.933 140.527 302.972 130.782 293.543 119.872 285.451 109.204 277.141 96.9568 292.328 87.7714 309.606 77.7841 326.275M126.165 335.315C116.883 348.777 108.572 363.26 104.417 379.201 100.262 394.996 95.596 410.766 88.2574 425.443 94.4053 427.509 100.456 429.939 106.118 433.098 114.234 438.031 123.978 438.055 133.042 439.853 132.945 428.505 132.265 417.036 134.306 405.785 140.113 370.987 146.48 336.238 150.562 301.173 141.377 311.768 134.209 323.87 126.165 335.315M408.482 340.904C414.654 356.869 421.434 372.591 428.165 388.337 431.397 396.599 437.982 402.723 444.956 407.899 433.997 384.717 423.645 361.292 412.516 338.182 411.495 338.863 409.478 340.223 408.482 340.904M17.0343 430.571C24.227 436.427 31.76 441.846 39.4388 447.046 48.041 439.076 52.0505 427.606 49.742 415.991 46.7045 411.957 42.4034 409.138 38.5883 405.906 29.816 412.589 22.04 420.656 17.0343 430.571M109.787 445.831C112.509 458.175 125.874 463.934 137.416 460.8 137.003 455.745 135.837 450.788 134.889 445.807 126.505 445.758 118.146 445.612 109.787 445.831M419.538 460.047C420.778 463.06 422.066 466.049 423.402 469.037 428.214 466.996 432.952 464.736 437.715 462.549 438.274 464.056 439.367 467.069 439.926 468.576 435.649 471.03 431.348 473.484 427.023 475.866 427.728 477.056 429.137 479.414 429.817 480.604 434.434 478.539 438.857 476.109 443.668 474.529 443.814 483.18 429.769 484.006 434.313 493.167 439.1 490.543 443.936 487.991 449.087 486.12 449.913 493.119 443.28 495.597 438.444 498.708 439.294 500.287 441.02 503.446 441.87 505.026 445.685 502.912 449.573 500.87 453.51 498.999 455.284 505.196 449.598 507.553 445.175 510.08 445.564 511.975 445.953 513.895 446.366 515.791 451.299 514.187 456.304 512.826 461.48 512.121 459.463 517.321 454.895 520.237 450.181 522.74 450.91 524.101 452.416 526.823 453.145 528.184 457.689 526.361 462.525 525.778 467.385 525.997 464.275 529.957 459.828 532.29 455.332 534.331 458.078 542.156 466.267 535.887 472.026 538.414 468.673 540.625 465.271 542.763 461.796 544.829 463.74 549.179 465.757 553.48 467.798 557.781 481.649 552.338 495.403 546.7 509.521 542.034 505.123 530.808 499.85 519.97 494.309 509.254 484.152 489.328 476.498 467.847 462.428 450.181 447.192 445.515 433.025 454.287 419.538 460.047M78.4888 474.359C101.282 492.536 125.558 508.914 148.448 527.041 157.245 523.081 165.021 516.908 170.1 508.646 168.642 505.803 165.799 504.102 163.441 502.134 140.356 484.565 118.073 465.903 94.5268 448.941 85.9246 454.701 77.0065 462.841 78.4888 474.359M257.361 471.783C235.685 475.04 213.694 473.606 191.872 473.849 177.244 474.238 162.785 471.735 148.303 469.937 147.136 472.925 145.97 475.914 144.803 478.903 153.697 485.804 162.785 492.414 171.436 499.631 181.253 507.553 186.162 519.533 192.261 530.225 198.506 517.686 202.151 503.884 209.174 491.758 219.258 490.737 229.464 490.737 239.427 488.696 253.035 527.236 272.062 564.172 298.865 595.251 302.631 600.354 309.727 605.555 305.985 612.65 296.532 641.834 290.652 672.865 294.71 703.556 305.207 703.289 315.778 704.018 326.202 702.609 330.26 700.13 329.799 694.055 331.354 689.973 338.109 662.927 336.068 634.787 340.661 607.474 344.136 611.022 347.611 614.57 351.061 618.166 351.28 610.366 351.596 602.59 352.155 594.838 355.897 597.171 359.591 599.528 363.308 601.885 357.914 573.381 345.885 546.773 330.601 522.279 321.221 503.519 303.992 486.533 305.669 464.129 289.509 466.413 273.569 469.985 257.361 471.783M134.622 469.596C135.715 477.64 141.377 465.125 134.622 469.596M122.375 517.249C114.939 530.565 107.211 543.76 100.529 557.489 93.9922 571.024 90.9061 585.799 86.8237 600.16 90.6388 598.192 94.3567 595.373 98.9008 595.592 99.3139 603.027 98.1718 610.439 97.4914 617.826 101.501 614.035 105.535 610.244 109.641 606.551 113.068 636.027 110.759 666.402 119.143 695.246 120.09 697.506 120.746 701.442 124.076 701.102 134.209 702.074 144.415 701.539 154.572 701.709 154.645 686.522 155.447 671.237 153.26 656.147 150.927 639.356 146.14 623.05 141.037 606.915 155.981 587.475 172.675 569.032 183.003 546.506 171.169 542.715 158.849 540.115 147.525 534.842 138.583 529.836 130.928 522.886 122.375 517.249M176.296 516.082C171.266 521.841 165.847 527.26 159.796 531.95 165.264 533.918 170.804 535.741 176.272 537.685 178.726 535.158 181.156 532.606 183.635 530.103 181.18 525.438 178.726 520.748 176.296 516.082M113.724 707.614C115.085 716.484 114.161 725.402 114.623 734.32 111.464 736.701 108.281 739.666 104.101 739.885 92.5342 741.245 80.773 741.1 69.2791 743.092 60.7013 744.72 53.8001 750.382 47.8952 756.506 48.0167 763.188 49.9607 771.936 58.1255 772.519 82.5469 773.321 107.211 769.628 131.487 774.026 140.186 776.189 148.813 773.37 157.075 770.867 156.613 760.224 152.798 749.41 155.981 738.888 158.727 729.193 162.129 719.497 161.157 709.267 145.314 709.34 129.543 707.08 113.724 707.614M287.857 710.992C285.913 720.518 289.534 729.63 291.697 738.743 294.612 750.163 291.186 761.925 292.936 773.419 308.099 780.15 324.501 773.905 340.151 773.273 357.185 771.596 374.17 776.65 391.156 774.318 398.713 773.297 400.463 765.132 401.994 759.009 394.777 752.326 387.025 745.109 376.771 743.991 362.579 740.784 346.371 745.789 333.881 736.531 334.319 727.176 334.416 717.82 335.485 708.538 319.593 709.267 303.725 709.826 287.857 710.992Z" transform="matrix(1.00092 0 0 1 94.2519 253.822)"/><path d="M208.542 89.7397C221.105 90.9547 220.741 106.555 218.967 115.886 217.533 117.296 214.641 120.115 213.208 121.524 203.196 116.688 203.463 105.34 204.12 95.8633 205.237 94.3324 207.449 91.2706 208.542 89.7397Z" transform="matrix(1.00092 0 0 1 94.2519 253.822)"/><path d="M262.901 89.3995C266.182 85.5358 273.812 89.6911 273.229 94.8913 274.103 102.667 275.391 112.582 268.709 118.244 265.161 121.816 260.811 117.539 259.596 113.991 255.976 106.021 257.944 96.3736 262.901 89.3995Z" transform="matrix(1.00092 0 0 1 94.2519 253.822)"/><path d="M243.145 144.074C240.011 136.007 252.501 129.81 257.191 136.614 264.796 144.001 255.611 159.699 245.478 155.665 244.142 153.673 242.902 151.632 241.76 149.518 244.19 149.372 249.05 149.056 251.48 148.886 251.602 147.136 251.869 143.613 251.99 141.839 249.779 142.398 245.357 143.515 243.145 144.074Z" transform="matrix(1.00092 0 0 1 94.2519 253.822)"/><path d="M220.473 137.878C224.993 133.893 230.023 138.826 233.96 140.988 229.319 143.345 224.118 145.411 221.445 150.247 225.26 149.906 229.1 149.493 232.939 149.129 232.04 152.361 232.478 156.88 228.444 158.071 225.528 158.363 222.587 158.509 219.647 158.46 217.946 156.273 216.221 154.086 214.471 151.923 214.714 146.699 214.933 140.381 220.473 137.878Z" transform="matrix(1.00092 0 0 1 94.2519 253.822)"/><path d="M253.594 182.881C260.374 181.593 265.72 176.272 272.5 175.373 272.961 176.758 273.86 179.479 274.322 180.84 268.927 184.874 262.731 187.668 257.482 191.848 251.917 199.211 248.71 210.462 238.285 212.211 228.638 213.767 222.077 205.213 216.124 199.089 210.073 191.046 198.944 190.147 192.358 182.614 193.5 181.205 195.785 178.41 196.902 177.025 213.11 189.151 235.005 187.377 253.594 182.881M219.769 194.715C224.094 198.531 227.496 204.435 233.352 205.845 241.493 207.619 244.482 197.899 248.856 193.16 239.184 194.011 229.464 194.472 219.769 194.715Z" transform="matrix(1.00092 0 0 1 94.2519 253.822)"/><path d="M225.771 19.8045C232.356 25.3691 239.768 30.2777 244.628 37.5434 248.491 43.4726 251.456 49.9121 254.761 56.1572 264.165 44.3474 272.815 31.1768 286.909 24.4457 284.479 36.7415 283.192 50.1065 290.87 60.9443 295.026 57.0077 298.889 52.658 303.652 49.4261 313.032 52.4636 321.197 58.49 328.025 65.4883 333.784 71.9278 338.498 81.0889 335.825 89.8369 334.343 95.3044 328.389 97.0297 324.04 99.5812 319.107 98.4634 314.028 97.9774 309.265 100.091 315.219 113.821 318.961 128.498 320.225 143.418 321.197 156.394 316.871 168.933 312.886 181.059 310.821 160.501 304.308 140.502 292.207 123.59 298.646 116.008 306.641 107.916 305.961 97.1269 306.86 74.3821 281.175 57.8096 260.179 63.4228 251.31 65.1238 244.652 71.6119 238.893 78.1 230.801 70.3726 220.668 63.6658 208.931 64.492 191.338 63.8359 173.963 79.072 175.616 97.3213 174.376 106.628 180.281 114.113 184.412 121.743 173.599 141.183 161.522 160.768 159.116 183.44 156.54 171.898 153.454 160.161 154.572 148.23 155.52 134.622 160.914 121.913 165.944 109.423 158.946 105.219 148.74 102.57 147.185 93.2389 143.831 82.717 150.392 72.5596 156.37 64.4434 162.081 57.3236 169.249 48.9887 179.188 49.1102 184.364 50.6654 187.547 55.8413 191.556 59.219 201.325 56.5946 202.346 46.4858 202.224 37.9322 206.841 39.8519 211.798 41.1884 215.856 44.2016 220.23 48.1382 223.632 53.1197 228.371 56.7161 233.012 44.6633 229.877 31.517 225.771 19.8045Z" fill="#764D2A" transform="matrix(1.00092 0 0 1 94.2519 253.822)"/><path d="M10.3761 145.751C13.8753 140.891 16.7913 133.066 24.1055 133.747 41.8202 134.087 60.3368 140.405 72.1222 154.135 87.6742 172.651 96.568 197.048 94.2838 221.372 92.8258 254.177 69.838 279.619 54.9665 307.224 42.8165 326.372 33.5582 348.777 36.3284 371.886 37.6406 385.348 45.8054 396.502 51.8561 408.166 46.8989 405.007 42.209 401.338 36.863 398.835 33.6068 400.22 30.5936 402.067 27.5318 403.768 8.62648 373.393 14.3127 333.881 32.1974 304.454 44.7605 281.126 67.165 264.189 76.7635 239.184 85.633 215.711 79.7038 187.061 60.92 170.075 46.7288 156.929 25.6607 157.196 10.3761 145.751Z" fill="#764D2A" transform="matrix(1.00092 0 0 1 94.2519 253.822)"/><path d="M200.888 239.525C211.652 241.323 222.247 244.579 233.255 244.506 243.826 244.652 254.007 241.323 264.286 239.306 259.791 257.045 237.435 263.824 221.81 257.142 212.819 254.153 206.525 246.717 200.888 239.525Z" fill="#764D2A" transform="matrix(1.00092 0 0 1 94.2519 253.822)"/><path d="M318.208 318.718C328.487 298.573 344.427 282.147 359.275 265.331 380.318 295.001 396.138 327.976 408.798 361.996 414.047 376.673 419.32 391.861 429.307 404.084 441.02 418.032 460.727 422.892 470.714 438.492 473.703 442.502 474.213 447.532 473.776 452.368 468.551 449.209 464.275 444.009 457.957 443.158 446.511 441.311 435.309 445.661 424.763 449.549 418.445 451.712 413.196 455.94 408.579 460.654 411.082 463.934 413.561 467.264 415.966 470.641 410.936 466.51 404.254 461.942 404.958 454.458 405.469 442.405 408.045 429.817 402.772 418.348 391.326 392.711 372.032 371.716 353.005 351.499 344.063 341.803 332.788 334.756 323.092 325.887 321.221 323.748 318.378 321.804 318.208 318.718Z" fill="#764D2A" transform="matrix(1.00092 0 0 1 94.2519 253.822)"/><path d="M77.7841 326.275C87.7714 309.606 96.9568 292.328 109.204 277.141 119.872 285.451 130.782 293.543 140.527 302.972 129.13 319.933 116.737 336.263 106.531 354.002 98.269 367.245 97.2241 383.283 91.5865 397.596 87.9415 409.065 80.8216 419.296 79.0234 431.324 89.1565 434.046 102.667 435.261 105.68 447.508 101.841 446.195 98.0017 444.835 94.2109 443.45 87.1882 447.629 78.829 451.274 75.2083 459.147 71.1988 466.632 73.2157 475.307 74.212 483.277 65.6827 482.524 55.7198 484.832 48.4784 479.171 41.8202 472.391 39.7547 461.067 44.5418 452.659 49.013 443.814 57.1292 436.135 56.9105 425.541 57.8339 399.297 62.2322 371.789 78.1 350.114 82.1095 343.99 87.8686 338.328 88.8892 330.819 88.5247 324.672 81.988 326.664 77.7841 326.275Z" fill="#764D2A" transform="matrix(1.00092 0 0 1 94.2519 253.822)"/><path d="M109.787 445.831C118.146 445.612 126.505 445.758 134.889 445.807 135.837 450.788 137.003 455.745 137.416 460.8 125.874 463.934 112.509 458.175 109.787 445.831Z" fill="#764D2A" transform="matrix(1.00092 0 0 1 94.2519 253.822)"/><path d="M257.361 471.783C273.569 469.985 289.509 466.413 305.669 464.129 303.992 486.533 321.221 503.519 330.601 522.279 345.885 546.773 357.914 573.381 363.308 601.885 359.591 599.528 355.897 597.171 352.155 594.838 351.596 602.59 351.28 610.366 351.061 618.166 347.611 614.57 344.136 611.022 340.661 607.474 336.068 634.787 338.109 662.927 331.354 689.973 329.799 694.055 330.26 700.13 326.202 702.609 315.778 704.018 305.207 703.289 294.71 703.556 290.652 672.865 296.532 641.834 305.985 612.65 309.727 605.555 302.631 600.354 298.865 595.251 272.062 564.172 253.035 527.236 239.427 488.696 229.464 490.737 219.258 490.737 209.174 491.758 202.151 503.884 198.506 517.686 192.261 530.225 186.162 519.533 181.253 507.553 171.436 499.631 162.785 492.414 153.697 485.804 144.803 478.903 145.97 475.914 147.136 472.925 148.303 469.937 162.785 471.735 177.244 474.238 191.872 473.849 213.694 473.606 235.685 475.04 257.361 471.783Z" fill="#764D2A" transform="matrix(1.00092 0 0 1 94.2519 253.822)"/><path d="M122.375 517.249C130.928 522.886 138.583 529.836 147.525 534.842 158.849 540.115 171.169 542.715 183.003 546.506 172.675 569.032 155.981 587.475 141.037 606.915 146.14 623.05 150.927 639.356 153.26 656.147 155.447 671.237 154.645 686.522 154.572 701.709 144.415 701.539 134.209 702.074 124.076 701.102 120.746 701.442 120.09 697.506 119.143 695.246 110.759 666.402 113.068 636.027 109.641 606.551 105.535 610.244 101.501 614.035 97.4914 617.826 98.1718 610.439 99.3139 603.027 98.9008 595.592 94.3567 595.373 90.6388 598.192 86.8237 600.16 90.9061 585.799 93.9922 571.024 100.529 557.489 107.211 543.76 114.939 530.565 122.375 517.249Z" fill="#764D2A" transform="matrix(1.00092 0 0 1 94.2519 253.822)"/><path d="M240.618 93.0931C244.652 81.7693 253.813 69.8866 267.129 70.8586 282.074 69.3034 297.334 82.0852 296.945 97.3699 296.241 106.847 288.756 113.627 284.188 121.378 291.915 141.158 304.43 160.21 303.871 182.201 305.718 199.041 293.908 213.718 280.883 222.83 256.024 238.99 223.365 239.768 196.319 228.735 184.437 223.705 172.943 214.69 170.221 201.398 162.275 172.578 177.487 143.88 193.938 121.111 189.126 113.699 181.278 106.75 182.128 97.1026 181.35 83.9077 193.962 72.754 206.525 71.8306 215.54 71.9278 224.896 75.5242 230.704 82.5955 233.79 86.2891 236.924 89.9827 240.618 93.0931M208.542 89.7397C207.449 91.2706 205.237 94.3324 204.12 95.8633 203.463 105.34 203.196 116.688 213.208 121.524 214.641 120.115 217.533 117.296 218.967 115.886 220.741 106.555 221.105 90.9547 208.542 89.7397M262.901 89.3995C257.944 96.3736 255.976 106.021 259.596 113.991 260.811 117.539 265.161 121.816 268.709 118.244 275.391 112.582 274.103 102.667 273.229 94.8913 273.812 89.6911 266.182 85.5358 262.901 89.3995M243.145 144.074C245.357 143.515 249.779 142.398 251.99 141.839 251.869 143.613 251.602 147.136 251.48 148.886 249.05 149.056 244.19 149.372 241.76 149.518 242.902 151.632 244.142 153.673 245.478 155.665 255.611 159.699 264.796 144.001 257.191 136.614 252.501 129.81 240.011 136.007 243.145 144.074M220.473 137.878C214.933 140.381 214.714 146.699 214.471 151.923 216.221 154.086 217.946 156.273 219.647 158.46 222.587 158.509 225.528 158.363 228.444 158.071 232.478 156.88 232.04 152.361 232.939 149.129 229.1 149.493 225.26 149.906 221.445 150.247 224.118 145.411 229.319 143.345 233.96 140.988 230.023 138.826 224.993 133.893 220.473 137.878M253.594 182.881C235.005 187.377 213.11 189.151 196.902 177.025 195.785 178.41 193.5 181.205 192.358 182.614 198.944 190.147 210.073 191.046 216.124 199.089 222.077 205.213 228.638 213.767 238.285 212.211 248.71 210.462 251.917 199.211 257.482 191.848 262.731 187.668 268.927 184.874 274.322 180.84 273.86 179.479 272.961 176.758 272.5 175.373 265.72 176.272 260.374 181.593 253.594 182.881Z" fill="#EBE971" transform="matrix(1.00092 0 0 1 94.2519 253.822)"/><path d="M408.482 340.904C409.478 340.223 411.495 338.863 412.516 338.182 423.645 361.292 433.997 384.717 444.956 407.899 437.982 402.723 431.397 396.599 428.165 388.337 421.434 372.591 414.654 356.869 408.482 340.904Z" fill="#EBE971" transform="matrix(1.00092 0 0 1 94.2519 253.822)"/><path d="M419.538 460.047C433.025 454.287 447.192 445.515 462.428 450.181 476.498 467.847 484.152 489.328 494.309 509.254 499.85 519.97 505.123 530.808 509.521 542.034 495.403 546.7 481.649 552.338 467.798 557.781 465.757 553.48 463.74 549.179 461.796 544.829 465.271 542.763 468.673 540.625 472.026 538.414 466.267 535.887 458.078 542.156 455.332 534.331 459.828 532.29 464.275 529.957 467.385 525.997 462.525 525.778 457.689 526.361 453.145 528.184 452.416 526.823 450.91 524.101 450.181 522.74 454.895 520.237 459.463 517.321 461.48 512.121 456.304 512.826 451.299 514.187 446.366 515.791 445.953 513.895 445.564 511.975 445.175 510.08 449.598 507.553 455.284 505.196 453.51 498.999 449.573 500.87 445.685 502.912 441.87 505.026 441.02 503.446 439.294 500.287 438.444 498.708 443.28 495.597 449.913 493.119 449.087 486.12 443.936 487.991 439.1 490.543 434.313 493.167 429.769 484.006 443.814 483.18 443.668 474.529 438.857 476.109 434.434 478.539 429.817 480.604 429.137 479.414 427.728 477.056 427.023 475.866 431.348 473.484 435.649 471.03 439.926 468.576 439.367 467.069 438.274 464.056 437.715 462.549 432.952 464.736 428.214 466.996 423.402 469.037 422.066 466.049 420.778 463.06 419.538 460.047Z" fill="#EBE971" transform="matrix(1.00092 0 0 1 94.2519 253.822)"/><path d="M219.769 194.715C229.464 194.472 239.184 194.011 248.856 193.16 244.482 197.899 241.493 207.619 233.352 205.845 227.496 204.435 224.094 198.531 219.769 194.715Z" fill="#6D0C0D" transform="matrix(1.00092 0 0 1 94.2519 253.822)"/><path d="M287.857 710.992C303.725 709.826 319.593 709.267 335.485 708.538 334.416 717.82 334.319 727.176 333.881 736.531 346.371 745.789 362.579 740.784 376.771 743.991 387.025 745.109 394.777 752.326 401.994 759.009 400.463 765.132 398.713 773.297 391.156 774.318 374.17 776.65 357.185 771.596 340.151 773.273 324.501 773.905 308.099 780.15 292.936 773.419 291.186 761.925 294.612 750.163 291.697 738.743 289.534 729.63 285.913 720.518 287.857 710.992Z" fill="#6D0C0D" transform="matrix(1.00092 0 0 1 94.2519 253.822)"/><path d="M271.625 236.05C286.059 229.489 298.185 219.064 307.759 206.501 322.728 221.032 336.724 236.536 349.846 252.719 351.231 255.222 355.727 259.013 352.106 261.637 337.259 276.509 324.161 293.057 312.935 310.821 308.731 307.734 304.478 304.697 300.153 301.805 297.188 313.348 304.478 323.602 306.811 334.489 310.432 349.895 312.57 365.665 313.785 381.412 312.594 405.809 309.849 430.085 307.759 454.409 255.368 468.746 199.964 468.77 146.407 462.063 141.085 444.592 139.433 425.929 142.714 407.923 146.261 387.122 150.319 366.37 151.802 345.278 153.09 324.793 159.286 304.357 156.054 283.775 152.336 287.59 148.764 291.526 145.216 295.487 134.67 287.225 124.1 279.012 114.064 270.142 129.907 249.803 147.598 230.947 166.698 213.621 173.161 222.199 181.278 229.319 190.609 234.616 194.91 245.551 201.349 256.267 212.236 261.686 228.808 271.017 251.626 268.952 265.38 255.514 270.799 250.532 271.163 242.878 271.625 236.05M231.846 284.236C211.434 288.124 196.951 305.766 189.831 324.307 193.16 325.643 196.514 326.907 199.891 328.098 205.505 317.576 211.604 306.471 222.247 300.226 231.992 294.442 245.624 291.283 255.222 299.132 263.071 304.989 263.654 315.948 261.176 324.672 256.486 340.661 245.915 353.929 235.053 366.2 213.013 392.104 189.88 417.011 166.625 441.797 167.281 443.474 168.569 446.852 169.225 448.528 196.149 445.272 223.171 443.28 250.241 441.919 257.774 442.186 265.282 443.814 272.864 443.377 274.468 440.291 275.756 437.059 276.703 433.705 257.871 428.141 238.115 431.057 218.894 432.223 208.566 432.612 198.36 434.167 188.082 435.236 211.069 412.103 231.992 387.049 253.035 362.166 266.206 346.031 278.04 325.376 272.257 303.846 267.081 287.395 247.665 280.081 231.846 284.236Z" fill="#7BB634" transform="matrix(1.00092 0 0 1 94.2519 253.822)"/><path d="M231.846 284.236C247.665 280.081 267.081 287.395 272.257 303.846 278.04 325.376 266.206 346.031 253.035 362.166 231.992 387.049 211.069 412.103 188.082 435.236 198.36 434.167 208.566 432.612 218.894 432.223 238.115 431.057 257.871 428.141 276.703 433.705 275.756 437.059 274.468 440.291 272.864 443.377 265.282 443.814 257.774 442.186 250.241 441.919 223.171 443.28 196.149 445.272 169.225 448.528 168.569 446.852 167.281 443.474 166.625 441.797 189.88 417.011 213.013 392.104 235.053 366.2 245.915 353.929 256.486 340.661 261.176 324.672 263.654 315.948 263.071 304.989 255.222 299.132 245.624 291.283 231.992 294.442 222.247 300.226 211.604 306.471 205.505 317.576 199.891 328.098 196.514 326.907 193.16 325.643 189.831 324.307 196.951 305.766 211.434 288.124 231.846 284.236Z" fill="#FFFFFF" transform="matrix(1.00092 0 0 1 94.2519 253.822)"/><path d="M176.296 516.082C178.726 520.748 181.18 525.438 183.635 530.103 181.156 532.606 178.726 535.158 176.272 537.685 170.804 535.741 165.264 533.918 159.796 531.95 165.847 527.26 171.266 521.841 176.296 516.082Z" fill="#FFFFFF" transform="matrix(1.00092 0 0 1 94.2519 253.822)"/><path d="M17.0343 430.571C22.04 420.656 29.816 412.589 38.5883 405.906 42.4034 409.138 46.7045 411.957 49.742 415.991 52.0505 427.606 48.041 439.076 39.4388 447.046 31.76 441.846 24.227 436.427 17.0343 430.571Z" fill="#5788CA" transform="matrix(1.00092 0 0 1 94.2519 253.822)"/><path d="M78.4888 474.359C77.0065 462.841 85.9246 454.701 94.5268 448.941 118.073 465.903 140.356 484.565 163.441 502.134 165.799 504.102 168.642 505.803 170.1 508.646 165.021 516.908 157.245 523.081 148.448 527.041 125.558 508.914 101.282 492.536 78.4888 474.359Z" fill="#5788CA" transform="matrix(1.00092 0 0 1 94.2519 253.822)"/><path d="M113.724 707.614C129.543 707.08 145.314 709.34 161.157 709.267 162.129 719.497 158.727 729.193 155.981 738.888 152.798 749.41 156.613 760.224 157.075 770.867 148.813 773.37 140.186 776.189 131.487 774.026 107.211 769.628 82.5469 773.321 58.1255 772.519 49.9607 771.936 48.0167 763.188 47.8952 756.506 53.8001 750.382 60.7013 744.72 69.2791 743.092 80.773 741.1 92.5342 741.245 104.101 739.885 108.281 739.666 111.464 736.701 114.623 734.32 114.161 725.402 115.085 716.484 113.724 707.614Z" fill="#5788CA" transform="matrix(1.00092 0 0 1 94.2519 253.822)"/></g></g></g></svg>