<svg width="605" height="232" xmlns="http://www.w3.org/2000/svg" xmlns:xlink="http://www.w3.org/1999/xlink" xml:space="preserve" overflow="hidden"><defs><clipPath id="clip0"><rect x="0" y="0" width="605" height="232"/></clipPath><clipPath id="clip1"><rect x="373" y="119" width="195" height="90"/></clipPath><clipPath id="clip2"><rect x="373" y="119" width="195" height="90"/></clipPath><clipPath id="clip3"><rect x="373" y="119" width="195" height="90"/></clipPath></defs><g clip-path="url(#clip0)"><path d="M222.794 12.4712C228.454 11.3559 234.175 10.3323 239.966 10.3281 243.634 10.4023 246.627 12.8868 250.092 13.7659 256.761 15.2924 263.596 15.966 270.427 16.2023 271.95 16.2547 273.49 16.3509 274.97 16.7708 280.678 18.3367 286.355 20.0689 292.185 21.1098 296.971 21.7266 301.718 20.3662 306.5 20.375 310.567 20.4887 314.606 21.158 318.683 21.1185 325.217 21.0661 331.527 19.1634 337.939 18.1311 341.659 17.6107 345.423 17.44 349.182 17.4838 351.588 17.4707 353.668 19.1634 356.096 19.0235 362.756 18.4417 369.587 17.0246 376.2 18.7304 378.206 19.1372 380.156 19.8633 382.201 20.0558 384.18 19.7976 385.303 17.3963 387.4 17.5232 391.468 17.7244 395.445 18.7566 399.317 19.9901 401.866 20.8036 404.338 21.9277 407.004 22.3126 410.464 22.9119 413.984 22.7545 417.477 22.8069 419.683 22.7414 421.58 24.0185 423.565 24.7971 428.502 27.0584 434.019 27.8238 438.749 30.5838 441.151 31.7604 443.609 33.7593 446.454 33.0595 451.941 31.673 457.432 29.9409 463.14 29.8884 467.203 29.7571 470.984 31.5111 474.909 32.2679 477.463 32.2066 480.077 31.4761 482.176 29.9715 483.332 29.1711 484.102 27.9157 485.316 27.1941 489.963 27.5003 494.561 28.7993 499.242 28.5412 503.647 27.5789 507.445 24.9764 511.448 23.0169 511.686 24.0666 511.926 25.1163 512.169 26.1705 513.789 25.4444 515.341 24.4953 517.1 24.1322 519.575 24.8234 521.493 26.7216 523.883 27.6489 524.274 27.872 524.692 27.9026 525.127 27.7407 527.319 27.1546 529.276 25.9343 531.44 25.2564 534.107 24.4166 536.839 23.7954 539.506 22.9425 540.428 22.6188 541.399 22.8901 542.33 23.0651 544.649 23.603 547.064 23.4324 549.4 23.8873 552.633 24.3729 555.765 25.3264 558.928 26.1268 565.036 27.6051 571.367 26.8922 577.585 27.1809 576.301 29.3548 574.248 31.5242 574.727 34.2623 575.297 36.1081 576.705 37.5078 577.746 39.0956 579.808 42.2798 581.592 45.6522 583.872 48.6965 586.421 52.1212 586.4 56.6089 586.508 60.6899 586.569 64.3202 588.066 67.7494 590.146 70.6581 588.041 73.2781 586.957 76.5193 586.078 79.7214 585.333 82.4548 583.897 84.9526 581.992 87.034 583.158 87.4412 584.328 87.8608 585.465 88.3554 584.407 88.4254 583.355 88.4774 582.306 88.5433 580.94 91.609 579.582 94.711 579.008 98.0478 582.327 97.7552 585.642 97.2952 588.98 97.1732 585.969 98.127 582.545 98.3281 580.016 100.405 579.508 101.923 580.495 103.375 581.431 104.482 582.876 106.266 584.821 107.867 585.256 110.246 585.699 112.517 586.138 114.8 586.343 117.11 585.926 119.764 584.363 122.096 584.125 124.8 586.426 124.367 588.732 123.947 591.068 123.701 589.963 125.613 588.884 127.56 587.439 129.235 586.426 130.393 585.438 131.579 584.663 132.913 585.068 134.247 585.833 135.41 586.657 136.526 585.391 137.668 583.846 138.722 583.355 140.449 582.792 142.519 582.845 144.801 581.697 146.677 580.613 148.327 578.946 149.503 577.946 151.218 577.238 152.315 577.019 153.623 576.71 154.875 574.839 155.024 572.969 155.194 571.107 155.356 570.806 156.851 570.176 158.392 570.562 159.922 571.694 163.071 575.092 164.707 576.189 167.882 576.971 170.2 577.741 172.532 578.294 174.916 578.841 176.849 577.811 178.822 578.264 180.759 579.146 182.907 581.218 184.293 582.097 186.441 582.467 188.641 581.84 190.92 582.419 193.098 583.076 194.831 584.772 195.771 586.191 196.807 585.487 198.339 584.79 200.049 585.251 201.759 585.821 203.933 586.517 206.299 588.379 207.73 591.573 210.1 595.729 210.826 598.721 213.521 600.162 214.833 601.815 215.874 603.528 216.797 602.407 216.754 601.292 216.688 600.187 216.648 600.822 217.876 601.615 219.05 602.011 220.397 602.271 222.159 601.045 223.817 601.31 225.575 602.323 227.67 604.229 229.166 605.199 231.296 604.464 233.405 602.903 235.062 602.028 237.096 601.432 238.453 601.676 239.97 601.676 241.409 597.507 240.407 593.357 239.353 589.214 238.264 587.914 237.796 586.608 238.374 585.326 238.557 584.376 238.767 583.502 238.22 582.615 238.001 579.674 237.075 576.602 237.915 573.612 237.967 572.228 237.958 571.076 237.005 569.732 236.847 567.705 236.886 565.72 237.875 563.692 237.354 559.668 236.405 555.622 235.522 551.706 234.187 550.645 233.864 549.482 233.309 548.412 233.89 546.085 234.966 544.056 236.598 541.738 237.682 540.428 238.308 538.949 238.177 537.548 238.203 533.681 238.194 529.83 238.767 526.101 239.773 524.204 240.333 522.294 239.52 520.423 239.235 519.906 240.028 519.397 240.823 518.896 241.624 516.834 241.466 514.771 241.265 512.71 241.339 511.286 241.4 509.911 242.28 508.488 241.798 505.595 241.089 502.711 240.18 499.708 240.175 496.228 240.18 492.756 240.491 489.284 240.753 485.894 241.05 482.483 241.173 479.138 241.834 477.202 242.126 475.191 242.621 473.255 242.1 469.217 241.125 465.097 240.446 460.942 240.311 457.732 240.202 455.339 237.639 452.306 236.97 451.076 237.144 449.909 237.608 448.691 237.822 446.15 238.283 443.574 237.845 441.019 237.931 438.879 238.137 436.983 239.292 434.872 239.615 432.997 239.48 431.44 238.217 429.591 237.967 428.241 238.072 427.08 239.026 425.723 238.999 420.893 237.626 416.381 235.277 411.556 233.899 410.22 235.421 409.019 237.053 407.91 238.75 405.56 237.59 403.424 235.92 400.901 235.181 396.719 234.927 392.469 235.854 388.775 237.848 387.234 236.589 385.659 235.36 383.914 234.407 382.171 233.457 380.142 233.501 378.224 233.343 374.465 233.13 370.71 232.889 366.956 232.704 364.567 232.53 362.565 234.638 360.168 234.13 355.412 232.99 350.766 231.436 346.236 229.612 346.676 230.741 347.163 231.857 347.625 232.98 343.656 233.514 339.666 234.376 335.647 233.99 329.821 233.304 324.139 231.607 318.259 231.38 315.519 231.581 313.308 233.501 310.66 234.078 303.654 235.845 296.585 233.396 289.549 233.204 286.35 233.024 283.628 235.378 280.426 235.159 277.371 235.04 274.325 234.809 271.275 234.753 267.624 234.683 264.027 235.5 260.381 235.412 256.391 235.176 252.584 233.803 248.651 233.243 243.761 233.291 239.275 235.836 234.397 236.016 231.213 235.819 228.115 234.927 224.934 234.695 222.163 234.402 219.287 234.744 216.647 233.676 214.518 233.139 212.412 231.686 210.155 232.346 204.172 233.899 198.303 236.173 192.081 236.571 187.604 236.804 183.123 236.987 178.646 237.206 171.797 237.691 164.879 236.077 158.083 237.468 157.291 237.538 156.391 237.931 155.682 237.403 154.12 236.48 152.649 235.412 151.148 234.397 150.909 235.198 150.665 235.999 150.426 236.8 147.994 236.073 145.574 235.317 143.138 234.617 143.111 235.841 143.095 237.066 143.068 238.295 137.725 237.433 132.392 236.484 127.066 235.504 123.559 234.765 120.287 236.877 116.807 236.79 113.583 236.353 110.52 235.193 107.461 234.126 106.256 233.719 105.064 233.142 103.763 233.191 96.5533 232.972 89.7705 235.784 82.9827 237.827 81.7216 236.856 80.4466 235.658 78.7763 235.565 75.0684 235.228 71.3572 234.931 67.6681 234.468 66.0749 234.332 64.4743 233.96 62.8819 234.196 60.8763 234.783 59.2224 236.213 57.1823 236.699 54.1967 236.173 51.3785 234.984 48.4848 234.109 47.0449 235.106 45.587 236.423 43.7249 236.374 38.3688 236.489 32.8569 236.606 27.7969 238.584 26.826 238.916 25.7822 239.305 24.7425 239.033 20.7134 238.094 16.7672 236.776 12.6643 236.191 10.5367 235.85 8.37874 235.841 6.24672 235.609 8.60932 235.403 10.9762 235.256 13.3431 235.071 12.6383 233.838 11.7463 232.666 11.4286 231.261 11.6723 229.621 12.4294 228.095 12.5513 226.433 12.7166 224.395 12.4729 222.278 13.2386 220.33 13.6868 218.817 14.7092 217.331 14.3264 215.691 14.0262 214.339 13.5258 213.044 13.2996 211.68 14.7745 209.969 16.4147 208.412 17.9637 206.772 17.0282 204.798 15.6882 202.897 15.5489 200.653 15.5142 197.634 17.9115 195.404 18.6207 192.604 19.0253 190.063 18.4032 187.469 18.8469 184.932 19.2254 182.776 20.7787 180.983 20.9093 178.77 21.031 175.7 20.4784 172.532 21.5183 169.557 22.9065 165.587 24.9204 161.868 26.4259 157.941 27.901 154.188 30.142 150.759 31.3556 146.909 29.8542 145.081 27.6788 144.018 26.1044 142.282 25.5821 141.761 25.6428 140.975 25.5862 140.301 25.5518 137.073 26.9613 133.946 26.4521 130.709 26.1126 128.224 25.7781 125.735 25.7125 123.224 25.7084 121.737 26.3914 120.355 26.4652 118.877 25.5428 117.044 23.6503 116.012 22.0538 114.844 22.2489 114.022 22.4408 113.2 22.6368 112.377 21.8012 111.984 20.9658 111.589 20.1347 111.191 21.7405 110.178 23.9807 109.617 24.6728 107.636 25.5296 104.202 26.0044 100.686 26.5784 97.1947 27.1007 93.8661 30.242 91.3733 29.9198 87.8476 29.4499 84.2569 28.6841 80.6265 29.1539 76.9917 29.6672 74.3323 31.2777 71.7998 30.8078 69.0092 30.0239 64.622 26.7006 61.3154 25.2385 57.2082 25.2336 54.8157 27.4574 53.0617 27.3574 50.6516 27.1876 48.5609 25.7125 46.9425 24.8204 45.1317 23.5461 42.8223 23.2149 40.0491 21.5142 37.9715 20.2652 36.1694 18.4814 34.6429 17.8767 32.4647 17.1543 28.8212 18.3466 25.1164 20.0216 21.9059 20.8223 23.24 21.488 24.9196 23.1411 25.3701 26.9179 26.6779 30.8029 27.6489 34.6272 28.8168 35.9933 27.3646 37.3381 25.8469 38.9829 24.7053 42.8811 24.7271 46.7096 26.4155 50.6602 25.895 53.3407 25.5189 55.972 24.6833 58.3442 23.3581 60.0719 22.3915 61.2764 20.7731 62.608 19.3515 62.9778 20.5544 63.3083 21.7747 63.674 22.9819 65.7625 22.9687 68.1461 23.6773 69.9952 22.3784 71.5704 20.9305 72.82 19.1635 74.2508 17.5801 76.605 18.4856 78.9321 19.8589 81.5388 19.6795 83.8052 19.544 86.0716 19.4477 88.3347 19.2466 90.4494 19.0497 91.1759 16.2592 93.3513 16.1673 97.1667 15.7343 100.918 14.8464 104.59 13.7178 105.908 15.2576 107.27 16.7621 108.705 18.1924 111.211 17.5757 113.309 15.7168 115.94 15.568 118.865 15.7037 121.805 16.9722 124.734 16.1323 130.403 14.5358 136.115 12.8343 142.032 12.5849 148.363 12.2745 154.507 14.1203 160.751 14.807 163.169 15.1175 164.753 12.4231 167.164 12.655 173.172 13.1056 179.203 13.5779 185.229 13.1842 185.52 13.801 185.811 14.4177 186.103 15.0389 188.335 14.5751 190.558 13.9015 192.855 13.8665 194.548 14.8202 196.023 16.2023 197.916 16.7797 200.078 17.4313 202.484 18.4461 204.69 17.3614 206.948 16.6003 209.092 14.6539 211.603 15.3755 213.557 15.7561 215.472 16.3247 217.403 16.8146 217.825 15.7692 218.043 14.562 218.856 13.7354 220.058 13.0312 221.458 12.7905 222.794 12.4713Z" fill="#E8E8E9" transform="matrix(1.00996 0 0 1 -6.26953 -10.328)"/><path d="M284.746 16.9204C290.431 15.8061 296.177 14.7835 301.993 14.7792 305.678 14.8534 308.684 17.3356 312.163 18.2139 318.861 19.739 325.727 20.412 332.589 20.648 334.117 20.7004 335.665 20.7965 337.15 21.216 342.883 22.7805 348.587 24.511 354.441 25.5511 359.248 26.1673 364.015 24.8081 368.819 24.8169 372.903 24.9306 376.96 25.5992 381.054 25.5597 387.618 25.5073 393.956 23.6064 400.396 22.5751 404.131 22.0551 407.913 21.8846 411.688 21.9283 414.103 21.9152 416.193 23.6064 418.63 23.4666 425.323 22.8854 432.183 21.4695 438.826 23.1738 440.841 23.5802 442.799 24.3056 444.852 24.4979 446.84 24.24 447.967 21.8409 450.073 21.9677 454.16 22.1687 458.155 23.2 462.042 24.4323 464.605 25.2451 467.085 26.3683 469.763 26.7527 473.239 27.3514 476.774 27.1941 480.283 27.2465 482.498 27.1811 484.403 28.4571 486.397 29.2349 491.355 31.4942 496.898 32.2589 501.649 35.0164 504.06 36.1919 506.528 38.1889 509.386 37.4897 514.896 36.1045 520.412 34.374 526.146 34.3215 530.226 34.1904 534.024 35.9429 537.967 36.6989 540.533 36.6378 543.158 35.9077 545.264 34.4046 546.427 33.6049 547.199 32.3507 548.418 31.6297 553.087 31.9356 557.703 33.2333 562.408 32.9757 566.83 32.0142 570.645 29.4141 574.666 27.4564 574.906 28.5052 575.146 29.5539 575.389 30.6071 577.015 29.8817 578.576 28.9334 580.34 28.5707 582.827 29.2612 584.756 31.1577 587.154 32.0841 587.549 32.307 587.966 32.3376 588.403 32.1759 590.607 31.5903 592.572 30.3711 594.744 29.6938 597.425 28.8548 600.168 28.2341 602.846 27.382 603.772 27.0586 604.748 27.3297 605.681 27.5045 608.011 28.042 610.439 27.8714 612.785 28.326 616.031 28.8111 619.175 29.7637 622.355 30.5634 628.489 32.0404 634.847 31.3281 641.093 31.6165 639.801 33.7882 637.741 35.956 638.221 38.6915 638.793 40.5354 640.209 41.934 641.254 43.5203 643.327 46.7016 645.117 50.0709 647.407 53.1123 649.967 56.5339 649.947 61.0176 650.056 65.0946 650.115 68.7218 651.619 72.1476 653.709 75.0536 651.593 77.6712 650.506 80.9094 649.622 84.1082 648.876 86.8394 647.434 89.3348 645.518 91.4148 646.691 91.8213 647.864 92.2408 649.007 92.7346 647.943 92.8043 646.888 92.8569 645.834 92.9226 644.46 95.9857 643.097 99.0839 642.522 102.418 645.857 102.126 649.185 101.667 652.536 101.544 649.513 102.497 646.073 102.698 643.534 104.774 643.025 106.29 644.017 107.741 644.956 108.846 646.405 110.63 648.36 112.229 648.797 114.606 649.241 116.874 649.684 119.155 649.888 121.462 649.471 124.115 647.9 126.444 647.66 129.145 649.973 128.713 652.29 128.293 654.635 128.048 653.525 129.957 652.441 131.903 650.989 133.576 649.973 134.734 648.981 135.918 648.203 137.251 648.607 138.584 649.375 139.746 650.203 140.861 648.932 142.001 647.381 143.055 646.888 144.78 646.323 146.848 646.376 149.129 645.223 151.003 644.135 152.651 642.459 153.826 641.454 155.539 640.744 156.636 640.524 157.942 640.212 159.192 638.336 159.342 636.457 159.512 634.584 159.673 634.285 161.167 633.651 162.707 634.039 164.235 635.175 167.382 638.589 169.016 639.69 172.188 640.475 174.505 641.25 176.834 641.806 179.215 642.354 181.148 641.319 183.118 641.773 185.053 642.66 187.199 644.74 188.585 645.623 190.73 645.995 192.929 645.367 195.205 645.949 197.381 646.606 199.112 648.311 200.052 649.737 201.087 649.027 202.617 648.331 204.326 648.791 206.034 649.366 208.206 650.062 210.57 651.935 211.999 655.141 214.368 659.314 215.093 662.32 217.785 663.769 219.096 665.428 220.136 667.15 221.058 666.023 221.014 664.903 220.949 663.792 220.909 664.433 222.137 665.228 223.309 665.626 224.655 665.888 226.415 664.656 228.072 664.922 229.829 665.938 231.921 667.853 233.416 668.829 235.544 668.09 237.651 666.519 239.306 665.642 241.339 665.044 242.694 665.287 244.209 665.287 245.648 661.101 244.646 656.932 243.594 652.773 242.505 651.465 242.038 650.154 242.615 648.866 242.798 647.913 243.008 647.036 242.461 646.146 242.243 643.189 241.317 640.104 242.156 637.104 242.208 635.711 242.199 634.554 241.247 633.204 241.089 631.167 241.129 629.176 242.117 627.139 241.596 623.098 240.648 619.034 239.766 615.101 238.432 614.033 238.109 612.867 237.555 611.792 238.135 609.453 239.21 607.416 240.841 605.09 241.924 603.772 242.55 602.287 242.418 600.881 242.444 596.994 242.435 593.127 243.008 589.382 244.013 587.476 244.573 585.558 243.76 583.678 243.475 583.159 244.267 582.65 245.062 582.147 245.861 580.074 245.704 578.004 245.504 575.931 245.578 574.502 245.639 573.122 246.517 571.693 246.036 568.785 245.328 565.891 244.419 562.874 244.415 559.379 244.419 555.893 244.73 552.403 244.992 549 245.289 545.573 245.412 542.215 246.071 540.27 246.364 538.249 246.858 536.304 246.338 532.25 245.363 528.11 244.686 523.938 244.55 520.715 244.442 518.31 241.881 515.264 241.212 514.029 241.386 512.856 241.85 511.633 242.064 509.081 242.523 506.495 242.086 503.929 242.173 501.777 242.379 499.875 243.533 497.752 243.856 495.87 243.72 494.306 242.458 492.449 242.208 491.092 242.313 489.926 243.266 488.566 243.239 483.713 241.867 479.182 239.521 474.336 238.144 472.993 239.665 471.787 241.295 470.673 242.991 468.314 241.832 466.169 240.163 463.632 239.425 459.433 239.171 455.165 240.098 451.453 242.09 449.909 240.832 448.325 239.604 446.574 238.651 444.823 237.703 442.786 237.747 440.857 237.589 437.082 237.375 433.31 237.135 429.538 236.951 427.14 236.777 425.129 238.883 422.721 238.376 417.947 237.235 413.278 235.684 408.728 233.861 409.171 234.989 409.661 236.104 410.124 237.226 406.139 237.759 402.131 238.621 398.093 238.236 392.241 237.55 386.534 235.854 380.63 235.627 377.877 235.828 375.656 237.747 372.998 238.324 365.96 240.089 358.86 237.642 351.793 237.45 348.58 237.27 345.846 239.621 342.63 239.403 339.561 239.285 336.502 239.053 333.44 238.997 329.774 238.927 326.159 239.743 322.497 239.656 318.49 239.42 314.666 238.048 310.716 237.488 305.804 237.537 301.299 240.08 296.4 240.259 293.201 240.063 290.09 239.171 286.896 238.939 284.112 238.647 281.224 238.988 278.571 237.922 276.433 237.384 274.318 235.933 272.051 236.593 266.043 238.144 260.147 240.416 253.898 240.814 249.401 241.046 244.9 241.229 240.404 241.449 233.525 241.933 226.577 240.32 219.751 241.71 218.956 241.78 218.051 242.173 217.339 241.645 215.77 240.722 214.293 239.656 212.786 238.642 212.545 239.442 212.3 240.242 212.06 241.042 209.617 240.316 207.187 239.56 204.74 238.862 204.714 240.084 204.697 241.308 204.67 242.536 199.304 241.675 193.947 240.727 188.598 239.748 185.076 239.009 181.79 241.12 178.294 241.033 175.056 240.596 171.98 239.437 168.907 238.371 167.696 237.965 166.499 237.388 165.193 237.436 157.951 237.218 151.139 240.028 144.322 242.068 143.055 241.098 141.774 239.901 140.096 239.809 136.372 239.472 132.645 239.175 128.94 238.712 127.34 238.577 125.732 238.205 124.133 238.441 122.118 239.027 120.457 240.456 118.408 240.941 115.41 240.416 112.578 239.229 109.672 238.354 108.226 239.35 106.762 240.666 104.892 240.617 99.5123 240.731 93.9756 240.849 88.8932 242.825 87.9187 243.157 86.87 243.545 85.8255 243.274 81.7791 242.335 77.8154 241.019 73.6948 240.434 71.5579 240.093 69.3904 240.084 67.2489 239.853 69.622 239.647 71.9991 239.499 74.3765 239.315 73.6685 238.084 72.7725 236.912 72.4535 235.509 72.6983 233.87 73.4589 232.346 73.5811 230.685 73.747 228.649 73.5025 226.534 74.2714 224.588 74.7215 223.076 75.7485 221.591 75.3641 219.953 75.0625 218.602 74.5598 217.308 74.3328 215.945 75.8142 214.237 77.4616 212.681 79.0173 211.042 78.0776 209.07 76.7319 207.17 76.5919 204.929 76.5571 201.913 78.9647 199.685 79.677 196.887 80.0834 194.349 79.4585 191.757 79.9044 189.223 80.2845 187.068 81.8448 185.277 81.9759 183.066 82.0981 179.998 81.5432 176.834 82.5877 173.862 83.9817 169.895 86.0049 166.18 87.5169 162.256 88.998 158.507 91.2486 155.081 92.4679 151.235 90.9605 149.408 88.7753 148.346 87.1933 146.612 86.6693 146.091 86.73 145.305 86.6735 144.632 86.6384 141.407 88.0544 138.283 87.5429 135.049 87.2022 132.567 86.8657 130.08 86.8003 127.571 86.7957 126.086 87.4818 124.705 87.556 123.228 86.6298 121.396 84.7288 120.366 83.1252 119.199 83.3216 118.377 83.5138 117.556 83.7106 116.734 82.8715 116.341 82.0324 115.947 81.1979 115.55 82.8104 114.537 85.061 113.976 85.7555 111.997 86.6167 108.567 87.0928 105.053 87.6697 101.566 88.1941 98.2405 91.3491 95.7498 91.0258 92.2277 90.554 88.6399 89.7849 85.013 90.2567 81.3815 90.7725 78.7245 92.3893 76.1944 91.9172 73.4063 91.1307 69.0231 87.7922 65.7195 86.3236 61.6162 86.3193 59.2257 88.5525 57.4735 88.452 55.0656 88.2815 52.977 86.8003 51.3598 85.9044 49.5508 84.624 47.2434 84.2919 44.4727 82.5831 42.3973 81.329 40.5968 79.5374 39.0717 78.9299 36.8953 78.2045 33.2553 79.4017 29.5539 81.0842 26.3463 81.8885 27.6792 82.5571 29.3573 84.2176 29.8074 88.0107 31.114 91.9129 32.0841 95.754 33.2507 97.1264 31.8001 98.4767 30.2837 100.128 29.1432 104.044 29.165 107.889 30.8518 111.857 30.3318 114.549 29.956 117.193 29.1213 119.575 27.7972 121.31 26.8315 122.52 25.2146 123.857 23.7943 124.229 24.996 124.561 26.2153 124.928 27.4213 127.026 27.4083 129.42 28.1162 131.277 26.8183 132.859 25.3718 134.114 23.6064 135.551 22.0245 137.916 22.9291 140.253 24.3012 142.871 24.122 145.147 23.9866 147.424 23.8904 149.697 23.6894 151.821 23.4928 152.55 20.7048 154.735 20.613 158.568 20.1804 162.335 19.2933 166.023 18.1658 167.346 19.7041 168.715 21.2073 170.157 22.6363 172.674 22.0201 174.78 20.1629 177.423 20.0143 180.361 20.1498 183.315 21.4171 186.256 20.578 191.95 18.983 197.687 17.2831 203.63 17.034 209.989 16.7238 216.159 18.5679 222.43 19.254 224.859 19.5642 226.45 16.8723 228.871 17.104 234.906 17.5541 240.963 18.026 247.016 17.6327 247.308 18.2489 247.6 18.865 247.894 19.4856 250.135 19.0223 252.369 18.3494 254.676 18.3144 256.375 19.2671 257.857 20.648 259.758 21.2248 261.93 21.8759 264.347 22.8897 266.562 21.806 268.831 21.0456 270.984 19.101 273.506 19.822 275.468 20.2022 277.391 20.7703 279.331 21.2597 279.755 20.2153 279.974 19.0092 280.79 18.1833 281.997 17.4798 283.404 17.2394 284.746 16.9204Z" fill="#E8E8E9" transform="matrix(1.00422 0 0 1 -67.0905 -14.987)"/><g clip-path="url(#clip1)"><g clip-path="url(#clip2)"><g clip-path="url(#clip3)"><path d="M130.164 4.3321C130.29 4.33979 130.418 4.34751 130.547 4.35661 130.46 4.48912 130.332 4.58097 130.181 4.62304 130.176 4.55012 130.168 4.40502 130.164 4.3321Z" fill="#B5C09E" transform="matrix(1 0 0 2.32168 373.935 119.908)"/><path d="M15.8161 2.33185C15.8518 2.32624 15.9233 2.31643 15.9591 2.31152 15.9703 2.39565 15.9815 2.47978 15.9934 2.56392 16.344 2.47908 16.7072 2.47768 17.0612 2.41178 17.2786 2.36761 17.498 2.42159 17.702 2.49661 18.0316 2.62 18.38 2.71746 18.6653 2.93129 18.8448 3.11638 18.9037 3.37578 18.9963 3.60855 19.0783 3.84551 19.3531 3.90721 19.5522 4.0145 19.9329 4.20379 20.355 4.04324 20.7406 3.96191 20.9733 4.09161 21.0519 4.36714 21.1655 4.5908 21.5055 4.47721 21.8659 4.41623 22.182 4.23883 22.501 4.0958 22.7843 3.86234 23.132 3.79153 23.3297 3.84831 23.4258 4.06356 23.5513 4.21078 23.6291 4.02499 23.7083 3.83851 23.789 3.65342 24.1879 3.67727 24.5945 3.60644 24.9878 3.69199 25.5074 3.88477 26.022 4.0923 26.5232 4.32857 26.9068 4.5263 27.2973 4.20309 27.6892 4.20798 28.1631 4.2122 28.6623 4.14067 29.1124 4.32857 29.4083 4.45408 29.7343 4.39799 30.0442 4.44355 30.2433 4.62726 30.2643 4.9147 30.3449 5.15869 30.68 5.13906 31.0173 5.12151 31.3517 5.16918 31.4036 4.99042 31.4548 4.81163 31.5052 4.63214 31.5494 4.62934 31.6377 4.62304 31.6819 4.62023 31.7198 4.73871 31.7562 4.85719 31.792 4.9764 32.3452 5.01424 32.8906 4.86914 33.4437 4.91539 33.7066 4.92381 33.9914 5.01497 34.2319 4.85931 34.6407 4.63917 35.036 4.3938 35.4735 4.22972 35.6642 4.3321 35.8641 4.41762 36.068 4.49265 36.232 4.27321 36.4052 4.04535 36.6484 3.90793 36.9361 3.80064 37.2789 3.93037 37.5488 3.75649 37.848 3.56859 38.1209 3.33793 38.3479 3.06661 38.5122 2.85908 38.8157 3.02804 39.0239 2.91377 39.1843 2.78897 39.3063 2.62351 39.4317 2.46506 39.7837 2.5562 40.1407 2.63753 40.4717 2.79177 40.7429 2.95302 41.0052 2.65996 41.282 2.71044 41.7063 2.95232 42.0329 3.33163 42.4312 3.60997 42.6463 3.61205 42.8469 3.52022 43.0432 3.4417 43.1253 3.53705 43.2072 3.63448 43.2873 3.73264 43.4906 3.65622 43.7014 3.60294 43.9155 3.56579 43.9525 3.66045 43.9911 3.75507 44.0304 3.84973 44.3257 3.60436 44.6325 3.36809 44.9684 3.18228 45.3673 3.08834 45.7005 3.51181 46.105 3.41854 46.3904 3.24258 46.4442 2.88572 46.5178 2.58705 46.9289 2.61369 47.3353 2.69782 47.7273 2.82262 47.9903 2.89063 48.1529 3.11989 48.3251 3.31128 48.4423 3.23907 48.5601 3.16405 48.6914 3.11778 48.9814 3.0645 49.2872 3.21664 49.5697 3.08834 49.8376 2.97476 50.1216 2.90535 50.4117 2.8752 50.7139 2.85207 50.96 2.63823 51.2599 2.60458 51.4836 2.58425 51.6885 2.69432 51.8868 2.78266 52.0432 2.68661 52.2052 2.59827 52.3692 2.51414 52.4058 2.63262 52.4401 2.75111 52.4744 2.8703 53.3016 2.94531 54.1149 2.74059 54.9282 2.62561 55.2142 2.60318 55.5016 2.58775 55.7844 2.52816 56.0978 2.46085 56.4053 2.58004 56.7174 2.59967 57.1879 2.63613 57.6653 2.54919 58.1322 2.64665 58.3489 2.69432 58.572 2.66277 58.7907 2.69011 58.9659 2.78757 58.9834 3.02103 59.0576 3.19 59.3242 3.1276 59.5968 3.08623 59.8723 3.09675 60.3197 3.10797 60.7677 3.07852 61.2158 3.07221 61.4609 3.08834 61.6034 2.84856 61.7767 2.71465 62.0739 2.91867 62.3263 3.17878 62.5695 3.44309 62.8212 3.26642 63.0499 3.06029 63.265 2.84015 63.4303 3.07782 63.5257 3.37509 63.7668 3.55246 64.335 3.73686 64.8668 3.40943 65.3396 3.13391 65.5498 3.30359 65.7204 3.55246 65.988 3.6331 66.5159 3.66464 67.058 3.70459 67.5726 3.55246 68.0247 3.6394 68.4566 3.82588 68.9208 3.85603 69.2566 3.87075 69.575 3.98223 69.8994 4.05584 70.1092 3.95419 70.2359 3.74386 70.3936 3.57981 70.546 3.38492 70.7598 3.2552 70.9736 3.13741 71.0017 3.22014 71.0304 3.30359 71.0597 3.387 71.6517 3.49287 71.6269 4.27951 72.0882 4.55012 72.2931 4.55154 72.4937 4.48704 72.6995 4.49753 72.9071 4.51086 73.1021 4.60271 73.3102 4.61251 73.4561 4.53329 73.5808 4.42184 73.7128 4.32157 73.8388 4.42884 73.9596 4.5424 74.08 4.65738 74.3324 4.51997 74.503 4.2865 74.662 4.05446 74.756 4.12457 74.8484 4.20029 74.951 4.26057 75.2433 3.99487 75.4858 3.68146 75.7445 3.38419 75.9577 3.3772 76.1764 3.39333 76.3853 3.33932 76.5677 3.21454 76.6911 3.02314 76.8683 2.89133 77.186 2.84506 77.5014 2.94531 77.8198 2.94742 78.7166 2.97196 79.5942 2.70484 80.4923 2.73358 80.5946 2.97757 80.6886 3.30567 80.9908 3.35757 81.2396 3.40174 81.4109 3.61627 81.6583 3.66183 81.8695 3.71934 82.1097 3.72564 82.2835 3.87847 82.5633 4.11543 82.914 4.23744 83.238 4.39941 83.4159 4.4807 83.5848 4.58519 83.7742 4.64128 84.176 4.26126 84.4136 3.70951 84.9296 3.45292 85.1721 3.22856 85.3754 3.60363 85.6215 3.63448 86.0395 3.65273 86.4665 3.516 86.8792 3.6331 87.0218 3.66886 87.091 3.81186 87.1857 3.91143 87.3029 3.8981 87.4206 3.88339 87.5391 3.87006 87.7677 4.24585 87.8383 4.76395 88.2646 4.9827 88.4154 5.06265 88.6061 5.1832 88.775 5.07314 89.1594 4.85719 89.4785 4.54593 89.8493 4.30894 89.9321 4.23464 90.04 4.30194 90.1347 4.31455 90.1416 4.45899 90.0555 4.63986 90.174 4.75696 90.2508 4.8628 90.3927 4.84528 90.5089 4.85439 91.0018 4.85861 91.4947 4.82915 91.9883 4.8537 92.1734 4.85158 92.3779 4.87894 92.5455 4.77659 92.6726 4.69807 92.7369 4.55642 92.8177 4.43583 93.244 4.44985 93.666 4.39238 94.0903 4.35873 94.3971 4.32857 94.7578 4.53541 95.0197 4.29983 95.4658 4.00048 95.7769 3.55107 96.197 3.22225 96.4051 3.04487 96.6414 3.28815 96.8364 3.37297 97.0152 3.29937 97.1884 3.19841 97.3831 3.16826 97.6041 3.1893 97.7991 3.31058 98.0123 3.36456 98.3521 3.45922 98.7167 3.39752 99.0512 3.51881 99.4851 3.64781 99.8203 3.96683 100.206 4.18907 100.514 4.38327 100.847 4.53118 101.157 4.72331 101.365 4.56764 101.591 4.43514 101.799 4.2774 101.983 4.15892 101.933 3.90863 101.985 3.72422 102.198 3.70951 102.292 3.88339 102.351 4.06007 102.457 3.98012 102.549 3.8266 102.701 3.86445 102.989 3.95069 103.226 4.21009 103.544 4.19537 103.889 4.15261 104.227 4.05726 104.564 3.97171 104.877 3.9016 105.198 3.95 105.515 3.94858 105.932 3.91001 106.29 3.66744 106.619 3.42557 106.627 3.54266 106.635 3.65903 106.644 3.77612 106.888 3.73195 107.125 3.65972 107.368 3.60924 107.618 3.55107 107.844 3.72914 108.088 3.73617 108.377 3.67866 108.653 3.56859 108.93 3.46694 109.052 3.54896 109.165 3.65203 109.309 3.69549 109.53 3.68288 109.743 3.5812 109.968 3.60014 110.18 3.77121 110.342 3.99345 110.511 4.2059 110.863 4.086 111.159 3.85745 111.47 3.65972 111.534 3.79364 111.597 3.92826 111.657 4.06498 112.053 3.84482 112.436 3.60014 112.847 3.40874 112.864 3.56157 112.883 3.71443 112.901 3.86725 113.12 3.77612 113.334 3.6429 113.579 3.6457 113.92 3.6429 114.223 3.82941 114.559 3.86095 115.015 3.91704 115.456 4.04816 115.91 4.12104 116.567 4.22833 117.189 4.48842 117.84 4.61885 118.216 4.45197 118.486 4.10141 118.894 3.99065 118.9 4.13368 118.907 4.2774 118.915 4.42042 119.276 4.36856 119.645 4.31735 120.01 4.36925 120.241 4.42603 120.443 4.56203 120.651 4.67702 121.006 4.44705 121.378 4.73944 121.732 4.81655 122.221 4.91539 122.723 5.02477 123.224 4.95185 123.643 4.89576 124.068 4.89085 124.484 4.80744 124.767 4.7275 125.054 4.6595 125.347 4.62093 125.623 4.57256 125.922 4.54801 126.152 4.37064 126.395 4.18976 126.622 3.97102 126.918 3.87778 127.279 3.76068 127.632 3.58473 128.021 3.58473 128.321 3.58542 128.622 3.58331 128.924 3.59733 129.347 3.61346 129.638 3.98154 130.038 4.07759 130.441 4.18066 130.845 4.31036 131.2 4.5361 131.37 4.64617 131.506 4.80463 131.685 4.90348 132.02 4.94205 132.31 4.70437 132.641 4.69246 132.813 4.6623 132.865 4.86703 132.962 4.96799 133.354 4.90279 133.734 4.785 134.123 4.70859 134.148 4.85581 134.173 5.00233 134.204 5.14816 134.45 5.10049 134.691 5.02688 134.935 4.96096 134.951 5.09349 134.968 5.22527 134.989 5.35781 135.588 5.16219 136.207 5.03948 136.811 4.85931 137.035 4.7948 137.236 4.64547 137.476 4.63214 137.68 4.69457 137.838 4.85158 138.013 4.9701 138.076 4.78639 138.095 4.54313 138.285 4.44075 138.639 4.38116 139 4.42534 139.359 4.42392 139.638 4.93714 139.993 5.45593 140.536 5.71536 140.918 5.90606 141.337 6.00983 141.749 6.11217 142.043 6.1942 142.411 6.10165 142.64 6.34564 142.658 6.45151 142.657 6.55878 142.662 6.66604 143.07 6.79293 143.504 6.78663 143.921 6.87215 144.121 6.76139 144.228 6.54053 144.39 6.38421 144.693 6.40103 144.827 6.78805 145.134 6.8287 145.582 6.69758 145.941 6.36527 146.391 6.23696 146.728 6.13042 147.077 6.29235 147.419 6.22155 147.597 6.15635 147.753 6.04137 147.917 5.9446 148.001 6.01191 148.087 6.08063 148.174 6.14932 148.549 5.9348 148.929 5.72796 149.279 5.47137 149.467 5.53026 149.668 5.68801 149.868 5.58424 150.147 5.48609 150.433 5.2968 150.742 5.38866 151.006 5.45312 151.308 5.5625 151.414 5.84014 151.545 6.15074 151.838 6.36457 152.147 6.47956 152.314 6.41717 152.459 6.30637 152.625 6.23626 152.957 6.08132 153.335 6.12969 153.683 6.03576 154.034 5.97056 154.428 5.88993 154.757 6.07641 154.975 6.18159 155.167 6.34913 155.405 6.41436 155.561 6.40803 155.593 6.24118 155.637 6.12339 155.882 6.10726 156.128 6.09957 156.374 6.12339 156.756 6.16965 157.137 6.08482 157.52 6.11636 157.615 6.03715 157.707 5.95232 157.815 5.88712 157.992 5.99227 158.147 6.13042 158.312 6.2552 158.518 6.15985 158.722 6.0575 158.924 5.95163 159.013 6.11847 159.099 6.28605 159.184 6.4557 159.673 6.42205 160.168 6.35897 160.624 6.16965 160.854 6.0708 161.003 5.85977 161.146 5.66346 161.474 5.87591 161.794 6.10445 162.152 6.26711 162.346 6.11989 162.54 5.97056 162.728 5.81421 163.033 5.92639 163.354 5.97967 163.663 6.07852 163.854 6.12969 164.048 6.19281 164.25 6.19489 164.559 6.06311 164.702 5.72235 164.987 5.56042 165.418 5.54359 165.707 5.89131 166.036 6.10445 166.365 6.15635 166.679 5.98878 167.007 5.97406 166.985 6.11006 166.963 6.24679 166.939 6.38279 167.279 6.12339 167.692 6.32531 168.066 6.36807 168.555 6.42627 169.051 6.4459 169.534 6.55597 169.999 6.49638 170.373 6.10937 170.856 6.10518 171.193 6.09465 171.544 6.09254 171.867 6.21102 172.201 6.37437 172.461 6.64783 172.734 6.896 173.041 6.56016 173.34 6.20261 173.729 5.95582 174.131 5.70553 174.637 5.94602 175.055 5.7434 175.263 5.65716 175.442 5.51413 175.65 5.42719 175.991 5.32696 176.355 5.33606 176.693 5.21547 177.118 5.12151 177.506 4.92031 177.883 4.70786 178.073 4.57886 178.324 4.63426 178.497 4.76745 178.916 5.08016 179.113 5.59407 179.51 5.92919 179.885 6.23415 180.234 6.59243 180.688 6.77963 180.846 6.85324 181.035 6.88198 181.163 7.01099 181.315 7.1589 181.443 7.32997 181.572 7.49893 181.583 7.42113 181.597 7.3433 181.613 7.26619 182.091 7.16243 182.556 6.98713 182.956 6.70038 183.391 6.42205 183.765 6.03645 184.258 5.85839 184.226 6.01402 184.189 6.16757 184.144 6.31901 184.471 6.58121 184.845 6.77683 185.207 6.98855 185.259 7.38467 185.131 7.76327 185.019 8.13554 185.077 8.57231 185.459 8.90815 185.487 9.35614 185.48 9.78803 185.062 10.0643 185.006 10.4814 184.986 11.0122 184.694 11.4749 184.375 11.8794 184.799 11.864 185.204 11.6866 185.633 11.7266 185.845 11.7434 186.052 11.6859 186.262 11.6586 185.674 12.0456 184.923 11.9691 184.251 11.9769 184.314 12.1409 184.406 12.2986 184.434 12.4746 184.397 12.781 184.253 13.0594 184.144 13.344 184.033 13.5915 183.949 13.8558 183.798 14.0816 183.522 14.1313 183.249 14.0255 182.979 13.9939 182.98 14.1741 182.986 14.355 182.992 14.5352 183.183 14.5856 183.358 14.6852 183.458 14.8633 183.209 14.9586 182.853 14.8724 182.709 15.1451 182.414 15.5693 182.122 16.0012 181.75 16.3643 181.49 16.6251 181.425 17.0016 181.321 17.3403 181.257 17.5324 181.226 17.7322 181.205 17.9327 181.38 17.911 181.556 17.8906 181.734 17.8738 181.589 18.1619 181.418 18.4564 181.41 18.7873 181.486 19.2332 181.589 19.6882 181.842 20.0718 182.096 20.5057 182.491 20.8254 182.829 21.19 182.975 21.3582 183.205 21.3849 183.398 21.4753 183.659 21.5987 183.887 21.7789 184.139 21.9212 184.361 22.0881 184.624 21.889 184.86 21.8581 184.853 22.1666 184.786 22.5305 185.031 22.7731 185.301 22.9995 185.61 23.1783 185.873 23.4167 185.789 23.4756 185.708 23.5331 185.626 23.5884 185.823 23.6431 186.021 23.6992 186.217 23.7644 186.221 24.122 186.122 24.4971 186.251 24.8427 186.298 24.9724 186.389 25.0839 186.516 25.1442 186.832 25.3314 187.173 25.4702 187.512 25.6118 187.477 25.7373 187.443 25.8628 187.411 25.9883 187.629 26.0528 187.845 26.1229 188.062 26.1972 187.664 26.4671 187.219 26.6635 186.748 26.7651 186.344 26.9124 185.92 26.9895 185.492 27.0056 185.574 27.1031 185.659 27.1991 185.745 27.2965 185.209 27.638 184.579 27.7782 183.991 27.9983 183.939 28.3636 183.848 28.7331 183.628 29.036 183.315 29.4693 182.797 29.6922 182.298 29.831 182.319 30.1907 182.307 30.5546 182.218 30.9051 182.041 30.9535 181.866 31.004 181.692 31.0537 181.733 31.4709 181.74 31.9133 181.549 32.2989 181.349 32.7062 181.18 33.1269 181.064 33.5664 180.93 33.4242 180.844 33.249 180.768 33.0735 180.632 33.1045 180.496 33.1382 180.364 33.1731 180.402 33.3477 180.427 33.5503 180.592 33.6575 180.691 33.7753 180.923 33.87 180.86 34.0544 180.775 34.3728 180.656 34.7205 180.836 35.031 181.046 35.4273 180.917 35.8786 180.974 36.2999 181.062 36.6556 181.254 36.9747 181.353 37.3264 181.426 37.553 181.261 37.8193 181.028 37.8605 180.661 37.9582 180.28 37.9968 179.903 37.9981 179.652 37.9975 179.387 38.0163 179.163 37.8873 178.793 37.6652 178.344 37.8572 177.956 37.6952 177.471 37.4897 176.891 37.5059 176.439 37.7843 176.394 37.6877 176.351 37.5907 176.31 37.4946 175.938 37.553 175.582 37.6672 175.235 37.8045 175.129 37.6411 175.023 37.4785 174.921 37.3152 174.846 37.368 174.776 37.4254 174.7 37.4715 174.56 37.4372 174.434 37.365 174.299 37.327 174.154 37.3729 174.024 37.4527 173.891 37.5207 173.836 37.4036 173.785 37.2865 173.733 37.17 173.619 37.2429 173.51 37.3224 173.388 37.3755 173.16 37.1723 173 36.8889 172.731 36.7368 172.482 36.6942 172.267 36.8503 172.057 36.9536 171.99 36.9219 171.925 36.8912 171.862 36.8602 171.845 36.7437 171.83 36.6282 171.817 36.5124 171.32 36.7642 170.795 37.0123 170.227 37.0129 169.919 37.0027 169.686 36.7635 169.396 36.6942 169.253 36.7803 169.15 36.9136 169.016 37.0073 168.683 36.9991 168.381 36.8302 168.053 36.8054 167.611 36.7727 167.171 36.7348 166.734 36.6731 166.631 36.7754 166.53 36.8777 166.428 36.9786 165.906 36.6807 165.677 36.1079 165.371 35.6236 165.24 35.8737 165.072 36.1086 164.855 36.2924 164.798 36.3521 164.693 36.3148 164.683 36.2363 164.574 36.007 164.514 35.7334 164.293 35.58 163.842 35.4754 163.371 35.4517 162.913 35.5183 162.77 35.5477 162.656 35.4411 162.543 35.3768 162.214 35.1488 161.8 35.1326 161.426 35.0234 161.461 35.322 161.466 35.6229 161.458 35.9228 161.223 35.8611 160.997 35.7651 160.762 35.7064 160.498 35.8136 160.328 36.098 160.043 36.1564 159.544 36.1492 159.027 36.1036 158.547 36.2693 158.324 36.3386 158.112 36.4352 157.895 36.5194 157.589 36.2656 157.287 36.0063 156.982 35.7509 156.736 35.8295 156.475 35.8344 156.219 35.8367 156.156 36.1248 156.078 36.4115 155.932 36.6701 155.705 36.6134 155.478 36.5167 155.241 36.5342 154.945 36.6134 154.714 36.8288 154.436 36.9423 154.188 36.9691 153.986 36.7081 153.734 36.7853 153.17 36.9394 152.621 37.1542 152.048 37.2795 151.589 37.3623 151.235 37.7876 150.745 37.7253 150.639 37.7296 150.569 37.6441 150.508 37.5732 150.238 37.5563 149.967 37.5768 149.698 37.5563 149.574 37.5488 149.451 37.4976 149.391 37.3854 149.184 37.0812 148.97 36.7774 148.693 36.5329 148.605 36.6296 148.517 36.7262 148.429 36.8216 148.303 36.7615 148.179 36.7005 148.056 36.6414 147.785 36.908 147.596 37.2409 147.413 37.5699 146.732 37.5425 146.045 37.6204 145.372 37.4871 144.89 37.4366 144.442 37.1967 143.954 37.1954 143.699 37.2802 143.53 37.5102 143.287 37.618 143.174 37.6081 143.07 37.5537 142.988 37.4801 142.644 37.1756 142.301 36.8496 141.883 36.652 141.309 36.6718 140.76 36.8707 140.204 36.9928 139.944 37.0453 139.696 37.138 139.447 37.2228 139.385 37.0852 139.326 36.9466 139.272 36.8077 138.819 36.7784 138.365 36.8104 137.913 36.7922 137.632 36.7886 137.518 36.4893 137.4 36.2838 137.204 36.3343 137.017 36.4283 136.815 36.4339 136.72 36.3785 136.637 36.3062 136.552 36.2412 135.672 36.7341 134.633 36.3696 133.693 36.5883 133.436 36.619 133.316 36.8813 133.143 37.039 133 36.9724 132.861 36.9044 132.722 36.8364 132.547 37.042 132.268 37.0172 132.027 37.0433 131.894 37.0509 131.762 37.074 131.632 37.0552 131.45 36.9667 131.316 36.8084 131.152 36.6949 130.935 36.5411 130.716 36.389 130.537 36.1901 130.212 36.3442 129.855 36.2719 129.52 36.2026 129.539 36.3996 129.485 36.589 129.385 36.7579 129.166 36.6619 128.947 36.5566 128.71 36.5203 128.487 36.49 128.276 36.5847 128.066 36.6358 127.75 36.7124 127.427 36.7615 127.104 36.7671 126.84 36.7487 126.618 36.5903 126.401 36.4586 126.17 36.7124 125.964 36.9978 125.686 37.201 124.835 37.0166 123.951 37.1792 123.093 37.041 122.653 36.9842 122.208 37.0179 121.766 37.009 121.793 36.7018 121.86 36.4002 121.928 36.0997 121.72 36.1492 121.515 36.2089 121.309 36.2613 121.268 36.1172 121.231 35.9726 121.197 35.8275 121.031 35.9496 120.866 36.0723 120.705 36.1983 120.515 36.0799 120.4 35.8865 120.318 35.6853 120.073 35.7945 119.809 35.8037 119.551 35.7414 119.372 35.6896 119.221 35.8232 119.052 35.845 118.822 35.8512 118.578 35.7912 118.368 35.9129 117.751 36.2138 117.06 36.3112 116.38 36.3006 116.058 36.2792 115.764 36.424 115.47 36.5266 115.278 36.5916 115.089 36.6982 114.99 36.8826 114.85 37.0812 114.763 37.4135 114.461 37.3881 113.978 37.3201 113.505 37.1406 113.103 36.8615 112.946 36.7784 112.787 36.6246 112.596 36.6738 112.203 36.7368 111.806 36.8015 111.407 36.7952 111.037 36.7978 110.652 36.7493 110.299 36.8876 109.911 37.0242 109.495 37.0377 109.089 37.0146 108.995 37.0047 108.893 37.0047 108.82 36.9394 108.512 36.6464 108.334 36.1653 107.896 36.0442 107.629 36.1066 107.387 36.2419 107.132 36.3366 106.906 36.1317 106.701 35.906 106.49 35.6873 106.413 35.58 106.283 35.6566 106.181 35.6671 105.909 35.7407 105.625 35.7229 105.347 35.7427 105.334 35.876 105.342 36.0099 105.343 36.1445 105.047 35.8961 104.774 35.611 104.415 35.4504 103.744 35.1165 103.052 34.705 102.275 34.7443 102.078 34.419 101.783 34.1728 101.468 33.9683 101.377 34.0663 101.294 34.1715 101.192 34.257 100.905 34.3174 100.619 34.1966 100.332 34.2114 100.161 34.2045 100.033 34.3322 99.8965 34.4147 99.8652 34.3032 99.8358 34.1926 99.8078 34.0818 99.6395 34.0706 99.4726 34.0613 99.3056 34.0518 99.1628 33.8343 98.9628 33.6654 98.7236 33.5631 98.6052 33.6737 98.4861 33.7832 98.3656 33.8898 98.0914 33.7977 97.8037 33.7439 97.5164 33.7271 97.0901 33.7165 96.68 33.8469 96.2712 33.9478 96.0336 34.0033 95.868 34.2016 95.6466 34.292 95.2589 34.4302 94.8482 34.5038 94.4358 34.4949 93.9435 34.4836 93.6007 34.9033 93.1543 35.0389 92.92 35.0591 92.7069 34.9258 92.4756 34.9188 91.5943 34.9195 90.849 35.4867 89.9872 35.58 89.8331 35.6879 89.7391 35.8568 89.6193 35.9977 89.4392 35.8697 89.2597 35.742 89.0766 35.6193 88.9819 35.7981 88.8866 35.9763 88.783 36.1492 88.7599 35.8892 88.778 35.6256 88.7338 35.3675 88.5249 35.0148 88.0581 34.9399 87.6862 35.0234 87.3975 35.067 87.1752 35.2666 86.9271 35.4005 86.6229 35.32 86.3978 35.0772 86.1062 34.97 85.9026 34.8641 85.7205 35.0564 85.5459 35.1356 85.2724 35.324 84.9283 35.2408 84.6198 35.2534 84.1899 35.2247 83.7986 35.4322 83.3816 35.4933 83.0275 35.5681 82.6659 35.5157 82.3089 35.5388 82.1357 35.5408 82.0136 35.6797 81.8652 35.747 81.6276 35.7252 81.4257 35.5662 81.1872 35.547 80.6837 35.5065 80.1769 35.5813 79.6757 35.5114 79.2864 35.451 78.8806 35.4692 78.5074 35.6005 78.0366 35.8037 77.6166 36.1379 77.1101 36.2511 76.8363 36.2076 76.5614 36.0904 76.2823 36.1772 75.7844 36.3161 75.2747 36.1795 74.7742 36.1389 74.3654 36.1059 73.9526 35.9964 73.5452 36.0997 73.5191 36.3353 73.5046 36.5715 73.5165 36.8084 73.4198 36.8054 73.3238 36.8028 73.2284 36.8015 73.1717 36.6358 73.1139 36.4712 73.0539 36.3079 72.9879 36.3415 72.9226 36.3758 72.8582 36.4108 72.8447 36.5378 72.8328 36.6652 72.8216 36.7929 72.1274 36.8232 71.4369 36.7642 70.7457 36.7236 70.5474 36.7101 70.4028 36.556 70.229 36.4794 70.1043 36.4699 69.9865 36.5266 69.8707 36.5636 69.2728 36.8028 68.575 36.9044 67.9692 36.6338 67.5255 36.485 67.1253 36.1228 66.6297 36.199 66.2635 36.2811 66.2153 36.7124 65.9942 36.9578 65.7854 36.8308 65.5785 36.6477 65.3192 36.6606 65.1635 36.647 64.9932 36.68 64.853 36.5972 64.5214 36.4138 64.2278 36.1478 63.8553 36.0482 63.4191 35.9964 62.9733 36.0548 62.5408 35.9614 62.2422 35.9004 61.9581 35.7476 61.6483 35.7602 61.4378 35.876 61.3144 36.1647 61.0432 36.1429 60.5117 36.1558 59.9838 36.2854 59.4516 36.2181 59.4358 36.3359 59.4196 36.453 59.4034 36.5715 59.2272 36.4712 59.0745 36.3372 58.9336 36.195 58.4605 36.298 57.9764 36.3135 57.4984 36.2412 57.5363 36.2026 57.5749 36.164 57.6148 36.1261 57.1064 36.0294 56.7174 35.6711 56.2849 35.4174 56.0655 35.2808 55.8368 35.1594 55.6124 35.0323 55.5227 35.094 55.4379 35.163 55.3426 35.2154 55.203 35.2455 55.0595 35.2128 54.9193 35.2092 54.8912 35.3128 54.8638 35.4167 54.8371 35.5213 54.5049 35.6592 54.1541 35.7503 53.7945 35.7694 53.8163 35.9403 53.8318 36.1116 53.8407 36.2838 53.423 36.1459 53.1614 35.6335 52.677 35.712 52.224 35.7496 51.7753 35.8331 51.3196 35.8169 51.0834 35.8044 50.8921 35.9657 50.672 36.0188 50.4103 36.0442 50.148 35.9334 49.8887 36.0027 49.6825 36.04 49.4925 36.1409 49.2853 36.167 48.5512 36.0997 47.8913 35.5955 47.1347 35.7047 46.4504 35.7975 45.7447 35.7846 45.0842 35.5681 45.0772 35.7097 45.07 35.8506 45.0624 35.9931 44.8991 35.9453 44.7397 35.8892 44.5814 35.8304 44.4306 35.911 44.2841 36.0386 44.1033 36.0258 43.7562 36.0083 43.4064 35.8753 43.06 35.9707 42.7578 36.0344 42.5097 36.2356 42.2144 36.3141 42.0778 36.2475 41.9699 36.1379 41.8571 36.04 41.7617 36.2194 41.6683 36.4002 41.573 36.5797 41.0926 36.4794 40.5937 36.4867 40.1147 36.5923 40.046 36.4844 39.9794 36.3758 39.9157 36.267 39.6247 36.2986 39.305 36.3547 39.0427 36.1871 38.5211 35.9004 37.9645 35.6922 37.4036 35.4995 37.332 35.5757 37.2653 35.6572 37.1848 35.7239 36.9879 35.779 36.7817 35.7084 36.582 35.7041 36.3379 35.6823 36.1122 35.8351 35.8674 35.7895 35.353 35.7519 34.8697 35.5569 34.4015 35.3537 34.2402 35.2989 34.0567 35.1861 33.8917 35.2933 33.5166 35.519 33.0527 35.5427 32.6347 35.4428 32.2807 35.3164 31.975 35.0627 31.5936 35.0129 30.8806 34.9301 30.1626 34.8957 29.4447 34.9099 28.7829 34.8608 28.2038 35.2392 27.5658 35.3402 27.5721 35.5002 27.577 35.6599 27.5756 35.8205 27.3989 35.7433 27.2236 35.6655 27.047 35.5906 27.0077 35.812 26.9839 36.0363 26.96 36.2607 26.7104 36.1759 26.4742 36.0525 26.2176 35.9901 25.738 36.0644 25.4211 36.6365 24.9044 36.5372 24.8988 36.3976 24.8932 36.258 24.8883 36.1185 24.5707 36.2053 24.2608 36.3316 23.9334 36.3745 23.6228 36.3409 23.3347 36.1983 23.0262 36.1472 22.5424 36.0492 22.0383 36.0911 21.5623 36.2082 21.4291 36.2917 21.361 36.4438 21.2671 36.5642 21.0449 36.4464 20.8885 36.2462 20.6957 36.0911 20.4545 35.9789 20.172 36.0132 19.9259 35.9172 19.6399 35.7278 19.4351 35.4243 19.1105 35.2927 18.5412 35.0732 17.911 35.3128 17.3396 35.1039 16.8663 34.9875 16.412 34.804 15.9906 34.5585 15.8841 34.4912 15.7754 34.417 15.706 34.3098 15.6906 34.1441 15.727 33.9788 15.734 33.8139 15.6191 33.8574 15.5041 33.9016 15.3884 33.9435 15.3141 33.3968 15.8098 32.9895 15.8462 32.4623 15.8455 32.0802 15.6156 31.7394 15.326 31.5087 15.0995 31.3321 14.8668 31.1652 14.6396 30.99 14.7553 30.7726 14.8976 30.549 14.8738 30.2916 14.8759 29.9243 14.6852 29.5941 14.648 29.2337 14.6144 28.9364 14.7904 28.6812 14.8766 28.4099 14.9839 28.1316 15.0624 27.8301 15.2608 27.5994 15.4473 27.366 15.6871 27.1696 15.8133 26.892 15.9682 26.5583 16.1477 26.2372 16.3503 25.9301 16.0706 25.4401 15.7866 24.8701 15.957 24.2938 16.1119 23.878 16.0692 23.4272 16.0586 22.9932 16.0341 22.6125 15.8175 22.2669 15.8476 21.8785 15.8743 21.4158 15.7817 20.9614 15.6359 20.5254 15.408 20.477 15.176 20.4174 14.9832 20.2821 14.8065 20.1082 14.6915 19.8705 14.477 19.7387 14.2771 19.6413 14.0647 19.5711 13.8516 19.5081 13.623 19.4414 13.4218 19.6125 13.2206 19.691 13.2942 19.3713 13.4232 19.0552 13.3952 18.72 13.3685 18.3723 13.2935 18.0252 13.3356 17.6754 13.405 17.083 13.4317 16.4807 13.3391 15.889 13.2781 15.4971 13.2599 15.0932 13.1154 14.7196 13.0467 14.5338 12.8995 14.3935 12.781 14.2386 12.5987 14.3052 12.4129 14.3599 12.225 14.4076 12.3716 14.0675 12.6457 13.6988 12.4669 13.3187 12.2138 13.3812 11.9502 13.3917 11.695 13.3314 11.7925 13.2129 11.8927 13.0972 11.9923 12.9808 11.9082 12.8981 11.824 12.8147 11.742 12.7298 12.1353 12.3653 12.6156 12.1115 13.0951 11.8787 12.9682 11.7644 12.8476 11.6431 12.734 11.5162 13.1204 11.2267 13.7036 11.1706 13.9385 10.7086 14.1383 10.3896 13.8733 10.046 13.8474 9.71581 13.7534 8.97827 13.4092 8.29889 13.3307 7.55855 13.2963 7.2816 13.3966 7.01448 13.4085 6.74037 13.3776 6.53703 13.2395 6.37368 13.1638 6.1872 13.0124 5.8766 13.1028 5.51133 12.9675 5.19584 12.9023 5.03387 12.8315 4.87122 12.7256 4.73103 12.5623 4.51578 12.2664 4.51508 12.0308 4.43583 12.3218 4.07689 12.6604 3.71093 13.1245 3.59103 13.534 3.47816 13.9 3.23627 14.3227 3.17177 14.6088 3.1262 14.8948 3.2552 15.1781 3.20121 15.4929 3.0042 15.6934 2.67469 15.8161 2.33185M130.164 4.3321C130.168 4.40502 130.176 4.55012 130.181 4.62304 130.332 4.58097 130.46 4.48912 130.547 4.35661 130.418 4.34751 130.29 4.33979 130.164 4.3321Z" fill="#FFFFFF" transform="matrix(1 0 0 2.32168 373.935 119.908)"/></g></g></g><path d="M105.286 10.6531C105.729 10.3829 106.186 10.1198 106.679 9.94964 107.288 9.8806 107.909 9.90202 108.521 9.94249 109.131 10.1329 109.473 10.7745 110.079 10.9828 110.492 11.1411 110.896 11.3316 111.272 11.5672 111.791 11.9017 112.162 12.4028 112.582 12.8444 113.147 12.7849 113.57 12.2993 114.148 12.2957 114.262 12.5099 114.377 12.7242 114.487 12.9432 115.043 12.6909 115.646 12.5611 116.195 12.2862 116.245 12.6242 116.294 12.9611 116.351 13.2979 116.715 13.1622 117.076 13.0134 117.43 12.8516 117.471 13.1539 117.498 13.4574 117.536 13.7609 118.71 13.186 119.978 12.8016 121.073 12.0791 121.126 12.0719 121.233 12.0576 121.287 12.0505 121.58 12.2659 121.825 12.5385 122.067 12.8099 122.132 12.4016 122.212 11.9922 122.381 11.6125 122.93 11.4613 123.5 11.5172 124.06 11.5077 124.492 12.573 124.941 13.73 125.901 14.4346 126.722 15.0072 127.699 15.3262 128.676 15.4821 129.164 15.6142 129.101 16.1558 129.127 16.5534 129.752 16.7462 130.405 16.8212 131.038 16.9819 131.308 16.6069 131.509 16.1903 131.738 15.7892 132.141 16.1022 132.395 16.5676 132.814 16.864 133.427 16.5081 133.902 15.9689 134.491 15.5797 134.999 15.2071 135.644 15.5297 136.212 15.4119 136.497 15.2202 136.754 14.9893 136.998 14.7465 137.123 14.9012 137.25 15.0572 137.377 15.2119 137.938 14.7025 138.503 14.199 139.01 13.6348 139.237 13.7681 139.459 13.9573 139.734 13.9657 140.169 13.7871 140.516 13.3491 141.024 13.3848 141.549 13.4586 142.035 13.8217 142.196 14.3382 142.387 14.9096 142.718 15.4643 143.242 15.7868 143.534 15.8713 143.711 15.519 143.945 15.3976 144.389 14.9798 145.034 15.0322 145.574 14.8286 146.039 14.7037 146.557 14.4918 147.023 14.7275 147.503 14.9774 147.821 15.475 148.351 15.6416 148.455 15.4107 148.545 15.1714 148.627 14.931 149.555 14.9167 150.484 14.9524 151.412 14.8977 151.557 14.7167 151.708 14.5382 151.858 14.3585 152.107 14.6346 152.362 14.9072 152.602 15.1929 152.911 14.956 153.219 14.7179 153.518 14.468 153.657 14.8536 153.799 15.2393 153.939 15.6249 154.69 15.5261 155.451 15.3405 156.089 14.9155 156.479 14.6394 156.631 14.1656 156.845 13.7598 157.319 14.243 157.816 14.7096 158.368 15.106 158.673 14.7679 158.951 14.4073 159.239 14.0538 159.773 14.3382 160.351 14.5144 160.907 14.7513 161.12 14.8596 161.365 14.8453 161.6 14.8596 161.996 14.4394 162.209 13.8895 162.587 13.455 163.383 13.43 163.726 14.2549 164.284 14.6668 164.767 14.6679 165.198 14.412 165.657 14.2942 165.646 14.6049 165.616 14.9155 165.578 15.225 165.815 15.0667 166.065 14.8501 166.374 14.9477 167.379 15.2917 168.451 15.3024 169.479 15.5404 170.197 15.4309 170.61 14.6596 171.33 14.5358 171.878 14.4346 172.465 14.4942 172.969 14.737 173.524 15.1322 173.886 15.7309 174.301 16.2606 174.78 15.4738 175.195 14.618 175.889 13.9919 176.262 13.7824 176.713 13.7931 177.131 13.7705 177.66 13.8145 177.998 13.3301 178.384 13.0468 178.874 12.5849 179.606 12.673 180.168 12.3469 180.918 12.0814 181.48 11.5042 182.11 11.0471 182.399 10.8543 182.727 11.1125 182.919 11.3316 183.59 12.1362 183.868 13.1932 184.535 14.0014 185.114 14.6882 185.628 15.4773 186.451 15.9011 187.052 16.1808 187.284 16.8474 187.587 17.389 187.608 17.2164 187.63 17.045 187.658 16.8736 188.538 16.5724 189.301 15.9951 189.895 15.2833 190.407 14.681 190.919 14.0609 191.561 13.5895 191.518 13.9502 191.459 14.3097 191.438 14.6739 191.84 15.1214 192.287 15.5261 192.759 15.8975 192.85 16.0046 193.017 16.0737 193.035 16.2296 193.125 17.1009 192.912 17.9615 192.831 18.8244 192.956 19.7921 193.536 20.6539 193.57 21.6407 193.515 22.5239 192.901 23.2654 192.889 24.1546 192.86 25.2389 192.476 26.278 192.013 27.2469 192.477 27.2446 192.895 27.0243 193.347 26.947 193.805 26.8529 194.274 26.8589 194.742 26.8446 193.923 27.5374 192.81 27.5136 191.801 27.5421 191.912 27.9147 192.055 28.2872 192.075 28.68 192.057 29.3228 191.876 29.9465 191.714 30.5643 191.539 31.1547 191.43 31.7641 191.206 32.339 190.784 32.3723 190.386 32.2414 189.983 32.1497 189.976 32.5413 189.988 32.9318 190.007 33.3234 190.267 33.4805 190.483 33.6959 190.681 33.9268 190.665 33.9899 190.632 34.1161 190.615 34.1792 190.354 34.2339 190.079 34.2589 189.845 34.3922 189.631 34.6398 189.526 34.9588 189.388 35.2504 189.063 36.042 188.676 36.8097 188.235 37.5429 187.998 37.9286 187.872 38.3666 187.799 38.8106 187.677 39.5879 187.447 40.358 187.496 41.1531 187.748 41.0876 188 41.0174 188.262 40.9769 188.085 41.6685 187.785 42.347 187.805 43.0742 187.924 44.0634 188.094 45.0632 188.51 45.9773 188.907 46.8796 189.472 47.6949 190.042 48.496 190.293 48.8947 190.787 49.0031 191.121 49.3125 191.546 49.6137 191.853 50.0731 192.333 50.2981 192.602 50.2053 192.856 50.0719 193.12 49.9612 193.157 50.6219 193.015 51.3479 193.369 51.9478 193.755 52.4894 194.253 52.9405 194.684 53.4464 194.576 53.5976 194.47 53.7487 194.367 53.9011 194.655 54.0106 194.937 54.1368 195.218 54.2677 195.196 55.0807 195.148 55.9056 195.311 56.7078 195.571 57.5731 196.53 57.8993 197.195 58.3968 197.242 58.6956 197.153 58.9967 197.122 59.2943 197.438 59.4455 197.758 59.5931 198.086 59.7252 197.423 60.5382 196.443 60.9631 195.504 61.3654 195.104 61.5082 194.695 61.6297 194.268 61.638 194.38 61.8713 194.577 62.0784 194.606 62.345 193.871 63.0497 192.922 63.452 192.05 63.9507 191.953 64.8672 191.866 65.8207 191.376 66.6265 190.996 67.3514 190.287 67.8132 189.575 68.1667 189.591 68.9773 189.647 69.7962 189.498 70.5985 189.243 70.7187 188.986 70.8342 188.729 70.9437 188.807 72.0649 188.776 73.2112 188.423 74.2884 188.161 75.0657 188.016 75.8715 187.878 76.6773 187.683 76.3214 187.524 75.9465 187.396 75.5632 187.198 75.6394 187.007 75.7263 186.816 75.812 186.886 76.1679 186.91 76.5595 187.146 76.857 187.318 77.1284 187.619 77.3796 187.572 77.7355 187.527 78.4497 187.314 79.1829 187.558 79.8863 188.011 81.0766 187.621 82.3895 188.021 83.5929 188.185 84.3237 188.571 85.0439 188.463 85.808 188.365 86.4258 187.698 86.5734 187.187 86.6948 186.734 86.7638 186.276 86.8186 185.82 86.7924 185.469 86.7591 185.188 86.5412 184.895 86.3734 184.532 86.2746 184.141 86.3901 183.781 86.2758 183.453 86.2092 183.167 86.0354 182.857 85.9247 182.238 85.7628 181.557 85.9259 181.104 86.3841 181.03 86.1627 180.954 85.9425 180.879 85.7247 180.313 85.8949 179.797 86.1758 179.289 86.4686 179.122 86.0973 178.957 85.7271 178.784 85.3593 178.673 85.4759 178.564 85.5914 178.454 85.7057 178.278 85.6295 178.117 85.514 177.931 85.4819 177.641 85.439 177.469 85.7176 177.262 85.8616 177.172 85.5926 177.084 85.3236 176.995 85.057 176.833 85.2236 176.67 85.3878 176.513 85.5581 176.182 85.0462 175.87 84.5166 175.458 84.0631 175.068 84.1345 174.743 84.363 174.469 84.6368 174.089 84.4225 174.136 83.9964 174.103 83.6191 173.384 84.169 172.592 84.7915 171.647 84.8046 171.215 84.638 170.871 84.3154 170.481 84.0773 170.276 84.3297 170.083 84.5927 169.885 84.8498 169.352 84.7094 168.863 84.4178 168.307 84.369 167.683 84.3214 167.068 84.1999 166.444 84.1618 166.301 84.3844 166.163 84.6094 166.022 84.8332 165.152 84.0154 164.869 82.8085 164.368 81.7658 164.178 82.3657 163.926 82.9513 163.522 83.4405 163.202 82.8954 163.207 82.1955 162.765 81.717 162.132 81.4885 161.439 81.4028 160.784 81.5861 160.47 81.6896 160.27 81.3801 160.045 81.2254 159.598 80.8314 159.008 80.6886 158.455 80.5172 158.481 81.1945 158.531 81.8717 158.519 82.5502 158.155 82.4002 157.797 82.2407 157.453 82.0527 157.091 82.399 156.849 82.8704 156.41 83.1322 155.916 83.1584 155.42 83.1049 154.929 83.1691 154.271 83.2418 153.74 83.6798 153.193 84.0107 152.718 83.4346 152.249 82.8549 151.788 82.2681 151.437 82.4633 151.036 82.4681 150.647 82.4728 150.554 83.1227 150.469 83.7798 150.24 84.3999 149.915 84.2868 149.608 84.0892 149.258 84.0857 148.757 84.3285 148.378 84.7558 147.947 85.0986 147.596 84.9712 147.259 84.5451 146.865 84.7499 146.058 85.145 145.259 85.5581 144.424 85.889 143.693 86.1413 143.249 87.0376 142.393 86.9364 142.293 86.8222 142.197 86.7079 142.103 86.5936 141.66 86.5865 141.215 86.6222 140.776 86.5662 140.461 86.3829 140.361 86.008 140.198 85.708 139.969 85.1986 139.685 84.7165 139.365 84.2607 139.235 84.4832 139.109 84.707 138.987 84.9332 138.79 84.7998 138.594 84.6689 138.403 84.5332 138.005 85.2069 137.739 85.9473 137.473 86.6805 136.757 86.6865 136.043 86.7126 135.329 86.6924 134.629 86.5889 133.928 86.4377 133.277 86.1532 132.963 86.0127 132.628 85.9318 132.294 85.8711 131.958 86.1318 131.713 86.4829 131.406 86.7722 131.264 86.9328 131.041 86.7983 130.931 86.6734 130.353 86.052 129.925 85.2819 129.218 84.7903 128.999 84.7201 128.76 84.7832 128.541 84.8177 127.5 85.1653 126.483 85.5795 125.497 86.0604 125.392 85.7616 125.309 85.4569 125.234 85.151 124.514 85.1343 123.793 85.1736 123.074 85.151 122.671 84.9082 122.567 84.4166 122.382 84.0202 122.104 84.1535 121.823 84.2844 121.527 84.3761 121.386 84.2285 121.248 84.0785 121.114 83.9286 120.543 84.4118 119.772 84.613 119.034 84.5927 118.261 84.6082 117.452 84.5213 116.722 84.8356 116.377 85.0689 116.234 85.4855 116.029 85.8295 115.824 85.6902 115.624 85.5426 115.425 85.3962 115.015 85.914 114.314 85.8771 113.719 85.8961 113.184 85.2819 112.601 84.7034 112.13 84.0369 111.609 84.2226 111.072 84.2083 110.545 84.0619 110.547 84.4773 110.516 84.8975 110.382 85.295 109.936 85.0427 109.478 84.6392 108.928 84.8106 108.318 85.0831 107.677 85.3057 107.011 85.3819 106.543 85.3533 106.21 84.9665 105.868 84.6903 105.557 85.2688 105.24 85.8473 104.851 86.3806 104.116 86.1996 103.356 86.208 102.604 86.2092 101.377 86.2722 100.166 85.8783 98.9393 86.0877 98.9417 85.3831 99.0476 84.6856 99.1476 83.9904 98.8369 84.1107 98.5287 84.2368 98.2263 84.3749 98.1537 84.0381 98.0894 83.7024 98.0264 83.3655 97.7978 83.6774 97.5502 83.975 97.28 84.2511 97.0087 83.9071 96.8182 83.5119 96.6861 83.0965 96.2873 83.3763 95.7922 83.2525 95.3411 83.2549 95.097 83.3156 94.8816 83.4881 94.6221 83.4751 94.3603 83.487 94.0663 83.431 93.8532 83.6203 93.2711 84.0369 92.6224 84.3713 91.9071 84.4737 91.4548 84.488 91.2715 85.0403 90.8227 85.0391 90.0883 85.0736 89.3729 85.3022 88.635 85.2557 88.604 85.495 88.5969 85.7366 88.5814 85.9794 88.3172 85.7557 88.1029 85.4878 87.8779 85.2295 87.209 85.3402 86.5353 85.4724 85.8556 85.351 85.858 85.2438 85.8616 85.1379 85.8675 85.0331 85.2462 84.8058 84.7915 84.3083 84.3273 83.8631 83.8964 83.4417 83.4143 83.0799 82.9692 82.6776 82.818 82.8323 82.6657 82.987 82.5109 83.1382 82.3193 83.1275 82.1288 83.1168 81.9396 83.1061 81.861 83.3786 81.9384 83.7595 81.6396 83.9119 81.2492 84.1523 80.7957 84.2725 80.3505 84.3618 80.3672 84.7475 80.3946 85.1319 80.3982 85.52 79.8411 85.1474 79.5483 84.4225 78.8782 84.2237 78.1473 84.3702 77.4105 84.5047 76.6642 84.5511 76.2988 84.5511 76.056 84.8986 75.7096 84.9641 75.3942 84.9748 75.0823 84.8998 74.7693 84.9272 74.3003 85.07 73.8444 85.4652 73.3302 85.2605 72.3661 84.9617 71.4698 84.1035 70.3985 84.4213 69.4487 84.6261 68.45 84.5308 67.5525 84.163 67.5478 84.4654 67.5478 84.7665 67.5418 85.0689 67.3014 84.9558 67.061 84.8463 66.8169 84.7439 66.6432 84.8915 66.4706 85.0403 66.3004 85.1926 65.7469 85.1391 65.1946 84.9403 64.6363 85.0677 64.1662 85.2581 63.8091 85.6366 63.3639 85.8759 63.183 85.6783 63.0056 85.4783 62.8449 85.2664 62.6962 85.6711 62.5712 86.0842 62.4271 86.4924 61.7475 86.2484 60.9952 86.3341 60.3156 86.5282 60.218 86.302 60.1216 86.077 60.0275 85.8509 59.5895 85.8842 59.0729 86.0092 58.7194 85.6664 57.9802 85.0665 57.1387 84.6189 56.296 84.1845 56.1936 84.3523 56.0924 84.5225 55.9746 84.6808 55.7353 84.7689 55.477 84.6891 55.2318 84.6808 54.8188 84.5999 54.4474 84.8975 54.0356 84.832 53.0774 84.7879 52.3323 84.1238 51.4979 83.7429 51.0349 83.7048 50.7456 84.2523 50.2683 84.2642 49.4232 84.4916 48.7995 83.7845 48.146 83.3894 47.4878 83.1049 46.7427 83.1715 46.0428 83.0799 45.3631 83.0489 44.6752 83.0335 44.0015 83.1334 43.2587 83.381 42.61 83.8429 41.8708 84.1 41.8792 84.4392 41.8887 84.7772 41.878 85.1177 41.6268 84.9677 41.3804 84.8141 41.1412 84.6487 41.0912 85.145 41.0626 85.6438 41.0198 86.1425 40.6103 85.9461 40.2068 85.5319 39.7247 85.6461 39.1332 86.0104 38.813 86.8388 38.0286 86.8448 37.9941 86.5186 37.9845 86.1901 37.9691 85.864 37.5227 86.1163 37.0514 86.3437 36.5562 86.4782 35.8515 86.2425 35.1659 85.8413 34.3994 85.8913 33.9506 85.8854 33.5198 86.0235 33.0936 86.1484 32.9413 86.4139 32.8068 86.6888 32.6604 86.959 32.3521 86.6281 32.1081 86.2437 31.801 85.9151 31.4177 85.664 30.8559 85.7806 30.5571 85.389 30.1715 84.9784 29.9275 84.4059 29.393 84.1583 28.7086 83.8071 27.9206 84.1238 27.2017 83.9464 26.2804 83.6072 25.3758 83.1501 24.6866 82.4371 24.2843 82.0669 24.5045 81.4754 24.4617 80.9993 24.2998 81.0992 24.1403 81.2028 23.9784 81.304 23.8213 79.8899 24.9461 78.5996 24.4724 77.1915 24.2295 76.1881 23.4071 75.5072 22.7643 74.7562 22.9143 74.2491 23.1369 73.7432 23.0833 73.2017 23.0845 72.272 22.6643 71.3912 22.725 70.4592 22.8238 69.6177 23.075 68.8059 23.269 67.9846 23.4059 67.3383 23.8237 66.811 24.0939 66.2206 24.4462 65.5243 24.5497 64.7351 24.8818 64.0305 24.9461 63.8103 25.1235 63.5841 25.0247 63.3496 24.708 62.4617 24.3605 61.5487 24.389 60.5905 24.3902 59.9906 24.5616 59.4062 24.5616 58.8063 24.5724 58.2469 24.545 57.6874 24.5295 57.128 24.5021 56.2079 24.1319 55.3294 24.17 54.4034 24.1915 53.4309 24.0427 52.4632 23.8082 51.5229 23.5035 51.4193 23.1773 51.3277 22.9464 51.0896 22.5881 50.7147 22.4846 50.1505 22.0739 49.8184 21.7823 49.6256 21.4764 49.4435 21.1491 49.3197 20.7908 49.2209 20.5432 49.572 20.2671 49.7339 20.3099 49.065 20.5027 48.4091 20.4742 47.7354 20.448 46.9784 20.3206 46.2261 20.3373 45.4667 20.4409 43.955 20.398 42.4338 20.2302 40.9281 20.1171 39.8093 20.0326 38.6344 19.4041 37.6632 19.1434 37.8024 18.8768 37.9322 18.6054 38.0524 18.7792 37.2573 19.1494 36.4586 18.9209 35.6337 18.5769 35.7861 18.2019 35.7932 17.8341 35.7468 17.8722 35.4361 18.0412 35.1719 18.1912 34.9065 18.065 34.7243 17.9401 34.541 17.8163 34.3577 18.3317 33.5924 19.0399 33.002 19.7457 32.4223 19.5791 32.1521 19.3982 31.8914 19.2232 31.6284 19.6707 31.1463 20.3099 30.8785 20.7015 30.3393 20.9741 29.8977 21.1288 29.3573 21.0122 28.8407 20.8967 28.3027 20.786 27.7647 20.7265 27.2184 20.473 25.2889 19.7041 23.3928 19.9933 21.4217 20.0969 20.8729 19.8279 20.3682 19.6588 19.8636 19.4113 19.1649 19.5077 18.4066 19.3244 17.6949 19.2149 17.2806 19.1113 16.8486 18.8744 16.4867 18.6602 16.1689 18.265 16.0892 17.9293 15.9689 18.3055 15.1976 18.7673 14.3597 19.5898 13.9978 20.1826 13.6919 20.692 13.2134 21.3562 13.0611 21.7204 13.0825 22.0763 13.1956 22.4453 13.1729 22.7631 12.8242 23.0155 12.4159 23.1523 11.9624 23.2773 11.6565 23.2868 11.278 23.5773 11.0697 23.607 11.2661 23.6332 11.4649 23.6582 11.6625 24.2664 11.5649 24.8568 11.3542 25.4758 11.3268 25.8531 11.3304 26.19 11.5268 26.5137 11.6994 26.9279 11.9386 27.3993 12.1529 27.6504 12.5849 27.8992 13.0658 27.9611 13.6133 28.1551 14.1145 28.3218 14.5013 28.7288 14.6918 29.0669 14.9048 29.6156 15.1107 30.175 14.8286 30.7035 14.6834 30.9999 15.0917 31.1404 15.5797 31.2951 16.0523 31.8891 15.813 32.4818 15.5404 32.9627 15.1084 33.3365 14.7656 33.734 14.4501 34.1792 14.2037 34.4399 14.4763 34.6244 14.806 34.7684 15.1524 34.8981 14.7382 35.016 14.3216 35.1267 13.9026 35.7468 13.9335 36.4086 13.7586 36.9895 14.0478 37.7239 14.4192 38.4083 14.8786 39.1046 15.3155 39.451 15.5571 39.8961 15.4214 40.239 15.2464 40.7805 14.9274 41.4281 15.0643 42.0256 15.0286 42.4803 14.9798 42.8493 15.2714 43.2575 15.4083 43.6122 15.4738 43.9741 15.4928 44.3335 15.5214 44.5966 16.0046 44.6597 16.5557 44.7763 17.0854 45.2632 17.058 45.7512 17.0319 46.238 17.0878 46.3106 16.6855 46.3868 16.282 46.4594 15.8797 46.5249 15.8773 46.657 15.8725 46.7237 15.8701 46.7832 16.1249 46.8367 16.3808 46.8796 16.6391 47.2938 16.6403 47.714 16.6498 48.1187 16.5522 48.6579 16.4165 49.2173 16.4617 49.766 16.4962 49.9779 16.4962 50.2279 16.5391 50.3969 16.376 51.0063 15.8737 51.5753 15.3167 52.2502 14.8989 52.543 15.0965 52.8358 15.294 53.1357 15.4821 53.3881 15.0119 53.569 14.4692 54.0047 14.1287 54.3379 14.0097 54.701 14.043 55.045 13.9716 55.6699 13.5134 56.0662 12.8313 56.4674 12.1862 56.6697 11.8886 57.0542 11.9969 57.3589 11.9565 57.6005 11.6101 57.8124 11.2423 58.0052 10.8662 58.5968 11.1364 59.2253 11.3375 59.7573 11.722 60.0525 11.5958 60.3334 11.4042 60.6584 11.3673 61.3559 11.9065 61.7987 12.6944 62.4093 13.3217 62.7473 13.3063 63.0354 13.1277 63.3223 12.9658 63.4449 13.1741 63.5686 13.3824 63.6901 13.5931 63.9805 13.4562 64.2697 13.3182 64.5685 13.1967 64.6411 13.4027 64.7101 13.6122 64.7815 13.8193 65.2291 13.2991 65.6386 12.7397 66.173 12.3028 66.7515 12.2314 67.1169 12.8956 67.6954 12.8397 67.8656 12.8539 67.9334 12.648 68.0156 12.5338 68.2417 12.0422 68.2631 11.4899 68.3786 10.9673 68.9797 11.0054 69.551 11.2209 70.1045 11.4446 70.5795 11.6268 70.7866 12.1291 71.0508 12.523 71.227 12.3695 71.396 12.2017 71.6019 12.0862 72.0376 12.01 72.522 12.2493 72.9172 11.9803 73.2374 11.7767 73.5861 11.6232 73.9587 11.5458 74.4443 11.4506 74.8157 11.0971 75.2585 10.8995 75.6406 10.7959 75.9393 11.1102 76.2571 11.2649 76.4857 11.0697 76.7071 10.8662 76.9356 10.6698 76.9963 10.9316 77.0582 11.1935 77.1094 11.4577 77.864 11.5053 78.6211 11.3982 79.3471 11.1935 80.2196 10.9304 81.1195 10.7852 82.0086 10.5948 82.349 10.5138 82.6918 10.621 83.0275 10.6781 83.7429 10.8424 84.4809 10.6483 85.2022 10.7745 85.6009 10.8519 86.0068 10.8769 86.4139 10.8912 86.5912 11.2316 86.7007 11.5994 86.771 11.9755 87.7161 11.647 88.7207 11.7636 89.7015 11.6863 89.9728 11.7315 90.2014 11.5649 90.4144 11.422 90.4109 11.6256 90.4121 11.8291 90.4204 12.0326 90.856 12.2231 91.3095 12.3695 91.7571 12.5314 92.2773 12.0434 92.7153 11.4708 93.2807 11.0304 93.3211 11.3697 93.3271 11.7113 93.3461 12.0529 93.952 11.9553 94.6305 11.6779 95.2089 12.0124 95.4839 12.1469 95.6993 12.3683 95.9267 12.5683 96.2362 12.3874 96.6278 12.3564 96.9396 12.554 97.5193 12.8694 98.1573 13.0646 98.8084 13.1634 99.638 13.2848 100.451 13.023 101.264 12.8956 101.785 12.8289 102.234 12.529 102.743 12.4171 103.256 12.2576 103.858 12.1779 104.217 11.7339 104.578 11.3792 104.832 10.9078 105.286 10.6531Z" fill="#FFFFFF" transform="matrix(1 0 0 1.03485 366.75 114.835)"/></g></svg>