<svg width="605" height="234" xmlns="http://www.w3.org/2000/svg" xmlns:xlink="http://www.w3.org/1999/xlink" xml:space="preserve" overflow="hidden"><defs><clipPath id="clip0"><rect x="0" y="0" width="605" height="234"/></clipPath></defs><g clip-path="url(#clip0)"><path d="M224.524 12.5681C230.228 11.4441 235.994 10.4126 241.829 10.4083 245.527 10.4831 248.543 12.9869 252.034 13.8728 258.755 15.4112 265.643 16.09 272.527 16.3281 274.062 16.381 275.614 16.4779 277.105 16.9011 282.857 18.4791 288.579 20.2247 294.454 21.2738 299.278 21.8953 304.061 20.5244 308.88 20.5333 312.979 20.6478 317.049 21.3223 321.157 21.2825 327.743 21.2297 334.101 19.3123 340.563 18.2719 344.312 17.7474 348.105 17.5755 351.894 17.6196 354.319 17.6064 356.414 19.3123 358.861 19.1712 365.573 18.585 372.458 17.1568 379.122 18.8759 381.143 19.2859 383.108 20.0176 385.169 20.2115 387.164 19.9513 388.295 17.5313 390.408 17.6593 394.508 17.8621 398.516 18.9023 402.418 20.1453 404.987 20.9652 407.478 22.098 410.165 22.4859 413.651 23.0898 417.199 22.9312 420.719 22.984 422.942 22.918 424.854 24.205 426.854 24.9896 431.829 27.2686 437.39 28.0399 442.156 30.8213 444.576 32.0071 447.054 34.0215 449.921 33.3162 455.45 31.919 460.984 30.1734 466.737 30.1205 470.831 29.9882 474.641 31.7558 478.597 32.5185 481.171 32.4567 483.805 31.7205 485.92 30.2043 487.085 29.3977 487.862 28.1325 489.085 27.4052 493.768 27.7139 498.402 29.0229 503.12 28.7629 507.558 27.7931 511.385 25.1704 515.42 23.1957 515.66 24.2535 515.901 25.3114 516.147 26.3737 517.779 25.642 519.343 24.6855 521.116 24.3197 523.609 25.0161 525.543 26.9291 527.951 27.8636 528.345 28.0884 528.767 28.1193 529.205 27.9562 531.414 27.3655 533.387 26.1357 535.567 25.4525 538.255 24.6062 541.008 23.9802 543.696 23.1207 544.625 22.7944 545.603 23.0678 546.541 23.2442 548.879 23.7863 551.313 23.6144 553.667 24.0728 556.924 24.5621 560.081 25.5231 563.269 26.3297 569.424 27.8195 575.805 27.101 582.071 27.3919 580.777 29.5827 578.707 31.7691 579.19 34.5284 579.764 36.3885 581.184 37.7991 582.233 39.3992 584.311 42.6082 586.108 46.0067 588.406 49.0746 590.975 52.526 590.954 57.0485 591.063 61.1612 591.124 64.8197 592.633 68.2756 594.729 71.2069 592.607 73.8472 591.515 77.1135 590.629 80.3405 589.879 83.0952 588.432 85.6123 586.511 87.7099 587.686 88.1203 588.866 88.5431 590.012 89.0415 588.945 89.1121 587.885 89.1645 586.828 89.2309 585.451 92.3204 584.083 95.4465 583.504 98.8093 586.849 98.5144 590.19 98.0508 593.554 97.9279 590.519 98.889 587.069 99.0917 584.521 101.185 584.008 102.715 585.003 104.178 585.946 105.293 587.402 107.092 589.362 108.705 589.801 111.102 590.247 113.391 590.69 115.691 590.896 118.019 590.476 120.694 588.901 123.044 588.661 125.769 590.98 125.333 593.304 124.909 595.658 124.662 594.544 126.588 593.457 128.55 592.001 130.238 590.98 131.405 589.984 132.601 589.204 133.945 589.612 135.29 590.383 136.462 591.212 137.586 589.937 138.737 588.38 139.799 587.885 141.54 587.318 143.625 587.372 145.926 586.214 147.816 585.122 149.479 583.442 150.664 582.434 152.392 581.72 153.498 581.5 154.816 581.189 156.077 579.303 156.228 577.418 156.4 575.542 156.562 575.239 158.069 574.604 159.622 574.993 161.164 576.133 164.337 579.559 165.986 580.663 169.186 581.452 171.522 582.228 173.872 582.785 176.274 583.337 178.223 582.298 180.211 582.755 182.163 583.644 184.327 585.731 185.724 586.617 187.889 586.99 190.106 586.359 192.403 586.942 194.597 587.604 196.344 589.314 197.291 590.743 198.336 590.033 199.879 589.332 201.603 589.796 203.326 590.37 205.516 591.072 207.901 592.949 209.343 596.167 211.732 600.355 212.463 603.37 215.179 604.822 216.501 606.489 217.55 608.215 218.481 607.085 218.437 605.962 218.37 604.848 218.33 605.488 219.568 606.287 220.751 606.686 222.109 606.948 223.885 605.713 225.555 605.98 227.327 607.001 229.438 608.922 230.946 609.899 233.093 609.158 235.218 607.585 236.887 606.703 238.938 606.102 240.305 606.349 241.833 606.349 243.284 602.147 242.274 597.965 241.212 593.79 240.115 592.479 239.643 591.164 240.225 589.871 240.41 588.914 240.621 588.034 240.07 587.139 239.85 584.175 238.916 581.08 239.762 578.067 239.815 576.672 239.806 575.511 238.845 574.156 238.686 572.113 238.726 570.113 239.723 568.07 239.198 564.014 238.241 559.937 237.351 555.99 236.006 554.921 235.68 553.749 235.121 552.671 235.706 550.326 236.791 548.282 238.436 545.945 239.527 544.625 240.159 543.134 240.027 541.723 240.053 537.825 240.044 533.945 240.621 530.186 241.635 528.275 242.2 526.35 241.38 524.465 241.092 523.943 241.892 523.43 242.693 522.926 243.5 520.848 243.341 518.769 243.139 516.691 243.213 515.257 243.275 513.871 244.161 512.437 243.676 509.521 242.962 506.615 242.045 503.589 242.04 500.082 242.045 496.582 242.359 493.084 242.623 489.667 242.922 486.23 243.046 482.859 243.712 480.907 244.007 478.881 244.505 476.93 243.98 472.861 242.997 468.709 242.314 464.522 242.177 461.287 242.068 458.875 239.484 455.819 238.81 454.579 238.986 453.403 239.453 452.176 239.669 449.615 240.133 447.019 239.692 444.444 239.779 442.288 239.987 440.376 241.151 438.249 241.476 436.359 241.34 434.79 240.067 432.927 239.815 431.567 239.921 430.396 240.882 429.029 240.855 424.162 239.471 419.614 237.104 414.752 235.715 413.406 237.25 412.195 238.894 411.077 240.604 408.709 239.435 406.557 237.752 404.015 237.007 399.8 236.751 395.517 237.686 391.794 239.695 390.241 238.427 388.654 237.188 386.895 236.227 385.139 235.27 383.094 235.315 381.161 235.155 377.373 234.94 373.589 234.698 369.806 234.511 367.398 234.336 365.381 236.46 362.965 235.949 358.173 234.799 353.49 233.234 348.925 231.395 349.368 232.533 349.859 233.657 350.325 234.79 346.324 235.327 342.303 236.196 338.254 235.807 332.382 235.116 326.656 233.406 320.731 233.176 317.969 233.379 315.742 235.315 313.072 235.896 306.012 237.677 298.888 235.208 291.797 235.015 288.574 234.834 285.831 237.205 282.604 236.985 279.525 236.866 276.456 236.632 273.382 236.576 269.703 236.505 266.078 237.328 262.403 237.24 258.382 237.003 254.545 235.619 250.582 235.054 245.654 235.103 241.133 237.667 236.218 237.848 233.008 237.651 229.886 236.751 226.681 236.518 223.889 236.222 220.99 236.567 218.329 235.491 216.184 234.949 214.062 233.485 211.787 234.15 205.758 235.715 199.843 238.007 193.573 238.408 189.061 238.643 184.545 238.827 180.033 239.048 173.131 239.537 166.16 237.91 159.31 239.312 158.513 239.383 157.605 239.779 156.891 239.247 155.316 238.316 153.835 237.24 152.322 236.218 152.08 237.024 151.835 237.832 151.594 238.639 149.143 237.906 146.704 237.144 144.249 236.439 144.223 237.672 144.206 238.907 144.179 240.145 138.795 239.277 133.42 238.32 128.053 237.333 124.519 236.588 121.222 238.717 117.715 238.629 114.465 238.188 111.378 237.019 108.295 235.944 107.081 235.534 105.88 234.953 104.569 235.002 97.3031 234.781 90.4676 237.615 83.6272 239.674 82.3563 238.695 81.0713 237.488 79.388 237.394 75.6513 237.055 71.9113 236.755 68.1936 236.288 66.588 236.151 64.975 235.777 63.3702 236.015 61.349 236.607 59.6823 238.047 57.6263 238.537 54.6176 238.007 51.7775 236.809 48.8613 235.927 47.4103 236.932 45.941 238.259 44.0644 238.21 38.6668 238.325 33.1121 238.443 28.0127 240.437 27.0343 240.772 25.9824 241.163 24.9346 240.89 20.8743 239.943 16.8974 238.615 12.7627 238.025 10.6186 237.682 8.44381 237.672 6.29524 237.439 8.67617 237.231 11.0614 237.083 13.4467 236.896 12.7364 235.654 11.8375 234.472 11.5174 233.057 11.763 231.405 12.5259 229.867 12.6487 228.191 12.8153 226.138 12.5697 224.004 13.3415 222.041 13.793 220.516 14.8234 219.018 14.4377 217.366 14.1352 216.004 13.6308 214.699 13.4028 213.324 14.8893 211.6 16.5422 210.031 18.1032 208.378 17.1605 206.389 15.8101 204.472 15.6697 202.211 15.6346 199.169 18.0506 196.922 18.7653 194.1 19.173 191.539 18.5461 188.925 18.9932 186.368 19.3747 184.195 20.9401 182.388 21.0716 180.158 21.1943 177.064 20.6375 173.872 21.6854 170.874 23.0844 166.873 25.1139 163.125 26.6311 159.168 28.1177 155.385 30.3761 151.929 31.5991 148.05 30.086 146.207 27.8937 145.137 26.3072 143.387 25.7808 142.862 25.8419 142.07 25.7849 141.391 25.7502 138.138 27.1707 134.986 26.6575 131.724 26.3154 129.22 25.9783 126.712 25.9122 124.181 25.908 122.683 26.5964 121.29 26.6708 119.8 25.7411 117.953 23.8339 116.913 22.225 115.736 22.4217 114.907 22.6151 114.079 22.8126 113.25 21.9705 112.854 21.1286 112.456 20.2911 112.054 21.9094 111.033 24.1669 110.469 24.8644 108.472 25.7279 105.012 26.2064 101.468 26.7848 97.9495 27.3112 94.595 30.4769 92.0829 30.1521 88.5298 29.6786 84.9112 28.9068 81.2527 29.3803 77.5896 29.8976 74.9095 31.5206 72.3574 31.0471 69.5451 30.2571 65.1239 26.9079 61.7916 25.4345 57.6525 25.4296 55.2414 27.6706 53.4737 27.5698 51.045 27.3988 48.938 25.9122 47.3071 25.0131 45.4822 23.729 43.1548 23.3951 40.3601 21.6813 38.2664 20.4226 36.4503 18.6249 34.9119 18.0155 32.7168 17.2876 29.045 18.4891 25.3114 20.1771 22.076 20.984 23.4205 21.6549 25.1131 23.3208 25.5671 27.1269 26.8851 31.0421 27.8637 34.8962 29.0406 36.2728 27.5771 37.628 26.0476 39.2857 24.8971 43.2141 24.9191 47.0723 26.6206 51.0536 26.0961 53.7549 25.7171 56.4067 24.875 58.7973 23.5395 60.5384 22.5654 61.7523 20.9344 63.0942 19.5018 63.4669 20.714 63.7999 21.9438 64.1685 23.1604 66.2732 23.1471 68.6753 23.8612 70.5388 22.5521 72.1262 21.0931 73.3855 19.3123 74.8275 17.7166 77.1999 18.6291 79.5451 20.0131 82.172 19.8323 84.456 19.6958 86.74 19.5987 89.0207 19.396 91.1518 19.1977 91.884 16.3855 94.0763 16.2928 97.9212 15.8565 101.702 14.9617 105.402 13.8243 106.73 15.3761 108.103 16.8923 109.55 18.3337 112.075 17.7122 114.189 15.8389 116.84 15.6889 119.788 15.8256 122.751 17.104 125.703 16.2575 131.415 14.6487 137.172 12.934 143.135 12.6827 149.516 12.3698 155.706 14.23 161.999 14.922 164.436 15.2349 166.032 12.5196 168.462 12.7533 174.516 13.2074 180.594 13.6834 186.667 13.2866 186.96 13.9082 187.254 14.5296 187.549 15.1557 189.797 14.6883 192.038 14.0095 194.353 13.9742 196.058 14.9353 197.545 16.3282 199.453 16.91 201.632 17.5667 204.057 18.5893 206.279 17.4962 208.555 16.7292 210.716 14.7677 213.246 15.4949 215.215 15.8785 217.145 16.4515 219.091 16.9451 219.517 15.8917 219.736 14.6751 220.555 13.842 221.767 13.1324 223.178 12.8898 224.524 12.5681Z" fill="#E8E8E9" transform="matrix(1.00231 0 0 1 -6.30973 -10.3093)"/></g></svg>