<svg width="605" height="340" xmlns="http://www.w3.org/2000/svg" xmlns:xlink="http://www.w3.org/1999/xlink" xml:space="preserve" overflow="hidden"><defs><clipPath id="clip0"><rect x="0" y="0" width="605" height="340"/></clipPath><clipPath id="clip1"><rect x="373" y="174" width="195" height="133"/></clipPath><clipPath id="clip2"><rect x="373" y="174" width="195" height="133"/></clipPath><clipPath id="clip3"><rect x="373" y="174" width="195" height="133"/></clipPath></defs><g clip-path="url(#clip0)"><path d="M225.013 12.5954C230.729 11.469 236.507 10.4352 242.356 10.431 246.061 10.5059 249.083 13.0152 252.583 13.903 259.318 15.4447 266.221 16.125 273.12 16.3637 274.659 16.4166 276.214 16.5138 277.709 16.9378 283.474 18.5193 289.207 20.2688 295.095 21.3201 299.929 21.943 304.723 20.569 309.553 20.5779 313.66 20.6928 317.739 21.3687 321.857 21.3288 328.456 21.2759 334.829 19.3543 341.305 18.3117 345.062 17.7861 348.863 17.6137 352.66 17.6579 355.09 17.6447 357.191 19.3543 359.643 19.213 366.369 18.6254 373.268 17.1942 379.947 18.917 381.973 19.3278 383.942 20.0611 386.008 20.2556 388.006 19.9948 389.141 17.5696 391.259 17.6977 395.367 17.9009 399.384 18.9434 403.294 20.1892 405.869 21.0108 408.365 22.1461 411.058 22.5348 414.552 23.1401 418.107 22.9811 421.635 23.0341 423.863 22.9679 425.779 24.2577 427.784 25.0441 432.77 27.3279 438.342 28.1009 443.119 30.8884 445.545 32.0767 448.027 34.0955 450.901 33.3888 456.442 31.9885 461.988 30.2391 467.753 30.1861 471.856 30.0535 475.675 31.825 479.639 32.5893 482.219 32.5274 484.859 31.7896 486.978 30.27 488.146 29.4616 488.924 28.1937 490.15 27.465 494.843 27.7742 499.487 29.0861 504.214 28.8255 508.663 27.8536 512.499 25.2252 516.542 23.2461 516.782 24.3063 517.025 25.3665 517.27 26.4312 518.906 25.6978 520.474 24.7393 522.25 24.3726 524.75 25.0706 526.687 26.9877 529.101 27.9243 529.496 28.1496 529.918 28.1805 530.357 28.017 532.571 27.4251 534.548 26.1926 536.733 25.508 539.427 24.6598 542.186 24.0324 544.88 23.171 545.811 22.8441 546.791 23.1181 547.732 23.2948 550.074 23.8381 552.513 23.6658 554.872 24.1252 558.137 24.6157 561.3 25.5787 564.495 26.387 570.664 27.88 577.058 27.16 583.338 27.4516 582.041 29.6472 579.968 31.8382 580.451 34.6036 581.027 36.4677 582.449 37.8814 583.5 39.485 585.583 42.7009 587.385 46.1069 589.687 49.1815 592.262 52.6403 592.241 57.1727 592.35 61.2944 592.411 64.9608 593.923 68.4242 596.024 71.3619 593.898 74.0079 592.803 77.2814 591.915 80.5154 591.163 83.2761 589.713 85.7987 587.789 87.9009 588.966 88.3121 590.148 88.7359 591.296 89.2354 590.228 89.3061 589.165 89.3586 588.106 89.4252 586.726 92.5214 585.355 95.6543 584.775 99.0244 588.127 98.7289 591.475 98.2643 594.846 98.1411 591.805 99.1043 588.347 99.3075 585.793 101.405 585.28 102.938 586.277 104.405 587.222 105.523 588.681 107.324 590.646 108.941 591.085 111.344 591.533 113.638 591.976 115.943 592.183 118.276 591.762 120.957 590.183 123.312 589.943 126.043 592.267 125.606 594.596 125.182 596.955 124.933 595.839 126.864 594.749 128.831 593.29 130.522 592.267 131.692 591.269 132.89 590.486 134.237 590.895 135.584 591.668 136.759 592.5 137.886 591.221 139.039 589.661 140.104 589.165 141.848 588.597 143.938 588.65 146.243 587.491 148.138 586.396 149.804 584.712 150.992 583.702 152.724 582.987 153.832 582.766 155.153 582.454 156.418 580.564 156.568 578.676 156.74 576.795 156.903 576.491 158.413 575.855 159.97 576.245 161.515 577.388 164.695 580.82 166.347 581.928 169.554 582.718 171.895 583.495 174.25 584.054 176.658 584.606 178.61 583.566 180.603 584.023 182.559 584.914 184.729 587.007 186.129 587.895 188.298 588.268 190.52 587.635 192.822 588.22 195.021 588.883 196.772 590.596 197.721 592.029 198.767 591.318 200.314 590.615 202.041 591.08 203.769 591.656 205.964 592.359 208.354 594.239 209.799 597.465 212.193 601.662 212.926 604.684 215.648 606.14 216.973 607.809 218.024 609.539 218.956 608.407 218.913 607.281 218.846 606.165 218.806 606.806 220.046 607.607 221.232 608.007 222.592 608.27 224.372 607.031 226.046 607.299 227.822 608.322 229.938 610.247 231.449 611.227 233.6 610.484 235.73 608.908 237.403 608.024 239.457 607.422 240.828 607.669 242.36 607.669 243.813 603.458 242.801 599.267 241.737 595.083 240.637 593.77 240.164 592.451 240.748 591.156 240.933 590.196 241.145 589.314 240.593 588.418 240.372 585.448 239.436 582.345 240.285 579.325 240.337 577.927 240.328 576.764 239.366 575.407 239.206 573.359 239.245 571.355 240.244 569.306 239.718 565.242 238.76 561.156 237.868 557.201 236.52 556.129 236.193 554.955 235.633 553.874 236.22 551.524 237.306 549.475 238.955 547.134 240.049 545.811 240.682 544.317 240.549 542.902 240.576 538.997 240.566 535.107 241.145 531.341 242.161 529.425 242.727 527.496 241.906 525.606 241.618 525.084 242.419 524.57 243.222 524.064 244.031 521.982 243.871 519.898 243.668 517.817 243.743 516.378 243.804 514.99 244.693 513.553 244.206 510.631 243.49 507.718 242.572 504.685 242.567 501.17 242.572 497.664 242.886 494.157 243.151 490.734 243.451 487.289 243.575 483.91 244.243 481.955 244.538 479.924 245.038 477.969 244.511 473.89 243.527 469.729 242.841 465.533 242.705 462.291 242.594 459.874 240.006 456.811 239.33 455.569 239.506 454.39 239.975 453.16 240.191 450.594 240.656 447.992 240.214 445.412 240.301 443.25 240.509 441.335 241.675 439.203 242.002 437.31 241.865 435.737 240.59 433.87 240.337 432.506 240.443 431.334 241.407 429.963 241.379 425.085 239.993 420.528 237.62 415.655 236.229 414.306 237.766 413.093 239.414 411.973 241.128 409.599 239.956 407.442 238.27 404.894 237.523 400.67 237.267 396.378 238.203 392.647 240.217 391.091 238.945 389.5 237.704 387.738 236.742 385.977 235.782 383.928 235.827 381.991 235.667 378.195 235.452 374.402 235.209 370.611 235.022 368.198 234.846 366.176 236.975 363.755 236.462 358.952 235.311 354.26 233.741 349.685 231.899 350.129 233.039 350.621 234.166 351.087 235.3 347.079 235.84 343.049 236.71 338.99 236.321 333.106 235.628 327.367 233.914 321.429 233.685 318.662 233.888 316.429 235.827 313.754 236.409 306.678 238.194 299.539 235.721 292.433 235.527 289.202 235.345 286.453 237.722 283.219 237.501 280.134 237.381 277.057 237.148 273.977 237.091 270.29 237.02 266.657 237.846 262.974 237.757 258.945 237.518 255.1 236.132 251.128 235.566 246.189 235.615 241.658 238.185 236.732 238.367 233.516 238.168 230.387 237.267 227.174 237.033 224.376 236.737 221.471 237.082 218.805 236.003 216.655 235.461 214.528 233.994 212.248 234.66 206.206 236.229 200.278 238.525 193.994 238.927 189.473 239.163 184.947 239.347 180.425 239.569 173.508 240.058 166.521 238.428 159.658 239.833 158.858 239.904 157.949 240.301 157.233 239.768 155.655 238.835 154.169 237.757 152.653 236.732 152.412 237.541 152.166 238.35 151.924 239.159 149.468 238.424 147.024 237.661 144.564 236.954 144.536 238.19 144.52 239.427 144.493 240.668 139.097 239.798 133.711 238.839 128.332 237.85 124.79 237.103 121.485 239.236 117.97 239.148 114.714 238.707 111.621 237.536 108.531 236.458 107.314 236.047 106.11 235.464 104.796 235.514 97.515 235.292 90.6646 238.132 83.8092 240.196 82.5356 239.215 81.2479 238.005 79.5609 237.911 75.8161 237.571 72.0679 237.271 68.3421 236.803 66.733 236.666 65.1165 236.29 63.5082 236.529 61.4826 237.121 59.8123 238.566 57.7518 239.057 54.7365 238.525 51.8902 237.324 48.9677 236.441 47.5135 237.448 46.041 238.778 44.1604 238.728 38.751 238.844 33.1842 238.963 28.0738 240.96 27.0932 241.296 26.039 241.688 24.9889 241.414 20.9197 240.465 16.9342 239.134 12.7904 238.543 10.6416 238.199 8.46219 238.19 6.30894 237.956 8.69507 237.748 11.0855 237.599 13.476 237.412 12.7642 236.167 11.8633 234.983 11.5424 233.564 11.7886 231.908 12.5532 230.367 12.6763 228.688 12.8433 226.63 12.5971 224.492 13.3705 222.525 13.8231 220.996 14.8557 219.496 14.4691 217.839 14.1659 216.474 13.6605 215.166 13.4321 213.788 14.9217 212.06 16.5782 210.488 18.1426 208.831 17.1978 206.838 15.8445 204.918 15.7038 202.652 15.6687 199.602 18.0899 197.35 18.8062 194.522 19.2148 191.956 18.5865 189.336 19.0346 186.774 19.4169 184.596 20.9857 182.786 21.1176 180.551 21.2405 177.45 20.6824 174.25 21.7326 171.246 23.1346 167.236 25.1686 163.48 26.6891 159.514 28.1789 155.724 30.4422 152.261 31.6679 148.372 30.1516 146.526 27.9545 145.452 26.3644 143.699 25.8369 143.173 25.8982 142.379 25.841 141.698 25.8063 138.438 27.2298 135.28 26.7156 132.011 26.3727 129.501 26.0349 126.987 25.9686 124.451 25.9645 122.95 26.6543 121.554 26.7288 120.061 25.7972 118.21 23.8859 117.167 22.2735 115.988 22.4705 115.158 22.6643 114.327 22.8623 113.496 22.0183 113.099 21.1746 112.7 20.3352 112.298 21.957 111.275 24.2195 110.709 24.9185 108.708 25.7839 105.24 26.2634 101.689 26.8431 98.1628 27.3706 94.801 30.5432 92.2834 30.2178 88.7226 29.7432 85.0961 28.9698 81.4296 29.4443 77.7585 29.9627 75.0727 31.5892 72.5149 31.1146 69.6965 30.3229 65.2656 26.9665 61.9261 25.4899 57.778 25.4849 55.3617 27.7309 53.5902 27.6299 51.1561 27.4584 49.0446 25.9686 47.41 25.0676 45.5812 23.7806 43.2488 23.4461 40.448 21.7285 38.3497 20.467 36.5296 18.6655 34.9879 18.0548 32.788 17.3252 29.1083 18.5293 25.3666 20.221 22.1241 21.0297 23.4715 21.702 25.1678 23.3716 25.6228 27.186 26.9436 31.1097 27.9243 34.9721 29.1038 36.3518 27.6372 37.71 26.1043 39.3712 24.9514 43.3082 24.9734 47.1748 26.6786 51.1648 26.1529 53.872 25.7731 56.5295 24.9291 58.9253 23.5907 60.6702 22.6145 61.8867 20.98 63.2316 19.5442 63.6051 20.7591 63.9389 21.9916 64.3082 23.2108 66.4175 23.1975 68.8248 23.9131 70.6924 22.6013 72.2832 21.139 73.5453 19.3544 74.9903 17.7552 77.368 18.6697 79.7183 20.0567 82.3509 19.8755 84.6399 19.7387 86.9289 19.6414 89.2145 19.4383 91.3503 19.2394 92.084 16.4211 94.2811 16.3283 98.1345 15.891 101.923 14.9943 105.632 13.8544 106.963 15.4096 108.338 16.9291 109.788 18.3736 112.319 17.7508 114.438 15.8733 117.095 15.7231 120.049 15.8601 123.018 17.1412 125.976 16.293 131.702 14.6806 137.471 12.9621 143.447 12.7102 149.841 12.3968 156.046 14.2609 162.352 14.9545 164.794 15.2681 166.394 12.5468 168.829 12.781 174.897 13.2361 180.988 13.7131 187.074 13.3155 187.368 13.9385 187.662 14.5613 187.957 15.1887 190.211 14.7203 192.456 14.04 194.776 14.0046 196.486 14.9678 197.975 16.3637 199.887 16.9468 202.071 17.6049 204.501 18.6298 206.729 17.5343 209.009 16.7656 211.175 14.7999 213.711 15.5286 215.684 15.913 217.618 16.4873 219.568 16.9821 219.995 15.9263 220.215 14.707 221.036 13.8722 222.25 13.161 223.664 12.9179 225.013 12.5955Z" fill="#E8E8E9" transform="matrix(1 0 0 1.45106 -6.26953 -15.1359)"/><path d="M285.948 16.9918C291.657 15.8728 297.427 14.8459 303.267 14.8416 306.968 14.9161 309.987 17.4088 313.48 18.2908 320.207 19.8223 327.102 20.4981 333.993 20.7351 335.527 20.7878 337.082 20.8843 338.573 21.3055 344.33 22.8766 350.058 24.6144 355.937 25.6589 360.764 26.2777 365.551 24.9128 370.375 24.9216 374.477 25.0358 378.551 25.7072 382.662 25.6676 389.254 25.6149 395.618 23.706 402.086 22.6704 405.836 22.1482 409.634 21.977 413.425 22.0208 415.851 22.0077 417.949 23.706 420.397 23.5656 427.118 22.982 434.007 21.5601 440.678 23.2716 442.701 23.6797 444.668 24.4082 446.729 24.6013 448.726 24.3423 449.857 21.9331 451.972 22.0604 456.077 22.2623 460.088 23.2979 463.992 24.5354 466.566 25.3516 469.056 26.4796 471.745 26.8656 475.236 27.4668 478.786 27.3089 482.31 27.3615 484.534 27.2958 486.447 28.5772 488.45 29.3583 493.429 31.6271 498.995 32.395 503.766 35.1642 506.187 36.3446 508.666 38.3501 511.536 37.6479 517.069 36.2569 522.608 34.5191 528.366 34.4663 532.464 34.3347 536.278 36.0946 540.237 36.8538 542.814 36.7924 545.45 36.0592 547.565 34.5498 548.733 33.7467 549.508 32.4872 550.732 31.7632 555.421 32.0704 560.057 33.3735 564.781 33.1149 569.222 32.1493 573.053 29.5382 577.091 27.5723 577.332 28.6255 577.573 29.6786 577.817 30.7363 579.45 30.0078 581.018 29.0555 582.789 28.6913 585.287 29.3847 587.224 31.2892 589.632 32.2195 590.029 32.4433 590.447 32.4741 590.886 32.3117 593.099 31.7236 595.073 30.4993 597.254 29.8191 599.946 28.9766 602.701 28.3532 605.39 27.4976 606.32 27.1728 607.3 27.445 608.237 27.6206 610.577 28.1603 613.015 27.989 615.371 28.4455 618.631 28.9327 621.788 29.8893 624.981 30.6924 631.141 32.1756 637.526 31.4603 643.798 31.7499 642.501 33.9308 640.432 36.1077 640.914 38.8548 641.489 40.7065 642.911 42.111 643.96 43.704 646.042 46.8987 647.839 50.2822 650.139 53.3364 652.71 56.7725 652.69 61.2751 652.799 65.3693 652.858 69.0118 654.369 72.4521 656.468 75.3703 654.343 77.999 653.251 81.2508 652.363 84.4631 651.614 87.2059 650.166 89.7118 648.242 91.8006 649.42 92.2088 650.598 92.6301 651.746 93.1259 650.677 93.1959 649.618 93.2488 648.559 93.3147 647.18 96.3908 645.811 99.502 645.233 102.85 648.583 102.557 651.925 102.096 655.29 101.973 652.254 102.93 648.799 103.131 646.25 105.216 645.739 106.739 646.735 108.196 647.678 109.305 649.133 111.097 651.096 112.703 651.535 115.09 651.981 117.367 652.426 119.658 652.631 121.975 652.212 124.639 650.634 126.978 650.393 129.69 652.716 129.256 655.043 128.834 657.398 128.588 656.283 130.505 655.194 132.46 653.736 134.14 652.716 135.303 651.72 136.492 650.938 137.83 651.344 139.169 652.115 140.336 652.947 141.455 651.671 142.6 650.113 143.659 649.618 145.391 649.05 147.468 649.104 149.758 647.946 151.64 646.853 153.295 645.17 154.475 644.161 156.195 643.448 157.297 643.227 158.609 642.914 159.864 641.03 160.014 639.143 160.185 637.262 160.347 636.962 161.847 636.325 163.394 636.715 164.928 637.855 168.088 641.284 169.729 642.39 172.915 643.178 175.241 643.956 177.58 644.514 179.971 645.065 181.912 644.025 183.891 644.481 185.834 645.372 187.989 647.461 189.381 648.348 191.535 648.721 193.743 648.09 196.029 648.675 198.214 649.335 199.952 651.047 200.896 652.479 201.936 651.766 203.472 651.067 205.188 651.529 206.903 652.106 209.085 652.805 211.459 654.686 212.894 657.906 215.273 662.096 216.001 665.115 218.704 666.57 220.021 668.236 221.065 669.965 221.991 668.834 221.947 667.709 221.881 666.593 221.841 667.237 223.074 668.035 224.251 668.435 225.603 668.698 227.37 667.461 229.034 667.728 230.799 668.748 232.9 670.671 234.401 671.651 236.538 670.909 238.654 669.332 240.316 668.451 242.357 667.851 243.718 668.094 245.24 668.094 246.685 663.891 245.678 659.704 244.622 655.528 243.528 654.214 243.059 652.898 243.639 651.604 243.823 650.647 244.033 649.766 243.484 648.873 243.265 645.903 242.335 642.805 243.178 639.793 243.23 638.394 243.221 637.232 242.265 635.876 242.106 633.831 242.147 631.831 243.139 629.786 242.616 625.727 241.664 621.646 240.778 617.697 239.438 616.624 239.114 615.453 238.557 614.374 239.14 612.025 240.219 609.979 241.857 607.643 242.945 606.32 243.574 604.829 243.441 603.417 243.467 599.513 243.458 595.63 244.033 591.869 245.043 589.955 245.605 588.029 244.789 586.141 244.502 585.62 245.298 585.109 246.096 584.604 246.899 582.522 246.741 580.443 246.54 578.361 246.614 576.926 246.676 575.541 247.557 574.106 247.074 571.185 246.363 568.279 245.45 565.249 245.446 561.74 245.45 558.239 245.763 554.734 246.026 551.317 246.324 547.875 246.448 544.503 247.109 542.55 247.404 540.52 247.9 538.567 247.378 534.496 246.398 530.339 245.719 526.149 245.582 522.912 245.474 520.497 242.902 517.438 242.23 516.198 242.405 515.02 242.871 513.792 243.086 511.229 243.546 508.632 243.108 506.056 243.195 503.895 243.402 501.984 244.561 499.853 244.885 497.963 244.749 496.392 243.481 494.527 243.23 493.164 243.336 491.993 244.293 490.628 244.265 485.754 242.888 481.204 240.532 476.338 239.149 474.989 240.676 473.778 242.313 472.659 244.016 470.29 242.853 468.136 241.176 465.589 240.435 461.372 240.18 457.086 241.111 453.358 243.112 451.808 241.848 450.217 240.615 448.459 239.658 446.7 238.706 444.655 238.75 442.717 238.592 438.926 238.377 435.139 238.136 431.351 237.951 428.943 237.776 426.923 239.891 424.505 239.382 419.711 238.236 415.022 236.679 410.453 234.848 410.898 235.981 411.39 237.1 411.855 238.227 407.853 238.762 403.828 239.628 399.773 239.241 393.896 238.552 388.165 236.849 382.236 236.621 379.472 236.823 377.241 238.75 374.572 239.33 367.504 241.102 360.374 238.645 353.278 238.452 350.051 238.271 347.305 240.632 344.076 240.413 340.994 240.295 337.922 240.062 334.847 240.006 331.166 239.935 327.535 240.755 323.858 240.667 319.834 240.43 315.994 239.053 312.027 238.49 307.094 238.539 302.57 241.093 297.651 241.273 294.438 241.076 291.314 240.18 288.107 239.947 285.311 239.654 282.411 239.997 279.747 238.926 277.6 238.386 275.476 236.929 273.199 237.591 267.166 239.149 261.245 241.431 254.969 241.83 250.453 242.063 245.933 242.247 241.419 242.468 234.51 242.954 227.533 241.334 220.678 242.73 219.88 242.8 218.971 243.195 218.256 242.665 216.681 241.738 215.197 240.667 213.684 239.649 213.442 240.452 213.196 241.256 212.955 242.059 210.502 241.33 208.061 240.571 205.604 239.87 205.578 241.097 205.561 242.326 205.534 243.559 200.145 242.695 194.765 241.743 189.394 240.76 185.857 240.018 182.557 242.138 179.046 242.05 175.795 241.611 172.706 240.447 169.62 239.377 168.404 238.969 167.202 238.39 165.89 238.438 158.618 238.219 151.777 241.041 144.931 243.09 143.659 242.115 142.372 240.913 140.687 240.821 136.947 240.483 133.205 240.184 129.484 239.719 127.877 239.584 126.263 239.21 124.657 239.447 122.633 240.036 120.965 241.471 118.908 241.958 115.897 241.431 113.053 240.239 110.135 239.36 108.683 240.36 107.213 241.682 105.335 241.632 99.9322 241.747 94.3722 241.865 89.2683 243.85 88.2897 244.183 87.2366 244.573 86.1877 244.301 82.1242 243.358 78.1438 242.036 74.0058 241.449 71.8599 241.106 69.6832 241.097 67.5327 240.865 69.9158 240.658 72.3029 240.51 74.6904 240.325 73.9794 239.089 73.0796 237.912 72.7593 236.503 73.0051 234.857 73.7689 233.326 73.8916 231.658 74.0582 229.614 73.8127 227.49 74.5848 225.536 75.0368 224.017 76.0682 222.526 75.6821 220.881 75.3793 219.525 74.8744 218.225 74.6465 216.856 76.1341 215.141 77.7885 213.579 79.3508 211.933 78.4071 209.952 77.0557 208.044 76.9151 205.794 76.8802 202.765 79.2979 200.528 80.0132 197.718 80.4213 195.169 79.7938 192.566 80.2416 190.022 80.6233 187.857 82.1902 186.059 82.3218 183.839 82.4446 180.758 81.8873 177.58 82.9362 174.596 84.3361 170.612 86.3678 166.881 87.8862 162.941 89.3736 159.176 91.6337 155.735 92.8581 151.873 91.3444 150.039 89.1499 148.972 87.5613 147.231 87.035 146.708 87.096 145.918 87.0393 145.242 87.004 142.004 88.426 138.867 87.9123 135.619 87.5702 133.126 87.2323 130.629 87.1666 128.109 87.162 126.618 87.851 125.231 87.9255 123.748 86.9954 121.908 85.0864 120.874 83.476 119.702 83.6732 118.877 83.8662 118.052 84.0639 117.227 83.2212 116.832 82.3786 116.436 81.5406 116.038 83.1599 115.02 85.42 114.457 86.1174 112.47 86.9822 109.025 87.4603 105.496 88.0397 101.995 88.5663 98.6551 91.7346 96.1539 91.4099 92.6169 90.9361 89.014 90.1638 85.3718 90.6376 81.7249 91.1556 79.0567 92.7792 76.5159 92.3051 73.7161 91.5153 69.3144 88.1627 65.9968 86.6879 61.8762 86.6836 59.4756 88.9262 57.716 88.8253 55.298 88.6541 53.2006 87.1666 51.5765 86.2669 49.7599 84.9811 47.4428 84.6476 44.6604 82.9316 42.5762 81.6722 40.7681 79.873 39.2366 79.263 37.051 78.5345 33.3956 79.7368 29.6786 81.4264 26.4575 82.2341 27.796 82.9055 29.4812 84.573 29.9332 88.3821 31.2453 92.3008 32.2195 96.1581 33.391 97.5363 31.9343 98.8923 30.4115 100.551 29.2662 104.483 29.2881 108.344 30.982 112.329 30.4598 115.032 30.0824 117.688 29.2442 120.08 27.9145 121.822 26.9447 123.037 25.321 124.38 23.8947 124.753 25.1015 125.087 26.3259 125.455 27.537 127.562 27.524 129.966 28.2348 131.831 26.9315 133.42 25.4789 134.68 23.706 136.123 22.1174 138.498 23.0259 140.845 24.4038 143.474 24.2238 145.76 24.0878 148.046 23.9912 150.329 23.7894 152.462 23.5919 153.194 20.7922 155.388 20.7 159.237 20.2656 163.02 19.3747 166.724 18.2425 168.052 19.7873 169.427 21.2968 170.875 22.7318 173.403 22.113 175.518 20.248 178.172 20.0988 181.122 20.2348 184.089 21.5075 187.042 20.6648 192.76 19.0631 198.521 17.356 204.489 17.1059 210.875 16.7944 217.071 18.6463 223.369 19.3353 225.808 19.6468 227.406 16.9435 229.837 17.1762 235.897 17.6282 241.98 18.1021 248.058 17.7071 248.352 18.3259 248.645 18.9446 248.94 19.5678 251.191 19.1026 253.434 18.4268 255.751 18.3917 257.457 19.3484 258.945 20.7351 260.854 21.3144 263.035 21.9682 265.463 22.9863 267.687 21.898 269.965 21.1344 272.128 19.1816 274.66 19.9056 276.63 20.2875 278.562 20.858 280.51 21.3494 280.936 20.3006 281.155 19.0894 281.975 18.26 283.187 17.5536 284.6 17.3122 285.948 16.9918Z" fill="#E8E8E9" transform="matrix(1 0 0 1.45936 -67.0905 -21.9637)"/><g clip-path="url(#clip1)"><g clip-path="url(#clip2)"><g clip-path="url(#clip3)"><path d="M130.164 4.3321C130.29 4.33979 130.418 4.34751 130.547 4.35661 130.46 4.48912 130.332 4.58097 130.181 4.62304 130.176 4.55012 130.168 4.40502 130.164 4.3321Z" fill="#B5C09E" transform="matrix(1 0 0 3.40246 373.935 175.727)"/><path d="M15.8161 2.33185C15.8518 2.32624 15.9233 2.31643 15.9591 2.31152 15.9703 2.39565 15.9815 2.47978 15.9934 2.56392 16.344 2.47908 16.7072 2.47768 17.0612 2.41178 17.2786 2.36761 17.498 2.42159 17.702 2.49661 18.0316 2.62 18.38 2.71746 18.6653 2.93129 18.8448 3.11638 18.9037 3.37578 18.9963 3.60855 19.0783 3.84551 19.3531 3.90721 19.5522 4.0145 19.9329 4.20379 20.355 4.04324 20.7406 3.96191 20.9733 4.09161 21.0519 4.36714 21.1655 4.5908 21.5055 4.47721 21.8659 4.41623 22.182 4.23883 22.501 4.0958 22.7843 3.86234 23.132 3.79153 23.3297 3.84831 23.4258 4.06356 23.5513 4.21078 23.6291 4.02499 23.7083 3.83851 23.789 3.65342 24.1879 3.67727 24.5945 3.60644 24.9878 3.69199 25.5074 3.88477 26.022 4.0923 26.5232 4.32857 26.9068 4.5263 27.2973 4.20309 27.6892 4.20798 28.1631 4.2122 28.6623 4.14067 29.1124 4.32857 29.4083 4.45408 29.7343 4.39799 30.0442 4.44355 30.2433 4.62726 30.2643 4.9147 30.3449 5.15869 30.68 5.13906 31.0173 5.12151 31.3517 5.16918 31.4036 4.99042 31.4548 4.81163 31.5052 4.63214 31.5494 4.62934 31.6377 4.62304 31.6819 4.62023 31.7198 4.73871 31.7562 4.85719 31.792 4.9764 32.3452 5.01424 32.8906 4.86914 33.4437 4.91539 33.7066 4.92381 33.9914 5.01497 34.2319 4.85931 34.6407 4.63917 35.036 4.3938 35.4735 4.22972 35.6642 4.3321 35.8641 4.41762 36.068 4.49265 36.232 4.27321 36.4052 4.04535 36.6484 3.90793 36.9361 3.80064 37.2789 3.93037 37.5488 3.75649 37.848 3.56859 38.1209 3.33793 38.3479 3.06661 38.5122 2.85908 38.8157 3.02804 39.0239 2.91377 39.1843 2.78897 39.3063 2.62351 39.4317 2.46506 39.7837 2.5562 40.1407 2.63753 40.4717 2.79177 40.7429 2.95302 41.0052 2.65996 41.282 2.71044 41.7063 2.95232 42.0329 3.33163 42.4312 3.60997 42.6463 3.61205 42.8469 3.52022 43.0432 3.4417 43.1253 3.53705 43.2072 3.63448 43.2873 3.73264 43.4906 3.65622 43.7014 3.60294 43.9155 3.56579 43.9525 3.66045 43.9911 3.75507 44.0304 3.84973 44.3257 3.60436 44.6325 3.36809 44.9684 3.18228 45.3673 3.08834 45.7005 3.51181 46.105 3.41854 46.3904 3.24258 46.4442 2.88572 46.5178 2.58705 46.9289 2.61369 47.3353 2.69782 47.7273 2.82262 47.9903 2.89063 48.1529 3.11989 48.3251 3.31128 48.4423 3.23907 48.5601 3.16405 48.6914 3.11778 48.9814 3.0645 49.2872 3.21664 49.5697 3.08834 49.8376 2.97476 50.1216 2.90535 50.4117 2.8752 50.7139 2.85207 50.96 2.63823 51.2599 2.60458 51.4836 2.58425 51.6885 2.69432 51.8868 2.78266 52.0432 2.68661 52.2052 2.59827 52.3692 2.51414 52.4058 2.63262 52.4401 2.75111 52.4744 2.8703 53.3016 2.94531 54.1149 2.74059 54.9282 2.62561 55.2142 2.60318 55.5016 2.58775 55.7844 2.52816 56.0978 2.46085 56.4053 2.58004 56.7174 2.59967 57.1879 2.63613 57.6653 2.54919 58.1322 2.64665 58.3489 2.69432 58.572 2.66277 58.7907 2.69011 58.9659 2.78757 58.9834 3.02103 59.0576 3.19 59.3242 3.1276 59.5968 3.08623 59.8723 3.09675 60.3197 3.10797 60.7677 3.07852 61.2158 3.07221 61.4609 3.08834 61.6034 2.84856 61.7767 2.71465 62.0739 2.91867 62.3263 3.17878 62.5695 3.44309 62.8212 3.26642 63.0499 3.06029 63.265 2.84015 63.4303 3.07782 63.5257 3.37509 63.7668 3.55246 64.335 3.73686 64.8668 3.40943 65.3396 3.13391 65.5498 3.30359 65.7204 3.55246 65.988 3.6331 66.5159 3.66464 67.058 3.70459 67.5726 3.55246 68.0247 3.6394 68.4566 3.82588 68.9208 3.85603 69.2566 3.87075 69.575 3.98223 69.8994 4.05584 70.1092 3.95419 70.2359 3.74386 70.3936 3.57981 70.546 3.38492 70.7598 3.2552 70.9736 3.13741 71.0017 3.22014 71.0304 3.30359 71.0597 3.387 71.6517 3.49287 71.6269 4.27951 72.0882 4.55012 72.2931 4.55154 72.4937 4.48704 72.6995 4.49753 72.9071 4.51086 73.1021 4.60271 73.3102 4.61251 73.4561 4.53329 73.5808 4.42184 73.7128 4.32157 73.8388 4.42884 73.9596 4.5424 74.08 4.65738 74.3324 4.51997 74.503 4.2865 74.662 4.05446 74.756 4.12457 74.8484 4.20029 74.951 4.26057 75.2433 3.99487 75.4858 3.68146 75.7445 3.38419 75.9577 3.3772 76.1764 3.39333 76.3853 3.33932 76.5677 3.21454 76.6911 3.02314 76.8683 2.89133 77.186 2.84506 77.5014 2.94531 77.8198 2.94742 78.7166 2.97196 79.5942 2.70484 80.4923 2.73358 80.5946 2.97757 80.6886 3.30567 80.9908 3.35757 81.2396 3.40174 81.4109 3.61627 81.6583 3.66183 81.8695 3.71934 82.1097 3.72564 82.2835 3.87847 82.5633 4.11543 82.914 4.23744 83.238 4.39941 83.4159 4.4807 83.5848 4.58519 83.7742 4.64128 84.176 4.26126 84.4136 3.70951 84.9296 3.45292 85.1721 3.22856 85.3754 3.60363 85.6215 3.63448 86.0395 3.65273 86.4665 3.516 86.8792 3.6331 87.0218 3.66886 87.091 3.81186 87.1857 3.91143 87.3029 3.8981 87.4206 3.88339 87.5391 3.87006 87.7677 4.24585 87.8383 4.76395 88.2646 4.9827 88.4154 5.06265 88.6061 5.1832 88.775 5.07314 89.1594 4.85719 89.4785 4.54593 89.8493 4.30894 89.9321 4.23464 90.04 4.30194 90.1347 4.31455 90.1416 4.45899 90.0555 4.63986 90.174 4.75696 90.2508 4.8628 90.3927 4.84528 90.5089 4.85439 91.0018 4.85861 91.4947 4.82915 91.9883 4.8537 92.1734 4.85158 92.3779 4.87894 92.5455 4.77659 92.6726 4.69807 92.7369 4.55642 92.8177 4.43583 93.244 4.44985 93.666 4.39238 94.0903 4.35873 94.3971 4.32857 94.7578 4.53541 95.0197 4.29983 95.4658 4.00048 95.7769 3.55107 96.197 3.22225 96.4051 3.04487 96.6414 3.28815 96.8364 3.37297 97.0152 3.29937 97.1884 3.19841 97.3831 3.16826 97.6041 3.1893 97.7991 3.31058 98.0123 3.36456 98.3521 3.45922 98.7167 3.39752 99.0512 3.51881 99.4851 3.64781 99.8203 3.96683 100.206 4.18907 100.514 4.38327 100.847 4.53118 101.157 4.72331 101.365 4.56764 101.591 4.43514 101.799 4.2774 101.983 4.15892 101.933 3.90863 101.985 3.72422 102.198 3.70951 102.292 3.88339 102.351 4.06007 102.457 3.98012 102.549 3.8266 102.701 3.86445 102.989 3.95069 103.226 4.21009 103.544 4.19537 103.889 4.15261 104.227 4.05726 104.564 3.97171 104.877 3.9016 105.198 3.95 105.515 3.94858 105.932 3.91001 106.29 3.66744 106.619 3.42557 106.627 3.54266 106.635 3.65903 106.644 3.77612 106.888 3.73195 107.125 3.65972 107.368 3.60924 107.618 3.55107 107.844 3.72914 108.088 3.73617 108.377 3.67866 108.653 3.56859 108.93 3.46694 109.052 3.54896 109.165 3.65203 109.309 3.69549 109.53 3.68288 109.743 3.5812 109.968 3.60014 110.18 3.77121 110.342 3.99345 110.511 4.2059 110.863 4.086 111.159 3.85745 111.47 3.65972 111.534 3.79364 111.597 3.92826 111.657 4.06498 112.053 3.84482 112.436 3.60014 112.847 3.40874 112.864 3.56157 112.883 3.71443 112.901 3.86725 113.12 3.77612 113.334 3.6429 113.579 3.6457 113.92 3.6429 114.223 3.82941 114.559 3.86095 115.015 3.91704 115.456 4.04816 115.91 4.12104 116.567 4.22833 117.189 4.48842 117.84 4.61885 118.216 4.45197 118.486 4.10141 118.894 3.99065 118.9 4.13368 118.907 4.2774 118.915 4.42042 119.276 4.36856 119.645 4.31735 120.01 4.36925 120.241 4.42603 120.443 4.56203 120.651 4.67702 121.006 4.44705 121.378 4.73944 121.732 4.81655 122.221 4.91539 122.723 5.02477 123.224 4.95185 123.643 4.89576 124.068 4.89085 124.484 4.80744 124.767 4.7275 125.054 4.6595 125.347 4.62093 125.623 4.57256 125.922 4.54801 126.152 4.37064 126.395 4.18976 126.622 3.97102 126.918 3.87778 127.279 3.76068 127.632 3.58473 128.021 3.58473 128.321 3.58542 128.622 3.58331 128.924 3.59733 129.347 3.61346 129.638 3.98154 130.038 4.07759 130.441 4.18066 130.845 4.31036 131.2 4.5361 131.37 4.64617 131.506 4.80463 131.685 4.90348 132.02 4.94205 132.31 4.70437 132.641 4.69246 132.813 4.6623 132.865 4.86703 132.962 4.96799 133.354 4.90279 133.734 4.785 134.123 4.70859 134.148 4.85581 134.173 5.00233 134.204 5.14816 134.45 5.10049 134.691 5.02688 134.935 4.96096 134.951 5.09349 134.968 5.22527 134.989 5.35781 135.588 5.16219 136.207 5.03948 136.811 4.85931 137.035 4.7948 137.236 4.64547 137.476 4.63214 137.68 4.69457 137.838 4.85158 138.013 4.9701 138.076 4.78639 138.095 4.54313 138.285 4.44075 138.639 4.38116 139 4.42534 139.359 4.42392 139.638 4.93714 139.993 5.45593 140.536 5.71536 140.918 5.90606 141.337 6.00983 141.749 6.11217 142.043 6.1942 142.411 6.10165 142.64 6.34564 142.658 6.45151 142.657 6.55878 142.662 6.66604 143.07 6.79293 143.504 6.78663 143.921 6.87215 144.121 6.76139 144.228 6.54053 144.39 6.38421 144.693 6.40103 144.827 6.78805 145.134 6.8287 145.582 6.69758 145.941 6.36527 146.391 6.23696 146.728 6.13042 147.077 6.29235 147.419 6.22155 147.597 6.15635 147.753 6.04137 147.917 5.9446 148.001 6.01191 148.087 6.08063 148.174 6.14932 148.549 5.9348 148.929 5.72796 149.279 5.47137 149.467 5.53026 149.668 5.68801 149.868 5.58424 150.147 5.48609 150.433 5.2968 150.742 5.38866 151.006 5.45312 151.308 5.5625 151.414 5.84014 151.545 6.15074 151.838 6.36457 152.147 6.47956 152.314 6.41717 152.459 6.30637 152.625 6.23626 152.957 6.08132 153.335 6.12969 153.683 6.03576 154.034 5.97056 154.428 5.88993 154.757 6.07641 154.975 6.18159 155.167 6.34913 155.405 6.41436 155.561 6.40803 155.593 6.24118 155.637 6.12339 155.882 6.10726 156.128 6.09957 156.374 6.12339 156.756 6.16965 157.137 6.08482 157.52 6.11636 157.615 6.03715 157.707 5.95232 157.815 5.88712 157.992 5.99227 158.147 6.13042 158.312 6.2552 158.518 6.15985 158.722 6.0575 158.924 5.95163 159.013 6.11847 159.099 6.28605 159.184 6.4557 159.673 6.42205 160.168 6.35897 160.624 6.16965 160.854 6.0708 161.003 5.85977 161.146 5.66346 161.474 5.87591 161.794 6.10445 162.152 6.26711 162.346 6.11989 162.54 5.97056 162.728 5.81421 163.033 5.92639 163.354 5.97967 163.663 6.07852 163.854 6.12969 164.048 6.19281 164.25 6.19489 164.559 6.06311 164.702 5.72235 164.987 5.56042 165.418 5.54359 165.707 5.89131 166.036 6.10445 166.365 6.15635 166.679 5.98878 167.007 5.97406 166.985 6.11006 166.963 6.24679 166.939 6.38279 167.279 6.12339 167.692 6.32531 168.066 6.36807 168.555 6.42627 169.051 6.4459 169.534 6.55597 169.999 6.49638 170.373 6.10937 170.856 6.10518 171.193 6.09465 171.544 6.09254 171.867 6.21102 172.201 6.37437 172.461 6.64783 172.734 6.896 173.041 6.56016 173.34 6.20261 173.729 5.95582 174.131 5.70553 174.637 5.94602 175.055 5.7434 175.263 5.65716 175.442 5.51413 175.65 5.42719 175.991 5.32696 176.355 5.33606 176.693 5.21547 177.118 5.12151 177.506 4.92031 177.883 4.70786 178.073 4.57886 178.324 4.63426 178.497 4.76745 178.916 5.08016 179.113 5.59407 179.51 5.92919 179.885 6.23415 180.234 6.59243 180.688 6.77963 180.846 6.85324 181.035 6.88198 181.163 7.01099 181.315 7.1589 181.443 7.32997 181.572 7.49893 181.583 7.42113 181.597 7.3433 181.613 7.26619 182.091 7.16243 182.556 6.98713 182.956 6.70038 183.391 6.42205 183.765 6.03645 184.258 5.85839 184.226 6.01402 184.189 6.16757 184.144 6.31901 184.471 6.58121 184.845 6.77683 185.207 6.98855 185.259 7.38467 185.131 7.76327 185.019 8.13554 185.077 8.57231 185.459 8.90815 185.487 9.35614 185.48 9.78803 185.062 10.0643 185.006 10.4814 184.986 11.0122 184.694 11.4749 184.375 11.8794 184.799 11.864 185.204 11.6866 185.633 11.7266 185.845 11.7434 186.052 11.6859 186.262 11.6586 185.674 12.0456 184.923 11.9691 184.251 11.9769 184.314 12.1409 184.406 12.2986 184.434 12.4746 184.397 12.781 184.253 13.0594 184.144 13.344 184.033 13.5915 183.949 13.8558 183.798 14.0816 183.522 14.1313 183.249 14.0255 182.979 13.9939 182.98 14.1741 182.986 14.355 182.992 14.5352 183.183 14.5856 183.358 14.6852 183.458 14.8633 183.209 14.9586 182.853 14.8724 182.709 15.1451 182.414 15.5693 182.122 16.0012 181.75 16.3643 181.49 16.6251 181.425 17.0016 181.321 17.3403 181.257 17.5324 181.226 17.7322 181.205 17.9327 181.38 17.911 181.556 17.8906 181.734 17.8738 181.589 18.1619 181.418 18.4564 181.41 18.7873 181.486 19.2332 181.589 19.6882 181.842 20.0718 182.096 20.5057 182.491 20.8254 182.829 21.19 182.975 21.3582 183.205 21.3849 183.398 21.4753 183.659 21.5987 183.887 21.7789 184.139 21.9212 184.361 22.0881 184.624 21.889 184.86 21.8581 184.853 22.1666 184.786 22.5305 185.031 22.7731 185.301 22.9995 185.61 23.1783 185.873 23.4167 185.789 23.4756 185.708 23.5331 185.626 23.5884 185.823 23.6431 186.021 23.6992 186.217 23.7644 186.221 24.122 186.122 24.4971 186.251 24.8427 186.298 24.9724 186.389 25.0839 186.516 25.1442 186.832 25.3314 187.173 25.4702 187.512 25.6118 187.477 25.7373 187.443 25.8628 187.411 25.9883 187.629 26.0528 187.845 26.1229 188.062 26.1972 187.664 26.4671 187.219 26.6635 186.748 26.7651 186.344 26.9124 185.92 26.9895 185.492 27.0056 185.574 27.1031 185.659 27.1991 185.745 27.2965 185.209 27.638 184.579 27.7782 183.991 27.9983 183.939 28.3636 183.848 28.7331 183.628 29.036 183.315 29.4693 182.797 29.6922 182.298 29.831 182.319 30.1907 182.307 30.5546 182.218 30.9051 182.041 30.9535 181.866 31.004 181.692 31.0537 181.733 31.4709 181.74 31.9133 181.549 32.2989 181.349 32.7062 181.18 33.1269 181.064 33.5664 180.93 33.4242 180.844 33.249 180.768 33.0735 180.632 33.1045 180.496 33.1382 180.364 33.1731 180.402 33.3477 180.427 33.5503 180.592 33.6575 180.691 33.7753 180.923 33.87 180.86 34.0544 180.775 34.3728 180.656 34.7205 180.836 35.031 181.046 35.4273 180.917 35.8786 180.974 36.2999 181.062 36.6556 181.254 36.9747 181.353 37.3264 181.426 37.553 181.261 37.8193 181.028 37.8605 180.661 37.9582 180.28 37.9968 179.903 37.9981 179.652 37.9975 179.387 38.0163 179.163 37.8873 178.793 37.6652 178.344 37.8572 177.956 37.6952 177.471 37.4897 176.891 37.5059 176.439 37.7843 176.394 37.6877 176.351 37.5907 176.31 37.4946 175.938 37.553 175.582 37.6672 175.235 37.8045 175.129 37.6411 175.023 37.4785 174.921 37.3152 174.846 37.368 174.776 37.4254 174.7 37.4715 174.56 37.4372 174.434 37.365 174.299 37.327 174.154 37.3729 174.024 37.4527 173.891 37.5207 173.836 37.4036 173.785 37.2865 173.733 37.17 173.619 37.2429 173.51 37.3224 173.388 37.3755 173.16 37.1723 173 36.8889 172.731 36.7368 172.482 36.6942 172.267 36.8503 172.057 36.9536 171.99 36.9219 171.925 36.8912 171.862 36.8602 171.845 36.7437 171.83 36.6282 171.817 36.5124 171.32 36.7642 170.795 37.0123 170.227 37.0129 169.919 37.0027 169.686 36.7635 169.396 36.6942 169.253 36.7803 169.15 36.9136 169.016 37.0073 168.683 36.9991 168.381 36.8302 168.053 36.8054 167.611 36.7727 167.171 36.7348 166.734 36.6731 166.631 36.7754 166.53 36.8777 166.428 36.9786 165.906 36.6807 165.677 36.1079 165.371 35.6236 165.24 35.8737 165.072 36.1086 164.855 36.2924 164.798 36.3521 164.693 36.3148 164.683 36.2363 164.574 36.007 164.514 35.7334 164.293 35.58 163.842 35.4754 163.371 35.4517 162.913 35.5183 162.77 35.5477 162.656 35.4411 162.543 35.3768 162.214 35.1488 161.8 35.1326 161.426 35.0234 161.461 35.322 161.466 35.6229 161.458 35.9228 161.223 35.8611 160.997 35.7651 160.762 35.7064 160.498 35.8136 160.328 36.098 160.043 36.1564 159.544 36.1492 159.027 36.1036 158.547 36.2693 158.324 36.3386 158.112 36.4352 157.895 36.5194 157.589 36.2656 157.287 36.0063 156.982 35.7509 156.736 35.8295 156.475 35.8344 156.219 35.8367 156.156 36.1248 156.078 36.4115 155.932 36.6701 155.705 36.6134 155.478 36.5167 155.241 36.5342 154.945 36.6134 154.714 36.8288 154.436 36.9423 154.188 36.9691 153.986 36.7081 153.734 36.7853 153.17 36.9394 152.621 37.1542 152.048 37.2795 151.589 37.3623 151.235 37.7876 150.745 37.7253 150.639 37.7296 150.569 37.6441 150.508 37.5732 150.238 37.5563 149.967 37.5768 149.698 37.5563 149.574 37.5488 149.451 37.4976 149.391 37.3854 149.184 37.0812 148.97 36.7774 148.693 36.5329 148.605 36.6296 148.517 36.7262 148.429 36.8216 148.303 36.7615 148.179 36.7005 148.056 36.6414 147.785 36.908 147.596 37.2409 147.413 37.5699 146.732 37.5425 146.045 37.6204 145.372 37.4871 144.89 37.4366 144.442 37.1967 143.954 37.1954 143.699 37.2802 143.53 37.5102 143.287 37.618 143.174 37.6081 143.07 37.5537 142.988 37.4801 142.644 37.1756 142.301 36.8496 141.883 36.652 141.309 36.6718 140.76 36.8707 140.204 36.9928 139.944 37.0453 139.696 37.138 139.447 37.2228 139.385 37.0852 139.326 36.9466 139.272 36.8077 138.819 36.7784 138.365 36.8104 137.913 36.7922 137.632 36.7886 137.518 36.4893 137.4 36.2838 137.204 36.3343 137.017 36.4283 136.815 36.4339 136.72 36.3785 136.637 36.3062 136.552 36.2412 135.672 36.7341 134.633 36.3696 133.693 36.5883 133.436 36.619 133.316 36.8813 133.143 37.039 133 36.9724 132.861 36.9044 132.722 36.8364 132.547 37.042 132.268 37.0172 132.027 37.0433 131.894 37.0509 131.762 37.074 131.632 37.0552 131.45 36.9667 131.316 36.8084 131.152 36.6949 130.935 36.5411 130.716 36.389 130.537 36.1901 130.212 36.3442 129.855 36.2719 129.52 36.2026 129.539 36.3996 129.485 36.589 129.385 36.7579 129.166 36.6619 128.947 36.5566 128.71 36.5203 128.487 36.49 128.276 36.5847 128.066 36.6358 127.75 36.7124 127.427 36.7615 127.104 36.7671 126.84 36.7487 126.618 36.5903 126.401 36.4586 126.17 36.7124 125.964 36.9978 125.686 37.201 124.835 37.0166 123.951 37.1792 123.093 37.041 122.653 36.9842 122.208 37.0179 121.766 37.009 121.793 36.7018 121.86 36.4002 121.928 36.0997 121.72 36.1492 121.515 36.2089 121.309 36.2613 121.268 36.1172 121.231 35.9726 121.197 35.8275 121.031 35.9496 120.866 36.0723 120.705 36.1983 120.515 36.0799 120.4 35.8865 120.318 35.6853 120.073 35.7945 119.809 35.8037 119.551 35.7414 119.372 35.6896 119.221 35.8232 119.052 35.845 118.822 35.8512 118.578 35.7912 118.368 35.9129 117.751 36.2138 117.06 36.3112 116.38 36.3006 116.058 36.2792 115.764 36.424 115.47 36.5266 115.278 36.5916 115.089 36.6982 114.99 36.8826 114.85 37.0812 114.763 37.4135 114.461 37.3881 113.978 37.3201 113.505 37.1406 113.103 36.8615 112.946 36.7784 112.787 36.6246 112.596 36.6738 112.203 36.7368 111.806 36.8015 111.407 36.7952 111.037 36.7978 110.652 36.7493 110.299 36.8876 109.911 37.0242 109.495 37.0377 109.089 37.0146 108.995 37.0047 108.893 37.0047 108.82 36.9394 108.512 36.6464 108.334 36.1653 107.896 36.0442 107.629 36.1066 107.387 36.2419 107.132 36.3366 106.906 36.1317 106.701 35.906 106.49 35.6873 106.413 35.58 106.283 35.6566 106.181 35.6671 105.909 35.7407 105.625 35.7229 105.347 35.7427 105.334 35.876 105.342 36.0099 105.343 36.1445 105.047 35.8961 104.774 35.611 104.415 35.4504 103.744 35.1165 103.052 34.705 102.275 34.7443 102.078 34.419 101.783 34.1728 101.468 33.9683 101.377 34.0663 101.294 34.1715 101.192 34.257 100.905 34.3174 100.619 34.1966 100.332 34.2114 100.161 34.2045 100.033 34.3322 99.8965 34.4147 99.8652 34.3032 99.8358 34.1926 99.8078 34.0818 99.6395 34.0706 99.4726 34.0613 99.3056 34.0518 99.1628 33.8343 98.9628 33.6654 98.7236 33.5631 98.6052 33.6737 98.4861 33.7832 98.3656 33.8898 98.0914 33.7977 97.8037 33.7439 97.5164 33.7271 97.0901 33.7165 96.68 33.8469 96.2712 33.9478 96.0336 34.0033 95.868 34.2016 95.6466 34.292 95.2589 34.4302 94.8482 34.5038 94.4358 34.4949 93.9435 34.4836 93.6007 34.9033 93.1543 35.0389 92.92 35.0591 92.7069 34.9258 92.4756 34.9188 91.5943 34.9195 90.849 35.4867 89.9872 35.58 89.8331 35.6879 89.7391 35.8568 89.6193 35.9977 89.4392 35.8697 89.2597 35.742 89.0766 35.6193 88.9819 35.7981 88.8866 35.9763 88.783 36.1492 88.7599 35.8892 88.778 35.6256 88.7338 35.3675 88.5249 35.0148 88.0581 34.9399 87.6862 35.0234 87.3975 35.067 87.1752 35.2666 86.9271 35.4005 86.6229 35.32 86.3978 35.0772 86.1062 34.97 85.9026 34.8641 85.7205 35.0564 85.5459 35.1356 85.2724 35.324 84.9283 35.2408 84.6198 35.2534 84.1899 35.2247 83.7986 35.4322 83.3816 35.4933 83.0275 35.5681 82.6659 35.5157 82.3089 35.5388 82.1357 35.5408 82.0136 35.6797 81.8652 35.747 81.6276 35.7252 81.4257 35.5662 81.1872 35.547 80.6837 35.5065 80.1769 35.5813 79.6757 35.5114 79.2864 35.451 78.8806 35.4692 78.5074 35.6005 78.0366 35.8037 77.6166 36.1379 77.1101 36.2511 76.8363 36.2076 76.5614 36.0904 76.2823 36.1772 75.7844 36.3161 75.2747 36.1795 74.7742 36.1389 74.3654 36.1059 73.9526 35.9964 73.5452 36.0997 73.5191 36.3353 73.5046 36.5715 73.5165 36.8084 73.4198 36.8054 73.3238 36.8028 73.2284 36.8015 73.1717 36.6358 73.1139 36.4712 73.0539 36.3079 72.9879 36.3415 72.9226 36.3758 72.8582 36.4108 72.8447 36.5378 72.8328 36.6652 72.8216 36.7929 72.1274 36.8232 71.4369 36.7642 70.7457 36.7236 70.5474 36.7101 70.4028 36.556 70.229 36.4794 70.1043 36.4699 69.9865 36.5266 69.8707 36.5636 69.2728 36.8028 68.575 36.9044 67.9692 36.6338 67.5255 36.485 67.1253 36.1228 66.6297 36.199 66.2635 36.2811 66.2153 36.7124 65.9942 36.9578 65.7854 36.8308 65.5785 36.6477 65.3192 36.6606 65.1635 36.647 64.9932 36.68 64.853 36.5972 64.5214 36.4138 64.2278 36.1478 63.8553 36.0482 63.4191 35.9964 62.9733 36.0548 62.5408 35.9614 62.2422 35.9004 61.9581 35.7476 61.6483 35.7602 61.4378 35.876 61.3144 36.1647 61.0432 36.1429 60.5117 36.1558 59.9838 36.2854 59.4516 36.2181 59.4358 36.3359 59.4196 36.453 59.4034 36.5715 59.2272 36.4712 59.0745 36.3372 58.9336 36.195 58.4605 36.298 57.9764 36.3135 57.4984 36.2412 57.5363 36.2026 57.5749 36.164 57.6148 36.1261 57.1064 36.0294 56.7174 35.6711 56.2849 35.4174 56.0655 35.2808 55.8368 35.1594 55.6124 35.0323 55.5227 35.094 55.4379 35.163 55.3426 35.2154 55.203 35.2455 55.0595 35.2128 54.9193 35.2092 54.8912 35.3128 54.8638 35.4167 54.8371 35.5213 54.5049 35.6592 54.1541 35.7503 53.7945 35.7694 53.8163 35.9403 53.8318 36.1116 53.8407 36.2838 53.423 36.1459 53.1614 35.6335 52.677 35.712 52.224 35.7496 51.7753 35.8331 51.3196 35.8169 51.0834 35.8044 50.8921 35.9657 50.672 36.0188 50.4103 36.0442 50.148 35.9334 49.8887 36.0027 49.6825 36.04 49.4925 36.1409 49.2853 36.167 48.5512 36.0997 47.8913 35.5955 47.1347 35.7047 46.4504 35.7975 45.7447 35.7846 45.0842 35.5681 45.0772 35.7097 45.07 35.8506 45.0624 35.9931 44.8991 35.9453 44.7397 35.8892 44.5814 35.8304 44.4306 35.911 44.2841 36.0386 44.1033 36.0258 43.7562 36.0083 43.4064 35.8753 43.06 35.9707 42.7578 36.0344 42.5097 36.2356 42.2144 36.3141 42.0778 36.2475 41.9699 36.1379 41.8571 36.04 41.7617 36.2194 41.6683 36.4002 41.573 36.5797 41.0926 36.4794 40.5937 36.4867 40.1147 36.5923 40.046 36.4844 39.9794 36.3758 39.9157 36.267 39.6247 36.2986 39.305 36.3547 39.0427 36.1871 38.5211 35.9004 37.9645 35.6922 37.4036 35.4995 37.332 35.5757 37.2653 35.6572 37.1848 35.7239 36.9879 35.779 36.7817 35.7084 36.582 35.7041 36.3379 35.6823 36.1122 35.8351 35.8674 35.7895 35.353 35.7519 34.8697 35.5569 34.4015 35.3537 34.2402 35.2989 34.0567 35.1861 33.8917 35.2933 33.5166 35.519 33.0527 35.5427 32.6347 35.4428 32.2807 35.3164 31.975 35.0627 31.5936 35.0129 30.8806 34.9301 30.1626 34.8957 29.4447 34.9099 28.7829 34.8608 28.2038 35.2392 27.5658 35.3402 27.5721 35.5002 27.577 35.6599 27.5756 35.8205 27.3989 35.7433 27.2236 35.6655 27.047 35.5906 27.0077 35.812 26.9839 36.0363 26.96 36.2607 26.7104 36.1759 26.4742 36.0525 26.2176 35.9901 25.738 36.0644 25.4211 36.6365 24.9044 36.5372 24.8988 36.3976 24.8932 36.258 24.8883 36.1185 24.5707 36.2053 24.2608 36.3316 23.9334 36.3745 23.6228 36.3409 23.3347 36.1983 23.0262 36.1472 22.5424 36.0492 22.0383 36.0911 21.5623 36.2082 21.4291 36.2917 21.361 36.4438 21.2671 36.5642 21.0449 36.4464 20.8885 36.2462 20.6957 36.0911 20.4545 35.9789 20.172 36.0132 19.9259 35.9172 19.6399 35.7278 19.4351 35.4243 19.1105 35.2927 18.5412 35.0732 17.911 35.3128 17.3396 35.1039 16.8663 34.9875 16.412 34.804 15.9906 34.5585 15.8841 34.4912 15.7754 34.417 15.706 34.3098 15.6906 34.1441 15.727 33.9788 15.734 33.8139 15.6191 33.8574 15.5041 33.9016 15.3884 33.9435 15.3141 33.3968 15.8098 32.9895 15.8462 32.4623 15.8455 32.0802 15.6156 31.7394 15.326 31.5087 15.0995 31.3321 14.8668 31.1652 14.6396 30.99 14.7553 30.7726 14.8976 30.549 14.8738 30.2916 14.8759 29.9243 14.6852 29.5941 14.648 29.2337 14.6144 28.9364 14.7904 28.6812 14.8766 28.4099 14.9839 28.1316 15.0624 27.8301 15.2608 27.5994 15.4473 27.366 15.6871 27.1696 15.8133 26.892 15.9682 26.5583 16.1477 26.2372 16.3503 25.9301 16.0706 25.4401 15.7866 24.8701 15.957 24.2938 16.1119 23.878 16.0692 23.4272 16.0586 22.9932 16.0341 22.6125 15.8175 22.2669 15.8476 21.8785 15.8743 21.4158 15.7817 20.9614 15.6359 20.5254 15.408 20.477 15.176 20.4174 14.9832 20.2821 14.8065 20.1082 14.6915 19.8705 14.477 19.7387 14.2771 19.6413 14.0647 19.5711 13.8516 19.5081 13.623 19.4414 13.4218 19.6125 13.2206 19.691 13.2942 19.3713 13.4232 19.0552 13.3952 18.72 13.3685 18.3723 13.2935 18.0252 13.3356 17.6754 13.405 17.083 13.4317 16.4807 13.3391 15.889 13.2781 15.4971 13.2599 15.0932 13.1154 14.7196 13.0467 14.5338 12.8995 14.3935 12.781 14.2386 12.5987 14.3052 12.4129 14.3599 12.225 14.4076 12.3716 14.0675 12.6457 13.6988 12.4669 13.3187 12.2138 13.3812 11.9502 13.3917 11.695 13.3314 11.7925 13.2129 11.8927 13.0972 11.9923 12.9808 11.9082 12.8981 11.824 12.8147 11.742 12.7298 12.1353 12.3653 12.6156 12.1115 13.0951 11.8787 12.9682 11.7644 12.8476 11.6431 12.734 11.5162 13.1204 11.2267 13.7036 11.1706 13.9385 10.7086 14.1383 10.3896 13.8733 10.046 13.8474 9.71581 13.7534 8.97827 13.4092 8.29889 13.3307 7.55855 13.2963 7.2816 13.3966 7.01448 13.4085 6.74037 13.3776 6.53703 13.2395 6.37368 13.1638 6.1872 13.0124 5.8766 13.1028 5.51133 12.9675 5.19584 12.9023 5.03387 12.8315 4.87122 12.7256 4.73103 12.5623 4.51578 12.2664 4.51508 12.0308 4.43583 12.3218 4.07689 12.6604 3.71093 13.1245 3.59103 13.534 3.47816 13.9 3.23627 14.3227 3.17177 14.6088 3.1262 14.8948 3.2552 15.1781 3.20121 15.4929 3.0042 15.6934 2.67469 15.8161 2.33185M130.164 4.3321C130.168 4.40502 130.176 4.55012 130.181 4.62304 130.332 4.58097 130.46 4.48912 130.547 4.35661 130.418 4.34751 130.29 4.33979 130.164 4.3321Z" fill="#FFFFFF" transform="matrix(1 0 0 3.40246 373.935 175.727)"/></g></g></g><path d="M105.286 10.6531C105.729 10.3829 106.186 10.1198 106.679 9.94964 107.288 9.8806 107.909 9.90202 108.521 9.94249 109.131 10.1329 109.473 10.7745 110.079 10.9828 110.492 11.1411 110.896 11.3316 111.272 11.5672 111.791 11.9017 112.162 12.4028 112.582 12.8444 113.147 12.7849 113.57 12.2993 114.148 12.2957 114.262 12.5099 114.377 12.7242 114.487 12.9432 115.043 12.6909 115.646 12.5611 116.195 12.2862 116.245 12.6242 116.294 12.9611 116.351 13.2979 116.715 13.1622 117.076 13.0134 117.43 12.8516 117.471 13.1539 117.498 13.4574 117.536 13.7609 118.71 13.186 119.978 12.8016 121.073 12.0791 121.126 12.0719 121.233 12.0576 121.287 12.0505 121.58 12.2659 121.825 12.5385 122.067 12.8099 122.132 12.4016 122.212 11.9922 122.381 11.6125 122.93 11.4613 123.5 11.5172 124.06 11.5077 124.492 12.573 124.941 13.73 125.901 14.4346 126.722 15.0072 127.699 15.3262 128.676 15.4821 129.164 15.6142 129.101 16.1558 129.127 16.5534 129.752 16.7462 130.405 16.8212 131.038 16.9819 131.308 16.6069 131.509 16.1903 131.738 15.7892 132.141 16.1022 132.395 16.5676 132.814 16.864 133.427 16.5081 133.902 15.9689 134.491 15.5797 134.999 15.2071 135.644 15.5297 136.212 15.4119 136.497 15.2202 136.754 14.9893 136.998 14.7465 137.123 14.9012 137.25 15.0572 137.377 15.2119 137.938 14.7025 138.503 14.199 139.01 13.6348 139.237 13.7681 139.459 13.9573 139.734 13.9657 140.169 13.7871 140.516 13.3491 141.024 13.3848 141.549 13.4586 142.035 13.8217 142.196 14.3382 142.387 14.9096 142.718 15.4643 143.242 15.7868 143.534 15.8713 143.711 15.519 143.945 15.3976 144.389 14.9798 145.034 15.0322 145.574 14.8286 146.039 14.7037 146.557 14.4918 147.023 14.7275 147.503 14.9774 147.821 15.475 148.351 15.6416 148.455 15.4107 148.545 15.1714 148.627 14.931 149.555 14.9167 150.484 14.9524 151.412 14.8977 151.557 14.7167 151.708 14.5382 151.858 14.3585 152.107 14.6346 152.362 14.9072 152.602 15.1929 152.911 14.956 153.219 14.7179 153.518 14.468 153.657 14.8536 153.799 15.2393 153.939 15.6249 154.69 15.5261 155.451 15.3405 156.089 14.9155 156.479 14.6394 156.631 14.1656 156.845 13.7598 157.319 14.243 157.816 14.7096 158.368 15.106 158.673 14.7679 158.951 14.4073 159.239 14.0538 159.773 14.3382 160.351 14.5144 160.907 14.7513 161.12 14.8596 161.365 14.8453 161.6 14.8596 161.996 14.4394 162.209 13.8895 162.587 13.455 163.383 13.43 163.726 14.2549 164.284 14.6668 164.767 14.6679 165.198 14.412 165.657 14.2942 165.646 14.6049 165.616 14.9155 165.578 15.225 165.815 15.0667 166.065 14.8501 166.374 14.9477 167.379 15.2917 168.451 15.3024 169.479 15.5404 170.197 15.4309 170.61 14.6596 171.33 14.5358 171.878 14.4346 172.465 14.4942 172.969 14.737 173.524 15.1322 173.886 15.7309 174.301 16.2606 174.78 15.4738 175.195 14.618 175.889 13.9919 176.262 13.7824 176.713 13.7931 177.131 13.7705 177.66 13.8145 177.998 13.3301 178.384 13.0468 178.874 12.5849 179.606 12.673 180.168 12.3469 180.918 12.0814 181.48 11.5042 182.11 11.0471 182.399 10.8543 182.727 11.1125 182.919 11.3316 183.59 12.1362 183.868 13.1932 184.535 14.0014 185.114 14.6882 185.628 15.4773 186.451 15.9011 187.052 16.1808 187.284 16.8474 187.587 17.389 187.608 17.2164 187.63 17.045 187.658 16.8736 188.538 16.5724 189.301 15.9951 189.895 15.2833 190.407 14.681 190.919 14.0609 191.561 13.5895 191.518 13.9502 191.459 14.3097 191.438 14.6739 191.84 15.1214 192.287 15.5261 192.759 15.8975 192.85 16.0046 193.017 16.0737 193.035 16.2296 193.125 17.1009 192.912 17.9615 192.831 18.8244 192.956 19.7921 193.536 20.6539 193.57 21.6407 193.515 22.5239 192.901 23.2654 192.889 24.1546 192.86 25.2389 192.476 26.278 192.013 27.2469 192.477 27.2446 192.895 27.0243 193.347 26.947 193.805 26.8529 194.274 26.8589 194.742 26.8446 193.923 27.5374 192.81 27.5136 191.801 27.5421 191.912 27.9147 192.055 28.2872 192.075 28.68 192.057 29.3228 191.876 29.9465 191.714 30.5643 191.539 31.1547 191.43 31.7641 191.206 32.339 190.784 32.3723 190.386 32.2414 189.983 32.1497 189.976 32.5413 189.988 32.9318 190.007 33.3234 190.267 33.4805 190.483 33.6959 190.681 33.9268 190.665 33.9899 190.632 34.1161 190.615 34.1792 190.354 34.2339 190.079 34.2589 189.845 34.3922 189.631 34.6398 189.526 34.9588 189.388 35.2504 189.063 36.042 188.676 36.8097 188.235 37.5429 187.998 37.9286 187.872 38.3666 187.799 38.8106 187.677 39.5879 187.447 40.358 187.496 41.1531 187.748 41.0876 188 41.0174 188.262 40.9769 188.085 41.6685 187.785 42.347 187.805 43.0742 187.924 44.0634 188.094 45.0632 188.51 45.9773 188.907 46.8796 189.472 47.6949 190.042 48.496 190.293 48.8947 190.787 49.0031 191.121 49.3125 191.546 49.6137 191.853 50.0731 192.333 50.2981 192.602 50.2053 192.856 50.0719 193.12 49.9612 193.157 50.6219 193.015 51.3479 193.369 51.9478 193.755 52.4894 194.253 52.9405 194.684 53.4464 194.576 53.5976 194.47 53.7487 194.367 53.9011 194.655 54.0106 194.937 54.1368 195.218 54.2677 195.196 55.0807 195.148 55.9056 195.311 56.7078 195.571 57.5731 196.53 57.8993 197.195 58.3968 197.242 58.6956 197.153 58.9967 197.122 59.2943 197.438 59.4455 197.758 59.5931 198.086 59.7252 197.423 60.5382 196.443 60.9631 195.504 61.3654 195.104 61.5082 194.695 61.6297 194.268 61.638 194.38 61.8713 194.577 62.0784 194.606 62.345 193.871 63.0497 192.922 63.452 192.05 63.9507 191.953 64.8672 191.866 65.8207 191.376 66.6265 190.996 67.3514 190.287 67.8132 189.575 68.1667 189.591 68.9773 189.647 69.7962 189.498 70.5985 189.243 70.7187 188.986 70.8342 188.729 70.9437 188.807 72.0649 188.776 73.2112 188.423 74.2884 188.161 75.0657 188.016 75.8715 187.878 76.6773 187.683 76.3214 187.524 75.9465 187.396 75.5632 187.198 75.6394 187.007 75.7263 186.816 75.812 186.886 76.1679 186.91 76.5595 187.146 76.857 187.318 77.1284 187.619 77.3796 187.572 77.7355 187.527 78.4497 187.314 79.1829 187.558 79.8863 188.011 81.0766 187.621 82.3895 188.021 83.5929 188.185 84.3237 188.571 85.0439 188.463 85.808 188.365 86.4258 187.698 86.5734 187.187 86.6948 186.734 86.7638 186.276 86.8186 185.82 86.7924 185.469 86.7591 185.188 86.5412 184.895 86.3734 184.532 86.2746 184.141 86.3901 183.781 86.2758 183.453 86.2092 183.167 86.0354 182.857 85.9247 182.238 85.7628 181.557 85.9259 181.104 86.3841 181.03 86.1627 180.954 85.9425 180.879 85.7247 180.313 85.8949 179.797 86.1758 179.289 86.4686 179.122 86.0973 178.957 85.7271 178.784 85.3593 178.673 85.4759 178.564 85.5914 178.454 85.7057 178.278 85.6295 178.117 85.514 177.931 85.4819 177.641 85.439 177.469 85.7176 177.262 85.8616 177.172 85.5926 177.084 85.3236 176.995 85.057 176.833 85.2236 176.67 85.3878 176.513 85.5581 176.182 85.0462 175.87 84.5166 175.458 84.0631 175.068 84.1345 174.743 84.363 174.469 84.6368 174.089 84.4225 174.136 83.9964 174.103 83.6191 173.384 84.169 172.592 84.7915 171.647 84.8046 171.215 84.638 170.871 84.3154 170.481 84.0773 170.276 84.3297 170.083 84.5927 169.885 84.8498 169.352 84.7094 168.863 84.4178 168.307 84.369 167.683 84.3214 167.068 84.1999 166.444 84.1618 166.301 84.3844 166.163 84.6094 166.022 84.8332 165.152 84.0154 164.869 82.8085 164.368 81.7658 164.178 82.3657 163.926 82.9513 163.522 83.4405 163.202 82.8954 163.207 82.1955 162.765 81.717 162.132 81.4885 161.439 81.4028 160.784 81.5861 160.47 81.6896 160.27 81.3801 160.045 81.2254 159.598 80.8314 159.008 80.6886 158.455 80.5172 158.481 81.1945 158.531 81.8717 158.519 82.5502 158.155 82.4002 157.797 82.2407 157.453 82.0527 157.091 82.399 156.849 82.8704 156.41 83.1322 155.916 83.1584 155.42 83.1049 154.929 83.1691 154.271 83.2418 153.74 83.6798 153.193 84.0107 152.718 83.4346 152.249 82.8549 151.788 82.2681 151.437 82.4633 151.036 82.4681 150.647 82.4728 150.554 83.1227 150.469 83.7798 150.24 84.3999 149.915 84.2868 149.608 84.0892 149.258 84.0857 148.757 84.3285 148.378 84.7558 147.947 85.0986 147.596 84.9712 147.259 84.5451 146.865 84.7499 146.058 85.145 145.259 85.5581 144.424 85.889 143.693 86.1413 143.249 87.0376 142.393 86.9364 142.293 86.8222 142.197 86.7079 142.103 86.5936 141.66 86.5865 141.215 86.6222 140.776 86.5662 140.461 86.3829 140.361 86.008 140.198 85.708 139.969 85.1986 139.685 84.7165 139.365 84.2607 139.235 84.4832 139.109 84.707 138.987 84.9332 138.79 84.7998 138.594 84.6689 138.403 84.5332 138.005 85.2069 137.739 85.9473 137.473 86.6805 136.757 86.6865 136.043 86.7126 135.329 86.6924 134.629 86.5889 133.928 86.4377 133.277 86.1532 132.963 86.0127 132.628 85.9318 132.294 85.8711 131.958 86.1318 131.713 86.4829 131.406 86.7722 131.264 86.9328 131.041 86.7983 130.931 86.6734 130.353 86.052 129.925 85.2819 129.218 84.7903 128.999 84.7201 128.76 84.7832 128.541 84.8177 127.5 85.1653 126.483 85.5795 125.497 86.0604 125.392 85.7616 125.309 85.4569 125.234 85.151 124.514 85.1343 123.793 85.1736 123.074 85.151 122.671 84.9082 122.567 84.4166 122.382 84.0202 122.104 84.1535 121.823 84.2844 121.527 84.3761 121.386 84.2285 121.248 84.0785 121.114 83.9286 120.543 84.4118 119.772 84.613 119.034 84.5927 118.261 84.6082 117.452 84.5213 116.722 84.8356 116.377 85.0689 116.234 85.4855 116.029 85.8295 115.824 85.6902 115.624 85.5426 115.425 85.3962 115.015 85.914 114.314 85.8771 113.719 85.8961 113.184 85.2819 112.601 84.7034 112.13 84.0369 111.609 84.2226 111.072 84.2083 110.545 84.0619 110.547 84.4773 110.516 84.8975 110.382 85.295 109.936 85.0427 109.478 84.6392 108.928 84.8106 108.318 85.0831 107.677 85.3057 107.011 85.3819 106.543 85.3533 106.21 84.9665 105.868 84.6903 105.557 85.2688 105.24 85.8473 104.851 86.3806 104.116 86.1996 103.356 86.208 102.604 86.2092 101.377 86.2722 100.166 85.8783 98.9393 86.0877 98.9417 85.3831 99.0476 84.6856 99.1476 83.9904 98.8369 84.1107 98.5287 84.2368 98.2263 84.3749 98.1537 84.0381 98.0894 83.7024 98.0264 83.3655 97.7978 83.6774 97.5502 83.975 97.28 84.2511 97.0087 83.9071 96.8182 83.5119 96.6861 83.0965 96.2873 83.3763 95.7922 83.2525 95.3411 83.2549 95.097 83.3156 94.8816 83.4881 94.6221 83.4751 94.3603 83.487 94.0663 83.431 93.8532 83.6203 93.2711 84.0369 92.6224 84.3713 91.9071 84.4737 91.4548 84.488 91.2715 85.0403 90.8227 85.0391 90.0883 85.0736 89.3729 85.3022 88.635 85.2557 88.604 85.495 88.5969 85.7366 88.5814 85.9794 88.3172 85.7557 88.1029 85.4878 87.8779 85.2295 87.209 85.3402 86.5353 85.4724 85.8556 85.351 85.858 85.2438 85.8616 85.1379 85.8675 85.0331 85.2462 84.8058 84.7915 84.3083 84.3273 83.8631 83.8964 83.4417 83.4143 83.0799 82.9692 82.6776 82.818 82.8323 82.6657 82.987 82.5109 83.1382 82.3193 83.1275 82.1288 83.1168 81.9396 83.1061 81.861 83.3786 81.9384 83.7595 81.6396 83.9119 81.2492 84.1523 80.7957 84.2725 80.3505 84.3618 80.3672 84.7475 80.3946 85.1319 80.3982 85.52 79.8411 85.1474 79.5483 84.4225 78.8782 84.2237 78.1473 84.3702 77.4105 84.5047 76.6642 84.5511 76.2988 84.5511 76.056 84.8986 75.7096 84.9641 75.3942 84.9748 75.0823 84.8998 74.7693 84.9272 74.3003 85.07 73.8444 85.4652 73.3302 85.2605 72.3661 84.9617 71.4698 84.1035 70.3985 84.4213 69.4487 84.6261 68.45 84.5308 67.5525 84.163 67.5478 84.4654 67.5478 84.7665 67.5418 85.0689 67.3014 84.9558 67.061 84.8463 66.8169 84.7439 66.6432 84.8915 66.4706 85.0403 66.3004 85.1926 65.7469 85.1391 65.1946 84.9403 64.6363 85.0677 64.1662 85.2581 63.8091 85.6366 63.3639 85.8759 63.183 85.6783 63.0056 85.4783 62.8449 85.2664 62.6962 85.6711 62.5712 86.0842 62.4271 86.4924 61.7475 86.2484 60.9952 86.3341 60.3156 86.5282 60.218 86.302 60.1216 86.077 60.0275 85.8509 59.5895 85.8842 59.0729 86.0092 58.7194 85.6664 57.9802 85.0665 57.1387 84.6189 56.296 84.1845 56.1936 84.3523 56.0924 84.5225 55.9746 84.6808 55.7353 84.7689 55.477 84.6891 55.2318 84.6808 54.8188 84.5999 54.4474 84.8975 54.0356 84.832 53.0774 84.7879 52.3323 84.1238 51.4979 83.7429 51.0349 83.7048 50.7456 84.2523 50.2683 84.2642 49.4232 84.4916 48.7995 83.7845 48.146 83.3894 47.4878 83.1049 46.7427 83.1715 46.0428 83.0799 45.3631 83.0489 44.6752 83.0335 44.0015 83.1334 43.2587 83.381 42.61 83.8429 41.8708 84.1 41.8792 84.4392 41.8887 84.7772 41.878 85.1177 41.6268 84.9677 41.3804 84.8141 41.1412 84.6487 41.0912 85.145 41.0626 85.6438 41.0198 86.1425 40.6103 85.9461 40.2068 85.5319 39.7247 85.6461 39.1332 86.0104 38.813 86.8388 38.0286 86.8448 37.9941 86.5186 37.9845 86.1901 37.9691 85.864 37.5227 86.1163 37.0514 86.3437 36.5562 86.4782 35.8515 86.2425 35.1659 85.8413 34.3994 85.8913 33.9506 85.8854 33.5198 86.0235 33.0936 86.1484 32.9413 86.4139 32.8068 86.6888 32.6604 86.959 32.3521 86.6281 32.1081 86.2437 31.801 85.9151 31.4177 85.664 30.8559 85.7806 30.5571 85.389 30.1715 84.9784 29.9275 84.4059 29.393 84.1583 28.7086 83.8071 27.9206 84.1238 27.2017 83.9464 26.2804 83.6072 25.3758 83.1501 24.6866 82.4371 24.2843 82.0669 24.5045 81.4754 24.4617 80.9993 24.2998 81.0992 24.1403 81.2028 23.9784 81.304 23.8213 79.8899 24.9461 78.5996 24.4724 77.1915 24.2295 76.1881 23.4071 75.5072 22.7643 74.7562 22.9143 74.2491 23.1369 73.7432 23.0833 73.2017 23.0845 72.272 22.6643 71.3912 22.725 70.4592 22.8238 69.6177 23.075 68.8059 23.269 67.9846 23.4059 67.3383 23.8237 66.811 24.0939 66.2206 24.4462 65.5243 24.5497 64.7351 24.8818 64.0305 24.9461 63.8103 25.1235 63.5841 25.0247 63.3496 24.708 62.4617 24.3605 61.5487 24.389 60.5905 24.3902 59.9906 24.5616 59.4062 24.5616 58.8063 24.5724 58.2469 24.545 57.6874 24.5295 57.128 24.5021 56.2079 24.1319 55.3294 24.17 54.4034 24.1915 53.4309 24.0427 52.4632 23.8082 51.5229 23.5035 51.4193 23.1773 51.3277 22.9464 51.0896 22.5881 50.7147 22.4846 50.1505 22.0739 49.8184 21.7823 49.6256 21.4764 49.4435 21.1491 49.3197 20.7908 49.2209 20.5432 49.572 20.2671 49.7339 20.3099 49.065 20.5027 48.4091 20.4742 47.7354 20.448 46.9784 20.3206 46.2261 20.3373 45.4667 20.4409 43.955 20.398 42.4338 20.2302 40.9281 20.1171 39.8093 20.0326 38.6344 19.4041 37.6632 19.1434 37.8024 18.8768 37.9322 18.6054 38.0524 18.7792 37.2573 19.1494 36.4586 18.9209 35.6337 18.5769 35.7861 18.2019 35.7932 17.8341 35.7468 17.8722 35.4361 18.0412 35.1719 18.1912 34.9065 18.065 34.7243 17.9401 34.541 17.8163 34.3577 18.3317 33.5924 19.0399 33.002 19.7457 32.4223 19.5791 32.1521 19.3982 31.8914 19.2232 31.6284 19.6707 31.1463 20.3099 30.8785 20.7015 30.3393 20.9741 29.8977 21.1288 29.3573 21.0122 28.8407 20.8967 28.3027 20.786 27.7647 20.7265 27.2184 20.473 25.2889 19.7041 23.3928 19.9933 21.4217 20.0969 20.8729 19.8279 20.3682 19.6588 19.8636 19.4113 19.1649 19.5077 18.4066 19.3244 17.6949 19.2149 17.2806 19.1113 16.8486 18.8744 16.4867 18.6602 16.1689 18.265 16.0892 17.9293 15.9689 18.3055 15.1976 18.7673 14.3597 19.5898 13.9978 20.1826 13.6919 20.692 13.2134 21.3562 13.0611 21.7204 13.0825 22.0763 13.1956 22.4453 13.1729 22.7631 12.8242 23.0155 12.4159 23.1523 11.9624 23.2773 11.6565 23.2868 11.278 23.5773 11.0697 23.607 11.2661 23.6332 11.4649 23.6582 11.6625 24.2664 11.5649 24.8568 11.3542 25.4758 11.3268 25.8531 11.3304 26.19 11.5268 26.5137 11.6994 26.9279 11.9386 27.3993 12.1529 27.6504 12.5849 27.8992 13.0658 27.9611 13.6133 28.1551 14.1145 28.3218 14.5013 28.7288 14.6918 29.0669 14.9048 29.6156 15.1107 30.175 14.8286 30.7035 14.6834 30.9999 15.0917 31.1404 15.5797 31.2951 16.0523 31.8891 15.813 32.4818 15.5404 32.9627 15.1084 33.3365 14.7656 33.734 14.4501 34.1792 14.2037 34.4399 14.4763 34.6244 14.806 34.7684 15.1524 34.8981 14.7382 35.016 14.3216 35.1267 13.9026 35.7468 13.9335 36.4086 13.7586 36.9895 14.0478 37.7239 14.4192 38.4083 14.8786 39.1046 15.3155 39.451 15.5571 39.8961 15.4214 40.239 15.2464 40.7805 14.9274 41.4281 15.0643 42.0256 15.0286 42.4803 14.9798 42.8493 15.2714 43.2575 15.4083 43.6122 15.4738 43.9741 15.4928 44.3335 15.5214 44.5966 16.0046 44.6597 16.5557 44.7763 17.0854 45.2632 17.058 45.7512 17.0319 46.238 17.0878 46.3106 16.6855 46.3868 16.282 46.4594 15.8797 46.5249 15.8773 46.657 15.8725 46.7237 15.8701 46.7832 16.1249 46.8367 16.3808 46.8796 16.6391 47.2938 16.6403 47.714 16.6498 48.1187 16.5522 48.6579 16.4165 49.2173 16.4617 49.766 16.4962 49.9779 16.4962 50.2279 16.5391 50.3969 16.376 51.0063 15.8737 51.5753 15.3167 52.2502 14.8989 52.543 15.0965 52.8358 15.294 53.1357 15.4821 53.3881 15.0119 53.569 14.4692 54.0047 14.1287 54.3379 14.0097 54.701 14.043 55.045 13.9716 55.6699 13.5134 56.0662 12.8313 56.4674 12.1862 56.6697 11.8886 57.0542 11.9969 57.3589 11.9565 57.6005 11.6101 57.8124 11.2423 58.0052 10.8662 58.5968 11.1364 59.2253 11.3375 59.7573 11.722 60.0525 11.5958 60.3334 11.4042 60.6584 11.3673 61.3559 11.9065 61.7987 12.6944 62.4093 13.3217 62.7473 13.3063 63.0354 13.1277 63.3223 12.9658 63.4449 13.1741 63.5686 13.3824 63.6901 13.5931 63.9805 13.4562 64.2697 13.3182 64.5685 13.1967 64.6411 13.4027 64.7101 13.6122 64.7815 13.8193 65.2291 13.2991 65.6386 12.7397 66.173 12.3028 66.7515 12.2314 67.1169 12.8956 67.6954 12.8397 67.8656 12.8539 67.9334 12.648 68.0156 12.5338 68.2417 12.0422 68.2631 11.4899 68.3786 10.9673 68.9797 11.0054 69.551 11.2209 70.1045 11.4446 70.5795 11.6268 70.7866 12.1291 71.0508 12.523 71.227 12.3695 71.396 12.2017 71.6019 12.0862 72.0376 12.01 72.522 12.2493 72.9172 11.9803 73.2374 11.7767 73.5861 11.6232 73.9587 11.5458 74.4443 11.4506 74.8157 11.0971 75.2585 10.8995 75.6406 10.7959 75.9393 11.1102 76.2571 11.2649 76.4857 11.0697 76.7071 10.8662 76.9356 10.6698 76.9963 10.9316 77.0582 11.1935 77.1094 11.4577 77.864 11.5053 78.6211 11.3982 79.3471 11.1935 80.2196 10.9304 81.1195 10.7852 82.0086 10.5948 82.349 10.5138 82.6918 10.621 83.0275 10.6781 83.7429 10.8424 84.4809 10.6483 85.2022 10.7745 85.6009 10.8519 86.0068 10.8769 86.4139 10.8912 86.5912 11.2316 86.7007 11.5994 86.771 11.9755 87.7161 11.647 88.7207 11.7636 89.7015 11.6863 89.9728 11.7315 90.2014 11.5649 90.4144 11.422 90.4109 11.6256 90.4121 11.8291 90.4204 12.0326 90.856 12.2231 91.3095 12.3695 91.7571 12.5314 92.2773 12.0434 92.7153 11.4708 93.2807 11.0304 93.3211 11.3697 93.3271 11.7113 93.3461 12.0529 93.952 11.9553 94.6305 11.6779 95.2089 12.0124 95.4839 12.1469 95.6993 12.3683 95.9267 12.5683 96.2362 12.3874 96.6278 12.3564 96.9396 12.554 97.5193 12.8694 98.1573 13.0646 98.8084 13.1634 99.638 13.2848 100.451 13.023 101.264 12.8956 101.785 12.8289 102.234 12.529 102.743 12.4171 103.256 12.2576 103.858 12.1779 104.217 11.7339 104.578 11.3792 104.832 10.9078 105.286 10.6531Z" fill="#FFFFFF" transform="matrix(1 0 0 1.51659 366.75 168.293)"/></g></svg>