<svg width="484" height="204" xmlns="http://www.w3.org/2000/svg" xmlns:xlink="http://www.w3.org/1999/xlink" xml:space="preserve" overflow="hidden"><defs><clipPath id="clip0"><rect x="0" y="0" width="484" height="204"/></clipPath><clipPath id="clip1"><rect x="298" y="104" width="157" height="80"/></clipPath><clipPath id="clip2"><rect x="298" y="104" width="157" height="80"/></clipPath><clipPath id="clip3"><rect x="298" y="104" width="157" height="80"/></clipPath></defs><g clip-path="url(#clip0)"><path d="M180.01 10.0763C184.584 9.1752 189.206 8.34817 193.885 8.34477 196.848 8.40473 199.267 10.4121 202.066 11.1224 207.455 12.3558 212.977 12.9 218.496 13.0909 219.727 13.1333 220.971 13.211 222.167 13.5503 226.779 14.8155 231.366 16.215 236.076 17.056 239.943 17.5544 243.778 16.4552 247.642 16.4623 250.928 16.5542 254.192 17.095 257.486 17.0631 262.765 17.0207 267.863 15.4834 273.044 14.6493 276.05 14.2289 279.091 14.091 282.128 14.1264 284.072 14.1158 285.752 15.4834 287.714 15.3704 293.095 14.9003 298.614 13.7553 303.958 15.1336 305.578 15.4622 307.154 16.0489 308.806 16.2044 310.405 15.9958 311.312 14.0557 313.007 14.1582 316.294 14.3207 319.507 15.1547 322.635 16.1514 324.695 16.8086 326.692 17.7169 328.846 18.0279 331.642 18.5121 334.486 18.3849 337.308 18.4272 339.09 18.3743 340.623 19.4062 342.227 20.0353 346.216 21.8623 350.673 22.4807 354.495 24.7107 356.436 25.6614 358.422 27.2764 360.721 26.711 365.154 25.5908 369.59 24.1913 374.202 24.1489 377.485 24.0428 380.54 25.46 383.711 26.0714 385.775 26.0219 387.887 25.4317 389.583 24.216 390.517 23.5693 391.139 22.555 392.12 21.972 395.874 22.2194 399.589 23.2689 403.372 23.0604 406.931 22.2829 409.999 20.1801 413.234 18.5969 413.426 19.445 413.62 20.2932 413.816 21.1449 415.125 20.5583 416.379 19.7914 417.8 19.498 419.8 20.0565 421.35 21.5902 423.281 22.3394 423.597 22.5197 423.934 22.5444 424.286 22.4136 426.057 21.94 427.638 20.9541 429.387 20.4064 431.541 19.7278 433.749 19.2259 435.904 18.5368 436.649 18.2753 437.433 18.4945 438.185 18.6359 440.059 19.0705 442.01 18.9326 443.898 19.3002 446.51 19.6925 449.04 20.4629 451.596 21.1096 456.531 22.304 461.646 21.728 466.67 21.9613 465.633 23.7177 463.974 25.4705 464.361 27.6828 464.822 29.1742 465.959 30.3051 466.8 31.588 468.466 34.1607 469.908 36.8855 471.75 39.3452 473.809 42.1123 473.792 45.7382 473.88 49.0355 473.929 51.9687 475.139 54.7393 476.819 57.0895 475.118 59.2064 474.242 61.8251 473.532 64.4123 472.93 66.6208 471.77 68.639 470.231 70.3207 471.173 70.6497 472.118 70.9887 473.037 71.3883 472.182 71.4449 471.332 71.4869 470.485 71.5402 469.381 74.0171 468.284 76.5235 467.82 79.2195 470.502 78.9831 473.18 78.6114 475.877 78.5128 473.444 79.2835 470.678 79.446 468.634 81.124 468.224 82.3505 469.021 83.5237 469.778 84.4181 470.945 85.8595 472.517 87.1531 472.868 89.0752 473.226 90.9101 473.581 92.7547 473.746 94.6211 473.409 96.7655 472.147 98.6497 471.954 100.834 473.813 100.485 475.677 100.145 477.564 99.9464 476.671 101.491 475.799 103.064 474.632 104.418 473.813 105.353 473.015 106.312 472.389 107.389 472.716 108.467 473.334 109.407 474 110.309 472.977 111.231 471.729 112.083 471.332 113.478 470.877 115.151 470.92 116.995 469.993 118.51 469.117 119.843 467.77 120.794 466.962 122.179 466.39 123.066 466.213 124.122 465.963 125.134 464.452 125.254 462.941 125.392 461.436 125.523 461.193 126.731 460.684 127.976 460.996 129.212 461.91 131.756 464.656 133.078 465.542 135.643 466.174 137.516 466.796 139.4 467.243 141.327 467.685 142.888 466.853 144.482 467.219 146.048 467.931 147.783 469.606 148.903 470.316 150.638 470.615 152.416 470.108 154.257 470.576 156.017 471.107 157.417 472.477 158.177 473.624 159.014 473.055 160.252 472.492 161.633 472.864 163.015 473.325 164.771 473.887 166.683 475.391 167.839 477.972 169.754 481.33 170.341 483.747 172.518 484.912 173.578 486.247 174.419 487.631 175.165 486.726 175.13 485.825 175.077 484.932 175.045 485.445 176.037 486.086 176.985 486.406 178.074 486.616 179.497 485.625 180.837 485.839 182.257 486.658 183.95 488.198 185.159 488.981 186.88 488.388 188.584 487.126 189.923 486.419 191.566 485.938 192.662 486.135 193.888 486.135 195.051 482.767 194.241 479.413 193.39 476.066 192.51 475.016 192.132 473.96 192.599 472.925 192.746 472.157 192.916 471.451 192.474 470.734 192.297 468.358 191.549 465.876 192.228 463.46 192.27 462.342 192.262 461.411 191.492 460.325 191.365 458.688 191.396 457.084 192.195 455.445 191.774 452.194 191.008 448.925 190.294 445.761 189.216 444.904 188.955 443.964 188.506 443.099 188.976 441.219 189.845 439.58 191.164 437.707 192.039 436.649 192.545 435.454 192.439 434.322 192.46 431.197 192.453 428.086 192.916 425.073 193.729 423.54 194.181 421.997 193.525 420.485 193.294 420.067 193.935 419.656 194.577 419.251 195.224 417.585 195.097 415.918 194.934 414.253 194.994 413.103 195.043 411.992 195.754 410.842 195.365 408.505 194.792 406.174 194.058 403.748 194.054 400.936 194.058 398.131 194.309 395.326 194.521 392.587 194.761 389.831 194.86 387.128 195.394 385.564 195.63 383.939 196.03 382.375 195.609 379.112 194.821 375.783 194.273 372.426 194.164 369.833 194.076 367.899 192.005 365.449 191.464 364.455 191.605 363.512 191.98 362.528 192.153 360.475 192.525 358.394 192.171 356.329 192.241 354.6 192.407 353.068 193.34 351.363 193.601 349.848 193.492 348.59 192.472 347.096 192.27 346.005 192.355 345.067 193.125 343.971 193.104 340.068 191.994 336.423 190.096 332.524 188.983 331.445 190.213 330.474 191.531 329.578 192.902 327.68 191.965 325.954 190.616 323.915 190.019 320.536 189.814 317.102 190.562 314.118 192.174 312.873 191.156 311.6 190.163 310.19 189.393 308.782 188.626 307.143 188.661 305.593 188.534 302.556 188.362 299.522 188.167 296.489 188.017 294.558 187.877 292.941 189.58 291.004 189.17 287.162 188.248 283.408 186.993 279.748 185.519 280.103 186.431 280.497 187.333 280.87 188.24 277.663 188.672 274.439 189.368 271.192 189.056 266.485 188.502 261.894 187.131 257.143 186.948 254.929 187.11 253.143 188.661 251.003 189.128 245.343 190.555 239.631 188.577 233.946 188.421 231.362 188.276 229.162 190.178 226.575 190.001 224.107 189.905 221.646 189.718 219.182 189.673 216.232 189.616 213.325 190.276 210.38 190.205 207.156 190.015 204.08 188.905 200.902 188.453 196.951 188.492 193.327 190.548 189.385 190.693 186.813 190.534 184.31 189.814 181.739 189.626 179.501 189.389 177.177 189.666 175.044 188.803 173.324 188.369 171.622 187.195 169.799 187.728 164.964 188.983 160.222 190.82 155.195 191.142 151.578 191.33 147.958 191.478 144.34 191.655 138.806 192.047 133.217 190.743 127.726 191.867 127.086 191.923 126.359 192.241 125.786 191.814 124.524 191.068 123.336 190.205 122.123 189.385 121.93 190.032 121.732 190.68 121.539 191.327 119.574 190.739 117.619 190.129 115.651 189.563 115.629 190.552 115.616 191.542 115.594 192.535 111.277 191.838 106.968 191.072 102.665 190.28 99.8317 189.683 97.188 191.389 94.3763 191.319 91.7714 190.966 89.2966 190.028 86.8251 189.166 85.8514 188.837 84.8884 188.371 83.8372 188.411 78.012 188.234 72.5317 190.506 67.0474 192.157 66.0284 191.372 64.9983 190.404 63.6487 190.329 60.6529 190.057 57.6543 189.817 54.6737 189.443 53.3864 189.333 52.0932 189.032 50.8066 189.223 49.1861 189.697 47.8498 190.853 46.2015 191.245 43.7892 190.82 41.5122 189.86 39.1742 189.153 38.0108 189.958 36.8328 191.022 35.3283 190.983 31.0008 191.076 26.5473 191.17 22.459 192.768 21.6746 193.036 20.8312 193.351 19.9911 193.131 16.7358 192.372 13.5474 191.307 10.2323 190.835 8.51332 190.559 6.76975 190.552 5.04715 190.365 6.95606 190.198 8.86842 190.079 10.7808 189.93 10.2113 188.934 9.49063 187.987 9.23394 186.851 9.43085 185.526 10.0426 184.293 10.141 182.951 10.2746 181.304 10.0777 179.594 10.6964 178.02 11.0585 176.797 11.8846 175.596 11.5753 174.271 11.3327 173.179 10.9284 172.133 10.7457 171.031 11.9373 169.648 13.2626 168.39 14.5141 167.065 13.7582 165.47 12.6756 163.934 12.563 162.121 12.535 159.682 14.4719 157.88 15.0449 155.618 15.3718 153.565 14.8692 151.469 15.2277 149.419 15.5335 147.677 16.7885 146.228 16.894 144.44 16.9924 141.96 16.5459 139.4 17.3861 136.997 18.5077 133.789 20.1349 130.784 21.3513 127.611 22.5431 124.579 24.3538 121.808 25.3343 118.698 24.1212 117.221 22.3636 116.362 21.0915 114.959 20.6695 114.538 20.7186 113.903 20.6728 113.359 20.645 110.751 21.7839 108.224 21.3725 105.609 21.0981 103.601 20.8279 101.59 20.7749 99.5611 20.7716 98.3596 21.3234 97.243 21.383 96.0488 20.6378 94.5678 19.1087 93.734 17.8188 92.7903 17.9764 92.1261 18.1314 91.462 18.2898 90.797 17.6147 90.4795 16.9397 90.1603 16.2682 89.8388 17.5656 89.0203 19.3756 88.567 19.9348 86.9664 20.6271 84.1919 21.0107 81.3511 21.4745 78.5302 21.8965 75.8408 24.4346 73.8267 24.1742 70.9781 23.7946 68.0769 23.1758 65.1436 23.5554 62.2068 23.9701 60.0581 25.2714 58.0119 24.8917 55.7572 24.2584 52.2125 21.5732 49.5409 20.3919 46.2224 20.3879 44.2893 22.1847 42.8722 22.1039 40.9249 21.9667 39.2357 20.7749 37.928 20.0541 36.465 19.0245 34.599 18.7569 32.3584 17.3828 30.6798 16.3736 29.2237 14.9324 27.9904 14.4438 26.2304 13.8601 23.2866 14.8235 20.2932 16.1768 17.6993 16.8238 18.7772 17.3616 20.1342 18.6973 20.4982 21.7488 21.5549 24.8878 22.3394 27.9777 23.2831 29.0814 22.1097 30.168 20.8835 31.4969 19.9611 34.6466 19.9787 37.7399 21.3429 40.9318 20.9223 43.0976 20.6185 45.2236 19.9433 47.1402 18.8726 48.5362 18.0916 49.5094 16.784 50.5853 15.6354 50.884 16.6073 51.1511 17.5933 51.4466 18.5686 53.134 18.558 55.0599 19.1305 56.5539 18.081 57.8266 16.9112 58.8362 15.4835 59.9923 14.2042 61.8944 14.9358 63.7746 16.0454 65.8807 15.9004 67.7119 15.7909 69.5431 15.7131 71.3716 15.5506 73.0802 15.3915 73.6672 13.1369 75.4249 13.0627 78.5076 12.7128 81.5385 11.9954 84.5054 11.0835 85.5703 12.3277 86.6707 13.5432 87.8302 14.6989 89.8549 14.2006 91.55 12.6987 93.6758 12.5784 96.0391 12.6881 98.4145 13.713 100.781 13.0344 105.361 11.7445 109.977 10.3697 114.757 10.1682 119.873 9.9174 124.837 11.4088 129.882 11.9636 131.835 12.2145 133.115 10.0375 135.063 10.2248 139.917 10.5889 144.79 10.9705 149.659 10.6524 149.894 11.1508 150.129 11.649 150.365 12.151 152.169 11.7762 153.965 11.232 155.821 11.2037 157.189 11.9742 158.38 13.0909 159.91 13.5575 161.657 14.0839 163.601 14.9039 165.383 14.0275 167.207 13.4125 168.94 11.8399 170.968 12.4229 172.547 12.7304 174.094 13.1898 175.655 13.5857 175.996 12.741 176.172 11.7656 176.829 11.0978 177.8 10.5288 178.931 10.3343 180.01 10.0764Z" fill="#E8E8E9" transform="matrix(1 0 0 1.0883 -5.01562 -9.08152)"/><path d="M228.758 13.5934C233.325 12.6982 237.941 11.8767 242.614 11.8733 245.574 11.9329 247.989 13.927 250.784 14.6326 256.165 15.8578 261.681 16.3985 267.194 16.5881 268.422 16.6302 269.665 16.7074 270.858 17.0444 275.464 18.3013 280.046 19.6915 284.749 20.5271 288.611 21.0222 292.441 19.9302 296.3 19.9373 299.581 20.0286 302.841 20.5658 306.13 20.534 311.403 20.492 316.495 18.9648 321.669 18.1363 324.669 17.7185 327.708 17.5816 330.74 17.6167 332.68 17.6061 334.359 18.9648 336.317 18.8525 341.694 18.3856 347.205 17.2481 352.542 18.6173 354.161 18.9438 355.734 19.5265 357.383 19.681 358.981 19.4738 359.886 17.5465 361.578 17.6483 364.861 17.8098 368.071 18.6383 371.193 19.6283 373.253 20.2813 375.245 21.1837 377.396 21.4925 380.189 21.9735 383.029 21.8471 385.848 21.8892 387.627 21.8366 389.158 22.8618 390.76 23.4866 394.743 25.3017 399.196 25.916 403.013 28.1313 404.95 29.0757 406.932 30.68 409.228 30.1183 413.655 29.0055 418.087 27.6152 422.693 27.5731 425.971 27.4677 429.022 28.8757 432.19 29.483 434.251 29.4339 436.36 28.8474 438.052 27.6398 438.986 26.9974 439.607 25.9898 440.586 25.4105 444.337 25.6563 448.045 26.6988 451.825 26.4919 455.378 25.7194 458.443 23.6306 461.673 22.0578 461.866 22.9004 462.059 23.7429 462.254 24.589 463.56 24.0062 464.814 23.2444 466.231 22.953 468.229 23.5077 469.779 25.0313 471.705 25.7756 472.023 25.9547 472.358 25.9793 472.709 25.8493 474.479 25.3789 476.058 24.3994 477.803 23.8553 479.957 23.1813 482.161 22.6826 484.312 21.998 485.056 21.7382 485.84 21.956 486.59 22.0965 488.461 22.5283 490.412 22.3912 492.297 22.7564 494.905 23.1461 497.43 23.9114 499.985 24.5539 504.913 25.7405 510.021 25.1682 515.039 25.3999 514.001 27.1446 512.346 28.8862 512.731 31.0838 513.191 32.5652 514.329 33.6888 515.168 34.9632 516.833 37.5189 518.272 40.2258 520.111 42.6691 522.168 45.418 522.152 49.0201 522.239 52.2954 522.287 55.2094 523.495 57.9617 525.174 60.2963 523.474 62.3992 522.601 65.0007 521.891 67.5705 521.291 69.7647 520.133 71.7694 518.594 73.4405 519.536 73.767 520.478 74.104 521.397 74.5007 520.542 74.5567 519.694 74.599 518.848 74.6518 517.744 77.1126 516.649 79.6016 516.187 82.2802 518.866 82.0456 521.54 81.6768 524.232 81.578 521.803 82.3436 519.04 82.5051 517 84.1729 516.591 85.3908 517.388 86.5565 518.142 87.4443 519.306 88.8775 520.877 90.1621 521.228 92.0717 521.585 93.8938 521.941 95.7263 522.104 97.5797 521.769 99.711 520.507 101.582 520.315 103.752 522.173 103.405 524.034 103.068 525.918 102.871 525.026 104.404 524.155 105.968 522.989 107.312 522.173 108.242 521.376 109.193 520.751 110.264 521.075 111.335 521.692 112.269 522.357 113.164 521.336 114.08 520.09 114.927 519.694 116.313 519.24 117.974 519.283 119.807 518.357 121.312 517.483 122.636 516.136 123.58 515.329 124.956 514.758 125.838 514.582 126.887 514.331 127.891 512.824 128.012 511.314 128.148 509.81 128.277 509.569 129.478 509.06 130.715 509.372 131.942 510.284 134.471 513.027 135.783 513.912 138.332 514.542 140.193 515.165 142.064 515.612 143.977 516.052 145.53 515.22 147.113 515.585 148.667 516.298 150.391 517.969 151.505 518.678 153.228 518.977 154.995 518.472 156.823 518.94 158.571 519.468 159.962 520.837 160.717 521.983 161.548 521.413 162.778 520.854 164.151 521.223 165.523 521.685 167.268 522.244 169.167 523.749 170.315 526.325 172.218 529.677 172.801 532.092 174.963 533.256 176.016 534.589 176.852 535.972 177.593 535.067 177.557 534.167 177.505 533.275 177.473 533.79 178.46 534.428 179.401 534.748 180.482 534.958 181.896 533.969 183.228 534.182 184.639 534.999 186.32 536.537 187.521 537.321 189.23 536.727 190.923 535.465 192.253 534.761 193.886 534.28 194.975 534.476 196.192 534.476 197.348 531.113 196.543 527.763 195.698 524.422 194.823 523.371 194.448 522.318 194.911 521.283 195.058 520.518 195.227 519.813 194.787 519.098 194.612 516.723 193.868 514.244 194.542 511.834 194.584 510.715 194.577 509.785 193.812 508.701 193.685 507.064 193.717 505.465 194.511 503.828 194.092 500.582 193.331 497.317 192.622 494.157 191.551 493.299 191.291 492.363 190.846 491.499 191.312 489.62 192.176 487.983 193.486 486.115 194.356 485.056 194.859 483.863 194.753 482.733 194.774 479.611 194.766 476.504 195.227 473.495 196.034 471.964 196.484 470.423 195.831 468.913 195.602 468.496 196.238 468.087 196.877 467.683 197.519 466.018 197.393 464.355 197.232 462.689 197.291 461.541 197.34 460.432 198.046 459.284 197.659 456.948 197.091 454.623 196.36 452.199 196.357 449.392 196.36 446.591 196.61 443.787 196.821 441.053 197.059 438.3 197.158 435.603 197.688 434.04 197.923 432.416 198.32 430.854 197.902 427.597 197.119 424.271 196.575 420.919 196.466 418.33 196.379 416.398 194.321 413.951 193.784 412.959 193.924 412.016 194.296 411.034 194.468 408.983 194.837 406.906 194.486 404.844 194.556 403.116 194.721 401.588 195.649 399.882 195.908 398.37 195.799 397.114 194.785 395.622 194.584 394.532 194.668 393.595 195.434 392.502 195.412 388.603 194.31 384.963 192.425 381.07 191.319 379.991 192.541 379.022 193.851 378.127 195.213 376.232 194.282 374.509 192.941 372.471 192.348 369.097 192.144 365.669 192.889 362.687 194.489 361.446 193.479 360.174 192.492 358.767 191.726 357.36 190.965 355.724 191 354.174 190.873 351.141 190.701 348.111 190.509 345.081 190.361 343.154 190.221 341.538 191.913 339.604 191.506 335.769 190.589 332.018 189.343 328.362 187.878 328.718 188.785 329.112 189.68 329.484 190.582 326.282 191.01 323.062 191.702 319.818 191.393 315.117 190.842 310.532 189.479 305.789 189.297 303.577 189.459 301.793 191 299.658 191.464 294.003 192.882 288.299 190.916 282.622 190.762 280.041 190.617 277.844 192.506 275.261 192.331 272.795 192.236 270.338 192.049 267.878 192.004 264.933 191.948 262.028 192.604 259.086 192.534 255.867 192.344 252.795 191.242 249.622 190.792 245.676 190.832 242.056 192.875 238.121 193.018 235.551 192.861 233.051 192.144 230.485 191.958 228.249 191.723 225.929 191.997 223.797 191.141 222.08 190.709 220.38 189.543 218.559 190.073 213.733 191.319 208.996 193.144 203.976 193.464 200.363 193.651 196.747 193.798 193.135 193.974 187.608 194.363 182.027 193.067 176.543 194.184 175.904 194.24 175.177 194.556 174.605 194.132 173.344 193.39 172.158 192.534 170.947 191.719 170.754 192.362 170.557 193.005 170.364 193.647 168.401 193.064 166.449 192.457 164.483 191.896 164.462 192.878 164.449 193.861 164.427 194.848 160.116 194.156 155.812 193.394 151.515 192.608 148.686 192.014 146.046 193.71 143.237 193.64 140.636 193.289 138.165 192.358 135.696 191.502 134.723 191.175 133.761 190.712 132.712 190.75 126.894 190.575 121.421 192.833 115.945 194.472 114.927 193.692 113.898 192.731 112.55 192.657 109.558 192.386 106.564 192.147 103.587 191.775 102.302 191.667 101.01 191.368 99.7255 191.558 98.1067 192.029 96.7723 193.177 95.1261 193.566 92.7176 193.144 90.4425 192.191 88.1078 191.488 86.9462 192.288 85.77 193.345 84.2677 193.306 79.9458 193.398 75.4977 193.492 71.4147 195.08 70.6318 195.346 69.7893 195.658 68.9501 195.441 65.6994 194.686 62.515 193.629 59.2046 193.159 57.4879 192.885 55.7466 192.878 54.0262 192.692 55.9326 192.527 57.8424 192.408 59.7523 192.26 59.1835 191.271 58.4637 190.329 58.2074 189.202 58.4041 187.886 59.0151 186.661 59.1133 185.327 59.2466 183.691 59.0501 181.992 59.6679 180.429 60.0295 179.214 60.8545 178.021 60.5457 176.705 60.3034 175.62 59.8996 174.58 59.7172 173.485 60.9073 172.113 62.2308 170.863 63.4806 169.546 62.7257 167.962 61.6446 166.435 61.5321 164.635 61.5041 162.212 63.4383 160.422 64.0106 158.174 64.3371 156.135 63.8351 154.053 64.1933 152.017 64.4986 150.286 65.7522 148.847 65.8575 147.071 65.9556 144.606 65.5098 142.064 66.349 139.677 67.4689 136.49 69.0943 133.505 70.309 130.353 71.4989 127.341 73.3069 124.588 74.2865 121.499 73.0755 120.031 71.3199 119.178 70.049 117.785 69.628 117.366 69.6768 116.735 69.6314 116.194 69.6032 113.603 70.7408 111.093 70.3299 108.495 70.0562 106.501 69.7858 104.503 69.7333 102.487 69.7296 101.294 70.2808 100.185 70.3404 98.9984 69.5963 97.5266 68.0691 96.6992 66.7808 95.7616 66.9386 95.1012 67.093 94.4417 67.2511 93.7813 66.577 93.4656 65.9029 93.149 65.2324 92.8301 66.5279 92.0163 68.336 91.5656 68.8939 89.9757 69.5858 87.2201 69.9683 84.3971 70.4317 81.5957 70.853 78.9241 73.3877 76.9231 73.1279 74.0935 72.7489 71.2112 72.131 68.2974 72.5101 65.3799 72.9244 63.2454 74.2233 61.2127 73.8441 58.9729 73.2122 55.4515 70.5301 52.7975 69.3503 49.501 69.3469 47.5805 71.141 46.1728 71.0602 44.2384 70.9232 42.5605 69.7333 41.2612 69.0135 39.8079 67.9849 37.9542 67.7181 35.7283 66.3453 34.061 65.3378 32.6145 63.8984 31.3893 63.4104 29.6408 62.8276 26.7165 63.7894 23.7429 65.1411 21.166 65.7873 22.2368 66.3244 23.585 67.6584 23.9466 70.7057 24.9962 73.8406 25.7756 76.9265 26.7128 78.029 25.5474 79.1138 24.3292 80.4404 23.4129 83.5865 23.4305 86.6754 24.7856 89.8632 24.3678 92.0259 24.0659 94.15 23.3954 96.0637 22.3316 97.4575 21.5558 98.4296 20.2568 99.5037 19.1158 99.8026 20.0812 100.069 21.0607 100.364 22.0296 102.05 22.0192 103.973 22.5879 105.465 21.5452 106.736 20.3831 107.744 18.9648 108.898 17.694 110.798 18.4207 112.676 19.523 114.779 19.379 116.608 19.2703 118.437 19.193 120.263 19.0315 121.969 18.8736 122.555 16.6337 124.31 16.56 127.39 16.2125 130.416 15.4998 133.379 14.594 134.442 15.8298 135.542 17.0374 136.7 18.1855 138.722 17.6904 140.414 16.1984 142.537 16.079 144.898 16.1879 147.271 17.206 149.634 16.5319 154.208 15.2505 158.817 13.8848 163.591 13.6847 168.7 13.4355 173.657 14.917 178.695 15.4682 180.646 15.7174 181.924 13.5548 183.869 13.7409 188.718 14.1025 193.584 14.4817 198.447 14.1657 198.681 14.6607 198.916 15.1557 199.152 15.6543 200.952 15.2821 202.747 14.7415 204.601 14.7133 205.966 15.4787 207.156 16.5881 208.683 17.0515 210.428 17.5746 212.37 18.389 214.15 17.5184 215.972 16.9075 217.702 15.3453 219.728 15.9245 221.304 16.23 222.849 16.6864 224.408 17.0795 224.748 16.2405 224.924 15.2715 225.58 14.608 226.55 14.0429 227.68 13.8497 228.758 13.5934Z" fill="#E8E8E9" transform="matrix(1 0 0 1.09452 -53.6724 -13.1782)"/><g clip-path="url(#clip1)"><g clip-path="url(#clip2)"><g clip-path="url(#clip3)"><path d="M104.131 3.46568C104.232 3.47183 104.334 3.47801 104.438 3.48529 104.368 3.5913 104.266 3.66478 104.145 3.69843 104.141 3.6401 104.134 3.52402 104.131 3.46568Z" fill="#B5C09E" transform="matrix(1 0 0 2.55185 299.148 105.436)"/><path d="M12.6529 1.86548C12.6814 1.86099 12.7386 1.85314 12.7673 1.84922 12.7762 1.91652 12.7852 1.98382 12.7947 2.05114 13.0752 1.98326 13.3658 1.98214 13.649 1.92942 13.8229 1.89409 13.9984 1.93727 14.1616 1.99729 14.4253 2.096 14.704 2.17397 14.9322 2.34503 15.0758 2.4931 15.123 2.70062 15.197 2.88684 15.2626 3.07641 15.4825 3.12577 15.6418 3.2116 15.9463 3.36303 16.284 3.23459 16.5925 3.16953 16.7786 3.27329 16.8415 3.49371 16.9324 3.67264 17.2044 3.58177 17.4927 3.53298 17.7456 3.39106 18.0008 3.27664 18.2274 3.08987 18.5056 3.03322 18.6638 3.07865 18.7406 3.25085 18.841 3.36862 18.9033 3.21999 18.9666 3.07081 19.0312 2.92274 19.3503 2.94182 19.6756 2.88515 19.9902 2.95359 20.4059 3.10782 20.8176 3.27384 21.2186 3.46286 21.5254 3.62104 21.8378 3.36247 22.1514 3.36638 22.5305 3.36976 22.9298 3.31254 23.2899 3.46286 23.5266 3.56326 23.7874 3.51839 24.0354 3.55484 24.1946 3.70181 24.2114 3.93176 24.2759 4.12695 24.544 4.11125 24.8138 4.09721 25.0814 4.13534 25.1229 3.99234 25.1638 3.8493 25.2042 3.70571 25.2395 3.70347 25.3102 3.69843 25.3455 3.69618 25.3758 3.79097 25.405 3.88575 25.4336 3.98112 25.8762 4.01139 26.3125 3.89531 26.755 3.93231 26.9653 3.93905 27.1931 4.01198 27.3855 3.88745 27.7126 3.71134 28.0288 3.51504 28.3788 3.38378 28.5314 3.46568 28.6913 3.5341 28.8544 3.59412 28.9856 3.41857 29.1242 3.23628 29.3187 3.12634 29.5489 3.04051 29.8231 3.1443 30.039 3.00519 30.2784 2.85487 30.4967 2.67034 30.6783 2.45329 30.8098 2.28726 31.0526 2.42243 31.2191 2.33102 31.3474 2.23118 31.445 2.09881 31.5454 1.97205 31.827 2.04496 32.1126 2.11002 32.3774 2.23342 32.5943 2.36242 32.8042 2.12797 33.0256 2.16835 33.365 2.36186 33.6263 2.6653 33.945 2.88798 34.117 2.88964 34.2775 2.81618 34.4346 2.75336 34.5002 2.82964 34.5658 2.90758 34.6298 2.98611 34.7925 2.92498 34.9611 2.88235 35.1324 2.85263 35.162 2.92836 35.1929 3.00406 35.2243 3.07978 35.4606 2.88349 35.706 2.69447 35.9747 2.54582 36.2938 2.47067 36.5604 2.80945 36.884 2.73483 37.1123 2.59406 37.1554 2.30858 37.2142 2.06964 37.5431 2.09095 37.8682 2.15826 38.1818 2.2581 38.3922 2.3125 38.5223 2.49591 38.6601 2.64902 38.7538 2.59126 38.8481 2.53124 38.9531 2.49422 39.1851 2.4516 39.4298 2.57331 39.6558 2.47067 39.8701 2.37981 40.0973 2.32428 40.3294 2.30016 40.5711 2.28166 40.768 2.11058 41.0079 2.08366 41.1869 2.0674 41.3508 2.15546 41.5094 2.22613 41.6346 2.14929 41.7642 2.07862 41.8954 2.01131 41.9246 2.1061 41.9521 2.20089 41.9795 2.29624 42.6413 2.35625 43.2919 2.19247 43.9426 2.10049 44.1714 2.08254 44.4013 2.0702 44.6275 2.02253 44.8782 1.96868 45.1242 2.06403 45.3739 2.07974 45.7503 2.1089 46.1322 2.03935 46.5058 2.11732 46.6791 2.15546 46.8576 2.13022 47.0326 2.15209 47.1727 2.23006 47.1867 2.41682 47.2461 2.552 47.4594 2.50208 47.6774 2.46898 47.8978 2.4774 48.2558 2.48638 48.6142 2.46282 48.9726 2.45777 49.1687 2.47067 49.2827 2.27885 49.4214 2.17172 49.6591 2.33494 49.861 2.54302 50.0556 2.75447 50.257 2.61314 50.4399 2.44823 50.612 2.27212 50.7442 2.46226 50.8206 2.70007 51.0134 2.84197 51.468 2.98949 51.8934 2.72754 52.2717 2.50713 52.4398 2.64287 52.5763 2.84197 52.7904 2.90648 53.2127 2.93171 53.6464 2.96367 54.0581 2.84197 54.4198 2.91152 54.7653 3.0607 55.1366 3.08482 55.4053 3.0966 55.66 3.18578 55.9195 3.24467 56.0874 3.16335 56.1887 2.99509 56.3149 2.86385 56.4368 2.70794 56.6078 2.60416 56.7789 2.50993 56.8014 2.57611 56.8243 2.64287 56.8478 2.7096 57.3214 2.7943 57.3015 3.42361 57.6706 3.6401 57.8345 3.64123 57.995 3.58963 58.1596 3.59802 58.3257 3.60869 58.4817 3.68217 58.6482 3.69001 58.7649 3.62663 58.8646 3.53747 58.9702 3.45726 59.071 3.54307 59.1677 3.63392 59.264 3.7259 59.4659 3.61598 59.6024 3.4292 59.7296 3.24357 59.8048 3.29966 59.8787 3.36023 59.9608 3.40846 60.1946 3.1959 60.3886 2.94517 60.5956 2.70735 60.7662 2.70176 60.9411 2.71466 61.1082 2.67146 61.2542 2.57163 61.3529 2.41851 61.4946 2.31306 61.7488 2.27605 62.0011 2.35625 62.2558 2.35794 62.9733 2.37757 63.6754 2.16387 64.3938 2.18686 64.4757 2.38206 64.5509 2.64454 64.7926 2.68606 64.9917 2.72139 65.1287 2.89302 65.3266 2.92946 65.4956 2.97547 65.6878 2.98051 65.8268 3.10278 66.0506 3.29234 66.3312 3.38995 66.5904 3.51953 66.7327 3.58456 66.8678 3.66815 67.0194 3.71302 67.3408 3.40901 67.5309 2.96761 67.9437 2.76234 68.1377 2.58285 68.3003 2.8829 68.4972 2.90758 68.8316 2.92218 69.1732 2.8128 69.5034 2.90648 69.6174 2.93509 69.6728 3.04949 69.7486 3.12914 69.8423 3.11848 69.9365 3.10671 70.0313 3.09605 70.2142 3.39668 70.2706 3.81116 70.6117 3.98616 70.7323 4.05012 70.8849 4.14656 71.02 4.05851 71.3275 3.88575 71.5828 3.63674 71.8794 3.44715 71.9457 3.38771 72.032 3.44155 72.1078 3.45164 72.1133 3.56719 72.0444 3.71189 72.1392 3.80557 72.2006 3.89024 72.3142 3.87622 72.4071 3.88351 72.8014 3.88689 73.1958 3.86332 73.5906 3.88296 73.7387 3.88126 73.9023 3.90315 74.0364 3.82127 74.1381 3.75846 74.1895 3.64514 74.2542 3.54866 74.5952 3.55988 74.9328 3.5139 75.2722 3.48698 75.5177 3.46286 75.8062 3.62833 76.0158 3.43986 76.3726 3.20038 76.6215 2.84086 76.9576 2.5778 77.1241 2.4359 77.3131 2.63052 77.4691 2.69838 77.6122 2.6395 77.7507 2.55873 77.9065 2.53461 78.0833 2.55144 78.2393 2.64846 78.4098 2.69165 78.6817 2.76738 78.9734 2.71802 79.241 2.81505 79.5881 2.91825 79.8562 3.17346 80.1648 3.35126 80.4112 3.50662 80.6776 3.62494 80.9256 3.77865 81.092 3.65411 81.2728 3.54811 81.4392 3.42192 81.5864 3.32714 81.5464 3.1269 81.588 2.97938 81.7584 2.96761 81.8336 3.10671 81.8808 3.24806 81.9656 3.1841 82.0392 3.06128 82.1608 3.09156 82.3912 3.16055 82.5808 3.36807 82.8352 3.3563 83.1112 3.32209 83.3816 3.24581 83.6512 3.17737 83.9016 3.12128 84.1584 3.16 84.412 3.15886 84.7456 3.12801 85.032 2.93395 85.2952 2.74046 85.3016 2.83413 85.308 2.92722 85.3152 3.0209 85.5104 2.98556 85.7 2.92778 85.8944 2.88739 86.0944 2.84086 86.2752 2.98331 86.4704 2.98894 86.7016 2.94293 86.9224 2.85487 87.144 2.77355 87.2416 2.83917 87.332 2.92162 87.4472 2.95639 87.624 2.9463 87.7944 2.86496 87.9744 2.88011 88.144 3.01697 88.2736 3.19476 88.4088 3.36472 88.6904 3.2688 88.9272 3.08596 89.176 2.92778 89.2272 3.03491 89.2776 3.14261 89.3256 3.25198 89.6424 3.07586 89.9488 2.88011 90.2776 2.72699 90.2912 2.84926 90.3064 2.97154 90.3208 3.0938 90.496 3.0209 90.6672 2.91432 90.8632 2.91656 91.136 2.91432 91.3784 3.06353 91.6472 3.08876 92.012 3.13363 92.3648 3.23853 92.728 3.29683 93.2536 3.38266 93.7512 3.59074 94.272 3.69508 94.5728 3.56158 94.7888 3.28113 95.1152 3.19252 95.12 3.30694 95.1256 3.42192 95.132 3.53634 95.4208 3.49485 95.716 3.45388 96.008 3.4954 96.1928 3.54082 96.3544 3.64962 96.5208 3.74162 96.8048 3.55764 97.1024 3.79155 97.3856 3.85324 97.7768 3.93231 98.1784 4.01982 98.5792 3.96148 98.9144 3.91661 99.2544 3.91268 99.5872 3.84595 99.8136 3.782 100.043 3.7276 100.278 3.69674 100.498 3.65805 100.738 3.63841 100.922 3.49651 101.116 3.35181 101.298 3.17682 101.534 3.10222 101.823 3.00854 102.106 2.86778 102.417 2.86778 102.657 2.86834 102.898 2.86665 103.139 2.87786 103.478 2.89077 103.71 3.18523 104.03 3.26207 104.353 3.34453 104.676 3.44829 104.96 3.62888 105.096 3.71694 105.205 3.8437 105.348 3.92278 105.616 3.95364 105.848 3.7635 106.113 3.75397 106.25 3.72984 106.292 3.89362 106.37 3.97439 106.683 3.92223 106.987 3.828 107.298 3.76687 107.318 3.88465 107.338 4.00186 107.363 4.11853 107.56 4.08039 107.753 4.0215 107.948 3.96877 107.961 4.07479 107.974 4.18022 107.991 4.28625 108.47 4.12975 108.966 4.03158 109.449 3.88745 109.628 3.83584 109.789 3.71638 109.981 3.70571 110.144 3.75566 110.27 3.88126 110.41 3.97608 110.461 3.82911 110.476 3.6345 110.628 3.5526 110.911 3.50493 111.2 3.54027 111.487 3.53914 111.71 3.94971 111.994 4.36474 112.429 4.57229 112.734 4.72485 113.07 4.80786 113.399 4.88974 113.634 4.95536 113.929 4.88132 114.112 5.07651 114.126 5.16121 114.126 5.24702 114.13 5.33283 114.456 5.43434 114.803 5.4293 115.137 5.49772 115.297 5.40911 115.382 5.23242 115.512 5.10737 115.754 5.12082 115.862 5.43044 116.107 5.46296 116.466 5.35806 116.753 5.09222 117.113 4.98957 117.382 4.90434 117.662 5.03388 117.935 4.97724 118.078 4.92508 118.202 4.8331 118.334 4.75568 118.401 4.80953 118.47 4.8645 118.539 4.91946 118.839 4.74784 119.143 4.58237 119.423 4.3771 119.574 4.42421 119.734 4.55041 119.894 4.46739 120.118 4.38887 120.346 4.23744 120.594 4.31093 120.805 4.3625 121.046 4.45 121.131 4.67211 121.236 4.92059 121.47 5.09166 121.718 5.18365 121.851 5.13374 121.967 5.0451 122.1 4.98901 122.366 4.86506 122.668 4.90375 122.946 4.82861 123.227 4.77645 123.542 4.71194 123.806 4.86113 123.98 4.94527 124.134 5.0793 124.324 5.13149 124.449 5.12642 124.474 4.99294 124.51 4.89871 124.706 4.88581 124.902 4.87966 125.099 4.89871 125.405 4.93572 125.71 4.86786 126.016 4.89309 126.092 4.82972 126.166 4.76186 126.252 4.7097 126.394 4.79382 126.518 4.90434 126.65 5.00416 126.814 4.92788 126.978 4.846 127.139 4.7613 127.21 4.89478 127.279 5.02884 127.347 5.16456 127.738 5.13764 128.134 5.08718 128.499 4.93572 128.683 4.85664 128.802 4.68782 128.917 4.53077 129.179 4.70073 129.435 4.88356 129.722 5.01369 129.877 4.89591 130.032 4.77645 130.182 4.65137 130.426 4.74111 130.683 4.78374 130.93 4.86282 131.083 4.90375 131.238 4.95425 131.4 4.95591 131.647 4.85049 131.762 4.57788 131.99 4.44834 132.334 4.43487 132.566 4.71305 132.829 4.88356 133.092 4.92508 133.343 4.79102 133.606 4.77925 133.588 4.88805 133.57 4.99743 133.551 5.10623 133.823 4.89871 134.154 5.06025 134.453 5.09446 134.844 5.14102 135.241 5.15672 135.627 5.24478 135.999 5.1971 136.298 4.8875 136.685 4.88414 136.954 4.87572 137.235 4.87403 137.494 4.96882 137.761 5.0995 137.969 5.31826 138.187 5.5168 138.433 5.24813 138.672 4.96209 138.983 4.76466 139.305 4.56442 139.71 4.75682 140.044 4.59472 140.21 4.52573 140.354 4.4113 140.52 4.34175 140.793 4.26157 141.084 4.26885 141.354 4.17238 141.694 4.09721 142.005 3.93625 142.306 3.76629 142.458 3.66309 142.659 3.70741 142.798 3.81396 143.133 4.06413 143.29 4.47526 143.608 4.74335 143.908 4.98732 144.187 5.27394 144.55 5.4237 144.677 5.48259 144.828 5.50558 144.93 5.60879 145.052 5.72712 145.154 5.86398 145.258 5.99914 145.266 5.9369 145.278 5.87464 145.29 5.81295 145.673 5.72994 146.045 5.5897 146.365 5.3603 146.713 5.13764 147.012 4.82916 147.406 4.68671 147.381 4.81122 147.351 4.93406 147.315 5.05521 147.577 5.26497 147.876 5.42146 148.166 5.59084 148.207 5.90774 148.105 6.21062 148.015 6.50843 148.062 6.85785 148.367 7.12652 148.39 7.48491 148.384 7.83042 148.05 8.05144 148.005 8.38512 147.989 8.80976 147.755 9.17992 147.5 9.50352 147.839 9.4912 148.163 9.34928 148.506 9.38128 148.676 9.39472 148.842 9.34872 149.01 9.32688 148.539 9.63648 147.938 9.57528 147.401 9.58152 147.451 9.71272 147.525 9.83888 147.547 9.97968 147.518 10.2248 147.402 10.4475 147.315 10.6752 147.226 10.8732 147.159 11.0846 147.038 11.2653 146.818 11.305 146.599 11.2204 146.383 11.1951 146.384 11.3393 146.389 11.484 146.394 11.6282 146.546 11.6685 146.686 11.7482 146.766 11.8906 146.567 11.9669 146.282 11.8979 146.167 12.1161 145.931 12.4554 145.698 12.801 145.4 13.0914 145.192 13.3001 145.14 13.6013 145.057 13.8722 145.006 14.0259 144.981 14.1858 144.964 14.3462 145.104 14.3288 145.245 14.3125 145.387 14.299 145.271 14.5295 145.134 14.7651 145.128 15.0298 145.189 15.3866 145.271 15.7506 145.474 16.0574 145.677 16.4046 145.993 16.6603 146.263 16.952 146.38 17.0866 146.564 17.1079 146.718 17.1802 146.927 17.279 147.11 17.4231 147.311 17.537 147.489 17.6705 147.699 17.5112 147.888 17.4865 147.882 17.7333 147.829 18.0244 148.025 18.2185 148.241 18.3996 148.488 18.5426 148.698 18.7334 148.631 18.7805 148.566 18.8265 148.501 18.8707 148.658 18.9145 148.817 18.9594 148.974 19.0115 148.977 19.2976 148.898 19.5977 149.001 19.8742 149.038 19.9779 149.111 20.0671 149.213 20.1154 149.466 20.2651 149.738 20.3762 150.01 20.4894 149.982 20.5898 149.954 20.6902 149.929 20.7906 150.103 20.8422 150.276 20.8983 150.45 20.9578 150.131 21.1737 149.775 21.3308 149.398 21.4121 149.075 21.5299 148.736 21.5916 148.394 21.6045 148.459 21.6825 148.527 21.7593 148.596 21.8372 148.167 22.1104 147.663 22.2226 147.193 22.3986 147.151 22.6909 147.078 22.9865 146.902 23.2288 146.652 23.5754 146.238 23.7538 145.838 23.8648 145.855 24.1526 145.846 24.4437 145.774 24.7241 145.633 24.7628 145.493 24.8032 145.354 24.843 145.386 25.1767 145.392 25.5306 145.239 25.8391 145.079 26.165 144.944 26.5015 144.851 26.8531 144.744 26.7394 144.675 26.5992 144.614 26.4588 144.506 26.4836 144.397 26.5106 144.291 26.5385 144.322 26.6782 144.342 26.8402 144.474 26.926 144.553 27.0202 144.738 27.096 144.688 27.2435 144.62 27.4982 144.525 27.7764 144.669 28.0248 144.837 28.3418 144.734 28.7029 144.779 29.0399 144.85 29.3245 145.003 29.5798 145.082 29.8611 145.141 30.0424 145.009 30.2554 144.822 30.2884 144.529 30.3666 144.224 30.3974 143.922 30.3985 143.722 30.398 143.51 30.413 143.33 30.3098 143.034 30.1322 142.675 30.2858 142.365 30.1562 141.977 29.9918 141.513 30.0047 141.151 30.2274 141.115 30.1502 141.081 30.0726 141.048 29.9957 140.75 30.0424 140.466 30.1338 140.188 30.2436 140.103 30.1129 140.018 29.9828 139.937 29.8522 139.877 29.8944 139.821 29.9403 139.76 29.9772 139.648 29.9498 139.547 29.892 139.439 29.8616 139.323 29.8983 139.219 29.9622 139.113 30.0166 139.069 29.9229 139.028 29.8292 138.986 29.736 138.895 29.7943 138.808 29.8579 138.71 29.9004 138.528 29.7378 138.4 29.5111 138.185 29.3894 137.986 29.3554 137.814 29.4802 137.646 29.5629 137.592 29.5375 137.54 29.513 137.49 29.4882 137.476 29.395 137.464 29.3026 137.454 29.2099 137.056 29.4114 136.636 29.6098 136.182 29.6103 135.935 29.6022 135.749 29.4108 135.517 29.3554 135.402 29.4242 135.32 29.5309 135.213 29.6058 134.946 29.5993 134.705 29.4642 134.442 29.4443 134.089 29.4182 133.737 29.3878 133.387 29.3385 133.305 29.4203 133.224 29.5022 133.142 29.5829 132.725 29.3446 132.542 28.8863 132.297 28.4989 132.192 28.699 132.058 28.8869 131.884 29.0339 131.838 29.0817 131.754 29.0518 131.746 28.989 131.659 28.8056 131.611 28.5867 131.434 28.464 131.074 28.3803 130.697 28.3614 130.33 28.4146 130.216 28.4382 130.125 28.3529 130.034 28.3014 129.771 28.119 129.44 28.1061 129.141 28.0187 129.169 28.2576 129.173 28.4983 129.166 28.7382 128.978 28.6889 128.798 28.6121 128.61 28.5651 128.398 28.6509 128.262 28.8784 128.034 28.9251 127.635 28.9194 127.222 28.8829 126.838 29.0154 126.659 29.0709 126.49 29.1482 126.316 29.2155 126.071 29.0125 125.83 28.805 125.586 28.6007 125.389 28.6636 125.18 28.6675 124.975 28.6694 124.925 28.8998 124.862 29.1292 124.746 29.3361 124.564 29.2907 124.382 29.2134 124.193 29.2274 123.956 29.2907 123.771 29.463 123.549 29.5538 123.35 29.5753 123.189 29.3665 122.987 29.4282 122.536 29.5515 122.097 29.7234 121.638 29.8236 121.271 29.8898 120.988 30.2301 120.596 30.1802 120.511 30.1837 120.455 30.1153 120.406 30.0586 120.19 30.045 119.974 30.0614 119.758 30.045 119.659 30.039 119.561 29.9981 119.513 29.9083 119.347 29.665 119.176 29.4219 118.954 29.2263 118.884 29.3037 118.814 29.381 118.743 29.4573 118.642 29.4092 118.543 29.3604 118.445 29.3131 118.228 29.5264 118.077 29.7927 117.93 30.0559 117.386 30.034 116.836 30.0963 116.298 29.9897 115.912 29.9493 115.554 29.7574 115.163 29.7563 114.959 29.8242 114.824 30.0082 114.63 30.0944 114.539 30.0865 114.456 30.043 114.39 29.9841 114.115 29.7405 113.841 29.4797 113.506 29.3216 113.047 29.3374 112.608 29.4966 112.163 29.5942 111.955 29.6362 111.757 29.7104 111.558 29.7782 111.508 29.6682 111.461 29.5573 111.418 29.4462 111.055 29.4227 110.692 29.4483 110.33 29.4338 110.106 29.4309 110.014 29.1914 109.92 29.027 109.763 29.0674 109.614 29.1426 109.452 29.1471 109.376 29.1028 109.31 29.045 109.242 28.993 108.538 29.3873 107.706 29.0957 106.954 29.2706 106.749 29.2952 106.653 29.505 106.514 29.6312 106.4 29.5779 106.289 29.5235 106.178 29.4691 106.038 29.6336 105.814 29.6138 105.622 29.6346 105.515 29.6407 105.41 29.6592 105.306 29.6442 105.16 29.5734 105.053 29.4467 104.922 29.3559 104.748 29.2329 104.573 29.1112 104.43 28.9521 104.17 29.0754 103.884 29.0175 103.616 28.9621 103.631 29.1197 103.588 29.2712 103.508 29.4063 103.333 29.3295 103.158 29.2453 102.968 29.2162 102.79 29.192 102.621 29.2678 102.453 29.3086 102.2 29.3699 101.942 29.4092 101.683 29.4137 101.472 29.399 101.294 29.2722 101.121 29.1669 100.936 29.3699 100.771 29.5982 100.549 29.7608 99.868 29.6133 99.1608 29.7434 98.4744 29.6328 98.1224 29.5874 97.7664 29.6143 97.4128 29.6072 97.4344 29.3614 97.488 29.1202 97.5424 28.8798 97.376 28.9194 97.212 28.9671 97.0472 29.009 97.0144 28.8938 96.9848 28.7781 96.9576 28.662 96.8248 28.7597 96.6928 28.8578 96.564 28.9586 96.412 28.8639 96.32 28.7092 96.2544 28.5482 96.0584 28.6356 95.8472 28.643 95.6408 28.5931 95.4976 28.5517 95.3768 28.6586 95.2416 28.676 95.0576 28.681 94.8624 28.633 94.6944 28.7303 94.2008 28.971 93.648 29.049 93.104 29.0405 92.8464 29.0234 92.6112 29.1392 92.376 29.2213 92.2224 29.2733 92.0712 29.3586 91.992 29.5061 91.88 29.665 91.8104 29.9308 91.5688 29.9105 91.1824 29.8561 90.804 29.7125 90.4824 29.4892 90.3568 29.4227 90.2296 29.2997 90.0768 29.339 89.7624 29.3894 89.4448 29.4412 89.1256 29.4362 88.8296 29.4382 88.5216 29.3994 88.2392 29.5101 87.9288 29.6194 87.596 29.6302 87.2712 29.6117 87.196 29.6038 87.1144 29.6038 87.056 29.5515 86.8096 29.3171 86.6672 28.9322 86.3168 28.8354 86.1032 28.8853 85.9096 28.9935 85.7056 29.0693 85.5248 28.9054 85.3608 28.7248 85.192 28.5498 85.1304 28.464 85.0264 28.5253 84.9448 28.5337 84.7272 28.5926 84.5 28.5783 84.2776 28.5942 84.2672 28.7008 84.2736 28.8079 84.2744 28.9156 84.0376 28.7169 83.8192 28.4888 83.532 28.3603 82.9952 28.0932 82.4416 27.764 81.82 27.7954 81.6624 27.5352 81.4264 27.3382 81.1744 27.1746 81.1016 27.253 81.0352 27.3372 80.9536 27.4056 80.724 27.4539 80.4952 27.3573 80.2656 27.3691 80.1288 27.3636 80.0264 27.4658 79.9172 27.5318 79.8922 27.4426 79.8686 27.3541 79.8462 27.2654 79.7116 27.2565 79.5781 27.249 79.4445 27.2414 79.3302 27.0674 79.1702 26.9323 78.9789 26.8505 78.8842 26.939 78.7889 27.0266 78.6925 27.1118 78.4731 27.0382 78.243 26.9951 78.0131 26.9817 77.6721 26.9732 77.344 27.0775 77.017 27.1582 76.8269 27.2026 76.6944 27.3613 76.5173 27.4336 76.2071 27.5442 75.8786 27.603 75.5486 27.5959 75.1548 27.5869 74.8806 27.9226 74.5234 28.0311 74.336 28.0473 74.1655 27.9406 73.9805 27.935 73.2754 27.9356 72.6792 28.3894 71.9898 28.464 71.8665 28.5503 71.7913 28.6854 71.6954 28.7982 71.5514 28.6958 71.4078 28.5936 71.2613 28.4954 71.1855 28.6385 71.1093 28.781 71.0264 28.9194 71.0079 28.7114 71.0224 28.5005 70.987 28.294 70.8199 28.0118 70.4465 27.9519 70.149 28.0187 69.918 28.0536 69.7402 28.2133 69.5417 28.3204 69.2983 28.256 69.1182 28.0618 68.885 27.976 68.7221 27.8913 68.5764 28.0451 68.4367 28.1085 68.2179 28.2592 67.9426 28.1926 67.6958 28.2027 67.3519 28.1798 67.0389 28.3458 66.7053 28.3946 66.422 28.4545 66.1327 28.4126 65.8471 28.431 65.7086 28.4326 65.6109 28.5438 65.4922 28.5976 65.3021 28.5802 65.1406 28.453 64.9498 28.4376 64.547 28.4052 64.1415 28.465 63.7406 28.4091 63.4291 28.3608 63.1045 28.3754 62.8059 28.4804 62.4293 28.643 62.0933 28.9103 61.6881 29.0009 61.469 28.9661 61.2491 28.8723 61.0258 28.9418 60.6275 29.0529 60.2198 28.9436 59.8194 28.9111 59.4923 28.8847 59.1621 28.7971 58.8362 28.8798 58.8153 29.0682 58.8037 29.2572 58.8132 29.4467 58.7358 29.4443 58.659 29.4422 58.5827 29.4412 58.5374 29.3086 58.4911 29.177 58.4431 29.0463 58.3903 29.0732 58.3381 29.1006 58.2866 29.1286 58.2758 29.2302 58.2662 29.3322 58.2573 29.4343 57.7019 29.4586 57.1495 29.4114 56.5966 29.3789 56.4379 29.3681 56.3222 29.2448 56.1832 29.1835 56.0834 29.1759 55.9892 29.2213 55.8966 29.2509 55.4182 29.4422 54.86 29.5235 54.3754 29.307 54.0204 29.188 53.7002 28.8982 53.3038 28.9592 53.0108 29.0249 52.9722 29.3699 52.7954 29.5662 52.6283 29.4646 52.4628 29.3182 52.2554 29.3285 52.1308 29.3176 51.9946 29.344 51.8824 29.2778 51.6171 29.131 51.3822 28.9182 51.0842 28.8386 50.7353 28.7971 50.3786 28.8438 50.0326 28.7691 49.7938 28.7203 49.5665 28.5981 49.3186 28.6082 49.1502 28.7008 49.0515 28.9318 48.8346 28.9143 48.4094 28.9246 47.987 29.0283 47.5613 28.9745 47.5486 29.0687 47.5357 29.1624 47.5227 29.2572 47.3818 29.177 47.2596 29.0698 47.1469 28.956 46.7684 29.0384 46.3811 29.0508 45.9987 28.993 46.029 28.9621 46.0599 28.9312 46.0918 28.9009 45.6851 28.8235 45.3739 28.5369 45.0279 28.3339 44.8524 28.2246 44.6694 28.1275 44.4899 28.0258 44.4182 28.0752 44.3503 28.1304 44.2741 28.1723 44.1624 28.1964 44.0476 28.1702 43.9354 28.1674 43.913 28.2502 43.891 28.3334 43.8697 28.417 43.6039 28.5274 43.3233 28.6002 43.0356 28.6155 43.053 28.7522 43.0654 28.8893 43.0726 29.027 42.7384 28.9167 42.5291 28.5068 42.1416 28.5696 41.7792 28.5997 41.4202 28.6665 41.0557 28.6535 40.8667 28.6435 40.7137 28.7726 40.5376 28.815 40.3282 28.8354 40.1184 28.7467 39.911 28.8022 39.746 28.832 39.594 28.9127 39.4282 28.9336 38.841 28.8798 38.313 28.4764 37.7078 28.5638 37.1603 28.638 36.5958 28.6277 36.0674 28.4545 36.0618 28.5678 36.056 28.6805 36.0499 28.7945 35.9193 28.7562 35.7918 28.7114 35.6651 28.6643 35.5445 28.7288 35.4273 28.8309 35.2826 28.8206 35.005 28.8066 34.7251 28.7002 34.448 28.7766 34.2062 28.8275 34.0078 28.9885 33.7715 29.0513 33.6622 28.998 33.5759 28.9103 33.4857 28.832 33.4094 28.9755 33.3346 29.1202 33.2584 29.2638 32.8741 29.1835 32.475 29.1894 32.0918 29.2738 32.0368 29.1875 31.9835 29.1006 31.9326 29.0136 31.6998 29.0389 31.444 29.0838 31.2342 28.9497 30.8169 28.7203 30.3716 28.5538 29.9229 28.3996 29.8656 28.4606 29.8122 28.5258 29.7478 28.5791 29.5903 28.6232 29.4254 28.5667 29.2656 28.5633 29.0703 28.5458 28.8898 28.6681 28.6939 28.6316 28.2824 28.6015 27.8958 28.4455 27.5212 28.283 27.3922 28.2391 27.2454 28.1489 27.1134 28.2346 26.8133 28.4152 26.4422 28.4342 26.1078 28.3542 25.8246 28.2531 25.58 28.0502 25.2749 28.0103 24.7045 27.9441 24.1301 27.9166 23.5558 27.9279 23.0263 27.8886 22.563 28.1914 22.0526 28.2722 22.0577 28.4002 22.0616 28.5279 22.0605 28.6564 21.9191 28.5946 21.7789 28.5324 21.6376 28.4725 21.6062 28.6496 21.5871 28.829 21.568 29.0086 21.3683 28.9407 21.1794 28.842 20.9741 28.7921 20.5904 28.8515 20.3369 29.3092 19.9235 29.2298 19.919 29.1181 19.9146 29.0064 19.9106 28.8948 19.6566 28.9642 19.4086 29.0653 19.1467 29.0996 18.8982 29.0727 18.6678 28.9586 18.421 28.9178 18.0339 28.8394 17.6306 28.8729 17.2498 28.9666 17.1433 29.0334 17.0888 29.155 17.0137 29.2514 16.8359 29.1571 16.7108 28.997 16.5566 28.8729 16.3636 28.7831 16.1376 28.8106 15.9407 28.7338 15.7119 28.5822 15.5481 28.3394 15.2884 28.2342 14.833 28.0586 14.3288 28.2502 13.8717 28.0831 13.493 27.99 13.1296 27.8432 12.7925 27.6468 12.7073 27.593 12.6203 27.5336 12.5648 27.4478 12.5525 27.3153 12.5816 27.183 12.5872 27.0511 12.4953 27.0859 12.4033 27.1213 12.3107 27.1548 12.2513 26.7174 12.6478 26.3916 12.677 25.9698 12.6764 25.6642 12.4925 25.3915 12.2608 25.207 12.0796 25.0657 11.8934 24.9322 11.7117 24.792 11.8042 24.6181 11.9181 24.4392 11.899 24.2333 11.9007 23.9394 11.7482 23.6753 11.7184 23.387 11.6915 23.1491 11.8323 22.945 11.9013 22.7279 11.9871 22.5053 12.0499 22.2641 12.2086 22.0795 12.3578 21.8928 12.5497 21.7357 12.6506 21.5136 12.7746 21.2466 12.9182 20.9898 13.0802 20.7441 12.8565 20.3521 12.6293 19.8961 12.7656 19.435 12.8895 19.1024 12.8554 18.7418 12.8469 18.3946 12.8273 18.09 12.654 17.8135 12.6781 17.5028 12.6994 17.1326 12.6254 16.7691 12.5087 16.4203 12.3264 16.3816 12.1408 16.3339 11.9866 16.2257 11.8452 16.0866 11.7532 15.8964 11.5816 15.791 11.4217 15.713 11.2518 15.6569 11.0813 15.6065 10.8984 15.5531 10.7374 15.69 10.5765 15.7528 10.6354 15.497 10.7386 15.2442 10.7162 14.976 10.6948 14.6978 10.6348 14.4202 10.6685 14.1403 10.724 13.6664 10.7454 13.1846 10.6713 12.7112 10.6225 12.3977 10.6079 12.0746 10.4923 11.7757 10.4374 11.627 10.3196 11.5148 10.2248 11.3909 10.079 11.4442 9.93032 11.4879 9.78 11.5261 9.89728 11.254 10.1166 10.959 9.97352 10.655 9.77104 10.705 9.56016 10.7134 9.356 10.6651 9.434 10.5703 9.51416 10.4778 9.59384 10.3846 9.52656 10.3185 9.4592 10.2518 9.3936 10.1838 9.70824 9.89224 10.0925 9.6892 10.4761 9.50296 10.3746 9.41152 10.2781 9.31448 10.1872 9.21296 10.4963 8.98136 10.9629 8.93648 11.1508 8.56688 11.3106 8.31168 11.0986 8.0368 11.0779 7.77265 11.0027 7.18262 10.7274 6.63911 10.6646 6.04684 10.637 5.82528 10.7173 5.61158 10.7268 5.3923 10.7021 5.22962 10.5916 5.09894 10.531 4.94976 10.4099 4.70128 10.4822 4.40906 10.374 4.15667 10.3218 4.0271 10.2652 3.89698 10.1805 3.78482 10.0498 3.61262 9.81312 3.61206 9.62464 3.54866 9.85744 3.26151 10.1283 2.96874 10.4996 2.87282 10.8272 2.78253 11.12 2.58902 11.4582 2.53742 11.687 2.50096 11.9158 2.60416 12.1425 2.56097 12.3943 2.40336 12.5547 2.13975 12.6529 1.86548M104.131 3.46568C104.134 3.52402 104.141 3.6401 104.145 3.69843 104.266 3.66478 104.368 3.5913 104.438 3.48529 104.334 3.47801 104.232 3.47183 104.131 3.46568Z" fill="#FFFFFF" transform="matrix(1 0 0 2.55185 299.148 105.436)"/></g></g></g><path d="M84.2288 8.52248C84.5832 8.30632 84.9488 8.09584 85.3432 7.95971 85.8304 7.90448 86.3272 7.92162 86.8168 7.95399 87.3048 8.10632 87.5784 8.6196 88.0632 8.78624 88.3936 8.91288 88.7168 9.06528 89.0176 9.25376 89.4328 9.52136 89.7296 9.92224 90.0656 10.2755 90.5176 10.2279 90.856 9.83944 91.3184 9.83656 91.4096 10.0079 91.5016 10.1794 91.5896 10.3546 92.0344 10.1527 92.5168 10.0489 92.956 9.82896 92.996 10.0994 93.0352 10.3689 93.0808 10.6383 93.372 10.5298 93.6608 10.4107 93.944 10.2813 93.9768 10.5231 93.9984 10.7659 94.0288 11.0087 94.968 10.5488 95.9824 10.2413 96.8584 9.66328 96.9008 9.65752 96.9864 9.64608 97.0296 9.6404 97.264 9.81272 97.46 10.0308 97.6536 10.2479 97.7056 9.92128 97.7696 9.59376 97.9048 9.29 98.344 9.16904 98.8 9.21376 99.248 9.20616 99.5936 10.0584 99.9528 10.984 100.721 11.5477 101.378 12.0058 102.159 12.261 102.941 12.3857 103.331 12.4914 103.281 12.9246 103.302 13.2427 103.802 13.397 104.324 13.457 104.83 13.5855 105.046 13.2855 105.207 12.9522 105.39 12.6314 105.713 12.8818 105.916 13.2541 106.251 13.4912 106.742 13.2065 107.122 12.7751 107.593 12.4638 107.999 12.1657 108.515 12.4238 108.97 12.3295 109.198 12.1762 109.403 11.9914 109.598 11.7972 109.698 11.921 109.8 12.0458 109.902 12.1695 110.35 11.762 110.802 11.3592 111.208 10.9078 111.39 11.0145 111.567 11.1658 111.787 11.1726 112.135 11.0297 112.413 10.6793 112.819 10.7078 113.239 10.7669 113.628 11.0574 113.757 11.4706 113.91 11.9277 114.174 12.3714 114.594 12.6294 114.827 12.697 114.969 12.4152 115.156 12.3181 115.511 11.9838 116.027 12.0258 116.459 11.8629 116.831 11.763 117.246 11.5934 117.618 11.782 118.002 11.9819 118.257 12.38 118.681 12.5133 118.764 12.3286 118.836 12.1371 118.902 11.9448 119.644 11.9334 120.387 11.9619 121.13 11.9182 121.246 11.7734 121.366 11.6306 121.486 11.4868 121.686 11.7077 121.89 11.9258 122.082 12.1543 122.329 11.9648 122.575 11.7743 122.814 11.5744 122.926 11.8829 123.039 12.1914 123.151 12.4999 123.752 12.4209 124.361 12.2724 124.871 11.9324 125.183 11.7115 125.305 11.3325 125.476 11.0078 125.855 11.3944 126.253 11.7677 126.694 12.0848 126.938 11.8143 127.161 11.5258 127.391 11.243 127.818 11.4706 128.281 11.6115 128.726 11.801 128.896 11.8877 129.092 11.8762 129.28 11.8877 129.597 11.5515 129.767 11.1116 130.07 10.764 130.706 10.744 130.981 11.4039 131.427 11.7334 131.814 11.7343 132.158 11.5296 132.526 11.4354 132.517 11.6839 132.493 11.9324 132.462 12.18 132.652 12.0534 132.852 11.8801 133.099 11.9582 133.903 12.2334 134.761 12.2419 135.583 12.4323 136.158 12.3447 136.488 11.7277 137.064 11.6286 137.502 11.5477 137.972 11.5954 138.375 11.7896 138.819 12.1058 139.109 12.5847 139.441 13.0085 139.824 12.379 140.156 11.6944 140.711 11.1935 141.01 11.0259 141.37 11.0345 141.705 11.0164 142.128 11.0516 142.398 10.6641 142.707 10.4374 143.099 10.0679 143.685 10.1384 144.134 9.87752 144.734 9.66512 145.184 9.20336 145.688 8.83768 145.919 8.68344 146.182 8.89 146.335 9.06528 146.872 9.70896 147.094 10.5546 147.628 11.2011 148.091 11.7506 148.502 12.3818 149.161 12.7209 149.642 12.9446 149.827 13.4779 150.07 13.9112 150.086 13.7731 150.104 13.636 150.126 13.4989 150.83 13.2579 151.441 12.7961 151.916 12.2266 152.326 11.7448 152.735 11.2487 153.249 10.8716 153.214 11.1602 153.167 11.4478 153.15 11.7391 153.472 12.0971 153.83 12.4209 154.207 12.718 154.28 12.8037 154.414 12.859 154.428 12.9837 154.5 13.6807 154.33 14.3692 154.265 15.0595 154.365 15.8337 154.829 16.5231 154.856 17.3126 154.812 18.0191 154.321 18.6123 154.311 19.3237 154.288 20.1911 153.981 21.0224 153.61 21.7975 153.982 21.7957 154.316 21.6194 154.678 21.5576 155.044 21.4823 155.419 21.4871 155.794 21.4757 155.138 22.0299 154.248 22.0109 153.441 22.0337 153.53 22.3318 153.644 22.6298 153.66 22.944 153.646 23.4582 153.501 23.9572 153.371 24.4514 153.231 24.9238 153.144 25.4113 152.965 25.8712 152.627 25.8978 152.309 25.7931 151.986 25.7198 151.981 26.033 151.99 26.3454 152.006 26.6587 152.214 26.7844 152.386 26.9567 152.545 27.1414 152.532 27.1919 152.506 27.2929 152.492 27.3434 152.283 27.3871 152.063 27.4071 151.876 27.5138 151.705 27.7118 151.621 27.967 151.51 28.2003 151.25 28.8336 150.941 29.4478 150.588 30.0343 150.398 30.3429 150.298 30.6933 150.239 31.0485 150.142 31.6703 149.958 32.2864 149.997 32.9225 150.198 32.8701 150.4 32.8139 150.61 32.7815 150.468 33.3348 150.228 33.8776 150.244 34.4594 150.339 35.2507 150.475 36.0506 150.808 36.7818 151.126 37.5037 151.578 38.1559 152.034 38.7968 152.234 39.1158 152.63 39.2025 152.897 39.45 153.237 39.691 153.482 40.0585 153.866 40.2385 154.082 40.1642 154.285 40.0575 154.496 39.969 154.526 40.4975 154.412 41.0783 154.695 41.5582 155.004 41.9915 155.402 42.3524 155.747 42.7571 155.661 42.8781 155.576 42.999 155.494 43.1209 155.724 43.2085 155.95 43.3094 156.174 43.4142 156.157 44.0646 156.118 44.7245 156.249 45.3662 156.457 46.0585 157.224 46.3194 157.756 46.7174 157.794 46.9565 157.722 47.1974 157.698 47.4354 157.95 47.5564 158.206 47.6745 158.469 47.7802 157.938 48.4306 157.154 48.7705 156.403 49.0923 156.083 49.2066 155.756 49.3038 155.414 49.3104 155.504 49.497 155.662 49.6627 155.685 49.876 155.097 50.4398 154.338 50.7616 153.64 51.1606 153.562 51.8938 153.493 52.6566 153.101 53.3012 152.797 53.8811 152.23 54.2506 151.66 54.5334 151.673 55.1818 151.718 55.837 151.598 56.4788 151.394 56.575 151.189 56.6674 150.983 56.755 151.046 57.6519 151.021 58.569 150.738 59.4307 150.529 60.0526 150.413 60.6972 150.302 61.3418 150.146 61.0571 150.019 60.7572 149.917 60.4506 149.758 60.5115 149.606 60.581 149.453 60.6496 149.509 60.9343 149.528 61.2476 149.717 61.4856 149.854 61.7027 150.095 61.9037 150.058 62.1884 150.022 62.7598 149.851 63.3463 150.046 63.909 150.409 64.8613 150.097 65.9116 150.417 66.8743 150.548 67.459 150.857 68.0351 150.77 68.6464 150.692 69.1406 150.158 69.2587 149.75 69.3558 149.387 69.411 149.021 69.4549 148.656 69.4339 148.375 69.4073 148.15 69.233 147.916 69.0987 147.626 69.0197 147.313 69.1121 147.025 69.0206 146.762 68.9674 146.534 68.8283 146.286 68.7398 145.79 68.6102 145.246 68.7407 144.883 69.1073 144.824 68.9302 144.763 68.754 144.703 68.5798 144.25 68.7159 143.838 68.9406 143.431 69.1749 143.298 68.8778 143.166 68.5817 143.027 68.2874 142.938 68.3807 142.851 68.4731 142.763 68.5646 142.622 68.5036 142.494 68.4112 142.345 68.3855 142.113 68.3512 141.975 68.5741 141.81 68.6893 141.738 68.4741 141.667 68.2589 141.596 68.0456 141.466 68.1789 141.336 68.3102 141.21 68.4465 140.946 68.037 140.696 67.6133 140.366 67.2505 140.054 67.3076 139.794 67.4904 139.575 67.7094 139.271 67.538 139.309 67.1971 139.282 66.8953 138.707 67.3352 138.074 67.8332 137.318 67.8437 136.972 67.7104 136.697 67.4523 136.385 67.2618 136.221 67.4638 136.066 67.6742 135.908 67.8798 135.482 67.7675 135.09 67.5342 134.646 67.4952 134.146 67.4571 133.654 67.3599 133.155 67.3294 133.041 67.5075 132.93 67.6875 132.818 67.8666 132.122 67.2123 131.895 66.2468 131.494 65.4126 131.342 65.8926 131.141 66.361 130.818 66.7524 130.562 66.3163 130.566 65.7564 130.212 65.3736 129.706 65.1908 129.151 65.1222 128.627 65.2689 128.376 65.3517 128.216 65.1041 128.036 64.9803 127.678 64.6651 127.206 64.5509 126.764 64.4138 126.785 64.9556 126.825 65.4974 126.815 66.0402 126.524 65.9202 126.238 65.7926 125.962 65.6422 125.673 65.9192 125.479 66.2963 125.128 66.5058 124.733 66.5267 124.336 66.4839 123.943 66.5353 123.417 66.5934 122.992 66.9438 122.554 67.2086 122.174 66.7477 121.799 66.2839 121.43 65.8145 121.15 65.9706 120.829 65.9745 120.518 65.9782 120.443 66.4982 120.375 67.0238 120.192 67.5199 119.932 67.4294 119.686 67.2714 119.406 67.2686 119.006 67.4628 118.702 67.8046 118.358 68.0789 118.077 67.977 117.807 67.6361 117.492 67.7999 116.846 68.116 116.207 68.4465 115.539 68.7112 114.954 68.913 114.599 69.6301 113.914 69.5491 113.834 69.4578 113.758 69.3663 113.682 69.2749 113.328 69.2692 112.972 69.2978 112.621 69.253 112.369 69.1063 112.289 68.8064 112.158 68.5664 111.975 68.1589 111.748 67.7732 111.492 67.4086 111.388 67.5866 111.287 67.7656 111.19 67.9466 111.032 67.8398 110.875 67.7351 110.722 67.6266 110.404 68.1655 110.191 68.7578 109.978 69.3444 109.406 69.3492 108.834 69.3701 108.263 69.3539 107.703 69.2711 107.142 69.1502 106.622 68.9226 106.37 68.8102 106.102 68.7454 105.835 68.6969 105.566 68.9054 105.37 69.1863 105.125 69.4178 105.011 69.5462 104.833 69.4386 104.745 69.3387 104.282 68.8416 103.94 68.2255 103.374 67.8322 103.199 67.7761 103.008 67.8266 102.833 67.8542 102 68.1322 101.186 68.4636 100.398 68.8483 100.314 68.6093 100.247 68.3655 100.187 68.1208 99.6112 68.1074 99.0344 68.1389 98.4592 68.1208 98.1368 67.9266 98.0536 67.5333 97.9056 67.2162 97.6832 67.3228 97.4584 67.4275 97.2216 67.5009 97.1088 67.3828 96.9984 67.2628 96.8912 67.1429 96.4344 67.5294 95.8176 67.6904 95.2272 67.6742 94.6088 67.6866 93.9616 67.617 93.3776 67.8685 93.1016 68.0551 92.9872 68.3884 92.8232 68.6636 92.6592 68.5522 92.4992 68.4341 92.34 68.317 92.012 68.7312 91.4512 68.7017 90.9752 68.7169 90.5472 68.2255 90.0808 67.7627 89.704 67.2295 89.2872 67.3781 88.8576 67.3666 88.436 67.2495 88.4376 67.5818 88.4128 67.918 88.3056 68.236 87.9488 68.0342 87.5824 67.7114 87.1424 67.8485 86.6544 68.0665 86.1416 68.2446 85.6088 68.3055 85.2344 68.2826 84.968 67.9732 84.6944 67.7522 84.4456 68.215 84.192 68.6778 83.8808 69.1045 83.2928 68.9597 82.6848 68.9664 82.0832 68.9674 81.1016 69.0178 80.1328 68.7026 79.1514 68.8702 79.1534 68.3065 79.2381 67.7485 79.3181 67.1923 79.0695 67.2886 78.823 67.3894 78.581 67.4999 78.523 67.2305 78.4715 66.9619 78.4211 66.6924 78.2382 66.9419 78.0402 67.18 77.824 67.4009 77.607 67.1257 77.4546 66.8095 77.3489 66.4772 77.0298 66.701 76.6338 66.602 76.2729 66.6039 76.0776 66.6525 75.9053 66.7905 75.6977 66.7801 75.4882 66.7896 75.253 66.7448 75.0826 66.8962 74.6169 67.2295 74.0979 67.497 73.5257 67.579 73.1638 67.5904 73.0172 68.0322 72.6582 68.0313 72.0706 68.0589 71.4983 68.2418 70.908 68.2046 70.8832 68.396 70.8775 68.5893 70.8651 68.7835 70.6538 68.6046 70.4823 68.3902 70.3023 68.1836 69.7672 68.2722 69.2282 68.3779 68.6845 68.2808 68.6864 68.195 68.6893 68.1103 68.694 68.0265 68.197 67.8446 67.8332 67.4466 67.4618 67.0905 67.1171 66.7534 66.7314 66.4639 66.3754 66.1421 66.2544 66.2658 66.1326 66.3896 66.0087 66.5106 65.8554 66.502 65.703 66.4934 65.5517 66.4849 65.4888 66.7029 65.5507 67.0076 65.3117 67.1295 64.9994 67.3218 64.6366 67.418 64.2804 67.4894 64.2938 67.798 64.3157 68.1055 64.3186 68.416 63.8729 68.1179 63.6386 67.538 63.1026 67.379 62.5178 67.4962 61.9284 67.6038 61.3314 67.6409 61.039 67.6409 60.8448 67.9189 60.5677 67.9713 60.3154 67.9798 60.0658 67.9198 59.8154 67.9418 59.4402 68.056 59.0755 68.3722 58.6642 68.2084 57.8929 67.9694 57.1758 67.2828 56.3188 67.537 55.559 67.7009 54.76 67.6246 54.042 67.3304 54.0382 67.5723 54.0382 67.8132 54.0334 68.0551 53.8411 67.9646 53.6488 67.877 53.4535 67.7951 53.3146 67.9132 53.1765 68.0322 53.0403 68.1541 52.5975 68.1113 52.1557 67.9522 51.709 68.0542 51.333 68.2065 51.0473 68.5093 50.6911 68.7007 50.5464 68.5426 50.4045 68.3826 50.2759 68.2131 50.157 68.5369 50.057 68.8674 49.9417 69.1939 49.398 68.9987 48.7962 69.0673 48.2525 69.2226 48.1744 69.0416 48.0973 68.8616 48.022 68.6807 47.6716 68.7074 47.2583 68.8074 46.9755 68.5331 46.3842 68.0532 45.711 67.6951 45.0368 67.3476 44.9549 67.4818 44.8739 67.618 44.7797 67.7446 44.5882 67.8151 44.3816 67.7513 44.1854 67.7446 43.855 67.6799 43.5579 67.918 43.2285 67.8656 42.4619 67.8303 41.8658 67.299 41.1983 66.9943 40.8279 66.9638 40.5965 67.4018 40.2146 67.4114 39.5386 67.5933 39.0396 67.0276 38.5168 66.7115 37.9902 66.4839 37.3942 66.5372 36.8342 66.4639 36.2905 66.4391 35.7402 66.4268 35.2012 66.5067 34.607 66.7048 34.088 67.0743 33.4966 67.28 33.5034 67.5514 33.511 67.8218 33.5024 68.0942 33.3014 67.9742 33.1043 67.8513 32.913 67.719 32.873 68.116 32.8501 68.515 32.8158 68.914 32.4882 68.7569 32.1654 68.4255 31.7798 68.5169 31.3066 68.8083 31.0504 69.471 30.4229 69.4758 30.3953 69.2149 30.3876 68.9521 30.3753 68.6912 30.0182 68.893 29.6411 69.075 29.245 69.1826 28.6812 68.994 28.1327 68.673 27.5195 68.713 27.1605 68.7083 26.8158 68.8188 26.4749 68.9187 26.353 69.1311 26.2454 69.351 26.1283 69.5672 25.8817 69.3025 25.6865 68.995 25.4408 68.7321 25.1342 68.5312 24.6847 68.6245 24.4457 68.3112 24.1372 67.9827 23.942 67.5247 23.5144 67.3266 22.9669 67.0457 22.3365 67.299 21.7614 67.1571 21.0243 66.8858 20.3006 66.5201 19.7493 65.9497 19.4274 65.6535 19.6036 65.1803 19.5694 64.7994 19.4398 64.8794 19.3122 64.9622 19.1827 65.0432 19.057 63.9119 19.9569 62.8797 19.5779 61.7532 19.3836 60.9505 18.7257 60.4058 18.2114 59.805 18.3314 59.3993 18.5095 58.9946 18.4666 58.5614 18.4676 57.8176 18.1314 57.113 18.18 56.3674 18.259 55.6942 18.46 55.0447 18.6152 54.3877 18.7247 53.8706 19.059 53.4488 19.2751 52.9765 19.557 52.4194 19.6398 51.7881 19.9054 51.2244 19.9569 51.0482 20.0988 50.8673 20.0198 50.6797 19.7664 49.9694 19.4884 49.239 19.5112 48.4724 19.5122 47.9925 19.6493 47.525 19.6493 47.045 19.6579 46.5975 19.636 46.1499 19.6236 45.7024 19.6017 44.9663 19.3055 44.2635 19.336 43.5227 19.3532 42.7447 19.2342 41.9706 19.0466 41.2183 18.8028 41.1354 18.5418 41.0622 18.3571 40.8717 18.0705 40.5718 17.9877 40.1204 17.6591 39.8547 17.4258 39.7005 17.1811 39.5548 16.9193 39.4558 16.6326 39.3767 16.4346 39.6576 16.2137 39.7871 16.2479 39.252 16.4022 38.7273 16.3794 38.1883 16.3584 37.5827 16.2565 36.9809 16.2698 36.3734 16.3527 35.164 16.3184 33.947 16.1842 32.7425 16.0937 31.8474 16.0261 30.9075 15.5233 30.1306 15.3147 30.2419 15.1014 30.3458 14.8843 30.4419 15.0234 29.8058 15.3195 29.1669 15.1367 28.507 14.8615 28.6289 14.5615 28.6346 14.2673 28.5974 14.2978 28.3489 14.433 28.1375 14.553 27.9252 14.452 27.7794 14.3521 27.6328 14.253 27.4862 14.6654 26.8739 15.2319 26.4016 15.7966 25.9378 15.6633 25.7217 15.5186 25.5131 15.3786 25.3027 15.7366 24.917 16.2479 24.7028 16.5612 24.2714 16.7793 23.9182 16.903 23.4858 16.8098 23.0726 16.7174 22.6422 16.6288 22.2118 16.5812 21.7747 16.3784 20.2311 15.7633 18.7142 15.9946 17.1374 16.0775 16.6983 15.8623 16.2946 15.727 15.8909 15.529 15.3319 15.6062 14.7253 15.4595 14.1559 15.3719 13.8245 15.289 13.4789 15.0995 13.1894 14.9282 12.9351 14.612 12.8714 14.3434 12.7751 14.6444 12.1581 15.0138 11.4878 15.6718 11.1982 16.1461 10.9535 16.5536 10.5707 17.085 10.4489 17.3763 10.466 17.661 10.5565 17.9562 10.5383 18.2105 10.2594 18.4124 9.93272 18.5218 9.56992 18.6218 9.3252 18.6294 9.0224 18.8618 8.85576 18.8856 9.01288 18.9066 9.17192 18.9266 9.33 19.4131 9.25192 19.8854 9.08336 20.3806 9.06144 20.6825 9.06432 20.952 9.22144 21.211 9.35952 21.5423 9.55088 21.9194 9.72232 22.1203 10.0679 22.3194 10.4526 22.3689 10.8906 22.5241 11.2916 22.6574 11.601 22.983 11.7534 23.2535 11.9238 23.6925 12.0886 24.14 11.8629 24.5628 11.7467 24.7999 12.0734 24.9123 12.4638 25.0361 12.8418 25.5113 12.6504 25.9854 12.4323 26.3702 12.0867 26.6692 11.8125 26.9872 11.5601 27.3434 11.363 27.5519 11.581 27.6995 11.8448 27.8147 12.1219 27.9185 11.7906 28.0128 11.4573 28.1014 11.1221 28.5974 11.1468 29.1269 11.0069 29.5916 11.2382 30.1791 11.5354 30.7266 11.9029 31.2837 12.2524 31.5608 12.4457 31.9169 12.3371 32.1912 12.1971 32.6244 11.9419 33.1425 12.0514 33.6205 12.0229 33.9842 11.9838 34.2794 12.2171 34.606 12.3266 34.8898 12.379 35.1793 12.3942 35.4668 12.4171 35.6773 12.8037 35.7278 13.2446 35.821 13.6683 36.2106 13.6464 36.601 13.6255 36.9904 13.6702 37.0485 13.3484 37.1094 13.0256 37.1675 12.7038 37.2199 12.7018 37.3256 12.698 37.379 12.6961 37.4266 12.8999 37.4694 13.1046 37.5037 13.3113 37.835 13.3122 38.1712 13.3198 38.495 13.2418 38.9263 13.1332 39.3738 13.1694 39.8128 13.197 39.9823 13.197 40.1823 13.2313 40.3175 13.1008 40.805 12.699 41.2602 12.2534 41.8002 11.9191 42.0344 12.0772 42.2686 12.2352 42.5086 12.3857 42.7105 12.0095 42.8552 11.5754 43.2038 11.303 43.4703 11.2078 43.7608 11.2344 44.036 11.1773 44.5359 10.8107 44.853 10.265 45.1739 9.74896 45.3358 9.51088 45.6434 9.59752 45.8871 9.5652 46.0804 9.28808 46.2499 8.99384 46.4042 8.69296 46.8774 8.90912 47.3802 9.07 47.8058 9.3776 48.042 9.27664 48.2667 9.12336 48.5267 9.09384 49.0847 9.5252 49.439 10.1555 49.9274 10.6574 50.1978 10.645 50.4283 10.5022 50.6578 10.3726 50.7559 10.5393 50.8549 10.7059 50.9521 10.8745 51.1844 10.765 51.4158 10.6546 51.6548 10.5574 51.7129 10.7222 51.7681 10.8898 51.8252 11.0554 52.1833 10.6393 52.5109 10.1918 52.9384 9.84224 53.4012 9.78512 53.6935 10.3165 54.1563 10.2718 54.2925 10.2831 54.3467 10.1184 54.4125 10.027 54.5934 9.63376 54.6105 9.19192 54.7029 8.77384 55.1838 8.80432 55.6408 8.97672 56.0836 9.15568 56.4636 9.30144 56.6293 9.70328 56.8406 10.0184 56.9816 9.8956 57.1168 9.76136 57.2815 9.66896 57.6301 9.608 58.0176 9.79944 58.3338 9.58424 58.5899 9.42136 58.8689 9.29856 59.167 9.23664 59.5554 9.16048 59.8526 8.87768 60.2068 8.7196 60.5125 8.63672 60.7514 8.88816 61.0057 9.01192 61.1886 8.85576 61.3657 8.69296 61.5485 8.53584 61.597 8.74528 61.6466 8.9548 61.6875 9.16616 62.2912 9.20424 62.8969 9.11856 63.4777 8.9548 64.1757 8.74432 64.8956 8.62816 65.6069 8.47584 65.8792 8.41104 66.1534 8.4968 66.422 8.54248 66.9943 8.67392 67.5847 8.51864 68.1618 8.6196 68.4807 8.68152 68.8054 8.70152 69.1311 8.71296 69.273 8.98528 69.3606 9.27952 69.4168 9.5804 70.1729 9.3176 70.9766 9.41088 71.7612 9.34904 71.9782 9.3852 72.1611 9.25192 72.3315 9.1376 72.3287 9.30048 72.3297 9.46328 72.3363 9.62608 72.6848 9.77848 73.0476 9.8956 73.4057 10.0251 73.8218 9.63472 74.1722 9.17664 74.6246 8.82432 74.6569 9.09576 74.6617 9.36904 74.6769 9.64232 75.1616 9.56424 75.7044 9.34232 76.1671 9.60992 76.3871 9.71752 76.5594 9.89464 76.7414 10.0546 76.989 9.90992 77.3022 9.88512 77.5517 10.0432 78.0154 10.2955 78.5258 10.4517 79.0467 10.5307 79.7104 10.6278 80.3608 10.4184 81.0112 10.3165 81.428 10.2631 81.7872 10.0232 82.1944 9.93368 82.6048 9.80608 83.0864 9.74232 83.3736 9.38712 83.6624 9.10336 83.8656 8.72624 84.2288 8.52248Z" fill="#FFFFFF" transform="matrix(1 0 0 1.13744 293.4 100.976)"/></g></svg>