<svg width="484" height="204" xmlns="http://www.w3.org/2000/svg" xmlns:xlink="http://www.w3.org/1999/xlink" xml:space="preserve" overflow="hidden"><defs><clipPath id="clip0"><rect x="0" y="0" width="484" height="204"/></clipPath></defs><g clip-path="url(#clip0)"><path d="M180.034 10.0777C184.608 9.17643 189.231 8.34932 193.91 8.34587 196.875 8.40585 199.294 10.4135 202.093 11.1239 207.482 12.3574 213.005 12.9017 218.525 13.0927 219.756 13.1351 221.001 13.2128 222.196 13.5521 226.808 14.8174 231.396 16.2171 236.107 17.0584 239.975 17.5567 243.811 16.4574 247.675 16.4646 250.962 16.5564 254.225 17.0972 257.519 17.0653 262.8 17.023 267.898 15.4855 273.08 14.6513 276.086 14.2307 279.127 14.0929 282.165 14.1282 284.11 14.1177 285.79 15.4855 287.752 15.3724 293.134 14.9023 298.655 13.7571 303.998 15.1356 305.619 15.4644 307.194 16.0511 308.847 16.2066 310.447 15.9979 311.354 14.0574 313.048 14.1601 316.335 14.3227 319.549 15.1568 322.678 16.1535 324.738 16.8109 326.735 17.7192 328.89 18.0303 331.685 18.5145 334.53 18.3873 337.353 18.4297 339.135 18.3768 340.668 19.4087 342.272 20.0379 346.261 21.8653 350.72 22.4837 354.542 24.714 356.482 25.6648 358.469 27.2801 360.768 26.7145 365.202 25.5942 369.639 24.1945 374.252 24.1521 377.535 24.046 380.59 25.4633 383.762 26.0749 385.826 26.0253 387.938 25.435 389.634 24.2193 390.568 23.5725 391.191 22.558 392.172 21.9748 395.927 22.2223 399.643 23.272 403.426 23.0635 406.984 22.2858 410.053 20.1828 413.288 18.5994 413.481 19.4476 413.674 20.2959 413.871 21.1477 415.18 20.561 416.434 19.794 417.856 19.5007 419.855 20.0591 421.406 21.593 423.336 22.3424 423.652 22.5226 423.991 22.5474 424.342 22.4166 426.113 21.943 427.695 20.9569 429.443 20.409 431.599 19.7304 433.806 19.2285 435.962 18.5393 436.706 18.2776 437.491 18.4969 438.243 18.6383 440.118 19.073 442.069 18.9352 443.957 19.3027 446.568 19.6951 449.1 20.4656 451.656 21.1124 456.591 22.307 461.708 21.7309 466.732 21.9641 465.695 23.7208 464.035 25.474 464.422 27.6865 464.883 29.178 466.021 30.3091 466.862 31.5922 468.529 34.1653 469.97 36.8904 471.812 39.3504 473.872 42.1179 473.855 45.7442 473.943 49.042 473.992 51.9755 475.202 54.7467 476.882 57.0971 475.181 59.2142 474.305 61.8333 473.595 64.4209 472.993 66.6297 471.833 68.648 470.293 70.33 471.235 70.6591 472.181 70.9981 473.1 71.3977 472.244 71.4544 471.394 71.4964 470.547 71.5496 469.443 74.0269 468.346 76.5336 467.882 79.23 470.564 78.9936 473.243 78.6218 475.94 78.5233 473.506 79.2939 470.74 79.4565 468.697 81.135 468.286 82.3618 469.083 83.5349 469.84 84.429 471.007 85.8715 472.579 87.1649 472.931 89.0869 473.288 90.9223 473.644 92.7666 473.809 94.6333 473.472 96.7782 472.209 98.6626 472.017 100.848 473.876 100.498 475.74 100.158 477.627 99.96 476.734 101.504 475.862 103.078 474.695 104.431 473.876 105.367 473.077 106.326 472.452 107.404 472.779 108.482 473.397 109.422 474.062 110.323 473.04 111.246 471.791 112.098 471.394 113.494 470.94 115.165 470.983 117.01 470.055 118.526 469.179 119.859 467.832 120.81 467.024 122.195 466.451 123.082 466.275 124.139 466.025 125.15 464.513 125.271 463.001 125.409 461.497 125.539 461.254 126.747 460.745 127.993 461.057 129.229 461.971 131.773 464.718 133.096 465.603 135.661 466.236 137.535 466.858 139.419 467.305 141.345 467.748 142.908 466.914 144.502 467.281 146.067 467.994 147.802 469.667 148.922 470.378 150.658 470.677 152.436 470.171 154.278 470.638 156.037 471.169 157.438 472.54 158.197 473.686 159.035 473.117 160.273 472.555 161.655 472.927 163.037 473.387 164.793 473.95 166.705 475.455 167.861 478.035 169.777 481.393 170.363 483.811 172.541 484.975 173.601 486.312 174.442 487.696 175.189 486.79 175.153 485.889 175.1 484.996 175.067 485.509 176.06 486.15 177.009 486.47 178.098 486.68 179.522 485.69 180.861 485.904 182.282 486.723 183.974 488.263 185.184 489.046 186.905 488.452 188.609 487.191 189.947 486.484 191.592 486.002 192.688 486.2 193.913 486.2 195.077 482.83 194.267 479.477 193.415 476.129 192.536 475.078 192.157 474.024 192.624 472.987 192.772 472.22 192.941 471.514 192.5 470.796 192.323 468.42 191.574 465.938 192.253 463.522 192.295 462.403 192.288 461.472 191.517 460.386 191.39 458.748 191.422 457.144 192.221 455.506 191.8 452.253 191.033 448.984 190.319 445.819 189.241 444.962 188.98 444.023 188.531 443.158 189 441.278 189.87 439.639 191.189 437.765 192.064 436.706 192.571 435.511 192.465 434.38 192.486 431.254 192.479 428.143 192.941 425.129 193.755 423.596 194.208 422.053 193.55 420.541 193.319 420.123 193.961 419.711 194.603 419.307 195.25 417.641 195.122 415.974 194.961 414.308 195.02 413.158 195.07 412.046 195.78 410.897 195.391 408.558 194.819 406.228 194.083 403.802 194.079 400.99 194.083 398.183 194.335 395.378 194.547 392.638 194.787 389.883 194.886 387.18 195.42 385.614 195.657 383.99 196.056 382.425 195.635 379.163 194.847 375.833 194.299 372.476 194.189 369.882 194.102 367.948 192.03 365.498 191.489 364.503 191.63 363.56 192.005 362.576 192.178 360.523 192.55 358.441 192.197 356.377 192.266 354.648 192.433 353.115 193.366 351.409 193.627 349.894 193.518 348.635 192.497 347.142 192.295 346.051 192.38 345.112 193.151 344.016 193.129 340.113 192.019 336.467 190.121 332.568 189.008 331.489 190.238 330.518 191.557 329.621 192.928 327.723 191.99 325.997 190.641 323.959 190.044 320.579 189.838 317.145 190.588 314.159 192.199 312.914 191.182 311.641 190.189 310.231 189.418 308.823 188.651 307.183 188.687 305.633 188.559 302.596 188.386 299.562 188.192 296.528 188.042 294.597 187.902 292.98 189.605 291.043 189.195 287.2 188.273 283.445 187.018 279.785 185.544 280.14 186.456 280.534 187.357 280.907 188.266 277.699 188.696 274.475 189.393 271.228 189.081 266.52 188.527 261.928 187.156 257.177 186.972 254.963 187.134 253.177 188.687 251.036 189.153 245.375 190.581 239.663 188.601 233.977 188.446 231.392 188.301 229.193 190.202 226.605 190.026 224.137 189.931 221.676 189.743 219.211 189.698 216.261 189.641 213.354 190.301 210.407 190.23 207.183 190.04 204.106 188.931 200.929 188.478 196.977 188.517 193.352 190.573 189.411 190.718 186.837 190.56 184.334 189.838 181.764 189.651 179.525 189.414 177.2 189.691 175.067 188.828 173.347 188.393 171.645 187.219 169.821 187.753 164.987 189.008 160.244 190.845 155.216 191.167 151.598 191.355 147.977 191.503 144.359 191.68 138.825 192.072 133.235 190.768 127.742 191.892 127.103 191.949 126.375 192.266 125.803 191.84 124.54 191.093 123.352 190.23 122.139 189.411 121.945 190.057 121.749 190.705 121.555 191.352 119.59 190.764 117.634 190.153 115.666 189.588 115.645 190.577 115.631 191.567 115.61 192.56 111.292 191.864 106.983 191.096 102.679 190.305 99.8453 189.708 97.2016 191.415 94.3895 191.344 91.7835 190.991 89.3082 190.053 86.8361 189.191 85.8627 188.862 84.8997 188.397 83.8484 188.436 78.0223 188.259 72.5413 190.531 67.0563 192.182 66.0372 191.397 65.0069 190.429 63.6571 190.354 60.6608 190.082 57.6619 189.842 54.6809 189.467 53.3935 189.357 52.1001 189.057 50.8133 189.248 49.1926 189.723 47.8561 190.878 46.2075 191.27 43.795 190.845 41.5177 189.885 39.1793 189.178 38.0159 189.983 36.8377 191.048 35.333 191.008 31.0049 191.1 26.5509 191.195 22.4619 192.794 21.6774 193.063 20.8339 193.376 19.9938 193.157 16.738 192.398 13.5491 191.333 10.2337 190.86 8.5145 190.585 6.77065 190.577 5.04783 190.39 6.95697 190.223 8.86956 190.105 10.7822 189.955 10.2127 188.959 9.49188 188.011 9.2352 186.876 9.43214 185.552 10.0439 184.318 10.1423 182.974 10.2759 181.328 10.079 179.617 10.6979 178.043 11.0599 176.82 11.8861 175.619 11.5768 174.294 11.3343 173.202 10.9298 172.156 10.747 171.053 11.939 169.671 13.2643 168.413 14.516 167.087 13.7601 165.493 12.6773 163.955 12.5647 162.142 12.5366 159.703 14.4738 157.902 15.0469 155.639 15.3738 153.585 14.8712 151.489 15.2297 149.439 15.5356 147.696 16.7908 146.247 16.8962 144.459 16.9946 141.978 16.5481 139.419 17.3884 137.015 18.5102 133.807 20.1375 130.801 21.3541 127.629 22.5461 124.595 24.357 121.824 25.3377 118.714 24.1244 117.236 22.3665 116.378 21.0944 114.975 20.6723 114.554 20.7213 113.919 20.6756 113.374 20.6477 110.766 21.7868 108.238 21.3753 105.623 21.101 103.615 20.8306 101.604 20.7776 99.5743 20.7743 98.3731 21.3263 97.2561 21.3859 96.0614 20.6404 94.5804 19.1112 93.7465 17.8211 92.8027 17.9788 92.1379 18.1339 91.474 18.2922 90.8093 17.617 90.4918 16.9419 90.1726 16.2704 89.8503 17.568 89.0316 19.3782 88.5793 19.9375 86.9781 20.6299 84.2037 21.0135 81.3619 21.4773 78.5406 21.8994 75.8508 24.4378 73.8365 24.1774 70.9874 23.7977 68.0859 23.1789 65.1523 23.5585 62.2151 23.9733 60.066 25.2747 58.0196 24.8951 55.7646 24.2616 52.2195 21.576 49.5475 20.3946 46.2285 20.3907 44.2952 22.1876 42.8778 22.1068 40.9303 21.9697 39.2408 20.7776 37.9331 20.0567 36.4698 19.0271 34.6036 18.7593 32.3627 17.3851 30.6838 16.3758 29.2276 14.9343 27.994 14.4457 26.2339 13.862 23.2897 14.8254 20.2959 16.179 17.7016 16.826 18.7797 17.3639 20.1369 18.6997 20.5009 21.7516 21.5578 24.891 22.3425 27.9814 23.2861 29.0853 22.1126 30.1719 20.8862 31.5012 19.9637 34.6511 19.9813 37.7448 21.3457 40.9372 20.9251 43.1033 20.6212 45.2296 19.946 47.1465 18.8751 48.5426 18.094 49.516 16.7862 50.592 15.6375 50.8908 16.6095 51.1578 17.5956 51.4534 18.5711 53.141 18.5605 55.0672 19.1331 56.5614 18.0834 57.8342 16.9135 58.844 15.4855 60.0003 14.206 61.9026 14.9377 63.7831 16.0475 65.8895 15.9025 67.7209 15.793 69.5523 15.7152 71.3811 15.5526 73.0899 15.3936 73.677 13.1387 75.4349 13.0644 78.5179 12.7145 81.5495 11.997 84.5164 11.085 85.5812 12.3293 86.6822 13.5451 87.8425 14.7008 89.8671 14.2025 91.5622 12.7004 93.6879 12.5801 96.0518 12.6897 98.4276 13.7148 100.795 13.036 105.375 11.746 109.991 10.3711 114.773 10.1696 119.889 9.9187 124.853 11.4103 129.899 11.9652 131.853 12.2161 133.132 10.0388 135.081 10.2262 139.935 10.5903 144.809 10.972 149.679 10.6538 149.914 11.1523 150.149 11.6505 150.386 12.1526 152.188 11.7778 153.985 11.2335 155.842 11.2052 157.209 11.9758 158.401 13.0927 159.931 13.5592 161.678 14.0858 163.623 14.9058 165.404 14.0293 167.229 13.4143 168.962 11.8415 170.991 12.4246 172.57 12.7321 174.117 13.1916 175.678 13.5874 176.019 12.7427 176.195 11.7672 176.852 11.0992 177.823 10.5302 178.955 10.3357 180.034 10.0777Z" fill="#E8E8E9" transform="matrix(1 0 0 1.08723 -5.04778 -8.98759)"/></g></svg>