<svg width="605" height="340" xmlns="http://www.w3.org/2000/svg" xmlns:xlink="http://www.w3.org/1999/xlink" xml:space="preserve" overflow="hidden"><defs><clipPath id="clip0"><rect x="0" y="0" width="605" height="340"/></clipPath></defs><g clip-path="url(#clip0)"><path d="M225.043 12.5971C230.76 11.4705 236.539 10.4367 242.388 10.4323 246.094 10.5073 249.117 13.0169 252.616 13.9048 259.353 15.4468 266.257 16.1272 273.157 16.3658 274.695 16.4188 276.251 16.516 277.745 16.9401 283.51 18.5218 289.246 20.2714 295.134 21.3229 299.969 21.9459 304.763 20.5718 309.594 20.5807 313.702 20.6955 317.781 21.3716 321.899 21.3317 328.5 21.2787 334.873 19.3569 341.35 18.3141 345.107 17.7884 348.909 17.6161 352.707 17.6603 355.137 17.6471 357.237 19.3569 359.69 19.2155 366.417 18.6279 373.318 17.1964 379.998 18.9195 382.023 19.3305 383.993 20.0638 386.059 20.2582 388.058 19.9974 389.192 17.5718 391.31 17.7001 395.419 17.9034 399.437 18.946 403.348 20.1918 405.923 21.0136 408.419 22.149 411.113 22.5378 414.607 23.1431 418.163 22.9842 421.691 23.0371 423.919 22.9709 425.835 24.2609 427.84 25.0473 432.827 27.3316 438.4 28.1047 443.177 30.8925 445.603 32.081 448.087 34.1001 450.96 33.3932 456.502 31.9927 462.049 30.2431 467.815 30.1901 471.919 30.0575 475.737 31.8292 479.703 32.5936 482.283 32.5317 484.923 31.7938 487.043 30.2741 488.21 29.4656 488.989 28.1975 490.215 27.4685 494.909 27.7779 499.553 29.0899 504.282 28.8293 508.73 27.8573 512.566 25.2285 516.611 23.2493 516.851 24.3095 517.093 25.3699 517.339 26.4346 518.975 25.7012 520.543 24.7425 522.32 24.3759 524.819 25.0739 526.757 26.9913 529.171 27.928 529.565 28.1533 529.989 28.1843 530.427 28.0208 532.642 27.4287 534.619 26.1961 536.804 25.5113 539.498 24.663 542.258 24.0356 544.952 23.1741 545.883 22.8471 546.863 23.1211 547.804 23.2979 550.147 23.8412 552.587 23.669 554.946 24.1284 558.211 24.6188 561.375 25.5821 564.57 26.3905 570.739 27.8838 577.135 27.1636 583.416 27.4552 582.119 29.651 580.044 31.8425 580.528 34.6082 581.103 36.4726 582.527 37.8864 583.578 39.4902 585.661 42.7066 587.462 46.113 589.765 49.188 592.34 52.6473 592.319 57.1803 592.428 61.3025 592.49 64.9694 594.002 68.4333 596.103 71.3714 593.976 74.0178 592.881 77.2916 591.993 80.5261 591.242 83.2872 589.791 85.8101 587.866 87.9125 589.044 88.3239 590.226 88.7476 591.375 89.2472 590.305 89.3179 589.243 89.3705 588.184 89.437 586.803 92.5337 585.432 95.667 584.852 99.0376 588.205 98.742 591.553 98.2773 594.925 98.1541 591.883 99.1174 588.425 99.3206 585.871 101.419 585.357 102.952 586.354 104.419 587.3 105.536 588.759 107.339 590.723 108.956 591.164 111.359 591.61 113.653 592.055 115.958 592.261 118.292 591.84 120.973 590.261 123.328 590.021 126.06 592.345 125.623 594.675 125.198 597.034 124.95 595.917 126.88 594.828 128.847 593.369 130.539 592.345 131.709 591.347 132.907 590.565 134.254 590.974 135.603 591.747 136.777 592.578 137.904 591.3 139.057 589.739 140.122 589.243 141.867 588.675 143.957 588.729 146.263 587.568 148.157 586.474 149.824 584.79 151.012 583.779 152.744 583.064 153.853 582.843 155.174 582.532 156.438 580.641 156.589 578.752 156.761 576.872 156.924 576.568 158.434 575.931 159.991 576.321 161.536 577.464 164.717 580.898 166.369 582.004 169.577 582.795 171.918 583.573 174.274 584.131 176.681 584.685 178.635 583.643 180.627 584.101 182.584 584.992 184.753 587.084 186.153 587.972 188.323 588.346 190.545 587.714 192.847 588.298 195.047 588.961 196.798 590.675 197.747 592.108 198.794 591.396 200.341 590.693 202.069 591.158 203.796 591.734 205.991 592.437 208.381 594.319 209.827 597.544 212.221 601.742 212.954 604.764 215.676 606.219 217.001 607.89 218.053 609.62 218.986 608.487 218.942 607.362 218.874 606.245 218.834 606.887 220.075 607.688 221.261 608.087 222.622 608.35 224.402 607.112 226.076 607.38 227.852 608.403 229.968 610.329 231.479 611.308 233.631 610.565 235.761 608.989 237.434 608.104 239.49 607.502 240.86 607.75 242.392 607.75 243.846 603.538 242.834 599.346 241.769 595.162 240.67 593.848 240.197 592.53 240.78 591.234 240.965 590.274 241.177 589.392 240.625 588.495 240.404 585.524 239.468 582.422 240.316 579.402 240.369 578.004 240.36 576.84 239.397 575.482 239.237 573.435 239.277 571.43 240.277 569.382 239.751 565.317 238.791 561.23 237.899 557.274 236.551 556.203 236.224 555.028 235.664 553.948 236.25 551.597 237.338 549.549 238.987 547.206 240.08 545.883 240.714 544.389 240.581 542.974 240.608 539.067 240.599 535.178 241.177 531.411 242.193 529.495 242.759 527.566 241.938 525.677 241.649 525.153 242.451 524.639 243.254 524.134 244.062 522.051 243.903 519.967 243.701 517.885 243.775 516.447 243.837 515.058 244.725 513.621 244.239 510.698 243.523 507.785 242.604 504.752 242.599 501.237 242.604 497.729 242.919 494.223 243.183 490.798 243.483 487.353 243.607 483.974 244.275 482.018 244.571 479.987 245.07 478.032 244.544 473.953 243.558 469.792 242.874 465.595 242.736 462.353 242.627 459.935 240.037 456.872 239.362 455.629 239.538 454.45 240.006 453.221 240.223 450.654 240.688 448.052 240.246 445.471 240.333 443.31 240.541 441.393 241.708 439.261 242.034 437.367 241.898 435.794 240.622 433.927 240.369 432.564 240.475 431.39 241.438 430.02 241.411 425.142 240.024 420.583 237.652 415.71 236.26 414.361 237.798 413.147 239.446 412.027 241.16 409.653 239.988 407.496 238.301 404.948 237.555 400.724 237.298 396.431 238.235 392.699 240.249 391.142 238.978 389.552 237.736 387.789 236.773 386.029 235.813 383.979 235.859 382.042 235.698 378.245 235.483 374.452 235.24 370.66 235.053 368.247 234.877 366.225 237.006 363.803 236.494 359 235.341 354.307 233.773 349.731 231.93 350.175 233.07 350.667 234.197 351.134 235.332 347.124 235.871 343.094 236.742 339.035 236.352 333.15 235.659 327.411 233.945 321.472 233.715 318.704 233.918 316.471 235.859 313.795 236.441 306.719 238.226 299.578 235.751 292.471 235.558 289.241 235.376 286.491 237.753 283.257 237.532 280.171 237.413 277.095 237.179 274.014 237.122 270.326 237.051 266.693 237.876 263.009 237.788 258.979 237.55 255.133 236.163 251.161 235.597 246.221 235.646 241.69 238.216 236.764 238.397 233.546 238.2 230.417 237.298 227.205 237.064 224.406 236.768 221.501 237.113 218.833 236.035 216.683 235.492 214.556 234.024 212.276 234.691 206.233 236.26 200.305 238.557 194.02 238.959 189.498 239.194 184.971 239.379 180.449 239.6 173.531 240.09 166.544 238.46 159.678 239.865 158.879 239.936 157.969 240.333 157.253 239.8 155.675 238.867 154.19 237.788 152.674 236.764 152.431 237.572 152.186 238.381 151.944 239.19 149.488 238.456 147.043 237.692 144.582 236.985 144.556 238.221 144.539 239.459 144.512 240.7 139.116 239.83 133.728 238.871 128.349 237.881 124.807 237.135 121.502 239.268 117.987 239.18 114.729 238.738 111.635 237.567 108.545 236.489 107.328 236.078 106.125 235.496 104.811 235.545 97.5279 235.323 90.6766 238.164 83.8204 240.228 82.5465 239.246 81.2586 238.037 79.5714 237.942 75.8261 237.603 72.0774 237.302 68.3511 236.834 66.7418 236.697 65.1251 236.322 63.5166 236.56 61.4907 237.154 59.8202 238.597 57.7594 239.088 54.7438 238.557 51.8971 237.356 48.9742 236.472 47.5198 237.479 46.0471 238.809 44.1662 238.76 38.7561 238.876 33.1886 238.994 28.0774 240.992 27.0968 241.328 26.0424 241.72 24.9922 241.446 20.9225 240.497 16.9364 239.166 12.7922 238.575 10.6431 238.231 8.46332 238.221 6.30978 237.987 8.69621 237.779 11.087 237.631 13.4778 237.443 12.7658 236.198 11.8648 235.014 11.544 233.595 11.7902 231.94 12.5548 230.398 12.6779 228.718 12.8449 226.66 12.5987 224.521 13.3723 222.554 13.8249 221.025 14.8576 219.524 14.4711 217.868 14.1679 216.503 13.6623 215.195 13.4338 213.817 14.9237 212.089 16.5804 210.516 18.145 208.859 17.2001 206.866 15.8466 204.944 15.7059 202.678 15.6707 199.629 18.0923 197.377 18.8086 194.548 19.2173 191.981 18.5889 189.361 19.0371 186.799 19.4195 184.62 20.9885 182.809 21.1203 180.574 21.2433 177.473 20.6852 174.274 21.7355 171.269 23.1377 167.258 25.1719 163.502 26.6926 159.536 28.1827 155.744 30.4463 152.28 31.6721 148.392 30.1555 146.545 27.9581 145.472 26.368 143.718 25.8404 143.192 25.9016 142.398 25.8445 141.718 25.8097 138.457 27.2335 135.298 26.7191 132.028 26.3762 129.519 26.0383 127.005 25.9721 124.468 25.9678 122.966 26.6578 121.57 26.7324 120.077 25.8006 118.225 23.889 117.183 22.2763 116.003 22.4735 115.172 22.6673 114.343 22.8653 113.512 22.0213 113.115 21.1774 112.716 20.338 112.313 21.96 111.289 24.2227 110.724 24.9218 108.723 25.7873 105.255 26.2669 101.702 26.8467 98.1758 27.3743 94.8135 30.5473 92.2956 30.2218 88.7343 29.7472 85.1074 28.9736 81.4404 29.4482 77.7688 29.9667 75.0825 31.5934 72.5245 31.1188 69.7057 30.327 65.2743 26.9701 61.9343 25.4933 57.7857 25.4883 55.369 27.7345 53.5972 27.6335 51.1629 27.4621 49.051 25.9721 47.4164 25.0709 45.5873 23.7838 43.2545 23.4491 40.4533 21.7314 38.3548 20.4698 36.5345 18.6679 34.9925 18.0571 32.7924 17.3275 29.1121 18.5318 25.3699 20.2237 22.127 21.0325 23.4746 21.7049 25.1711 23.3747 25.6262 27.1896 26.9472 31.1138 27.9281 34.9768 29.1077 36.3566 27.6408 37.7149 26.1078 39.3765 24.9546 43.3139 24.9767 47.181 26.6821 51.1715 26.1564 53.8791 25.7765 56.537 24.9325 58.9331 23.5939 60.6782 22.6175 61.895 20.9828 63.2399 19.5469 63.6135 20.7619 63.9473 21.9945 64.3167 23.2139 66.4263 23.2006 68.8339 23.9163 70.7018 22.6042 72.2928 21.1418 73.555 19.3569 75.0004 17.7575 77.3782 18.6721 79.7289 20.0593 82.3618 19.8781 84.6511 19.7413 86.9404 19.644 89.2263 19.4408 91.3624 19.242 92.0963 16.4234 94.2936 16.3304 98.1474 15.8931 101.937 14.9963 105.645 13.8562 106.977 15.4116 108.353 16.9313 109.803 18.3761 112.334 17.7531 114.453 15.8755 117.11 15.7251 120.065 15.8622 123.035 17.1435 125.993 16.2951 131.719 14.6825 137.489 12.9639 143.466 12.712 149.861 12.3984 156.066 14.2629 162.373 14.9565 164.816 15.2701 166.416 12.5485 168.851 12.7828 174.919 13.2379 181.011 13.715 187.098 13.3173 187.392 13.9403 187.687 14.5632 187.982 15.1907 190.235 14.7222 192.482 14.0419 194.802 14.0065 196.511 14.9698 198.001 16.3659 199.914 16.9491 202.098 17.6073 204.528 18.6322 206.756 17.5366 209.037 16.7678 211.203 14.8018 213.739 15.5307 215.712 15.9152 217.647 16.4895 219.597 16.9842 220.024 15.9284 220.244 14.709 221.064 13.874 222.279 13.1627 223.694 12.9196 225.043 12.5971Z" fill="#E8E8E9" transform="matrix(1 0 0 1.44964 -6.30973 -14.9793)"/></g></svg>