<?xml version="1.0" encoding="UTF-8" ?>
<!DOCTYPE svg PUBLIC "-//W3C//DTD SVG 1.1//EN" "http://www.w3.org/Graphics/SVG/1.1/DTD/svg11.dtd">
<svg width="1240pt" height="683pt" viewBox="0 0 1240 683" version="1.1" xmlns="http://www.w3.org/2000/svg">
<g id="#000000ff">
<path fill="#000000" opacity="1.00" d=" M 718.46 19.65 C 730.63 19.11 742.82 19.64 755.00 19.46 C 770.29 19.44 786.21 18.54 800.70 24.33 C 808.82 27.22 816.07 32.96 824.96 33.27 C 833.82 33.69 841.24 28.21 849.13 25.07 C 861.31 19.66 874.90 19.34 888.00 19.41 C 900.34 19.60 912.68 19.29 925.02 19.40 C 938.95 19.61 953.39 21.26 965.70 28.28 C 976.39 34.46 989.15 33.19 1000.99 33.17 C 1042.99 33.08 1084.99 33.11 1126.99 33.08 C 1150.42 32.81 1173.84 41.16 1191.82 56.18 C 1202.91 65.38 1211.43 77.41 1217.57 90.38 C 1222.60 101.53 1226.02 113.65 1225.76 125.97 C 1225.78 149.65 1225.80 173.33 1226.13 197.00 C 1226.22 319.67 1226.10 442.34 1226.17 565.01 C 1226.03 584.90 1219.05 604.43 1207.56 620.56 C 1201.00 630.23 1192.21 638.19 1182.34 644.36 C 1165.02 655.29 1144.48 661.12 1124.00 660.69 C 1063.66 660.65 1003.33 660.64 943.00 660.55 C 930.02 661.25 918.66 668.61 906.01 670.86 C 900.40 671.90 894.67 671.46 889.00 671.55 C 852.00 671.63 815.00 671.51 778.00 671.65 C 769.37 671.63 760.74 671.90 752.12 671.45 C 744.16 671.01 736.35 669.01 728.99 666.03 C 722.27 663.34 715.36 660.47 707.99 660.64 C 510.33 660.66 312.67 660.64 115.00 660.67 C 92.67 661.10 70.22 654.05 52.23 640.78 C 26.72 622.18 12.10 590.38 12.82 559.01 C 13.32 539.33 11.60 519.58 13.88 499.98 C 15.40 488.04 14.70 475.99 14.74 464.00 C 14.74 376.65 14.73 289.30 14.74 201.95 C 14.73 195.69 13.67 189.51 13.40 183.26 C 12.32 168.20 12.72 153.09 12.89 138.01 C 13.21 130.01 12.78 121.94 14.27 114.03 C 21.89 69.54 63.60 33.29 108.94 33.11 C 280.63 33.09 452.31 33.12 624.00 33.11 C 636.00 33.07 647.99 33.15 659.99 33.22 C 666.65 33.10 673.59 33.45 679.88 30.87 C 686.26 28.32 692.28 24.90 698.88 22.90 C 705.21 20.91 711.85 20.07 718.46 19.65 M 107.45 44.83 C 85.24 46.97 63.56 56.89 48.25 73.25 C 33.06 89.97 24.34 112.41 24.32 135.00 C 24.32 276.67 24.35 418.34 24.35 560.02 C 24.76 588.31 38.90 616.51 62.46 632.52 C 77.82 643.13 96.39 648.75 115.00 649.23 C 446.00 649.23 777.00 649.21 1108.00 649.20 C 1118.07 649.13 1128.20 649.63 1138.19 648.10 C 1157.83 645.10 1176.36 635.41 1190.11 621.09 C 1200.88 610.15 1208.49 596.22 1212.28 581.38 C 1216.11 564.90 1213.78 547.86 1215.05 531.14 C 1216.68 517.15 1215.23 503.03 1216.15 489.00 C 1216.27 390.00 1216.19 291.00 1216.20 192.00 C 1216.03 183.66 1216.63 175.28 1215.70 166.97 C 1214.76 155.33 1214.69 143.65 1214.38 131.99 C 1214.22 124.37 1213.90 116.63 1211.51 109.33 C 1202.69 78.69 1176.52 53.48 1145.13 47.03 C 1128.69 43.14 1111.73 44.55 1095.00 44.36 C 769.34 44.42 443.67 44.43 118.00 44.38 C 114.48 44.36 110.96 44.45 107.45 44.83 Z" />
<path fill="#000000" opacity="1.00" d=" M 106.32 61.25 C 109.87 60.87 113.44 60.72 117.00 60.68 C 397.00 60.69 677.00 60.67 957.00 60.68 C 1012.00 60.64 1066.99 60.78 1121.98 60.58 C 1136.16 60.89 1150.73 63.51 1163.00 70.98 C 1176.85 79.23 1187.71 92.37 1193.22 107.52 C 1196.48 116.62 1197.84 126.35 1197.73 136.00 C 1197.77 276.67 1197.64 417.34 1197.74 558.00 C 1197.85 574.89 1193.24 592.21 1182.34 605.40 C 1170.22 620.41 1152.12 630.49 1132.92 632.60 C 1121.64 633.68 1110.30 633.01 1099.00 633.20 C 773.00 633.21 447.00 633.21 121.01 633.23 C 113.00 633.36 104.91 632.84 97.13 630.86 C 81.81 627.14 67.90 618.23 57.94 606.02 C 44.12 590.98 41.62 569.55 40.92 550.00 C 40.89 414.67 40.91 279.33 40.91 144.00 C 41.50 127.05 43.53 109.33 52.56 94.57 C 60.62 82.11 72.22 71.69 86.17 66.31 C 92.62 63.72 99.41 61.99 106.32 61.25 M 120.32 64.17 C 107.23 64.72 94.61 69.19 82.91 74.86 C 61.98 85.54 49.27 108.23 46.66 131.08 C 46.22 135.71 46.44 140.36 46.40 145.00 C 46.37 282.34 46.44 419.68 46.36 557.02 C 46.34 564.43 47.90 571.75 50.38 578.72 C 57.55 602.36 78.28 621.20 102.43 626.26 C 113.20 628.18 124.15 626.88 135.00 627.18 C 461.67 627.19 788.33 627.18 1115.00 627.18 C 1123.80 627.08 1132.82 627.83 1141.39 625.29 C 1158.67 620.34 1173.97 608.50 1182.84 592.82 C 1191.64 577.50 1195.10 559.54 1194.64 541.99 C 1194.37 526.35 1195.23 510.63 1193.27 495.06 C 1189.93 472.05 1197.13 449.00 1194.03 425.98 C 1192.13 411.40 1192.21 396.67 1192.24 382.00 C 1192.31 371.16 1191.92 360.28 1193.15 349.49 C 1193.98 338.77 1195.45 328.00 1194.28 317.24 C 1192.31 301.92 1191.83 286.44 1191.93 271.00 C 1192.78 241.67 1192.07 212.32 1192.30 182.98 C 1192.18 170.60 1194.46 158.36 1194.71 146.00 C 1195.11 135.82 1193.05 125.72 1189.67 116.16 C 1184.82 102.01 1177.08 88.08 1164.47 79.48 C 1152.59 71.75 1139.00 66.63 1124.96 64.66 C 1111.35 63.21 1097.65 64.05 1084.00 63.83 C 764.66 63.83 445.32 63.84 125.97 63.85 C 124.08 63.86 122.20 64.05 120.32 64.17 Z" />
<path fill="#000000" opacity="1.00" d=" M 217.37 102.40 C 239.60 93.67 262.62 87.05 285.89 81.72 C 279.77 94.96 272.99 107.89 267.20 121.28 C 278.95 129.62 292.13 135.71 305.15 141.79 C 324.00 150.37 343.31 157.84 362.65 165.22 C 389.34 175.50 414.33 189.53 440.06 201.90 C 447.35 205.45 455.05 208.07 462.29 211.73 C 481.37 220.79 499.57 231.63 518.94 240.09 C 524.49 242.52 530.29 244.38 536.27 245.44 C 523.22 271.63 513.63 299.46 498.93 324.85 C 471.18 309.28 441.69 297.25 412.66 284.33 C 402.36 279.60 392.11 274.75 381.61 270.48 C 367.05 264.54 352.30 258.95 338.38 251.59 C 327.17 246.09 316.61 239.40 305.77 233.22 C 282.04 219.64 257.53 206.82 231.13 199.27 C 227.33 207.53 224.45 216.20 220.25 224.28 C 217.58 229.51 214.52 234.54 211.25 239.41 C 208.96 232.10 207.01 224.69 204.56 217.43 C 194.48 185.49 177.94 155.88 169.82 123.29 C 185.49 115.94 201.20 108.62 217.37 102.40 M 177.93 127.09 C 183.17 145.55 190.80 163.18 198.20 180.83 C 203.89 194.41 208.89 208.27 213.38 222.29 C 218.91 212.29 222.31 201.29 227.29 191.02 C 248.34 196.52 268.40 205.28 287.60 215.42 C 309.77 226.61 330.26 240.90 352.94 251.09 C 368.67 258.27 385.03 263.96 400.71 271.26 C 432.43 286.20 465.27 298.76 496.16 315.44 C 507.94 294.54 515.94 271.82 526.33 250.25 C 498.77 240.43 474.42 223.60 447.36 212.62 C 435.32 207.75 423.93 201.45 412.27 195.76 C 394.08 186.57 375.80 177.48 356.71 170.28 C 336.20 162.52 315.79 154.43 295.94 145.09 C 283.10 138.89 270.26 132.46 258.76 123.96 C 263.17 113.07 268.20 102.45 273.32 91.88 C 240.29 99.88 208.53 112.40 177.93 127.09 Z" />
<path fill="#000000" opacity="1.00" d=" M 952.70 81.65 C 984.78 88.91 1016.21 99.14 1046.15 112.79 C 1053.80 116.18 1061.35 119.80 1068.97 123.29 C 1063.35 145.09 1054.27 165.75 1045.64 186.48 C 1038.52 203.69 1032.54 221.35 1027.59 239.30 C 1018.70 227.27 1013.29 213.18 1007.85 199.37 C 993.18 203.02 979.33 209.32 965.67 215.69 C 948.89 223.86 932.76 233.26 916.69 242.73 C 900.04 252.51 882.42 260.49 864.46 267.52 C 846.27 274.50 828.90 283.36 810.99 290.99 C 786.86 301.45 762.74 312.02 739.77 324.88 C 730.72 308.48 722.80 291.49 715.68 274.17 C 711.73 264.39 706.57 255.12 702.72 245.32 C 710.76 244.13 718.28 240.86 725.60 237.46 C 745.39 228.23 764.20 217.00 784.18 208.18 C 801.65 201.25 818.08 192.07 834.92 183.79 C 853.01 174.66 871.64 166.62 890.67 159.63 C 918.35 148.75 946.18 137.58 971.45 121.71 C 966.01 107.99 959.02 94.96 952.70 81.65 M 965.43 91.92 C 970.47 102.54 975.64 113.10 979.98 124.03 C 958.77 138.94 934.69 149.03 910.90 159.01 C 891.76 166.91 872.05 173.47 853.41 182.52 C 833.52 191.73 814.37 202.45 794.35 211.38 C 775.75 218.64 758.54 228.86 740.67 237.68 C 731.50 242.35 722.26 247.00 712.43 250.14 C 722.54 271.81 730.96 294.27 742.40 315.32 C 746.36 313.88 749.89 311.54 753.66 309.67 C 772.52 300.11 791.98 291.82 811.33 283.34 C 828.29 275.99 844.84 267.68 862.11 261.06 C 879.60 254.21 896.77 246.48 912.97 236.94 C 944.08 218.54 975.99 200.38 1011.18 191.02 C 1016.71 201.06 1019.60 212.34 1025.36 222.26 C 1027.53 215.84 1029.52 209.35 1031.88 203.00 C 1041.03 177.52 1053.42 153.25 1060.81 127.14 C 1030.24 112.41 998.48 99.85 965.43 91.92 Z" />
<path fill="#000000" opacity="1.00" d=" M 1135.42 337.64 C 1136.34 335.65 1138.92 335.71 1140.81 335.83 C 1145.88 336.55 1150.90 337.69 1155.83 339.07 C 1158.12 339.79 1161.12 340.72 1161.60 343.47 C 1162.43 347.74 1162.68 352.27 1161.57 356.52 C 1154.39 363.14 1143.05 363.77 1134.57 359.33 C 1132.37 352.32 1131.76 344.27 1135.42 337.64 Z" />
<path fill="#000000" opacity="1.00" d=" M 398.21 405.22 C 431.78 389.49 466.59 376.29 498.93 358.01 C 507.43 373.33 514.92 389.18 521.62 405.36 C 526.08 416.24 531.35 426.76 536.17 437.48 C 526.69 439.09 517.88 443.10 509.31 447.30 C 490.45 456.25 472.50 467.06 453.28 475.28 C 437.69 481.45 423.02 489.61 408.00 497.00 C 393.38 504.36 378.60 511.47 363.32 517.37 C 330.58 530.18 297.23 542.42 267.33 561.20 C 272.70 574.94 279.67 587.99 286.07 601.27 C 262.76 595.91 239.70 589.27 217.43 580.53 C 201.26 574.31 185.53 567.02 169.87 559.64 C 175.25 537.65 184.66 516.96 193.21 496.08 C 200.35 478.95 206.22 461.32 211.22 443.45 C 219.96 455.73 225.36 469.84 231.06 483.67 C 252.29 477.66 272.30 468.08 291.65 457.61 C 308.51 448.64 324.45 437.99 341.66 429.67 C 359.97 420.30 379.61 413.93 398.21 405.22 M 400.69 411.66 C 382.49 420.12 363.36 426.44 345.40 435.44 C 327.31 444.28 310.52 455.47 292.72 464.84 C 271.95 476.05 250.27 485.90 227.37 491.87 C 222.16 481.69 218.95 470.59 213.40 460.58 C 210.36 469.68 207.43 478.84 203.91 487.77 C 195.18 510.44 184.52 532.40 177.92 555.84 C 208.53 570.47 240.24 583.04 273.26 591.05 C 268.37 580.39 263.04 569.91 258.81 558.95 C 265.20 554.05 272.24 550.09 279.28 546.20 C 297.73 536.41 316.98 528.19 336.38 520.47 C 356.85 512.61 377.40 504.86 396.92 494.79 C 413.27 486.85 429.23 478.06 445.95 470.88 C 473.53 459.89 498.24 442.68 526.27 432.73 C 516.03 411.05 507.89 388.38 496.13 367.43 C 465.28 384.20 432.40 396.71 400.69 411.66 Z" />
<path fill="#000000" opacity="1.00" d=" M 726.95 382.98 C 730.98 374.52 735.27 366.19 739.79 357.99 C 760.32 369.51 781.77 379.26 803.37 388.59 C 818.46 395.05 833.34 401.98 848.31 408.73 C 864.60 415.81 881.45 421.62 897.27 429.76 C 911.62 436.69 925.03 445.34 938.93 453.10 C 960.88 465.28 983.46 477.00 1007.80 483.56 C 1013.38 469.82 1018.62 455.58 1027.66 443.68 C 1033.43 465.30 1041.20 486.33 1049.99 506.90 C 1057.26 524.09 1064.26 541.47 1068.95 559.57 C 1050.27 568.48 1031.39 577.02 1011.93 584.09 C 992.57 591.07 972.72 596.69 952.66 601.22 C 958.93 587.89 966.11 574.96 971.44 561.20 C 951.25 548.39 929.21 538.88 907.15 529.81 C 891.06 523.15 874.51 517.59 858.65 510.36 C 838.15 501.27 818.45 490.50 798.25 480.79 C 789.74 476.91 780.99 473.59 772.61 469.42 C 755.51 460.88 738.87 451.42 721.44 443.57 C 715.37 440.76 708.99 438.76 702.46 437.34 C 711.42 419.58 718.65 401.03 726.95 382.98 M 738.77 374.72 C 728.78 393.40 721.93 413.54 712.31 432.38 C 741.23 443.35 767.09 460.86 795.86 472.18 C 821.57 483.86 846.10 498.07 872.28 508.76 C 888.49 515.24 904.89 521.22 920.95 528.08 C 941.33 536.96 961.96 545.93 980.05 559.03 C 975.42 569.81 970.55 580.49 965.41 591.04 C 998.46 583.07 1030.17 570.45 1060.82 555.86 C 1056.61 541.17 1050.97 526.96 1045.05 512.89 C 1037.79 495.76 1030.84 478.46 1025.40 460.65 C 1019.75 470.57 1016.45 481.63 1011.45 491.88 C 989.52 486.17 968.64 476.94 948.72 466.25 C 927.10 455.10 906.96 441.20 884.67 431.32 C 868.93 424.19 852.56 418.52 836.92 411.15 C 805.68 396.48 773.36 384.09 742.98 367.65 C 740.72 369.01 740.27 372.49 738.77 374.72 Z" />
</g>
<g id="#ffffffff">
<path fill="#ffffff" opacity="1.00" d=" M 107.45 44.83 C 110.96 44.45 114.48 44.36 118.00 44.38 C 443.67 44.43 769.34 44.42 1095.00 44.36 C 1111.73 44.55 1128.69 43.14 1145.13 47.03 C 1176.52 53.48 1202.69 78.69 1211.51 109.33 C 1213.90 116.63 1214.22 124.37 1214.38 131.99 C 1214.69 143.65 1214.76 155.33 1215.70 166.97 C 1216.63 175.28 1216.03 183.66 1216.20 192.00 C 1216.19 291.00 1216.27 390.00 1216.15 489.00 C 1215.23 503.03 1216.68 517.15 1215.05 531.14 C 1213.78 547.86 1216.11 564.90 1212.28 581.38 C 1208.49 596.22 1200.88 610.15 1190.11 621.09 C 1176.36 635.41 1157.83 645.10 1138.19 648.10 C 1128.20 649.63 1118.07 649.13 1108.00 649.20 C 777.00 649.21 446.00 649.23 115.00 649.23 C 96.39 648.75 77.82 643.13 62.46 632.52 C 38.90 616.51 24.76 588.31 24.35 560.02 C 24.35 418.34 24.32 276.67 24.32 135.00 C 24.34 112.41 33.06 89.97 48.25 73.25 C 63.56 56.89 85.24 46.97 107.45 44.83 M 106.32 61.25 C 99.41 61.99 92.62 63.72 86.17 66.31 C 72.22 71.69 60.62 82.11 52.56 94.57 C 43.53 109.33 41.50 127.05 40.91 144.00 C 40.91 279.33 40.89 414.67 40.92 550.00 C 41.62 569.55 44.12 590.98 57.94 606.02 C 67.90 618.23 81.81 627.14 97.13 630.86 C 104.91 632.84 113.00 633.36 121.01 633.23 C 447.00 633.21 773.00 633.21 1099.00 633.20 C 1110.30 633.01 1121.64 633.68 1132.92 632.60 C 1152.12 630.49 1170.22 620.41 1182.34 605.40 C 1193.24 592.21 1197.85 574.89 1197.74 558.00 C 1197.64 417.34 1197.77 276.67 1197.73 136.00 C 1197.84 126.35 1196.48 116.62 1193.22 107.52 C 1187.71 92.37 1176.85 79.23 1163.00 70.98 C 1150.73 63.51 1136.16 60.89 1121.98 60.58 C 1066.99 60.78 1012.00 60.64 957.00 60.68 C 677.00 60.67 397.00 60.69 117.00 60.68 C 113.44 60.72 109.87 60.87 106.32 61.25 Z" />
<path fill="#ffffff" opacity="1.00" d=" M 120.32 64.17 C 122.20 64.05 124.08 63.86 125.97 63.85 C 445.32 63.84 764.66 63.83 1084.00 63.83 C 1097.65 64.05 1111.35 63.21 1124.96 64.66 C 1139.00 66.63 1152.59 71.75 1164.47 79.48 C 1177.08 88.08 1184.82 102.01 1189.67 116.16 C 1193.05 125.72 1195.11 135.82 1194.71 146.00 C 1194.46 158.36 1192.18 170.60 1192.30 182.98 C 1192.07 212.32 1192.78 241.67 1191.93 271.00 C 1191.83 286.44 1192.31 301.92 1194.28 317.24 C 1195.45 328.00 1193.98 338.77 1193.15 349.49 C 1191.92 360.28 1192.31 371.16 1192.24 382.00 C 1192.21 396.67 1192.13 411.40 1194.03 425.98 C 1197.13 449.00 1189.93 472.05 1193.27 495.06 C 1195.23 510.63 1194.37 526.35 1194.64 541.99 C 1195.10 559.54 1191.64 577.50 1182.84 592.82 C 1173.97 608.50 1158.67 620.34 1141.39 625.29 C 1132.82 627.83 1123.80 627.08 1115.00 627.18 C 788.33 627.18 461.67 627.19 135.00 627.18 C 124.15 626.88 113.20 628.18 102.43 626.26 C 78.28 621.20 57.55 602.36 50.38 578.72 C 47.90 571.75 46.34 564.43 46.36 557.02 C 46.44 419.68 46.37 282.34 46.40 145.00 C 46.44 140.36 46.22 135.71 46.66 131.08 C 49.27 108.23 61.98 85.54 82.91 74.86 C 94.61 69.19 107.23 64.72 120.32 64.17 M 217.37 102.40 C 201.20 108.62 185.49 115.94 169.82 123.29 C 177.94 155.88 194.48 185.49 204.56 217.43 C 207.01 224.69 208.96 232.10 211.25 239.41 C 214.52 234.54 217.58 229.51 220.25 224.28 C 224.45 216.20 227.33 207.53 231.13 199.27 C 257.53 206.82 282.04 219.64 305.77 233.22 C 316.61 239.40 327.17 246.09 338.38 251.59 C 352.30 258.95 367.05 264.54 381.61 270.48 C 392.11 274.75 402.36 279.60 412.66 284.33 C 441.69 297.25 471.18 309.28 498.93 324.85 C 513.63 299.46 523.22 271.63 536.27 245.44 C 530.29 244.38 524.49 242.52 518.94 240.09 C 499.57 231.63 481.37 220.79 462.29 211.73 C 455.05 208.07 447.35 205.45 440.06 201.90 C 414.33 189.53 389.34 175.50 362.65 165.22 C 343.31 157.84 324.00 150.37 305.15 141.79 C 292.13 135.71 278.95 129.62 267.20 121.28 C 272.99 107.89 279.77 94.96 285.89 81.72 C 262.62 87.05 239.60 93.67 217.37 102.40 M 952.70 81.65 C 959.02 94.96 966.01 107.99 971.45 121.71 C 946.18 137.58 918.35 148.75 890.67 159.63 C 871.64 166.62 853.01 174.66 834.92 183.79 C 818.08 192.07 801.65 201.25 784.18 208.18 C 764.20 217.00 745.39 228.23 725.60 237.46 C 718.28 240.86 710.76 244.13 702.72 245.32 C 706.57 255.12 711.73 264.39 715.68 274.17 C 722.80 291.49 730.72 308.48 739.77 324.88 C 762.74 312.02 786.86 301.45 810.99 290.99 C 828.90 283.36 846.27 274.50 864.46 267.52 C 882.42 260.49 900.04 252.51 916.69 242.73 C 932.76 233.26 948.89 223.86 965.67 215.69 C 979.33 209.32 993.18 203.02 1007.85 199.37 C 1013.29 213.18 1018.70 227.27 1027.59 239.30 C 1032.54 221.35 1038.52 203.69 1045.64 186.48 C 1054.27 165.75 1063.35 145.09 1068.97 123.29 C 1061.35 119.80 1053.80 116.18 1046.15 112.79 C 1016.21 99.14 984.78 88.91 952.70 81.65 M 1135.42 337.64 C 1131.76 344.27 1132.37 352.32 1134.57 359.33 C 1143.05 363.77 1154.39 363.14 1161.57 356.52 C 1162.68 352.27 1162.43 347.74 1161.60 343.47 C 1161.12 340.72 1158.12 339.79 1155.83 339.07 C 1150.90 337.69 1145.88 336.55 1140.81 335.83 C 1138.92 335.71 1136.34 335.65 1135.42 337.64 M 398.21 405.22 C 379.61 413.93 359.97 420.30 341.66 429.67 C 324.45 437.99 308.51 448.64 291.65 457.61 C 272.30 468.08 252.29 477.66 231.06 483.67 C 225.36 469.84 219.96 455.73 211.22 443.45 C 206.22 461.32 200.35 478.95 193.21 496.08 C 184.66 516.96 175.25 537.65 169.87 559.64 C 185.53 567.02 201.26 574.31 217.43 580.53 C 239.70 589.27 262.76 595.91 286.07 601.27 C 279.67 587.99 272.70 574.94 267.33 561.20 C 297.23 542.42 330.58 530.18 363.32 517.37 C 378.60 511.47 393.38 504.36 408.00 497.00 C 423.02 489.61 437.69 481.45 453.28 475.28 C 472.50 467.06 490.45 456.25 509.31 447.30 C 517.88 443.10 526.69 439.09 536.17 437.48 C 531.35 426.76 526.08 416.24 521.62 405.36 C 514.92 389.18 507.43 373.33 498.93 358.01 C 466.59 376.29 431.78 389.49 398.21 405.22 M 726.95 382.98 C 718.65 401.03 711.42 419.58 702.46 437.34 C 708.99 438.76 715.37 440.76 721.44 443.57 C 738.87 451.42 755.51 460.88 772.61 469.42 C 780.99 473.59 789.74 476.91 798.25 480.79 C 818.45 490.50 838.15 501.27 858.65 510.36 C 874.51 517.59 891.06 523.15 907.15 529.81 C 929.21 538.88 951.25 548.39 971.44 561.20 C 966.11 574.96 958.93 587.89 952.66 601.22 C 972.72 596.69 992.57 591.07 1011.93 584.09 C 1031.39 577.02 1050.27 568.48 1068.95 559.57 C 1064.26 541.47 1057.26 524.09 1049.99 506.90 C 1041.20 486.33 1033.43 465.30 1027.66 443.68 C 1018.62 455.58 1013.38 469.82 1007.80 483.56 C 983.46 477.00 960.88 465.28 938.93 453.10 C 925.03 445.34 911.62 436.69 897.27 429.76 C 881.45 421.62 864.60 415.81 848.31 408.73 C 833.34 401.98 818.46 395.05 803.37 388.59 C 781.77 379.26 760.32 369.51 739.79 357.99 C 735.27 366.19 730.98 374.52 726.95 382.98 Z" />
<path fill="#ffffff" opacity="1.00" d=" M 177.93 127.09 C 208.53 112.40 240.29 99.88 273.32 91.88 C 268.20 102.45 263.17 113.07 258.76 123.96 C 270.26 132.46 283.10 138.89 295.94 145.09 C 315.79 154.43 336.20 162.52 356.71 170.28 C 375.80 177.48 394.08 186.57 412.27 195.76 C 423.93 201.45 435.32 207.75 447.36 212.62 C 474.42 223.60 498.77 240.43 526.33 250.25 C 515.94 271.82 507.94 294.54 496.16 315.44 C 465.27 298.76 432.43 286.20 400.71 271.26 C 385.03 263.96 368.67 258.27 352.94 251.09 C 330.26 240.90 309.77 226.61 287.60 215.42 C 268.40 205.28 248.34 196.52 227.29 191.02 C 222.31 201.29 218.91 212.29 213.38 222.29 C 208.89 208.27 203.89 194.41 198.20 180.83 C 190.80 163.18 183.17 145.55 177.93 127.09 Z" />
<path fill="#ffffff" opacity="1.00" d=" M 965.43 91.92 C 998.48 99.85 1030.24 112.41 1060.81 127.14 C 1053.42 153.25 1041.03 177.52 1031.88 203.00 C 1029.52 209.35 1027.53 215.84 1025.36 222.26 C 1019.60 212.34 1016.71 201.06 1011.18 191.02 C 975.99 200.38 944.08 218.54 912.97 236.94 C 896.77 246.48 879.60 254.21 862.11 261.06 C 844.84 267.68 828.29 275.99 811.33 283.34 C 791.98 291.82 772.52 300.11 753.66 309.67 C 749.89 311.54 746.36 313.88 742.40 315.32 C 730.96 294.27 722.54 271.81 712.43 250.14 C 722.26 247.00 731.50 242.35 740.67 237.68 C 758.54 228.86 775.75 218.64 794.35 211.38 C 814.37 202.45 833.52 191.73 853.41 182.52 C 872.05 173.47 891.76 166.91 910.90 159.01 C 934.69 149.03 958.77 138.94 979.98 124.03 C 975.64 113.10 970.47 102.54 965.43 91.92 Z" />
<path fill="#ffffff" opacity="1.00" d=" M 400.69 411.66 C 432.40 396.71 465.28 384.20 496.13 367.43 C 507.89 388.38 516.03 411.05 526.27 432.73 C 498.24 442.68 473.53 459.89 445.95 470.88 C 429.23 478.06 413.27 486.85 396.92 494.79 C 377.40 504.86 356.85 512.61 336.38 520.47 C 316.98 528.19 297.73 536.41 279.28 546.20 C 272.24 550.09 265.20 554.05 258.81 558.95 C 263.04 569.91 268.37 580.39 273.26 591.05 C 240.24 583.04 208.53 570.47 177.92 555.84 C 184.52 532.40 195.18 510.44 203.91 487.77 C 207.43 478.84 210.36 469.68 213.40 460.58 C 218.95 470.59 222.16 481.69 227.37 491.87 C 250.27 485.90 271.95 476.05 292.72 464.84 C 310.52 455.47 327.31 444.28 345.40 435.44 C 363.36 426.44 382.49 420.12 400.69 411.66 Z" />
<path fill="#ffffff" opacity="1.00" d=" M 738.77 374.72 C 740.27 372.49 740.72 369.01 742.98 367.65 C 773.36 384.09 805.68 396.48 836.92 411.15 C 852.56 418.52 868.93 424.19 884.67 431.32 C 906.96 441.20 927.10 455.10 948.72 466.25 C 968.64 476.94 989.52 486.17 1011.45 491.88 C 1016.45 481.63 1019.75 470.57 1025.40 460.65 C 1030.84 478.46 1037.79 495.76 1045.05 512.89 C 1050.97 526.96 1056.61 541.17 1060.82 555.86 C 1030.17 570.45 998.46 583.07 965.41 591.04 C 970.55 580.49 975.42 569.81 980.05 559.03 C 961.96 545.93 941.33 536.96 920.95 528.08 C 904.89 521.22 888.49 515.24 872.28 508.76 C 846.10 498.07 821.57 483.86 795.86 472.18 C 767.09 460.86 741.23 443.35 712.31 432.38 C 721.93 413.54 728.78 393.40 738.77 374.72 Z" />
</g>
</svg>
