<svg width="588" height="110" xmlns="http://www.w3.org/2000/svg" xmlns:xlink="http://www.w3.org/1999/xlink" xml:space="preserve" overflow="hidden"><defs><clipPath id="clip0"><rect x="0" y="0" width="588" height="110"/></clipPath></defs><g clip-path="url(#clip0)"><path d="M120.798 36.0545C121.649 34.1983 123.986 34.5077 125.667 34.462 126.598 35.1018 127.738 35.7311 127.99 36.9404 128.244 38.3114 127.713 39.6789 127.551 41.0359 123.269 66.1327 120.542 91.5495 120.446 117.025 120.376 118.2 120.208 119.515 119.304 120.365 118.348 121.231 116.759 120.83 116.045 119.846 115.019 118.58 115.036 116.861 115.061 115.317 115.247 100.996 116.221 86.6911 117.631 72.4395 118.53 63.7141 119.634 54.9957 121.269 46.3724 113.321 62.097 105.383 77.8251 97.4238 93.5427 95.6801 96.7945 93.8697 100.187 90.9413 102.538 88.9094 104.209 85.8263 104.458 83.5729 103.091 82.0085 102.121 81.3722 100.212 81.3301 98.4538 80.6727 80.2754 80.0434 62.1005 79.393 43.9256 79.3298 42.9096 79.2946 41.869 78.929 40.9094 78.7321 40.4664 78.3912 39.8161 77.8251 40.2063 76.5701 42.1046 76.2537 44.4424 75.6702 46.6044 70.6079 69.7361 65.6054 92.8818 60.5572 116.013 60.2866 117.827 57.9347 119.002 56.3668 118.011 55.3157 117.258 55.3051 115.785 55.5371 114.639 60.1741 93.1806 64.8285 71.7223 69.4724 50.2675 70.193 46.963 70.8786 43.6268 72.1265 40.4735 72.77 38.916 73.5609 37.3341 74.8897 36.2408 76.4225 34.9717 78.6688 34.8557 80.4687 35.5834 82.0859 36.2303 83.1335 37.7841 83.6643 39.3872 84.5291 41.9816 84.392 44.7518 84.5291 47.4445 85.1689 64.6562 85.6892 81.8714 86.4029 99.076 87.7281 99.083 88.5789 97.9828 89.3347 97.0511 90.8956 95.0192 92.1189 92.7518 93.2896 90.4772 102.462 72.3375 111.622 54.1908 120.798 36.0545Z" transform="matrix(1.00232 0 0 1 -51.0459 -16.9449)"/><path d="M388.092 36.1881C393.432 35.4253 398.934 35.1335 404.242 36.2619 408.303 37.1232 412.243 39.1973 414.708 42.6178 417.861 46.9349 418.669 52.4541 418.733 57.6746 418.757 69.8978 415.256 81.998 409.435 92.6955 406.155 98.6296 402.087 104.184 397.064 108.761 391.27 114.08 383.81 118.053 375.805 118.179 369.496 118.355 363.351 115.789 358.555 111.781 358.119 113.63 357.701 115.57 356.551 117.124 355.795 118.203 354.038 118.615 353.054 117.634 352.255 116.709 352.224 115.353 352.554 114.231 353.135 112.009 353.7 109.78 354.263 107.556 352.499 105.548 350.952 103.354 349.682 101.003 348.979 99.786 349.116 98.039 350.27 97.1461 351.317 96.2707 353.299 96.5625 353.746 97.9546 354.281 99.3292 354.931 100.655 355.74 101.892 357.058 96.8894 358.344 91.8799 359.652 86.8775 361.072 81.4707 362.362 76.0147 364.289 70.7591 365.78 66.7971 367.445 62.7333 370.402 59.6151 372.177 57.7273 374.969 56.4301 377.552 57.323 379.149 57.8221 380.502 59.8189 379.557 61.4045 378.541 62.8422 376.522 62.1603 375.194 63.0392 373.302 64.1746 372.087 66.1116 371.038 67.9959 368.848 72.1477 367.502 76.6791 366.306 81.2035 364.158 89.7144 362.028 98.2324 359.887 106.747 363.473 109.907 367.864 112.273 372.62 113.019 377.591 113.77 382.696 112.449 387.034 110.009 392.142 107.127 396.357 102.879 399.823 98.1937 404.396 91.9819 407.789 84.9474 410.127 77.6107 412.324 70.5973 413.611 63.2289 413.28 55.864 413.056 51.9971 412.265 47.891 409.638 44.8924 407.314 42.2136 403.76 41.0324 400.33 40.6632 395.383 40.1605 390.381 40.7195 385.536 41.753 378.977 43.2014 372.624 45.6411 366.834 49.0582 362.812 51.4522 359.03 54.3383 356.007 57.9347 353.887 60.4763 352.139 63.4048 351.366 66.646 351.074 67.7956 350.729 69.1385 349.581 69.7221 348.48 70.302 347.077 69.6693 346.571 68.5901 345.942 67.4088 346.395 66.0554 346.746 64.8636 348.677 58.6202 353.043 53.4349 358.003 49.3183 366.588 42.305 377.174 37.8966 388.092 36.1881Z" transform="matrix(1.00232 0 0 1 -51.0459 -16.9449)"/><path d="M158.934 59.7663C159.524 58.476 160.868 57.6956 162.274 58.1738 162.832 58.8768 163.623 59.608 163.402 60.6065 162.389 71.6625 161.753 82.7573 161.897 93.8626 163.837 93.7431 165.768 93.5111 167.712 93.4408 168.643 93.3634 169.814 93.8591 169.867 94.9243 170.007 95.8207 169.256 96.6258 168.383 96.689 166.26 96.9457 164.116 97.0195 161.986 97.2234 162.175 101.217 162.249 105.27 163.24 109.165 163.462 110.216 164.162 111.043 164.695 111.946 165.321 113.078 164.105 114.79 162.822 114.277 161.149 113.381 160.375 111.489 159.844 109.77 158.727 105.77 158.547 101.586 158.34 97.4624 152.785 97.8703 147.231 98.2815 141.677 98.6999 139.261 103.112 136.892 107.549 134.462 111.953 134.009 112.91 132.554 113.381 131.766 112.565 131.018 111.651 131.429 110.375 131.931 109.446 133.823 105.966 135.732 102.494 137.623 99.0092 135.921 99.062 134.223 99.3538 132.522 99.2378 131.615 99.171 130.807 98.3449 130.982 97.4062 131.032 96.6187 131.773 96.0773 132.515 96.0176 134.828 95.7645 137.155 95.6695 139.476 95.4727 145.976 83.58 152.416 71.6484 158.934 59.7663M159.352 66.1678C154.1 75.846 148.848 85.5275 143.603 95.209 148.497 94.8434 153.39 94.4778 158.284 94.1052 158.135 84.7822 158.434 75.4487 159.352 66.1678Z" transform="matrix(1.00232 0 0 1 -51.0459 -16.9449)"/><path d="M174.778 61.7103C186.463 59.4955 198.349 58.346 210.235 58.0436 214.056 57.8152 218.035 58.8593 220.957 61.4115 222.416 62.7016 223.804 64.4031 223.868 66.4386 223.924 67.7534 222.078 68.1506 221.252 67.3561 220.054 66.1996 219.357 64.6105 218.074 63.5207 216.341 61.9247 213.918 61.3764 211.62 61.3939 206.533 61.4149 201.453 61.756 196.381 62.1462 192.91 78.2224 189.434 94.2985 185.95 110.375 185.707 111.601 184.99 113.173 183.51 113.102 182.319 113.102 181.981 111.658 182.213 110.716 185.679 94.629 189.16 78.5422 192.636 62.4591 186.354 63.011 180.122 64.0587 173.99 65.5316 172.661 66.0343 171.291 64.6 171.804 63.2958 172.166 61.9916 173.698 61.9704 174.778 61.7103Z" transform="matrix(1.00232 0 0 1 -51.0459 -16.9449)"/><path d="M239.564 57.9311C240.732 58.0929 241.887 59.151 241.762 60.3779 240.222 64.3012 239.301 68.4283 238.386 72.5344 237.307 77.5439 236.362 82.5851 235.363 87.6156 237.012 87.6192 238.752 87.0532 240.345 87.6508 241.596 88.2098 241.361 90.3085 240.004 90.5616 238.249 90.885 236.449 90.864 234.677 91.0573 233.352 98.1234 231.918 105.172 230.663 112.252 230.565 113.074 229.583 113.243 228.926 113.035 227.77 112.804 226.992 111.539 227.306 110.4 228.508 104.029 229.763 97.6663 230.979 91.2964 224.061 91.7991 217.143 92.3123 210.228 92.8221 209.197 97.5469 208.181 102.275 207.162 107.003 206.934 107.925 206.677 108.941 205.901 109.559 205.292 110.037 204.262 110.149 203.721 109.517 203.214 108.87 203.26 107.994 203.428 107.238 204.445 102.535 205.447 97.8281 206.452 93.1244 205.327 93.142 204.104 93.4514 203.049 92.9275 201.925 92.3721 202.047 90.4878 203.25 90.1046 204.539 89.7425 205.904 89.8199 207.226 89.6758 209.018 81.3969 210.822 73.1179 212.615 64.839 212.809 64.0832 212.973 63.2465 213.563 62.684 214.699 61.6646 216.833 63.0637 216.373 64.5086 214.556 72.8156 212.745 81.1261 210.938 89.4367 217.843 88.9304 224.75 88.4242 231.655 87.9145 233.204 80.1172 234.485 72.2461 236.797 64.6281 237.514 62.3185 238.267 59.9877 239.564 57.9311Z" transform="matrix(1.00232 0 0 1 -51.0459 -16.9449)"/><path d="M251.151 61.7489C258.667 59.7311 266.433 58.803 274.184 58.2476 278.449 58.0718 282.945 57.5374 286.991 59.2495 289.779 60.3709 292.099 62.8177 292.578 65.8515 297.679 63.2817 303.162 61.5557 308.692 60.181 313.065 59.1334 317.509 58.2335 322.013 58.0436 324.03 57.903 326.238 58.6097 327.412 60.3393 328.375 61.6541 328.364 63.7106 327.105 64.832 326.547 65.3629 325.535 65.5035 324.986 64.8883 324.146 63.9953 324.828 62.4837 323.959 61.6399 322.543 61.1337 320.985 61.5029 319.526 61.5802 312.654 62.4099 305.933 64.2871 299.482 66.7726 295.217 68.5338 290.844 70.4883 287.558 73.8175 286.348 75.1253 285.054 77.1045 285.986 78.8974 287.167 80.7676 289.157 81.9031 290.963 83.0807 295.421 85.8474 300.279 88.0832 304.157 91.683 306.21 93.5743 307.89 96.2637 307.458 99.1675 306.927 103.33 303.831 106.631 300.48 108.884 296.458 111.542 291.663 113.148 286.823 113.092 284.073 113.019 281.943 110.209 282.227 107.556 282.361 106.669 283.557 105.906 284.326 106.484 284.96 107.337 285.057 108.508 285.838 109.267 286.464 109.921 287.445 109.739 288.257 109.711 293.355 109.26 298.399 107.035 301.876 103.231 303.317 101.579 304.579 99.3151 303.935 97.0652 303.186 94.9946 301.348 93.599 299.654 92.3194 295.688 89.5211 291.269 87.4399 287.269 84.6943 285.507 83.4498 283.725 82.0753 282.653 80.1629 281.532 78.2013 281.996 75.7439 283.012 73.8386 284.548 71.0297 287.157 68.9943 289.853 67.3597 288.812 65.9288 288.165 64.1641 286.699 63.0848 284.854 61.6751 282.432 61.3904 280.178 61.3904 274.226 61.429 268.286 61.9212 262.397 62.7719 258.123 63.4117 253.851 64.1957 249.742 65.5597 248.336 66.0589 246.891 66.5616 245.695 67.4791 244.879 68.0592 245.153 69.3704 244.247 69.8767 243.392 70.4919 241.962 70.2704 241.575 69.2157 241.059 67.7253 242.025 66.203 243.164 65.296 245.473 63.461 248.357 62.5716 251.151 61.7489Z" transform="matrix(1.00232 0 0 1 -51.0459 -16.9449)"/><path d="M429.55 59.4147C436.311 58.3988 443.162 58.1491 449.989 58.0332 451.398 58.0683 452.935 57.9698 454.196 58.7151 454.871 59.0878 454.991 60.1424 454.323 60.5888 453.276 61.3446 451.912 61.3342 450.681 61.3868 447.763 61.3939 444.842 61.4396 441.928 61.5732 438.504 77.224 435.178 92.8959 431.708 108.536 434.52 108.494 437.337 108.476 440.153 108.505 441.235 108.568 442.434 108.586 443.358 109.246 444.012 109.658 443.973 110.709 443.316 111.103 442.388 111.725 441.221 111.777 440.145 111.834 433.097 111.911 426.045 112.203 419.028 112.892 418.339 112.977 417.502 112.551 417.523 111.777 417.724 110.582 418.867 109.861 419.964 109.594 422.599 108.905 425.346 108.828 428.052 108.649 431.413 93.0471 434.809 77.4524 438.176 61.8544 434.816 62.1181 431.473 62.554 428.151 63.0989 427.227 63.2993 425.69 63.1024 425.775 61.8579 426.052 60.1142 428.077 59.6537 429.55 59.4147Z" transform="matrix(1.00232 0 0 1 -51.0459 -16.9449)"/><path d="M464.328 61.8122C469.063 58.585 475.11 57.2597 480.735 58.4866 483.185 59.0244 485.586 60.3569 486.873 62.5786 488.296 65.0605 488.483 68.14 487.72 70.861 486.652 74.4363 484.159 77.579 480.911 79.4106 479.996 79.9133 478.896 80.4477 477.852 80.0398 476.819 79.5653 477.103 78.0853 477.93 77.5474 479.343 76.4963 480.876 75.5612 482.015 74.1796 484.212 71.7645 485.171 68.1611 484.053 65.0395 483.435 63.3098 481.779 62.1884 480.049 61.7841 477.353 61.1618 474.505 61.299 471.845 62.0232 466.968 63.359 462.876 66.7163 459.867 70.6993 455.438 76.5912 453.033 83.84 452.344 91.1346 452.034 94.7415 451.957 98.4714 453.093 101.955 453.894 104.483 455.427 106.869 457.723 108.276 460.777 110.163 464.739 110.149 467.97 108.701 474.189 105.928 478.626 100.345 481.958 94.5797 482.704 93.4618 482.886 91.5318 481.487 90.8463 479.473 89.8867 477.131 90.3226 475.04 90.7656 473.025 91.1803 471.201 92.1541 469.282 92.8291 467.503 93.1279 467.383 90.4316 468.572 89.6687 470.691 88.2485 473.258 87.6895 475.729 87.2079 478.58 86.7508 481.817 86.6595 484.285 88.3926 486.001 89.6159 486.433 91.9257 486.057 93.8907 484.799 100.109 482.292 106.1 481.976 112.495 481.948 113.205 481.322 113.872 480.581 113.732 479.456 113.669 478.661 112.547 478.797 111.472 478.938 108.061 479.891 104.757 480.692 101.459 477.472 105.91 473.444 110.087 468.238 112.122 462.799 114.294 455.916 112.85 452.278 108.125 449.489 104.613 448.533 100.007 448.502 95.6133 448.484 88.498 450.192 81.3969 453.325 75.0128 455.892 69.845 459.498 65.0535 464.328 61.8122Z" transform="matrix(1.00232 0 0 1 -51.0459 -16.9449)"/><path d="M501.919 59.369C508.465 58.4163 515.087 58.1597 521.693 58.0367 523.233 58.0683 524.917 57.9136 526.306 58.7187 526.988 59.0983 527.075 60.1741 526.4 60.61 525.346 61.3446 523.986 61.3377 522.755 61.3868 519.844 61.3939 516.933 61.4396 514.026 61.5767 510.609 77.2275 507.284 92.8959 503.811 108.536 506.724 108.497 509.642 108.462 512.556 108.515 513.699 108.614 515.151 108.635 515.854 109.704 516.311 111.366 514.093 111.735 512.911 111.799 505.754 111.939 498.59 112.132 491.468 112.874 490.705 113.022 489.64 112.723 489.626 111.795 489.808 110.596 490.958 109.872 492.051 109.598 494.692 108.905 497.444 108.828 500.155 108.653 503.518 93.0471 506.911 77.4524 510.279 61.8509 506.788 62.1075 503.325 62.6313 499.862 63.1376 498.913 63.359 497.56 62.7333 497.922 61.5873 498.47 59.935 500.429 59.6221 501.919 59.369Z" transform="matrix(1.00232 0 0 1 -51.0459 -16.9449)"/><path d="M528.633 61.7947C538.976 59.7592 549.498 58.7222 560.019 58.1773 563.689 58.1105 567.517 57.5937 571.033 58.9541 573.782 60.0017 576.404 61.8614 577.705 64.5718 578.036 65.4191 578.451 66.5405 577.804 67.342 577.069 68.003 575.814 67.8553 575.231 67.0714 573.95 65.5351 572.977 63.6544 571.174 62.6524 568.459 61.0108 565.165 61.4149 562.146 61.4642 558.31 61.5942 554.479 61.8439 550.653 62.1426 547.17 78.2787 543.687 94.4146 540.181 110.543 539.942 111.795 539.059 113.328 537.573 113.085 536.353 112.85 536.282 111.299 536.56 110.336 540.02 94.3794 543.454 78.4157 546.91 62.4591 540.532 63.004 534.216 64.1149 527.99 65.5808 526.654 65.9078 525.561 64.3434 526.126 63.1586 526.481 62.1075 527.705 62.002 528.633 61.7947Z" transform="matrix(1.00232 0 0 1 -51.0459 -16.9449)"/><path d="M585.671 58.3811C586.24 57.903 587.014 58.121 587.699 58.1245 588.266 58.7819 589.151 59.4287 588.979 60.4166 587.987 71.5359 587.313 82.694 587.468 93.8626 589.215 93.7396 590.958 93.5779 592.71 93.4548 593.556 93.3951 594.614 93.4127 595.174 94.179 595.831 95.086 595.25 96.5414 594.109 96.6574 591.936 96.9633 589.735 97.0055 587.556 97.2199 587.756 101.249 587.816 105.344 588.842 109.267 589.07 110.354 589.875 111.163 590.354 112.132 590.807 113.324 589.433 114.913 588.223 114.189 586.385 113.032 585.678 110.815 585.161 108.828 584.283 105.105 584.092 101.266 583.907 97.4589 578.352 97.8738 572.801 98.2815 567.247 98.6964 564.845 103.087 562.483 107.503 560.071 111.887 559.632 112.85 558.243 113.377 557.397 112.629 556.612 111.781 556.943 110.494 557.435 109.587 559.336 106.051 561.284 102.538 563.193 99.0057 561.429 99.0444 559.664 99.41 557.906 99.2026 556.819 99.069 556.183 97.7788 556.732 96.8367 557.14 96.0598 558.103 95.9895 558.884 95.9226 560.94 95.775 563 95.631 565.06 95.4657 571.381 83.8365 577.719 72.2145 584.036 60.5818 584.486 59.7908 584.919 58.9366 585.671 58.3811M569.173 95.209C574.067 94.8469 578.96 94.4743 583.857 94.1087 583.706 84.7857 584.008 75.4452 584.922 66.1644 579.673 75.846 574.418 85.524 569.173 95.209Z" transform="matrix(1.00232 0 0 1 -51.0459 -16.9449)"/><path d="M615.018 58.2405C616.196 57.5023 618.006 58.68 617.419 60.0756 613.345 74.7843 609.246 89.4859 605.168 104.195 604.82 105.696 604.742 107.418 605.551 108.793 606.391 110.08 608.142 110.045 609.488 109.815 616.435 108.399 623.357 106.866 630.3 105.456 631.323 105.14 632.546 106.019 632.31 107.134 632.135 108.248 630.964 108.729 629.984 108.898 623.304 110.287 616.639 111.728 609.963 113.106 607.805 113.556 605.372 113.226 603.673 111.732 601.43 109.812 600.819 106.511 601.607 103.755 605.544 89.4508 609.513 75.1569 613.453 60.856 613.746 59.8928 614.045 58.7397 615.018 58.2405Z" transform="matrix(1.00232 0 0 1 -51.0459 -16.9449)"/><path d="M255.074 69.0295C255.362 68.0487 255.851 66.8745 256.983 66.6601 258.038 66.319 259.31 67.342 258.962 68.4635 257.434 74.0847 255.83 79.6848 254.283 85.3025 260.696 84.6627 267.104 83.9983 273.516 83.3654 274.514 83.2213 275.914 83.5482 276.061 84.7365 276.273 85.7033 275.447 86.5645 274.511 86.6138 267.456 87.3556 260.393 88.0446 253.338 88.7757 252.005 93.5427 250.694 98.3167 249.348 103.08 248.799 104.845 248.479 106.859 249.309 108.589 250.065 110.048 251.953 110.076 253.363 109.815 260.309 108.399 267.238 106.866 274.188 105.456 275.106 105.193 276.238 105.843 276.209 106.862 276.231 107.97 275.151 108.66 274.17 108.824 267.502 110.237 260.832 111.64 254.161 113.046 251.988 113.542 249.523 113.335 247.744 111.887 245.365 110.009 244.679 106.602 245.48 103.78 246.813 98.9143 248.159 94.0525 249.516 89.1976 248.36 89.3031 246.546 89.0851 246.574 87.5453 246.63 85.5521 249.084 85.8685 250.466 85.7033 252.001 80.1453 253.534 74.5874 255.074 69.0295Z" transform="matrix(1.00232 0 0 1 -51.0459 -16.9449)"/></g></svg>