<?xml version="1.0" encoding="UTF-8" ?>
<!DOCTYPE svg PUBLIC "-//W3C//DTD SVG 1.1//EN" "http://www.w3.org/Graphics/SVG/1.1/DTD/svg11.dtd">
<svg width="802pt" height="430pt" viewBox="0 0 802 430" version="1.1" xmlns="http://www.w3.org/2000/svg">
<g id="#641713ff">
<path fill="#641713" opacity="1.00" d=" M 567.83 3.95 C 581.65 14.52 596.95 23.24 609.52 35.41 C 613.57 39.07 617.70 42.65 621.56 46.52 C 660.91 86.70 695.14 131.51 733.55 172.54 C 740.33 179.09 746.61 186.18 753.96 192.12 C 759.88 197.09 765.98 202.39 773.59 204.52 C 781.63 206.27 789.72 207.79 797.78 209.43 C 789.01 215.05 780.40 220.93 772.07 227.17 C 756.03 241.05 741.44 256.51 727.01 272.02 C 720.10 278.47 714.33 285.99 707.50 292.51 C 702.28 297.62 697.80 303.42 692.53 308.49 C 688.29 312.59 684.36 317.00 680.38 321.35 C 670.75 331.39 660.89 341.22 651.19 351.19 C 642.42 361.08 632.36 369.70 623.11 379.13 C 606.08 395.89 588.31 411.88 570.69 428.01 C 572.25 418.02 574.00 408.07 575.63 398.10 C 577.70 383.49 576.81 368.70 576.99 353.99 C 576.54 342.20 576.49 330.38 575.61 318.63 C 529.87 323.00 483.88 324.54 437.95 324.26 C 376.88 324.05 315.92 319.99 254.98 316.32 C 199.74 313.16 144.31 310.38 89.02 313.75 C 69.43 314.55 49.96 316.87 30.48 318.91 C 27.81 287.34 25.49 255.68 25.82 223.98 C 26.40 186.99 29.00 150.06 29.80 113.07 C 75.52 106.11 121.79 103.28 168.01 103.10 C 273.46 101.90 378.63 111.23 483.93 115.39 C 514.74 116.32 545.72 117.24 576.39 113.42 C 578.50 90.09 582.58 66.42 578.25 43.09 C 575.57 29.85 571.43 16.96 567.83 3.95 M 600.97 56.00 C 602.13 81.10 597.91 106.02 595.69 130.95 C 566.00 137.87 535.27 137.41 504.98 137.01 C 483.63 136.57 462.30 135.60 440.98 134.56 C 350.70 129.84 260.42 123.35 169.97 124.05 C 130.10 124.52 90.08 125.96 50.56 131.59 C 49.91 134.69 50.12 137.89 49.97 141.03 C 48.83 170.99 47.02 200.94 46.76 230.92 C 47.07 252.57 47.89 274.23 49.80 295.80 C 143.35 285.64 237.41 294.76 330.98 299.74 C 369.96 301.81 408.97 303.36 448.00 303.22 C 494.73 303.42 541.47 301.02 587.98 296.49 C 590.83 296.19 593.71 295.69 596.60 295.97 C 596.28 321.97 598.59 347.93 598.00 373.93 C 609.61 363.25 620.85 352.19 631.97 341.00 C 643.89 329.23 655.02 316.69 667.00 304.97 C 673.36 298.07 679.66 291.10 686.38 284.53 C 692.33 277.45 699.11 271.13 705.33 264.29 C 710.64 257.95 716.83 252.44 722.41 246.34 C 731.74 236.12 741.69 226.47 751.73 216.96 C 733.32 204.13 718.32 187.22 703.34 170.69 C 669.10 132.57 637.65 91.88 600.97 56.00 Z" />
<path fill="#641713" opacity="1.00" d=" M 302.39 149.32 C 304.70 147.70 307.75 148.47 309.73 150.24 C 312.22 152.47 314.52 155.02 316.12 157.98 C 317.03 160.61 314.46 162.75 312.06 162.96 C 307.16 164.12 302.07 161.63 299.21 157.67 C 297.17 154.65 299.60 150.84 302.39 149.32 Z" />
<path fill="#641713" opacity="1.00" d=" M 369.45 157.59 C 371.91 156.63 376.04 156.79 376.54 160.07 C 376.80 163.73 375.57 167.30 375.33 170.94 C 374.66 178.94 375.10 186.97 375.40 194.98 C 384.05 193.40 392.64 191.52 401.24 189.65 C 403.99 189.38 404.03 185.07 406.98 185.09 C 412.18 185.40 416.49 191.88 413.70 196.63 C 411.87 199.57 408.23 200.43 405.05 201.02 C 395.31 202.64 385.58 204.33 375.84 205.97 C 375.99 219.02 375.97 232.12 377.53 245.10 C 377.98 249.53 379.77 253.65 380.86 257.94 C 380.92 262.16 375.81 264.87 372.03 264.37 C 368.46 263.37 367.88 259.11 367.15 256.03 C 364.40 240.16 364.30 223.98 364.05 207.92 C 355.35 209.20 346.82 211.43 338.12 212.74 C 334.38 213.49 329.43 211.24 329.27 207.00 C 328.89 204.02 331.56 201.59 334.45 201.65 C 344.47 201.24 354.17 198.43 364.04 196.87 C 363.79 186.90 362.71 176.87 364.04 166.93 C 364.68 163.40 365.65 158.97 369.45 157.59 Z" />
<path fill="#641713" opacity="1.00" d=" M 307.34 179.43 C 310.52 178.39 314.68 179.84 315.75 183.22 C 316.86 186.69 316.84 190.40 316.96 194.01 C 316.97 209.04 316.35 224.10 317.60 239.10 C 318.16 246.13 319.85 253.02 320.38 260.04 C 321.24 265.20 312.81 268.18 310.48 263.44 C 308.50 259.42 308.39 254.82 307.86 250.45 C 305.96 229.00 305.34 207.45 304.57 185.93 C 304.46 183.56 304.62 180.28 307.34 179.43 Z" />
<path fill="#641713" opacity="1.00" d=" M 241.41 192.44 C 247.23 186.32 254.58 181.09 263.10 179.81 C 269.03 178.90 275.67 179.66 280.41 183.63 C 284.32 186.95 284.85 193.00 282.49 197.38 C 279.74 202.53 274.74 205.94 269.86 208.87 C 260.22 214.31 249.49 217.60 238.65 219.60 C 237.22 226.24 236.17 233.28 238.02 239.95 C 239.26 244.64 242.99 248.71 247.82 249.74 C 255.99 251.43 265.14 249.10 270.93 242.94 C 277.05 236.40 281.84 228.71 285.56 220.59 C 286.37 218.79 287.57 216.39 289.99 216.99 C 292.59 218.16 292.32 221.48 291.79 223.80 C 288.09 236.69 280.90 248.95 269.99 257.00 C 258.98 264.57 242.45 265.09 232.21 255.88 C 226.59 250.93 224.51 243.19 224.34 235.94 C 223.94 219.94 230.60 204.10 241.41 192.44 M 257.71 191.75 C 250.46 195.50 245.01 202.10 241.61 209.43 C 249.72 207.90 257.49 204.76 264.59 200.61 C 267.81 198.56 271.40 196.52 273.02 192.88 C 269.07 188.70 262.46 189.46 257.71 191.75 Z" />
<path fill="#641713" opacity="1.00" d=" M 445.00 184.98 C 451.91 180.30 460.79 178.08 468.96 180.36 C 472.40 181.40 475.89 183.31 477.56 186.65 C 479.56 190.63 478.78 195.58 476.23 199.14 C 472.88 203.88 467.86 207.09 462.86 209.86 C 453.67 214.67 443.64 217.75 433.46 219.58 C 432.00 226.10 431.10 232.98 432.70 239.55 C 433.83 244.20 437.31 248.36 442.03 249.59 C 450.39 251.59 459.90 249.20 465.82 242.83 C 471.95 236.26 476.73 228.53 480.46 220.37 C 481.22 218.61 482.56 216.27 484.89 217.07 C 487.44 218.28 487.13 221.68 486.54 223.96 C 482.96 236.35 476.16 248.05 465.97 256.13 C 458.44 261.98 448.26 263.87 439.01 261.99 C 431.06 260.34 423.74 254.76 421.08 246.94 C 417.94 237.80 418.84 227.75 421.39 218.58 C 425.39 205.28 433.35 192.80 445.00 184.98 M 453.27 191.39 C 445.61 195.00 439.93 201.89 436.38 209.44 C 444.35 207.92 452.00 204.88 459.01 200.83 C 462.35 198.77 465.94 196.64 467.82 193.04 C 464.29 188.79 457.87 189.46 453.27 191.39 Z" />
<path fill="#641713" opacity="1.00" d=" M 529.18 185.23 C 532.46 182.36 536.37 179.59 540.92 179.62 C 547.29 179.73 553.94 183.41 556.33 189.50 C 558.17 193.85 553.94 197.99 550.04 199.06 C 544.40 199.75 543.32 191.78 537.95 191.50 C 534.37 192.11 532.20 195.45 529.99 198.02 C 522.10 208.71 516.20 220.76 511.21 233.02 C 510.74 238.31 511.81 243.64 511.96 248.95 C 511.96 253.19 513.44 257.68 511.63 261.73 C 510.16 265.29 504.16 266.38 502.30 262.61 C 500.20 258.41 500.33 253.54 499.95 248.97 C 499.22 231.98 499.21 214.97 498.51 197.98 C 498.47 194.33 498.12 190.66 498.50 187.01 C 499.12 182.92 504.40 181.81 507.68 183.28 C 510.21 184.47 510.39 187.58 510.60 190.01 C 510.95 197.31 510.70 204.62 510.75 211.93 C 515.81 202.38 521.06 192.59 529.18 185.23 Z" />
<path fill="#641713" opacity="1.00" d=" M 106.14 185.16 C 108.47 182.83 111.48 180.31 115.03 181.02 C 118.73 181.91 120.81 185.54 122.36 188.72 C 130.64 206.43 133.65 225.91 138.39 244.72 C 145.17 227.00 152.85 209.62 161.93 192.95 C 164.19 189.05 165.87 184.28 170.04 181.98 C 174.24 179.56 180.43 183.19 180.17 188.03 C 178.87 190.63 176.43 192.63 175.82 195.58 C 174.76 200.67 175.49 205.90 176.12 211.00 C 177.56 221.40 179.60 231.80 183.46 241.61 C 184.55 244.12 185.74 246.87 188.18 248.37 C 190.75 247.34 191.56 244.14 192.85 241.88 C 198.52 228.69 201.67 214.34 201.97 199.98 C 202.15 196.12 197.54 193.88 197.92 189.98 C 198.90 186.46 202.82 182.62 206.69 184.47 C 210.51 186.86 212.22 191.68 212.38 196.01 C 212.48 208.35 210.51 220.69 206.63 232.40 C 203.51 241.89 199.55 251.35 193.10 259.09 C 191.14 261.38 188.26 263.81 185.02 262.80 C 180.72 261.60 178.20 257.50 176.23 253.79 C 169.78 240.77 167.17 226.29 165.08 212.03 C 157.47 226.31 150.70 241.09 145.53 256.45 C 144.02 260.38 143.13 264.55 141.33 268.36 C 139.46 270.78 135.66 270.24 133.30 268.85 C 129.70 266.40 129.50 261.73 128.67 257.86 C 125.34 240.87 122.23 223.74 116.48 207.36 C 114.99 203.18 113.34 199.02 111.01 195.22 C 109.12 196.40 107.35 198.22 104.98 198.26 C 102.56 197.98 100.01 195.57 100.83 192.97 C 101.76 189.90 104.01 187.46 106.14 185.16 Z" />
</g>
</svg>
