<?xml version="1.0" encoding="UTF-8" ?>
<!DOCTYPE svg PUBLIC "-//W3C//DTD SVG 1.1//EN" "http://www.w3.org/Graphics/SVG/1.1/DTD/svg11.dtd">
<svg width="788pt" height="426pt" viewBox="0 0 788 426" version="1.1" xmlns="http://www.w3.org/2000/svg">
<g id="#6287c5ff">
<path fill="#6287c5" opacity="1.00" d=" M 197.56 26.42 C 205.70 17.88 214.82 10.37 223.08 1.95 C 221.50 15.00 218.67 27.90 217.89 41.04 C 217.29 64.46 218.57 87.87 220.01 111.24 C 297.68 102.58 376.00 101.77 454.03 104.45 C 541.27 107.18 628.71 114.41 715.90 107.02 C 732.40 105.61 748.86 103.68 765.26 101.36 C 767.59 123.87 769.73 146.39 770.83 168.99 C 772.99 214.93 769.63 260.88 769.58 306.81 C 722.22 315.40 674.04 318.47 625.98 319.52 C 605.32 320.33 584.64 319.89 563.97 320.00 C 480.27 319.51 396.66 314.28 312.98 312.52 C 282.98 312.43 252.79 311.80 223.02 316.27 C 221.48 334.13 219.34 352.04 220.18 370.00 C 220.92 388.99 227.96 406.86 233.14 424.92 C 220.92 416.39 208.05 408.74 196.52 399.26 C 177.68 383.60 161.04 365.55 144.49 347.54 C 113.92 314.16 85.20 279.04 52.53 247.62 C 43.77 240.37 35.32 231.69 24.09 228.48 C 16.39 226.96 8.68 225.53 0.96 224.15 C 6.38 219.77 12.33 216.10 17.90 211.91 C 27.61 205.49 35.36 196.68 43.64 188.61 C 68.54 162.80 92.09 135.76 116.48 109.49 C 121.07 105.08 124.87 99.93 129.46 95.51 C 134.08 91.09 138.10 86.10 142.51 81.48 C 149.99 73.97 157.45 66.44 164.61 58.63 C 175.44 47.73 186.30 36.87 197.56 26.42 M 135.01 120.01 C 129.97 124.66 125.97 130.29 121.01 135.02 C 104.28 153.62 87.33 172.02 70.51 190.53 C 62.14 198.58 54.87 207.72 46.07 215.32 L 45.97 215.92 C 57.77 223.94 68.11 233.81 78.18 243.86 C 120.06 286.21 156.34 333.81 199.78 374.67 C 197.86 349.50 202.28 324.47 203.42 299.38 C 224.17 294.03 245.63 292.67 266.96 292.00 C 315.02 290.96 363.06 293.25 411.08 295.02 C 461.38 296.98 511.69 298.96 562.02 299.30 C 578.68 299.91 595.34 299.02 612.01 299.22 C 635.39 298.65 658.78 298.13 682.12 296.43 C 704.56 294.79 727.05 292.93 749.22 289.09 C 749.37 250.03 752.27 210.98 750.22 171.93 C 749.71 156.09 748.07 140.31 746.94 124.51 C 711.18 129.02 675.12 130.72 639.10 130.95 C 565.37 131.22 491.78 125.43 418.08 124.19 C 345.27 122.55 272.27 125.25 199.96 134.28 C 199.60 108.11 197.22 81.99 196.96 55.81 C 175.83 76.75 155.00 97.98 135.01 120.01 Z" />
<path fill="#6287c5" opacity="1.00" d=" M 619.77 144.79 C 622.39 143.61 627.07 143.87 627.28 147.56 C 627.97 170.97 628.80 194.39 630.02 217.79 C 640.91 207.97 652.16 198.29 665.05 191.16 C 671.54 187.74 678.99 184.57 686.45 186.31 C 689.04 187.07 692.63 188.71 692.20 191.99 C 691.67 195.85 688.62 199.38 684.92 200.52 C 681.53 201.58 679.37 196.78 676.09 198.31 C 668.71 200.83 662.35 205.56 655.93 209.86 C 646.98 216.36 638.03 223.02 630.38 231.05 C 638.66 235.10 647.22 238.55 655.67 242.21 C 662.61 245.09 669.53 248.12 676.79 250.11 C 680.97 251.29 685.38 250.70 689.61 251.53 C 691.89 252.00 691.75 254.93 690.64 256.46 C 688.47 259.59 684.59 261.01 680.93 261.39 C 675.53 262.16 670.12 260.73 665.11 258.82 C 653.88 254.44 643.28 248.65 632.39 243.52 C 632.94 250.03 633.94 256.52 634.10 263.06 C 634.22 268.14 624.74 271.67 623.13 265.87 C 620.82 257.24 620.74 248.19 619.48 239.38 C 617.35 237.70 614.69 235.97 614.35 233.02 C 614.09 230.55 616.14 228.78 617.59 227.09 C 617.02 203.40 615.33 179.75 614.89 156.06 C 615.09 152.04 615.44 146.59 619.77 144.79 Z" />
<path fill="#6287c5" opacity="1.00" d=" M 519.41 154.56 C 522.20 153.09 525.17 154.99 526.71 157.33 C 528.91 160.50 531.12 164.00 531.45 167.93 C 530.63 172.76 523.75 175.15 520.05 171.89 C 517.07 169.39 514.77 165.88 514.02 162.04 C 513.27 158.48 516.43 155.73 519.41 154.56 Z" />
<path fill="#6287c5" opacity="1.00" d=" M 487.41 155.60 C 491.91 153.85 495.79 157.73 497.84 161.31 C 499.59 164.36 501.62 168.28 499.96 171.74 C 496.88 174.35 491.74 173.91 488.92 171.07 C 486.11 168.37 484.08 164.82 483.15 161.04 C 482.59 158.38 485.11 156.30 487.41 155.60 Z" />
<path fill="#6287c5" opacity="1.00" d=" M 569.41 187.41 C 573.70 182.04 579.64 176.78 586.94 176.92 C 591.44 176.87 595.17 180.17 597.18 183.96 C 600.16 188.77 598.80 194.83 597.15 199.87 C 596.11 202.83 591.64 201.61 590.97 199.01 C 589.80 195.49 590.07 191.68 588.99 188.13 C 580.71 189.67 576.13 197.56 572.20 204.23 C 567.17 213.18 563.73 222.95 561.30 232.90 C 560.17 237.79 559.27 242.92 560.35 247.90 C 560.81 250.05 562.62 252.01 564.95 251.94 C 570.79 252.19 575.85 248.74 580.03 245.04 C 587.02 238.66 593.28 231.51 599.03 224.01 C 600.36 221.80 603.85 221.50 605.33 223.67 C 606.69 225.53 605.21 227.68 604.28 229.35 C 598.39 238.78 591.00 247.23 582.91 254.85 C 577.39 260.19 570.01 264.54 562.05 263.57 C 556.24 262.96 551.78 258.30 549.58 253.16 C 546.51 246.12 547.93 238.18 549.45 230.93 C 553.25 215.36 559.48 200.11 569.41 187.41 Z" />
<path fill="#6287c5" opacity="1.00" d=" M 370.18 184.95 C 370.54 183.12 371.82 180.89 374.01 181.27 C 377.39 181.74 381.48 184.10 381.50 187.93 C 381.82 203.97 382.05 220.03 383.11 236.05 C 383.56 241.47 384.03 247.18 387.00 251.90 C 388.18 254.33 390.96 256.19 390.93 259.06 C 391.03 264.49 383.71 267.99 379.67 264.31 C 376.03 260.76 374.73 255.59 373.39 250.86 C 370.58 237.65 371.74 224.01 370.84 210.61 C 363.74 225.02 355.65 239.04 345.71 251.69 C 342.13 256.06 338.38 260.66 333.18 263.16 C 329.54 264.90 324.69 263.98 322.26 260.66 C 320.23 257.91 319.73 254.41 319.26 251.11 C 317.48 235.34 319.65 219.40 323.59 204.11 C 325.35 197.56 327.50 190.97 331.27 185.28 C 333.45 181.73 339.69 181.45 342.00 184.92 C 342.40 186.96 341.21 188.77 340.34 190.51 C 333.77 202.62 330.05 216.24 329.65 230.02 C 329.48 236.90 328.65 244.02 330.87 250.68 C 335.56 249.25 338.54 245.10 341.54 241.50 C 350.75 229.54 358.15 216.26 364.51 202.60 C 367.24 197.01 368.80 190.98 370.18 184.95 Z" />
<path fill="#6287c5" opacity="1.00" d=" M 432.86 186.91 C 436.44 183.62 440.81 180.34 445.94 180.63 C 452.22 180.96 458.74 184.75 460.89 190.87 C 462.37 195.23 458.07 199.34 454.09 200.08 C 448.86 200.40 447.83 193.28 442.93 192.60 C 440.20 192.28 438.22 194.77 436.49 196.52 C 429.31 205.06 424.19 215.11 419.45 225.15 C 418.10 228.38 416.30 231.48 415.46 234.90 C 415.71 242.59 416.50 250.26 416.97 257.94 C 417.10 260.35 416.46 263.02 414.57 264.67 C 412.41 266.38 408.63 266.65 407.02 264.07 C 404.82 260.48 404.91 256.10 404.50 252.04 C 403.75 239.72 403.87 227.36 403.45 215.02 C 403.18 206.36 402.76 197.69 402.83 189.03 C 402.50 182.58 413.95 181.55 414.68 188.01 C 415.66 196.36 414.96 204.82 415.19 213.21 C 419.84 203.72 425.19 194.32 432.86 186.91 Z" />
<path fill="#6287c5" opacity="1.00" d=" M 521.16 185.91 C 521.59 183.92 522.47 181.08 525.01 181.25 C 528.87 181.60 533.31 184.60 532.81 188.94 C 532.97 203.98 533.38 219.03 534.22 234.05 C 534.71 240.53 535.02 247.49 538.95 252.98 C 540.26 255.18 542.88 257.18 542.03 260.05 C 541.50 264.36 536.32 267.00 532.44 265.30 C 530.26 264.27 528.92 262.12 527.87 260.06 C 524.42 252.89 523.15 244.88 522.94 236.99 C 522.50 228.31 522.54 219.62 522.14 210.94 C 513.76 226.77 505.07 242.68 493.16 256.18 C 489.87 259.64 486.10 263.48 481.11 264.01 C 476.84 264.44 472.89 261.35 471.80 257.31 C 469.69 250.08 469.87 242.44 469.98 234.98 C 470.33 225.14 472.09 215.39 474.39 205.84 C 476.22 198.75 478.40 191.59 482.43 185.41 C 484.50 181.86 489.97 181.64 492.86 184.22 C 494.12 186.41 492.46 188.67 491.53 190.63 C 484.46 203.58 480.89 218.29 480.77 233.02 C 480.90 238.93 479.68 245.39 482.55 250.83 C 487.81 248.27 491.31 243.43 494.77 238.91 C 503.03 227.61 509.86 215.31 515.75 202.62 C 518.28 197.31 519.96 191.66 521.16 185.91 Z" />
<path fill="#6287c5" opacity="1.00" d=" M 262.93 184.00 C 266.45 182.74 270.95 182.34 273.83 185.16 C 276.07 187.27 275.38 190.59 274.44 193.16 C 271.34 201.88 267.22 210.19 263.35 218.59 C 267.96 218.03 272.38 216.07 277.03 215.98 C 280.52 217.56 279.34 222.89 276.25 224.27 C 270.30 227.31 263.58 228.18 257.08 229.33 C 255.25 231.13 254.21 233.60 252.74 235.70 C 249.72 240.69 246.14 245.49 244.49 251.16 C 256.69 254.33 269.81 254.97 282.13 252.01 C 288.58 250.31 294.85 247.39 299.71 242.74 C 303.13 239.85 301.17 234.32 304.25 231.28 C 308.43 229.43 309.33 235.23 309.31 238.09 C 310.49 244.46 305.78 249.61 301.15 253.19 C 289.50 262.03 274.49 266.39 259.92 264.89 C 251.76 263.99 243.18 262.43 236.45 257.43 C 233.61 255.44 232.57 251.73 233.70 248.49 C 235.82 241.29 240.85 235.45 244.84 229.22 C 242.04 228.84 239.17 228.59 236.53 227.55 C 234.17 226.57 232.76 223.59 233.77 221.19 C 234.66 219.70 236.51 219.73 238.03 219.61 C 242.76 219.46 247.50 219.56 252.24 219.40 C 255.89 212.09 259.45 204.62 261.31 196.62 C 256.51 198.19 252.19 200.90 247.41 202.55 C 241.86 204.51 235.93 205.70 230.02 205.36 C 227.70 205.34 226.01 202.31 227.56 200.46 C 229.26 198.59 231.92 198.19 234.17 197.30 C 244.25 193.96 252.91 187.45 262.93 184.00 Z" />
</g>
</svg>
