<?xml version="1.0" encoding="UTF-8" standalone="no"?>
<svg
   width="2389.6555pt"
   height="98.393364pt"
   viewBox="0 0 2389.6555 98.393364"
   version="1.1"
   id="svg8"
   sodipodi:docname="Fortschrittsbalken_70.svg"
   inkscape:version="1.2.2 (b0a8486541, 2022-12-01)"
   xmlns:inkscape="http://www.inkscape.org/namespaces/inkscape"
   xmlns:sodipodi="http://sodipodi.sourceforge.net/DTD/sodipodi-0.dtd"
   xmlns="http://www.w3.org/2000/svg"
   xmlns:svg="http://www.w3.org/2000/svg">
  <defs
     id="defs12" />
  <sodipodi:namedview
     id="namedview10"
     pagecolor="#505050"
     bordercolor="#ffffff"
     borderopacity="1"
     inkscape:showpageshadow="0"
     inkscape:pageopacity="0"
     inkscape:pagecheckerboard="1"
     inkscape:deskcolor="#505050"
     inkscape:document-units="pt"
     showgrid="false"
     inkscape:zoom="0.37850644"
     inkscape:cx="1593.1037"
     inkscape:cy="66.049075"
     inkscape:window-width="1920"
     inkscape:window-height="1009"
     inkscape:window-x="-8"
     inkscape:window-y="-8"
     inkscape:window-maximized="1"
     inkscape:current-layer="svg8" />
  <g
     id="#56ae00ff"
     transform="translate(-2.3771286,-2.0044837)">
    <path
       fill="#56ae00"
       opacity="1"
       d="m 2.73,0.99 c 112.61,3.37 225.22,6.9 337.86,9.37 221.77,4.8 443.59,7.79 665.41,8.9 116.33,0.83 232.67,1.04 349,0.91 110.67,0.1 221.33,-0.58 331.99,-1.53 C 1798,17.82 1909,16.2 2019.99,13.91 2116.01,11.7 2212.05,9.47 2308,5 c 29.04,-1.09 58.04,-3.1 87.09,-4 -2.61,21.35 -4.4,42.94 -2.53,64.43 0.58,9.84 1.53,19.66 2.5,29.47 -91.96,4.12 -183.99,6.82 -276.04,7.76 -99.67,0.69 -199.35,0.26 -299.02,-0.88 C 1718.66,100.44 1617.33,98.3 1516,96.22 1404.67,94.07 1293.35,91.86 1182.03,89.73 1122.02,88.5 1062.02,87.56 1002.01,86.9 913.67,85.93 825.34,84.76 737,84.81 677.33,84.72 617.67,84.94 558,84.98 373.33,85.99 188.66,89.52 4.08,95.33 0.96,82.13 0.95,68.49 1.12,55.01 1.08,36.98 3.11,19.02 2.73,0.99 m 2285.33,17.57 c -12.36,0.06 -24.67,1.38 -37.04,1.23 -9.99,0.91 -20.02,0.89 -30.03,1.07 -12.61,1.38 -25.32,0.32 -37.92,1.57 -9.48,0.82 -19,-0.19 -28.46,0.73 -14.83,1.07 -29.74,-0.06 -44.54,1.36 -10.35,0.22 -20.69,0.12 -31.01,0.84 -15.69,0.46 -31.39,0.45 -47.08,0.4 -13.95,1.39 -27.99,0.87 -41.98,1.05 -18.32,1.16 -36.69,0.86 -55.02,0.97 -7.35,-0.25 -14.64,1.02 -21.97,0.97 -21.01,-0.12 -42.02,0.16 -63.02,0.01 -3.64,0.31 -7.26,0.83 -10.9,0.82 -18.36,0.31 -36.73,0.15 -55.1,0.21 -7.35,-0.19 -14.65,0.78 -21.99,0.72 -16,0.23 -32,0.31 -48,0.28 -12.49,0.08 -24.99,-0.39 -37.44,0.83 -0.03,7.91 0.91,15.97 -1.02,23.74 -2.21,10.54 -0.05,21.27 0.25,31.87 20.39,0.06 40.8,0.02 61.17,0.97 11,0.29 22.1,-0.54 33.03,0.96 29.31,0.27 58.67,-0.41 87.96,1.05 25.35,0.03 50.7,0.01 76.05,0.03 23.99,0.18 48.02,-0.34 71.99,0.97 13.67,-0.02 27.34,0 41.02,-0.01 8.28,-0.87 16.62,-0.63 24.94,-0.76 14.35,-0.12 28.7,-0.22 43.05,-0.21 10.65,-0.18 21.33,0.37 31.96,-0.46 16.01,-0.38 32.02,-0.57 48.04,-0.57 6.31,-0.18 12.67,0.45 18.96,-0.45 7.98,-0.59 16.01,-0.41 24.02,-0.55 10.19,0.35 20.3,-1.18 30.51,-0.93 10.39,0.29 20.72,-0.93 31.12,-1 8.08,0.18 16.1,-1.02 24.19,-0.96 10.44,0.19 20.82,-1.19 31.27,-1.05 8.75,-0.55 17.51,-1.08 26.29,-1.04 -2.36,-23.09 -3.16,-46.46 -0.43,-69.55 -30.92,2.27 -61.91,3.3 -92.87,4.89 z"
       id="path2" />
  </g>
  <g
     id="#ffffffff"
     transform="translate(-2.3771286,-2.0044837)">
    <path
       fill="#ffffff"
       opacity="1"
       d="m 2288.06,18.56 c 30.96,-1.59 61.95,-2.62 92.87,-4.89 -2.73,23.09 -1.93,46.46 0.43,69.55 -8.78,-0.04 -17.54,0.49 -26.29,1.04 -10.45,-0.14 -20.83,1.24 -31.27,1.05 -8.09,-0.06 -16.11,1.14 -24.19,0.96 -10.4,0.07 -20.73,1.29 -31.12,1 -10.21,-0.25 -20.32,1.28 -30.51,0.93 -8.01,0.14 -16.04,-0.04 -24.02,0.55 -6.29,0.9 -12.65,0.27 -18.96,0.45 -16.02,0 -32.03,0.19 -48.04,0.57 -10.63,0.83 -21.31,0.28 -31.96,0.46 -14.35,-0.01 -28.7,0.09 -43.05,0.21 -8.32,0.13 -16.66,-0.11 -24.94,0.76 -13.68,0.01 -27.35,-0.01 -41.02,0.01 -23.97,-1.31 -48,-0.79 -71.99,-0.97 -25.35,-0.02 -50.7,0 -76.05,-0.03 -29.29,-1.46 -58.65,-0.78 -87.96,-1.05 -10.93,-1.5 -22.03,-0.67 -33.03,-0.96 -20.37,-0.95 -40.78,-0.91 -61.17,-0.97 -0.3,-10.6 -2.46,-21.33 -0.25,-31.87 1.93,-7.77 0.99,-15.83 1.02,-23.74 12.45,-1.22 24.95,-0.75 37.44,-0.83 16,0.03 32,-0.05 48,-0.28 7.34,0.06 14.64,-0.91 21.99,-0.72 18.37,-0.06 36.74,0.1 55.1,-0.21 3.64,0.01 7.26,-0.51 10.9,-0.82 21,0.15 42.01,-0.13 63.02,-0.01 7.33,0.05 14.62,-1.22 21.97,-0.97 18.33,-0.11 36.7,0.19 55.02,-0.97 13.99,-0.18 28.03,0.34 41.98,-1.05 15.69,0.05 31.39,0.06 47.08,-0.4 10.32,-0.72 20.66,-0.62 31.01,-0.84 14.8,-1.42 29.71,-0.29 44.54,-1.36 9.46,-0.92 18.98,0.09 28.46,-0.73 12.6,-1.25 25.31,-0.19 37.92,-1.57 10.01,-0.18 20.04,-0.16 30.03,-1.07 12.37,0.15 24.68,-1.17 37.04,-1.23 z"
       id="path5" />
  </g>
  <path
     style="fill:#6aab29;fill-opacity:1;stroke-width:1.98756"
     d="m 1758.603,98.072806 c -16.944,-0.330387 -125.1667,-2.432548 -240.495,-4.671455 -115.3283,-2.238908 -249.936,-4.92153 -299.1281,-5.961383 -241.40245,-5.102902 -539.85019,-6.781785 -754.74955,-4.245757 -117.25632,1.383742 -242.7086,3.29715 -278.78285,4.25202 -36.07426,0.95487 -92.116379,2.376082 -124.538051,3.158242 L 1.960952,92.026593 0.4945493,80.290286 C -0.8205716,69.764753 0.7288018,2.1773137 2.3217262,0.5843896 2.6775901,0.2285257 63.703336,1.7085653 137.93449,3.8733663 848.289,24.589412 1877.7527,24.128668 2325.0582,2.8944984 2358.3996,1.3117413 2386.5733,0.0092195 2387.6664,5.1002014e-6 2388.9343,-0.0106879 2389.6546,16.520164 2389.6554,45.649617 v 45.666367 l -7.9517,0.97878 c -28.4428,3.50106 -156.3832,5.626949 -359.7501,5.977702 -127.8997,0.22059 -246.4081,0.13074 -263.352,-0.19966 z m 534.6543,-12.46292 c 32.2482,-1.199228 64.8939,-2.674785 72.546,-3.279015 l 13.9129,-1.0986 -0.6305,-35.126733 c -0.3468,-19.319703 -0.794,-35.204317 -0.9938,-35.299144 -0.1997,-0.09483 -11.0961,0.511751 -24.214,1.347951 -81.366,5.186675 -354.2394,12.363429 -567.725,14.931554 l -112.5733,1.354202 -1.4046,24.352456 c -1.829,31.710674 -1.523,32.584304 11.5315,32.922734 143.3253,3.715597 508.4989,3.652455 609.5508,-0.105398 z"
     id="path1165" />
  <path
     style="fill:#7ab634;stroke-width:2.64196;fill-opacity:1"
     d="m 2232.4587,127.5699 c -284.3279,-6.10881 -745.948,-14.56942 -923.366,-16.92354 C 964.93957,106.07988 464.16613,109.58051 114.01124,119.00051 54.658737,120.59723 5.3200786,121.12376 4.3697796,120.17057 1.9157621,117.70908 2.2151602,6.1448857 4.6823954,3.6810277 5.8046331,2.5603261 86.054259,3.6855709 183.0149,6.1815715 816.16054,22.480268 1305.3548,27.879864 1935.2379,25.522139 c 572.6443,-2.143473 856.2845,-7.239463 1176.3057,-21.1339669 58.5216,-2.540863 70.8757,-2.463413 71.9935,0.4513427 0.7422,1.9351932 1.3493,28.8181112 1.3493,59.7398172 v 56.221278 l -17.8333,1.83847 c -41.5929,4.2879 -256.1993,6.61764 -567.3615,6.15919 -183.0881,-0.26975 -348.3428,-0.82251 -367.2329,-1.22837 z m 791.2679,-11.05524 c 9.4451,-0.0487 42.1393,-1.45879 72.654,-3.13348 30.5147,-1.67468 57.859,-3.00895 60.7652,-2.96504 2.9061,0.0439 8.0323,-0.45073 11.3916,-1.09919 6.0369,-1.16541 6.0934,-1.52154 4.9048,-30.809834 -0.6613,-16.29694 -1.2613,-37.82589 -1.3334,-47.842108 l -0.1321,-18.211306 -19.3048,1.712326 c -24.2324,2.149399 -58.5998,3.727615 -121.0204,5.557481 -26.882,0.788047 -58.3874,2.065916 -70.0121,2.839708 -11.6246,0.773793 -39.5633,1.784636 -62.0861,2.246319 -22.5227,0.461683 -63.5392,1.353195 -91.1477,1.981134 -27.6085,0.627942 -87.0527,1.973451 -132.0982,2.990023 -45.0454,1.016574 -162.1504,3.188289 -260.2333,4.826037 -98.0829,1.637745 -179.7235,3.041549 -181.4236,3.119563 -4.5962,0.210908 -6.4621,14.516042 -5.9637,45.719437 0.4151,25.98519 0.8372,28.03882 6.1804,30.07033 3.1543,1.19922 37.7064,2.32396 76.7826,2.49942 39.0761,0.17545 71.6916,0.96302 72.4787,1.75015 1.1024,1.10243 294.7771,0.52804 639.5971,-1.25097 z"
     id="path1532"
     transform="scale(0.75)" />
  <path
     style="fill:#7ab634;fill-opacity:1;stroke-width:2.64196"
     d="m 1949.7687,121.56575 c -359.7296,-7.48931 -377.0859,-7.83167 -503.294,-9.92779 -183.4893,-3.04748 -957.53226,-1.95455 -1114.90835,1.57421 -76.28668,1.71054 -181.20563,3.87926 -233.153229,4.81937 L 3.9629445,119.74083 V 62.512376 5.283926 L 62.746621,5.3095 c 32.331022,0.014082 102.772359,1.1636732 156.536309,2.5546706 53.76394,1.3909973 154.22459,3.7350764 223.24587,5.2090644 69.02128,1.473987 151.64867,3.311956 183.61643,4.084375 459.99347,11.114559 1773.95177,11.093363 2143.95297,-0.03458 166.6104,-5.01088 304.3026,-9.8474617 375.1587,-13.1778331 17.4198,-0.8187604 32.0069,-0.3564264 34.1897,1.083627 3.1088,2.0509699 3.8356,12.8446751 3.9629,58.8460751 l 0.1559,56.334421 -19.8147,2.08731 c -10.8981,1.14802 -237.9748,2.50517 -504.615,3.01588 -400.3859,0.76688 -523.9021,0.11448 -709.367,-3.74676 z m 1085.8468,-5.53213 c 50.8578,-1.54066 102.5742,-3.60916 114.9254,-4.59667 l 22.4566,-1.79549 0.3932,-46.510983 c 0.2166,-25.581044 -0.3781,-47.674117 -1.321,-49.095718 -1.0737,-1.619258 -10.5959,-1.829812 -25.4918,-0.563689 -71.7737,6.100579 -306.1913,12.527708 -766.0791,21.00391 -110.2635,2.03227 -148.3762,3.537877 -149.8909,5.921308 -3.5829,5.637669 -2.5248,69.987232 1.1903,72.391712 1.8164,1.17556 32.4301,2.78166 68.0306,3.56911 122.2916,2.70496 643.3787,2.47586 735.7867,-0.32349 z"
     id="path1603"
     transform="scale(0.75)" />
  <path
     style="fill:#7ab634;fill-opacity:1;stroke-width:2.64196"
     d="M 2076.5829,124.15189 C 2022.819,123.0764 1941.3804,121.411 1895.6084,120.451 1387.8349,109.8012 1158.1149,107.52598 788.62595,109.48711 c -182.36149,0.96792 -386.84943,2.86862 -454.41763,4.22378 -67.56821,1.35516 -169.51495,3.26772 -226.54833,4.25013 L 3.9629445,119.74722 V 62.515576 5.283926 l 58.7836765,0.002 c 50.199129,0.00171 226.968739,3.6340452 443.189289,9.106834 31.24121,0.79075 130.51297,2.606975 220.60391,4.036054 90.09094,1.429078 195.90156,3.213339 235.13471,3.965024 180.06257,3.449895 994.28617,4.501877 1297.20377,1.675995 404.4867,-3.773406 552.913,-6.979746 814.6707,-17.5987052 54.2842,-2.2021977 100.7856,-3.3415852 103.3365,-2.5319723 6.2136,1.9720856 7.9491,17.8794865 7.9779,73.1214605 l 0.026,44.036084 -19.1542,1.58988 c -29.1467,2.4193 -977.666,3.6954 -1089.1493,1.46531 z m 1030.3656,-10.45275 c 30.5146,-1.53593 58.1562,-3.39711 61.4256,-4.13596 5.7333,-1.29568 5.9436,-2.39663 5.9257,-31.015116 0,-16.319461 -0.7916,-37.854112 -1.7358,-47.854779 l -1.7168,-18.183031 -27.9865,1.670415 c -103.3423,6.168163 -321.2662,12.373833 -619.7861,17.649244 -251.2411,4.439903 -289.0264,5.793563 -292.1552,10.466469 -3.1185,4.657493 -2.1454,67.185498 1.096,70.428968 1.2093,1.21002 33.9036,2.94762 72.654,3.86133 107.9656,2.54576 739.492,0.27279 802.2791,-2.88754 z"
     id="path1605"
     transform="scale(0.75)" />
  <path
     style="fill:#7ab634;fill-opacity:1;stroke-width:2.64196"
     d="m 2162.4443,126.07583 c -0.7252,-0.64563 -55.4128,-1.94755 -121.5279,-2.89316 -66.1151,-0.94561 -172.5202,-2.82613 -236.4557,-4.17894 -226.6827,-4.79638 -302.9844,-6.14199 -458.3806,-8.0837 -161.0257,-2.01205 -832.05482,-1.0455 -912.79817,1.31479 -24.70235,0.7221 -91.27982,2.08334 -147.94993,3.02497 -56.6701,0.94163 -141.08082,2.44998 -187.57937,3.35188 -46.498548,0.9019 -86.623361,1.19445 -89.1662503,0.65011 C 4.3581084,118.35665 3.9629445,113.44353 3.9629445,61.777995 V 5.283926 H 70.994343 c 36.867267,0 139.408457,1.7561978 227.869317,3.902662 222.86736,5.40778 399.61429,8.915025 533.35468,10.583525 62.48242,0.779509 138.57096,1.984215 169.08566,2.677124 30.5146,0.692909 238.5692,2.00515 462.3435,2.91609 507.3207,2.0652 1149.41,-2.973191 1375.1417,-10.790559 22.5228,-0.77999 78.9947,-2.697966 125.4933,-4.262168 46.4985,-1.5642022 103.5649,-3.7189222 126.8142,-4.788267 23.2493,-1.0693448 52.9573,-1.8576664 66.0179,-1.7518259 l 23.7462,0.1924379 1.7001,7.925889 c 0.9353,4.359239 1.8409,30.701863 2.0129,58.539162 l 0.3126,50.613274 -15.1913,1.64747 c -17.2573,1.87154 -1005.2215,5.19377 -1007.2508,3.38709 z m 938.8831,-12.6924 c 36.5125,-1.63812 67.8723,-4.18744 69.6887,-5.66515 3.7251,-3.03062 4.2797,-27.816255 1.5463,-69.097986 l -1.7286,-26.107796 -25.3378,1.690947 c -48.6953,3.249754 -224.4841,9.372348 -346.3362,12.062638 -67.5682,1.491794 -144.8456,3.316138 -171.7276,4.054099 -26.882,0.737958 -97.6205,2.067806 -157.1968,2.955215 -147.4884,2.19689 -235.9246,4.941356 -238.3751,7.397554 -2.7024,2.708763 -2.6486,69.250369 0.058,71.953619 4.0171,4.01188 160.9227,5.52259 481.0404,4.63151 182.0082,-0.50663 350.8421,-2.19105 388.3685,-3.87465 z"
     id="path1607"
     transform="scale(0.75)" />
  <path
     style="fill:#7ab634;fill-opacity:1;stroke-width:2.64196"
     d="m 2042.2374,124.03051 c -58.1232,-1.18641 -200.7892,-4.11534 -317.0356,-6.50874 -524.8347,-10.80585 -989.71167,-10.51198 -1618.2023,1.02291 -51.584326,0.94675 -95.870231,1.27271 -98.4131203,0.72437 -4.2280443,-0.91173 -4.6234352,-5.8283 -4.6234352,-57.491055 V 5.283926 l 71.9934915,0.00122 c 39.596424,6.737e-4 144.515374,1.7552145 233.153234,3.8989794 221.819,5.3648386 399.22158,8.8770106 533.67652,10.5655946 62.48243,0.784701 143.92093,2.003736 180.97451,2.708968 266.1516,5.065605 1294.9207,3.292363 1585.1777,-2.7323 C 2739.8548,17.00905 2879.472,13.11943 2990.7021,9.0907719 3051.7314,6.880339 3119.428,4.8223095 3141.1389,4.5173736 l 39.4744,-0.5544291 1.8731,6.6049075 c 1.0304,3.632699 1.9918,29.960478 2.1366,58.506178 l 0.2642,51.90127 -11.2284,1.74849 c -16.9336,2.63694 -1010.0601,3.78393 -1131.4206,1.30672 z m 1043.5754,-10.56922 c 39.2331,-1.4264 74.6034,-3.26132 78.6007,-4.07759 10.016,-2.04526 10.8633,-7.48504 8.6208,-55.33645 -1.4291,-30.487905 -2.7736,-40.837435 -5.3059,-40.837435 -1.8652,0 -24.0318,1.153376 -49.2586,2.563058 -116.1317,6.48948 -280.3313,10.733112 -769.7647,19.894082 -42.1393,0.788742 -85.7599,2.120437 -96.9347,2.959321 l -20.3177,1.525242 -1.8368,14.701168 c -1.8951,15.168102 0.1884,55.656134 3.0092,58.478744 5.1583,5.16144 711.8355,5.269 853.1877,0.12985 z"
     id="path1609"
     transform="scale(0.75)" />
  <path
     style="fill:#7ab634;fill-opacity:1;stroke-width:2.64196"
     d="m 2103.0025,125.08808 c -18.89,-0.42743 -164.5282,-3.14907 -323.6404,-6.04809 -159.1123,-2.89902 -318.4226,-5.9118 -354.0231,-6.69507 -115.6549,-2.54461 -875.32923,-1.4843 -1041.60022,1.4538 -88.99764,1.57264 -208.77478,3.67674 -266.17143,4.67578 -57.396643,0.99904 -106.438081,1.36219 -108.9809703,0.807 C 4.3587235,118.35847 3.9629445,113.43601 3.9629445,61.777995 V 5.283926 l 71.9934915,0.00343 c 39.596424,0.00189 173.643014,2.3436452 297.881324,5.203896 218.68577,5.034647 437.1169,8.930148 667.09564,11.896986 204.3833,2.636644 874.0967,3.39124 1167.7477,1.315755 383.5365,-2.710786 578.9267,-6.820411 889.8749,-18.7166689 60.2399,-2.3046583 79.5242,-2.2837323 81.9009,0.088873 2.1328,2.1292172 3.3737,20.7955339 3.9537,59.4680929 l 0.8451,56.36479 -10.092,1.82482 c -9.7256,1.75858 -1002.1776,3.93774 -1072.1612,2.35418 z m 821.6505,-10.12969 c 172.9617,-1.2558 242.1227,-3.45547 246.4275,-7.83763 2.5345,-2.58013 0.9622,-89.317683 -1.6668,-91.946581 -1.1212,-1.121189 -22.1734,-0.862563 -46.7825,0.574725 -92.3329,5.39263 -286.2012,10.932402 -559.9271,15.99988 -218.0178,4.036155 -329.0381,7.113562 -331.1011,9.177888 -2.5827,2.584487 -2.1941,69.187478 0.419,71.801378 1.2082,1.20854 96.3169,2.52608 211.3527,2.92786 115.0359,0.40179 213.3172,1.00695 218.403,1.34481 5.0858,0.33785 25.2968,0.31434 44.9134,-0.0522 19.6166,-0.36658 117.6994,-1.26212 217.9619,-1.99008 z"
     id="path1611"
     transform="scale(0.75)" />
</svg>
