<svg width="605" height="26" xmlns="http://www.w3.org/2000/svg" xmlns:xlink="http://www.w3.org/1999/xlink" xml:space="preserve" overflow="hidden"><defs><clipPath id="clip0"><rect x="0" y="0" width="605" height="26"/></clipPath></defs><g clip-path="url(#clip0)"><path d="M0.698286 0.257524C15.2434 0.601714 29.7861 1.18362 44.3337 1.55752 90.6236 2.90457 136.931 3.62267 183.238 4.24419 195.951 4.32343 208.659 4.5661 221.371 4.58095 241.015 4.77905 260.659 4.80876 280.305 4.94743 295.491 5.03162 310.68 5.00933 325.867 5.00933 360.122 5.05886 394.375 4.836 428.629 4.53886 435.728 4.51657 442.827 4.30114 449.924 4.29867 476.34 3.94705 502.753 3.48152 529.162 2.73867 545.906 2.30286 562.647 1.73086 579.379 0.884 583.938 0.663619 588.494 0.356571 593.058 0.26 592.486 5.01676 592.023 9.8181 592.332 14.612 592.505 17.5785 592.738 20.5375 593.05 23.4916 583.257 23.9051 573.463 24.3608 563.665 24.6307 551.836 25.0194 540.003 25.2002 528.171 25.4008 501.758 25.579 475.344 25.5246 448.933 25.1779 422.188 24.8263 395.448 24.237 368.705 23.6872 341.633 23.1598 314.558 22.6324 287.486 22.1149 270.237 21.7385 252.985 21.5478 235.731 21.377 208.579 20.9882 181.423 20.9411 154.267 21.0006 140.895 20.961 127.524 21.1046 114.152 21.221 77.168 21.6246 40.1861 22.3526 3.21905 23.5436 2.48362 23.5535 1.75067 23.5832 1.01524 23.5832-0.0718095 19.0989 0.34419 14.4535 0.339238 9.88743 0.480381 6.68076 0.772571 3.47162 0.698286 0.257524M578.146 4.08571C576.425 4.29124 574.692 4.14267 572.976 4.34819 571.319 4.56857 569.648 4.36305 567.991 4.55371 565.866 4.84343 563.72 4.58343 561.595 4.86076 560.119 5.06876 558.634 4.87562 557.158 4.97219 555.578 5.0019 554.015 5.31638 552.438 5.19257 550.034 5.08857 547.657 5.56648 545.257 5.44762 543.123 5.40057 540.996 5.54667 538.869 5.59619 538.74 8.268 538.859 10.9448 538.819 13.619 538.762 15.4316 539.069 17.3432 538.306 19.0543 537.898 20.0002 537.977 21.0476 538.064 22.0455 540.52 22.0109 542.979 22.0901 545.435 21.9935 546.785 21.996 548.115 21.6865 549.469 21.7905 552.359 21.7657 555.261 21.897 558.138 21.5478 560.884 21.4909 563.638 21.6345 566.384 21.4661 569.071 21.1269 571.792 21.4512 574.479 21.0476 576.873 21.0823 579.273 21.0451 581.66 20.805 584.317 20.8842 586.951 20.4286 589.613 20.5425 589.056 14.8596 588.764 9.11733 589.559 3.4419 585.758 3.75638 581.949 3.8579 578.146 4.08571Z" fill="#7BB635" transform="scale(1.0193 1)"/><path d="M578.146 4.08571C581.949 3.8579 585.758 3.75638 589.559 3.4419 588.764 9.11733 589.056 14.8596 589.613 20.5425 586.951 20.4286 584.317 20.8842 581.66 20.805 579.273 21.0451 576.873 21.0823 574.479 21.0476 571.792 21.4512 569.071 21.1269 566.384 21.4661 563.638 21.6345 560.884 21.4909 558.138 21.5478 555.261 21.897 552.359 21.7657 549.469 21.7905 548.115 21.6865 546.785 21.996 545.435 21.9935 542.979 22.0901 540.52 22.0109 538.064 22.0455 537.977 21.0476 537.898 20.0002 538.306 19.0543 539.069 17.3432 538.762 15.4316 538.819 13.619 538.859 10.9448 538.74 8.268 538.869 5.59619 540.996 5.54667 543.123 5.40057 545.257 5.44762 547.657 5.56648 550.034 5.08857 552.438 5.19257 554.015 5.31638 555.578 5.0019 557.158 4.97219 558.634 4.87562 560.119 5.06876 561.595 4.86076 563.72 4.58343 565.866 4.84343 567.991 4.55371 569.648 4.36305 571.319 4.56857 572.976 4.34819 574.692 4.14267 576.425 4.29124 578.146 4.08571Z" fill="#FFFFFF" transform="scale(1.0193 1)"/></g></svg>