<svg width="605" height="26" xmlns="http://www.w3.org/2000/svg" xmlns:xlink="http://www.w3.org/1999/xlink" xml:space="preserve" overflow="hidden"><defs><clipPath id="clip0"><rect x="0" y="0" width="605" height="26"/></clipPath></defs><g clip-path="url(#clip0)"><path d="M0.676 0.262476C2.92686 0.319429 5.18019 0.302095 7.42857 0.425905 22.9072 0.980571 38.3909 1.404 53.8745 1.83981 66.7804 2.26819 79.6987 2.39943 92.607 2.78076 95.8261 2.82533 99.0476 2.85257 102.264 2.99867 107.298 3.09029 112.335 3.10019 117.369 3.26857 123.314 3.276 129.255 3.54343 135.198 3.55086 142.299 3.60781 149.396 3.82324 156.495 3.85295 163.84 4.06838 171.189 4.00895 178.536 4.15505 187.859 4.39276 197.189 4.264 206.514 4.49924 218.729 4.53143 230.944 4.66267 243.162 4.76667 252.653 4.81619 262.147 4.836 271.638 4.8979 285.505 5.0539 299.371 4.9821 313.238 5.00933 327.6 5.02419 341.962 5.0019 356.324 4.99695 369.861 5.02171 383.396 4.80876 396.933 4.79143 403.703 4.76914 410.473 4.74686 417.241 4.62552 424.833 4.51162 432.427 4.58095 440.019 4.38533 447.034 4.2739 454.052 4.35067 461.064 4.12533 466.43 4.0461 471.796 4.02381 477.159 3.87771 484.427 3.85543 491.69 3.5979 498.955 3.49638 526.143 2.88971 553.337 2.23848 580.501 0.85181 584.688 0.678476 588.865 0.287238 593.058 0.267429 592.473 4.69238 592.077 9.15943 592.27 13.6265 592.406 16.9198 592.674 20.2057 593.05 23.4792 576.7 24.2865 560.335 24.8387 543.967 25.1457 537.38 25.1829 530.796 25.428 524.21 25.4305 517.274 25.4255 510.343 25.5939 503.41 25.5543 496.887 25.5295 490.367 25.6112 483.85 25.4726 457.598 25.4156 431.35 24.9625 405.105 24.435 366.226 23.6699 327.352 22.7909 288.474 22.1074 282.202 21.9589 275.927 21.9712 269.657 21.7509 259.341 21.6914 249.026 21.4686 238.71 21.3943 226.906 21.164 215.099 21.2135 203.295 21.0427 190.337 20.9634 177.377 20.9758 164.419 20.9783 152.615 21.0229 140.811 20.9337 129.01 21.1021 111.84 21.1838 94.6722 21.4512 77.5023 21.6989 52.5745 22.1817 27.6442 22.6943 2.72876 23.561 2.16667 23.561 1.57981 23.7269 1.0301 23.5585 0.497714 21.533 0.264952 19.4331 0.287238 17.3383 0.294667 14.7952 0.245143 12.2497 0.33181 9.70667 0.505143 6.5619 0.827048 3.41467 0.676 0.262476M507.619 6.37867C503.984 6.32914 500.356 6.57924 496.724 6.61638 490.202 6.64362 483.684 6.92838 477.162 6.93086 471.053 7.10667 464.942 7.13886 458.831 7.18095 452.066 7.41619 445.296 7.36171 438.528 7.42114 429.29 7.748 420.046 7.52019 410.807 7.76781 396.775 7.92876 382.737 7.80495 368.705 8.00305 347.491 8.09219 326.28 8.11695 305.067 8.06248 302.623 8.1021 300.171 7.95352 297.735 8.14171 297.893 9.11981 297.955 10.088 297.69 11.0537 297.646 12.7103 297.39 14.347 297.192 15.9937 296.932 17.0535 297.22 18.1381 297.123 19.2078 310.628 19.4802 324.143 19.6758 337.653 19.9952 349.326 20.2676 361.001 20.4905 372.677 20.7059 395.7 21.2234 418.724 21.6592 441.75 22.0579 447.363 22.095 452.977 22.1347 458.588 22.308 469.154 22.3303 479.72 22.3823 490.283 22.4467 503.573 22.719 516.863 22.3328 530.152 22.3179 541.295 22.1396 552.441 21.9465 563.581 21.5998 566.473 21.5973 569.355 21.3175 572.248 21.3324 578.052 21.0526 583.861 20.8718 589.668 20.5945 589.145 14.8819 588.88 9.10991 589.625 3.40229 562.316 4.99448 534.966 5.71752 507.619 6.37867Z" fill="#77B332" transform="scale(1.0193 1)"/><path d="M507.619 6.37867C534.966 5.71752 562.316 4.99448 589.625 3.40229 588.88 9.10991 589.145 14.8819 589.668 20.5945 583.861 20.8718 578.052 21.0526 572.248 21.3324 569.355 21.3175 566.473 21.5973 563.581 21.5998 552.441 21.9465 541.295 22.1396 530.152 22.3179 516.863 22.3328 503.573 22.719 490.283 22.4467 479.72 22.3823 469.154 22.3303 458.588 22.308 452.977 22.1347 447.363 22.095 441.75 22.0579 418.724 21.6592 395.7 21.2234 372.677 20.7059 361.001 20.4905 349.326 20.2676 337.653 19.9952 324.143 19.6758 310.628 19.4802 297.123 19.2078 297.22 18.1381 296.932 17.0535 297.192 15.9937 297.39 14.347 297.646 12.7103 297.69 11.0537 297.955 10.088 297.893 9.11981 297.735 8.14171 300.171 7.95352 302.623 8.1021 305.067 8.06248 326.28 8.11695 347.491 8.09219 368.705 8.00305 382.737 7.80495 396.775 7.92876 410.807 7.76781 420.046 7.52019 429.29 7.748 438.528 7.42114 445.296 7.36171 452.066 7.41619 458.831 7.18095 464.942 7.13886 471.053 7.10667 477.162 6.93086 483.684 6.92838 490.202 6.64362 496.724 6.61638 500.356 6.57924 503.984 6.32914 507.619 6.37867Z" fill="#FFFFFF" transform="scale(1.0193 1)"/></g></svg>