<svg width="605" height="26" xmlns="http://www.w3.org/2000/svg" xmlns:xlink="http://www.w3.org/1999/xlink" xml:space="preserve" overflow="hidden"><defs><clipPath id="clip0"><rect x="0" y="0" width="605" height="26"/></clipPath></defs><g clip-path="url(#clip0)"><path d="M0.690857 0.267429C2.94419 0.299619 5.19752 0.304571 7.4459 0.425905 20.639 0.893905 33.8371 1.28019 47.0328 1.63924 64.7821 2.21619 82.5389 2.50095 100.291 2.92686 105.072 3.11257 109.861 3.04076 114.643 3.19676 118.04 3.29829 121.44 3.30324 124.84 3.35771 132.498 3.62019 140.165 3.52114 147.826 3.75886 154.759 3.78114 161.693 4.0139 168.629 4.03371 175.314 4.05105 181.998 4.2739 188.683 4.29371 194.465 4.36552 200.247 4.32838 206.029 4.48933 218.244 4.52648 230.462 4.65771 242.679 4.75924 251.925 4.80629 261.171 4.836 270.417 4.88552 283.779 5.04152 297.143 4.9821 310.507 5.00438 325.448 5.02171 340.392 4.99943 355.333 4.99448 369.118 5.02667 382.903 4.81371 396.688 4.78895 409.478 4.78895 422.265 4.51162 435.054 4.49181 441.824 4.31105 448.597 4.31105 455.366 4.25657 468.659 3.95695 481.956 3.89505 495.248 3.55581 524.799 2.94914 554.355 2.22857 583.876 0.678476 586.929 0.492762 589.985 0.269905 593.045 0.272381 592.52 4.53143 592.094 8.81524 592.258 13.1114 592.364 16.5756 592.679 20.0299 593.04 23.4743 576.786 24.2964 560.52 24.8263 544.252 25.1432 538.401 25.168 532.552 25.3884 526.701 25.4131 512.418 25.5072 498.133 25.6682 483.85 25.4775 443.733 25.3834 403.624 24.3707 363.515 23.6055 356.99 23.3678 350.46 23.348 343.935 23.197 330.817 22.885 317.693 22.6745 304.574 22.3996 289.635 22.147 274.699 21.8301 259.76 21.6543 250.343 21.4983 240.926 21.4537 231.514 21.273 217.484 21.2358 203.459 20.9733 189.431 20.9956 176.144 20.9634 162.859 20.9758 149.574 21.0006 143.708 21.0352 137.845 20.9486 131.981 21.0823 112.248 21.1813 92.5179 21.471 72.7876 21.7781 59.701 22.1223 46.6069 22.2411 33.5202 22.6695 25.8935 22.8082 18.2718 23.1004 10.6451 23.2861 7.45333 23.4792 4.25162 23.4 1.06476 23.6699 0.510095 21.6097 0.257524 19.4728 0.284762 17.3408 0.29219 14.7011 0.232762 12.059 0.341714 9.4219 0.537333 6.37371 0.797333 3.32305 0.690857 0.267429Z" fill="#72A933" transform="scale(1.0193 1)"/></g></svg>