<svg width="605" height="26" xmlns="http://www.w3.org/2000/svg" xmlns:xlink="http://www.w3.org/1999/xlink" xml:space="preserve" overflow="hidden"><defs><clipPath id="clip0"><rect x="0" y="0" width="605" height="26"/></clipPath></defs><g clip-path="url(#clip0)"><path d="M3.76133 3.3899C7.21562 3.32552 10.6674 3.67714 14.1242 3.66724 16.8455 3.82571 19.5718 3.88267 22.2981 3.92971 24.9253 4.108 27.56 4.1179 30.1947 4.17981 33.5796 4.40514 36.977 4.32838 40.3644 4.53143 45.7253 4.60819 51.0813 4.8781 56.4448 4.91524 60.4859 5.16781 64.5419 5.05143 68.5855 5.27676 74.9518 5.34362 81.3107 5.62838 87.6769 5.65314 91.6339 5.83886 95.5958 5.8661 99.5577 5.89581 103.755 6.08648 107.957 6.11124 112.159 6.1459 116.871 6.344 121.593 6.34648 126.31 6.4059 129.846 6.57924 133.392 6.53219 136.933 6.60895 141.48 6.62381 146.021 6.81448 150.57 6.82438 159.402 6.88629 168.23 7.14876 177.065 7.1339 183.741 7.33695 190.424 7.30971 197.102 7.38648 200.574 7.31962 204.036 7.54495 207.507 7.51771 212.791 7.55733 218.078 7.6019 223.362 7.6341 225.836 7.65638 228.315 7.56971 230.786 7.72324 241.431 7.78762 252.076 7.852 262.721 7.88171 266.025 7.90895 269.333 7.80991 272.634 7.97086 305.644 8.07733 338.654 8.1021 371.661 7.96838 377.607 7.78514 383.557 7.93867 389.507 7.8619 396.446 7.83219 403.381 7.78514 410.32 7.74552 420.378 7.51524 430.449 7.68362 440.504 7.384 447.435 7.36419 454.369 7.32457 461.294 7.13638 469.31 7.12648 477.32 6.87638 485.336 6.79714 487.983 6.80705 490.622 6.60895 493.27 6.63371 496.565 6.552 499.864 6.58914 503.154 6.39848 509.105 6.39105 515.045 6.12362 520.995 6.03943 543.885 5.41048 566.783 4.75924 589.645 3.37505 588.927 9.09505 589.145 14.8918 589.692 20.6192 584.901 20.795 580.115 21.0823 575.321 21.2061 572.319 21.4389 569.303 21.3497 566.302 21.5577 557.556 21.793 548.815 22.0703 540.07 22.1768 527.607 22.469 515.129 22.3996 502.669 22.5556 499.361 22.4987 496.05 22.6596 492.745 22.4863 481.938 22.4789 471.132 22.3798 460.329 22.3278 458.259 22.3922 456.196 22.1867 454.131 22.2164 436.629 22.0678 419.137 21.6568 401.638 21.3472 391.161 21.107 380.682 20.9387 370.205 20.6861 364.334 20.6291 358.471 20.3914 352.6 20.3493 342.947 20.0844 333.29 19.968 323.638 19.7204 316.613 19.6436 309.596 19.3886 302.573 19.3589 296.605 19.1063 290.63 19.2078 284.663 18.9874 275.949 18.9107 267.243 18.663 258.529 18.6135 248.974 18.3882 239.41 18.4105 229.857 18.2347 222.575 18.1802 215.292 18.0935 208.01 18.1208 204.211 17.9474 200.406 18.0291 196.605 17.9846 175.067 17.8979 153.531 17.9053 131.993 18.0168 130.505 17.9747 129.024 18.1455 127.536 18.1208 121.754 18.096 115.97 18.1703 110.186 18.2149 107.628 18.2594 105.067 18.1975 102.514 18.351 96.0737 18.3981 89.6307 18.4154 83.1951 18.616 77.6608 18.6086 72.129 18.7968 66.5996 18.8785 49.6006 19.193 32.6065 19.6139 15.6149 20.1215 11.5514 20.1859 7.4979 20.4509 3.43448 20.4434 3.41219 19.1509 3.20419 17.8731 3.1621 16.583 3.05314 12.1754 3.55581 7.78267 3.76133 3.3899Z" fill="#FFFFFF" transform="scale(1.0193 1)"/><path d="M0.688381 0.274857C3.59048 0.289714 6.49257 0.341714 9.38971 0.505143 22.355 0.916191 35.3154 1.38171 48.2832 1.68133 51.745 1.8819 55.2166 1.78533 58.6783 2.00324 68.5013 2.1741 78.3194 2.50838 88.145 2.64705 92.9265 2.88971 97.7204 2.74114 102.502 3.01352 105.889 3.0061 109.279 3.10762 112.667 3.13981 118.352 3.39486 124.05 3.22895 129.735 3.51124 134.202 3.50381 138.669 3.61524 143.136 3.65486 149.314 3.88267 155.505 3.73905 161.683 3.98171 168.78 4.06095 175.881 4.04857 182.976 4.2541 189.84 4.264 196.701 4.36552 203.565 4.41257 205.615 4.55619 207.671 4.47943 209.726 4.50171 216.171 4.55124 222.617 4.59581 229.062 4.6379 246.965 4.88552 264.876 4.76914 282.778 4.99448 310.267 5.02914 337.757 5.02667 365.248 4.99448 379.687 4.8261 394.135 4.81124 408.576 4.74686 415.673 4.57352 422.775 4.60324 429.877 4.52152 432.675 4.45962 435.48 4.57848 438.278 4.40514 444.308 4.368 450.337 4.24914 456.367 4.25657 463.043 3.98667 469.733 4.12533 476.409 3.88762 480.21 3.85295 484.011 3.74895 487.812 3.75638 491.192 3.56324 494.579 3.60781 497.964 3.52114 526.28 2.91943 554.597 2.20876 582.885 0.737905 586.27 0.569524 589.65 0.245143 593.045 0.277333 592.901 2.22857 592.52 4.15505 592.424 6.10876 591.933 11.8981 592.409 17.7122 593.038 23.4718 583.72 23.9695 574.394 24.2964 565.072 24.6257 556.076 24.8486 547.082 25.173 538.081 25.2101 528.585 25.537 519.074 25.3587 509.578 25.5543 502.573 25.5766 495.567 25.5716 488.565 25.5518 482.451 25.3785 476.332 25.5122 470.216 25.4206 439.338 25.2051 408.472 24.487 377.604 23.8903 375.207 23.9076 372.818 23.6823 370.423 23.7244 367.132 23.6377 363.837 23.6749 360.551 23.4916 353.357 23.4421 346.171 23.1672 338.976 23.0979 336.262 22.927 333.543 22.9939 330.826 22.9147 314.229 22.5556 297.628 22.2659 281.03 21.9712 277.321 21.8895 273.609 21.9415 269.907 21.7459 260.988 21.7459 252.074 21.4735 243.154 21.4314 239.772 21.3621 236.387 21.4364 233.01 21.2754 221.951 21.1838 210.887 21.1838 199.829 21.0055 180.762 20.9832 161.698 20.9189 142.631 21.003 139.405 21.0377 136.176 20.9337 132.952 21.0749 122.391 21.1888 111.827 21.159 101.269 21.377 95.5735 21.4562 89.8758 21.4438 84.183 21.6147 79.3173 21.7187 74.4491 21.6716 69.5859 21.8697 58.9383 21.9985 48.2931 22.3303 37.6455 22.5234 34.6741 22.6893 31.6952 22.6844 28.7213 22.7512 25.9133 22.9171 23.0979 22.9221 20.285 22.9939 17.2417 23.1697 14.191 23.1672 11.1429 23.2613 7.78267 23.5015 4.40762 23.3554 1.05238 23.66 0.48781 21.5255 0.22781 19.3019 0.289714 17.0907 0.324381 13.7082 0.160952 10.3158 0.52 6.94324 0.648762 4.7221 0.789905 2.50095 0.688381 0.274857M3.76133 3.3899C3.55581 7.78267 3.05314 12.1754 3.1621 16.583 3.20419 17.8731 3.41219 19.1509 3.43448 20.4434 7.4979 20.4509 11.5514 20.1859 15.6149 20.1215 32.6065 19.6139 49.6006 19.193 66.5996 18.8785 72.129 18.7968 77.6608 18.6086 83.1951 18.616 89.6307 18.4154 96.0737 18.3981 102.514 18.351 105.067 18.1975 107.628 18.2594 110.186 18.2149 115.97 18.1703 121.754 18.096 127.536 18.1208 129.024 18.1455 130.505 17.9747 131.993 18.0168 153.531 17.9053 175.067 17.8979 196.605 17.9846 200.406 18.0291 204.211 17.9474 208.01 18.1208 215.292 18.0935 222.575 18.1802 229.857 18.2347 239.41 18.4105 248.974 18.3882 258.529 18.6135 267.243 18.663 275.949 18.9107 284.663 18.9874 290.63 19.2078 296.605 19.1063 302.573 19.3589 309.596 19.3886 316.613 19.6436 323.638 19.7204 333.29 19.968 342.947 20.0844 352.6 20.3493 358.471 20.3914 364.334 20.6291 370.205 20.6861 380.682 20.9387 391.161 21.107 401.638 21.3472 419.137 21.6568 436.629 22.0678 454.131 22.2164 456.196 22.1867 458.259 22.3922 460.329 22.3278 471.132 22.3798 481.938 22.4789 492.745 22.4863 496.05 22.6596 499.361 22.4987 502.669 22.5556 515.129 22.3996 527.607 22.469 540.07 22.1768 548.815 22.0703 557.556 21.793 566.302 21.5577 569.303 21.3497 572.319 21.4389 575.321 21.2061 580.115 21.0823 584.901 20.795 589.692 20.6192 589.145 14.8918 588.927 9.09505 589.645 3.37505 566.783 4.75924 543.885 5.41048 520.995 6.03943 515.045 6.12362 509.105 6.39105 503.154 6.39848 499.864 6.58914 496.565 6.552 493.27 6.63371 490.622 6.60895 487.983 6.80705 485.336 6.79714 477.32 6.87638 469.31 7.12648 461.294 7.13638 454.369 7.32457 447.435 7.36419 440.504 7.384 430.449 7.68362 420.378 7.51524 410.32 7.74552 403.381 7.78514 396.446 7.83219 389.507 7.8619 383.557 7.93867 377.607 7.78514 371.661 7.96838 338.654 8.1021 305.644 8.07733 272.634 7.97086 269.333 7.80991 266.025 7.90895 262.721 7.88171 252.076 7.852 241.431 7.78762 230.786 7.72324 228.315 7.56971 225.836 7.65638 223.362 7.6341 218.078 7.6019 212.791 7.55733 207.507 7.51771 204.036 7.54495 200.574 7.31962 197.102 7.38648 190.424 7.30971 183.741 7.33695 177.065 7.1339 168.23 7.14876 159.402 6.88629 150.57 6.82438 146.021 6.81448 141.48 6.62381 136.933 6.60895 133.392 6.53219 129.846 6.57924 126.31 6.4059 121.593 6.34648 116.871 6.344 112.159 6.1459 107.957 6.11124 103.755 6.08648 99.5577 5.89581 95.5958 5.8661 91.6339 5.83886 87.6769 5.65314 81.3107 5.62838 74.9518 5.34362 68.5855 5.27676 64.5419 5.05143 60.4859 5.16781 56.4448 4.91524 51.0813 4.8781 45.7253 4.60819 40.3644 4.53143 36.977 4.32838 33.5796 4.40514 30.1947 4.17981 27.56 4.1179 24.9253 4.108 22.2981 3.92971 19.5718 3.88267 16.8455 3.82571 14.1242 3.66724 10.6674 3.67714 7.21562 3.32552 3.76133 3.3899Z" fill="#7AB634" transform="scale(1.0193 1)"/></g></svg>