<svg width="605" height="26" xmlns="http://www.w3.org/2000/svg" xmlns:xlink="http://www.w3.org/1999/xlink" xml:space="preserve" overflow="hidden"><defs><clipPath id="clip0"><rect x="0" y="0" width="605" height="26"/></clipPath></defs><g clip-path="url(#clip0)"><path d="M0.680952 0.26C17.9549 0.693333 35.2213 1.36438 52.4928 1.78533 89.7941 2.84019 127.108 3.4419 164.419 3.9941 206.923 4.60076 249.434 4.80133 291.943 4.99448 319.263 5.01924 346.582 5.03657 373.905 4.93505 388.596 4.83352 403.29 4.75676 417.981 4.63048 430.362 4.55867 442.74 4.34571 455.124 4.24914 468.839 4.02629 482.558 3.80343 496.276 3.55086 520.119 2.99371 543.965 2.46629 567.795 1.43124 576.219 1.11924 584.634 0.515048 593.06 0.264952 592.488 4.94 592.045 9.65467 592.312 14.3644 592.49 17.4101 592.721 20.4509 593.048 23.4842 571.517 24.4994 549.972 25.1135 528.419 25.381 501.842 25.6112 475.263 25.4998 448.686 25.1754 422.27 24.8213 395.859 24.2394 369.448 23.7021 341.303 23.1425 313.156 22.6126 285.01 22.0604 268.174 21.6989 251.333 21.5453 234.495 21.3522 209.488 21.0179 184.476 20.9387 159.467 20.9956 120.915 20.9585 82.3655 21.533 43.8261 22.4145 29.5558 22.7067 15.2905 23.1846 1.02267 23.5981-0.00495238 19.396 0.309524 15.0379 0.33181 10.7541 0.393714 7.25276 0.817143 3.76381 0.680952 0.26M578.134 4.07086C568.167 4.54629 558.198 4.96724 548.226 5.2941 545 5.47733 541.756 5.34114 538.547 5.73238 535.994 5.58133 533.441 5.7299 530.893 5.84381 524.289 6.01219 517.685 6.17314 511.083 6.37124 507.78 6.44057 504.479 6.39848 501.178 6.53962 498.539 6.66838 495.897 6.67829 493.255 6.68076 489.459 6.78476 485.663 6.88629 481.867 6.91848 479.138 6.95314 476.394 6.82686 473.69 7.24533 471.885 6.99029 470.063 7.16362 468.248 7.15867 464.202 7.19086 460.155 7.12152 456.112 7.31962 449.263 7.53752 442.406 7.28248 435.559 7.56229 430.773 7.696 425.986 7.66381 421.2 7.66876 419.132 7.69352 417.055 7.60686 415.005 7.90648 412.37 7.6861 409.723 7.9139 407.086 7.87924 399.244 7.92876 391.402 7.9139 383.562 7.92133 377.045 7.88667 370.532 8.08971 364.017 8.09219 363.757 9.58286 364.017 11.1008 363.891 12.6038 363.688 14.1192 363.752 15.6817 363.25 17.1427 363.084 18.247 363.094 19.391 363.292 20.4905 366.991 20.6267 370.698 20.5202 374.398 20.691 377.698 20.8495 381.002 20.7876 384.302 20.8792 390.02 21.0526 395.74 21.0625 401.457 21.2531 414.972 21.5602 428.487 21.7112 442.002 22.0282 445.137 22.0579 448.272 22.0579 451.41 22.0926 454.463 22.105 457.516 22.2882 460.571 22.2882 470.642 22.3154 480.708 22.2808 490.778 22.3872 498.289 22.6448 505.804 22.4888 513.314 22.3823 519.505 22.2832 525.695 22.3352 531.883 22.261 534.609 22.2411 537.331 21.9663 540.057 22.0876 546.909 22.0059 553.76 21.7954 560.609 21.6048 566.062 21.575 571.505 21.2185 576.952 21.0798 581.182 20.9659 585.406 20.6118 589.635 20.5846 589.128 14.8819 588.776 9.09505 589.608 3.40724 585.792 3.74648 581.954 3.81829 578.134 4.07086Z" fill="#7AB634" transform="scale(1.0193 1)"/><path d="M578.134 4.07086C581.954 3.81829 585.792 3.74648 589.608 3.40724 588.776 9.09505 589.128 14.8819 589.635 20.5846 585.406 20.6118 581.182 20.9659 576.952 21.0798 571.505 21.2185 566.062 21.575 560.609 21.6048 553.76 21.7954 546.909 22.0059 540.057 22.0876 537.331 21.9663 534.609 22.2411 531.883 22.261 525.695 22.3352 519.505 22.2832 513.314 22.3823 505.804 22.4888 498.289 22.6448 490.778 22.3872 480.708 22.2808 470.642 22.3154 460.571 22.2882 457.516 22.2882 454.463 22.105 451.41 22.0926 448.272 22.0579 445.137 22.0579 442.002 22.0282 428.487 21.7112 414.972 21.5602 401.457 21.2531 395.74 21.0625 390.02 21.0526 384.302 20.8792 381.002 20.7876 377.698 20.8495 374.398 20.691 370.698 20.5202 366.991 20.6267 363.292 20.4905 363.094 19.391 363.084 18.247 363.25 17.1427 363.752 15.6817 363.688 14.1192 363.891 12.6038 364.017 11.1008 363.757 9.58286 364.017 8.09219 370.532 8.08971 377.045 7.88667 383.562 7.92133 391.402 7.9139 399.244 7.92876 407.086 7.87924 409.723 7.9139 412.37 7.6861 415.005 7.90648 417.055 7.60686 419.132 7.69352 421.2 7.66876 425.986 7.66381 430.773 7.696 435.559 7.56229 442.406 7.28248 449.263 7.53752 456.112 7.31962 460.155 7.12152 464.202 7.19086 468.248 7.15867 470.063 7.16362 471.885 6.99029 473.69 7.24533 476.394 6.82686 479.138 6.95314 481.867 6.91848 485.663 6.88629 489.459 6.78476 493.255 6.68076 495.897 6.67829 498.539 6.66838 501.178 6.53962 504.479 6.39848 507.78 6.44057 511.083 6.37124 517.685 6.17314 524.289 6.01219 530.893 5.84381 533.441 5.7299 535.994 5.58133 538.547 5.73238 541.756 5.34114 545 5.47733 548.226 5.2941 558.198 4.96724 568.167 4.54629 578.134 4.07086Z" fill="#FFFFFF" transform="scale(1.0193 1)"/></g></svg>