<svg width="605" height="26" xmlns="http://www.w3.org/2000/svg" xmlns:xlink="http://www.w3.org/1999/xlink" xml:space="preserve" overflow="hidden"><defs><clipPath id="clip0"><rect x="0" y="0" width="605" height="26"/></clipPath></defs><g clip-path="url(#clip0)"><path d="M0.755238 0.27981C4.05352 0.195619 7.34686 0.480381 10.6451 0.517524 28.5703 1.12171 46.4954 1.63676 64.4255 2.12705 74.8082 2.31771 85.1933 2.6099 95.5785 2.808 105.813 3.0581 116.052 3.15962 126.286 3.40476 139.08 3.45676 151.87 3.91238 164.667 3.9619 170.033 3.89505 175.396 4.15752 180.762 4.18229 184.806 4.24914 188.849 4.1699 192.893 4.23429 200.237 4.44724 207.586 4.472 214.933 4.45714 220.383 4.38286 225.829 4.68495 231.279 4.66019 237.962 4.732 244.648 4.66019 251.331 4.784 279.23 5.05143 307.129 4.92514 335.029 4.95238 354.59 4.92019 374.155 5.07124 393.717 4.70724 401.841 4.68 409.97 4.77657 418.095 4.59333 424.738 4.34076 431.39 4.53143 438.036 4.40762 443.815 4.37048 449.592 4.17981 455.371 4.212 481.886 3.83067 508.399 3.36514 534.907 2.58762 552.312 2.07505 569.717 1.46095 587.105 0.482857 589.066 0.38381 591.03 0.22781 592.998 0.269905 592.854 2.15924 592.602 4.03867 592.443 5.928 592.047 11.7792 592.443 17.6429 593.015 23.4669 572.899 24.4821 552.763 25.0714 532.624 25.3389 525.034 25.631 517.44 25.4379 509.848 25.527 495.981 25.6038 482.114 25.4874 468.25 25.4973 459.997 25.1804 451.736 25.376 443.483 25.1507 438.261 24.9451 433.031 25.0813 427.809 24.8931 424.04 24.757 420.269 24.809 416.5 24.7025 412.622 24.5192 408.74 24.5613 404.86 24.4573 399.481 24.2444 394.098 24.3484 388.72 24.1107 384.609 24.029 380.496 24.029 376.386 23.8606 372.927 23.7194 369.462 23.8309 366.006 23.6724 359.558 23.5164 353.112 23.3282 346.667 23.2787 344.022 23.2762 341.382 23.1128 338.743 23.0855 328.177 22.9766 317.616 22.563 307.053 22.5135 303.172 22.36 299.292 22.303 295.412 22.2684 289.093 22.048 282.771 22.0901 276.454 21.9118 272.292 21.8004 268.127 21.8251 263.964 21.741 255.545 21.481 247.121 21.6419 238.702 21.3943 232.514 21.2581 226.324 21.3101 220.136 21.2853 205.363 20.9337 190.585 21.0773 175.81 21.0476 157.981 21.0823 140.152 20.9585 122.326 21.1516 119.518 21.1467 116.713 21.32 113.905 21.2952 108.125 21.2878 102.343 21.2977 96.5665 21.4958 93.9269 21.5924 91.2872 21.5107 88.6476 21.5552 83.6952 21.585 78.7429 21.8375 73.7905 21.7905 69.7444 21.8078 65.7032 22.0455 61.6571 22.053 56.3036 22.0728 50.955 22.2907 45.6015 22.3674 40.4709 22.4442 35.3402 22.6324 30.2095 22.7735 27.0697 22.7636 23.9373 22.9592 20.8 23.0261 17.6602 23.0236 14.5303 23.2638 11.3905 23.291 7.93867 23.3406 4.48438 23.5857 1.03257 23.5634 0.0470476 19.921 0.277333 16.115 0.250095 12.381 0.336762 8.34476 0.725524 4.31848 0.755238 0.27981M586.587 3.5979C565.396 4.7939 544.18 5.42781 522.966 6.02952 519.341 6.21771 515.711 6.10381 512.086 6.30438 508.865 6.45543 505.641 6.38114 502.419 6.448 499.123 6.69067 495.815 6.62629 492.514 6.67333 490.117 6.64362 487.728 6.87638 485.336 6.864 481.834 6.9259 478.333 6.88876 474.834 6.99276 468.186 7.27505 461.525 7.00762 454.879 7.3221 448.027 7.51029 441.17 7.26267 434.324 7.56724 427.883 7.69848 421.443 7.61924 415.002 7.69105 408.487 7.90648 401.967 7.8421 395.448 7.88667 388.512 7.91886 381.576 7.88419 374.64 7.92876 368.702 8.14171 362.759 8.03524 356.819 8.08724 329.002 8.16648 301.182 8.09962 273.364 8.03276 269.655 7.83714 265.94 7.93124 262.229 7.91143 255.79 7.89905 249.352 7.88419 242.914 7.8619 238.375 7.83219 233.837 7.89162 229.303 7.67619 222.696 7.63905 216.09 7.67619 209.486 7.60686 206.017 7.59943 202.552 7.37657 199.086 7.41619 192.957 7.37657 186.824 7.488 180.7 7.22057 180.584 7.61429 180.529 8.01543 180.537 8.42152 180.616 11.544 180.321 14.6615 180.438 17.784 182.934 17.9598 185.442 17.8286 187.943 17.883 194.46 17.9549 200.982 17.8112 207.495 18.0762 216.989 18.1554 226.485 17.987 235.974 18.3065 240.186 18.3411 244.398 18.351 248.61 18.3907 252.408 18.3585 256.199 18.616 259.998 18.5912 264.222 18.6358 268.449 18.616 272.671 18.7893 276.62 18.876 280.575 18.7943 284.522 18.9379 288.56 19.1657 292.606 19.0667 296.648 19.141 298.879 19.1112 301.102 19.3415 303.336 19.3291 306.473 19.3688 309.613 19.349 312.748 19.4728 316.955 19.656 321.169 19.5149 325.379 19.713 329.007 19.916 332.646 19.7575 336.277 19.9383 339.406 20.1141 342.544 20.0646 345.676 20.129 347.907 20.119 350.131 20.337 352.359 20.3171 355.247 20.3493 358.136 20.337 361.024 20.4583 365.223 20.6514 369.43 20.4954 373.63 20.7183 376.277 20.8693 378.931 20.7901 381.581 20.8545 385.377 20.9362 389.173 21.0749 392.971 21.0897 395.779 21.0897 398.58 21.315 401.39 21.3076 404.694 21.3349 407.997 21.3423 411.298 21.5255 415.01 21.58 418.724 21.5651 422.438 21.6766 428.057 21.8499 433.68 21.7806 439.296 22.0109 445.727 22.1074 452.162 22.0232 458.59 22.2907 466.68 22.3204 474.767 22.3154 482.857 22.3526 488.471 22.3303 494.082 22.568 499.695 22.5358 506.713 22.5185 513.73 22.5531 520.75 22.521 524.289 22.2387 527.842 22.3229 531.391 22.2981 533.951 22.3204 536.506 22.1272 539.067 22.1198 542.528 22.0356 545.995 22.1124 549.454 21.9267 552.473 21.793 555.499 21.8722 558.517 21.741 561.184 21.5478 563.861 21.6246 566.533 21.5057 568.516 21.3398 570.507 21.3423 572.498 21.3101 578.195 21.0055 583.906 20.8619 589.603 20.545 589.598 19.136 589.403 17.7394 589.333 16.333 588.964 12.0467 589.103 7.72324 589.591 3.45181 588.583 3.44686 587.583 3.50629 586.587 3.5979Z" fill="#7BB635" transform="scale(1.0193 1)"/><path d="M586.587 3.5979C587.583 3.50629 588.583 3.44686 589.591 3.45181 589.103 7.72324 588.964 12.0467 589.333 16.333 589.403 17.7394 589.598 19.136 589.603 20.545 583.906 20.8619 578.195 21.0055 572.498 21.3101 570.507 21.3423 568.516 21.3398 566.533 21.5057 563.861 21.6246 561.184 21.5478 558.517 21.741 555.499 21.8722 552.473 21.793 549.454 21.9267 545.995 22.1124 542.528 22.0356 539.067 22.1198 536.506 22.1272 533.951 22.3204 531.391 22.2981 527.842 22.3229 524.289 22.2387 520.75 22.521 513.73 22.5531 506.713 22.5185 499.695 22.5358 494.082 22.568 488.471 22.3303 482.857 22.3526 474.767 22.3154 466.68 22.3204 458.59 22.2907 452.162 22.0232 445.727 22.1074 439.296 22.0109 433.68 21.7806 428.057 21.8499 422.438 21.6766 418.724 21.5651 415.01 21.58 411.298 21.5255 407.997 21.3423 404.694 21.3349 401.39 21.3076 398.58 21.315 395.779 21.0897 392.971 21.0897 389.173 21.0749 385.377 20.9362 381.581 20.8545 378.931 20.7901 376.277 20.8693 373.63 20.7183 369.43 20.4954 365.223 20.6514 361.024 20.4583 358.136 20.337 355.247 20.3493 352.359 20.3171 350.131 20.337 347.907 20.119 345.676 20.129 342.544 20.0646 339.406 20.1141 336.277 19.9383 332.646 19.7575 329.007 19.916 325.379 19.713 321.169 19.5149 316.955 19.656 312.748 19.4728 309.613 19.349 306.473 19.3688 303.336 19.3291 301.102 19.3415 298.879 19.1112 296.648 19.141 292.606 19.0667 288.56 19.1657 284.522 18.9379 280.575 18.7943 276.62 18.876 272.671 18.7893 268.449 18.616 264.222 18.6358 259.998 18.5912 256.199 18.616 252.408 18.3585 248.61 18.3907 244.398 18.351 240.186 18.3411 235.974 18.3065 226.485 17.987 216.989 18.1554 207.495 18.0762 200.982 17.8112 194.46 17.9549 187.943 17.883 185.442 17.8286 182.934 17.9598 180.438 17.784 180.321 14.6615 180.616 11.544 180.537 8.42152 180.529 8.01543 180.584 7.61429 180.7 7.22057 186.824 7.488 192.957 7.37657 199.086 7.41619 202.552 7.37657 206.017 7.59943 209.486 7.60686 216.09 7.67619 222.696 7.63905 229.303 7.67619 233.837 7.89162 238.375 7.83219 242.914 7.8619 249.352 7.88419 255.79 7.89905 262.229 7.91143 265.94 7.93124 269.655 7.83714 273.364 8.03276 301.182 8.09962 329.002 8.16648 356.819 8.08724 362.759 8.03524 368.702 8.14171 374.64 7.92876 381.576 7.88419 388.512 7.91886 395.448 7.88667 401.967 7.8421 408.487 7.90648 415.002 7.69105 421.443 7.61924 427.883 7.69848 434.324 7.56724 441.17 7.26267 448.027 7.51029 454.879 7.3221 461.525 7.00762 468.186 7.27505 474.834 6.99276 478.333 6.88876 481.834 6.9259 485.336 6.864 487.728 6.87638 490.117 6.64362 492.514 6.67333 495.815 6.62629 499.123 6.69067 502.419 6.448 505.641 6.38114 508.865 6.45543 512.086 6.30438 515.711 6.10381 519.341 6.21771 522.966 6.02952 544.18 5.42781 565.396 4.7939 586.587 3.5979Z" fill="#FFFFFF" transform="scale(1.0193 1)"/></g></svg>