<svg width="605" height="26" xmlns="http://www.w3.org/2000/svg" xmlns:xlink="http://www.w3.org/1999/xlink" xml:space="preserve" overflow="hidden"><defs><clipPath id="clip0"><rect x="0" y="0" width="605" height="26"/></clipPath></defs><g clip-path="url(#clip0)"><path d="M0.676 0.245143C28.5604 1.07962 56.4448 1.95371 84.3366 2.56533 139.251 3.7539 194.178 4.49429 249.105 4.76914 277.91 4.97467 306.718 5.02667 335.524 4.99448 362.928 5.01924 390.329 4.85086 417.731 4.61562 445.219 4.41257 472.705 4.01143 500.188 3.44438 523.964 2.89714 547.746 2.34495 571.505 1.2381 578.696 0.96819 585.877 0.470476 593.07 0.247619 592.424 5.53429 591.98 10.8804 592.443 16.2017 592.587 18.6383 592.822 21.0699 593.062 23.499 570.291 24.5192 547.503 25.1878 524.71 25.4206 500.03 25.5914 475.347 25.485 450.667 25.2027 425.573 24.8709 400.482 24.341 375.39 23.8259 347.823 23.2935 320.258 22.7463 292.693 22.2189 277.834 21.9143 262.976 21.6815 248.117 21.5181 226.242 21.2779 204.37 20.9882 182.495 21.0006 167.72 20.9783 152.947 21.0328 138.171 21.0427 92.4436 21.2928 46.7158 22.1669 1.01029 23.6055 0.237714 20.337 0.235238 16.9594 0.277333 13.6215 0.267429 9.15695 0.770095 4.70971 0.676 0.245143M566.567 4.59581C563.507 4.61067 560.458 4.93752 557.395 4.90038 554.922 5.12571 552.438 5.12076 549.959 5.16533 546.837 5.50705 543.69 5.24457 540.57 5.5541 538.222 5.75714 535.865 5.50705 533.523 5.73486 529.85 5.99981 526.158 5.72 522.494 6.07162 519.931 6.1261 517.37 6.10133 514.815 6.27962 510.93 6.39352 507.042 6.39105 503.157 6.37867 499.703 6.72286 496.226 6.5941 492.762 6.63867 488.226 6.9259 483.677 6.85162 479.138 6.87886 477.318 6.81695 475.513 7.13143 473.698 7.11905 468.495 7.08933 463.293 7.15867 458.093 7.12152 457.191 7.19829 456.295 7.32705 455.394 7.32457 450.847 7.40133 446.299 7.36171 441.75 7.37657 439.93 7.32952 438.122 7.56971 436.305 7.55486 432.343 7.61181 428.381 7.63162 424.419 7.62419 421.326 7.644 418.231 7.52762 415.148 7.82971 415.141 9.78838 415.374 11.7842 414.896 13.7082 414.348 16.3181 414.883 18.975 414.958 21.5998 420.007 21.6147 425.06 21.6048 430.104 21.84 432.828 21.9118 435.577 21.7063 438.283 22.0777 445.541 22.1446 452.811 21.9762 460.064 22.3377 466.341 22.3451 472.618 22.3402 478.895 22.3451 484.836 22.3897 490.786 22.261 496.721 22.5853 500.106 22.5804 503.491 22.5853 506.879 22.5829 508.929 22.3674 510.994 22.4269 513.054 22.3947 516.608 22.365 520.161 22.3402 523.714 22.3427 526.351 22.2981 528.996 22.4343 531.628 22.2288 535.593 22.1347 539.557 22.0876 543.524 22.0876 545.086 22.043 546.661 22.199 548.219 21.9762 550.195 21.8301 552.183 21.8747 554.166 21.84 556.69 21.9267 559.193 21.5478 561.721 21.6097 564.294 21.6815 566.852 21.3794 569.427 21.3621 571.428 21.4067 573.414 21.1095 575.417 21.1244 578.002 21.1714 580.573 20.8297 583.16 20.8644 585.327 20.7282 587.496 20.597 589.67 20.6069 589.086 14.8893 588.888 9.10248 589.564 3.38495 581.907 3.94705 574.234 4.2021 566.567 4.59581Z" fill="#56AE00" transform="scale(1.0193 1)"/><path d="M566.567 4.59581C574.234 4.2021 581.907 3.94705 589.564 3.38495 588.888 9.10248 589.086 14.8893 589.67 20.6069 587.496 20.597 585.327 20.7282 583.16 20.8644 580.573 20.8297 578.002 21.1714 575.417 21.1244 573.414 21.1095 571.428 21.4067 569.427 21.3621 566.852 21.3794 564.294 21.6815 561.721 21.6097 559.193 21.5478 556.69 21.9267 554.166 21.84 552.183 21.8747 550.195 21.8301 548.219 21.9762 546.661 22.199 545.086 22.043 543.524 22.0876 539.557 22.0876 535.593 22.1347 531.628 22.2288 528.996 22.4343 526.351 22.2981 523.714 22.3427 520.161 22.3402 516.608 22.365 513.054 22.3947 510.994 22.4269 508.929 22.3674 506.879 22.5829 503.491 22.5853 500.106 22.5804 496.721 22.5853 490.786 22.261 484.836 22.3897 478.895 22.3451 472.618 22.3402 466.341 22.3451 460.064 22.3377 452.811 21.9762 445.541 22.1446 438.283 22.0777 435.577 21.7063 432.828 21.9118 430.104 21.84 425.06 21.6048 420.007 21.6147 414.958 21.5998 414.883 18.975 414.348 16.3181 414.896 13.7082 415.374 11.7842 415.141 9.78838 415.148 7.82971 418.231 7.52762 421.326 7.644 424.419 7.62419 428.381 7.63162 432.343 7.61181 436.305 7.55486 438.122 7.56971 439.93 7.32952 441.75 7.37657 446.299 7.36171 450.847 7.40133 455.394 7.32457 456.295 7.32705 457.191 7.19829 458.093 7.12152 463.293 7.15867 468.495 7.08933 473.698 7.11905 475.513 7.13143 477.318 6.81695 479.138 6.87886 483.677 6.85162 488.226 6.9259 492.762 6.63867 496.226 6.5941 499.703 6.72286 503.157 6.37867 507.042 6.39105 510.93 6.39352 514.815 6.27962 517.37 6.10133 519.931 6.1261 522.494 6.07162 526.158 5.72 529.85 5.99981 533.523 5.73486 535.865 5.50705 538.222 5.75714 540.57 5.5541 543.69 5.24457 546.837 5.50705 549.959 5.16533 552.438 5.12076 554.922 5.12571 557.395 4.90038 560.458 4.93752 563.507 4.61067 566.567 4.59581Z" fill="#FFFFFF" transform="scale(1.0193 1)"/></g></svg>