<svg width="605" height="26" xmlns="http://www.w3.org/2000/svg" xmlns:xlink="http://www.w3.org/1999/xlink" xml:space="preserve" overflow="hidden"><defs><clipPath id="clip0"><rect x="0" y="0" width="605" height="26"/></clipPath></defs><g clip-path="url(#clip0)"><path d="M0.755238 0.277333C3.72667 0.198095 6.69067 0.445714 9.65962 0.48781 29.0531 1.12419 48.4491 1.72343 67.8501 2.19886 85.5945 2.58762 103.339 3.00857 121.088 3.28838 127.524 3.4939 133.964 3.38743 140.4 3.59295 147.994 3.73905 155.586 3.88514 163.181 3.9619 169.374 3.87771 175.562 4.16495 181.755 4.19219 185.962 4.25162 190.171 4.14019 194.378 4.27143 202.961 4.51162 211.548 4.44229 220.133 4.45962 230.776 4.82114 241.429 4.59333 252.076 4.79638 280.221 5.04152 308.367 4.92514 336.514 4.9499 350.792 4.93752 365.072 4.992 379.352 4.89048 385.709 4.90038 392.063 4.66267 398.419 4.70229 405.273 4.69486 412.127 4.74686 418.979 4.57352 425.412 4.35067 431.85 4.5141 438.283 4.40514 444.31 4.36057 450.335 4.17981 456.359 4.19467 493.428 3.65981 530.499 2.96895 567.543 1.4461 576.034 1.144 584.512 0.532381 593.003 0.237714 592.849 2.13695 592.607 4.02876 592.441 5.928 592.057 11.7792 592.436 17.6453 593.018 23.4693 572.735 24.4895 552.431 25.0764 532.126 25.3488 525.116 25.6236 518.098 25.4478 511.086 25.5246 497.548 25.6013 484.014 25.5072 470.476 25.5072 467.336 25.5444 464.204 25.3067 461.064 25.3314 454.807 25.2571 448.549 25.3166 442.295 25.1185 438.979 25.0095 435.661 25.012 432.343 25.007 428.381 24.908 424.419 24.7842 420.457 24.7693 417.07 24.7842 413.69 24.544 410.305 24.544 406.504 24.5341 402.71 24.3731 398.912 24.3112 396.272 24.2469 393.63 24.3211 390.993 24.1874 386.868 24.0166 382.74 24.076 378.617 23.9324 375.477 23.8135 372.34 23.759 369.202 23.764 362.269 23.5783 355.333 23.3802 348.4 23.2985 345.669 23.301 342.94 23.1945 340.211 23.1128 330.311 23.0013 320.414 22.677 310.514 22.5333 307.54 22.5853 304.569 22.4095 301.598 22.3451 294.83 22.2907 288.065 22.0455 281.295 22.0208 274.515 21.8103 267.728 21.8474 260.946 21.6741 255.431 21.5602 249.917 21.5379 244.402 21.533 237.717 21.325 231.029 21.2804 224.343 21.2977 218.811 21.3373 213.284 21.0897 207.752 21.0922 192.729 21.0006 177.706 21.0699 162.686 21.0501 146.672 21.0823 130.659 20.9288 114.648 21.2977 109.636 21.3027 104.624 21.2977 99.6147 21.4042 93.543 21.6419 87.4665 21.481 81.3973 21.689 77.2101 21.8648 73.0204 21.7187 68.8356 21.892 63.0587 22.1124 57.2768 22.0331 51.5023 22.2486 44.4848 22.3773 37.4672 22.5284 30.4547 22.771 26.4928 22.7636 22.5383 23.041 18.5764 23.0608 13.7874 23.2564 8.996 23.3406 4.20705 23.509 3.14724 23.5288 2.08495 23.655 1.02514 23.5659 0.0619048 19.916 0.267429 16.1175 0.250095 12.3834 0.339238 8.34476 0.723048 4.31848 0.755238 0.277333M523.826 5.99733C520.577 6.16571 517.323 6.1459 514.075 6.21771 510.192 6.448 506.302 6.38857 502.417 6.44552 499.121 6.69809 495.815 6.62381 492.514 6.67086 490.117 6.64114 487.728 6.88133 485.333 6.864 481.458 6.93581 477.578 6.86895 473.705 7.03733 467.512 7.24781 461.314 7.02248 455.124 7.31219 448.193 7.51771 441.252 7.25524 434.326 7.56971 426.732 7.7381 419.132 7.54 411.543 7.78267 399.323 7.94362 387.103 7.87181 374.885 7.92133 368.702 8.14914 362.512 8.03524 356.324 8.08971 328.67 8.16648 301.018 8.09962 273.364 8.03524 269.986 7.84457 266.602 7.92381 263.219 7.91143 257.194 7.90152 251.167 7.88667 245.143 7.86933 239.864 7.82229 234.577 7.92381 229.3 7.67371 224.016 7.644 218.732 7.66629 213.448 7.63657 208.082 7.67867 202.718 7.36171 197.352 7.41371 191.328 7.38648 185.301 7.46076 179.281 7.1859 172.595 7.13143 165.907 7.22057 159.226 6.93333 149.48 6.96057 139.741 6.62629 130 6.5941 124.716 6.25981 119.417 6.57181 114.135 6.21276 109.762 6.11619 105.382 6.23752 101.014 5.95524 97.0568 5.8661 93.0924 6.00229 89.1404 5.71752 85.0175 5.61848 80.8872 5.73238 76.7693 5.46 74.0232 5.44267 71.2722 5.36095 68.5286 5.37086 68.4295 5.45505 68.2339 5.62343 68.1349 5.70762 68.2933 7.04971 68.3577 8.40667 67.9566 9.71162 68.2389 11.0314 68.3627 12.3859 68.1076 13.7255 68.063 15.4366 67.4415 17.113 67.7461 18.8314 68.5236 18.8215 69.2987 18.8265 70.0762 18.8141 75.8457 18.4476 81.635 18.7571 87.4046 18.4451 93.5133 18.2792 99.627 18.4773 105.733 18.1752 113.494 18.096 121.254 18.0935 129.014 18.0787 133.467 17.8459 137.924 17.9672 142.381 17.9128 162.849 17.8484 183.32 17.831 203.79 17.945 205.276 17.9672 206.759 18.0935 208.248 18.0836 216.09 18.1158 223.932 18.0712 231.774 18.1777 240.101 18.507 248.444 18.2074 256.774 18.569 260.409 18.5987 264.044 18.616 267.679 18.6581 270.402 18.663 273.121 18.8611 275.848 18.8314 279.562 18.8537 283.281 18.8265 286.99 19.0518 291.118 19.1286 295.251 19.0815 299.379 19.193 302.509 19.3985 305.646 19.3217 308.781 19.3787 311.423 19.3737 314.06 19.5718 316.705 19.5693 320.176 19.5941 323.65 19.5916 327.12 19.7922 330.76 19.8615 334.405 19.7996 338.042 20.0175 341.576 20.1314 345.112 20.0596 348.645 20.2008 351.364 20.384 354.093 20.3023 356.819 20.3592 359.627 20.3493 362.428 20.5722 365.236 20.5623 368.539 20.5821 371.845 20.592 375.143 20.7901 378.778 20.8347 382.413 20.8347 386.048 20.9634 389.76 21.107 393.477 21.0377 397.188 21.1937 400.898 21.3943 404.614 21.2779 408.326 21.3992 410.057 21.4587 411.788 21.58 413.524 21.5552 420.707 21.5775 427.886 21.8425 435.069 21.8821 442.416 22.204 449.775 21.9267 457.122 22.2634 469.741 22.3996 482.367 22.2114 494.986 22.5185 502.003 22.5705 509.021 22.5259 516.038 22.5383 518.19 22.521 520.349 22.615 522.498 22.4095 526.443 22.2114 530.395 22.3773 534.345 22.256 539.545 21.9935 544.757 22.1743 549.957 21.9069 553.255 21.7806 556.561 21.897 559.854 21.6642 569.779 21.4413 579.694 21.0055 589.611 20.5524 589.591 19.141 589.405 17.7419 589.336 16.333 588.969 12.0417 589.091 7.71333 589.603 3.4419 567.696 4.68743 545.762 5.408 523.826 5.99733Z" fill="#7BB636" transform="scale(1.0193 1)"/><path d="M523.826 5.99733C545.762 5.408 567.696 4.68743 589.603 3.4419 589.091 7.71333 588.969 12.0417 589.336 16.333 589.405 17.7419 589.591 19.141 589.611 20.5524 579.694 21.0055 569.779 21.4413 559.854 21.6642 556.561 21.897 553.255 21.7806 549.957 21.9069 544.757 22.1743 539.545 21.9935 534.345 22.256 530.395 22.3773 526.443 22.2114 522.498 22.4095 520.349 22.615 518.19 22.521 516.038 22.5383 509.021 22.5259 502.003 22.5705 494.986 22.5185 482.367 22.2114 469.741 22.3996 457.122 22.2634 449.775 21.9267 442.416 22.204 435.069 21.8821 427.886 21.8425 420.707 21.5775 413.524 21.5552 411.788 21.58 410.057 21.4587 408.326 21.3992 404.614 21.2779 400.898 21.3943 397.188 21.1937 393.477 21.0377 389.76 21.107 386.048 20.9634 382.413 20.8347 378.778 20.8347 375.143 20.7901 371.845 20.592 368.539 20.5821 365.236 20.5623 362.428 20.5722 359.627 20.3493 356.819 20.3592 354.093 20.3023 351.364 20.384 348.645 20.2008 345.112 20.0596 341.576 20.1314 338.042 20.0175 334.405 19.7996 330.76 19.8615 327.12 19.7922 323.65 19.5916 320.176 19.5941 316.705 19.5693 314.06 19.5718 311.423 19.3737 308.781 19.3787 305.646 19.3217 302.509 19.3985 299.379 19.193 295.251 19.0815 291.118 19.1286 286.99 19.0518 283.281 18.8265 279.562 18.8537 275.848 18.8314 273.121 18.8611 270.402 18.663 267.679 18.6581 264.044 18.616 260.409 18.5987 256.774 18.569 248.444 18.2074 240.101 18.507 231.774 18.1777 223.932 18.0712 216.09 18.1158 208.248 18.0836 206.759 18.0935 205.276 17.9672 203.79 17.945 183.32 17.831 162.849 17.8484 142.381 17.9128 137.924 17.9672 133.467 17.8459 129.014 18.0787 121.254 18.0935 113.494 18.096 105.733 18.1752 99.627 18.4773 93.5133 18.2792 87.4046 18.4451 81.635 18.7571 75.8457 18.4476 70.0762 18.8141 69.2987 18.8265 68.5236 18.8215 67.7461 18.8314 67.4415 17.113 68.063 15.4366 68.1076 13.7255 68.3627 12.3859 68.2389 11.0314 67.9566 9.71162 68.3577 8.40667 68.2933 7.04971 68.1349 5.70762 68.2339 5.62343 68.4295 5.45505 68.5286 5.37086 71.2722 5.36095 74.0232 5.44267 76.7693 5.46 80.8872 5.73238 85.0175 5.61848 89.1404 5.71752 93.0924 6.00229 97.0568 5.8661 101.014 5.95524 105.382 6.23752 109.762 6.11619 114.135 6.21276 119.417 6.57181 124.716 6.25981 130 6.5941 139.741 6.62629 149.48 6.96057 159.226 6.93333 165.907 7.22057 172.595 7.13143 179.281 7.1859 185.301 7.46076 191.328 7.38648 197.352 7.41371 202.718 7.36171 208.082 7.67867 213.448 7.63657 218.732 7.66629 224.016 7.644 229.3 7.67371 234.577 7.92381 239.864 7.82229 245.143 7.86933 251.167 7.88667 257.194 7.90152 263.219 7.91143 266.602 7.92381 269.986 7.84457 273.364 8.03524 301.018 8.09962 328.67 8.16648 356.324 8.08971 362.512 8.03524 368.702 8.14914 374.885 7.92133 387.103 7.87181 399.323 7.94362 411.543 7.78267 419.132 7.54 426.732 7.7381 434.326 7.56971 441.252 7.25524 448.193 7.51771 455.124 7.31219 461.314 7.02248 467.512 7.24781 473.705 7.03733 477.578 6.86895 481.458 6.93581 485.333 6.864 487.728 6.88133 490.117 6.64114 492.514 6.67086 495.815 6.62381 499.121 6.69809 502.417 6.44552 506.302 6.38857 510.192 6.448 514.075 6.21771 517.323 6.1459 520.577 6.16571 523.826 5.99733Z" fill="#FFFFFF" transform="scale(1.0193 1)"/></g></svg>