<svg width="605" height="26" xmlns="http://www.w3.org/2000/svg" xmlns:xlink="http://www.w3.org/1999/xlink" xml:space="preserve" overflow="hidden"><defs><clipPath id="clip0"><rect x="0" y="0" width="605" height="26"/></clipPath></defs><g clip-path="url(#clip0)"><path d="M0.680952 0.257524C16.385 0.641333 32.084 1.27524 47.7905 1.64914 82.6973 2.66686 117.614 3.29581 152.533 3.81086 198.256 4.55867 243.986 4.76171 289.714 4.99448 317.943 5.02171 346.171 5.03657 374.4 4.93505 387.524 4.8459 400.648 4.76171 413.771 4.6701 427.804 4.57352 441.837 4.37295 455.867 4.23676 468.901 4.02876 481.936 3.80343 494.968 3.58305 519.416 3.0061 543.865 2.48114 568.296 1.40895 576.551 1.09943 584.794 0.517524 593.053 0.26 592.51 4.85333 592.052 9.48133 592.3 14.1118 592.473 17.2442 592.716 20.3716 593.045 23.4916 584.131 23.8432 575.221 24.2964 566.305 24.5415 553.681 24.9674 541.05 25.1977 528.419 25.3834 501.181 25.6236 473.943 25.4949 446.705 25.1531 420.539 24.7792 394.375 24.2122 368.21 23.6749 341.551 23.1524 314.89 22.6373 288.229 22.1272 269.575 21.7063 250.92 21.5453 232.267 21.3225 205.194 20.9659 178.12 20.951 151.048 21.0006 136.106 20.9758 121.167 21.1516 106.229 21.3101 71.1558 21.7236 36.0855 22.4838 1.02762 23.5956 0.0940952 19.9284 0.297143 16.1225 0.294667 12.3735 0.294667 8.3299 0.822095 4.30114 0.680952 0.257524M545.997 5.38324C543.511 5.44267 541.015 5.43029 538.544 5.72248 536.553 5.6259 534.558 5.65562 532.572 5.7819 529.125 5.94533 525.67 5.91562 522.226 6.09143 516.528 6.15829 510.838 6.47029 505.138 6.43067 501.178 6.552 497.219 6.708 493.255 6.68324 489.79 6.78971 486.324 6.87886 482.857 6.90857 480.022 6.96305 477.179 6.82438 474.356 7.14381 474.401 8.72362 474.354 10.3034 474.369 11.8857 474.322 13.0272 474.483 14.2034 474.109 15.3053 473.727 16.6078 473.527 17.9573 473.547 19.3143 473.591 20.3023 473.284 21.2829 473.46 22.2684 479.972 22.4046 486.495 22.2387 493.01 22.4368 499.363 22.6646 505.72 22.4467 512.079 22.3897 518.43 22.2981 524.786 22.3154 531.14 22.2832 534.114 22.2535 537.086 21.9811 540.06 22.0901 548.548 21.996 557.031 21.632 565.522 21.5255 568.585 21.3051 571.661 21.3225 574.729 21.1343 579.694 21.0476 584.648 20.6712 589.616 20.5474 589.123 14.8596 588.796 9.10495 589.581 3.42952 575.065 4.3259 560.533 4.86819 545.997 5.38324Z" fill="#7AB634" transform="scale(1.0193 1)"/><path d="M545.997 5.38324C560.533 4.86819 575.065 4.3259 589.581 3.42952 588.796 9.10495 589.123 14.8596 589.616 20.5474 584.648 20.6712 579.694 21.0476 574.729 21.1343 571.661 21.3225 568.585 21.3051 565.522 21.5255 557.031 21.632 548.548 21.996 540.06 22.0901 537.086 21.9811 534.114 22.2535 531.14 22.2832 524.786 22.3154 518.43 22.2981 512.079 22.3897 505.72 22.4467 499.363 22.6646 493.01 22.4368 486.495 22.2387 479.972 22.4046 473.46 22.2684 473.284 21.2829 473.591 20.3023 473.547 19.3143 473.527 17.9573 473.727 16.6078 474.109 15.3053 474.483 14.2034 474.322 13.0272 474.369 11.8857 474.354 10.3034 474.401 8.72362 474.356 7.14381 477.179 6.82438 480.022 6.96305 482.857 6.90857 486.324 6.87886 489.79 6.78971 493.255 6.68324 497.219 6.708 501.178 6.552 505.138 6.43067 510.838 6.47029 516.528 6.15829 522.226 6.09143 525.67 5.91562 529.125 5.94533 532.572 5.7819 534.558 5.65562 536.553 5.6259 538.544 5.72248 541.015 5.43029 543.511 5.44267 545.997 5.38324Z" fill="#FFFFFF" transform="scale(1.0193 1)"/></g></svg>