<svg width="605" height="26" xmlns="http://www.w3.org/2000/svg" xmlns:xlink="http://www.w3.org/1999/xlink" xml:space="preserve" overflow="hidden"><defs><clipPath id="clip0"><rect x="0" y="0" width="605" height="26"/></clipPath></defs><g clip-path="url(#clip0)"><path d="M0.745333 0.272381C3.80095 0.198095 6.84914 0.453143 9.90476 0.492762 26.6562 1.05981 43.4126 1.54514 60.169 2.01067 65.2154 2.20629 70.2693 2.16419 75.3183 2.36971 87.7661 2.62476 100.211 2.94171 112.662 3.13981 120.174 3.24133 127.685 3.49143 135.2 3.46419 142.215 3.65981 149.23 3.75143 156.248 3.87524 162.082 4.03124 167.92 3.86038 173.757 4.0659 180.051 4.24419 186.348 4.17733 192.645 4.22686 200.98 4.48686 209.32 4.45219 217.657 4.45219 220.299 4.40762 222.936 4.57352 225.578 4.60571 231.769 4.68 237.959 4.70229 244.152 4.69981 273.535 5.07371 302.92 4.91276 332.305 4.94743 353.189 4.91524 374.073 5.06876 394.952 4.69981 401.472 4.68743 407.994 4.73448 414.514 4.65524 418.395 4.65029 422.272 4.40267 426.152 4.45219 432.922 4.4819 439.69 4.39029 446.46 4.3061 452.407 4.12781 458.36 4.26152 464.31 4.07086 491.38 3.692 518.45 3.12248 545.51 2.26324 556.796 1.88438 568.08 1.46095 579.362 0.898857 583.915 0.693333 588.464 0.309524 593.025 0.26 592.817 2.14686 592.617 4.03619 592.446 5.928 592.065 11.7817 592.429 17.6503 593.025 23.4743 572.822 24.4796 552.599 25.0813 532.374 25.3413 524.95 25.6385 517.521 25.4429 510.095 25.532 496.229 25.6013 482.362 25.4973 468.498 25.5072 459.695 25.1606 450.882 25.4032 442.079 25.1135 437.842 24.955 433.603 25.0838 429.369 24.9303 426.316 24.8362 423.263 24.7916 420.21 24.7669 416.988 24.7867 413.771 24.544 410.55 24.5514 406.751 24.5415 402.958 24.3781 399.159 24.3162 393.957 24.3286 388.762 24.071 383.559 24.0339 378.936 24.0017 374.318 23.7219 369.695 23.7714 363.175 23.608 356.653 23.4173 350.131 23.3158 344.354 23.3059 338.579 23.0063 332.802 23.0236 325.869 22.7884 318.931 22.724 311.998 22.5482 308.776 22.5705 305.559 22.4813 302.34 22.3625 295.325 22.3006 288.313 22.0505 281.295 22.0232 274.362 21.7979 267.424 21.8573 260.49 21.6592 255.211 21.5651 249.929 21.5404 244.65 21.5379 238.789 21.3596 232.928 21.2903 227.067 21.3002 220.626 21.3745 214.19 21.1095 207.752 21.0947 194.049 21.008 180.348 21.0724 166.645 21.0526 152.533 21.0749 138.419 20.9931 124.305 21.1293 121.333 21.1318 118.362 21.221 115.39 21.3002 108.457 21.2878 101.521 21.3002 94.588 21.5478 87.1594 21.4512 79.7358 21.8375 72.3072 21.8053 68.7564 21.8648 65.208 22.043 61.6571 22.0554 55.3825 22.0827 49.1128 22.3501 42.8381 22.4145 29.6326 22.781 16.427 23.1078 3.224 23.551 2.48857 23.5857 1.75314 23.613 1.01524 23.5832 0.272381 20.6539 0.215429 17.6156 0.242667 14.6095 0.163429 9.82305 0.735429 5.05886 0.745333 0.272381M518.514 6.15581C516.036 6.14838 513.559 6.23257 511.086 6.33905 507.542 6.49752 503.986 6.28705 500.448 6.56933 497.061 6.66838 493.673 6.64114 490.288 6.69809 484.766 7.01257 479.232 6.80705 473.708 7.03733 467.433 7.24533 461.148 7.02495 454.876 7.31962 448.027 7.51029 441.17 7.26267 434.324 7.56724 426.898 7.7381 419.467 7.54743 412.041 7.77029 399.575 7.956 387.108 7.86438 374.643 7.92381 368.455 8.15657 362.264 8.03029 356.074 8.08971 328.504 8.164 300.934 8.09962 273.364 8.03524 269.739 7.83714 266.104 7.92876 262.476 7.90895 252.485 7.87429 242.496 7.89905 232.507 7.79505 227.807 7.56724 223.102 7.69352 218.4 7.65143 212.955 7.64152 207.507 7.6341 202.065 7.43105 194.386 7.35924 186.702 7.51276 179.031 7.18095 172.345 7.14133 165.657 7.20571 158.974 6.93086 150.057 6.97295 141.145 6.64362 132.229 6.62133 129.336 6.64362 126.452 6.36876 123.559 6.41086 123.706 7.73562 123.77 9.06781 123.775 10.4 123.884 11.3187 122.95 11.9699 123.146 12.8985 123.307 14.508 122.524 16.0705 122.881 17.675 122.973 17.7741 123.158 17.9747 123.25 18.0762 125.996 18.101 128.75 18.1356 131.493 17.9672 150.968 17.8608 170.446 17.8335 189.924 17.8905 195.78 17.9549 201.641 17.8162 207.495 18.0787 217.486 18.1307 227.48 18.0267 237.467 18.3164 242.833 18.3684 248.198 18.351 253.562 18.455 257.935 18.6556 262.31 18.5739 266.686 18.6507 269.989 18.6432 273.287 18.871 276.59 18.8339 280.06 18.8537 283.529 18.8413 286.995 19.0493 291.121 19.1286 295.251 19.0815 299.379 19.1954 302.427 19.3935 305.48 19.3242 308.533 19.3787 311.341 19.3688 314.142 19.5792 316.95 19.5693 320.419 19.5916 323.891 19.604 327.355 19.7996 330.992 19.8491 334.632 19.8145 338.267 20.025 341.724 20.1215 345.186 20.0695 348.643 20.2008 351.28 20.379 353.927 20.3023 356.571 20.3568 359.461 20.3444 362.346 20.5623 365.236 20.5623 368.539 20.5846 371.847 20.5945 375.145 20.7876 378.696 20.8347 382.247 20.8322 385.798 20.9585 389.594 21.1021 393.392 21.0402 397.188 21.1937 400.732 21.3844 404.283 21.2853 407.829 21.3844 413.64 21.6617 419.459 21.528 425.273 21.7434 429.116 21.845 432.962 21.7979 436.802 21.9316 443.652 22.1941 450.508 21.9366 457.355 22.2709 469.897 22.3872 482.444 22.2238 494.986 22.5135 502.828 22.5853 510.67 22.5086 518.514 22.5408 521.077 22.6002 523.628 22.261 526.19 22.313 532.963 22.3749 539.73 22.0208 546.503 22.0406 549.387 21.9217 552.272 21.8227 555.162 21.8177 557.806 21.845 560.441 21.575 563.086 21.5874 565.896 21.6122 568.692 21.3027 571.505 21.3225 573.159 21.3596 574.803 21.1368 576.457 21.0996 580.845 21.0006 585.23 20.7282 589.616 20.5549 589.588 19.2251 589.418 17.9053 589.353 16.5806 588.974 12.2076 589.066 7.78762 589.613 3.432 565.936 4.80629 542.221 5.49219 518.514 6.15581Z" fill="#7BB635" transform="scale(1.0193 1)"/><path d="M518.514 6.15581C542.221 5.49219 565.936 4.80629 589.613 3.432 589.066 7.78762 588.974 12.2076 589.353 16.5806 589.418 17.9053 589.588 19.2251 589.616 20.5549 585.23 20.7282 580.845 21.0006 576.457 21.0996 574.803 21.1368 573.159 21.3596 571.505 21.3225 568.692 21.3027 565.896 21.6122 563.086 21.5874 560.441 21.575 557.806 21.845 555.162 21.8177 552.272 21.8227 549.387 21.9217 546.503 22.0406 539.73 22.0208 532.963 22.3749 526.19 22.313 523.628 22.261 521.077 22.6002 518.514 22.5408 510.67 22.5086 502.828 22.5853 494.986 22.5135 482.444 22.2238 469.897 22.3872 457.355 22.2709 450.508 21.9366 443.652 22.1941 436.802 21.9316 432.962 21.7979 429.116 21.845 425.273 21.7434 419.459 21.528 413.64 21.6617 407.829 21.3844 404.283 21.2853 400.732 21.3844 397.188 21.1937 393.392 21.0402 389.594 21.1021 385.798 20.9585 382.247 20.8322 378.696 20.8347 375.145 20.7876 371.847 20.5945 368.539 20.5846 365.236 20.5623 362.346 20.5623 359.461 20.3444 356.571 20.3568 353.927 20.3023 351.28 20.379 348.643 20.2008 345.186 20.0695 341.724 20.1215 338.267 20.025 334.632 19.8145 330.992 19.8491 327.355 19.7996 323.891 19.604 320.419 19.5916 316.95 19.5693 314.142 19.5792 311.341 19.3688 308.533 19.3787 305.48 19.3242 302.427 19.3935 299.379 19.1954 295.251 19.0815 291.121 19.1286 286.995 19.0493 283.529 18.8413 280.06 18.8537 276.59 18.8339 273.287 18.871 269.989 18.6432 266.686 18.6507 262.31 18.5739 257.935 18.6556 253.562 18.455 248.198 18.351 242.833 18.3684 237.467 18.3164 227.48 18.0267 217.486 18.1307 207.495 18.0787 201.641 17.8162 195.78 17.9549 189.924 17.8905 170.446 17.8335 150.968 17.8608 131.493 17.9672 128.75 18.1356 125.996 18.101 123.25 18.0762 123.158 17.9747 122.973 17.7741 122.881 17.675 122.524 16.0705 123.307 14.508 123.146 12.8985 122.95 11.9699 123.884 11.3187 123.775 10.4 123.77 9.06781 123.706 7.73562 123.559 6.41086 126.452 6.36876 129.336 6.64362 132.229 6.62133 141.145 6.64362 150.057 6.97295 158.974 6.93086 165.657 7.20571 172.345 7.14133 179.031 7.18095 186.702 7.51276 194.386 7.35924 202.065 7.43105 207.507 7.6341 212.955 7.64152 218.4 7.65143 223.102 7.69352 227.807 7.56724 232.507 7.79505 242.496 7.89905 252.485 7.87429 262.476 7.90895 266.104 7.92876 269.739 7.83714 273.364 8.03524 300.934 8.09962 328.504 8.164 356.074 8.08971 362.264 8.03029 368.455 8.15657 374.643 7.92381 387.108 7.86438 399.575 7.956 412.041 7.77029 419.467 7.54743 426.898 7.7381 434.324 7.56724 441.17 7.26267 448.027 7.51029 454.876 7.31962 461.148 7.02495 467.433 7.24533 473.708 7.03733 479.232 6.80705 484.766 7.01257 490.288 6.69809 493.673 6.64114 497.061 6.66838 500.448 6.56933 503.986 6.28705 507.542 6.49752 511.086 6.33905 513.559 6.23257 516.036 6.14838 518.514 6.15581Z" fill="#FFFFFF" transform="scale(1.0193 1)"/></g></svg>