<svg width="605" height="26" xmlns="http://www.w3.org/2000/svg" xmlns:xlink="http://www.w3.org/1999/xlink" xml:space="preserve" overflow="hidden"><defs><clipPath id="clip0"><rect x="0" y="0" width="605" height="26"/></clipPath></defs><g clip-path="url(#clip0)"><path d="M0.752762 0.272381C1.49067 0.29219 2.23105 0.269905 2.97143 0.262476 23.093 0.960762 43.2194 1.54762 63.3459 2.09981 78.6314 2.41676 93.912 2.80552 109.198 3.09276 117.206 3.16457 125.211 3.44438 133.219 3.46419 143.619 3.61771 154.019 3.91238 164.419 3.9619 169.622 3.89257 174.819 4.14019 180.019 4.17238 184.144 4.22438 188.272 4.18971 192.398 4.2219 201.723 4.52152 211.051 4.42248 220.378 4.4621 227.639 4.72705 234.906 4.65524 242.171 4.70476 246.71 4.6701 251.249 4.82857 255.79 4.83352 282.781 5.02419 309.771 4.9301 336.762 4.95238 355.994 4.92514 375.23 5.05143 394.46 4.70476 402.121 4.68743 409.785 4.75429 417.449 4.61067 424.637 4.34819 431.833 4.50419 439.026 4.39524 444.806 4.3581 450.582 4.17981 456.362 4.19467 483.191 3.81829 510.021 3.33048 536.843 2.53314 552.874 2.04781 568.905 1.48324 584.918 0.601714 587.617 0.472952 590.314 0.26 593.018 0.257524 592.825 2.06514 592.651 3.87771 592.453 5.68781 592.06 11.6208 592.411 17.5735 593.028 23.4743 572.74 24.4796 552.436 25.0789 532.126 25.3488 525.363 25.6162 518.594 25.4602 511.829 25.5196 497.467 25.6013 483.105 25.5097 468.743 25.5048 459.497 25.1655 450.241 25.4008 440.995 25.0838 438.028 24.9971 435.062 25.0244 432.098 25.0021 428.299 24.8981 424.503 24.7916 420.705 24.7718 417.151 24.7817 413.608 24.5415 410.057 24.5415 406.912 24.5465 403.775 24.393 400.633 24.3484 397.337 24.232 394.036 24.3509 390.743 24.1676 387.279 24.0562 383.81 24.0512 380.345 23.9844 374.484 23.7442 368.618 23.7962 362.759 23.5931 355.088 23.3381 347.41 23.3554 339.741 23.1004 329.913 23.0013 320.092 22.6547 310.267 22.5333 307.209 22.5779 304.158 22.3872 301.102 22.3352 295.323 22.313 289.548 22.0678 283.771 22.0505 279.312 21.9985 274.857 21.8474 270.4 21.8152 265.198 21.8177 260 21.6122 254.798 21.5825 250.08 21.4983 245.361 21.6221 240.644 21.429 233.809 21.268 226.97 21.3076 220.136 21.2853 206.517 20.956 192.895 21.0699 179.276 21.0476 164.501 21.0501 149.728 21.0476 134.952 21.0501 128.596 21.1219 122.237 21.0798 115.883 21.2878 109.034 21.3398 102.178 21.2556 95.3309 21.5305 89.388 21.5404 83.4451 21.6023 77.5048 21.788 71.5594 21.7112 65.6215 22.0703 59.6762 22.0728 57.777 22.0752 55.8777 22.1446 53.9785 22.1669 48.781 22.365 43.5785 22.3501 38.3785 22.5309 29.7143 22.8008 21.0451 22.9518 12.381 23.2811 8.59238 23.2985 4.80629 23.5758 1.02019 23.5684 0.0693333 19.916 0.267429 16.1175 0.247619 12.3834 0.341714 8.34229 0.728 4.316 0.752762 0.272381M586.592 3.5979C564.002 4.87562 541.379 5.50457 518.762 6.15333 516.367 6.15581 513.975 6.19543 511.586 6.32419 507.874 6.50495 504.152 6.27467 500.448 6.56933 496.238 6.7179 492.022 6.5619 487.817 6.81448 484.43 6.89619 481.042 6.9061 477.655 6.9259 471.219 7.1661 464.778 7.13638 458.34 7.1859 450.01 7.6019 441.663 7.21314 433.333 7.58952 425.905 7.72571 418.474 7.54 411.048 7.79752 404.198 7.88419 397.347 7.87181 390.495 7.89657 384.057 7.95105 377.614 7.79257 371.178 8.03771 344.438 8.16152 317.695 8.12686 290.952 8.07486 283.853 8.01295 276.751 8.16648 269.657 7.90895 259.084 7.90895 248.513 7.88667 237.94 7.83962 237.529 7.78762 237.028 7.92381 236.984 8.40914 236.397 10.7318 236.786 13.1659 236.59 15.5307 236.367 15.964 236.082 16.3627 235.85 16.7886 235.659 17.3061 235.899 17.8509 236.048 18.3461 240.649 18.3065 245.247 18.3783 249.848 18.4006 253.151 18.3709 256.447 18.6309 259.752 18.5937 264.21 18.6408 268.669 18.6061 273.121 18.8091 277.004 18.871 280.892 18.7992 284.772 18.9453 288.726 19.1756 292.691 19.0617 296.648 19.1434 298.879 19.1013 301.102 19.3465 303.333 19.3316 307.053 19.3712 310.772 19.3514 314.489 19.5396 318.119 19.6189 321.751 19.547 325.381 19.708 329.009 19.9284 332.646 19.7575 336.279 19.9383 339.572 20.129 342.873 20.067 346.171 20.1339 348.155 20.1265 350.128 20.3394 352.112 20.3196 355.583 20.3493 359.058 20.337 362.527 20.5227 366.3 20.6217 370.079 20.5251 373.85 20.7257 376.094 20.8693 378.342 20.7975 380.59 20.8421 384.634 20.8867 388.678 21.0872 392.724 21.0872 395.779 21.0773 398.828 21.3349 401.886 21.315 405.021 21.3423 408.16 21.3398 411.293 21.5305 415.173 21.5825 419.053 21.5726 422.933 21.684 428.46 21.8722 433.994 21.7682 439.521 22.0232 443.897 22.0752 448.272 22.0728 452.648 22.1173 454.794 22.1099 456.936 22.3105 459.086 22.2981 467.091 22.3179 475.099 22.3204 483.105 22.3526 488.718 22.3229 494.329 22.5853 499.943 22.5457 506.879 22.5333 513.814 22.5606 520.75 22.5259 524.207 22.2387 527.676 22.3253 531.143 22.3006 533.867 22.3402 536.588 22.1074 539.314 22.1173 542.694 22.0331 546.079 22.1198 549.457 21.9242 552.839 21.7707 556.229 21.9143 559.609 21.6766 561.989 21.5478 564.378 21.632 566.76 21.4958 569.573 21.2358 572.406 21.4438 575.217 21.1516 580.02 21.0229 584.819 20.753 589.621 20.5648 589.583 19.2326 589.427 17.9078 589.353 16.5806 588.977 12.2076 589.068 7.79505 589.611 3.43943 588.6 3.45429 587.595 3.49886 586.592 3.5979Z" fill="#7BB636" transform="scale(1.0193 1)"/><path d="M586.592 3.5979C587.595 3.49886 588.6 3.45429 589.611 3.43943 589.068 7.79505 588.977 12.2076 589.353 16.5806 589.427 17.9078 589.583 19.2326 589.621 20.5648 584.819 20.753 580.02 21.0229 575.217 21.1516 572.406 21.4438 569.573 21.2358 566.76 21.4958 564.378 21.632 561.989 21.5478 559.609 21.6766 556.229 21.9143 552.839 21.7707 549.457 21.9242 546.079 22.1198 542.694 22.0331 539.314 22.1173 536.588 22.1074 533.867 22.3402 531.143 22.3006 527.676 22.3253 524.207 22.2387 520.75 22.5259 513.814 22.5606 506.879 22.5333 499.943 22.5457 494.329 22.5853 488.718 22.3229 483.105 22.3526 475.099 22.3204 467.091 22.3179 459.086 22.2981 456.936 22.3105 454.794 22.1099 452.648 22.1173 448.272 22.0728 443.897 22.0752 439.521 22.0232 433.994 21.7682 428.46 21.8722 422.933 21.684 419.053 21.5726 415.173 21.5825 411.293 21.5305 408.16 21.3398 405.021 21.3423 401.886 21.315 398.828 21.3349 395.779 21.0773 392.724 21.0872 388.678 21.0872 384.634 20.8867 380.59 20.8421 378.342 20.7975 376.094 20.8693 373.85 20.7257 370.079 20.5251 366.3 20.6217 362.527 20.5227 359.058 20.337 355.583 20.3493 352.112 20.3196 350.128 20.3394 348.155 20.1265 346.171 20.1339 342.873 20.067 339.572 20.129 336.279 19.9383 332.646 19.7575 329.009 19.9284 325.381 19.708 321.751 19.547 318.119 19.6189 314.489 19.5396 310.772 19.3514 307.053 19.3712 303.333 19.3316 301.102 19.3465 298.879 19.1013 296.648 19.1434 292.691 19.0617 288.726 19.1756 284.772 18.9453 280.892 18.7992 277.004 18.871 273.121 18.8091 268.669 18.6061 264.21 18.6408 259.752 18.5937 256.447 18.6309 253.151 18.3709 249.848 18.4006 245.247 18.3783 240.649 18.3065 236.048 18.3461 235.899 17.8509 235.659 17.3061 235.85 16.7886 236.082 16.3627 236.367 15.964 236.59 15.5307 236.786 13.1659 236.397 10.7318 236.984 8.40914 237.028 7.92381 237.529 7.78762 237.94 7.83962 248.513 7.88667 259.084 7.90895 269.657 7.90895 276.751 8.16648 283.853 8.01295 290.952 8.07486 317.695 8.12686 344.438 8.16152 371.178 8.03771 377.614 7.79257 384.057 7.95105 390.495 7.89657 397.347 7.87181 404.198 7.88419 411.048 7.79752 418.474 7.54 425.905 7.72571 433.333 7.58952 441.663 7.21314 450.01 7.6019 458.34 7.1859 464.778 7.13638 471.219 7.1661 477.655 6.9259 481.042 6.9061 484.43 6.89619 487.817 6.81448 492.022 6.5619 496.238 6.7179 500.448 6.56933 504.152 6.27467 507.874 6.50495 511.586 6.32419 513.975 6.19543 516.367 6.15581 518.762 6.15333 541.379 5.50457 564.002 4.87562 586.592 3.5979Z" fill="#FFFFFF" transform="scale(1.0193 1)"/></g></svg>