<svg width="407" height="550" xmlns="http://www.w3.org/2000/svg" xmlns:xlink="http://www.w3.org/1999/xlink" xml:space="preserve" overflow="hidden"><defs><clipPath id="clip0"><rect x="173" y="349" width="407" height="550"/></clipPath></defs><g clip-path="url(#clip0)" transform="translate(-173 -349)"><path d="M281.224 57.5332C300.359 47.9016 324.908 50.1391 342.01 63.0628 354.175 72.5403 360.991 89.1418 357.236 104.342 355.037 113.292 349.006 120.597 342.563 126.91 357.828 127 373.182 127.656 388.33 125.573 418.756 124.532 449.182 126.113 479.594 125.637 484.609 125.418 489.47 124.016 494.305 122.744 497.238 130.935 501.147 139.063 500.902 147.986 502.175 160.808 502.059 173.706 501.48 186.552 502.535 194.255 500.234 201.855 500.465 209.571 500.606 224.964 500.246 240.369 500.619 255.762 501.262 262.217 501.185 268.711 501.287 275.193 502.111 283.718 503.063 292.283 502.394 300.86 491.116 296.925 480.79 290.637 469.319 287.268 463.095 285.236 456.473 285.815 450.043 285.75 443.973 285.236 438.932 289.35 434.817 293.285 428.143 300.294 424.169 311.122 428.041 320.458 431.5 327.3 437.505 332.366 443.125 337.394 450.84 343.721 461.385 343.553 470.772 342.615 480.661 341.033 490.165 337.587 499.244 333.394 499.86 333.524 501.095 333.755 501.712 333.87 501.879 338.333 502.523 342.744 503.063 347.167 503.551 356.259 502.548 365.44 503.885 374.481 505.082 380.666 503.962 387.032 505.197 393.217 506.38 399.274 505.39 405.485 506.123 411.581 508.489 423.398 505.789 435.588 508.387 447.394 508.58 458.89 508.824 470.451 507.615 481.921 507.319 486.345 507.743 490.962 505.75 495.077 497.083 494.498 488.338 494.395 479.735 495.758 465.59 497.045 451.316 494.858 437.183 496.62 427.77 498.098 418.203 496.543 408.803 498.176 385.218 499.295 361.737 501.931 338.333 504.889 343.258 511.19 347.27 518.288 349.778 525.901 352.864 535.044 352.183 544.856 352.092 554.359 351.63 562.486 350.177 572.118 342.654 576.824 328.675 586.302 310.891 586.096 294.688 585.568 278.87 582.791 264.288 573.249 255.544 559.747 251.995 554.089 246.361 548.662 247.095 541.435 248.625 527.547 254.219 514.031 263.465 503.487 254.129 502.085 244.677 502.163 235.341 503.358 217.659 504.053 200.004 505.364 182.322 506.046 172.253 507.756 161.952 507.036 151.793 506.83 146.894 505.84 141.853 505.866 137.018 504.515 134.201 499.797 134.471 494.048 133.906 488.762 133.854 479.735 133.455 470.708 133.61 461.68 134.33 439.858 138.047 417.945 135.114 396.136 133.931 385.27 128.62 375.111 129.238 364 129.02 355.5 131.912 346.884 138.406 341.162 150.919 343.798 163.225 348.388 176.226 347.977 189.201 347.784 203.9 343.746 210.972 331.902 214.29 325.975 218.842 319.532 217.659 312.434 213.57 299.921 203.128 289.274 190.166 286.252 182.605 286.277 175.596 289.827 168.344 291.627 156.924 295.382 145.582 299.407 134.15 303.123 132.401 296.861 129.495 290.765 129.418 284.156 129.482 269.187 130.087 254.18 128.955 239.225 126.691 218.984 122.358 199.014 120.095 178.759 120.005 167.816 118.731 156.462 122.461 145.929 124.093 140.734 126.949 136.053 129.829 131.475 148.257 130.935 166.698 130.781 185.125 130.215 199.695 128.904 214.354 129.764 228.924 128.389 243.121 127.797 257.382 128.569 271.567 127.514 265.213 126.254 258.694 127.862 252.367 126.614 258.257 125.868 264.211 126.46 270.126 126.293 264.339 116.79 258.797 106.592 258.166 95.2372 257.343 79.5358 267.31 64.4002 281.224 57.5332M288.116 65.4547C280.542 68.6181 274.717 74.9321 271 82.1335 268.416 88.3188 268.866 95.1729 269.779 101.667 273.585 113.794 281.429 123.939 288.027 134.626 275.18 138.998 261.485 137.519 248.174 137.764 230.982 137.443 213.853 139.23 196.66 139.409 182.154 140.901 167.546 140.477 153.027 141.737 148.27 141.827 143.512 141.724 138.766 141.699 137.687 141.492 135.526 141.081 134.445 140.876 124.12 166.363 132.272 193.869 136.066 219.807 141.055 242.98 140.335 266.834 139.101 290.367 153.555 287.551 166.659 279.591 181.422 278.009 188.995 277.97 197.187 276.762 204.093 280.697 212.207 285.416 220.501 291.344 224.179 300.333 229.271 312.279 227.523 326.695 220.206 337.343 212.258 348.144 199.811 355.397 186.54 357.236 170.645 359.307 154.61 356.876 139.191 352.902 138.034 369.259 142.92 385.103 145.646 401.048 146.084 410.089 145.801 419.142 145.698 428.182 143.962 442.713 144.913 457.385 144.309 471.969 143.383 477.459 143.293 483.028 142.868 488.557 142.097 491.181 141.968 493.907 141.737 496.608 177.281 497.649 212.709 493.945 248.2 492.891 260.957 492.415 273.791 492.839 286.368 495.193 277.122 506.856 266.114 517.478 259.71 531.109 258.128 534.646 256.174 538.837 257.999 542.67 265.51 557.496 279.321 569.675 295.858 573.057 305.22 575.409 314.761 572.812 324.02 571.218 330.257 570.06 337.021 567.039 339.593 560.801 341.445 551.967 342.615 542.734 341.033 533.771 337.291 522.544 329.099 513.517 324.457 502.754 325.422 500.015 327.158 496.722 330.412 496.401 344.183 493.662 358.11 491.734 371.999 489.727 384.318 489.148 396.573 487.978 408.906 487.785 417.752 486.23 426.806 487.22 435.653 485.754 456.562 485.239 477.485 485.677 498.407 485.548 498.588 469.396 496.478 453.335 496.504 437.183 495.539 425.61 495.257 413.998 495.141 402.398 493.778 384.858 493.933 367.253 492.62 349.713 480.918 352.851 468.727 354.342 456.64 353.481 443.755 353.185 432.22 345.354 424.311 335.619 416.994 326.399 412.146 313.861 416.03 302.185 420.427 286.354 435.923 274.048 452.589 274.871 466.439 274.138 479.504 279.437 492.376 283.77 492.209 280.067 491.9 276.376 491.541 272.697 489.393 251.66 489.393 230.519 489.779 209.404 490.242 203.848 490.795 198.293 491.553 192.764 493.649 173.59 491.681 154.301 489.187 135.268 473.601 134.497 457.977 135.102 442.366 134.909 426.484 135.076 410.577 133.996 394.721 135.153 382.762 136.374 370.803 138.059 358.754 137.776 346.55 137.596 334.321 138.162 322.143 137.313 326.091 128.453 332.971 121.457 339.388 114.372 343.965 109.036 348.273 102.58 347.836 95.2115 347.206 84.6539 341.097 74.7392 332.315 68.9396 319.493 60.2981 302.172 59.1793 288.116 65.4547Z" transform="matrix(1 0 0 1.00173 59.5432 307.774)"/><path d="M268.056 208.851C287.422 197.315 310.582 192.352 333.009 193.908 348.029 195.245 364.271 198.589 375.214 209.789 384.562 219.112 385.951 234.171 381.052 246.027 376.692 255.967 368.334 263.414 359.744 269.701 353.031 274.575 345.971 278.973 338.512 282.587 354.163 283.693 370.777 286.702 383.007 297.311 391.686 304.513 397.64 315.16 398.154 326.528 399.145 348.762 387.597 370.996 368.887 383.045 347.939 396.611 322.863 401.936 298.366 404.404 288.606 405.099 278.421 406.642 268.904 403.595 262.487 401.563 259.813 392.638 263.915 387.379 267.747 383.263 273.933 383.521 279.102 383.534 300.809 384.253 322.965 382.119 343.309 374.159 354.638 369.903 365.234 362.431 371.047 351.578 375.664 342.692 378.338 332.109 375.83 322.207 373.336 313.141 364.72 307.534 356.181 304.924 339.992 299.999 322.863 299.895 306.107 300.487 291.846 299.728 279.372 310.286 265.008 308.229 255.44 306.094 254.668 290.315 263.837 286.972 275.077 283.23 287.139 283.011 298.468 279.591 315.443 274.601 332.366 268.377 347.051 258.321 355.718 252.38 362.842 242.503 361.647 231.535 361.236 225.311 355.628 221.466 350.395 219.293 336.918 213.789 321.757 212.799 307.534 215.563 295.986 218.033 284.065 222.019 275.733 230.789 269.753 237.99 254.977 233.643 255.479 223.742 255.672 216.502 262.693 212.413 268.056 208.851Z" transform="matrix(1 0 0 1.00173 59.5432 307.774)"/><path d="M288.116 65.4547C302.172 59.1793 319.493 60.2981 332.315 68.9396 341.097 74.7392 347.206 84.6539 347.836 95.2115 348.273 102.58 343.965 109.036 339.388 114.372 332.971 121.457 326.091 128.453 322.143 137.313 334.321 138.162 346.55 137.596 358.754 137.776 370.803 138.059 382.762 136.374 394.721 135.153 410.577 133.996 426.484 135.076 442.366 134.909 457.977 135.102 473.601 134.497 489.187 135.268 491.681 154.301 493.649 173.59 491.553 192.764 490.795 198.293 490.242 203.848 489.779 209.404 489.393 230.519 489.393 251.66 491.541 272.697 491.9 276.376 492.209 280.067 492.376 283.77 479.504 279.437 466.439 274.138 452.589 274.871 435.923 274.048 420.427 286.354 416.03 302.185 412.146 313.861 416.994 326.399 424.311 335.619 432.22 345.354 443.755 353.185 456.64 353.481 468.727 354.342 480.918 352.851 492.62 349.713 493.933 367.253 493.778 384.858 495.141 402.398 495.257 413.998 495.539 425.61 496.504 437.183 496.478 453.335 498.588 469.396 498.407 485.548 477.485 485.677 456.562 485.239 435.653 485.754 426.806 487.22 417.752 486.23 408.906 487.785 396.573 487.978 384.318 489.148 371.999 489.727 358.11 491.734 344.183 493.662 330.412 496.401 327.158 496.722 325.422 500.015 324.457 502.754 329.099 513.517 337.291 522.544 341.033 533.771 342.615 542.734 341.445 551.967 339.593 560.801 337.021 567.039 330.257 570.06 324.02 571.218 314.761 572.812 305.22 575.409 295.858 573.057 279.321 569.675 265.51 557.496 257.999 542.67 256.174 538.837 258.128 534.646 259.71 531.109 266.114 517.478 277.122 506.856 286.368 495.193 273.791 492.839 260.957 492.415 248.2 492.891 212.709 493.945 177.281 497.649 141.737 496.608 141.968 493.907 142.097 491.181 142.868 488.557 143.293 483.028 143.383 477.459 144.309 471.969 144.913 457.385 143.962 442.713 145.698 428.182 145.801 419.142 146.084 410.089 145.646 401.048 142.92 385.103 138.034 369.259 139.191 352.902 154.61 356.876 170.645 359.307 186.54 357.236 199.811 355.397 212.258 348.144 220.206 337.343 227.523 326.695 229.271 312.279 224.179 300.333 220.501 291.344 212.207 285.416 204.093 280.697 197.187 276.762 188.995 277.97 181.422 278.009 166.659 279.591 153.555 287.551 139.101 290.367 140.335 266.834 141.055 242.98 136.066 219.807 132.272 193.869 124.12 166.363 134.445 140.876 135.526 141.081 137.687 141.492 138.766 141.699 143.512 141.724 148.27 141.827 153.027 141.737 167.546 140.477 182.154 140.901 196.66 139.409 213.853 139.23 230.982 137.443 248.174 137.764 261.485 137.519 275.18 138.998 288.027 134.626 281.429 123.939 273.585 113.794 269.779 101.667 268.866 95.1729 268.416 88.3188 271 82.1335 274.717 74.9321 280.542 68.6181 288.116 65.4547M268.056 208.851C262.693 212.413 255.672 216.502 255.479 223.742 254.977 233.643 269.753 237.99 275.733 230.789 284.065 222.019 295.986 218.033 307.534 215.563 321.757 212.799 336.918 213.789 350.395 219.293 355.628 221.466 361.236 225.311 361.647 231.535 362.842 242.503 355.718 252.38 347.051 258.321 332.366 268.377 315.443 274.601 298.468 279.591 287.139 283.011 275.077 283.23 263.837 286.972 254.668 290.315 255.44 306.094 265.008 308.229 279.372 310.286 291.846 299.728 306.107 300.487 322.863 299.895 339.992 299.999 356.181 304.924 364.72 307.534 373.336 313.141 375.83 322.207 378.338 332.109 375.664 342.692 371.047 351.578 365.234 362.431 354.638 369.903 343.309 374.159 322.965 382.119 300.809 384.253 279.102 383.534 273.933 383.521 267.747 383.263 263.915 387.379 259.813 392.638 262.487 401.563 268.904 403.595 278.421 406.642 288.606 405.099 298.366 404.404 322.863 401.936 347.939 396.611 368.887 383.045 387.597 370.996 399.145 348.762 398.154 326.528 397.64 315.16 391.686 304.513 383.007 297.311 370.777 286.702 354.163 283.693 338.512 282.587 345.971 278.973 353.031 274.575 359.744 269.701 368.334 263.414 376.692 255.967 381.052 246.027 385.951 234.171 384.562 219.112 375.214 209.789 364.271 198.589 348.029 195.245 333.009 193.908 310.582 192.352 287.422 197.315 268.056 208.851Z" fill="#F3DD81" transform="matrix(1 0 0 1.00173 59.5432 307.774)"/></g></svg>