<svg width="425" height="574" xmlns="http://www.w3.org/2000/svg" xmlns:xlink="http://www.w3.org/1999/xlink" xml:space="preserve" overflow="hidden"><defs><clipPath id="clip0"><rect x="143" y="63" width="425" height="574"/></clipPath><clipPath id="clip1"><rect x="143" y="63" width="422" height="574"/></clipPath><clipPath id="clip2"><rect x="138" y="63" width="427" height="574"/></clipPath><clipPath id="clip3"><rect x="138" y="63" width="427" height="574"/></clipPath></defs><g clip-path="url(#clip0)" transform="translate(-143 -63)"><g clip-path="url(#clip1)"><g clip-path="url(#clip2)"><g clip-path="url(#clip3)"><path d="M274.549 27.8656C289.042 17.2927 308.027 17.5459 325.147 18.2392 341.186 20.9458 356.026 30.5721 365.078 44.0915 368.318 48.7714 371.972 53.3045 373.985 58.6776 375.492 65.424 373.052 72.1971 371.265 78.6369 368.625 87.8098 363.478 95.9961 357.546 103.369 371.692 105.716 385.865 103.236 399.984 102.382 410.704 102.809 421.263 100.529 431.969 100.942 440.902 101.169 449.702 99.1427 458.648 99.5294 468.834 99.196 478.981 100.302 488.994 102.196 490.674 107.516 491.754 113.036 491.794 118.636 491.941 131.541 492.621 144.448 491.581 157.327 490.314 176.886 487.847 196.619 490.781 216.151 492.087 226.005 496.58 235.257 496.633 245.31 496.913 254.056 495.366 263.829 488.554 270.003 486.714 272.496 483.461 270.856 481.047 270.336 463.702 264.949 444.288 261.349 426.916 268.616 415.796 272.696 409.277 283.642 405.477 294.255 404.024 297.695 404.691 301.535 406.264 304.815 411.157 316.214 421.276 325.774 433.556 328.494 439.968 328.6 445.968 325.734 452.115 324.267L453.182 323.774C466.062 319.8 478.714 315.147 491.541 311.014 493.487 317.454 496.206 323.8 496.433 330.614 496.5 350.079 495.193 369.732 498.393 389.037 500.966 404.037 503.126 419.089 505.553 434.116 506.58 443.128 506.5 452.248 506.18 461.315 505.806 471.354 501.446 480.701 496.073 489.007 476.901 489.527 457.715 489.701 438.543 490.327 422.583 491.554 406.544 490.941 390.584 492.234 376.972 492.581 363.358 492.514 349.733 492.701 355.106 502.126 361.038 511.713 362.532 522.672 365.332 539.152 355.813 556.044 341.653 564.244 321.24 576.003 293.775 573.87 275.296 559.324 263.069 549.377 256.376 532.338 260.323 516.846 262.603 507.486 269.336 500.366 275.256 493.141 252.777 491.887 230.47 495.82 208.018 495.486 188.886 495.526 169.754 495.1 150.634 494.913 139.741 494.273 128.648 494.686 118.182 498.046 115.582 490.834 112.129 483.754 111.582 475.994 109.982 455.328 109.516 434.503 111.596 413.849 112.769 406.171 112.222 398.397 112.262 390.677 112.209 380.465 112.849 370.225 111.636 360.053 110.622 351.599 111.396 343.039 110.409 334.586 109.622 327.52 109.329 320.414 109.729 313.32 122.661 317.88 134.461 325.507 147.967 328.4 155.007 329.28 162.274 329.547 169.287 328.44 181.072 323.667 189.686 310.867 188.259 298.001 186.619 288.562 178.566 282.228 171.927 276.083 163.647 268.829 151.927 268.989 141.635 270.189 131.701 271.936 122.155 275.456 112.996 279.616 112.382 279.509 111.156 279.269 110.529 279.149 110.049 272.789 109.062 266.456 108.929 260.069 109.449 239.524 106.302 219.125 105.836 198.619 103.756 186.712 105.902 174.553 103.756 162.647 102.609 145.888 104.009 129.115 105.142 112.382 114.689 112.289 124.275 112.742 133.741 111.262 149.54 110.062 165.46 112.356 181.206 109.996 214.165 109.209 247.07 106.022 279.789 101.902 272.483 92.0229 266.389 80.6101 265.723 68.1172 265.389 60.1575 265.136 52.1312 266.189 44.2115 267.149 38.1185 269.136 31.492 274.549 27.8656M308.414 30.692C299.655 32.4654 289.708 32.4254 282.508 38.4252 278.656 41.3184 278.003 46.2915 277.056 50.6513 276.283 58.1176 276.029 65.6373 276.976 73.1038 282.028 83.7833 289.202 93.3029 294.255 103.956 293.268 107.516 290.602 110.889 286.602 110.942 268.029 114.076 249.457 117.876 230.564 118.316 221.725 119.556 212.751 118.849 203.898 119.902 196.459 120.981 188.859 120.248 181.472 121.728 158.94 122.088 136.408 121.808 113.876 121.875 113.969 130.688 114.142 139.515 114.942 148.287 115.809 158.794 115.489 169.354 116.409 179.846 117.369 191.846 116.796 203.885 117.769 215.871 118.756 231.484 118.676 247.137 119.889 262.736 130.795 259.749 142.115 258.323 153.42 258.589 175.672 257.949 195.512 276.043 200.298 297.188 203.791 318.88 184.632 340.813 162.647 340.333 147.82 341.239 133.835 335.746 120.062 331.094 121.275 345.613 122.581 360.146 122.995 374.705 122.688 389.811 123.768 404.984 121.675 420.009 118.556 441.648 120.475 463.622 123.528 485.154 140.555 485.714 157.58 485.287 174.606 485.434 190.192 485.327 205.818 486.341 221.391 485.167 233.79 483.927 246.177 482.167 258.669 482.461 271.349 482.647 284.055 482.021 296.721 482.981 292.682 491.487 286.335 498.526 279.988 505.366 275.016 510.926 270.069 517.473 269.976 525.285 270.083 537.045 277.056 548.124 286.868 554.351 299.508 562.431 316.067 563.711 329.974 558.271 338.746 555.191 345.373 548.164 349.773 540.192 352.173 533.685 351.813 526.685 351.093 519.913 346.813 507.406 338.879 496.753 332.027 485.607 351.106 480.047 371.185 483.527 390.717 482.314 407.571 480.927 424.489 481.367 441.315 479.687 456.502 479.594 471.621 478.007 486.807 478.314 487.927 478.567 490.167 479.047 491.287 479.301 496.833 465.208 497.5 449.675 495.46 434.809 493.221 416.516 489.341 398.477 486.821 380.238 485.781 373.532 486.114 366.692 485.101 359.986 485.007 355.519 485.021 351.039 485.074 346.573 486.034 339.119 486.074 331.574 486.327 324.067 473.461 327.227 461.422 333.04 448.542 336.159 442.662 337.533 436.569 337.213 430.583 337.186 421.183 337.319 413.37 331.16 406.544 325.427 390.824 311.614 391.997 284.802 406.544 270.576 417.41 259.003 433.663 253.443 449.355 254.283 461.902 253.763 474.234 256.589 486.381 259.403 487.434 242.404 482.594 225.925 479.554 209.378 479.234 199.539 479.527 189.686 479.541 179.846 481.607 165.314 480.261 150.567 481.047 135.955 482.247 127.488 482.381 118.889 483.754 110.422 444.648 109.249 405.704 113.702 366.638 114.409 355.626 114.649 344.586 113.862 333.746 111.862 343.919 99.0494 356.226 87.3564 362.518 71.9571 363.278 69.3705 365.225 66.4506 363.678 63.7841 354.093 43.2649 331.707 27.1856 308.414 30.692Z" transform="matrix(1 0 0 1.00005 48.2604 63)"/><path d="M245.31 205.685C267.603 205.818 289.668 202.018 311.894 200.725 324.8 199.979 337.746 199.739 350.653 200.445 355.786 200.831 361.145 201.178 365.852 203.485 371.718 206.218 372.358 215.445 367.465 219.391 364.292 222.125 362.052 225.698 359.933 229.257 347.759 249.43 336.893 270.443 328.494 292.468 337.719 291.988 346.839 290.442 355.973 289.228 359.773 288.348 363.572 292.215 362.878 295.975 361.678 302.201 356.773 308.014 350.333 309.067 340.999 310.894 331.44 310.96 322 311.84 314.2 336.226 309.614 361.492 306.201 386.824 305.268 393.944 302.388 401.477 296.135 405.531 292.495 407.971 286.788 407.464 284.642 403.291 280.682 395.971 278.789 387.757 276.429 379.838 275.349 375.225 273.629 369.252 277.563 365.492 280.602 362.772 284.615 364.852 287.762 366.185 291.068 347.999 295.321 329.974 300.335 312.174 290.522 312.587 280.655 313.707 270.856 312.654 264.856 312.014 260.203 305.441 262.283 299.628 264.203 295.481 269.389 295.015 273.376 294.615 284.415 293.921 295.495 293.655 306.547 293.095 315.72 267.776 327.707 243.51 341.439 220.378 312.347 220.578 283.402 223.685 254.523 226.964 245.524 227.55 235.257 228.737 227.484 223.165 221.125 219.138 222.391 207.831 229.457 205.418 234.71 204.578 240.03 205.818 245.31 205.685Z" transform="matrix(1 0 0 1.00005 48.2604 63)"/><path d="M308.414 30.692C331.707 27.1856 354.093 43.2649 363.678 63.7841 365.225 66.4506 363.278 69.3705 362.518 71.9571 356.226 87.3564 343.919 99.0494 333.746 111.862 344.586 113.862 355.626 114.649 366.638 114.409 405.704 113.702 444.648 109.249 483.754 110.422 482.381 118.889 482.247 127.488 481.047 135.955 480.261 150.567 481.607 165.314 479.541 179.846 479.527 189.686 479.234 199.539 479.554 209.378 482.594 225.925 487.434 242.404 486.381 259.403 474.234 256.589 461.902 253.763 449.355 254.283 433.663 253.443 417.41 259.003 406.544 270.576 391.997 284.802 390.824 311.614 406.544 325.427 413.37 331.16 421.183 337.319 430.583 337.186 436.569 337.213 442.662 337.533 448.542 336.159 461.422 333.04 473.461 327.227 486.327 324.067 486.074 331.574 486.034 339.119 485.074 346.573 485.021 351.039 485.007 355.519 485.101 359.986 486.114 366.692 485.781 373.532 486.821 380.238 489.341 398.477 493.221 416.516 495.46 434.809 497.5 449.675 496.833 465.208 491.287 479.301 490.167 479.047 487.927 478.567 486.807 478.314 471.621 478.007 456.502 479.594 441.315 479.687 424.489 481.367 407.571 480.927 390.717 482.314 371.185 483.527 351.106 480.047 332.027 485.607 338.879 496.753 346.813 507.406 351.093 519.913 351.813 526.685 352.173 533.685 349.773 540.192 345.373 548.164 338.746 555.191 329.974 558.271 316.067 563.711 299.508 562.431 286.868 554.351 277.056 548.124 270.083 537.045 269.976 525.285 270.069 517.473 275.016 510.926 279.988 505.366 286.335 498.526 292.682 491.487 296.721 482.981 284.055 482.021 271.349 482.647 258.669 482.461 246.177 482.167 233.79 483.927 221.391 485.167 205.818 486.341 190.192 485.327 174.606 485.434 157.58 485.287 140.555 485.714 123.528 485.154 120.475 463.622 118.556 441.648 121.675 420.009 123.768 404.984 122.688 389.811 122.995 374.705 122.581 360.146 121.275 345.613 120.062 331.094 133.835 335.746 147.82 341.239 162.647 340.333 184.632 340.813 203.791 318.88 200.298 297.188 195.512 276.043 175.672 257.949 153.42 258.589 142.115 258.323 130.795 259.749 119.889 262.736 118.676 247.137 118.756 231.484 117.769 215.871 116.796 203.885 117.369 191.846 116.409 179.846 115.489 169.354 115.809 158.794 114.942 148.287 114.142 139.515 113.969 130.688 113.876 121.875 136.408 121.808 158.94 122.088 181.472 121.728 188.859 120.248 196.459 120.981 203.898 119.902 212.751 118.849 221.725 119.556 230.564 118.316 249.457 117.876 268.029 114.076 286.602 110.942 290.602 110.889 293.268 107.516 294.255 103.956 289.202 93.3029 282.028 83.7833 276.976 73.1038 276.029 65.6373 276.283 58.1176 277.056 50.6513 278.003 46.2915 278.656 41.3184 282.508 38.4252 289.708 32.4254 299.655 32.4654 308.414 30.692M245.31 205.685C240.03 205.818 234.71 204.578 229.457 205.418 222.391 207.831 221.125 219.138 227.484 223.165 235.257 228.737 245.524 227.55 254.523 226.964 283.402 223.685 312.347 220.578 341.439 220.378 327.707 243.51 315.72 267.776 306.547 293.095 295.495 293.655 284.415 293.921 273.376 294.615 269.389 295.015 264.203 295.481 262.283 299.628 260.203 305.441 264.856 312.014 270.856 312.654 280.655 313.707 290.522 312.587 300.335 312.174 295.321 329.974 291.068 347.999 287.762 366.185 284.615 364.852 280.602 362.772 277.563 365.492 273.629 369.252 275.349 375.225 276.429 379.838 278.789 387.757 280.682 395.971 284.642 403.291 286.788 407.464 292.495 407.971 296.135 405.531 302.388 401.477 305.268 393.944 306.201 386.824 309.614 361.492 314.2 336.226 322 311.84 331.44 310.96 340.999 310.894 350.333 309.067 356.773 308.014 361.678 302.201 362.878 295.975 363.572 292.215 359.773 288.348 355.973 289.228 346.839 290.442 337.719 291.988 328.494 292.468 336.893 270.443 347.759 249.43 359.933 229.257 362.052 225.698 364.292 222.125 367.465 219.391 372.358 215.445 371.718 206.218 365.852 203.485 361.145 201.178 355.786 200.831 350.653 200.445 337.746 199.739 324.8 199.979 311.894 200.725 289.668 202.018 267.603 205.818 245.31 205.685Z" fill="#F3DD81" transform="matrix(1 0 0 1.00005 48.2604 63)"/></g></g></g></g></svg>