<svg width="359" height="535" xmlns="http://www.w3.org/2000/svg" xmlns:xlink="http://www.w3.org/1999/xlink" xml:space="preserve" overflow="hidden"><defs><clipPath id="clip0"><rect x="307" y="227" width="359" height="535"/></clipPath><clipPath id="clip1"><rect x="308" y="227" width="359" height="480"/></clipPath><clipPath id="clip2"><rect x="308" y="226" width="365" height="481"/></clipPath><clipPath id="clip3"><rect x="308" y="226" width="365" height="481"/></clipPath></defs><g clip-path="url(#clip0)" transform="translate(-307 -227)"><g clip-path="url(#clip1)"><g clip-path="url(#clip2)"><g clip-path="url(#clip3)"><path d="M281.71 63.0949C288.843 58.6735 297.648 55.9487 306.002 58.1466 320.898 61.3341 333.366 75.7036 332.454 91.2557 332.813 103.093 327.929 114.121 324.279 125.123 350.975 123.272 377.863 121.267 404.558 124.339 412.72 125.624 421.01 125.174 429.236 125.149 441.871 125.213 454.247 122 466.869 121.588 469.517 134.865 468.964 148.515 468 161.934 464.543 189.683 461.973 217.548 461.78 245.516 460.507 259.487 461.265 273.536 461.149 287.558 457.332 290 453.374 293.342 448.515 292.506 434.518 291.376 419.673 292.275 407.232 299.383 402.36 302.03 398.582 306.169 395.279 310.552 397.091 321.014 400.227 332.466 409.301 338.995 417.386 344.535 427.681 344.034 437.025 343.571 436.42 343.379 435.212 342.993 434.608 342.8 444.069 343.314 452.95 339.407 462.011 337.312 464.183 349.368 464.556 361.758 464.273 374.007 462.988 386.937 463.99 399.983 462.294 412.874 462.036 430.791 460.623 448.631 460.546 466.548 459.646 476.046 459.569 485.596 459.081 495.12 440.302 498.538 421.267 500.57 402.207 501.083 386.552 502.986 370.549 500.287 355.087 503.963 341.039 505.595 326.708 505.531 312.762 503.127 318.804 482.215 322.415 459.517 316.092 438.233 315.333 434.005 311.015 431.858 307.159 431.241 300.719 430.226 294.627 433.67 289.859 437.654 284.37 442.526 279.127 448.246 277.045 455.456 274.77 464.209 276.877 473.206 278.587 481.856 280.323 489.619 279.846 497.613 279.782 505.505 260.991 506.431 242.445 510.183 223.666 511.186 209.541 511.417 195.403 511.237 181.277 511.302 173.09 511.237 164.813 511.726 156.716 510.209 150.006 509.245 143.644 506.867 137.128 505.132 136.421 493.128 137.911 481.149 137.988 469.144 138.465 444.763 140.637 420.316 138.503 395.96 137.655 381.346 138.181 366.706 138.027 352.08 138.246 344.175 137.719 336.181 139.248 328.379 150.623 329.818 161.857 333.559 173.437 332.454 181.612 331.746 189.465 326.194 191.907 318.199 195.442 307.918 191.663 296.285 184.593 288.419 178.308 281.389 168.489 278.703 159.338 278.857 151.074 279.859 142.719 279.808 134.402 279.448 134.467 269.796 134.904 260.13 133.966 250.504 132.244 235.157 129.673 219.823 130.225 204.323 130.92 183.373 128.876 162.204 132.77 141.472 133.092 137.243 134.159 133.04 137.102 129.853 149.659 131.897 162.178 129.557 174.762 129.391 182.498 129.056 190.21 128.272 197.947 128.234 207.818 128.208 217.665 126.871 227.522 127.733 231.25 127.848 235.067 128.851 238.743 127.835 232.869 127.27 226.905 128.092 221.057 126.909 235.89 127.039 250.721 126.357 265.516 125.393 262.277 114.083 260.708 102.219 262.238 90.4973 264.205 79.0326 272.186 69.3543 281.71 63.0949M291.427 67.7477C282.237 72.2205 274.037 80.0351 271.016 90.009 267.842 104.571 272.829 119.185 278.831 132.334 265.232 134.416 251.468 134.339 237.767 134.711 218.101 136.369 198.371 136.742 178.694 138.118 166.304 138.683 153.798 137.346 141.459 138.605 138.284 142.68 139.159 148.091 139.017 152.898 138.914 167.937 139.287 182.987 138.85 198.012 136.716 214.091 139.762 230.17 141.729 246.108 142.938 254.565 142.398 263.138 142.59 271.647 156.446 270.091 171.612 268.613 184.183 275.978 193.411 280.887 198.333 290.887 200.75 300.642 201.097 303.213 201.508 305.771 202.048 308.303 202.434 314.343 202.819 320.989 198.95 326.104 193.334 333.443 185.673 339.728 176.637 342.196 166.484 343.777 156.458 340.499 146.343 340.062 146.177 356.09 146.215 372.13 146.279 388.171 148.374 409.507 147.153 430.983 147.474 452.384 146.741 468.488 145.508 484.567 143.965 500.621 151.202 501.739 158.502 502.536 165.79 503.179 183.373 503.384 200.968 503.358 218.55 503.192 235.864 501.598 253.254 500.904 270.49 498.398 268.921 485.699 265.258 472.975 267.237 460.108 267.931 454.016 268.921 447.577 272.97 442.706 279.127 435.212 286.028 427.745 295.116 423.876 300.09 421.91 305.86 420.753 311.041 422.552 316.015 425.65 320.411 429.763 323.957 434.415 327.403 438.798 327.21 444.608 327.196 449.878 327.068 457.114 327.403 464.363 326.965 471.599 326.117 480.287 324.381 488.86 323.328 497.536 345.924 498.359 368.108 491.366 390.729 493.294 410.997 493.693 431.022 489.708 451.227 488.809 451.292 477.974 451.176 467.114 452.384 456.329 452.731 437.012 454.762 417.771 454.98 398.453 456.163 381.821 456.266 365.151 455.919 348.493 442.847 349.394 429.609 354.407 416.55 350.447 398.235 346.103 385.484 326.194 389.096 307.75 391.037 300.077 397.939 295.065 404.571 291.517 419.596 283.483 437.269 282.893 453.862 284.615 451.664 264.423 452.449 244.038 453.914 223.821 455.533 199.31 458.142 174.877 460.674 150.457 461.356 143.683 460.455 136.935 459.389 130.264 437.693 133.015 415.754 133.233 393.993 131.408 383.081 130.534 372.13 131.087 361.193 130.933 344.188 131.382 327.235 133.208 310.218 133.452 316.683 119.352 325.14 104.995 324.137 88.9165 323.34 73.6729 305.475 62.8893 291.427 67.7477Z" transform="matrix(1.00068 0 0 1 190.072 184.58)"/><path d="M289.332 203.719C317.596 198.294 346.772 195.3 375.42 199.413 379.842 199.682 384.147 203.603 383.313 208.281 382.966 212.291 379.457 215.659 375.42 215.659 352.864 216.199 330.242 216.88 307.891 220.209 298.304 221.468 288.946 224.039 279.885 227.355 276.067 245.118 269.667 262.174 263.369 279.178 285.45 275.245 307.969 272.765 330.397 274.294 341.014 275.233 352.517 276.929 360.627 284.525 368.197 291.453 370.562 302.506 368.865 312.352 366.462 330.268 356.039 346.309 342.234 357.658 330.615 367.452 316.876 374.341 302.802 379.893 291.26 384.52 279.923 390.459 267.418 391.859 258.023 393.543 250.542 381.411 255.31 373.596 257.971 369.701 263.15 370.099 267.251 369.419 282.211 367.799 296.646 363.004 310.051 356.244 323.726 349.445 336.824 339.458 342.993 325.05 345.756 318.251 347.851 310.668 346.437 303.303 345.216 297.75 339.279 295.27 334.24 294.345 316.246 291.08 298.034 294.641 280.167 296.993 270.914 298.728 260.952 298.29 252.56 303.123 247.547 304.871 241.018 303.997 238.023 299.203 235.26 294.499 237.933 289.152 239.539 284.551 245.799 266.89 252.765 249.41 257.329 231.198 258.523 227.843 257.431 224.386 257.238 220.98 257.161 216.289 261.171 212.934 264.988 210.968 272.585 207.112 281.054 205.466 289.332 203.719Z" transform="matrix(1.00068 0 0 1 190.072 184.58)"/><path d="M291.427 67.7477C305.475 62.8893 323.34 73.6729 324.137 88.9165 325.14 104.995 316.683 119.352 310.218 133.452 327.235 133.208 344.188 131.382 361.193 130.933 372.13 131.087 383.081 130.534 393.993 131.408 415.754 133.233 437.693 133.015 459.389 130.264 460.455 136.935 461.356 143.683 460.674 150.457 458.142 174.877 455.533 199.31 453.914 223.821 452.449 244.038 451.664 264.423 453.862 284.615 437.269 282.893 419.596 283.483 404.571 291.517 397.939 295.065 391.037 300.077 389.096 307.75 385.484 326.194 398.235 346.103 416.55 350.447 429.609 354.407 442.847 349.394 455.919 348.493 456.266 365.151 456.163 381.821 454.98 398.453 454.762 417.771 452.731 437.012 452.384 456.329 451.176 467.114 451.292 477.974 451.227 488.809 431.022 489.708 410.997 493.693 390.729 493.294 368.108 491.366 345.924 498.359 323.328 497.536 324.381 488.86 326.117 480.287 326.965 471.599 327.403 464.363 327.068 457.114 327.196 449.878 327.21 444.608 327.403 438.798 323.957 434.415 320.411 429.763 316.015 425.65 311.041 422.552 305.86 420.753 300.09 421.91 295.116 423.876 286.028 427.745 279.127 435.212 272.97 442.706 268.921 447.577 267.931 454.016 267.237 460.108 265.258 472.975 268.921 485.699 270.49 498.398 253.254 500.904 235.864 501.598 218.55 503.192 200.968 503.358 183.373 503.384 165.79 503.179 158.502 502.536 151.202 501.739 143.965 500.621 145.508 484.567 146.741 468.488 147.474 452.384 147.153 430.983 148.374 409.507 146.279 388.171 146.215 372.13 146.177 356.09 146.343 340.062 156.458 340.499 166.484 343.777 176.637 342.196 185.673 339.728 193.334 333.443 198.95 326.104 202.819 320.989 202.434 314.343 202.048 308.303 201.508 305.771 201.097 303.213 200.75 300.642 198.333 290.887 193.411 280.887 184.183 275.978 171.612 268.613 156.446 270.091 142.59 271.647 142.398 263.138 142.938 254.565 141.729 246.108 139.762 230.17 136.716 214.091 138.85 198.012 139.287 182.987 138.914 167.937 139.017 152.898 139.159 148.091 138.284 142.68 141.459 138.605 153.798 137.346 166.304 138.683 178.694 138.118 198.371 136.742 218.101 136.369 237.767 134.711 251.468 134.339 265.232 134.416 278.831 132.334 272.829 119.185 267.842 104.571 271.016 90.009 274.037 80.0351 282.237 72.2205 291.427 67.7477M289.332 203.719C281.054 205.466 272.585 207.112 264.988 210.968 261.171 212.934 257.161 216.289 257.238 220.98 257.431 224.386 258.523 227.843 257.329 231.198 252.765 249.41 245.799 266.89 239.539 284.551 237.933 289.152 235.26 294.499 238.023 299.203 241.018 303.997 247.547 304.871 252.56 303.123 260.952 298.29 270.914 298.728 280.167 296.993 298.034 294.641 316.246 291.08 334.24 294.345 339.279 295.27 345.216 297.75 346.437 303.303 347.851 310.668 345.756 318.251 342.993 325.05 336.824 339.458 323.726 349.445 310.051 356.244 296.646 363.004 282.211 367.799 267.251 369.419 263.15 370.099 257.971 369.701 255.31 373.596 250.542 381.411 258.023 393.543 267.418 391.859 279.923 390.459 291.26 384.52 302.802 379.893 316.876 374.341 330.615 367.452 342.234 357.658 356.039 346.309 366.462 330.268 368.865 312.352 370.562 302.506 368.197 291.453 360.627 284.525 352.517 276.929 341.014 275.233 330.397 274.294 307.969 272.765 285.45 275.245 263.369 279.178 269.667 262.174 276.067 245.118 279.885 227.355 288.946 224.039 298.304 221.468 307.891 220.209 330.242 216.88 352.864 216.199 375.42 215.659 379.457 215.659 382.966 212.291 383.313 208.281 384.147 203.603 379.842 199.682 375.42 199.413 346.772 195.3 317.596 198.294 289.332 203.719Z" fill="#E89480" transform="matrix(1.00068 0 0 1 190.072 184.58)"/></g></g></g></g></svg>