<svg width="466" height="524" xmlns="http://www.w3.org/2000/svg" xmlns:xlink="http://www.w3.org/1999/xlink" xml:space="preserve" overflow="hidden"><defs><clipPath id="clip0"><rect x="0" y="0" width="466" height="524"/></clipPath></defs><g clip-path="url(#clip0)"><path d="M291.132 74.1954C295.185 64.6544 305.362 58.9423 315.465 58.4434 339.922 57.4955 362.995 80.0697 361.424 104.764 361.935 117.623 357.857 129.982 354.689 142.267 364.043 142.853 373.534 143.065 382.776 141.132 406.535 136.917 430.194 144.175 453.965 144.4 485.582 145.61 517.198 137.465 548.727 142.517 551.134 142.554 551.221 145.398 551.583 147.156 552.643 155.849 551.957 164.629 552.107 173.36 551.907 183.749 552.88 194.213 551.284 204.539 550.747 208.68 550.984 212.871 550.885 217.036 550.835 223.31 549.338 229.483 549.687 235.769 549.949 243.252 548.078 250.611 548.415 258.106 548.403 263.544 548.852 269.032 547.966 274.432 545.035 286.717 544.312 299.401 541.556 311.723 539.66 313.831 536.916 316.051 533.948 314.517 525.205 310.014 518.071 302.619 508.617 299.413 503.042 297.343 497.031 298.628 491.331 299.289 486.941 299.85 481.915 301.035 479.483 305.113 475.854 311.112 475.005 318.221 473.983 325.018 470.989 339.71 476.502 355.512 487.066 365.963 491.955 370.927 496.869 377.001 503.915 378.66 509.316 376.976 514.018 373.472 518.832 370.566 527.699 364.916 534.147 356.285 542.803 350.423 544.736 357.782 544.424 365.427 545.285 372.935 545.322 381.267 544.636 389.598 545.335 397.916 543.202 409.066 545.01 420.466 543.09 431.628 542.391 440.059 543.638 448.577 542.005 456.934 541.331 468.445 541.668 480.007 541.793 491.531 536.567 496.32 529.009 494.512 522.548 494.96 514.616 494.462 506.385 495.821 498.764 493.027 489.435 490.67 479.77 490.296 470.266 489.061 462.721 487.689 455.2 490.483 447.617 489.323 440.57 488.238 433.474 489.984 426.44 488.837 417.797 487.615 409.066 488.737 400.373 488.587 386.866 489.635 373.284 488.824 359.79 490.047 358.879 503.628 361.873 517.622 357.695 530.88 355.948 536.467 352.756 541.68 348.129 545.359 338.538 553.317 328.111 561.236 315.652 563.855 307.445 565.215 298.478 566.612 290.858 562.309 283.15 558.58 278.772 550.71 276.378 542.828 269.556 522.012 272.686 498.789 282.476 479.433 263.282 482.04 243.826 484.21 224.47 482.239 207.208 480.381 189.71 487.964 172.724 482.351 162.871 440.97 177.862 399.039 173.908 357.308 168.196 362.496 161.923 369.917 153.292 368.258 144.038 366.475 133.998 366.063 125.991 360.538 121.003 357.108 118.957 351.047 117.71 345.41 112.147 321.289 118.97 295.347 133.25 275.455 135.894 271.539 139.698 267.934 144.587 267.36 152.12 266.275 159.179 269.568 166.238 271.626 166.45 229.945 159.902 188.675 158.643 147.081 157.745 141.594 163.632 138.014 168.446 137.952 183.612 136.705 198.765 139 213.918 139.424 238.413 140.746 262.958 140.047 287.465 140.683 282.975 118.795 281.79 95.0235 291.132 74.1954M297.779 82.0902C292.89 97.5179 292.591 114.056 295.372 129.92 296.732 136.293 298.603 142.529 300.486 148.765 297.206 149.251 293.938 149.925 290.621 149.975 272.723 150 254.826 149.925 236.929 149.912 213.295 150.262 189.785 147.331 166.213 146.009 171.651 195.073 173.971 244.4 176.665 293.689 168.895 289.112 161.798 283.537 154.402 278.411 152.457 277.201 149.713 275.268 147.518 277.014 138.476 283.724 131.965 293.576 128.847 304.352 124.894 317.747 123.784 332.352 127.588 345.909 131.691 355.3 143.065 356.934 152.12 357.495 161.885 358.68 166.363 345.834 175.842 346.32 178.149 347.43 180.543 348.366 183.013 349.101 183.163 360.763 183.212 372.424 182.938 384.085 181.192 414.729 175.58 445.459 179.521 476.153 192.791 474.02 206.198 473.072 219.593 472.386 226.615 472.96 233.649 473.634 240.708 473.634 254.09 473.908 267.248 470.965 280.543 469.817 286.742 469.692 292.94 469.767 299.151 469.805 296.358 477.413 291.805 484.197 288.475 491.568 283.774 501.184 281.117 511.985 282.003 522.711 282.888 532.626 286.517 541.967 289.286 551.433 296.645 554.589 304.876 555.125 312.721 553.778 326.365 550.909 338.787 542.915 347.655 532.227 352.968 523.421 351.558 512.421 350.423 502.668 349.6 498.153 349.363 493.451 347.842 489.136 344.25 486.741 340.022 485.444 336.368 483.15 339.573 481.304 342.816 479.096 346.669 479.021 359.179 478.111 371.663 480.256 384.197 480.231 397.842 479.944 411.536 480.842 425.155 479.495 451.633 478.647 478.473 478.198 504.439 484.21 513.955 486.604 523.858 484.97 533.424 486.766 533.549 472.05 533.224 457.32 533.598 442.616 534.472 434.734 534.397 426.801 534.833 418.894 536.28 407.794 535.232 396.557 536.629 385.457 536.928 380.418 537.016 375.355 536.854 370.304 527.2 381.154 513.107 387.016 498.889 388.575 484.16 381.03 471.189 368.583 465.564 352.743 461.848 341.943 462.92 330.306 463.681 319.131 464.941 308.867 468.046 297.306 477.325 291.431 496.357 283.736 519.131 288.75 534.384 302.12 537.315 278.897 538.961 255.562 540.595 232.227 540.421 220.042 542.316 207.969 541.917 195.772 541.518 180.519 543.838 165.378 542.915 150.124 521.139 149.114 499.475 151.846 477.837 153.766 466.15 153.991 454.452 153.704 442.766 153.866 436.018 154.103 429.495 152.045 422.848 151.272 409.977 149.139 397.018 151.471 384.11 151.733 369.393 153.741 354.402 152.419 340.109 148.503 339.947 147.942 339.623 146.807 339.461 146.246 350.261 132.614 354.252 114.18 351.384 97.1438 348.752 82.377 334.971 71.4142 320.553 69.3314 311.436 68.1964 300.224 72.3745 297.779 82.0902Z" transform="matrix(1 0 0 1 -102.697 -45.005)"/><path d="M297.705 220.354C310.638 210.75 325.866 204.09 341.805 201.621 347.318 200.985 354.277 201.421 357.358 206.797 371.202 207.645 385.756 213.145 393.763 225.031 402.569 237.341 400.448 254.477 393.052 266.924 387.777 275.293 379.807 281.541 371.563 286.792 390.109 290.758 408.455 300.71 418.133 317.572 425.405 329.695 426.714 344.936 421.987 358.218 415.839 377.151 400.049 391.232 382.863 400.274 360.576 411.698 334.16 416.225 309.653 410.052 294.499 406.248 279.496 398.802 270.079 385.919 262.397 375.941 259.516 362.633 262.085 350.324 265.44 331.653 278.548 316.001 294.474 306.348 276.103 303.379 262.434 283.611 267.435 265.415 271.888 247.48 282.576 231.08 297.705 220.354M353.554 224.47C346.906 230.805 338.288 224.108 330.593 225.492 316.388 227.762 304.726 237.79 296.183 248.865 291.07 255.986 286.754 264.18 285.906 273.035 285.345 279.67 290.671 285.083 296.62 287.054 312.446 292.841 329.982 289.099 345.011 282.651 357.121 277.051 369.007 269.107 375.642 257.183 379.022 250.923 381.129 242.828 377.288 236.293 372.536 228.074 362.571 224.694 353.554 224.47M341.007 302.506C325.991 306.522 311.386 313.07 299.526 323.272 288.064 332.988 279.995 347.742 281.017 363.045 281.653 372.087 288.026 379.595 295.497 384.172 307.059 391.182 320.765 394.325 334.222 394.125 354.028 393.701 374.095 387.203 389.174 374.108 398.528 366.001 405.138 354.227 405.387 341.693 405.612 333.15 401.508 325.043 395.609 319.069 386.417 309.478 373.397 304.726 360.563 302.469 354.115 301.521 347.393 300.735 341.007 302.506Z" transform="matrix(1 0 0 1 -102.697 -45.005)"/><path d="M297.779 82.0902C300.224 72.3745 311.436 68.1964 320.553 69.3314 334.971 71.4142 348.752 82.377 351.384 97.1438 354.252 114.18 350.261 132.614 339.461 146.246 339.623 146.807 339.947 147.942 340.109 148.503 354.402 152.419 369.393 153.741 384.11 151.733 397.018 151.471 409.977 149.139 422.848 151.272 429.495 152.045 436.018 154.103 442.766 153.866 454.452 153.704 466.15 153.991 477.837 153.766 499.475 151.846 521.139 149.114 542.915 150.124 543.838 165.378 541.518 180.519 541.917 195.772 542.316 207.969 540.421 220.042 540.595 232.227 538.961 255.562 537.315 278.897 534.384 302.12 519.131 288.75 496.357 283.736 477.325 291.431 468.046 297.306 464.941 308.867 463.681 319.131 462.92 330.306 461.848 341.943 465.564 352.743 471.189 368.583 484.16 381.03 498.889 388.575 513.107 387.016 527.2 381.154 536.854 370.304 537.016 375.355 536.928 380.418 536.629 385.457 535.232 396.557 536.28 407.794 534.833 418.894 534.397 426.801 534.472 434.734 533.598 442.616 533.224 457.32 533.549 472.05 533.424 486.766 523.858 484.97 513.955 486.604 504.439 484.21 478.473 478.198 451.633 478.647 425.155 479.495 411.536 480.842 397.842 479.944 384.197 480.231 371.663 480.256 359.179 478.111 346.669 479.021 342.816 479.096 339.573 481.304 336.368 483.15 340.022 485.444 344.25 486.741 347.842 489.136 349.363 493.451 349.6 498.153 350.423 502.668 351.558 512.421 352.968 523.421 347.655 532.227 338.787 542.915 326.365 550.909 312.721 553.778 304.876 555.125 296.645 554.589 289.286 551.433 286.517 541.967 282.888 532.626 282.003 522.711 281.117 511.985 283.774 501.184 288.475 491.568 291.805 484.197 296.358 477.413 299.151 469.805 292.94 469.767 286.742 469.692 280.543 469.817 267.248 470.965 254.09 473.908 240.708 473.634 233.649 473.634 226.615 472.96 219.593 472.386 206.198 473.072 192.791 474.02 179.521 476.153 175.58 445.459 181.192 414.729 182.938 384.085 183.212 372.424 183.163 360.763 183.013 349.101 180.543 348.366 178.149 347.43 175.842 346.32 166.363 345.834 161.885 358.68 152.12 357.495 143.065 356.934 131.691 355.3 127.588 345.909 123.784 332.352 124.894 317.747 128.847 304.352 131.965 293.576 138.476 283.724 147.518 277.014 149.713 275.268 152.457 277.201 154.402 278.411 161.798 283.537 168.895 289.112 176.665 293.689 173.971 244.4 171.651 195.073 166.213 146.009 189.785 147.331 213.295 150.262 236.929 149.912 254.826 149.925 272.723 150 290.621 149.975 293.938 149.925 297.206 149.251 300.486 148.765 298.603 142.529 296.732 136.293 295.372 129.92 292.591 114.056 292.89 97.5179 297.779 82.0902M297.705 220.354C282.576 231.08 271.888 247.48 267.435 265.415 262.434 283.611 276.103 303.379 294.474 306.348 278.548 316.001 265.44 331.653 262.085 350.324 259.516 362.633 262.397 375.941 270.079 385.919 279.496 398.802 294.499 406.248 309.653 410.052 334.16 416.225 360.576 411.698 382.863 400.274 400.049 391.232 415.839 377.151 421.987 358.218 426.714 344.936 425.405 329.695 418.133 317.572 408.455 300.71 390.109 290.758 371.563 286.792 379.807 281.541 387.777 275.293 393.052 266.924 400.448 254.477 402.569 237.341 393.763 225.031 385.756 213.145 371.202 207.645 357.358 206.797 354.277 201.421 347.318 200.985 341.805 201.621 325.866 204.09 310.638 210.75 297.705 220.354Z" fill="#B7C0A1" transform="matrix(1 0 0 1 -102.697 -45.005)"/><path d="M353.554 224.47C362.571 224.694 372.536 228.074 377.288 236.293 381.129 242.828 379.022 250.923 375.642 257.183 369.007 269.107 357.121 277.051 345.011 282.651 329.982 289.099 312.446 292.841 296.62 287.054 290.671 285.083 285.345 279.67 285.906 273.035 286.754 264.18 291.07 255.986 296.183 248.865 304.726 237.79 316.388 227.762 330.593 225.492 338.288 224.108 346.906 230.805 353.554 224.47Z" fill="#B7C0A1" transform="matrix(1 0 0 1 -102.697 -45.005)"/><path d="M341.007 302.506C347.393 300.735 354.115 301.521 360.563 302.469 373.397 304.726 386.417 309.478 395.609 319.069 401.508 325.043 405.612 333.15 405.387 341.693 405.138 354.227 398.528 366.001 389.174 374.108 374.095 387.203 354.028 393.701 334.222 394.125 320.765 394.325 307.059 391.182 295.497 384.172 288.026 379.595 281.653 372.087 281.017 363.045 279.995 347.742 288.064 332.988 299.526 323.272 311.386 313.07 325.991 306.522 341.007 302.506Z" fill="#B7C0A1" transform="matrix(1 0 0 1 -102.697 -45.005)"/></g></svg>