<svg width="427" height="527" xmlns="http://www.w3.org/2000/svg" xmlns:xlink="http://www.w3.org/1999/xlink" xml:space="preserve" overflow="hidden"><defs><clipPath id="clip0"><rect x="99" y="447" width="427" height="527"/></clipPath><clipPath id="clip1"><rect x="99" y="451" width="426" height="523"/></clipPath><clipPath id="clip2"><rect x="95" y="451" width="430" height="530"/></clipPath><clipPath id="clip3"><rect x="95" y="451" width="430" height="530"/></clipPath></defs><g clip-path="url(#clip0)" transform="translate(-99 -447)"><g clip-path="url(#clip1)"><g clip-path="url(#clip2)"><g clip-path="url(#clip3)"><path d="M226.941 41.7393C234.231 37.8479 242.866 39.1272 250.703 40.2067 263.202 42.4456 276.676 49.0956 280.701 62.1025 285.099 73.87 279.474 85.7841 276.21 97.0319 290.309 98.6844 304.329 101.336 318.549 101.803 342.523 101.483 366.511 101.87 390.487 102.363 400.655 103.255 410.877 102.749 421.058 102.895 424.323 111.745 424.736 121.233 425.522 130.536 426.055 147.913 425.083 165.305 425.949 182.669 426.442 190.252 428.294 197.689 428.534 205.298 429.547 221.544 428.014 237.856 429.374 254.074 440.795 254.461 452.375 252.967 463.664 255.406 481.015 259.044 495.688 272.398 501.671 288.977 503.95 294.707 504.364 301.371 501.858 307.101 498.846 314.724 492.05 320.334 484.533 323.227 475.338 326.571 465.356 326.438 455.708 326.091 446.619 325.826 438.169 322.173 429.493 319.868 428.214 330.943 428.721 342.15 429.334 353.265 429.987 371.882 431.28 390.487 430.853 409.117 430.8 422.004 429.84 434.878 430.107 447.751 430.147 458.026 433.838 468.661 429.68 478.616 424.616 476.47 420.058 472.699 414.368 472.432 404.6 471.646 394.924 474.032 385.155 473.579 366.498 472.672 347.828 469.741 329.144 471.593 318.629 472.725 308.034 472.685 297.479 472.365 307.514 485.853 314.884 502.804 311.339 519.889 310.446 528.765 301.743 533.309 294.747 537.107 281.34 544.597 265.375 546.049 250.396 543.757 238.482 541.518 226.182 536.241 219.638 525.473 209.616 510.201 211.655 491.05 214.427 473.965 205.685 472.605 196.809 472.979 188 472.885 172.808 472.725 157.575 473.192 142.45 474.911 128.217 476.883 113.864 478.562 99.4707 477.803 99.1775 470.34 99.2308 462.864 98.5777 455.428 98.4045 458.626 98.4312 461.85 97.9115 465.036 97.6182 463.304 97.5383 461.558 97.6582 459.826 99.0309 449.151 97.4183 438.409 96.8986 427.734 95.3527 392.726 91.7145 357.769 92.2742 322.68 110.092 323.959 128.323 325.891 145.901 321.574 157.735 318.749 169.809 313.964 178.098 304.742 180.35 299.998 177.738 294.494 176.499 289.736 172.874 278.155 163.133 267.72 150.632 266.375 131.348 263.962 112.585 270.333 93.6203 272.652 93.9401 248.397 98.2179 224.183 95.7791 199.928 95.0595 190.999 93.0472 182.189 92.9006 173.221 92.3009 154.03 96.2456 135.093 96.4722 115.943 96.6587 109.252 96.5255 102.11 99.8971 96.099 102.483 92.0477 107.853 92.4874 112.038 92.3942 145.941 91.6479 179.431 99.4173 213.348 97.8981 211.895 90.5018 208.896 83.4386 208.523 75.8423 207.377 62.2491 214.533 47.8696 226.941 41.7393M217.572 71.8577C216.826 84.6913 224.236 95.7791 228.433 107.413 195.183 109.279 162.239 103.135 129.136 101.47 121.82 100.244 114.357 100.63 106.973 100.67 104.854 120.354 103.882 140.144 102.35 159.867 101.496 181.697 105.534 203.366 105.334 225.182 105.348 237.602 103.135 249.889 102.882 262.297 115.796 261.11 128.297 256.979 141.303 256.62 154.057 256.02 167.783 260.244 176.259 270.159 182.923 277.662 185.335 287.697 187.361 297.253 188.426 302.943 187.241 309.407 182.723 313.338 173.86 321.788 162.426 327.225 150.619 330.129 134.867 334.274 118.435 334.247 102.27 334.327 101.75 368.204 105.041 401.987 106.388 435.81 106.613 447.098 106.228 458.386 106.561 469.674 128.51 470.113 149.912 463.49 171.888 463.864 191.012 464.183 210.349 462.477 229.22 466.368 228.846 475.938 222.144 483.707 220.984 493.115 219.638 503.017 223.049 513.292 229.366 520.928 239.068 531.363 253.927 536.281 267.974 534.695 277.809 532.909 287.977 530.204 295.853 523.74 300.624 519.956 301.93 513.479 301.823 507.695 301.677 497.54 298.065 486.905 290.043 480.255 285.911 475.991 279.661 472.739 278.889 466.262 285.112 463.69 291.828 462.73 298.532 462.77 325.626 462.45 352.731 462.317 379.785 463.73 393.885 463.757 408.024 464.316 422.111 463.517 422.631 457.373 422.751 451.216 422.617 445.06 422.217 422.377 423.376 399.655 421.724 377.013 419.392 353.705 420.072 330.249 420.285 306.875 431.16 310.433 441.661 315.204 452.922 317.51 460.105 318.175 467.342 318.175 474.524 317.496 483.214 315.75 492.755 310.633 494.674 301.224 495.394 291.375 489.544 282.247 482.587 275.743 477.91 271.585 473.379 266.695 467.262 264.736 456.84 262.43 446.058 262.989 435.464 263.442L434.611 264.029C430.36 264.749 426.229 265.988 422.111 267.254 419.578 256.1 419.872 244.626 419.992 233.258 420.165 223.476 419.258 213.721 418.193 204.006 417.379 196.462 417.819 188.84 416.874 181.31 415.9 159.028 416.9 136.719 416.114 114.424 415.834 113.384 415.3 111.305 415.021 110.266 405.945 109.719 396.963 111.451 387.888 111.158 346.548 111.451 304.796 112.478 264.109 103.922 266.655 93.1005 272.838 83.1721 273.291 71.8844 273.424 63.182 266.855 56.0255 259.404 52.414 251.955 48.0161 242.906 47.4564 234.537 48.8291 224.542 51.4279 217.626 61.7561 217.572 71.8577Z" transform="matrix(1.00145 0 0 1 13.768 425.887)"/><path d="M230.965 183.043C242 176.966 253.647 171.355 266.295 169.782 277.05 168.463 288.31 168.17 298.665 171.834 312.752 176.672 323.959 189.066 327.265 203.593 330.569 218.132 327.651 233.498 321.388 246.85 311.326 269.413 294.374 287.83 278.129 306.101 266.641 318.589 254.913 330.863 243.413 343.337 239.841 347.281 235.777 350.812 232.764 355.25 241.414 355.744 250.023 354.504 258.539 353.185 274.117 350.612 289.656 347.774 305.262 345.282 321.441 342.99 337.713 341.298 353.878 338.872 360.954 338.152 366.152 332.235 373.188 331.289 377.226 330.916 380.691 334.047 381.637 337.82 382.876 342.443 383.503 348.135 380.052 351.999 375.627 356.796 369.003 358.862 362.673 359.488 341.431 361.887 320.348 365.432 299.159 368.151 274.144 371.576 249.209 376.826 223.863 376.587 218.186 376.679 212.441 373.948 209.176 369.283 205.045 362.993 205.858 353.905 211.429 348.707 225.168 334.901 238.961 321.108 251.768 306.408 267.76 288.044 284.286 269.933 297.186 249.196 304.756 237.136 308.954 222.237 305.768 208.11 303.542 198.395 294.667 191.345 285.046 189.826 275.051 188.32 264.549 189.626 255.366 193.917 249.289 196.636 243.466 199.861 237.642 203.086 228.94 207.804 222.316 215.56 213.521 220.145 208.603 222.929 201.247 220.89 199.475 215.253 196.942 208.39 200.567 200.86 206.324 196.916 214.108 191.572 222.756 187.681 230.965 183.043Z" transform="matrix(1.00145 0 0 1 13.768 425.887)"/><path d="M217.572 71.8577C217.626 61.7561 224.542 51.4279 234.537 48.8291 242.906 47.4564 251.955 48.0161 259.404 52.414 266.855 56.0255 273.424 63.182 273.291 71.8844 272.838 83.1721 266.655 93.1005 264.109 103.922 304.796 112.478 346.548 111.451 387.888 111.158 396.963 111.451 405.945 109.719 415.021 110.266 415.3 111.305 415.834 113.384 416.114 114.424 416.9 136.719 415.9 159.028 416.874 181.31 417.819 188.84 417.379 196.462 418.193 204.006 419.258 213.721 420.165 223.476 419.992 233.258 419.872 244.626 419.578 256.1 422.111 267.254 426.229 265.988 430.36 264.749 434.611 264.029L435.464 263.442C446.058 262.989 456.84 262.43 467.262 264.736 473.379 266.695 477.91 271.585 482.587 275.743 489.544 282.247 495.394 291.375 494.674 301.224 492.755 310.633 483.214 315.75 474.524 317.496 467.342 318.175 460.105 318.175 452.922 317.51 441.661 315.204 431.16 310.433 420.285 306.875 420.072 330.249 419.392 353.705 421.724 377.013 423.376 399.655 422.217 422.377 422.617 445.06 422.751 451.216 422.631 457.373 422.111 463.517 408.024 464.316 393.885 463.757 379.785 463.73 352.731 462.317 325.626 462.45 298.532 462.77 291.828 462.73 285.112 463.69 278.889 466.262 279.661 472.739 285.911 475.991 290.043 480.255 298.065 486.905 301.677 497.54 301.823 507.695 301.93 513.479 300.624 519.956 295.853 523.74 287.977 530.204 277.809 532.909 267.974 534.695 253.927 536.281 239.068 531.363 229.366 520.928 223.049 513.292 219.638 503.017 220.984 493.115 222.144 483.707 228.846 475.938 229.22 466.368 210.349 462.477 191.012 464.183 171.888 463.864 149.912 463.49 128.51 470.113 106.561 469.674 106.228 458.386 106.613 447.098 106.388 435.81 105.041 401.987 101.75 368.204 102.27 334.327 118.435 334.247 134.867 334.274 150.619 330.129 162.426 327.225 173.86 321.788 182.723 313.338 187.241 309.407 188.426 302.943 187.361 297.253 185.335 287.697 182.923 277.662 176.259 270.159 167.783 260.244 154.057 256.02 141.303 256.62 128.297 256.979 115.796 261.11 102.882 262.297 103.135 249.889 105.348 237.602 105.334 225.182 105.534 203.366 101.496 181.697 102.35 159.867 103.882 140.144 104.854 120.354 106.973 100.67 114.357 100.63 121.82 100.244 129.136 101.47 162.239 103.135 195.183 109.279 228.433 107.413 224.236 95.7791 216.826 84.6913 217.572 71.8577M230.965 183.043C222.756 187.681 214.108 191.572 206.324 196.916 200.567 200.86 196.942 208.39 199.475 215.253 201.247 220.89 208.603 222.929 213.521 220.145 222.316 215.56 228.94 207.804 237.642 203.086 243.466 199.861 249.289 196.636 255.366 193.917 264.549 189.626 275.051 188.32 285.046 189.826 294.667 191.345 303.542 198.395 305.768 208.11 308.954 222.237 304.756 237.136 297.186 249.196 284.286 269.933 267.76 288.044 251.768 306.408 238.961 321.108 225.168 334.901 211.429 348.707 205.858 353.905 205.045 362.993 209.176 369.283 212.441 373.948 218.186 376.679 223.863 376.587 249.209 376.826 274.144 371.576 299.159 368.151 320.348 365.432 341.431 361.887 362.673 359.488 369.003 358.862 375.627 356.796 380.052 351.999 383.503 348.135 382.876 342.443 381.637 337.82 380.691 334.047 377.226 330.916 373.188 331.289 366.152 332.235 360.954 338.152 353.878 338.872 337.713 341.298 321.441 342.99 305.262 345.282 289.656 347.774 274.117 350.612 258.539 353.185 250.023 354.504 241.414 355.744 232.764 355.25 235.777 350.812 239.841 347.281 243.413 343.337 254.913 330.863 266.641 318.589 278.129 306.101 294.374 287.83 311.326 269.413 321.388 246.85 327.651 233.498 330.569 218.132 327.265 203.593 323.959 189.066 312.752 176.672 298.665 171.834 288.31 168.17 277.05 168.463 266.295 169.782 253.647 171.355 242 176.966 230.965 183.043Z" fill="#8FBEE5" transform="matrix(1.00145 0 0 1 13.768 425.887)"/></g></g></g></g></svg>