<svg width="347" height="563" xmlns="http://www.w3.org/2000/svg" xmlns:xlink="http://www.w3.org/1999/xlink" xml:space="preserve" overflow="hidden"><defs><clipPath id="clip0"><rect x="220" y="145" width="347" height="563"/></clipPath><clipPath id="clip1"><rect x="220" y="230" width="347" height="478"/></clipPath><clipPath id="clip2"><rect x="215" y="230" width="360" height="479"/></clipPath><clipPath id="clip3"><rect x="215" y="230" width="360" height="479"/></clipPath></defs><g clip-path="url(#clip0)" transform="translate(-220 -145)"><g clip-path="url(#clip1)"><g clip-path="url(#clip2)"><g clip-path="url(#clip3)"><path d="M266.491 54.2222C284.469 52.8035 302.246 49.4892 320.236 48.2965 338.214 48.0078 356.179 48.2337 374.157 48.1459 385.18 47.9953 396.001 50.8074 406.17 54.8624 405.618 84.7167 403.735 114.546 403.66 144.412 403.634 155.297 405.116 166.119 405.003 177.004 404.903 194.542 405.392 212.08 404.388 229.606 391.733 229.945 379.329 223.153 366.75 226.87 360.171 228.715 354.384 233.762 352.4 240.403 349.061 250.208 352.35 261.218 358.64 269.09 365.319 277.112 376.404 280.439 386.573 279.46 393.892 278.731 401.274 278.555 408.619 279.133 408.43 288.637 408.104 298.153 408.982 307.632 410.025 316.808 411.092 325.986 412.121 335.163 413.113 346.877 412.36 358.627 412.51 370.365 412.485 385.431 413.025 400.622 410.289 415.511 409.937 419.817 408.719 423.998 406.485 427.714 400.735 427.575 394.997 426.91 389.247 427.212 364.578 428.856 339.871 429.822 315.164 430.576 303.639 431.782 292.014 430.903 280.502 432.17 283.665 443.946 285.436 456.313 283.452 468.44 279.799 483.781 266.692 496.687 251.137 499.651 233.184 502.261 215.207 486.355 215.118 468.302 214.328 455.848 219.199 444.122 223.153 432.598 206.946 433.263 190.801 435.384 174.543 434.82 162.767 435.271 151.041 434.016 139.353 432.723 127.163 432.333 114.86 432.045 102.795 434.079 96.4803 435.171 90.0648 435.485 83.6747 435.56 81.5906 424.437 81.779 413.051 82.2937 401.789 82.7331 390.804 85.47 379.994 84.9803 368.959 85.269 370.705 85.5452 372.462 85.8341 374.22 85.4574 364.264 87.4284 354.434 87.4786 344.491 88.7842 333.518 88.4202 322.445 88.8596 311.423 90.0523 297.827 89.2111 284.167 89.3994 270.534 93.1532 268.462 97.0073 265.725 101.54 266.352 114.734 267.194 128.757 266.554 140.596 260 145.693 256.987 150.891 253.271 153.451 247.747 152.485 238.946 149.661 229.82 143.722 223.04 137.646 216.261 127.954 214.641 119.291 214.993 108.708 215.282 98.6523 218.847 88.5458 221.571 86.537 209.381 85.9972 196.927 86.3864 184.574 87.441 174.016 86.7379 163.382 87.7924 152.824 88.8094 144.186 88.2947 135.474 88.8973 126.811 90.0523 114.697 89.4246 102.494 90.1653 90.341 90.9688 81.7915 90.9938 73.1792 91.3328 64.592 121.928 58.1643 153.401 58.4028 184.486 57.1222 200.869 53.6698 217.767 53.8581 234.301 56.2435 228.515 77.3222 224.761 100.12 231.263 121.489 233.071 128.268 241.821 128.594 247.409 127.112 255.493 124.237 261.557 117.509 266.24 110.553 272.291 101.188 270.144 89.4873 268.047 79.2429 266.089 71.045 266.479 62.5708 266.491 54.2222M282.246 60.0976C280.012 60.537 277.752 60.8885 275.505 61.24 277.086 74.1836 280.74 87.215 278.48 100.31 278.028 107.503 275.518 114.621 270.395 119.844 264.307 126.736 257.301 133.352 248.413 136.327 244.295 137.634 239.336 138.751 235.519 136.076 230.836 132.862 226.505 128.971 223.254 124.288 220.216 119.881 220.341 114.295 220.367 109.16 220.466 102.468 220.203 95.7773 220.529 89.0856 221.296 80.0214 223.066 71.0701 224.133 62.031 204.51 61.0141 185.277 66.4626 165.68 66.061 143.358 64.6925 121.263 68.9735 99.0664 70.5177 99.0165 81.3144 98.9403 92.1112 97.9117 102.87 97.4468 123.421 95.3623 143.911 95.1364 164.474 94.233 179.816 93.2285 195.208 94.4843 210.562 103.611 209.494 112.575 207.097 121.777 206.732 131.13 206.921 140.759 209.908 147.651 216.449 156.803 224.923 162.001 238.043 159.716 250.472 157.582 259.034 149.711 264.608 142.127 268.148 127.904 274.815 111.822 274.777 96.4803 273.823 97.9738 289.19 98.1375 304.668 97.2463 320.073 95.9025 343.123 94.0571 366.147 91.4583 389.096 90.341 401.889 88.0687 414.934 91.0566 427.664 112.111 424.927 133.415 424.839 154.569 426.446 181.938 428.505 209.306 425.479 236.649 424.399 230.309 438.322 222.237 452.584 223.09 468.39 223.643 484.07 242.587 495.808 256.799 489.155 266.817 483.505 275.405 473.6 276.321 461.749 277.124 449.119 272.643 436.966 267.646 425.592 280.464 423.734 293.433 423.634 306.351 423.194 336.042 421.662 365.733 418.888 395.499 419.967 397.759 419.868 400.345 420.08 402.204 418.512 404.049 415.813 404.174 412.397 404.388 409.247 404.639 392.097 404.124 374.935 404.602 357.786 406.221 342.156 403.22 326.627 401.387 311.159 400.333 303.049 400.785 294.851 400.559 286.703 388.456 287.733 375.764 289.515 364.214 284.544 353.128 280.363 346.4 269.253 344.115 258.067 342.57 249.831 340.65 240.39 345.545 232.871 350.768 225.476 358.326 219.337 367.139 216.876 377.107 215.118 386.975 218.559 396.931 218.91 397.169 202.426 397.144 185.942 396.993 169.471 395.022 149.008 396.215 128.431 395.876 107.905 396.604 91.5086 397.734 75.1252 399.391 58.792 389.348 57.4989 379.291 55.917 369.135 56.0677 355.752 56.1304 342.357 55.9547 328.974 56.1681 313.394 57.3357 297.801 58.453 282.246 60.0976Z" transform="matrix(1.00242 0 0 1 147.361 195.12)"/><path d="M218.898 168.63C223.103 164.914 229.142 167.274 233.574 169.295 248.777 167.111 265.022 168.24 278.606 175.986 297.45 186.282 309.765 205.916 314.335 226.555 319.018 247.383 316.658 269.592 308.008 289.076 297.337 313.67 278.757 335.502 254.401 347.291 240.918 353.505 225.062 356.217 210.649 351.697 199.438 348.144 191.027 338.753 186.457 328.183 180.205 314.273 180.28 298.617 181.272 283.703 183.507 252.254 191.478 221.107 205.238 192.722 202.075 189.821 199.2 185.49 201.396 181.122 204.61 173.891 213.461 173.338 218.898 168.63M228.301 193.161C214.629 217.981 207.75 245.952 204.158 273.886 202.903 286.929 201.396 300.324 204.347 313.244 206.343 321.089 210.423 329.652 218.597 332.514 227.798 335.64 237.98 333.518 246.517 329.388 260.188 322.433 271.287 311.185 280.074 298.768 290.859 283.025 299.082 264.319 297.726 244.86 296.433 223.454 283.602 201.986 263.327 193.713 252.141 188.981 239.839 191.529 228.301 193.161Z" transform="matrix(1.00242 0 0 1 147.361 195.12)"/><path d="M282.246 60.0976C297.801 58.453 313.394 57.3357 328.974 56.1681 342.357 55.9547 355.752 56.1304 369.135 56.0677 379.291 55.917 389.348 57.4989 399.391 58.792 397.734 75.1252 396.604 91.5086 395.876 107.905 396.215 128.431 395.022 149.008 396.993 169.471 397.144 185.942 397.169 202.426 396.931 218.91 386.975 218.559 377.107 215.118 367.139 216.876 358.326 219.337 350.768 225.476 345.545 232.871 340.65 240.39 342.57 249.831 344.115 258.067 346.4 269.253 353.128 280.363 364.214 284.544 375.764 289.515 388.456 287.733 400.559 286.703 400.785 294.851 400.333 303.049 401.387 311.159 403.22 326.627 406.221 342.156 404.602 357.786 404.124 374.935 404.639 392.097 404.388 409.247 404.174 412.397 404.049 415.813 402.204 418.512 400.345 420.08 397.759 419.868 395.499 419.967 365.733 418.888 336.042 421.662 306.351 423.194 293.433 423.634 280.464 423.734 267.646 425.592 272.643 436.966 277.124 449.119 276.321 461.749 275.405 473.6 266.817 483.505 256.799 489.155 242.587 495.808 223.643 484.07 223.09 468.39 222.237 452.584 230.309 438.322 236.649 424.399 209.306 425.479 181.938 428.505 154.569 426.446 133.415 424.839 112.111 424.927 91.0566 427.664 88.0687 414.934 90.341 401.889 91.4583 389.096 94.0571 366.147 95.9025 343.123 97.2463 320.073 98.1375 304.668 97.9738 289.19 96.4803 273.823 111.822 274.777 127.904 274.815 142.127 268.148 149.711 264.608 157.582 259.034 159.716 250.472 162.001 238.043 156.803 224.923 147.651 216.449 140.759 209.908 131.13 206.921 121.777 206.732 112.575 207.097 103.611 209.494 94.4843 210.562 93.2285 195.208 94.233 179.816 95.1364 164.474 95.3623 143.911 97.4468 123.421 97.9117 102.87 98.9403 92.1112 99.0165 81.3144 99.0664 70.5177 121.263 68.9735 143.358 64.6925 165.68 66.061 185.277 66.4626 204.51 61.0141 224.133 62.031 223.066 71.0701 221.296 80.0214 220.529 89.0856 220.203 95.7773 220.466 102.468 220.367 109.16 220.341 114.295 220.216 119.881 223.254 124.288 226.505 128.971 230.836 132.862 235.519 136.076 239.336 138.751 244.295 137.634 248.413 136.327 257.301 133.352 264.307 126.736 270.395 119.844 275.518 114.621 278.028 107.503 278.48 100.31 280.74 87.215 277.086 74.1836 275.505 61.24 277.752 60.8885 280.012 60.537 282.246 60.0976M218.898 168.63C213.461 173.338 204.61 173.891 201.396 181.122 199.2 185.49 202.075 189.821 205.238 192.722 191.478 221.107 183.507 252.254 181.272 283.703 180.28 298.617 180.205 314.273 186.457 328.183 191.027 338.753 199.438 348.144 210.649 351.697 225.062 356.217 240.918 353.505 254.401 347.291 278.757 335.502 297.337 313.67 308.008 289.076 316.658 269.592 319.018 247.383 314.335 226.555 309.765 205.916 297.45 186.282 278.606 175.986 265.022 168.24 248.777 167.111 233.574 169.295 229.142 167.274 223.103 164.914 218.898 168.63Z" fill="#E89480" transform="matrix(1.00242 0 0 1 147.361 195.12)"/><path d="M228.301 193.161C239.839 191.529 252.141 188.981 263.327 193.713 283.602 201.986 296.433 223.454 297.726 244.86 299.082 264.319 290.859 283.025 280.074 298.768 271.287 311.185 260.188 322.433 246.517 329.388 237.98 333.518 227.798 335.64 218.597 332.514 210.423 329.652 206.343 321.089 204.347 313.244 201.396 300.324 202.903 286.929 204.158 273.886 207.75 245.952 214.629 217.981 228.301 193.161Z" fill="#E89480" transform="matrix(1.00242 0 0 1 147.361 195.12)"/></g></g></g></g></svg>