<svg width="355" height="524" xmlns="http://www.w3.org/2000/svg" xmlns:xlink="http://www.w3.org/1999/xlink" xml:space="preserve" overflow="hidden"><defs><clipPath id="clip0"><rect x="264" y="496" width="355" height="524"/></clipPath><clipPath id="clip1"><rect x="264" y="496" width="355" height="461"/></clipPath><clipPath id="clip2"><rect x="256" y="496" width="366" height="461"/></clipPath><clipPath id="clip3"><rect x="256" y="496" width="366" height="461"/></clipPath></defs><g clip-path="url(#clip0)" transform="translate(-264 -496)"><g clip-path="url(#clip1)"><g clip-path="url(#clip2)"><g clip-path="url(#clip3)"><path d="M180.164 11.077C186.523 9.94729 193.035 11.7497 198.735 14.5551 208.863 19.9371 217.458 29.013 220.605 40.2087 223.093 52.3691 221.189 64.9103 217.914 76.7407 254.979 78.6067 292.108 79.2668 329.148 81.8689 334.415 82.1736 339.671 80.9804 344.926 81.5009 346.399 83.1129 347.452 85.1185 347.871 87.2764 352.605 109.414 350.905 132.148 351.438 154.603 351.945 178.226 344.545 201.543 347.452 225.191 334.72 227.934 321.404 222.285 308.978 227.147 294.507 231.996 285.432 249.513 290.725 263.996 293.771 272.336 302.707 277.185 311.288 277.349 321.925 277.654 332.143 274.074 342.692 273.237 344.203 288.634 343.454 304.146 343.644 319.594 343.961 333.57 341.905 347.456 342.235 361.432 342.654 388.85 344.025 416.243 344.863 443.648 334.276 448.002 322.814 450.197 311.364 449.995 292.717 449.868 274.071 450.211 255.436 449.753 238.173 448.535 221.049 445.742 203.786 444.511 203.736 436.323 203.38 428.022 205.348 420 207.531 409.984 209.638 398.459 203.469 389.396 198.188 381.894 191.131 374.583 181.788 372.679 176.685 371.853 169.488 373.427 168.092 379.203 161.707 399.868 165.338 422.005 171.329 442.303 156.16 444.625 140.56 445.209 125.429 442.277 116.024 440.322 106.389 441.096 96.8686 440.766 73.614 440.183 50.3467 438.355 27.384 434.61 24.8072 402.267 25.2262 369.758 22.6367 337.428 22.6367 318.895 20.9992 300.172 23.9695 281.792 39.6207 285.74 56.5158 291.249 72.4081 285.385 83.9592 280.371 88.2243 267.043 89.8871 255.555 82.8168 246.136 71.6719 240.576 60.1843 238.85 52.1999 237.315 44.0381 237.847 35.9776 238.14 31.7506 238.418 28.3234 235.601 24.8326 233.671 25.3531 196.162 23.9568 158.588 19.3871 121.333 17.2292 105.491 16.4422 89.2947 19.1333 73.4658 32.8423 73.0723 46.234 76.8931 59.9557 76.4234 76.5589 77.1596 92.959 73.3896 109.562 74.164 126.432 73.5928 143.2 75.5984 160.032 76.2711 155.259 63.7172 150.068 50.427 152.327 36.7434 155.17 23.5802 166.937 13.0826 180.164 11.077M159.968 41.6304C158.979 57.1038 167.584 70.6606 173.335 84.395 146.348 83.4937 119.361 80.6377 92.3496 82.402 70.4406 84.0268 48.4046 83.9888 26.559 81.3485 25.6324 87.086 24.7057 92.8869 25.1754 98.7136 26.3305 112.968 28.1203 127.147 29.5547 141.377 32.0553 171.143 35.216 201.112 32.195 230.98 49.547 229.241 68.1303 230.117 83.5784 239.015 89.0621 242.607 94.8249 247.317 96.1322 254.108 97.9353 264.593 93.9364 275.382 87.1199 283.315 79.7069 291.579 68.5619 296.174 57.5058 295.984 48.2142 295.818 39.2018 293.305 30.0244 292.188 28.8946 312.765 30.8875 333.277 31.3444 353.828 32.7153 378.645 34.5179 403.448 34.6955 428.314 57.087 429.939 79.4022 434.179 101.908 432.795 121.71 432.477 141.181 437.568 160.997 436.806 159.473 424.417 156.566 412.104 157.214 399.525 157.734 391.071 155.246 381.056 161.593 374.176 165.718 369.962 169.984 365.252 175.721 363.323 184.67 362.383 193.099 367.169 199.738 372.741 206.935 379.203 214.829 386.641 215.54 396.935 218.397 410.569 214.563 424.201 212.939 437.707 238.44 440.475 264.043 443.216 289.734 442.569 305.817 442.861 321.913 442.556 337.818 439.941 336.421 424.823 335.254 409.692 334.467 394.537 334.403 379.71 334.467 364.885 334.453 350.071 334.391 341.566 335.863 333.138 335.685 324.621 335.609 311.241 335.723 297.85 335.596 284.458 327.054 284.496 318.689 286.73 310.12 286.388 299.584 286.679 290.687 279.393 284.353 271.676 279.808 266.294 280.049 258.805 280.989 252.242 282.487 240.437 287.666 227.591 298.95 222.044 311.314 215.583 325.708 216.941 339.087 218.388 339.252 210.607 338.96 202.788 339.849 195.032 341.575 179.939 344.913 164.796 343.136 149.539 342.209 131.209 343.53 112.79 342.489 94.4736 342.451 89.9674 338.339 87.9364 334.301 88.4315 309.282 89.8405 284.315 87.2637 259.334 86.4259 241.245 84.6234 222.953 86.0197 204.954 83.2399 210.691 70.7113 215.718 56.8119 212.748 42.8744 210.235 34.4713 203.99 27.5532 196.665 22.9582 182.651 13.9203 160.628 24.7099 159.968 41.6304Z" stroke="#000000" stroke-width="0.951476" transform="matrix(1 0 0 1.00058 256.502 496)"/><path d="M178.184 146.758C184.01 144.728 191.169 145.565 196.145 149.309 200.625 153.169 198.443 159.567 195.802 163.831 197.478 174.392 197.325 185.105 198.188 195.73 200.359 227.311 202.733 258.893 205.88 290.398 207.011 304.285 211.746 317.525 214.182 331.183 215.998 340.005 204.523 346.897 196.983 343.75 190.433 338.659 189.29 329.634 187.92 321.992 181.001 276.461 179.504 230.346 176 184.458 162.215 196.542 148.15 208.487 132.322 217.842 129.593 219.289 126.571 220.8 123.385 220.228 118.549 219.569 114.348 214.2 116.315 209.375 118.232 204.819 122.853 202.394 126.724 199.741 144.52 188.356 159.448 173.263 174.375 158.488 174.629 154.476 173.271 148.472 178.184 146.758Z" stroke="#000000" stroke-width="0.951476" transform="matrix(1 0 0 1.00058 256.502 496)"/><path d="M159.968 41.6304C160.628 24.7099 182.651 13.9203 196.665 22.9582 203.99 27.5532 210.235 34.4713 212.748 42.8744 215.718 56.8119 210.691 70.7113 204.954 83.2399 222.953 86.0197 241.245 84.6234 259.334 86.4259 284.315 87.2637 309.282 89.8405 334.301 88.4315 338.339 87.9364 342.451 89.9674 342.489 94.4736 343.53 112.79 342.209 131.209 343.136 149.539 344.913 164.796 341.575 179.939 339.849 195.032 338.96 202.788 339.252 210.607 339.087 218.388 325.708 216.941 311.314 215.583 298.95 222.044 287.666 227.591 282.487 240.437 280.989 252.242 280.049 258.805 279.808 266.294 284.353 271.676 290.687 279.393 299.584 286.679 310.12 286.388 318.689 286.73 327.054 284.496 335.596 284.458 335.723 297.85 335.609 311.241 335.685 324.621 335.863 333.138 334.391 341.566 334.453 350.071 334.467 364.885 334.403 379.71 334.467 394.537 335.254 409.692 336.421 424.823 337.818 439.941 321.913 442.556 305.817 442.861 289.734 442.569 264.043 443.216 238.44 440.475 212.939 437.707 214.563 424.201 218.397 410.569 215.54 396.935 214.829 386.641 206.935 379.203 199.738 372.741 193.099 367.169 184.67 362.383 175.721 363.323 169.984 365.252 165.718 369.962 161.593 374.176 155.246 381.056 157.734 391.071 157.214 399.525 156.566 412.104 159.473 424.417 160.997 436.806 141.181 437.568 121.71 432.477 101.908 432.795 79.4022 434.179 57.087 429.939 34.6955 428.314 34.5179 403.448 32.7153 378.645 31.3444 353.828 30.8875 333.277 28.8946 312.765 30.0244 292.188 39.2018 293.305 48.2142 295.818 57.5058 295.984 68.5619 296.174 79.7069 291.579 87.1199 283.315 93.9364 275.382 97.9353 264.593 96.1322 254.108 94.8249 247.317 89.0621 242.607 83.5784 239.015 68.1303 230.117 49.547 229.241 32.195 230.98 35.216 201.112 32.0553 171.143 29.5547 141.377 28.1203 127.147 26.3305 112.968 25.1754 98.7136 24.7057 92.8869 25.6324 87.086 26.559 81.3485 48.4046 83.9888 70.4406 84.0268 92.3496 82.402 119.361 80.6377 146.348 83.4937 173.335 84.395 167.584 70.6606 158.979 57.1038 159.968 41.6304M178.184 146.758C173.271 148.472 174.629 154.476 174.375 158.488 159.448 173.263 144.52 188.356 126.724 199.741 122.853 202.394 118.232 204.819 116.315 209.375 114.348 214.2 118.549 219.569 123.385 220.228 126.571 220.8 129.593 219.289 132.322 217.842 148.15 208.487 162.215 196.542 176 184.458 179.504 230.346 181.001 276.461 187.92 321.992 189.29 329.634 190.433 338.659 196.983 343.75 204.523 346.897 215.998 340.005 214.182 331.183 211.746 317.525 207.011 304.285 205.88 290.398 202.733 258.893 200.359 227.311 198.188 195.73 197.325 185.105 197.478 174.392 195.802 163.831 198.443 159.567 200.625 153.169 196.145 149.309 191.169 145.565 184.01 144.728 178.184 146.758Z" stroke="#000000" stroke-width="0.951476" fill="#E89480" transform="matrix(1 0 0 1.00058 256.502 496)"/></g></g></g></g></svg>