<?xml version="1.0" encoding="UTF-8" ?>
<!DOCTYPE svg PUBLIC "-//W3C//DTD SVG 1.1//EN" "http://www.w3.org/Graphics/SVG/1.1/DTD/svg11.dtd">
<svg width="889pt" height="627pt" viewBox="0 0 889 627" version="1.1" xmlns="http://www.w3.org/2000/svg">
<g id="#000000ff">
<path fill="#000000" opacity="1.00" d=" M 100.14 12.20 C 104.75 10.04 109.97 9.15 115.04 9.55 C 118.83 9.86 122.14 11.85 125.46 13.50 C 131.66 16.67 138.78 16.86 145.41 18.64 C 149.63 19.65 153.44 21.79 157.43 23.43 C 165.33 26.72 173.57 29.44 180.76 34.20 C 187.88 38.84 195.51 43.75 199.19 51.77 C 195.78 50.57 192.42 49.22 189.04 47.91 C 194.39 54.57 200.65 60.54 205.11 67.88 C 210.32 76.09 214.79 84.75 220.00 92.96 C 225.25 101.22 231.13 110.02 231.00 120.21 C 229.15 118.53 227.36 116.79 225.56 115.07 C 228.68 131.97 229.80 149.35 227.36 166.41 C 224.71 180.24 220.71 193.85 214.82 206.67 C 216.81 206.04 218.81 205.41 220.81 204.78 C 219.31 207.61 217.95 210.53 217.45 213.71 C 217.00 217.05 213.38 218.24 211.14 220.20 C 206.44 223.39 204.78 229.12 201.39 233.42 C 193.54 243.66 182.60 250.77 172.36 258.36 C 162.59 264.37 151.75 269.58 140.06 269.88 C 131.35 270.17 122.61 270.94 113.91 270.03 C 100.73 269.01 88.24 264.43 75.46 261.37 C 64.89 257.89 53.59 256.64 43.45 251.94 C 45.37 250.85 47.31 249.81 49.25 248.77 C 45.41 243.94 40.43 240.05 37.34 234.64 C 33.58 228.24 29.35 221.98 27.23 214.80 C 25.38 208.57 23.51 202.34 21.80 196.07 C 20.86 197.89 19.91 199.71 18.93 201.51 C 18.08 197.71 17.47 193.87 17.04 190.00 C 15.80 191.78 14.53 193.53 13.23 195.27 C 10.69 188.80 11.56 181.77 11.53 175.00 C 11.45 166.27 13.26 157.67 13.46 148.95 C 13.57 143.28 14.13 137.63 14.91 132.02 C 15.90 124.75 18.76 117.93 21.02 111.00 C 22.94 105.13 25.08 99.33 27.40 93.60 C 26.09 93.51 24.79 93.42 23.49 93.33 C 27.53 80.26 37.58 70.43 46.73 60.76 C 52.28 53.97 59.27 48.62 65.43 42.44 C 72.60 35.37 81.52 30.52 89.43 24.39 C 93.86 21.08 95.12 14.83 100.14 12.20 M 98.90 15.90 C 94.98 18.50 94.81 24.25 90.65 26.58 C 87.30 28.55 83.70 30.16 80.76 32.75 C 72.45 40.13 63.53 46.81 55.60 54.61 C 51.34 59.06 48.21 64.47 43.64 68.64 C 37.96 73.94 32.93 79.92 28.79 86.50 C 30.34 86.10 31.89 85.70 33.44 85.31 C 30.92 91.82 27.35 97.92 25.64 104.73 C 23.24 114.07 20.08 123.19 17.58 132.50 C 15.42 140.49 17.00 148.84 15.90 156.96 C 15.04 164.73 12.23 172.77 15.22 180.44 C 15.99 176.75 16.84 173.06 18.16 169.53 C 18.85 174.99 18.22 180.54 19.11 185.98 C 20.39 190.31 23.83 193.65 24.91 198.09 C 28.16 209.22 31.22 220.58 37.45 230.49 C 41.16 237.73 47.84 242.70 52.20 249.48 C 50.43 250.55 48.66 251.62 46.89 252.70 C 55.10 253.34 62.98 255.71 70.81 258.10 C 85.41 261.81 99.73 267.61 114.99 267.86 C 124.90 267.82 134.86 268.11 144.74 267.30 C 156.29 265.05 167.38 260.00 176.45 252.45 C 182.84 247.21 189.43 242.13 194.99 235.98 C 200.09 230.56 203.92 224.15 208.14 218.07 C 210.00 215.46 211.04 212.40 211.73 209.30 C 212.99 203.55 215.93 198.39 217.95 192.90 C 221.17 184.32 224.06 175.55 225.38 166.46 C 226.38 158.97 226.22 151.40 226.63 143.88 C 227.07 136.35 225.57 128.93 224.38 121.54 C 223.48 116.13 221.20 111.11 219.06 106.11 C 221.44 107.02 223.82 107.93 226.21 108.82 C 222.39 100.01 216.70 92.21 212.34 83.67 C 208.68 77.33 205.39 70.74 201.35 64.63 C 195.15 55.76 184.31 51.55 178.49 42.43 C 182.40 43.03 186.29 43.70 190.21 44.22 C 180.11 34.72 167.15 28.92 154.01 24.97 C 147.66 23.07 141.57 20.27 135.03 19.07 C 131.24 18.30 127.30 17.83 123.82 16.04 C 120.07 14.20 116.39 11.57 112.02 11.72 C 107.39 11.88 102.76 13.33 98.90 15.90 Z" />
<path fill="#000000" opacity="1.00" d=" M 421.81 11.81 C 428.96 8.66 437.70 8.33 444.52 12.52 C 453.25 17.70 464.01 16.57 473.01 21.02 C 482.52 25.58 492.90 28.35 501.76 34.20 C 508.88 38.85 516.51 43.75 520.19 51.77 C 516.77 50.57 513.41 49.21 510.04 47.91 C 515.39 54.57 521.64 60.54 526.11 67.87 C 531.97 77.12 536.91 86.92 542.98 96.04 C 547.51 103.36 552.18 111.29 551.99 120.20 C 550.14 118.52 548.35 116.79 546.57 115.06 C 550.42 136.52 551.56 159.07 545.18 180.17 C 542.99 189.31 539.62 198.09 535.82 206.67 C 537.82 206.02 539.83 205.40 541.84 204.79 C 540.62 207.27 539.47 209.78 538.27 212.28 C 538.45 213.27 538.64 214.26 538.83 215.26 C 534.36 218.55 529.22 221.48 526.64 226.64 C 520.56 238.44 509.60 246.50 499.12 254.15 C 492.45 259.58 484.74 263.51 476.83 266.77 C 468.13 270.28 458.58 269.93 449.38 270.34 C 440.15 270.82 430.86 269.97 421.82 268.03 C 408.32 264.69 395.00 260.66 381.49 257.34 C 375.72 255.86 369.79 254.70 364.45 251.93 C 366.37 250.85 368.31 249.82 370.25 248.77 C 366.41 243.94 361.43 240.05 358.34 234.63 C 354.58 228.24 350.35 221.98 348.23 214.80 C 346.37 208.57 344.51 202.34 342.80 196.07 C 341.86 197.89 340.91 199.71 339.93 201.51 C 339.08 197.71 338.46 193.87 338.04 190.00 C 336.80 191.77 335.53 193.53 334.23 195.27 C 331.68 188.81 332.56 181.77 332.53 175.00 C 332.45 167.28 333.88 159.66 334.32 151.97 C 334.74 141.44 335.18 130.69 338.73 120.66 C 341.84 111.60 344.74 102.46 348.40 93.60 C 347.09 93.51 345.78 93.42 344.48 93.33 C 349.20 78.09 361.87 67.60 372.02 55.99 C 377.17 50.81 382.81 46.15 387.98 40.98 C 394.85 34.65 403.09 30.10 410.43 24.39 C 415.01 20.91 416.33 14.28 421.81 11.81 M 419.90 15.90 C 415.98 18.50 415.81 24.25 411.65 26.58 C 407.87 28.74 403.88 30.64 400.68 33.66 C 390.40 43.03 378.37 50.79 370.30 62.33 C 366.60 67.25 361.75 71.11 357.75 75.75 C 354.78 79.09 352.26 82.78 349.79 86.50 C 351.34 86.10 352.88 85.70 354.44 85.31 C 351.92 91.82 348.35 97.92 346.64 104.73 C 344.24 114.07 341.07 123.19 338.58 132.51 C 336.42 140.50 337.99 148.84 336.90 156.96 C 336.04 164.74 333.24 172.77 336.22 180.44 C 336.99 176.75 337.85 173.06 339.16 169.52 C 339.86 174.98 339.21 180.54 340.10 185.98 C 341.40 190.31 344.83 193.65 345.91 198.10 C 349.16 209.22 352.21 220.59 358.46 230.49 C 362.16 237.72 368.83 242.69 373.18 249.47 C 371.42 250.54 369.65 251.62 367.89 252.70 C 375.53 253.34 382.94 255.32 390.22 257.65 C 400.74 260.39 411.04 263.92 421.67 266.20 C 433.94 268.90 446.57 267.62 459.02 267.74 C 467.32 267.98 475.23 265.04 482.71 261.77 C 488.26 259.30 493.31 255.84 498.00 252.00 C 504.02 247.05 510.22 242.26 515.51 236.49 C 520.98 230.77 525.09 223.95 529.54 217.45 C 532.56 213.06 532.66 207.51 534.81 202.75 C 541.15 188.26 546.80 173.00 547.15 157.01 C 547.36 147.57 548.43 138.04 546.53 128.70 C 545.74 120.83 543.47 113.23 540.07 106.11 C 542.44 107.02 544.82 107.93 547.22 108.82 C 543.92 101.13 539.05 94.28 535.12 86.92 C 531.75 80.66 528.16 74.52 524.71 68.30 C 520.28 60.30 512.56 54.99 505.56 49.42 C 503.10 47.51 501.24 44.98 499.49 42.43 C 503.40 43.03 507.29 43.70 511.21 44.22 C 500.92 34.51 487.63 28.72 474.22 24.72 C 466.52 22.12 458.89 19.17 450.79 18.04 C 444.71 17.23 440.14 12.23 434.01 11.74 C 429.04 11.62 424.04 13.18 419.90 15.90 Z" />
<path fill="#000000" opacity="1.00" d=" M 741.15 12.15 C 745.72 9.85 751.00 9.10 756.07 9.55 C 761.44 10.04 765.70 13.75 770.76 15.25 C 776.41 16.94 782.35 17.40 788.01 19.09 C 791.62 20.18 794.95 22.00 798.43 23.43 C 806.33 26.72 814.57 29.45 821.76 34.20 C 828.88 38.84 836.51 43.76 840.19 51.78 C 836.77 50.57 833.41 49.21 830.04 47.91 C 835.39 54.57 841.65 60.53 846.11 67.87 C 851.96 77.13 856.91 86.92 862.98 96.04 C 867.51 103.36 872.18 111.29 871.99 120.20 C 870.14 118.53 868.35 116.79 866.56 115.06 C 870.43 136.52 871.56 159.07 865.18 180.17 C 862.99 189.31 859.63 198.08 855.82 206.65 C 857.84 206.02 859.86 205.41 861.90 204.80 C 859.99 208.01 858.06 211.47 858.55 215.36 C 854.25 218.73 849.15 221.53 846.64 226.63 C 840.45 238.67 829.20 246.77 818.56 254.58 C 812.05 259.83 804.51 263.59 796.83 266.77 C 787.01 270.66 776.24 269.89 765.90 270.45 C 747.58 271.13 730.16 264.76 712.67 260.30 C 703.32 257.34 693.35 256.22 684.45 251.93 C 686.36 250.85 688.31 249.81 690.24 248.77 C 686.41 243.94 681.43 240.04 678.34 234.64 C 674.58 228.24 670.35 221.98 668.23 214.80 C 666.37 208.57 664.52 202.34 662.80 196.07 C 661.85 197.89 660.91 199.71 659.94 201.51 C 659.08 197.71 658.46 193.87 658.04 190.01 C 656.79 191.78 655.52 193.53 654.23 195.27 C 651.68 188.80 652.56 181.77 652.53 175.00 C 652.45 167.28 653.89 159.67 654.32 151.98 C 654.74 141.45 655.18 130.69 658.73 120.66 C 661.84 111.60 664.74 102.46 668.39 93.60 C 667.08 93.51 665.78 93.42 664.49 93.32 C 668.47 80.50 678.22 70.74 687.26 61.28 C 693.10 54.12 700.44 48.46 706.95 41.95 C 714.01 35.12 722.71 30.38 730.43 24.39 C 734.84 21.05 736.16 14.86 741.15 12.15 M 739.90 15.90 C 736.39 18.28 735.87 23.03 732.81 25.79 C 729.22 28.26 725.03 29.81 721.75 32.75 C 714.14 39.50 706.05 45.68 698.63 52.64 C 693.28 57.36 689.90 63.83 684.64 68.65 C 678.96 73.94 673.94 79.92 669.80 86.49 C 671.33 86.10 672.88 85.71 674.43 85.32 C 671.92 91.82 668.34 97.92 666.64 104.73 C 664.25 114.07 661.07 123.19 658.58 132.50 C 656.42 140.50 657.99 148.84 656.90 156.96 C 656.04 164.73 653.24 172.76 656.22 180.43 C 657.00 176.75 657.85 173.07 659.16 169.53 C 660.38 176.48 657.93 184.41 662.26 190.56 C 666.19 196.25 667.17 203.22 669.36 209.64 C 671.71 217.91 675.39 225.74 679.98 233.00 C 683.66 239.06 689.42 243.47 693.19 249.47 C 691.42 250.54 689.65 251.62 687.89 252.69 C 698.38 253.45 708.21 257.30 718.31 259.89 C 730.34 263.25 742.35 267.48 754.97 267.82 C 763.32 268.05 771.68 267.76 780.03 267.71 C 787.73 267.80 795.05 265.03 802.03 262.07 C 807.84 259.57 813.13 256.01 818.01 252.00 C 824.03 247.06 830.22 242.26 835.51 236.50 C 840.98 230.77 845.09 223.96 849.54 217.45 C 852.55 213.06 852.66 207.52 854.82 202.75 C 861.15 188.26 866.80 173.00 867.16 157.01 C 867.36 147.57 868.44 138.05 866.54 128.70 C 865.74 120.84 863.47 113.24 860.07 106.11 C 862.44 107.02 864.82 107.93 867.21 108.82 C 865.47 105.00 863.57 101.24 861.37 97.65 C 854.80 87.05 849.36 75.79 842.76 65.20 C 836.62 55.98 825.45 51.74 819.49 42.43 C 823.39 43.03 827.29 43.70 831.21 44.22 C 821.52 35.10 809.16 29.35 796.57 25.46 C 788.30 22.93 780.31 19.38 771.68 18.23 C 765.88 17.60 761.40 13.45 755.90 12.00 C 750.34 11.07 744.56 12.91 739.90 15.90 Z" />
<path fill="#000000" opacity="1.00" d=" M 135.17 38.20 C 141.24 39.11 145.32 33.65 149.47 30.20 C 147.67 35.68 143.33 41.19 137.00 40.95 C 132.06 41.43 128.64 37.44 125.81 34.02 C 126.04 33.44 126.51 32.29 126.75 31.71 C 127.18 31.62 128.04 31.44 128.47 31.35 C 130.50 33.78 132.13 36.93 135.17 38.20 Z" />
<path fill="#000000" opacity="1.00" d=" M 456.17 38.20 C 462.23 39.12 466.32 33.66 470.47 30.21 C 468.67 35.69 464.33 41.19 458.00 40.95 C 453.06 41.43 449.65 37.47 446.85 34.04 C 447.06 33.44 447.48 32.25 447.69 31.66 C 448.14 31.59 449.04 31.46 449.49 31.39 C 451.51 33.81 453.14 36.93 456.17 38.20 Z" />
<path fill="#000000" opacity="1.00" d=" M 776.17 38.20 C 782.23 39.11 786.32 33.66 790.47 30.21 C 788.67 35.69 784.33 41.20 778.00 40.95 C 773.06 41.43 769.64 37.45 766.83 34.03 C 767.05 33.44 767.50 32.27 767.72 31.69 C 768.16 31.61 769.04 31.45 769.48 31.37 C 771.50 33.79 773.13 36.93 776.17 38.20 Z" />
<path fill="#000000" opacity="1.00" d=" M 84.14 50.66 C 83.73 42.24 90.39 34.76 98.46 33.13 C 96.23 36.66 92.67 38.90 89.62 41.62 C 87.27 43.51 87.08 46.69 86.53 49.42 C 90.30 48.53 93.93 47.13 97.44 45.51 C 95.82 47.17 94.36 49.09 92.30 50.23 C 89.66 51.04 86.85 50.65 84.14 50.66 Z" />
<path fill="#000000" opacity="1.00" d=" M 405.15 50.66 C 404.72 42.24 411.39 34.78 419.45 33.12 C 416.21 39.00 406.81 41.19 407.83 49.13 C 411.64 48.90 415.01 46.99 418.43 45.47 C 416.84 47.16 415.37 49.09 413.30 50.23 C 410.66 51.04 407.85 50.65 405.15 50.66 Z" />
<path fill="#000000" opacity="1.00" d=" M 725.15 50.66 C 724.71 42.23 731.40 34.77 739.46 33.12 C 737.23 36.65 733.67 38.90 730.62 41.62 C 728.28 43.52 728.08 46.69 727.53 49.43 C 731.30 48.52 734.92 47.13 738.44 45.50 C 736.82 47.17 735.36 49.09 733.30 50.23 C 730.66 51.04 727.85 50.65 725.15 50.66 Z" />
<path fill="#000000" opacity="1.00" d=" M 117.88 37.05 C 121.27 38.77 125.32 40.30 127.05 43.97 C 128.25 47.05 126.70 50.44 125.01 53.01 C 122.98 56.13 118.71 56.48 115.43 55.54 C 112.42 54.81 111.11 51.75 109.56 49.41 C 112.64 50.66 115.61 52.41 118.96 52.86 C 121.76 53.04 122.98 49.98 124.61 48.25 C 122.28 44.57 119.99 40.87 117.88 37.05 Z" />
<path fill="#000000" opacity="1.00" d=" M 438.85 37.06 C 442.26 38.75 446.30 40.30 448.04 43.97 C 449.25 47.05 447.70 50.43 446.01 53.01 C 443.80 56.34 439.09 56.62 435.67 55.27 C 433.12 54.25 432.00 51.53 430.55 49.41 C 433.38 50.59 436.12 52.07 439.14 52.75 C 442.02 53.48 444.72 50.80 445.02 48.06 C 443.55 44.10 440.85 40.76 438.85 37.06 Z" />
<path fill="#000000" opacity="1.00" d=" M 758.87 37.05 C 762.26 38.76 766.31 40.30 768.04 43.97 C 769.25 47.05 767.70 50.43 766.01 53.01 C 763.79 56.33 759.09 56.62 755.66 55.27 C 753.12 54.24 752.00 51.53 750.55 49.41 C 753.64 50.66 756.61 52.40 759.96 52.86 C 762.75 53.03 763.98 49.97 765.62 48.25 C 763.28 44.57 760.98 40.87 758.87 37.05 Z" />
<path fill="#000000" opacity="1.00" d=" M 170.18 59.57 C 175.49 63.25 178.28 69.20 181.27 74.70 C 184.84 81.39 187.61 88.68 187.85 96.34 C 184.45 91.77 183.37 86.08 180.95 81.02 C 177.35 73.87 173.99 66.61 170.18 59.57 Z" />
<path fill="#000000" opacity="1.00" d=" M 491.18 59.57 C 496.49 63.24 499.27 69.21 502.27 74.69 C 505.85 81.38 508.62 88.68 508.85 96.35 C 505.45 91.77 504.37 86.08 501.95 81.02 C 498.36 73.87 494.99 66.61 491.18 59.57 Z" />
<path fill="#000000" opacity="1.00" d=" M 811.18 59.58 C 813.86 61.64 816.29 64.06 817.96 67.03 C 823.27 76.02 828.54 85.64 828.85 96.34 C 825.44 91.77 824.36 86.08 821.95 81.01 C 818.35 73.87 814.99 66.61 811.18 59.58 Z" />
<path fill="#000000" opacity="1.00" d=" M 89.32 86.20 C 91.63 80.59 93.58 74.33 98.71 70.59 C 96.31 76.42 92.63 81.64 90.54 87.61 C 88.30 93.51 87.73 99.85 87.23 106.09 C 86.72 106.33 85.71 106.82 85.21 107.06 C 85.39 99.93 86.66 92.83 89.32 86.20 Z" />
<path fill="#000000" opacity="1.00" d=" M 410.32 86.19 C 412.64 80.60 414.57 74.32 419.70 70.60 C 417.31 76.43 413.63 81.65 411.54 87.61 C 409.30 93.51 408.73 99.85 408.23 106.09 C 407.73 106.33 406.71 106.82 406.21 107.06 C 406.39 99.93 407.66 92.83 410.32 86.19 Z" />
<path fill="#000000" opacity="1.00" d=" M 734.92 75.92 C 736.05 73.78 737.89 72.16 739.71 70.60 C 737.32 76.43 733.63 81.65 731.55 87.61 C 729.30 93.51 728.72 99.85 728.23 106.09 C 727.73 106.33 726.72 106.81 726.21 107.05 C 726.29 96.11 729.87 85.52 734.92 75.92 Z" />
<path fill="#000000" opacity="1.00" d=" M 47.16 116.14 C 49.66 102.96 53.31 88.82 63.55 79.41 C 61.17 84.66 57.88 89.45 55.73 94.81 C 52.81 101.90 51.03 109.47 47.16 116.14 Z" />
<path fill="#000000" opacity="1.00" d=" M 368.15 116.14 C 370.66 102.96 374.31 88.83 384.55 79.42 C 382.28 84.44 379.16 89.02 377.03 94.10 C 373.92 101.39 372.17 109.25 368.15 116.14 Z" />
<path fill="#000000" opacity="1.00" d=" M 688.16 116.14 C 690.66 102.96 694.31 88.83 704.55 79.41 C 702.80 83.27 700.57 86.88 698.64 90.64 C 694.42 98.84 692.82 108.14 688.16 116.14 Z" />
<path fill="#000000" opacity="1.00" d=" M 39.31 109.12 C 42.06 103.54 44.56 97.36 50.02 93.87 C 47.61 98.78 44.21 103.15 42.07 108.20 C 39.53 114.13 37.73 120.36 36.68 126.72 C 36.21 129.78 35.19 132.73 33.78 135.48 C 33.25 126.39 35.28 117.26 39.31 109.12 Z" />
<path fill="#000000" opacity="1.00" d=" M 360.31 109.12 C 363.06 103.54 365.56 97.36 371.03 93.86 C 368.61 98.78 365.21 103.15 363.06 108.20 C 360.53 114.13 358.73 120.36 357.69 126.72 C 357.21 129.78 356.19 132.73 354.78 135.48 C 354.24 126.39 356.28 117.26 360.31 109.12 Z" />
<path fill="#000000" opacity="1.00" d=" M 685.49 99.35 C 686.87 97.11 688.96 95.46 691.02 93.87 C 687.36 100.71 682.68 107.09 680.63 114.69 C 677.98 121.43 678.24 129.02 674.78 135.47 C 673.80 122.55 678.92 110.19 685.49 99.35 Z" />
<path fill="#000000" opacity="1.00" d=" M 181.00 95.88 C 186.26 100.93 189.01 107.86 191.22 114.67 C 192.43 118.41 192.78 122.36 192.92 126.28 C 190.82 122.33 189.45 118.07 188.27 113.78 C 186.61 107.51 183.01 102.01 181.00 95.88 Z" />
<path fill="#000000" opacity="1.00" d=" M 502.01 95.88 C 507.26 100.94 510.02 107.87 512.22 114.67 C 513.43 118.41 513.78 122.36 513.92 126.27 C 511.68 122.09 510.30 117.54 509.03 112.99 C 507.37 107.02 504.00 101.73 502.01 95.88 Z" />
<path fill="#000000" opacity="1.00" d=" M 822.00 95.87 C 827.26 100.93 830.01 107.86 832.22 114.67 C 833.43 118.41 833.77 122.36 833.92 126.28 C 831.82 122.33 830.45 118.07 829.27 113.78 C 827.61 107.50 824.00 102.01 822.00 95.87 Z" />
<path fill="#000000" opacity="1.00" d=" M 60.37 135.35 C 58.44 126.47 59.70 116.83 63.50 108.61 C 62.33 117.51 60.96 126.38 60.37 135.35 Z" />
<path fill="#000000" opacity="1.00" d=" M 381.37 135.35 C 379.44 126.48 380.70 116.83 384.50 108.62 C 383.34 117.52 381.95 126.38 381.37 135.35 Z" />
<path fill="#000000" opacity="1.00" d=" M 701.37 135.35 C 699.44 126.48 700.69 116.83 704.50 108.62 C 703.34 117.52 701.95 126.38 701.37 135.35 Z" />
<path fill="#000000" opacity="1.00" d=" M 165.60 109.50 C 167.72 112.12 169.81 114.92 170.57 118.28 C 172.46 126.16 173.43 134.46 171.77 142.49 C 170.22 137.80 170.34 132.84 170.14 127.98 C 169.94 121.55 167.29 115.61 165.60 109.50 Z" />
<path fill="#000000" opacity="1.00" d=" M 486.60 109.50 C 488.72 112.13 490.81 114.92 491.57 118.28 C 493.45 126.16 494.44 134.46 492.77 142.48 C 491.22 137.80 491.34 132.84 491.14 127.98 C 490.93 121.55 488.29 115.61 486.60 109.50 Z" />
<path fill="#000000" opacity="1.00" d=" M 806.60 109.50 C 808.72 112.12 810.80 114.92 811.57 118.27 C 813.46 126.16 814.42 134.46 812.77 142.49 C 810.48 135.77 811.96 128.55 810.27 121.73 C 809.27 117.59 807.73 113.61 806.60 109.50 Z" />
<path fill="#000000" opacity="1.00" d=" M 208.38 144.99 C 209.29 136.52 208.59 127.89 210.41 119.53 C 212.85 129.58 210.85 139.90 209.95 150.01 C 209.44 155.51 208.39 161.35 204.21 165.35 C 204.97 158.42 208.13 152.00 208.38 144.99 Z" />
<path fill="#000000" opacity="1.00" d=" M 529.38 144.99 C 530.29 136.52 529.60 127.89 531.41 119.53 C 533.79 129.25 531.94 139.24 531.06 149.02 C 530.49 154.82 529.66 161.12 525.21 165.36 C 525.96 158.43 529.13 152.00 529.38 144.99 Z" />
<path fill="#000000" opacity="1.00" d=" M 849.38 144.99 C 850.28 136.52 849.60 127.89 851.41 119.53 C 853.84 129.58 851.86 139.90 850.95 150.01 C 850.44 155.51 849.38 161.35 845.22 165.34 C 845.96 158.42 849.12 152.00 849.38 144.99 Z" />
<path fill="#000000" opacity="1.00" d=" M 159.55 124.78 C 162.54 132.79 161.52 141.44 161.40 149.80 C 161.30 154.74 160.54 159.71 158.57 164.28 C 158.42 157.50 159.46 150.76 159.47 143.98 C 159.52 137.58 159.21 131.17 159.55 124.78 Z" />
<path fill="#000000" opacity="1.00" d=" M 480.55 124.77 C 483.53 132.79 482.52 141.44 482.40 149.80 C 482.30 154.74 481.54 159.72 479.57 164.28 C 479.41 157.50 480.46 150.76 480.47 143.98 C 480.51 137.58 480.21 131.17 480.55 124.77 Z" />
<path fill="#000000" opacity="1.00" d=" M 800.56 124.77 C 803.52 132.79 802.53 141.44 802.40 149.80 C 802.30 154.75 801.54 159.72 799.57 164.28 C 799.41 157.50 800.46 150.76 800.47 143.98 C 800.51 137.58 800.21 131.17 800.56 124.77 Z" />
<path fill="#000000" opacity="1.00" d=" M 186.56 142.47 C 189.32 149.00 188.31 156.19 187.81 163.04 C 187.25 168.65 187.22 174.79 183.46 179.39 C 183.92 173.54 185.50 167.85 186.00 162.01 C 186.61 155.51 186.01 148.97 186.56 142.47 Z" />
<path fill="#000000" opacity="1.00" d=" M 507.56 142.47 C 510.33 148.99 509.30 156.19 508.81 163.03 C 508.25 168.65 508.21 174.79 504.46 179.39 C 504.93 173.54 506.50 167.85 507.00 162.01 C 507.61 155.51 507.00 148.97 507.56 142.47 Z" />
<path fill="#000000" opacity="1.00" d=" M 827.55 142.48 C 830.32 149.00 829.31 156.19 828.81 163.03 C 828.25 168.65 828.21 174.79 824.46 179.39 C 824.92 173.54 826.50 167.86 827.00 162.01 C 827.60 155.52 827.01 148.98 827.55 142.48 Z" />
<path fill="#000000" opacity="1.00" d=" M 63.81 163.42 C 63.22 157.47 61.83 150.87 65.17 145.47 C 65.14 151.14 64.24 156.86 65.30 162.50 C 66.30 168.19 68.20 173.73 68.50 179.54 C 64.81 175.00 64.83 168.90 63.81 163.42 Z" />
<path fill="#000000" opacity="1.00" d=" M 384.81 163.42 C 384.23 157.47 382.82 150.87 386.17 145.47 C 386.16 149.33 385.73 153.17 385.79 157.03 C 385.85 164.71 389.14 171.90 389.49 179.55 C 385.81 175.00 385.82 168.90 384.81 163.42 Z" />
<path fill="#000000" opacity="1.00" d=" M 704.81 163.42 C 704.22 157.47 702.82 150.87 706.17 145.46 C 706.14 149.32 705.73 153.17 705.78 157.03 C 705.86 164.71 709.13 171.90 709.50 179.55 C 705.81 175.00 705.82 168.91 704.81 163.42 Z" />
<path fill="#000000" opacity="1.00" d=" M 47.12 159.90 C 46.02 156.45 46.85 152.88 48.30 149.68 C 49.51 155.55 49.95 161.58 51.55 167.37 C 52.67 171.44 53.78 175.52 54.36 179.70 C 49.84 174.06 48.98 166.65 47.12 159.90 Z" />
<path fill="#000000" opacity="1.00" d=" M 368.11 159.90 C 367.02 156.44 367.86 152.87 369.30 149.67 C 370.51 155.55 370.95 161.57 372.55 167.37 C 373.67 171.44 374.78 175.52 375.36 179.70 C 370.84 174.05 369.98 166.65 368.11 159.90 Z" />
<path fill="#000000" opacity="1.00" d=" M 688.12 159.90 C 687.02 156.45 687.84 152.88 689.30 149.68 C 690.51 155.55 690.95 161.57 692.55 167.37 C 693.67 171.43 694.78 175.52 695.36 179.70 C 690.84 174.06 689.98 166.66 688.12 159.90 Z" />
<path fill="#000000" opacity="1.00" d=" M 193.32 177.28 C 194.38 171.98 195.06 166.52 197.55 161.64 C 197.93 167.21 196.97 172.78 194.89 177.95 C 192.04 185.05 189.75 192.76 184.24 198.35 C 186.16 190.84 191.82 184.92 193.32 177.28 Z" />
<path fill="#000000" opacity="1.00" d=" M 511.66 184.65 C 515.57 177.49 514.72 168.84 518.55 161.65 C 518.93 167.21 517.97 172.78 515.89 177.95 C 513.04 185.05 510.75 192.76 505.25 198.35 C 506.61 193.44 509.26 189.09 511.66 184.65 Z" />
<path fill="#000000" opacity="1.00" d=" M 831.66 184.65 C 835.57 177.49 834.72 168.84 838.55 161.64 C 838.93 167.21 837.97 172.78 835.88 177.95 C 833.03 185.05 830.76 192.76 825.24 198.35 C 826.61 193.44 829.26 189.09 831.66 184.65 Z" />
<path fill="#000000" opacity="1.00" d=" M 204.46 186.38 C 206.64 179.28 208.78 172.08 212.63 165.68 C 211.25 172.83 208.29 179.53 206.37 186.53 C 204.42 193.35 202.59 200.40 198.35 206.23 C 199.91 199.47 202.47 193.01 204.46 186.38 Z" />
<path fill="#000000" opacity="1.00" d=" M 525.46 186.37 C 527.63 179.28 529.78 172.09 533.63 165.69 C 532.24 172.84 529.29 179.53 527.37 186.53 C 525.42 193.35 523.59 200.40 519.35 206.23 C 520.91 199.47 523.47 193.01 525.46 186.37 Z" />
<path fill="#000000" opacity="1.00" d=" M 843.78 191.67 C 846.70 182.88 848.81 173.69 853.64 165.68 C 852.24 172.83 849.29 179.53 847.37 186.53 C 845.41 193.35 843.60 200.41 839.35 206.23 C 840.49 201.28 842.18 196.48 843.78 191.67 Z" />
<path fill="#000000" opacity="1.00" d=" M 36.49 179.69 C 38.88 184.79 40.06 190.33 42.20 195.53 C 43.83 199.59 45.16 203.76 46.51 207.91 C 46.14 208.17 45.41 208.67 45.04 208.93 C 39.24 200.38 36.65 189.93 36.49 179.69 Z" />
<path fill="#000000" opacity="1.00" d=" M 357.48 179.69 C 359.86 184.79 361.07 190.32 363.20 195.52 C 364.82 199.58 366.15 203.75 367.50 207.90 C 367.14 208.16 366.41 208.68 366.04 208.93 C 360.24 200.38 357.66 189.94 357.48 179.69 Z" />
<path fill="#000000" opacity="1.00" d=" M 677.49 179.69 C 681.03 189.02 684.31 198.47 687.52 207.94 C 687.15 208.18 686.40 208.66 686.03 208.90 C 680.21 200.36 677.66 189.92 677.49 179.69 Z" />
<path fill="#000000" opacity="1.00" d=" M 93.53 210.39 C 93.35 206.70 94.16 203.08 95.05 199.53 C 95.33 204.99 95.24 210.48 95.97 215.91 C 96.77 222.50 98.95 228.80 100.71 235.18 C 99.57 234.98 98.44 234.80 97.30 234.62 C 95.13 226.72 93.96 218.56 93.53 210.39 Z" />
<path fill="#000000" opacity="1.00" d=" M 418.30 234.62 C 415.67 223.23 412.75 211.08 416.06 199.54 C 416.33 204.99 416.24 210.48 416.97 215.91 C 417.77 222.50 419.96 228.81 421.71 235.18 C 420.57 234.99 419.43 234.80 418.30 234.62 Z" />
<path fill="#000000" opacity="1.00" d=" M 734.56 211.20 C 734.26 207.25 735.08 203.34 736.06 199.53 C 736.33 204.99 736.24 210.48 736.98 215.92 C 737.78 222.51 739.96 228.81 741.71 235.19 C 740.57 234.99 739.43 234.80 738.30 234.61 C 736.19 226.98 735.06 219.10 734.56 211.20 Z" />
<path fill="#000000" opacity="1.00" d=" M 138.05 229.87 C 139.77 222.16 138.88 213.80 142.48 206.58 C 142.64 213.45 141.12 220.20 140.90 227.06 C 140.67 233.27 138.27 239.13 135.49 244.60 C 134.48 246.86 132.35 248.21 130.38 249.55 C 133.23 243.11 137.26 237.03 138.05 229.87 Z" />
<path fill="#000000" opacity="1.00" d=" M 459.05 229.87 C 460.77 222.16 459.89 213.80 463.48 206.59 C 463.63 213.46 462.13 220.21 461.90 227.06 C 461.67 233.28 459.27 239.12 456.49 244.59 C 455.48 246.85 453.35 248.22 451.38 249.56 C 454.22 243.11 458.26 237.04 459.05 229.87 Z" />
<path fill="#000000" opacity="1.00" d=" M 779.05 229.87 C 780.78 222.16 779.88 213.80 783.48 206.59 C 783.60 210.54 783.12 214.47 782.62 218.39 C 781.84 224.58 782.25 231.04 779.86 236.93 C 777.97 241.66 776.29 247.11 771.39 249.55 C 774.23 243.11 778.26 237.03 779.05 229.87 Z" />
<path fill="#000000" opacity="1.00" d=" M 100.14 355.19 C 104.75 353.03 109.97 352.15 115.04 352.55 C 118.83 352.85 122.14 354.85 125.46 356.50 C 131.67 359.67 138.78 359.86 145.41 361.64 C 149.63 362.65 153.45 364.78 157.43 366.43 C 165.33 369.72 173.57 372.45 180.76 377.20 C 187.88 381.84 195.50 386.76 199.19 394.77 C 195.78 393.56 192.41 392.21 189.03 390.91 C 193.64 396.64 198.90 401.84 203.13 407.86 C 209.90 417.95 215.24 428.93 221.98 439.04 C 226.51 446.36 231.18 454.29 230.99 463.20 C 229.14 461.52 227.36 459.79 225.56 458.06 C 228.68 474.96 229.81 492.34 227.37 509.40 C 224.71 523.24 220.71 536.85 214.82 549.66 C 216.82 549.03 218.83 548.41 220.84 547.78 C 219.02 551.12 217.17 554.54 217.44 558.44 C 213.78 561.39 209.40 563.69 206.80 567.75 C 204.83 570.81 203.25 574.13 200.96 576.98 C 193.61 586.39 183.56 593.03 174.13 600.13 C 168.44 604.23 162.00 607.15 155.53 609.80 C 146.65 613.37 136.92 612.95 127.53 613.37 C 115.32 613.94 103.07 612.11 91.40 608.56 C 78.71 605.38 66.17 601.63 53.45 598.56 C 49.98 597.74 46.64 596.49 43.45 594.94 C 45.37 593.85 47.31 592.81 49.24 591.76 C 45.41 586.94 40.43 583.04 37.35 577.64 C 33.58 571.24 29.35 564.98 27.23 557.80 C 25.38 551.57 23.51 545.34 21.80 539.07 C 20.86 540.89 19.91 542.71 18.93 544.51 C 18.08 540.72 17.46 536.87 17.04 533.01 C 15.80 534.78 14.53 536.53 13.23 538.26 C 10.68 531.80 11.56 524.77 11.53 518.00 C 11.45 510.28 12.88 502.66 13.32 494.98 C 13.74 484.44 14.18 473.69 17.73 463.66 C 20.84 454.60 23.74 445.45 27.40 436.60 C 26.09 436.50 24.79 436.42 23.48 436.33 C 28.19 421.09 40.88 410.60 51.02 399.00 C 56.17 393.81 61.81 389.15 66.98 383.98 C 73.85 377.65 82.09 373.10 89.44 367.39 C 93.86 364.08 95.12 357.82 100.14 355.19 M 98.90 358.90 C 94.98 361.51 94.81 367.25 90.65 369.58 C 86.87 371.74 82.88 373.64 79.68 376.67 C 69.40 386.02 57.38 393.80 49.30 405.33 C 45.60 410.24 40.75 414.11 36.75 418.75 C 33.79 422.09 31.27 425.78 28.80 429.49 C 30.34 429.09 31.88 428.70 33.43 428.31 C 31.92 432.09 30.21 435.77 28.53 439.48 C 25.99 445.08 24.87 451.17 23.04 457.01 C 21.19 463.43 19.01 469.77 17.40 476.26 C 15.56 483.72 16.89 491.46 16.00 499.02 C 15.26 507.12 12.12 515.44 15.22 523.43 C 15.99 519.74 16.84 516.06 18.17 512.53 C 19.39 519.48 16.93 527.41 21.26 533.56 C 25.06 539.01 26.07 545.70 28.12 551.89 C 30.46 560.18 34.03 568.07 38.59 575.38 C 42.27 581.73 48.29 586.26 52.19 592.47 C 50.43 593.54 48.66 594.62 46.91 595.70 C 57.39 596.45 67.22 600.30 77.31 602.88 C 86.43 605.45 95.47 608.45 104.86 609.96 C 113.50 611.36 122.29 610.83 131.00 610.80 C 136.86 610.67 142.84 611.07 148.57 609.52 C 157.96 606.91 167.11 602.93 174.75 596.78 C 181.92 590.99 189.29 585.34 195.47 578.46 C 200.34 573.16 204.05 566.96 208.14 561.07 C 211.48 556.57 211.60 550.75 213.81 545.75 C 220.14 531.26 225.80 516.01 226.15 500.01 C 226.36 490.57 227.44 481.04 225.53 471.70 C 224.74 463.83 222.47 456.23 219.06 449.11 C 221.44 450.02 223.83 450.93 226.22 451.82 C 222.82 443.91 217.79 436.87 213.77 429.28 C 210.51 423.24 207.04 417.31 203.71 411.30 C 199.27 403.30 191.56 397.98 184.56 392.42 C 182.10 390.50 180.24 387.98 178.49 385.44 C 182.39 386.03 186.29 386.70 190.21 387.22 C 180.11 377.71 167.15 371.92 154.00 367.97 C 146.29 365.49 138.76 362.32 130.68 361.23 C 124.23 360.60 119.43 355.32 113.01 354.74 C 108.04 354.62 103.04 356.18 98.90 358.90 Z" />
<path fill="#000000" opacity="1.00" d=" M 421.22 355.18 C 425.81 353.00 431.01 352.11 436.06 352.54 C 441.44 353.02 445.70 356.76 450.76 358.25 C 456.41 359.94 462.35 360.39 468.01 362.09 C 471.62 363.17 474.94 365.00 478.43 366.43 C 486.33 369.72 494.57 372.44 501.76 377.20 C 508.88 381.84 516.51 386.75 520.19 394.77 C 516.78 393.56 513.42 392.21 510.04 390.91 C 515.39 397.57 521.64 403.54 526.11 410.87 C 531.96 420.12 536.91 429.92 542.98 439.04 C 547.51 446.36 552.19 454.29 551.98 463.20 C 550.14 461.52 548.35 459.79 546.57 458.06 C 549.67 474.96 550.80 492.35 548.36 509.41 C 545.71 523.24 541.71 536.84 535.82 549.66 C 537.83 549.04 539.84 548.40 541.86 547.79 C 540.05 551.05 538.13 554.46 538.51 558.34 C 534.25 561.75 529.14 564.53 526.64 569.64 C 521.00 580.54 511.17 588.38 501.41 595.44 C 489.34 605.01 474.81 612.84 459.06 613.00 C 445.82 613.75 432.36 613.86 419.44 610.47 C 403.91 606.41 388.46 602.04 372.89 598.15 C 369.96 597.39 367.17 596.23 364.45 594.93 C 366.37 593.85 368.31 592.81 370.25 591.76 C 366.41 586.94 361.43 583.04 358.34 577.63 C 354.58 571.24 350.35 564.98 348.23 557.80 C 346.38 551.57 344.52 545.34 342.80 539.07 C 341.86 540.89 340.91 542.70 339.93 544.51 C 339.08 540.71 338.46 536.86 338.04 533.00 C 336.80 534.77 335.52 536.53 334.23 538.27 C 331.69 531.80 332.56 524.77 332.53 518.00 C 332.46 508.94 334.38 500.01 334.50 490.95 C 334.90 482.02 335.56 472.94 338.48 464.42 C 341.66 455.10 344.64 445.71 348.40 436.60 C 347.09 436.51 345.78 436.41 344.49 436.33 C 348.47 423.51 358.22 413.74 367.26 404.28 C 373.10 397.12 380.44 391.46 386.94 384.95 C 394.01 378.13 402.71 373.38 410.43 367.39 C 414.87 364.06 416.13 357.76 421.22 355.18 M 420.50 358.50 C 416.76 360.65 416.00 365.29 413.32 368.36 C 411.26 370.11 408.71 371.11 406.41 372.50 C 401.84 375.06 398.33 379.02 394.24 382.22 C 388.87 386.49 383.72 391.03 378.64 395.64 C 373.28 400.36 369.90 406.82 364.65 411.64 C 358.96 416.94 353.94 422.92 349.79 429.50 C 351.34 429.10 352.88 428.70 354.43 428.31 C 351.92 434.82 348.35 440.91 346.64 447.72 C 344.24 457.07 341.07 466.19 338.58 475.50 C 336.43 483.50 337.99 491.84 336.90 499.96 C 336.04 507.73 333.24 515.76 336.22 523.43 C 336.99 519.74 337.84 516.06 339.16 512.53 C 340.38 519.48 337.94 527.41 342.26 533.57 C 346.33 539.48 347.28 546.74 349.59 553.39 C 351.90 561.40 355.56 568.95 359.98 576.00 C 363.66 582.06 369.42 586.48 373.20 592.48 C 371.42 593.54 369.65 594.62 367.88 595.70 C 375.53 596.34 382.94 598.32 390.23 600.65 C 401.27 603.51 412.09 607.31 423.30 609.51 C 433.07 611.49 443.09 610.82 453.00 610.80 C 458.53 610.69 464.17 610.99 469.56 609.52 C 478.96 606.91 488.11 602.93 495.75 596.78 C 502.74 591.13 509.92 585.64 515.99 578.98 C 521.24 573.37 525.22 566.76 529.54 560.45 C 532.56 556.06 532.66 550.52 534.81 545.76 C 541.15 531.27 546.79 516.00 547.15 500.01 C 547.36 490.57 548.44 481.04 546.54 471.70 C 545.73 463.83 543.47 456.23 540.07 449.11 C 542.44 450.01 544.82 450.93 547.22 451.82 C 545.47 448.00 543.57 444.24 541.37 440.66 C 534.80 430.05 529.36 418.79 522.76 408.20 C 516.62 398.99 505.45 394.74 499.49 385.44 C 503.39 386.03 507.29 386.70 511.21 387.22 C 504.96 381.29 497.49 376.84 489.67 373.33 C 481.58 369.62 472.89 367.55 464.58 364.41 C 459.57 362.50 454.23 361.86 449.05 360.63 C 443.74 359.41 439.57 355.09 434.01 354.74 C 429.27 354.60 424.54 356.07 420.50 358.50 Z" />
<path fill="#000000" opacity="1.00" d=" M 741.14 355.15 C 745.71 352.85 751.00 352.10 756.07 352.55 C 761.45 353.04 765.70 356.75 770.76 358.25 C 776.41 359.94 782.35 360.39 788.01 362.09 C 791.62 363.17 794.94 365.00 798.43 366.43 C 806.33 369.72 814.56 372.44 821.76 377.20 C 828.88 381.84 836.50 386.75 840.19 394.77 C 836.77 393.56 833.41 392.21 830.04 390.91 C 835.39 397.57 841.65 403.53 846.11 410.87 C 851.96 420.13 856.91 429.92 862.98 439.04 C 867.51 446.36 872.19 454.29 871.99 463.20 C 870.14 461.52 868.35 459.79 866.57 458.06 C 869.67 474.96 870.81 492.35 868.36 509.41 C 865.71 523.24 861.70 536.85 855.82 549.67 C 857.81 549.04 859.80 548.40 861.80 547.78 C 859.68 551.20 858.94 555.14 857.66 558.87 C 855.09 561.60 851.43 563.08 849.06 566.04 C 846.48 569.26 844.93 573.16 842.39 576.42 C 836.60 583.96 829.08 589.92 821.41 595.44 C 811.00 603.68 798.89 610.60 785.58 612.48 C 770.49 613.69 755.06 614.37 740.23 610.66 C 728.96 607.64 717.66 604.74 706.43 601.61 C 699.07 599.49 691.33 598.44 684.46 594.93 C 686.37 593.85 688.31 592.81 690.26 591.77 C 686.41 586.95 681.43 583.04 678.34 577.64 C 674.58 571.25 670.35 564.98 668.23 557.80 C 666.38 551.57 664.51 545.34 662.80 539.07 C 661.85 540.89 660.90 542.71 659.93 544.52 C 659.08 540.72 658.46 536.87 658.04 533.01 C 656.79 534.78 655.52 536.53 654.23 538.27 C 651.68 531.80 652.56 524.77 652.53 518.00 C 652.44 510.28 653.89 502.66 654.32 494.97 C 654.74 484.44 655.18 473.69 658.73 463.66 C 661.84 454.60 664.73 445.46 668.40 436.60 C 667.09 436.51 665.79 436.41 664.49 436.33 C 668.46 423.50 678.22 413.75 687.26 404.28 C 693.09 397.12 700.44 391.46 706.94 384.95 C 714.01 378.13 722.71 373.38 730.43 367.39 C 734.84 364.05 736.16 357.86 741.14 355.15 M 739.90 358.90 C 736.38 361.28 735.87 366.03 732.81 368.78 C 729.22 371.26 725.03 372.80 721.76 375.75 C 713.45 383.13 704.53 389.81 696.59 397.62 C 692.33 402.06 689.21 407.47 684.65 411.65 C 678.96 416.94 673.94 422.92 669.79 429.49 C 671.33 429.09 672.88 428.70 674.43 428.32 C 671.91 434.82 668.34 440.92 666.65 447.73 C 664.24 457.07 661.07 466.19 658.58 475.50 C 656.42 483.49 658.00 491.84 656.90 499.96 C 656.04 507.74 653.24 515.76 656.22 523.44 C 656.98 519.74 657.83 516.06 659.17 512.53 C 659.70 517.36 659.46 522.24 659.81 527.09 C 660.07 531.85 664.01 535.17 665.38 539.57 C 668.38 548.52 670.33 557.89 674.61 566.37 C 677.67 572.38 680.93 578.43 685.70 583.30 C 688.45 586.12 690.96 589.18 693.17 592.46 C 691.41 593.54 689.65 594.62 687.91 595.71 C 695.54 596.33 702.95 598.33 710.22 600.65 C 721.27 603.51 732.08 607.31 743.30 609.51 C 753.07 611.49 763.09 610.82 773.00 610.80 C 778.77 610.70 784.68 610.99 790.29 609.32 C 798.95 606.80 807.44 603.21 814.62 597.65 C 825.18 589.32 836.05 580.87 843.46 569.45 C 846.77 564.16 851.35 559.37 852.53 553.05 C 853.59 548.07 855.79 543.47 857.79 538.83 C 862.57 526.74 866.73 514.13 867.11 501.02 C 867.31 491.25 868.49 481.38 866.54 471.70 C 865.74 463.83 863.47 456.23 860.07 449.11 C 862.44 450.02 864.82 450.93 867.22 451.83 C 865.47 448.00 863.57 444.24 861.37 440.65 C 854.80 430.05 849.35 418.79 842.76 408.20 C 836.62 398.99 825.45 394.74 819.50 385.44 C 823.40 386.03 827.29 386.70 831.21 387.22 C 821.51 378.10 809.16 372.36 796.57 368.46 C 788.30 365.93 780.31 362.39 771.68 361.23 C 765.88 360.60 761.40 356.46 755.90 355.00 C 750.34 354.06 744.56 355.92 739.90 358.90 Z" />
<path fill="#000000" opacity="1.00" d=" M 135.18 381.20 C 141.24 382.11 145.32 376.65 149.48 373.21 C 147.66 378.68 143.33 384.19 137.00 383.96 C 132.04 384.43 128.66 380.39 125.74 377.05 C 126.32 375.97 126.90 374.89 127.48 373.81 C 129.95 376.35 132.00 379.51 135.18 381.20 Z" />
<path fill="#000000" opacity="1.00" d=" M 456.17 381.20 C 462.23 382.11 466.32 376.66 470.47 373.21 C 468.66 378.68 464.33 384.20 458.00 383.95 C 452.91 384.43 449.47 380.22 446.53 376.75 C 447.50 375.89 448.39 374.96 449.25 374.00 C 451.33 376.55 453.01 379.85 456.17 381.20 Z" />
<path fill="#000000" opacity="1.00" d=" M 776.17 381.21 C 782.23 382.10 786.32 376.67 790.47 373.21 C 788.66 378.69 784.33 384.19 778.00 383.95 C 773.06 384.43 769.64 380.45 766.83 377.02 C 767.05 376.44 767.49 375.26 767.71 374.68 C 768.16 374.60 769.06 374.46 769.50 374.38 C 771.53 376.80 773.23 379.78 776.17 381.21 Z" />
<path fill="#000000" opacity="1.00" d=" M 84.14 393.67 C 83.72 385.24 90.39 377.77 98.45 376.12 C 95.21 381.77 87.10 383.81 86.50 391.03 C 86.86 391.33 87.59 391.93 87.96 392.23 C 91.29 391.46 94.31 389.81 97.43 388.47 C 95.84 390.17 94.38 392.09 92.30 393.23 C 89.66 394.03 86.85 393.65 84.14 393.67 Z" />
<path fill="#000000" opacity="1.00" d=" M 405.14 393.66 C 404.73 385.24 411.39 377.77 419.46 376.12 C 416.29 381.98 406.72 384.19 407.92 392.06 C 411.73 392.08 415.01 389.85 418.43 388.47 C 416.83 390.16 415.37 392.09 413.30 393.23 C 410.66 394.03 407.85 393.65 405.14 393.66 Z" />
<path fill="#000000" opacity="1.00" d=" M 725.14 393.66 C 724.72 385.24 731.39 377.77 739.45 376.12 C 736.25 381.78 728.04 383.79 727.54 391.02 C 727.89 391.32 728.60 391.94 728.95 392.24 C 732.28 391.45 735.31 389.81 738.43 388.47 C 736.83 390.16 735.37 392.10 733.30 393.23 C 730.66 394.03 727.85 393.65 725.14 393.66 Z" />
<path fill="#000000" opacity="1.00" d=" M 117.88 380.05 C 121.27 381.77 125.32 383.30 127.05 386.97 C 128.25 390.05 126.70 393.43 125.01 396.01 C 122.80 399.33 118.09 399.61 114.67 398.27 C 112.12 397.25 111.00 394.53 109.56 392.41 C 112.64 393.66 115.61 395.40 118.96 395.86 C 121.76 396.03 122.98 392.97 124.62 391.25 C 122.29 387.57 119.99 383.86 117.88 380.05 Z" />
<path fill="#000000" opacity="1.00" d=" M 438.87 380.05 C 442.28 381.77 446.33 383.31 448.06 387.00 C 449.33 390.07 447.77 393.47 446.01 396.01 C 443.78 399.31 439.10 399.63 435.66 398.27 C 433.12 397.24 432.00 394.53 430.56 392.41 C 433.64 393.66 436.61 395.40 439.95 395.85 C 442.75 396.03 443.98 392.97 445.62 391.25 C 443.28 387.57 440.98 383.86 438.87 380.05 Z" />
<path fill="#000000" opacity="1.00" d=" M 758.88 380.05 C 762.28 381.77 766.33 383.31 768.06 387.00 C 769.34 390.06 767.77 393.46 766.02 396.00 C 763.78 399.30 759.10 399.64 755.67 398.27 C 753.12 397.25 751.99 394.53 750.55 392.41 C 753.64 393.65 756.61 395.40 759.96 395.86 C 762.76 396.04 763.98 392.98 765.62 391.25 C 763.28 387.57 760.98 383.86 758.88 380.05 Z" />
<path fill="#000000" opacity="1.00" d=" M 170.19 402.58 C 175.49 406.25 178.28 412.20 181.27 417.70 C 184.84 424.39 187.62 431.68 187.85 439.35 C 184.45 434.77 183.37 429.08 180.95 424.02 C 177.35 416.87 173.99 409.62 170.19 402.58 Z" />
<path fill="#000000" opacity="1.00" d=" M 491.18 402.58 C 493.86 404.63 496.30 407.05 497.96 410.03 C 503.27 419.02 508.55 428.64 508.85 439.34 C 505.45 434.77 504.37 429.08 501.96 424.02 C 498.35 416.88 494.99 409.62 491.18 402.58 Z" />
<path fill="#000000" opacity="1.00" d=" M 811.18 402.57 C 813.86 404.63 816.29 407.06 817.96 410.03 C 823.27 419.02 828.55 428.64 828.85 439.34 C 825.45 434.76 824.37 429.08 821.95 424.02 C 818.35 416.87 814.99 409.61 811.18 402.57 Z" />
<path fill="#000000" opacity="1.00" d=" M 89.31 429.20 C 91.63 423.60 93.58 417.33 98.70 413.59 C 96.31 419.42 92.63 424.65 90.55 430.62 C 88.30 436.51 87.73 442.85 87.23 449.09 C 86.72 449.33 85.71 449.82 85.21 450.06 C 85.39 442.93 86.66 435.83 89.31 429.20 Z" />
<path fill="#000000" opacity="1.00" d=" M 414.92 418.92 C 416.05 416.78 417.89 415.15 419.70 413.60 C 417.32 419.43 413.63 424.65 411.54 430.62 C 409.29 436.51 408.73 442.84 408.23 449.08 C 407.72 449.33 406.72 449.82 406.21 450.06 C 406.30 439.11 409.86 428.52 414.92 418.92 Z" />
<path fill="#000000" opacity="1.00" d=" M 734.92 418.92 C 736.05 416.78 737.89 415.16 739.70 413.60 C 737.31 419.43 733.63 424.65 731.55 430.61 C 729.30 436.51 728.73 442.85 728.23 449.09 C 727.72 449.33 726.71 449.81 726.21 450.05 C 726.30 439.11 729.86 428.51 734.92 418.92 Z" />
<path fill="#000000" opacity="1.00" d=" M 47.15 459.14 C 49.66 445.96 53.31 431.83 63.55 422.42 C 61.28 427.43 58.16 432.02 56.03 437.10 C 52.91 444.39 51.17 452.25 47.15 459.14 Z" />
<path fill="#000000" opacity="1.00" d=" M 368.15 459.15 C 370.66 445.96 374.31 431.83 384.55 422.41 C 382.80 426.27 380.57 429.87 378.64 433.64 C 374.42 441.84 372.82 451.14 368.15 459.15 Z" />
<path fill="#000000" opacity="1.00" d=" M 688.15 459.14 C 690.66 445.96 694.30 431.82 704.54 422.42 C 702.79 426.27 700.57 429.88 698.64 433.64 C 694.42 441.84 692.81 451.14 688.15 459.14 Z" />
<path fill="#000000" opacity="1.00" d=" M 39.31 452.12 C 42.05 446.54 44.56 440.36 50.03 436.87 C 47.61 441.78 44.21 446.15 42.06 451.20 C 39.53 457.13 37.73 463.36 36.68 469.72 C 36.20 472.78 35.19 475.72 33.78 478.48 C 33.24 469.39 35.29 460.26 39.31 452.12 Z" />
<path fill="#000000" opacity="1.00" d=" M 365.49 442.36 C 366.87 440.11 368.96 438.45 371.03 436.87 C 367.53 443.50 362.94 449.63 360.88 456.95 C 358.06 463.91 358.31 471.77 354.78 478.47 C 353.80 465.55 358.93 453.20 365.49 442.36 Z" />
<path fill="#000000" opacity="1.00" d=" M 685.49 442.36 C 686.87 440.11 688.96 438.46 691.02 436.87 C 687.53 443.51 682.94 449.63 680.87 456.95 C 678.05 463.91 678.31 471.78 674.78 478.47 C 673.81 465.55 678.93 453.20 685.49 442.36 Z" />
<path fill="#000000" opacity="1.00" d=" M 181.01 438.88 C 186.26 443.94 189.02 450.86 191.22 457.67 C 192.43 461.41 192.78 465.36 192.92 469.27 C 190.68 465.09 189.30 460.53 188.03 455.99 C 186.37 450.01 183.00 444.73 181.01 438.88 Z" />
<path fill="#000000" opacity="1.00" d=" M 502.00 438.88 C 507.26 443.94 510.02 450.86 512.22 457.67 C 513.43 461.41 513.77 465.35 513.92 469.27 C 511.68 465.08 510.30 460.53 509.03 455.99 C 507.37 450.02 504.00 444.73 502.00 438.88 Z" />
<path fill="#000000" opacity="1.00" d=" M 822.00 438.87 C 827.26 443.93 830.01 450.86 832.22 457.67 C 833.43 461.41 833.78 465.36 833.92 469.28 C 831.83 465.33 830.45 461.07 829.27 456.77 C 827.61 450.51 824.01 445.01 822.00 438.87 Z" />
<path fill="#000000" opacity="1.00" d=" M 60.37 478.35 C 58.43 469.48 59.71 459.85 63.49 451.63 C 63.26 454.86 62.76 458.07 62.17 461.25 C 61.10 466.90 61.14 472.67 60.37 478.35 Z" />
<path fill="#000000" opacity="1.00" d=" M 381.37 478.35 C 379.44 469.48 380.70 459.84 384.50 451.62 C 383.34 460.52 381.95 469.38 381.37 478.35 Z" />
<path fill="#000000" opacity="1.00" d=" M 701.37 478.35 C 699.44 469.48 700.69 459.83 704.50 451.63 C 703.33 460.52 701.96 469.38 701.37 478.35 Z" />
<path fill="#000000" opacity="1.00" d=" M 165.60 452.50 C 167.73 455.12 169.81 457.92 170.57 461.28 C 172.46 469.17 173.42 477.47 171.77 485.49 C 169.49 478.77 170.96 471.55 169.27 464.73 C 168.27 460.59 166.74 456.61 165.60 452.50 Z" />
<path fill="#000000" opacity="1.00" d=" M 486.60 452.51 C 488.72 455.12 490.81 457.92 491.57 461.28 C 493.46 469.16 494.42 477.46 492.77 485.49 C 490.48 478.77 491.97 471.55 490.27 464.73 C 489.27 460.59 487.73 456.61 486.60 452.51 Z" />
<path fill="#000000" opacity="1.00" d=" M 806.60 452.51 C 808.72 455.13 810.81 457.92 811.57 461.28 C 813.45 469.16 814.43 477.46 812.77 485.48 C 811.22 480.80 811.34 475.84 811.14 470.98 C 810.93 464.56 808.29 458.62 806.60 452.51 Z" />
<path fill="#000000" opacity="1.00" d=" M 208.38 488.00 C 209.29 479.52 208.59 470.88 210.41 462.53 C 212.85 472.58 210.85 482.89 209.95 493.00 C 209.43 498.51 208.39 504.37 204.21 508.36 C 204.95 501.43 208.13 495.00 208.38 488.00 Z" />
<path fill="#000000" opacity="1.00" d=" M 529.38 488.00 C 530.30 479.53 529.57 470.88 531.42 462.53 C 533.84 472.58 531.86 482.90 530.95 493.01 C 530.43 498.50 529.39 504.35 525.22 508.34 C 525.97 501.42 529.13 494.99 529.38 488.00 Z" />
<path fill="#000000" opacity="1.00" d=" M 849.38 487.99 C 850.30 479.52 849.59 470.88 851.41 462.53 C 853.79 472.25 851.95 482.24 851.06 492.02 C 850.50 497.82 849.66 504.11 845.21 508.34 C 845.97 501.42 849.13 495.00 849.38 487.99 Z" />
<path fill="#000000" opacity="1.00" d=" M 159.55 467.77 C 162.54 475.79 161.52 484.44 161.40 492.80 C 161.30 497.74 160.53 502.71 158.57 507.28 C 158.42 500.50 159.46 493.76 159.47 486.98 C 159.51 480.58 159.21 474.17 159.55 467.77 Z" />
<path fill="#000000" opacity="1.00" d=" M 480.56 467.78 C 483.53 475.79 482.53 484.44 482.40 492.80 C 482.30 497.74 481.54 502.71 479.56 507.28 C 479.41 500.50 480.46 493.76 480.47 486.98 C 480.51 480.58 480.21 474.17 480.56 467.78 Z" />
<path fill="#000000" opacity="1.00" d=" M 800.56 467.78 C 803.53 475.80 802.53 484.45 802.39 492.80 C 802.29 497.74 801.54 502.72 799.56 507.28 C 799.41 500.50 800.46 493.77 800.47 486.99 C 800.51 480.58 800.21 474.18 800.56 467.78 Z" />
<path fill="#000000" opacity="1.00" d=" M 186.55 485.48 C 189.32 492.00 188.31 499.19 187.81 506.04 C 187.25 511.65 187.22 517.79 183.46 522.39 C 183.93 516.54 185.51 510.85 186.00 505.01 C 186.61 498.51 186.01 491.98 186.55 485.48 Z" />
<path fill="#000000" opacity="1.00" d=" M 507.55 485.48 C 510.34 491.99 509.30 499.19 508.81 506.03 C 508.25 511.65 508.21 517.78 504.46 522.39 C 504.93 516.54 506.50 510.85 507.00 505.01 C 507.61 498.51 507.00 491.98 507.55 485.48 Z" />
<path fill="#000000" opacity="1.00" d=" M 827.56 485.47 C 830.33 491.99 829.30 499.19 828.81 506.03 C 828.25 511.65 828.22 517.79 824.46 522.39 C 824.92 516.54 826.50 510.85 827.00 505.01 C 827.61 498.51 827.00 491.97 827.56 485.47 Z" />
<path fill="#000000" opacity="1.00" d=" M 63.81 506.42 C 63.22 500.47 61.83 493.87 65.17 488.46 C 65.15 492.32 64.74 496.17 64.79 500.03 C 64.86 507.71 68.13 514.89 68.49 522.54 C 64.82 517.99 64.82 511.90 63.81 506.42 Z" />
<path fill="#000000" opacity="1.00" d=" M 384.81 506.42 C 384.23 500.47 382.81 493.87 386.17 488.47 C 386.15 492.32 385.74 496.17 385.79 500.03 C 385.86 507.71 389.13 514.90 389.50 522.55 C 385.80 518.00 385.83 511.90 384.81 506.42 Z" />
<path fill="#000000" opacity="1.00" d=" M 704.81 506.41 C 704.22 500.47 702.82 493.87 706.17 488.47 C 706.15 492.33 705.74 496.17 705.79 500.03 C 705.86 507.71 709.14 514.90 709.49 522.55 C 705.81 518.00 705.83 511.90 704.81 506.41 Z" />
<path fill="#000000" opacity="1.00" d=" M 47.12 502.89 C 46.05 499.43 46.96 495.88 48.30 492.66 C 49.50 498.54 49.95 504.57 51.55 510.37 C 52.67 514.44 53.78 518.52 54.36 522.71 C 49.84 517.06 48.97 509.65 47.12 502.89 Z" />
<path fill="#000000" opacity="1.00" d=" M 368.13 502.85 C 367.06 499.41 367.85 495.86 369.29 492.68 C 370.51 498.55 370.95 504.57 372.55 510.37 C 373.67 514.44 374.78 518.52 375.36 522.70 C 370.83 517.04 369.95 509.63 368.13 502.85 Z" />
<path fill="#000000" opacity="1.00" d=" M 688.13 502.84 C 687.07 499.41 687.86 495.86 689.30 492.68 C 690.51 498.55 690.95 504.57 692.55 510.37 C 693.67 514.44 694.78 518.52 695.36 522.71 C 690.83 517.05 689.95 509.63 688.13 502.84 Z" />
<path fill="#000000" opacity="1.00" d=" M 190.66 527.64 C 194.57 520.49 193.72 511.84 197.55 504.64 C 197.93 510.21 196.97 515.78 194.89 520.95 C 192.04 528.06 189.75 535.75 184.24 541.35 C 185.61 536.45 188.27 532.09 190.66 527.64 Z" />
<path fill="#000000" opacity="1.00" d=" M 511.67 527.65 C 515.58 520.49 514.71 511.84 518.55 504.64 C 518.93 510.21 517.97 515.78 515.89 520.95 C 513.04 528.05 510.75 535.75 505.25 541.35 C 506.61 536.44 509.26 532.08 511.67 527.65 Z" />
<path fill="#000000" opacity="1.00" d=" M 831.66 527.65 C 835.57 520.49 834.71 511.83 838.55 504.64 C 838.93 510.21 837.97 515.78 835.89 520.95 C 833.03 528.05 830.76 535.76 825.24 541.35 C 826.60 536.44 829.26 532.08 831.66 527.65 Z" />
<path fill="#000000" opacity="1.00" d=" M 204.46 529.38 C 206.63 522.28 208.79 515.08 212.63 508.68 C 211.25 515.83 208.29 522.53 206.37 529.53 C 204.41 536.35 202.59 543.40 198.35 549.23 C 199.90 542.47 202.47 536.01 204.46 529.38 Z" />
<path fill="#000000" opacity="1.00" d=" M 523.78 534.66 C 526.71 525.88 528.80 516.69 533.63 508.69 C 532.24 515.83 529.29 522.53 527.37 529.53 C 525.41 536.35 523.59 543.40 519.36 549.23 C 520.49 544.28 522.17 539.48 523.78 534.66 Z" />
<path fill="#000000" opacity="1.00" d=" M 845.46 529.38 C 847.63 522.28 849.78 515.09 853.63 508.68 C 852.30 515.56 849.49 522.02 847.60 528.74 C 845.54 535.81 843.76 543.18 839.35 549.23 C 840.91 542.47 843.47 536.01 845.46 529.38 Z" />
<path fill="#000000" opacity="1.00" d=" M 36.49 522.70 C 38.87 527.80 40.07 533.33 42.20 538.53 C 43.83 542.60 45.16 546.78 46.53 550.95 C 46.15 551.18 45.40 551.65 45.02 551.89 C 39.23 543.35 36.66 532.92 36.49 522.70 Z" />
<path fill="#000000" opacity="1.00" d=" M 357.49 522.70 C 359.87 527.79 361.07 533.33 363.20 538.52 C 364.83 542.58 366.15 546.75 367.50 550.91 C 367.13 551.16 366.40 551.67 366.03 551.92 C 360.24 543.37 357.65 532.93 357.49 522.70 Z" />
<path fill="#000000" opacity="1.00" d=" M 677.49 522.69 C 679.86 527.79 681.07 533.32 683.21 538.53 C 684.83 542.58 686.15 546.75 687.50 550.91 C 687.14 551.16 686.41 551.68 686.04 551.94 C 680.24 543.38 677.65 532.93 677.49 522.69 Z" />
<path fill="#000000" opacity="1.00" d=" M 93.56 554.21 C 93.27 550.25 94.08 546.33 95.06 542.53 C 95.33 547.99 95.24 553.48 95.97 558.91 C 96.78 565.50 98.96 571.81 100.71 578.18 C 99.57 577.98 98.44 577.79 97.30 577.61 C 95.18 569.97 94.06 562.10 93.56 554.21 Z" />
<path fill="#000000" opacity="1.00" d=" M 418.30 577.61 C 415.67 566.23 412.74 554.08 416.06 542.53 C 416.33 547.99 416.24 553.48 416.97 558.91 C 417.77 565.51 419.95 571.81 421.71 578.18 C 420.57 577.98 419.43 577.79 418.30 577.61 Z" />
<path fill="#000000" opacity="1.00" d=" M 734.56 554.21 C 734.26 550.25 735.07 546.34 736.05 542.53 C 736.33 547.99 736.24 553.48 736.97 558.91 C 737.78 565.51 739.96 571.81 741.71 578.19 C 740.57 577.99 739.43 577.79 738.30 577.61 C 736.19 569.98 735.06 562.10 734.56 554.21 Z" />
<path fill="#000000" opacity="1.00" d=" M 138.05 572.87 C 139.78 565.16 138.88 556.80 142.48 549.59 C 142.60 553.54 142.12 557.47 141.62 561.39 C 140.83 567.58 141.26 574.04 138.87 579.94 C 136.97 584.65 135.29 590.11 130.38 592.55 C 133.23 586.11 137.26 580.03 138.05 572.87 Z" />
<path fill="#000000" opacity="1.00" d=" M 459.05 572.87 C 460.77 565.16 459.89 556.80 463.48 549.58 C 463.59 553.54 463.13 557.47 462.62 561.39 C 461.84 567.58 462.25 574.04 459.86 579.94 C 457.97 584.66 456.29 590.12 451.38 592.55 C 454.23 586.11 458.26 580.04 459.05 572.87 Z" />
<path fill="#000000" opacity="1.00" d=" M 779.05 572.87 C 780.78 565.16 779.87 556.79 783.48 549.59 C 783.60 553.54 783.12 557.47 782.62 561.39 C 781.83 567.58 782.25 574.04 779.86 579.93 C 777.97 584.65 776.29 590.11 771.38 592.55 C 774.22 586.11 778.25 580.03 779.05 572.87 Z" />
</g>
<g id="#704f30ff">
<path fill="#704f30" opacity="1.00" d=" M 98.90 15.90 C 102.76 13.33 107.39 11.88 112.02 11.72 C 116.39 11.57 120.07 14.20 123.82 16.04 C 127.30 17.83 131.24 18.30 135.03 19.07 C 141.57 20.27 147.66 23.07 154.01 24.97 C 167.15 28.92 180.11 34.72 190.21 44.22 C 186.29 43.70 182.40 43.03 178.49 42.43 C 184.31 51.55 195.15 55.76 201.35 64.63 C 205.39 70.74 208.68 77.33 212.34 83.67 C 216.70 92.21 222.39 100.01 226.21 108.82 C 223.82 107.93 221.44 107.02 219.06 106.11 C 221.20 111.11 223.48 116.13 224.38 121.54 C 225.57 128.93 227.07 136.35 226.63 143.88 C 226.22 151.40 226.38 158.97 225.38 166.46 C 224.06 175.55 221.17 184.32 217.95 192.90 C 215.93 198.39 212.99 203.55 211.73 209.30 C 211.04 212.40 210.00 215.46 208.14 218.07 C 203.92 224.15 200.09 230.56 194.99 235.98 C 189.43 242.13 182.84 247.21 176.45 252.45 C 167.38 260.00 156.29 265.05 144.74 267.30 C 134.86 268.11 124.90 267.82 114.99 267.86 C 99.73 267.61 85.41 261.81 70.81 258.10 C 62.98 255.71 55.10 253.34 46.89 252.70 C 48.66 251.62 50.43 250.55 52.20 249.48 C 47.84 242.70 41.16 237.73 37.45 230.49 C 31.22 220.58 28.16 209.22 24.91 198.09 C 23.83 193.65 20.39 190.31 19.11 185.98 C 18.22 180.54 18.85 174.99 18.16 169.53 C 16.84 173.06 15.99 176.75 15.22 180.44 C 12.23 172.77 15.04 164.73 15.90 156.96 C 17.00 148.84 15.42 140.49 17.58 132.50 C 20.08 123.19 23.24 114.07 25.64 104.73 C 27.35 97.92 30.92 91.82 33.44 85.31 C 31.89 85.70 30.34 86.10 28.79 86.50 C 32.93 79.92 37.96 73.94 43.64 68.64 C 48.21 64.47 51.34 59.06 55.60 54.61 C 63.53 46.81 72.45 40.13 80.76 32.75 C 83.70 30.16 87.30 28.55 90.65 26.58 C 94.81 24.25 94.98 18.50 98.90 15.90 M 135.17 38.20 C 132.13 36.93 130.50 33.78 128.47 31.35 C 128.04 31.44 127.18 31.62 126.75 31.71 C 126.51 32.29 126.04 33.44 125.81 34.02 C 128.64 37.44 132.06 41.43 137.00 40.95 C 143.33 41.19 147.67 35.68 149.47 30.20 C 145.32 33.65 141.24 39.11 135.17 38.20 M 84.14 50.66 C 86.85 50.65 89.66 51.04 92.30 50.23 C 94.36 49.09 95.82 47.17 97.44 45.51 C 93.93 47.13 90.30 48.53 86.53 49.42 C 87.08 46.69 87.27 43.51 89.62 41.62 C 92.67 38.90 96.23 36.66 98.46 33.13 C 90.39 34.76 83.73 42.24 84.14 50.66 M 117.88 37.05 C 119.99 40.87 122.28 44.57 124.61 48.25 C 122.98 49.98 121.76 53.04 118.96 52.86 C 115.61 52.41 112.64 50.66 109.56 49.41 C 111.11 51.75 112.42 54.81 115.43 55.54 C 118.71 56.48 122.98 56.13 125.01 53.01 C 126.70 50.44 128.25 47.05 127.05 43.97 C 125.32 40.30 121.27 38.77 117.88 37.05 M 170.18 59.57 C 173.99 66.61 177.35 73.87 180.95 81.02 C 183.37 86.08 184.45 91.77 187.85 96.34 C 187.61 88.68 184.84 81.39 181.27 74.70 C 178.28 69.20 175.49 63.25 170.18 59.57 M 89.32 86.20 C 86.66 92.83 85.39 99.93 85.21 107.06 C 85.71 106.82 86.72 106.33 87.23 106.09 C 87.73 99.85 88.30 93.51 90.54 87.61 C 92.63 81.64 96.31 76.42 98.71 70.59 C 93.58 74.33 91.63 80.59 89.32 86.20 M 47.16 116.14 C 51.03 109.47 52.81 101.90 55.73 94.81 C 57.88 89.45 61.17 84.66 63.55 79.41 C 53.31 88.82 49.66 102.96 47.16 116.14 M 39.31 109.12 C 35.28 117.26 33.25 126.39 33.78 135.48 C 35.19 132.73 36.21 129.78 36.68 126.72 C 37.73 120.36 39.53 114.13 42.07 108.20 C 44.21 103.15 47.61 98.78 50.02 93.87 C 44.56 97.36 42.06 103.54 39.31 109.12 M 181.00 95.88 C 183.01 102.01 186.61 107.51 188.27 113.78 C 189.45 118.07 190.82 122.33 192.92 126.28 C 192.78 122.36 192.43 118.41 191.22 114.67 C 189.01 107.86 186.26 100.93 181.00 95.88 M 60.37 135.35 C 60.96 126.38 62.33 117.51 63.50 108.61 C 59.70 116.83 58.44 126.47 60.37 135.35 M 165.60 109.50 C 167.29 115.61 169.94 121.55 170.14 127.98 C 170.34 132.84 170.22 137.80 171.77 142.49 C 173.43 134.46 172.46 126.16 170.57 118.28 C 169.81 114.92 167.72 112.12 165.60 109.50 M 208.38 144.99 C 208.13 152.00 204.97 158.42 204.21 165.35 C 208.39 161.35 209.44 155.51 209.95 150.01 C 210.85 139.90 212.85 129.58 210.41 119.53 C 208.59 127.89 209.29 136.52 208.38 144.99 M 159.55 124.78 C 159.21 131.17 159.52 137.58 159.47 143.98 C 159.46 150.76 158.42 157.50 158.57 164.28 C 160.54 159.71 161.30 154.74 161.40 149.80 C 161.52 141.44 162.54 132.79 159.55 124.78 M 186.56 142.47 C 186.01 148.97 186.61 155.51 186.00 162.01 C 185.50 167.85 183.92 173.54 183.46 179.39 C 187.22 174.79 187.25 168.65 187.81 163.04 C 188.31 156.19 189.32 149.00 186.56 142.47 M 63.81 163.42 C 64.83 168.90 64.81 175.00 68.50 179.54 C 68.20 173.73 66.30 168.19 65.30 162.50 C 64.24 156.86 65.14 151.14 65.17 145.47 C 61.83 150.87 63.22 157.47 63.81 163.42 M 47.12 159.90 C 48.98 166.65 49.84 174.06 54.36 179.70 C 53.78 175.52 52.67 171.44 51.55 167.37 C 49.95 161.58 49.51 155.55 48.30 149.68 C 46.85 152.88 46.02 156.45 47.12 159.90 M 193.32 177.28 C 191.82 184.92 186.16 190.84 184.24 198.35 C 189.75 192.76 192.04 185.05 194.89 177.95 C 196.97 172.78 197.93 167.21 197.55 161.64 C 195.06 166.52 194.38 171.98 193.32 177.28 M 204.46 186.38 C 202.47 193.01 199.91 199.47 198.35 206.23 C 202.59 200.40 204.42 193.35 206.37 186.53 C 208.29 179.53 211.25 172.83 212.63 165.68 C 208.78 172.08 206.64 179.28 204.46 186.38 M 36.49 179.69 C 36.65 189.93 39.24 200.38 45.04 208.93 C 45.41 208.67 46.14 208.17 46.51 207.91 C 45.16 203.76 43.83 199.59 42.20 195.53 C 40.06 190.33 38.88 184.79 36.49 179.69 M 93.53 210.39 C 93.96 218.56 95.13 226.72 97.30 234.62 C 98.44 234.80 99.57 234.98 100.71 235.18 C 98.95 228.80 96.77 222.50 95.97 215.91 C 95.24 210.48 95.33 204.99 95.05 199.53 C 94.16 203.08 93.35 206.70 93.53 210.39 M 138.05 229.87 C 137.26 237.03 133.23 243.11 130.38 249.55 C 132.35 248.21 134.48 246.86 135.49 244.60 C 138.27 239.13 140.67 233.27 140.90 227.06 C 141.12 220.20 142.64 213.45 142.48 206.58 C 138.88 213.80 139.77 222.16 138.05 229.87 Z" />
<path fill="#704f30" opacity="1.00" d=" M 419.90 15.90 C 424.04 13.18 429.04 11.62 434.01 11.74 C 440.14 12.23 444.71 17.23 450.79 18.04 C 458.89 19.17 466.52 22.12 474.22 24.72 C 487.63 28.72 500.92 34.51 511.21 44.22 C 507.29 43.70 503.40 43.03 499.49 42.43 C 501.24 44.98 503.10 47.51 505.56 49.42 C 512.56 54.99 520.28 60.30 524.71 68.30 C 528.16 74.52 531.75 80.66 535.12 86.92 C 539.05 94.28 543.92 101.13 547.22 108.82 C 544.82 107.93 542.44 107.02 540.07 106.11 C 543.47 113.23 545.74 120.83 546.53 128.70 C 548.43 138.04 547.36 147.57 547.15 157.01 C 546.80 173.00 541.15 188.26 534.81 202.75 C 532.66 207.51 532.56 213.06 529.54 217.45 C 525.09 223.95 520.98 230.77 515.51 236.49 C 510.22 242.26 504.02 247.05 498.00 252.00 C 493.31 255.84 488.26 259.30 482.71 261.77 C 475.23 265.04 467.32 267.98 459.02 267.74 C 446.57 267.62 433.94 268.90 421.67 266.20 C 411.04 263.92 400.74 260.39 390.22 257.65 C 382.94 255.32 375.53 253.34 367.89 252.70 C 369.65 251.62 371.42 250.54 373.18 249.47 C 368.83 242.69 362.16 237.72 358.46 230.49 C 352.21 220.59 349.16 209.22 345.91 198.10 C 344.83 193.65 341.40 190.31 340.10 185.98 C 339.21 180.54 339.86 174.98 339.16 169.52 C 337.85 173.06 336.99 176.75 336.22 180.44 C 333.24 172.77 336.04 164.74 336.90 156.96 C 337.99 148.84 336.42 140.50 338.58 132.51 C 341.07 123.19 344.24 114.07 346.64 104.73 C 348.35 97.92 351.92 91.82 354.44 85.31 C 352.88 85.70 351.34 86.10 349.79 86.50 C 352.26 82.78 354.78 79.09 357.75 75.75 C 361.75 71.11 366.60 67.25 370.30 62.33 C 378.37 50.79 390.40 43.03 400.68 33.66 C 403.88 30.64 407.87 28.74 411.65 26.58 C 415.81 24.25 415.98 18.50 419.90 15.90 M 456.17 38.20 C 453.14 36.93 451.51 33.81 449.49 31.39 C 449.04 31.46 448.14 31.59 447.69 31.66 C 447.48 32.25 447.06 33.44 446.85 34.04 C 449.65 37.47 453.06 41.43 458.00 40.95 C 464.33 41.19 468.67 35.69 470.47 30.21 C 466.32 33.66 462.23 39.12 456.17 38.20 M 405.15 50.66 C 407.85 50.65 410.66 51.04 413.30 50.23 C 415.37 49.09 416.84 47.16 418.43 45.47 C 415.01 46.99 411.64 48.90 407.83 49.13 C 406.81 41.19 416.21 39.00 419.45 33.12 C 411.39 34.78 404.72 42.24 405.15 50.66 M 438.85 37.06 C 440.85 40.76 443.55 44.10 445.02 48.06 C 444.72 50.80 442.02 53.48 439.14 52.75 C 436.12 52.07 433.38 50.59 430.55 49.41 C 432.00 51.53 433.12 54.25 435.67 55.27 C 439.09 56.62 443.80 56.34 446.01 53.01 C 447.70 50.43 449.25 47.05 448.04 43.97 C 446.30 40.30 442.26 38.75 438.85 37.06 M 491.18 59.57 C 494.99 66.61 498.36 73.87 501.95 81.02 C 504.37 86.08 505.45 91.77 508.85 96.35 C 508.62 88.68 505.85 81.38 502.27 74.69 C 499.27 69.21 496.49 63.24 491.18 59.57 M 410.32 86.19 C 407.66 92.83 406.39 99.93 406.21 107.06 C 406.71 106.82 407.73 106.33 408.23 106.09 C 408.73 99.85 409.30 93.51 411.54 87.61 C 413.63 81.65 417.31 76.43 419.70 70.60 C 414.57 74.32 412.64 80.60 410.32 86.19 M 368.15 116.14 C 372.17 109.25 373.92 101.39 377.03 94.10 C 379.16 89.02 382.28 84.44 384.55 79.42 C 374.31 88.83 370.66 102.96 368.15 116.14 M 360.31 109.12 C 356.28 117.26 354.24 126.39 354.78 135.48 C 356.19 132.73 357.21 129.78 357.69 126.72 C 358.73 120.36 360.53 114.13 363.06 108.20 C 365.21 103.15 368.61 98.78 371.03 93.86 C 365.56 97.36 363.06 103.54 360.31 109.12 M 502.01 95.88 C 504.00 101.73 507.37 107.02 509.03 112.99 C 510.30 117.54 511.68 122.09 513.92 126.27 C 513.78 122.36 513.43 118.41 512.22 114.67 C 510.02 107.87 507.26 100.94 502.01 95.88 M 381.37 135.35 C 381.95 126.38 383.34 117.52 384.50 108.62 C 380.70 116.83 379.44 126.48 381.37 135.35 M 486.60 109.50 C 488.29 115.61 490.93 121.55 491.14 127.98 C 491.34 132.84 491.22 137.80 492.77 142.48 C 494.44 134.46 493.45 126.16 491.57 118.28 C 490.81 114.92 488.72 112.13 486.60 109.50 M 529.38 144.99 C 529.13 152.00 525.96 158.43 525.21 165.36 C 529.66 161.12 530.49 154.82 531.06 149.02 C 531.94 139.24 533.79 129.25 531.41 119.53 C 529.60 127.89 530.29 136.52 529.38 144.99 M 480.55 124.77 C 480.21 131.17 480.51 137.58 480.47 143.98 C 480.46 150.76 479.41 157.50 479.57 164.28 C 481.54 159.72 482.30 154.74 482.40 149.80 C 482.52 141.44 483.53 132.79 480.55 124.77 M 507.56 142.47 C 507.00 148.97 507.61 155.51 507.00 162.01 C 506.50 167.85 504.93 173.54 504.46 179.39 C 508.21 174.79 508.25 168.65 508.81 163.03 C 509.30 156.19 510.33 148.99 507.56 142.47 M 384.81 163.42 C 385.82 168.90 385.81 175.00 389.49 179.55 C 389.14 171.90 385.85 164.71 385.79 157.03 C 385.73 153.17 386.16 149.33 386.17 145.47 C 382.82 150.87 384.23 157.47 384.81 163.42 M 368.11 159.90 C 369.98 166.65 370.84 174.05 375.36 179.70 C 374.78 175.52 373.67 171.44 372.55 167.37 C 370.95 161.57 370.51 155.55 369.30 149.67 C 367.86 152.87 367.02 156.44 368.11 159.90 M 511.66 184.65 C 509.26 189.09 506.61 193.44 505.25 198.35 C 510.75 192.76 513.04 185.05 515.89 177.95 C 517.97 172.78 518.93 167.21 518.55 161.65 C 514.72 168.84 515.57 177.49 511.66 184.65 M 525.46 186.37 C 523.47 193.01 520.91 199.47 519.35 206.23 C 523.59 200.40 525.42 193.35 527.37 186.53 C 529.29 179.53 532.24 172.84 533.63 165.69 C 529.78 172.09 527.63 179.28 525.46 186.37 M 357.48 179.69 C 357.66 189.94 360.24 200.38 366.04 208.93 C 366.41 208.68 367.14 208.16 367.50 207.90 C 366.15 203.75 364.82 199.58 363.20 195.52 C 361.07 190.32 359.86 184.79 357.48 179.69 M 418.30 234.62 C 419.43 234.80 420.57 234.99 421.71 235.18 C 419.96 228.81 417.77 222.50 416.97 215.91 C 416.24 210.48 416.33 204.99 416.06 199.54 C 412.75 211.08 415.67 223.23 418.30 234.62 M 459.05 229.87 C 458.26 237.04 454.22 243.11 451.38 249.56 C 453.35 248.22 455.48 246.85 456.49 244.59 C 459.27 239.12 461.67 233.28 461.90 227.06 C 462.13 220.21 463.63 213.46 463.48 206.59 C 459.89 213.80 460.77 222.16 459.05 229.87 Z" />
<path fill="#704f30" opacity="1.00" d=" M 739.90 15.90 C 744.56 12.91 750.34 11.07 755.90 12.00 C 761.40 13.45 765.88 17.60 771.68 18.23 C 780.31 19.38 788.30 22.93 796.57 25.46 C 809.16 29.35 821.52 35.10 831.21 44.22 C 827.29 43.70 823.39 43.03 819.49 42.43 C 825.45 51.74 836.62 55.98 842.76 65.20 C 849.36 75.79 854.80 87.05 861.37 97.65 C 863.57 101.24 865.47 105.00 867.21 108.82 C 864.82 107.93 862.44 107.02 860.07 106.11 C 863.47 113.24 865.74 120.84 866.54 128.70 C 868.44 138.05 867.36 147.57 867.16 157.01 C 866.80 173.00 861.15 188.26 854.82 202.75 C 852.66 207.52 852.55 213.06 849.54 217.45 C 845.09 223.96 840.98 230.77 835.51 236.50 C 830.22 242.26 824.03 247.06 818.01 252.00 C 813.13 256.01 807.84 259.57 802.03 262.07 C 795.05 265.03 787.73 267.80 780.03 267.71 C 771.68 267.76 763.32 268.05 754.97 267.82 C 742.35 267.48 730.34 263.25 718.31 259.89 C 708.21 257.30 698.38 253.45 687.89 252.69 C 689.65 251.62 691.42 250.54 693.19 249.47 C 689.42 243.47 683.66 239.06 679.98 233.00 C 675.39 225.74 671.71 217.91 669.36 209.64 C 667.17 203.22 666.19 196.25 662.26 190.56 C 657.93 184.41 660.38 176.48 659.16 169.53 C 657.85 173.07 657.00 176.75 656.22 180.43 C 653.24 172.76 656.04 164.73 656.90 156.96 C 657.99 148.84 656.42 140.50 658.58 132.50 C 661.07 123.19 664.25 114.07 666.64 104.73 C 668.34 97.92 671.92 91.82 674.43 85.32 C 672.88 85.71 671.33 86.10 669.80 86.49 C 673.94 79.92 678.96 73.94 684.64 68.65 C 689.90 63.83 693.28 57.36 698.63 52.64 C 706.05 45.68 714.14 39.50 721.75 32.75 C 725.03 29.81 729.22 28.26 732.81 25.79 C 735.87 23.03 736.39 18.28 739.90 15.90 M 776.17 38.20 C 773.13 36.93 771.50 33.79 769.48 31.37 C 769.04 31.45 768.16 31.61 767.72 31.69 C 767.50 32.27 767.05 33.44 766.83 34.03 C 769.64 37.45 773.06 41.43 778.00 40.95 C 784.33 41.20 788.67 35.69 790.47 30.21 C 786.32 33.66 782.23 39.11 776.17 38.20 M 725.15 50.66 C 727.85 50.65 730.66 51.04 733.30 50.23 C 735.36 49.09 736.82 47.17 738.44 45.50 C 734.92 47.13 731.30 48.52 727.53 49.43 C 728.08 46.69 728.28 43.52 730.62 41.62 C 733.67 38.90 737.23 36.65 739.46 33.12 C 731.40 34.77 724.71 42.23 725.15 50.66 M 758.87 37.05 C 760.98 40.87 763.28 44.57 765.62 48.25 C 763.98 49.97 762.75 53.03 759.96 52.86 C 756.61 52.40 753.64 50.66 750.55 49.41 C 752.00 51.53 753.12 54.24 755.66 55.27 C 759.09 56.62 763.79 56.33 766.01 53.01 C 767.70 50.43 769.25 47.05 768.04 43.97 C 766.31 40.30 762.26 38.76 758.87 37.05 M 811.18 59.58 C 814.99 66.61 818.35 73.87 821.95 81.01 C 824.36 86.08 825.44 91.77 828.85 96.34 C 828.54 85.64 823.27 76.02 817.96 67.03 C 816.29 64.06 813.86 61.64 811.18 59.58 M 734.92 75.92 C 729.87 85.52 726.29 96.11 726.21 107.05 C 726.72 106.81 727.73 106.33 728.23 106.09 C 728.72 99.85 729.30 93.51 731.55 87.61 C 733.63 81.65 737.32 76.43 739.71 70.60 C 737.89 72.16 736.05 73.78 734.92 75.92 M 688.16 116.14 C 692.82 108.14 694.42 98.84 698.64 90.64 C 700.57 86.88 702.80 83.27 704.55 79.41 C 694.31 88.83 690.66 102.96 688.16 116.14 M 685.49 99.35 C 678.92 110.19 673.80 122.55 674.78 135.47 C 678.24 129.02 677.98 121.43 680.63 114.69 C 682.68 107.09 687.36 100.71 691.02 93.87 C 688.96 95.46 686.87 97.11 685.49 99.35 M 822.00 95.87 C 824.00 102.01 827.61 107.50 829.27 113.78 C 830.45 118.07 831.82 122.33 833.92 126.28 C 833.77 122.36 833.43 118.41 832.22 114.67 C 830.01 107.86 827.26 100.93 822.00 95.87 M 701.37 135.35 C 701.95 126.38 703.34 117.52 704.50 108.62 C 700.69 116.83 699.44 126.48 701.37 135.35 M 806.60 109.50 C 807.73 113.61 809.27 117.59 810.27 121.73 C 811.96 128.55 810.48 135.77 812.77 142.49 C 814.42 134.46 813.46 126.16 811.57 118.27 C 810.80 114.92 808.72 112.12 806.60 109.50 M 849.38 144.99 C 849.12 152.00 845.96 158.42 845.22 165.34 C 849.38 161.35 850.44 155.51 850.95 150.01 C 851.86 139.90 853.84 129.58 851.41 119.53 C 849.60 127.89 850.28 136.52 849.38 144.99 M 800.56 124.77 C 800.21 131.17 800.51 137.58 800.47 143.98 C 800.46 150.76 799.41 157.50 799.57 164.28 C 801.54 159.72 802.30 154.75 802.40 149.80 C 802.53 141.44 803.52 132.79 800.56 124.77 M 827.55 142.48 C 827.01 148.98 827.60 155.52 827.00 162.01 C 826.50 167.86 824.92 173.54 824.46 179.39 C 828.21 174.79 828.25 168.65 828.81 163.03 C 829.31 156.19 830.32 149.00 827.55 142.48 M 704.81 163.42 C 705.82 168.91 705.81 175.00 709.50 179.55 C 709.13 171.90 705.86 164.71 705.78 157.03 C 705.73 153.17 706.14 149.32 706.17 145.46 C 702.82 150.87 704.22 157.47 704.81 163.42 M 688.12 159.90 C 689.98 166.66 690.84 174.06 695.36 179.70 C 694.78 175.52 693.67 171.43 692.55 167.37 C 690.95 161.57 690.51 155.55 689.30 149.68 C 687.84 152.88 687.02 156.45 688.12 159.90 M 831.66 184.65 C 829.26 189.09 826.61 193.44 825.24 198.35 C 830.76 192.76 833.03 185.05 835.88 177.95 C 837.97 172.78 838.93 167.21 838.55 161.64 C 834.72 168.84 835.57 177.49 831.66 184.65 M 843.78 191.67 C 842.18 196.48 840.49 201.28 839.35 206.23 C 843.60 200.41 845.41 193.35 847.37 186.53 C 849.29 179.53 852.24 172.83 853.64 165.68 C 848.81 173.69 846.70 182.88 843.78 191.67 M 677.49 179.69 C 677.66 189.92 680.21 200.36 686.03 208.90 C 686.40 208.66 687.15 208.18 687.52 207.94 C 684.31 198.47 681.03 189.02 677.49 179.69 M 734.56 211.20 C 735.06 219.10 736.19 226.98 738.30 234.61 C 739.43 234.80 740.57 234.99 741.71 235.19 C 739.96 228.81 737.78 222.51 736.98 215.92 C 736.24 210.48 736.33 204.99 736.06 199.53 C 735.08 203.34 734.26 207.25 734.56 211.20 M 779.05 229.87 C 778.26 237.03 774.23 243.11 771.39 249.55 C 776.29 247.11 777.97 241.66 779.86 236.93 C 782.25 231.04 781.84 224.58 782.62 218.39 C 783.12 214.47 783.60 210.54 783.48 206.59 C 779.88 213.80 780.78 222.16 779.05 229.87 Z" />
<path fill="#704f30" opacity="1.00" d=" M 98.90 358.90 C 103.04 356.18 108.04 354.62 113.01 354.74 C 119.43 355.32 124.23 360.60 130.68 361.23 C 138.76 362.32 146.29 365.49 154.00 367.97 C 167.15 371.92 180.11 377.71 190.21 387.22 C 186.29 386.70 182.39 386.03 178.49 385.44 C 180.24 387.98 182.10 390.50 184.56 392.42 C 191.56 397.98 199.27 403.30 203.71 411.30 C 207.04 417.31 210.51 423.24 213.77 429.28 C 217.79 436.87 222.82 443.91 226.22 451.82 C 223.83 450.93 221.44 450.02 219.06 449.11 C 222.47 456.23 224.74 463.83 225.53 471.70 C 227.44 481.04 226.36 490.57 226.15 500.01 C 225.80 516.01 220.14 531.26 213.81 545.75 C 211.60 550.75 211.48 556.57 208.14 561.07 C 204.05 566.96 200.34 573.16 195.47 578.46 C 189.29 585.34 181.92 590.99 174.75 596.78 C 167.11 602.93 157.96 606.91 148.57 609.52 C 142.84 611.07 136.86 610.67 131.00 610.80 C 122.29 610.83 113.50 611.36 104.86 609.96 C 95.47 608.45 86.43 605.45 77.31 602.88 C 67.22 600.30 57.39 596.45 46.91 595.70 C 48.66 594.62 50.43 593.54 52.19 592.47 C 48.29 586.26 42.27 581.73 38.59 575.38 C 34.03 568.07 30.46 560.18 28.12 551.89 C 26.07 545.70 25.06 539.01 21.26 533.56 C 16.93 527.41 19.39 519.48 18.17 512.53 C 16.84 516.06 15.99 519.74 15.22 523.43 C 12.12 515.44 15.26 507.12 16.00 499.02 C 16.89 491.46 15.56 483.72 17.40 476.26 C 19.01 469.77 21.19 463.43 23.04 457.01 C 24.87 451.17 25.99 445.08 28.53 439.48 C 30.21 435.77 31.92 432.09 33.43 428.31 C 31.88 428.70 30.34 429.09 28.80 429.49 C 31.27 425.78 33.79 422.09 36.75 418.75 C 40.75 414.11 45.60 410.24 49.30 405.33 C 57.38 393.80 69.40 386.02 79.68 376.67 C 82.88 373.64 86.87 371.74 90.65 369.58 C 94.81 367.25 94.98 361.51 98.90 358.90 M 135.18 381.20 C 132.00 379.51 129.95 376.35 127.48 373.81 C 126.90 374.89 126.32 375.97 125.74 377.05 C 128.66 380.39 132.04 384.43 137.00 383.96 C 143.33 384.19 147.66 378.68 149.48 373.21 C 145.32 376.65 141.24 382.11 135.18 381.20 M 84.14 393.67 C 86.85 393.65 89.66 394.03 92.30 393.23 C 94.38 392.09 95.84 390.17 97.43 388.47 C 94.31 389.81 91.29 391.46 87.96 392.23 C 87.59 391.93 86.86 391.33 86.50 391.03 C 87.10 383.81 95.21 381.77 98.45 376.12 C 90.39 377.77 83.72 385.24 84.14 393.67 M 117.88 380.05 C 119.99 383.86 122.29 387.57 124.62 391.25 C 122.98 392.97 121.76 396.03 118.96 395.86 C 115.61 395.40 112.64 393.66 109.56 392.41 C 111.00 394.53 112.12 397.25 114.67 398.27 C 118.09 399.61 122.80 399.33 125.01 396.01 C 126.70 393.43 128.25 390.05 127.05 386.97 C 125.32 383.30 121.27 381.77 117.88 380.05 M 170.19 402.58 C 173.99 409.62 177.35 416.87 180.95 424.02 C 183.37 429.08 184.45 434.77 187.85 439.35 C 187.62 431.68 184.84 424.39 181.27 417.70 C 178.28 412.20 175.49 406.25 170.19 402.58 M 89.31 429.20 C 86.66 435.83 85.39 442.93 85.21 450.06 C 85.71 449.82 86.72 449.33 87.23 449.09 C 87.73 442.85 88.30 436.51 90.55 430.62 C 92.63 424.65 96.31 419.42 98.70 413.59 C 93.58 417.33 91.63 423.60 89.31 429.20 M 47.15 459.14 C 51.17 452.25 52.91 444.39 56.03 437.10 C 58.16 432.02 61.28 427.43 63.55 422.42 C 53.31 431.83 49.66 445.96 47.15 459.14 M 39.31 452.12 C 35.29 460.26 33.24 469.39 33.78 478.48 C 35.19 475.72 36.20 472.78 36.68 469.72 C 37.73 463.36 39.53 457.13 42.06 451.20 C 44.21 446.15 47.61 441.78 50.03 436.87 C 44.56 440.36 42.05 446.54 39.31 452.12 M 181.01 438.88 C 183.00 444.73 186.37 450.01 188.03 455.99 C 189.30 460.53 190.68 465.09 192.92 469.27 C 192.78 465.36 192.43 461.41 191.22 457.67 C 189.02 450.86 186.26 443.94 181.01 438.88 M 60.37 478.35 C 61.14 472.67 61.10 466.90 62.17 461.25 C 62.76 458.07 63.26 454.86 63.49 451.63 C 59.71 459.85 58.43 469.48 60.37 478.35 M 165.60 452.50 C 166.74 456.61 168.27 460.59 169.27 464.73 C 170.96 471.55 169.49 478.77 171.77 485.49 C 173.42 477.47 172.46 469.17 170.57 461.28 C 169.81 457.92 167.73 455.12 165.60 452.50 M 208.38 488.00 C 208.13 495.00 204.95 501.43 204.21 508.36 C 208.39 504.37 209.43 498.51 209.95 493.00 C 210.85 482.89 212.85 472.58 210.41 462.53 C 208.59 470.88 209.29 479.52 208.38 488.00 M 159.55 467.77 C 159.21 474.17 159.51 480.58 159.47 486.98 C 159.46 493.76 158.42 500.50 158.57 507.28 C 160.53 502.71 161.30 497.74 161.40 492.80 C 161.52 484.44 162.54 475.79 159.55 467.77 M 186.55 485.48 C 186.01 491.98 186.61 498.51 186.00 505.01 C 185.51 510.85 183.93 516.54 183.46 522.39 C 187.22 517.79 187.25 511.65 187.81 506.04 C 188.31 499.19 189.32 492.00 186.55 485.48 M 63.81 506.42 C 64.82 511.90 64.82 517.99 68.49 522.54 C 68.13 514.89 64.86 507.71 64.79 500.03 C 64.74 496.17 65.15 492.32 65.17 488.46 C 61.83 493.87 63.22 500.47 63.81 506.42 M 47.12 502.89 C 48.97 509.65 49.84 517.06 54.36 522.71 C 53.78 518.52 52.67 514.44 51.55 510.37 C 49.95 504.57 49.50 498.54 48.30 492.66 C 46.96 495.88 46.05 499.43 47.12 502.89 M 190.66 527.64 C 188.27 532.09 185.61 536.45 184.24 541.35 C 189.75 535.75 192.04 528.06 194.89 520.95 C 196.97 515.78 197.93 510.21 197.55 504.64 C 193.72 511.84 194.57 520.49 190.66 527.64 M 204.46 529.38 C 202.47 536.01 199.90 542.47 198.35 549.23 C 202.59 543.40 204.41 536.35 206.37 529.53 C 208.29 522.53 211.25 515.83 212.63 508.68 C 208.79 515.08 206.63 522.28 204.46 529.38 M 36.49 522.70 C 36.66 532.92 39.23 543.35 45.02 551.89 C 45.40 551.65 46.15 551.18 46.53 550.95 C 45.16 546.78 43.83 542.60 42.20 538.53 C 40.07 533.33 38.87 527.80 36.49 522.70 M 93.56 554.21 C 94.06 562.10 95.18 569.97 97.30 577.61 C 98.44 577.79 99.57 577.98 100.71 578.18 C 98.96 571.81 96.78 565.50 95.97 558.91 C 95.24 553.48 95.33 547.99 95.06 542.53 C 94.08 546.33 93.27 550.25 93.56 554.21 M 138.05 572.87 C 137.26 580.03 133.23 586.11 130.38 592.55 C 135.29 590.11 136.97 584.65 138.87 579.94 C 141.26 574.04 140.83 567.58 141.62 561.39 C 142.12 557.47 142.60 553.54 142.48 549.59 C 138.88 556.80 139.78 565.16 138.05 572.87 Z" />
<path fill="#704f30" opacity="1.00" d=" M 420.50 358.50 C 424.54 356.07 429.27 354.60 434.01 354.74 C 439.57 355.09 443.74 359.41 449.05 360.63 C 454.23 361.86 459.57 362.50 464.58 364.41 C 472.89 367.55 481.58 369.62 489.67 373.33 C 497.49 376.84 504.96 381.29 511.21 387.22 C 507.29 386.70 503.39 386.03 499.49 385.44 C 505.45 394.74 516.62 398.99 522.76 408.20 C 529.36 418.79 534.80 430.05 541.37 440.66 C 543.57 444.24 545.47 448.00 547.22 451.82 C 544.82 450.93 542.44 450.01 540.07 449.11 C 543.47 456.23 545.73 463.83 546.54 471.70 C 548.44 481.04 547.36 490.57 547.15 500.01 C 546.79 516.00 541.15 531.27 534.81 545.76 C 532.66 550.52 532.56 556.06 529.54 560.45 C 525.22 566.76 521.24 573.37 515.99 578.98 C 509.92 585.64 502.74 591.13 495.75 596.78 C 488.11 602.93 478.96 606.91 469.56 609.52 C 464.17 610.99 458.53 610.69 453.00 610.80 C 443.09 610.82 433.07 611.49 423.30 609.51 C 412.09 607.31 401.27 603.51 390.23 600.65 C 382.94 598.32 375.53 596.34 367.88 595.70 C 369.65 594.62 371.42 593.54 373.20 592.48 C 369.42 586.48 363.66 582.06 359.98 576.00 C 355.56 568.95 351.90 561.40 349.59 553.39 C 347.28 546.74 346.33 539.48 342.26 533.57 C 337.94 527.41 340.38 519.48 339.16 512.53 C 337.84 516.06 336.99 519.74 336.22 523.43 C 333.24 515.76 336.04 507.73 336.90 499.96 C 337.99 491.84 336.43 483.50 338.58 475.50 C 341.07 466.19 344.24 457.07 346.64 447.72 C 348.35 440.91 351.92 434.82 354.43 428.31 C 352.88 428.70 351.34 429.10 349.79 429.50 C 353.94 422.92 358.96 416.94 364.65 411.64 C 369.90 406.82 373.28 400.36 378.64 395.64 C 383.72 391.03 388.87 386.49 394.24 382.22 C 398.33 379.02 401.84 375.06 406.41 372.50 C 408.71 371.11 411.26 370.11 413.32 368.36 C 416.00 365.29 416.76 360.65 420.50 358.50 M 456.17 381.20 C 453.01 379.85 451.33 376.55 449.25 374.00 C 448.39 374.96 447.50 375.89 446.53 376.75 C 449.47 380.22 452.91 384.43 458.00 383.95 C 464.33 384.20 468.66 378.68 470.47 373.21 C 466.32 376.66 462.23 382.11 456.17 381.20 M 405.14 393.66 C 407.85 393.65 410.66 394.03 413.30 393.23 C 415.37 392.09 416.83 390.16 418.43 388.47 C 415.01 389.85 411.73 392.08 407.92 392.06 C 406.72 384.19 416.29 381.98 419.46 376.12 C 411.39 377.77 404.73 385.24 405.14 393.66 M 438.87 380.05 C 440.98 383.86 443.28 387.57 445.62 391.25 C 443.98 392.97 442.75 396.03 439.95 395.85 C 436.61 395.40 433.64 393.66 430.56 392.41 C 432.00 394.53 433.12 397.24 435.66 398.27 C 439.10 399.63 443.78 399.31 446.01 396.01 C 447.77 393.47 449.33 390.07 448.06 387.00 C 446.33 383.31 442.28 381.77 438.87 380.05 M 491.18 402.58 C 494.99 409.62 498.35 416.88 501.96 424.02 C 504.37 429.08 505.45 434.77 508.85 439.34 C 508.55 428.64 503.27 419.02 497.96 410.03 C 496.30 407.05 493.86 404.63 491.18 402.58 M 414.92 418.92 C 409.86 428.52 406.30 439.11 406.21 450.06 C 406.72 449.82 407.72 449.33 408.23 449.08 C 408.73 442.84 409.29 436.51 411.54 430.62 C 413.63 424.65 417.32 419.43 419.70 413.60 C 417.89 415.15 416.05 416.78 414.92 418.92 M 368.15 459.15 C 372.82 451.14 374.42 441.84 378.64 433.64 C 380.57 429.87 382.80 426.27 384.55 422.41 C 374.31 431.83 370.66 445.96 368.15 459.15 M 365.49 442.36 C 358.93 453.20 353.80 465.55 354.78 478.47 C 358.31 471.77 358.06 463.91 360.88 456.95 C 362.94 449.63 367.53 443.50 371.03 436.87 C 368.96 438.45 366.87 440.11 365.49 442.36 M 502.00 438.88 C 504.00 444.73 507.37 450.02 509.03 455.99 C 510.30 460.53 511.68 465.08 513.92 469.27 C 513.77 465.35 513.43 461.41 512.22 457.67 C 510.02 450.86 507.26 443.94 502.00 438.88 M 381.37 478.35 C 381.95 469.38 383.34 460.52 384.50 451.62 C 380.70 459.84 379.44 469.48 381.37 478.35 M 486.60 452.51 C 487.73 456.61 489.27 460.59 490.27 464.73 C 491.97 471.55 490.48 478.77 492.77 485.49 C 494.42 477.46 493.46 469.16 491.57 461.28 C 490.81 457.92 488.72 455.12 486.60 452.51 M 529.38 488.00 C 529.13 494.99 525.97 501.42 525.22 508.34 C 529.39 504.35 530.43 498.50 530.95 493.01 C 531.86 482.90 533.84 472.58 531.42 462.53 C 529.57 470.88 530.30 479.53 529.38 488.00 M 480.56 467.78 C 480.21 474.17 480.51 480.58 480.47 486.98 C 480.46 493.76 479.41 500.50 479.56 507.28 C 481.54 502.71 482.30 497.74 482.40 492.80 C 482.53 484.44 483.53 475.79 480.56 467.78 M 507.55 485.48 C 507.00 491.98 507.61 498.51 507.00 505.01 C 506.50 510.85 504.93 516.54 504.46 522.39 C 508.21 517.78 508.25 511.65 508.81 506.03 C 509.30 499.19 510.34 491.99 507.55 485.48 M 384.81 506.42 C 385.83 511.90 385.80 518.00 389.50 522.55 C 389.13 514.90 385.86 507.71 385.79 500.03 C 385.74 496.17 386.15 492.32 386.17 488.47 C 382.81 493.87 384.23 500.47 384.81 506.42 M 368.13 502.85 C 369.95 509.63 370.83 517.04 375.36 522.70 C 374.78 518.52 373.67 514.44 372.55 510.37 C 370.95 504.57 370.51 498.55 369.29 492.68 C 367.85 495.86 367.06 499.41 368.13 502.85 M 511.67 527.65 C 509.26 532.08 506.61 536.44 505.25 541.35 C 510.75 535.75 513.04 528.05 515.89 520.95 C 517.97 515.78 518.93 510.21 518.55 504.64 C 514.71 511.84 515.58 520.49 511.67 527.65 M 523.78 534.66 C 522.17 539.48 520.49 544.28 519.36 549.23 C 523.59 543.40 525.41 536.35 527.37 529.53 C 529.29 522.53 532.24 515.83 533.63 508.69 C 528.80 516.69 526.71 525.88 523.78 534.66 M 357.49 522.70 C 357.65 532.93 360.24 543.37 366.03 551.92 C 366.40 551.67 367.13 551.16 367.50 550.91 C 366.15 546.75 364.83 542.58 363.20 538.52 C 361.07 533.33 359.87 527.79 357.49 522.70 M 418.30 577.61 C 419.43 577.79 420.57 577.98 421.71 578.18 C 419.95 571.81 417.77 565.51 416.97 558.91 C 416.24 553.48 416.33 547.99 416.06 542.53 C 412.74 554.08 415.67 566.23 418.30 577.61 M 459.05 572.87 C 458.26 580.04 454.23 586.11 451.38 592.55 C 456.29 590.12 457.97 584.66 459.86 579.94 C 462.25 574.04 461.84 567.58 462.62 561.39 C 463.13 557.47 463.59 553.54 463.48 549.58 C 459.89 556.80 460.77 565.16 459.05 572.87 Z" />
<path fill="#704f30" opacity="1.00" d=" M 739.90 358.90 C 744.56 355.92 750.34 354.06 755.90 355.00 C 761.40 356.46 765.88 360.60 771.68 361.23 C 780.31 362.39 788.30 365.93 796.57 368.46 C 809.16 372.36 821.51 378.10 831.21 387.22 C 827.29 386.70 823.40 386.03 819.50 385.44 C 825.45 394.74 836.62 398.99 842.76 408.20 C 849.35 418.79 854.80 430.05 861.37 440.65 C 863.57 444.24 865.47 448.00 867.22 451.83 C 864.82 450.93 862.44 450.02 860.07 449.11 C 863.47 456.23 865.74 463.83 866.54 471.70 C 868.49 481.38 867.31 491.25 867.11 501.02 C 866.73 514.13 862.57 526.74 857.79 538.83 C 855.79 543.47 853.59 548.07 852.53 553.05 C 851.35 559.37 846.77 564.16 843.46 569.45 C 836.05 580.87 825.18 589.32 814.62 597.65 C 807.44 603.21 798.95 606.80 790.29 609.32 C 784.68 610.99 778.77 610.70 773.00 610.80 C 763.09 610.82 753.07 611.49 743.30 609.51 C 732.08 607.31 721.27 603.51 710.22 600.65 C 702.95 598.33 695.54 596.33 687.91 595.71 C 689.65 594.62 691.41 593.54 693.17 592.46 C 690.96 589.18 688.45 586.12 685.70 583.30 C 680.93 578.43 677.67 572.38 674.61 566.37 C 670.33 557.89 668.38 548.52 665.38 539.57 C 664.01 535.17 660.07 531.85 659.81 527.09 C 659.46 522.24 659.70 517.36 659.17 512.53 C 657.83 516.06 656.98 519.74 656.22 523.44 C 653.24 515.76 656.04 507.74 656.90 499.96 C 658.00 491.84 656.42 483.49 658.58 475.50 C 661.07 466.19 664.24 457.07 666.65 447.73 C 668.34 440.92 671.91 434.82 674.43 428.32 C 672.88 428.70 671.33 429.09 669.79 429.49 C 673.94 422.92 678.96 416.94 684.65 411.65 C 689.21 407.47 692.33 402.06 696.59 397.62 C 704.53 389.81 713.45 383.13 721.76 375.75 C 725.03 372.80 729.22 371.26 732.81 368.78 C 735.87 366.03 736.38 361.28 739.90 358.90 M 776.17 381.21 C 773.23 379.78 771.53 376.80 769.50 374.38 C 769.06 374.46 768.16 374.60 767.71 374.68 C 767.49 375.26 767.05 376.44 766.83 377.02 C 769.64 380.45 773.06 384.43 778.00 383.95 C 784.33 384.19 788.66 378.69 790.47 373.21 C 786.32 376.67 782.23 382.10 776.17 381.21 M 725.14 393.66 C 727.85 393.65 730.66 394.03 733.30 393.23 C 735.37 392.10 736.83 390.16 738.43 388.47 C 735.31 389.81 732.28 391.45 728.95 392.24 C 728.60 391.94 727.89 391.32 727.54 391.02 C 728.04 383.79 736.25 381.78 739.45 376.12 C 731.39 377.77 724.72 385.24 725.14 393.66 M 758.88 380.05 C 760.98 383.86 763.28 387.57 765.62 391.25 C 763.98 392.98 762.76 396.04 759.96 395.86 C 756.61 395.40 753.64 393.65 750.55 392.41 C 751.99 394.53 753.12 397.25 755.67 398.27 C 759.10 399.64 763.78 399.30 766.02 396.00 C 767.77 393.46 769.34 390.06 768.06 387.00 C 766.33 383.31 762.28 381.77 758.88 380.05 M 811.18 402.57 C 814.99 409.61 818.35 416.87 821.95 424.02 C 824.37 429.08 825.45 434.76 828.85 439.34 C 828.55 428.64 823.27 419.02 817.96 410.03 C 816.29 407.06 813.86 404.63 811.18 402.57 M 734.92 418.92 C 729.86 428.51 726.30 439.11 726.21 450.05 C 726.71 449.81 727.72 449.33 728.23 449.09 C 728.73 442.85 729.30 436.51 731.55 430.61 C 733.63 424.65 737.31 419.43 739.70 413.60 C 737.89 415.16 736.05 416.78 734.92 418.92 M 688.15 459.14 C 692.81 451.14 694.42 441.84 698.64 433.64 C 700.57 429.88 702.79 426.27 704.54 422.42 C 694.30 431.82 690.66 445.96 688.15 459.14 M 685.49 442.36 C 678.93 453.20 673.81 465.55 674.78 478.47 C 678.31 471.78 678.05 463.91 680.87 456.95 C 682.94 449.63 687.53 443.51 691.02 436.87 C 688.96 438.46 686.87 440.11 685.49 442.36 M 822.00 438.87 C 824.01 445.01 827.61 450.51 829.27 456.77 C 830.45 461.07 831.83 465.33 833.92 469.28 C 833.78 465.36 833.43 461.41 832.22 457.67 C 830.01 450.86 827.26 443.93 822.00 438.87 M 701.37 478.35 C 701.96 469.38 703.33 460.52 704.50 451.63 C 700.69 459.83 699.44 469.48 701.37 478.35 M 806.60 452.51 C 808.29 458.62 810.93 464.56 811.14 470.98 C 811.34 475.84 811.22 480.80 812.77 485.48 C 814.43 477.46 813.45 469.16 811.57 461.28 C 810.81 457.92 808.72 455.13 806.60 452.51 M 849.38 487.99 C 849.13 495.00 845.97 501.42 845.21 508.34 C 849.66 504.11 850.50 497.82 851.06 492.02 C 851.95 482.24 853.79 472.25 851.41 462.53 C 849.59 470.88 850.30 479.52 849.38 487.99 M 800.56 467.78 C 800.21 474.18 800.51 480.58 800.47 486.99 C 800.46 493.77 799.41 500.50 799.56 507.28 C 801.54 502.72 802.29 497.74 802.39 492.80 C 802.53 484.45 803.53 475.80 800.56 467.78 M 827.56 485.47 C 827.00 491.97 827.61 498.51 827.00 505.01 C 826.50 510.85 824.92 516.54 824.46 522.39 C 828.22 517.79 828.25 511.65 828.81 506.03 C 829.30 499.19 830.33 491.99 827.56 485.47 M 704.81 506.41 C 705.83 511.90 705.81 518.00 709.49 522.55 C 709.14 514.90 705.86 507.71 705.79 500.03 C 705.74 496.17 706.15 492.33 706.17 488.47 C 702.82 493.87 704.22 500.47 704.81 506.41 M 688.13 502.84 C 689.95 509.63 690.83 517.05 695.36 522.71 C 694.78 518.52 693.67 514.44 692.55 510.37 C 690.95 504.57 690.51 498.55 689.30 492.68 C 687.86 495.86 687.07 499.41 688.13 502.84 M 831.66 527.65 C 829.26 532.08 826.60 536.44 825.24 541.35 C 830.76 535.76 833.03 528.05 835.89 520.95 C 837.97 515.78 838.93 510.21 838.55 504.64 C 834.71 511.83 835.57 520.49 831.66 527.65 M 845.46 529.38 C 843.47 536.01 840.91 542.47 839.35 549.23 C 843.76 543.18 845.54 535.81 847.60 528.74 C 849.49 522.02 852.30 515.56 853.63 508.68 C 849.78 515.09 847.63 522.28 845.46 529.38 M 677.49 522.69 C 677.65 532.93 680.24 543.38 686.04 551.94 C 686.41 551.68 687.14 551.16 687.50 550.91 C 686.15 546.75 684.83 542.58 683.21 538.53 C 681.07 533.32 679.86 527.79 677.49 522.69 M 734.56 554.21 C 735.06 562.10 736.19 569.98 738.30 577.61 C 739.43 577.79 740.57 577.99 741.71 578.19 C 739.96 571.81 737.78 565.51 736.97 558.91 C 736.24 553.48 736.33 547.99 736.05 542.53 C 735.07 546.34 734.26 550.25 734.56 554.21 M 779.05 572.87 C 778.25 580.03 774.22 586.11 771.38 592.55 C 776.29 590.11 777.97 584.65 779.86 579.93 C 782.25 574.04 781.83 567.58 782.62 561.39 C 783.12 557.47 783.60 553.54 783.48 549.59 C 779.87 556.79 780.78 565.16 779.05 572.87 Z" />
</g>
</svg>
