<?xml version="1.0" encoding="UTF-8" ?>
<!DOCTYPE svg PUBLIC "-//W3C//DTD SVG 1.1//EN" "http://www.w3.org/Graphics/SVG/1.1/DTD/svg11.dtd">
<svg width="1851pt" height="284pt" viewBox="0 0 1851 284" version="1.1" xmlns="http://www.w3.org/2000/svg">
<g id="#000000ff">
<path fill="#000000" opacity="1.00" d=" M 101.80 13.82 C 108.95 10.64 117.69 10.34 124.51 14.51 C 131.18 18.47 139.08 18.76 146.41 20.65 C 150.63 21.66 154.44 23.78 158.42 25.43 C 166.33 28.72 174.57 31.45 181.76 36.20 C 188.90 40.84 196.49 45.78 200.21 53.78 C 196.79 52.56 193.42 51.21 190.03 49.91 C 195.25 56.37 201.29 62.19 205.72 69.26 C 210.69 77.08 215.04 85.26 219.86 93.17 C 225.44 102.02 232.12 111.28 231.98 122.23 C 230.14 120.52 228.35 118.78 226.57 117.03 C 229.67 133.94 230.80 151.33 228.36 168.41 C 225.70 182.25 221.71 195.88 215.80 208.70 C 217.81 208.04 219.83 207.40 221.85 206.75 C 219.82 210.02 218.82 213.72 217.94 217.41 C 216.38 219.71 213.62 220.84 211.57 222.64 C 207.43 225.73 205.82 230.85 202.80 234.85 C 197.42 242.06 190.43 247.89 183.17 253.14 C 178.50 256.51 174.08 260.29 168.97 263.01 C 160.86 267.29 152.28 271.31 142.96 271.75 C 132.09 272.29 121.12 273.11 110.29 271.51 C 101.73 270.57 93.58 267.71 85.26 265.69 C 77.83 263.89 70.54 261.58 63.11 259.76 C 56.81 258.06 50.28 256.91 44.41 253.92 C 46.36 252.85 48.33 251.83 50.30 250.79 C 46.40 245.99 41.46 242.05 38.34 236.63 C 34.58 230.24 30.36 223.98 28.23 216.80 C 26.37 210.56 24.50 204.33 22.80 198.04 C 21.87 199.88 20.92 201.72 19.95 203.55 C 19.08 199.73 18.46 195.87 18.04 191.98 C 16.78 193.77 15.51 195.55 14.21 197.31 C 11.69 190.48 12.56 183.11 12.55 176.00 C 12.56 167.61 14.29 159.34 14.46 150.95 C 14.57 145.28 15.14 139.63 15.91 134.02 C 16.91 126.75 19.76 119.93 22.02 113.00 C 23.95 107.09 26.09 101.25 28.46 95.50 C 27.11 95.47 25.77 95.45 24.42 95.42 C 28.52 82.33 38.53 72.45 47.73 62.75 C 53.28 55.96 60.28 50.63 66.43 44.42 C 73.58 37.34 82.54 32.54 90.43 26.39 C 95.00 22.90 96.34 16.29 101.80 13.82 M 100.50 17.50 C 95.92 20.09 95.87 26.70 91.02 28.95 C 87.19 31.02 83.32 33.11 80.15 36.13 C 70.01 45.30 58.24 52.99 50.30 64.32 C 46.60 69.24 41.76 73.11 37.75 77.76 C 34.77 81.11 32.25 84.81 29.77 88.54 C 31.33 88.11 32.89 87.69 34.45 87.27 C 31.91 93.78 28.37 99.91 26.65 106.72 C 24.24 116.07 21.07 125.19 18.58 134.50 C 16.43 142.50 17.99 150.84 16.90 158.96 C 15.99 166.73 13.35 174.73 16.17 182.44 C 17.04 178.76 17.88 175.08 19.15 171.52 C 19.81 176.99 19.22 182.54 20.12 187.97 C 21.39 192.31 24.82 195.66 25.91 200.09 C 29.12 210.98 32.05 222.13 38.09 231.87 C 41.88 239.38 48.66 244.62 53.28 251.54 C 51.45 252.52 49.63 253.50 47.80 254.48 C 58.80 255.72 69.21 259.53 79.85 262.32 C 92.30 265.93 104.88 270.06 118.00 269.90 C 127.25 269.74 136.53 270.13 145.74 269.29 C 156.81 267.13 167.51 262.43 176.32 255.34 C 186.09 247.53 196.10 239.61 203.05 229.04 C 206.47 223.55 211.27 218.60 212.54 212.05 C 213.86 205.76 217.05 200.14 219.23 194.15 C 222.85 184.42 226.05 174.40 226.86 164.00 C 227.29 156.34 227.62 148.66 227.66 140.99 C 226.86 129.73 225.17 118.29 220.06 108.09 C 222.44 109.02 224.84 109.93 227.23 110.85 C 223.81 102.93 218.80 95.87 214.77 88.28 C 211.51 82.24 208.05 76.30 204.71 70.30 C 200.28 62.30 192.55 57.00 185.56 51.41 C 183.12 49.48 181.24 46.97 179.46 44.44 C 183.38 45.03 187.29 45.70 191.22 46.21 C 181.50 37.12 169.17 31.35 156.57 27.46 C 148.58 25.05 140.88 21.57 132.56 20.40 C 127.89 19.81 123.76 17.55 119.68 15.38 C 113.55 12.13 106.14 14.19 100.50 17.50 Z" />
<path fill="#000000" opacity="1.00" d=" M 422.81 13.81 C 429.95 10.64 438.69 10.34 445.52 14.52 C 452.18 18.47 460.08 18.76 467.41 20.65 C 471.63 21.66 475.44 23.78 479.43 25.43 C 487.33 28.72 495.56 31.45 502.76 36.20 C 509.91 40.83 517.48 45.78 521.22 53.78 C 517.79 52.56 514.42 51.21 511.03 49.91 C 516.40 56.55 522.64 62.54 527.11 69.87 C 532.96 79.12 537.92 88.92 543.98 98.04 C 548.53 105.36 553.17 113.30 552.98 122.22 C 551.14 120.52 549.35 118.79 547.57 117.04 C 551.41 138.51 552.56 161.07 546.18 182.18 C 543.98 191.33 540.63 200.12 536.80 208.70 C 538.79 208.04 540.80 207.41 542.81 206.75 C 541.32 209.58 540.05 212.53 539.42 215.68 C 538.99 219.04 535.39 220.24 533.14 222.20 C 528.64 225.25 526.93 230.65 523.80 234.85 C 516.44 244.86 505.92 251.76 496.13 259.13 C 490.44 263.23 484.00 266.15 477.53 268.80 C 469.20 272.16 460.06 271.98 451.23 272.31 C 440.63 272.89 429.93 271.89 419.65 269.27 C 409.47 266.45 399.20 263.95 389.05 261.04 C 381.15 258.73 372.83 257.60 365.40 253.92 C 367.35 252.85 369.33 251.83 371.31 250.79 C 367.40 246.00 362.46 242.05 359.34 236.64 C 355.57 230.25 351.36 223.98 349.23 216.80 C 347.37 210.56 345.49 204.33 343.80 198.04 C 342.86 199.88 341.92 201.72 340.95 203.55 C 340.08 199.73 339.46 195.87 339.04 191.98 C 337.78 193.77 336.51 195.55 335.21 197.31 C 332.68 190.48 333.56 183.12 333.55 176.00 C 333.54 168.62 334.92 161.33 335.33 153.98 C 335.74 143.44 336.17 132.69 339.73 122.66 C 342.87 113.57 345.73 104.38 349.46 95.50 C 348.11 95.48 346.76 95.45 345.42 95.42 C 348.83 84.73 356.19 75.84 363.90 67.91 C 368.74 63.07 372.89 57.57 378.11 53.11 C 383.89 48.23 388.84 42.42 395.02 38.01 C 400.37 33.97 406.17 30.55 411.43 26.39 C 416.00 22.90 417.34 16.29 422.81 13.81 M 420.90 17.91 C 417.21 20.41 416.83 25.61 413.25 28.17 C 409.34 30.59 405.05 32.46 401.68 35.67 C 391.39 45.02 379.39 52.80 371.30 64.33 C 367.60 69.24 362.75 73.12 358.75 77.76 C 355.77 81.11 353.24 84.82 350.77 88.55 C 352.33 88.12 353.89 87.69 355.46 87.26 C 352.91 93.77 349.37 99.90 347.65 106.72 C 345.25 116.07 342.06 125.18 339.59 134.50 C 337.43 142.49 338.99 150.84 337.90 158.96 C 336.99 166.73 334.35 174.73 337.17 182.43 C 338.03 178.76 338.88 175.08 340.15 171.52 C 340.67 176.36 340.44 181.24 340.82 186.09 C 341.10 190.85 344.99 194.19 346.37 198.57 C 349.39 207.52 351.32 216.89 355.61 225.37 C 358.57 231.17 361.70 237.01 366.22 241.79 C 369.11 244.83 371.84 248.03 374.25 251.47 C 372.45 252.52 370.66 253.59 368.87 254.65 C 379.36 255.49 389.21 259.28 399.30 261.89 C 408.15 264.36 416.92 267.26 425.99 268.82 C 434.91 270.39 443.99 269.83 453.00 269.80 C 458.86 269.67 464.84 270.06 470.56 268.52 C 479.96 265.91 489.11 261.93 496.76 255.78 C 503.93 249.99 511.29 244.34 517.46 237.46 C 522.33 232.16 526.07 225.97 530.14 220.07 C 533.47 215.56 533.61 209.75 535.82 204.76 C 542.14 190.26 547.80 175.01 548.16 159.01 C 548.25 152.36 548.91 145.70 548.57 139.04 C 547.56 128.43 545.93 117.70 541.06 108.09 C 543.44 109.03 545.84 109.93 548.24 110.85 C 546.38 106.80 544.34 102.83 542.00 99.03 C 535.58 88.62 530.24 77.58 523.76 67.21 C 517.60 58.00 506.48 53.71 500.47 44.43 C 504.38 45.03 508.29 45.70 512.22 46.21 C 503.30 37.86 492.14 32.29 480.63 28.45 C 471.03 25.58 461.78 21.44 451.79 20.04 C 445.41 19.18 440.59 13.65 434.01 13.72 C 429.38 13.88 424.75 15.32 420.90 17.91 Z" />
<path fill="#000000" opacity="1.00" d=" M 743.15 14.16 C 747.71 11.85 752.99 11.10 758.07 11.55 C 763.44 12.05 767.70 15.75 772.76 17.25 C 778.41 18.94 784.35 19.40 790.00 21.09 C 793.62 22.17 796.94 24.00 800.43 25.43 C 808.33 28.72 816.57 31.45 823.76 36.20 C 830.90 40.83 838.48 45.78 842.21 53.77 C 838.78 52.56 835.41 51.20 832.03 49.91 C 837.40 56.55 843.63 62.54 848.11 69.87 C 853.96 79.12 858.91 88.92 864.98 98.04 C 869.53 105.36 874.17 113.31 873.97 122.22 C 872.14 120.52 870.35 118.78 868.57 117.03 C 871.67 133.94 872.80 151.34 870.36 168.41 C 867.70 182.25 863.71 195.88 857.80 208.70 C 859.79 208.05 861.79 207.39 863.79 206.74 C 861.75 210.20 860.95 214.13 859.64 217.85 C 856.17 221.29 851.24 223.35 849.02 227.99 C 842.91 240.08 831.83 248.39 821.12 256.15 C 814.00 261.96 805.69 266.09 797.13 269.32 C 788.88 272.27 780.00 271.97 771.38 272.34 C 759.16 272.98 746.87 271.30 735.17 267.78 C 724.85 265.14 714.65 262.05 704.29 259.55 C 698.24 257.97 692.02 256.77 686.40 253.92 C 688.35 252.86 690.33 251.84 692.31 250.80 C 688.41 246.00 683.46 242.05 680.35 236.64 C 676.58 230.25 672.36 223.98 670.24 216.80 C 668.37 210.56 666.49 204.33 664.80 198.04 C 663.86 199.88 662.91 201.72 661.95 203.55 C 661.08 199.74 660.46 195.87 660.04 191.99 C 658.78 193.78 657.50 195.56 656.20 197.31 C 653.68 190.48 654.56 183.11 654.55 176.00 C 654.54 168.61 655.92 161.33 656.33 153.97 C 656.74 143.44 657.18 132.69 660.73 122.66 C 663.87 113.57 666.73 104.38 670.46 95.50 C 669.10 95.48 667.76 95.45 666.42 95.43 C 671.18 80.16 683.83 69.61 694.03 57.99 C 698.45 53.42 703.46 49.46 707.91 44.91 C 715.17 37.58 724.35 32.68 732.43 26.39 C 736.83 23.04 738.17 16.88 743.15 14.16 M 742.50 17.50 C 738.79 19.67 737.99 24.28 735.30 27.34 C 733.25 29.10 730.71 30.12 728.42 31.51 C 723.85 34.07 720.32 38.01 716.24 41.22 C 710.87 45.49 705.71 50.02 700.63 54.64 C 695.29 59.37 691.89 65.82 686.64 70.64 C 680.95 75.95 675.93 81.95 671.77 88.54 C 673.33 88.11 674.89 87.68 676.46 87.26 C 674.02 93.52 670.64 99.39 668.88 105.90 C 666.45 115.27 663.36 124.44 660.77 133.76 C 658.30 142.27 660.10 151.21 658.79 159.87 C 657.78 167.33 655.47 175.04 658.17 182.43 C 659.03 178.76 659.88 175.08 661.15 171.53 C 661.67 176.36 661.44 181.24 661.83 186.09 C 662.09 190.85 665.99 194.19 667.37 198.57 C 670.39 207.52 672.33 216.89 676.61 225.37 C 679.56 231.18 682.70 237.01 687.22 241.79 C 690.11 244.82 692.84 248.02 695.24 251.48 C 693.44 252.53 691.65 253.60 689.87 254.66 C 697.51 255.37 704.94 257.31 712.23 259.65 C 723.27 262.52 734.09 266.30 745.30 268.51 C 755.07 270.49 765.09 269.82 774.99 269.80 C 780.52 269.69 786.16 269.99 791.56 268.52 C 800.96 265.91 810.11 261.93 817.76 255.78 C 824.93 249.99 832.29 244.34 838.47 237.45 C 843.34 232.16 847.07 225.97 851.14 220.07 C 854.47 215.56 854.61 209.75 856.82 204.75 C 863.14 190.26 868.80 175.01 869.16 159.01 C 869.26 152.67 869.81 146.34 869.62 139.99 C 868.71 129.06 867.05 117.99 862.06 108.09 C 864.44 109.02 866.83 109.93 869.23 110.84 C 867.38 106.79 865.33 102.83 863.00 99.04 C 856.59 88.62 851.23 77.58 844.76 67.21 C 838.60 57.99 827.48 53.71 821.46 44.44 C 825.38 45.03 829.28 45.70 833.22 46.21 C 827.13 40.49 819.94 36.08 812.35 32.64 C 804.07 28.74 795.12 26.63 786.58 23.41 C 781.57 21.50 776.23 20.86 771.05 19.62 C 765.75 18.39 761.56 14.11 756.01 13.75 C 751.27 13.60 746.54 15.07 742.50 17.50 Z" />
<path fill="#000000" opacity="1.00" d=" M 1064.14 14.16 C 1068.71 11.85 1073.99 11.09 1079.07 11.55 C 1084.44 12.06 1088.70 15.75 1093.76 17.25 C 1101.11 19.43 1109.04 19.61 1116.02 23.02 C 1125.52 27.57 1135.89 30.35 1144.76 36.20 C 1151.90 40.83 1159.49 45.78 1163.21 53.78 C 1159.78 52.57 1156.41 51.21 1153.03 49.91 C 1158.40 56.55 1164.63 62.54 1169.11 69.87 C 1174.96 79.12 1179.91 88.92 1185.98 98.04 C 1190.52 105.36 1195.17 113.31 1194.98 122.22 C 1193.14 120.52 1191.34 118.79 1189.57 117.04 C 1191.63 129.25 1193.27 141.63 1192.51 154.04 C 1192.73 166.90 1189.10 179.34 1185.52 191.56 C 1183.74 197.45 1181.15 203.03 1178.80 208.70 C 1180.79 208.05 1182.79 207.40 1184.79 206.75 C 1182.74 210.20 1181.94 214.13 1180.65 217.85 C 1177.16 221.29 1172.24 223.36 1170.02 228.00 C 1162.75 242.29 1148.85 251.13 1136.35 260.36 C 1126.85 266.17 1116.37 271.33 1105.03 271.82 C 1098.06 272.16 1091.09 272.52 1084.11 272.44 C 1066.11 272.04 1049.13 265.47 1031.84 261.20 C 1023.66 258.90 1015.09 257.68 1007.40 253.93 C 1009.35 252.86 1011.33 251.83 1013.30 250.79 C 1009.40 245.99 1004.45 242.05 1001.34 236.63 C 997.57 230.24 993.35 223.98 991.23 216.80 C 989.37 210.56 987.49 204.33 985.80 198.04 C 984.86 199.88 983.91 201.72 982.95 203.54 C 982.07 199.73 981.46 195.87 981.04 191.98 C 979.78 193.77 978.50 195.55 977.20 197.31 C 974.68 190.48 975.56 183.11 975.55 176.00 C 975.54 167.94 977.17 160.00 977.42 151.96 C 977.79 142.09 978.41 132.05 981.73 122.66 C 984.87 113.57 987.73 104.38 991.46 95.50 C 990.10 95.48 988.75 95.45 987.42 95.43 C 991.45 82.58 1001.17 72.77 1010.26 63.28 C 1016.09 56.11 1023.45 50.47 1029.93 43.93 C 1036.99 37.10 1045.73 32.41 1053.43 26.39 C 1057.83 23.04 1059.17 16.87 1064.14 14.16 M 1059.80 21.61 C 1058.29 24.05 1057.35 27.14 1054.65 28.57 C 1051.30 30.56 1047.70 32.17 1044.76 34.75 C 1036.96 41.64 1028.68 47.97 1021.11 55.12 C 1016.04 59.79 1012.72 65.99 1007.64 70.65 C 1001.94 75.95 996.92 81.96 992.77 88.55 C 994.32 88.12 995.88 87.69 997.46 87.26 C 994.90 93.77 991.37 99.91 989.65 106.73 C 987.25 116.07 984.07 125.19 981.58 134.50 C 979.43 142.50 980.99 150.84 979.90 158.96 C 978.99 166.73 976.35 174.73 979.17 182.43 C 980.02 178.76 980.88 175.08 982.15 171.52 C 983.33 178.48 980.98 186.40 985.26 192.57 C 989.31 198.49 990.30 205.74 992.59 212.39 C 994.84 220.16 998.34 227.51 1002.58 234.37 C 1006.31 240.71 1012.23 245.34 1016.24 251.48 C 1014.44 252.53 1012.66 253.59 1010.87 254.65 C 1019.07 255.37 1026.97 257.69 1034.81 260.10 C 1049.41 263.81 1063.73 269.61 1078.99 269.86 C 1087.00 270.00 1095.02 269.77 1103.03 269.71 C 1110.98 269.79 1118.52 266.88 1125.71 263.77 C 1134.60 259.90 1141.83 253.30 1149.24 247.23 C 1156.17 241.48 1162.39 234.84 1167.27 227.25 C 1169.86 223.13 1173.25 219.40 1174.80 214.71 C 1177.29 203.72 1183.15 193.90 1186.04 183.01 C 1190.60 169.48 1190.38 155.08 1190.66 140.99 C 1189.86 129.72 1188.17 118.29 1183.06 108.09 C 1185.43 109.02 1187.83 109.93 1190.23 110.84 C 1188.19 106.34 1185.85 101.98 1183.24 97.78 C 1177.15 87.75 1171.98 77.16 1165.76 67.21 C 1159.60 58.00 1148.48 53.71 1142.46 44.44 C 1146.38 45.03 1150.29 45.70 1154.23 46.21 C 1148.67 41.02 1142.22 36.86 1135.38 33.59 C 1126.28 29.04 1116.33 26.72 1106.85 23.16 C 1100.27 20.58 1092.81 20.90 1086.57 17.40 C 1082.75 15.28 1078.57 13.04 1074.05 13.84 C 1068.72 14.72 1062.49 16.46 1059.80 21.61 Z" />
<path fill="#000000" opacity="1.00" d=" M 1385.80 13.81 C 1392.95 10.65 1401.69 10.34 1408.51 14.52 C 1417.24 19.68 1428.00 18.57 1437.01 23.02 C 1446.52 27.57 1456.89 30.36 1465.76 36.20 C 1472.90 40.83 1480.49 45.78 1484.21 53.77 C 1480.78 52.56 1477.41 51.21 1474.03 49.91 C 1479.40 56.55 1485.64 62.54 1490.11 69.87 C 1495.96 79.12 1500.91 88.92 1506.98 98.04 C 1511.53 105.36 1516.17 113.31 1515.97 122.22 C 1514.14 120.52 1512.34 118.79 1510.58 117.04 C 1512.63 129.25 1514.28 141.63 1513.51 154.04 C 1513.73 166.90 1510.10 179.34 1506.52 191.56 C 1504.74 197.45 1502.15 203.03 1499.80 208.70 C 1501.79 208.05 1503.78 207.40 1505.78 206.74 C 1503.75 210.20 1502.94 214.13 1501.65 217.85 C 1498.17 221.29 1493.23 223.35 1491.02 227.99 C 1483.76 242.29 1469.85 251.13 1457.35 260.36 C 1448.09 266.00 1438.00 271.21 1426.96 271.74 C 1417.62 272.17 1408.24 272.95 1398.91 272.02 C 1385.86 271.01 1373.45 266.57 1360.85 263.37 C 1350.11 259.95 1338.68 258.67 1328.40 253.92 C 1330.34 252.86 1332.33 251.83 1334.31 250.80 C 1330.40 246.00 1325.45 242.05 1322.35 236.64 C 1318.58 230.25 1314.36 223.98 1312.24 216.80 C 1310.37 210.56 1308.49 204.33 1306.80 198.04 C 1305.86 199.88 1304.91 201.71 1303.95 203.54 C 1303.07 199.73 1302.45 195.87 1302.04 191.98 C 1300.78 193.77 1299.50 195.55 1298.21 197.31 C 1295.78 190.81 1296.50 183.79 1296.53 177.01 C 1296.45 168.27 1298.26 159.67 1298.46 150.95 C 1298.84 141.42 1299.52 131.72 1302.73 122.66 C 1305.87 113.57 1308.73 104.38 1312.46 95.51 C 1311.10 95.48 1309.75 95.45 1308.42 95.43 C 1311.83 84.73 1319.18 75.84 1326.89 67.91 C 1331.73 63.07 1335.89 57.57 1341.11 53.11 C 1346.89 48.24 1351.83 42.42 1358.01 38.02 C 1363.36 33.97 1369.16 30.55 1374.43 26.39 C 1379.00 22.90 1380.34 16.29 1385.80 13.81 M 1383.90 17.91 C 1380.63 20.21 1379.86 24.46 1377.30 27.34 C 1375.25 29.10 1372.70 30.12 1370.42 31.50 C 1365.85 34.07 1362.32 38.01 1358.24 41.22 C 1352.87 45.49 1347.71 50.02 1342.63 54.64 C 1337.29 59.37 1333.89 65.82 1328.64 70.64 C 1322.94 75.95 1317.92 81.95 1313.77 88.54 C 1315.32 88.11 1316.88 87.68 1318.46 87.26 C 1315.90 93.77 1312.37 99.91 1310.65 106.73 C 1308.24 116.07 1305.06 125.19 1302.58 134.51 C 1300.43 142.50 1301.99 150.84 1300.90 158.95 C 1299.99 166.73 1297.34 174.73 1300.17 182.43 C 1301.03 178.76 1301.88 175.08 1303.15 171.52 C 1304.32 178.48 1301.98 186.40 1306.26 192.57 C 1310.31 198.48 1311.29 205.74 1313.59 212.39 C 1315.91 220.39 1319.55 227.95 1323.98 235.00 C 1327.70 241.05 1333.38 245.54 1337.25 251.49 C 1335.43 252.54 1333.64 253.61 1331.85 254.67 C 1342.34 255.47 1352.20 259.28 1362.30 261.89 C 1374.34 265.24 1386.35 269.48 1398.97 269.82 C 1407.32 270.04 1415.68 269.76 1424.04 269.71 C 1432.23 269.77 1440.00 266.72 1447.38 263.46 C 1455.77 259.68 1462.65 253.45 1469.70 247.68 C 1476.84 241.82 1483.27 235.04 1488.28 227.25 C 1491.08 222.77 1494.87 218.71 1496.16 213.45 C 1496.92 210.52 1497.64 207.56 1498.82 204.76 C 1504.35 192.05 1509.38 178.84 1510.77 164.95 C 1511.31 156.98 1511.59 148.98 1511.66 140.99 C 1510.86 129.73 1509.17 118.30 1504.06 108.09 C 1506.44 109.03 1508.83 109.93 1511.24 110.84 C 1506.89 101.17 1500.69 92.50 1495.90 83.06 C 1491.26 75.49 1487.99 66.80 1481.09 60.89 C 1475.39 55.19 1467.74 51.49 1463.47 44.44 C 1467.38 45.03 1471.28 45.70 1475.22 46.22 C 1461.24 32.78 1441.97 27.98 1424.12 22.02 C 1418.84 20.50 1413.11 20.39 1408.20 17.72 C 1404.67 15.93 1401.13 13.58 1397.02 13.72 C 1392.38 13.88 1387.75 15.32 1383.90 17.91 Z" />
<path fill="#000000" opacity="1.00" d=" M 1706.80 13.81 C 1713.95 10.64 1722.69 10.34 1729.52 14.52 C 1738.25 19.69 1749.00 18.58 1758.01 23.02 C 1767.52 27.57 1777.89 30.35 1786.76 36.20 C 1793.90 40.84 1801.49 45.78 1805.21 53.78 C 1801.78 52.56 1798.41 51.21 1795.03 49.91 C 1800.39 56.55 1806.64 62.54 1811.11 69.87 C 1816.96 79.13 1821.92 88.92 1827.98 98.04 C 1832.53 105.36 1837.17 113.30 1836.97 122.22 C 1835.14 120.52 1833.34 118.79 1831.58 117.04 C 1833.62 129.25 1835.27 141.63 1834.51 154.04 C 1834.69 166.61 1831.22 178.80 1827.77 190.77 C 1825.96 196.93 1823.27 202.77 1820.80 208.69 C 1822.83 208.04 1824.86 207.40 1826.92 206.77 C 1825.76 209.07 1824.56 211.34 1823.52 213.69 C 1823.34 215.08 1823.91 216.82 1822.77 217.91 C 1819.87 220.65 1816.03 222.32 1813.63 225.59 C 1811.19 228.91 1809.56 232.76 1806.96 235.98 C 1802.10 242.08 1796.17 247.25 1789.90 251.86 C 1783.84 256.22 1778.14 261.19 1771.33 264.39 C 1764.27 267.94 1756.85 271.17 1748.86 271.67 C 1734.32 272.65 1719.49 273.27 1705.23 269.66 C 1694.23 266.70 1683.19 263.91 1672.24 260.82 C 1664.59 258.63 1656.58 257.48 1649.39 253.93 C 1651.33 252.86 1653.32 251.84 1655.30 250.79 C 1651.41 245.99 1646.45 242.05 1643.35 236.64 C 1639.58 230.25 1635.36 223.98 1633.24 216.80 C 1631.37 210.56 1629.49 204.33 1627.80 198.04 C 1626.85 199.88 1625.90 201.72 1624.94 203.55 C 1624.07 199.76 1623.47 195.91 1623.08 192.05 C 1621.74 193.85 1620.29 195.56 1618.90 197.31 C 1616.50 187.48 1617.50 177.23 1618.04 167.24 C 1620.22 152.69 1618.62 137.54 1623.48 123.43 C 1626.68 114.08 1629.64 104.63 1633.46 95.50 C 1632.10 95.48 1630.75 95.45 1629.43 95.42 C 1632.78 84.70 1640.20 75.85 1647.90 67.90 C 1652.73 63.06 1656.89 57.57 1662.11 53.11 C 1667.88 48.23 1672.83 42.42 1679.01 38.02 C 1684.36 33.97 1690.16 30.55 1695.43 26.39 C 1700.00 22.90 1701.33 16.29 1706.80 13.81 M 1704.90 17.91 C 1701.64 20.21 1700.86 24.46 1698.31 27.34 C 1696.25 29.10 1693.70 30.12 1691.42 31.51 C 1686.85 34.07 1683.32 38.01 1679.23 41.22 C 1673.87 45.49 1668.71 50.02 1663.63 54.64 C 1658.13 59.54 1654.63 66.23 1649.14 71.14 C 1643.86 75.98 1639.31 81.55 1635.66 87.71 C 1637.16 86.93 1638.67 86.15 1640.20 85.36 C 1637.60 92.59 1633.53 99.24 1631.65 106.72 C 1629.23 116.06 1626.06 125.19 1623.58 134.51 C 1621.43 142.50 1622.99 150.84 1621.90 158.96 C 1620.99 166.73 1618.35 174.73 1621.17 182.43 C 1622.02 178.76 1622.88 175.08 1624.15 171.52 C 1625.33 178.48 1622.98 186.40 1627.26 192.57 C 1631.30 198.49 1632.30 205.73 1634.59 212.39 C 1636.83 220.16 1640.33 227.51 1644.59 234.38 C 1648.33 240.73 1654.27 245.37 1658.29 251.54 C 1656.44 252.51 1654.61 253.50 1652.80 254.49 C 1672.05 257.18 1690.09 265.03 1709.14 268.67 C 1720.65 270.75 1732.40 269.61 1744.02 269.73 C 1752.56 269.97 1760.70 266.89 1768.38 263.46 C 1776.99 259.57 1784.01 253.14 1791.25 247.22 C 1798.17 241.47 1804.39 234.84 1809.27 227.25 C 1812.08 222.78 1815.87 218.71 1817.16 213.46 C 1818.02 210.03 1818.93 206.59 1820.40 203.36 C 1824.17 195.01 1827.20 186.33 1829.65 177.51 C 1832.87 165.96 1832.59 153.84 1832.72 141.96 C 1832.01 130.37 1830.29 118.59 1825.06 108.09 C 1827.43 109.03 1829.83 109.93 1832.24 110.85 C 1828.02 101.39 1821.94 92.94 1817.27 83.71 C 1812.49 75.94 1809.16 66.98 1802.09 60.89 C 1796.39 55.19 1788.74 51.49 1784.46 44.44 C 1788.37 45.03 1792.28 45.71 1796.22 46.22 C 1782.45 32.94 1763.48 28.16 1745.89 22.23 C 1740.37 20.53 1734.35 20.51 1729.20 17.72 C 1725.67 15.93 1722.12 13.58 1718.01 13.72 C 1713.38 13.87 1708.75 15.32 1704.90 17.91 Z" />
<path fill="#000000" opacity="1.00" d=" M 136.18 40.21 C 142.24 41.09 146.34 35.66 150.49 32.21 C 148.64 37.67 144.35 43.20 138.00 42.95 C 132.92 43.43 129.52 39.17 126.50 35.80 C 127.46 34.90 128.39 33.96 129.29 32.99 C 131.35 35.56 133.08 38.75 136.18 40.21 Z" />
<path fill="#000000" opacity="1.00" d=" M 457.16 40.19 C 463.19 40.95 467.35 35.70 471.49 32.22 C 469.63 37.67 465.34 43.20 459.00 42.95 C 454.05 43.44 450.69 39.37 447.77 36.06 C 448.01 35.46 448.50 34.27 448.75 33.68 C 449.19 33.60 450.06 33.44 450.50 33.36 C 452.51 35.79 454.19 38.80 457.16 40.19 Z" />
<path fill="#000000" opacity="1.00" d=" M 778.18 40.21 C 784.24 41.10 788.34 35.65 792.50 32.21 C 790.63 37.66 786.35 43.21 780.00 42.95 C 774.92 43.42 771.51 39.17 768.49 35.80 C 769.45 34.90 770.38 33.96 771.28 32.99 C 773.35 35.56 775.08 38.75 778.18 40.21 Z" />
<path fill="#000000" opacity="1.00" d=" M 1099.15 40.19 C 1105.18 40.95 1109.36 35.71 1113.50 32.22 C 1111.62 37.66 1107.34 43.20 1101.00 42.95 C 1096.05 43.44 1092.69 39.37 1089.77 36.06 C 1090.01 35.46 1090.50 34.27 1090.75 33.67 C 1091.19 33.59 1092.06 33.43 1092.50 33.35 C 1094.51 35.79 1096.19 38.79 1099.15 40.19 Z" />
<path fill="#000000" opacity="1.00" d=" M 1420.18 40.21 C 1426.23 41.10 1430.33 35.66 1434.49 32.21 C 1432.63 37.67 1428.34 43.20 1422.00 42.95 C 1416.76 43.42 1413.31 38.93 1410.20 35.47 C 1411.23 34.91 1412.13 33.60 1413.46 33.75 C 1415.81 35.78 1417.37 38.74 1420.18 40.21 Z" />
<path fill="#000000" opacity="1.00" d=" M 1741.18 40.18 C 1747.19 40.96 1751.35 35.69 1755.49 32.22 C 1754.06 35.33 1752.70 38.75 1749.77 40.77 C 1745.92 43.54 1739.99 43.93 1736.31 40.70 C 1734.62 39.32 1733.20 37.68 1731.70 36.13 C 1732.23 34.98 1732.84 33.86 1733.54 32.78 C 1735.94 35.36 1738.05 38.39 1741.18 40.18 Z" />
<path fill="#000000" opacity="1.00" d=" M 85.09 52.70 C 84.79 44.25 91.36 36.78 99.48 35.11 C 96.17 40.70 88.16 42.84 87.51 50.01 C 87.87 50.31 88.59 50.92 88.95 51.23 C 92.29 50.47 95.32 48.81 98.45 47.48 C 96.84 49.16 95.38 51.09 93.29 52.20 C 90.64 53.01 87.82 52.66 85.09 52.70 Z" />
<path fill="#000000" opacity="1.00" d=" M 406.09 52.70 C 405.79 44.25 412.35 36.77 420.49 35.12 C 418.18 38.60 414.67 40.89 411.62 43.64 C 409.33 45.57 409.11 48.74 408.47 51.45 C 412.26 50.52 415.90 49.10 419.46 47.53 C 417.83 49.18 416.35 51.08 414.28 52.20 C 411.63 53.00 408.81 52.66 406.09 52.70 Z" />
<path fill="#000000" opacity="1.00" d=" M 727.09 52.70 C 726.79 44.25 733.35 36.78 741.48 35.12 C 738.16 40.70 730.16 42.86 729.50 50.02 C 729.87 50.32 730.59 50.92 730.96 51.22 C 734.29 50.47 737.32 48.81 740.45 47.48 C 738.84 49.16 737.37 51.09 735.29 52.20 C 732.63 53.01 729.81 52.66 727.09 52.70 Z" />
<path fill="#000000" opacity="1.00" d=" M 1048.09 52.70 C 1047.79 44.25 1054.35 36.78 1062.48 35.12 C 1059.10 40.93 1049.92 43.25 1050.78 51.17 C 1054.58 50.81 1058.02 49.04 1061.45 47.48 C 1059.83 49.16 1058.37 51.10 1056.29 52.20 C 1053.63 53.00 1050.81 52.67 1048.09 52.70 Z" />
<path fill="#000000" opacity="1.00" d=" M 1369.09 52.70 C 1368.79 44.25 1375.35 36.77 1383.49 35.12 C 1381.18 38.60 1377.66 40.89 1374.62 43.64 C 1372.33 45.57 1372.09 48.74 1371.47 51.46 C 1375.25 50.52 1378.89 49.11 1382.45 47.53 C 1380.82 49.18 1379.34 51.08 1377.28 52.20 C 1374.63 53.01 1371.81 52.66 1369.09 52.70 Z" />
<path fill="#000000" opacity="1.00" d=" M 1690.09 52.70 C 1689.79 44.25 1696.35 36.77 1704.48 35.12 C 1701.14 40.69 1693.17 42.86 1692.49 50.03 C 1692.86 50.33 1693.59 50.92 1693.95 51.22 C 1697.28 50.47 1700.31 48.81 1703.45 47.48 C 1701.83 49.16 1700.37 51.09 1698.28 52.20 C 1695.63 53.00 1692.80 52.66 1690.09 52.70 Z" />
<path fill="#000000" opacity="1.00" d=" M 118.86 39.03 C 122.07 40.67 125.77 42.11 127.73 45.34 C 129.49 48.49 127.82 52.28 126.01 55.01 C 123.98 58.12 119.72 58.49 116.43 57.54 C 113.45 56.77 112.11 53.73 110.53 51.41 C 113.87 52.69 117.09 54.83 120.77 54.83 C 122.99 54.20 124.16 51.86 125.69 50.29 C 123.29 46.61 120.98 42.87 118.86 39.03 Z" />
<path fill="#000000" opacity="1.00" d=" M 439.86 39.03 C 443.56 40.93 448.44 42.74 449.43 47.30 C 449.79 52.50 445.92 58.81 440.04 58.00 C 435.85 58.23 433.33 54.64 431.53 51.42 C 434.86 52.69 438.09 54.82 441.77 54.83 C 444.00 54.21 445.16 51.86 446.69 50.28 C 444.29 46.61 441.98 42.87 439.86 39.03 Z" />
<path fill="#000000" opacity="1.00" d=" M 760.86 39.03 C 764.56 40.93 769.44 42.75 770.44 47.30 C 770.79 52.50 766.91 58.80 761.04 58.00 C 756.85 58.23 754.33 54.64 752.53 51.42 C 755.86 52.69 759.09 54.82 762.76 54.83 C 764.99 54.20 766.16 51.86 767.69 50.29 C 765.29 46.61 762.98 42.87 760.86 39.03 Z" />
<path fill="#000000" opacity="1.00" d=" M 1081.86 39.03 C 1085.07 40.67 1088.77 42.10 1090.73 45.34 C 1092.49 48.49 1090.82 52.28 1089.01 55.00 C 1086.97 58.12 1082.71 58.50 1079.43 57.54 C 1076.45 56.77 1075.11 53.73 1073.53 51.41 C 1076.87 52.69 1080.09 54.82 1083.77 54.83 C 1085.99 54.21 1087.15 51.86 1088.69 50.29 C 1086.29 46.61 1083.98 42.87 1081.86 39.03 Z" />
<path fill="#000000" opacity="1.00" d=" M 1402.86 39.03 C 1406.55 40.93 1411.44 42.75 1412.43 47.30 C 1412.78 52.50 1408.91 58.81 1403.04 58.00 C 1398.85 58.23 1396.33 54.63 1394.53 51.41 C 1397.86 52.69 1401.08 54.82 1404.76 54.83 C 1406.98 54.20 1408.15 51.86 1409.69 50.28 C 1407.29 46.61 1404.98 42.87 1402.86 39.03 Z" />
<path fill="#000000" opacity="1.00" d=" M 1723.86 39.03 C 1727.07 40.67 1730.77 42.10 1732.73 45.34 C 1734.49 48.49 1732.82 52.28 1731.01 55.01 C 1728.97 58.11 1724.70 58.54 1721.42 57.54 C 1718.45 56.76 1717.11 53.73 1715.53 51.42 C 1718.86 52.69 1722.08 54.82 1725.76 54.82 C 1727.99 54.20 1729.15 51.86 1730.69 50.28 C 1728.29 46.61 1725.98 42.88 1723.86 39.03 Z" />
<path fill="#000000" opacity="1.00" d=" M 171.19 61.55 C 176.65 65.43 179.53 71.64 182.62 77.36 C 186.04 83.86 188.61 90.95 188.85 98.36 C 185.50 93.75 184.35 88.09 181.95 83.02 C 178.37 75.86 174.98 68.61 171.19 61.55 Z" />
<path fill="#000000" opacity="1.00" d=" M 492.19 61.56 C 497.66 65.43 500.53 71.64 503.62 77.36 C 507.04 83.86 509.60 90.95 509.85 98.36 C 508.67 96.50 507.51 94.61 506.69 92.56 C 502.94 81.76 497.32 71.74 492.19 61.56 Z" />
<path fill="#000000" opacity="1.00" d=" M 813.19 61.56 C 818.65 65.43 821.53 71.64 824.62 77.36 C 828.04 83.86 830.61 90.95 830.85 98.36 C 827.50 93.75 826.35 88.09 823.95 83.02 C 820.36 75.86 816.97 68.61 813.19 61.56 Z" />
<path fill="#000000" opacity="1.00" d=" M 1134.19 61.56 C 1136.84 63.64 1139.28 66.07 1140.96 69.03 C 1146.28 78.02 1151.54 87.65 1151.85 98.36 C 1148.50 93.75 1147.34 88.09 1144.95 83.02 C 1141.36 75.86 1137.97 68.61 1134.19 61.56 Z" />
<path fill="#000000" opacity="1.00" d=" M 1455.18 61.56 C 1460.66 65.42 1463.52 71.63 1466.62 77.36 C 1470.03 83.86 1472.61 90.95 1472.85 98.36 C 1469.50 93.75 1468.34 88.09 1465.95 83.02 C 1462.36 75.86 1458.98 68.61 1455.18 61.56 Z" />
<path fill="#000000" opacity="1.00" d=" M 1776.19 61.56 C 1781.65 65.44 1784.52 71.64 1787.62 77.36 C 1791.04 83.86 1793.60 90.95 1793.85 98.36 C 1790.50 93.75 1789.34 88.10 1786.95 83.02 C 1783.36 75.86 1779.98 68.61 1776.19 61.56 Z" />
<path fill="#000000" opacity="1.00" d=" M 90.32 88.20 C 92.59 82.57 94.64 76.38 99.69 72.58 C 97.20 78.64 93.35 84.08 91.29 90.33 C 89.22 96.05 88.68 102.16 88.26 108.18 C 87.74 108.38 86.69 108.78 86.17 108.98 C 86.46 101.89 87.66 94.81 90.32 88.20 Z" />
<path fill="#000000" opacity="1.00" d=" M 415.93 77.92 C 417.09 75.80 418.90 74.16 420.69 72.58 C 418.20 78.65 414.35 84.08 412.29 90.34 C 410.22 96.05 409.68 102.16 409.26 108.18 C 408.74 108.38 407.69 108.78 407.17 108.98 C 407.40 98.07 410.82 87.48 415.93 77.92 Z" />
<path fill="#000000" opacity="1.00" d=" M 732.05 88.93 C 734.40 83.07 736.43 76.55 741.69 72.58 C 739.20 78.65 735.35 84.08 733.29 90.34 C 731.22 96.05 730.68 102.15 730.26 108.18 C 729.74 108.38 728.70 108.78 728.17 108.99 C 728.46 102.15 729.54 95.32 732.05 88.93 Z" />
<path fill="#000000" opacity="1.00" d=" M 1053.05 88.93 C 1055.40 83.07 1057.43 76.55 1062.69 72.58 C 1060.19 78.64 1056.35 84.08 1054.29 90.34 C 1052.21 96.05 1051.68 102.15 1051.26 108.18 C 1050.74 108.38 1049.69 108.78 1049.17 108.98 C 1049.46 102.15 1050.55 95.32 1053.05 88.93 Z" />
<path fill="#000000" opacity="1.00" d=" M 1378.56 78.57 C 1379.76 76.18 1381.70 74.31 1383.70 72.58 C 1380.59 79.83 1375.89 86.42 1374.12 94.21 C 1372.95 98.78 1372.60 103.49 1372.26 108.17 C 1371.74 108.38 1370.70 108.79 1370.17 108.99 C 1370.37 98.32 1373.69 87.98 1378.56 78.57 Z" />
<path fill="#000000" opacity="1.00" d=" M 1699.93 77.93 C 1701.08 75.80 1702.90 74.16 1704.70 72.58 C 1701.98 79.11 1697.77 84.98 1695.80 91.83 C 1694.09 97.11 1693.65 102.67 1693.26 108.17 C 1692.74 108.38 1691.70 108.79 1691.18 109.00 C 1691.38 98.08 1694.82 87.49 1699.93 77.93 Z" />
<path fill="#000000" opacity="1.00" d=" M 48.15 118.16 C 50.65 104.96 54.32 90.85 64.54 81.40 C 62.16 86.65 58.89 91.45 56.73 96.81 C 53.81 103.90 52.02 111.47 48.15 118.16 Z" />
<path fill="#000000" opacity="1.00" d=" M 369.15 118.16 C 371.65 104.96 375.32 90.85 385.54 81.41 C 383.15 86.65 379.89 91.45 377.73 96.81 C 374.81 103.90 373.01 111.47 369.15 118.16 Z" />
<path fill="#000000" opacity="1.00" d=" M 690.15 118.16 C 692.66 104.96 696.32 90.85 706.54 81.40 C 704.88 85.03 702.83 88.45 700.98 91.98 C 696.53 100.35 694.91 109.92 690.15 118.16 Z" />
<path fill="#000000" opacity="1.00" d=" M 1011.15 118.15 C 1013.65 104.95 1017.32 90.84 1027.54 81.40 C 1025.15 86.65 1021.89 91.45 1019.73 96.81 C 1016.81 103.90 1015.01 111.46 1011.15 118.15 Z" />
<path fill="#000000" opacity="1.00" d=" M 1332.15 118.16 C 1334.65 104.96 1338.32 90.84 1348.54 81.40 C 1345.68 87.55 1341.81 93.21 1339.61 99.67 C 1337.33 105.91 1335.47 112.36 1332.15 118.16 Z" />
<path fill="#000000" opacity="1.00" d=" M 1653.15 118.15 C 1655.65 104.96 1659.32 90.84 1669.54 81.40 C 1666.55 87.77 1662.55 93.66 1660.34 100.38 C 1658.20 106.40 1656.34 112.57 1653.15 118.15 Z" />
<path fill="#000000" opacity="1.00" d=" M 39.06 113.91 C 42.17 107.42 44.78 100.05 51.02 95.85 C 48.60 100.76 45.22 105.15 43.06 110.20 C 39.45 118.45 37.75 127.34 36.16 136.14 C 35.71 136.35 34.83 136.76 34.38 136.96 C 34.85 129.11 35.68 121.12 39.06 113.91 Z" />
<path fill="#000000" opacity="1.00" d=" M 360.68 112.49 C 363.61 106.46 366.19 99.71 372.02 95.85 C 368.51 102.49 363.95 108.63 361.87 115.95 C 359.12 122.94 359.22 130.76 355.80 137.51 C 355.32 128.92 357.00 120.26 360.68 112.49 Z" />
<path fill="#000000" opacity="1.00" d=" M 687.50 101.36 C 688.90 99.13 690.97 97.46 693.02 95.85 C 689.52 102.49 684.95 108.63 682.87 115.95 C 680.11 122.94 680.22 130.76 676.79 137.51 C 675.81 124.58 680.89 112.19 687.50 101.36 Z" />
<path fill="#000000" opacity="1.00" d=" M 1008.50 101.37 C 1009.90 99.13 1011.97 97.46 1014.03 95.85 C 1011.60 100.76 1008.22 105.15 1006.07 110.20 C 1003.62 115.86 1001.90 121.82 1000.84 127.88 C 1000.27 131.21 999.30 134.47 997.79 137.50 C 996.81 124.57 1001.90 112.19 1008.50 101.37 Z" />
<path fill="#000000" opacity="1.00" d=" M 1323.07 113.91 C 1326.17 107.42 1328.77 100.04 1335.02 95.85 C 1331.95 101.86 1327.74 107.30 1325.63 113.77 C 1322.94 120.99 1321.55 128.59 1320.16 136.14 C 1319.71 136.35 1318.82 136.76 1318.38 136.97 C 1318.85 129.12 1319.67 121.12 1323.07 113.91 Z" />
<path fill="#000000" opacity="1.00" d=" M 1644.68 112.49 C 1647.61 106.46 1650.18 99.71 1656.03 95.85 C 1653.60 100.76 1650.21 105.15 1648.07 110.20 C 1645.62 115.86 1643.89 121.81 1642.84 127.88 C 1642.27 131.22 1641.30 134.47 1639.79 137.50 C 1639.31 128.92 1641.01 120.27 1644.68 112.49 Z" />
<path fill="#000000" opacity="1.00" d=" M 182.00 97.86 C 189.64 105.95 193.57 117.27 193.92 128.28 C 191.85 124.32 190.46 120.07 189.27 115.78 C 187.59 109.51 184.03 103.99 182.00 97.86 Z" />
<path fill="#000000" opacity="1.00" d=" M 502.99 97.86 C 510.64 105.94 514.57 117.27 514.92 128.29 C 512.85 124.33 511.46 120.07 510.27 115.78 C 508.59 109.51 505.03 103.99 502.99 97.86 Z" />
<path fill="#000000" opacity="1.00" d=" M 824.01 97.87 C 831.64 105.96 835.56 117.27 835.92 128.28 C 833.70 124.08 832.31 119.53 831.03 114.99 C 829.35 109.02 826.01 103.72 824.01 97.87 Z" />
<path fill="#000000" opacity="1.00" d=" M 1145.01 97.88 C 1152.64 105.96 1156.56 117.27 1156.92 128.28 C 1153.35 121.82 1152.46 114.35 1149.27 107.74 C 1147.74 104.50 1146.21 101.25 1145.01 97.88 Z" />
<path fill="#000000" opacity="1.00" d=" M 1466.01 97.88 C 1473.64 105.97 1477.56 117.28 1477.93 128.28 C 1475.70 124.09 1474.31 119.54 1473.03 114.99 C 1471.35 109.02 1468.02 103.72 1466.01 97.88 Z" />
<path fill="#000000" opacity="1.00" d=" M 1787.01 97.87 C 1794.64 105.96 1798.57 117.27 1798.92 128.28 C 1796.70 124.08 1795.31 119.54 1794.03 114.99 C 1792.35 109.02 1789.02 103.71 1787.01 97.87 Z" />
<path fill="#000000" opacity="1.00" d=" M 61.35 137.36 C 59.44 128.46 60.74 118.87 64.48 110.61 C 63.34 119.52 61.97 128.39 61.35 137.36 Z" />
<path fill="#000000" opacity="1.00" d=" M 382.36 137.36 C 380.44 128.46 381.74 118.86 385.48 110.61 C 384.34 119.51 382.96 128.38 382.36 137.36 Z" />
<path fill="#000000" opacity="1.00" d=" M 703.36 137.36 C 701.44 128.46 702.73 118.86 706.49 110.61 C 705.32 119.52 703.97 128.39 703.36 137.36 Z" />
<path fill="#000000" opacity="1.00" d=" M 1024.36 137.36 C 1022.44 128.46 1023.72 118.85 1027.49 110.61 C 1026.32 119.51 1024.97 128.38 1024.36 137.36 Z" />
<path fill="#000000" opacity="1.00" d=" M 1345.35 137.36 C 1343.44 128.46 1344.74 118.87 1348.48 110.61 C 1347.33 119.52 1345.97 128.39 1345.35 137.36 Z" />
<path fill="#000000" opacity="1.00" d=" M 1666.35 137.35 C 1664.44 128.46 1665.74 118.87 1669.49 110.62 C 1668.32 119.52 1666.97 128.38 1666.35 137.35 Z" />
<path fill="#000000" opacity="1.00" d=" M 166.61 111.50 C 168.71 114.13 170.79 116.93 171.56 120.28 C 173.47 128.16 174.42 136.47 172.75 144.48 C 171.14 139.47 171.41 134.17 171.06 128.99 C 170.68 122.92 168.19 117.30 166.61 111.50 Z" />
<path fill="#000000" opacity="1.00" d=" M 487.60 111.49 C 489.71 114.12 491.79 116.93 492.57 120.28 C 494.44 128.16 495.46 136.46 493.75 144.46 C 492.08 139.47 492.42 134.17 492.08 129.00 C 491.67 122.92 489.20 117.29 487.60 111.49 Z" />
<path fill="#000000" opacity="1.00" d=" M 808.60 111.49 C 810.71 114.13 812.79 116.93 813.57 120.28 C 815.49 128.17 816.39 136.48 814.76 144.51 C 813.15 139.49 813.40 134.19 813.06 129.00 C 812.69 122.92 810.19 117.29 808.60 111.49 Z" />
<path fill="#000000" opacity="1.00" d=" M 1129.61 111.49 C 1131.71 114.13 1133.79 116.93 1134.57 120.28 C 1136.48 128.17 1137.40 136.47 1135.76 144.49 C 1134.15 139.48 1134.40 134.18 1134.06 129.00 C 1133.69 122.92 1131.20 117.30 1129.61 111.49 Z" />
<path fill="#000000" opacity="1.00" d=" M 1450.61 111.49 C 1455.90 117.02 1456.81 124.89 1457.48 132.15 C 1457.83 136.28 1457.52 140.44 1456.77 144.51 C 1455.14 139.49 1455.40 134.18 1455.06 128.99 C 1454.68 122.92 1452.19 117.30 1450.61 111.49 Z" />
<path fill="#000000" opacity="1.00" d=" M 1771.60 111.49 C 1776.89 117.02 1777.82 124.88 1778.48 132.15 C 1778.82 136.28 1778.51 140.44 1777.76 144.51 C 1776.16 139.49 1776.39 134.19 1776.06 129.00 C 1775.68 122.92 1773.19 117.29 1771.60 111.49 Z" />
<path fill="#000000" opacity="1.00" d=" M 209.38 147.00 C 210.26 138.52 209.65 129.90 211.39 121.52 C 213.89 131.91 211.78 142.55 210.84 152.99 C 210.38 158.20 209.04 163.55 205.22 167.36 C 205.99 160.44 209.09 154.00 209.38 147.00 Z" />
<path fill="#000000" opacity="1.00" d=" M 530.38 147.00 C 531.27 138.52 530.64 129.89 532.40 121.52 C 534.77 131.25 532.96 141.24 532.06 151.03 C 531.54 156.84 530.58 163.07 526.23 167.37 C 526.99 160.44 530.09 154.00 530.38 147.00 Z" />
<path fill="#000000" opacity="1.00" d=" M 851.38 146.99 C 852.27 138.52 851.63 129.89 853.40 121.52 C 855.89 131.90 853.78 142.55 852.84 152.98 C 852.38 158.20 851.04 163.56 847.22 167.37 C 847.99 160.44 851.10 154.00 851.38 146.99 Z" />
<path fill="#000000" opacity="1.00" d=" M 1172.38 146.99 C 1173.25 138.52 1172.65 129.89 1174.40 121.52 C 1176.77 131.25 1174.96 141.24 1174.06 151.02 C 1173.53 156.84 1172.59 163.08 1168.22 167.36 C 1168.99 160.44 1172.10 154.00 1172.38 146.99 Z" />
<path fill="#000000" opacity="1.00" d=" M 1492.28 154.25 C 1494.69 143.50 1493.19 132.30 1495.40 121.53 C 1497.89 131.91 1495.78 142.56 1494.84 152.99 C 1494.38 158.20 1493.03 163.55 1489.22 167.37 C 1489.74 162.88 1491.15 158.60 1492.28 154.25 Z" />
<path fill="#000000" opacity="1.00" d=" M 1813.28 154.25 C 1815.68 143.49 1814.20 132.29 1816.40 121.52 C 1818.88 131.91 1816.78 142.55 1815.84 152.99 C 1815.37 158.20 1814.04 163.55 1810.23 167.36 C 1810.73 162.88 1812.15 158.59 1813.28 154.25 Z" />
<path fill="#000000" opacity="1.00" d=" M 160.56 126.76 C 163.48 134.79 162.54 143.44 162.40 151.80 C 162.30 156.75 161.50 161.71 159.58 166.29 C 159.42 159.50 160.45 152.76 160.47 145.98 C 160.52 139.57 160.22 133.16 160.56 126.76 Z" />
<path fill="#000000" opacity="1.00" d=" M 481.56 126.76 C 484.49 134.79 483.53 143.44 483.40 151.80 C 483.29 156.75 482.50 161.70 480.58 166.29 C 480.42 159.50 481.45 152.76 481.47 145.98 C 481.52 139.57 481.22 133.16 481.56 126.76 Z" />
<path fill="#000000" opacity="1.00" d=" M 802.57 126.76 C 805.48 134.80 804.54 143.44 804.40 151.80 C 804.29 156.75 803.50 161.70 801.58 166.29 C 801.42 159.50 802.45 152.76 802.46 145.98 C 802.51 139.57 802.22 133.16 802.57 126.76 Z" />
<path fill="#000000" opacity="1.00" d=" M 1123.57 126.77 C 1125.11 131.34 1125.80 136.16 1125.63 140.98 C 1125.38 149.46 1126.01 158.32 1122.58 166.30 C 1122.42 159.51 1123.45 152.77 1123.47 145.99 C 1123.51 139.58 1123.22 133.17 1123.57 126.77 Z" />
<path fill="#000000" opacity="1.00" d=" M 1444.56 126.77 C 1446.10 131.34 1446.80 136.16 1446.63 140.98 C 1446.38 149.46 1447.01 158.31 1443.58 166.29 C 1443.43 159.50 1444.45 152.76 1444.47 145.98 C 1444.51 139.58 1444.22 133.17 1444.56 126.77 Z" />
<path fill="#000000" opacity="1.00" d=" M 1765.57 126.77 C 1767.11 131.34 1767.80 136.16 1767.63 140.98 C 1767.38 149.46 1768.01 158.32 1764.58 166.29 C 1764.42 159.51 1765.45 152.76 1765.47 145.98 C 1765.51 139.58 1765.21 133.17 1765.57 126.77 Z" />
<path fill="#000000" opacity="1.00" d=" M 187.57 144.47 C 190.25 151.01 189.35 158.18 188.81 165.03 C 188.29 170.66 188.14 176.76 184.47 181.40 C 184.92 175.87 186.33 170.48 186.91 164.96 C 187.65 158.15 187.00 151.29 187.57 144.47 Z" />
<path fill="#000000" opacity="1.00" d=" M 508.57 144.47 C 511.25 151.01 510.35 158.18 509.81 165.03 C 509.29 170.66 509.14 176.76 505.48 181.41 C 505.92 175.87 507.33 170.48 507.90 164.96 C 508.65 158.15 508.00 151.29 508.57 144.47 Z" />
<path fill="#000000" opacity="1.00" d=" M 829.58 144.46 C 832.25 151.01 831.34 158.19 830.81 165.04 C 830.29 170.66 830.14 176.76 826.47 181.41 C 826.91 175.87 828.33 170.48 828.90 164.96 C 829.65 158.15 828.99 151.29 829.58 144.46 Z" />
<path fill="#000000" opacity="1.00" d=" M 1150.57 144.46 C 1153.24 151.01 1152.35 158.18 1151.81 165.03 C 1151.28 170.66 1151.14 176.76 1147.47 181.41 C 1147.92 175.87 1149.33 170.48 1149.91 164.96 C 1150.65 158.15 1150.00 151.28 1150.57 144.46 Z" />
<path fill="#000000" opacity="1.00" d=" M 1471.57 144.47 C 1474.25 151.01 1473.34 158.19 1472.81 165.03 C 1472.29 170.67 1472.13 176.76 1468.48 181.41 C 1468.92 175.88 1470.33 170.48 1470.90 164.96 C 1471.65 158.15 1470.99 151.29 1471.57 144.47 Z" />
<path fill="#000000" opacity="1.00" d=" M 1792.57 144.46 C 1795.24 151.01 1794.34 158.18 1793.81 165.03 C 1793.29 170.66 1793.14 176.76 1789.47 181.41 C 1789.91 175.87 1791.33 170.48 1791.91 164.97 C 1792.65 158.15 1791.99 151.29 1792.57 144.46 Z" />
<path fill="#000000" opacity="1.00" d=" M 64.12 153.89 C 64.17 151.59 65.18 149.49 66.14 147.45 C 66.12 153.13 65.26 158.86 66.31 164.50 C 67.31 170.03 68.78 175.47 69.86 180.99 C 69.31 180.79 68.22 180.40 67.68 180.21 C 65.80 171.56 63.76 162.80 64.12 153.89 Z" />
<path fill="#000000" opacity="1.00" d=" M 385.12 153.89 C 385.17 151.59 386.19 149.49 387.13 147.45 C 387.12 153.13 386.26 158.86 387.31 164.50 C 388.32 170.03 389.78 175.47 390.86 180.99 C 390.32 180.80 389.22 180.40 388.68 180.20 C 386.79 171.56 384.76 162.79 385.12 153.89 Z" />
<path fill="#000000" opacity="1.00" d=" M 706.12 153.89 C 706.17 151.59 707.19 149.49 708.14 147.45 C 708.12 153.13 707.26 158.86 708.31 164.50 C 709.32 170.03 710.78 175.47 711.86 180.99 C 711.32 180.79 710.23 180.40 709.68 180.20 C 707.79 171.56 705.76 162.79 706.12 153.89 Z" />
<path fill="#000000" opacity="1.00" d=" M 1027.12 153.88 C 1027.15 151.58 1028.17 149.48 1029.14 147.44 C 1029.13 153.12 1028.25 158.85 1029.31 164.49 C 1030.32 170.03 1031.78 175.47 1032.86 180.99 C 1032.31 180.79 1031.22 180.40 1030.67 180.21 C 1028.80 171.56 1026.75 162.79 1027.12 153.88 Z" />
<path fill="#000000" opacity="1.00" d=" M 1348.12 153.89 C 1348.15 151.58 1349.18 149.49 1350.14 147.44 C 1350.12 153.12 1349.26 158.85 1350.31 164.50 C 1351.31 170.03 1352.78 175.47 1353.86 181.00 C 1353.32 180.80 1352.22 180.40 1351.68 180.21 C 1349.79 171.56 1347.76 162.80 1348.12 153.89 Z" />
<path fill="#000000" opacity="1.00" d=" M 1669.12 153.89 C 1669.16 151.59 1670.18 149.49 1671.14 147.45 C 1671.12 153.13 1670.25 158.86 1671.31 164.50 C 1672.31 170.03 1673.78 175.47 1674.87 180.99 C 1674.32 180.79 1673.22 180.40 1672.68 180.21 C 1670.79 171.56 1668.76 162.80 1669.12 153.89 Z" />
<path fill="#000000" opacity="1.00" d=" M 48.12 161.90 C 47.05 158.44 47.90 154.88 49.28 151.66 C 50.49 157.54 50.96 163.57 52.56 169.37 C 53.67 173.44 54.76 177.53 55.35 181.72 C 50.91 176.03 49.93 168.67 48.12 161.90 Z" />
<path fill="#000000" opacity="1.00" d=" M 369.12 161.89 C 368.04 158.44 368.89 154.88 370.28 151.66 C 371.49 157.54 371.96 163.56 373.56 169.37 C 374.67 173.44 375.76 177.53 376.35 181.72 C 371.90 176.03 370.94 168.67 369.12 161.89 Z" />
<path fill="#000000" opacity="1.00" d=" M 690.12 161.89 C 689.04 158.44 689.89 154.88 691.28 151.65 C 692.49 157.54 692.96 163.56 694.56 169.37 C 695.66 173.44 696.76 177.53 697.35 181.72 C 692.90 176.03 691.94 168.67 690.12 161.89 Z" />
<path fill="#000000" opacity="1.00" d=" M 1011.12 161.89 C 1010.04 158.44 1010.89 154.88 1012.28 151.65 C 1013.02 155.35 1013.52 159.10 1014.14 162.82 C 1015.16 169.21 1017.52 175.29 1018.35 181.72 C 1013.90 176.03 1012.93 168.67 1011.12 161.89 Z" />
<path fill="#000000" opacity="1.00" d=" M 1334.56 171.42 C 1333.00 165.01 1329.82 158.03 1333.28 151.66 C 1334.49 157.54 1334.96 163.56 1336.55 169.36 C 1337.66 173.44 1338.75 177.53 1339.35 181.72 C 1337.03 178.67 1335.44 175.14 1334.56 171.42 Z" />
<path fill="#000000" opacity="1.00" d=" M 1655.55 171.42 C 1654.02 165.01 1650.88 158.04 1654.27 151.66 C 1655.49 157.54 1655.96 163.57 1657.56 169.37 C 1658.66 173.44 1659.75 177.53 1660.35 181.72 C 1658.03 178.67 1656.43 175.14 1655.55 171.42 Z" />
<path fill="#000000" opacity="1.00" d=" M 194.31 179.28 C 195.39 173.98 196.10 168.53 198.54 163.63 C 198.91 169.20 197.97 174.78 195.89 179.95 C 193.06 187.07 190.71 194.74 185.25 200.36 C 187.18 192.86 192.81 186.92 194.31 179.28 Z" />
<path fill="#000000" opacity="1.00" d=" M 512.66 186.64 C 516.55 179.47 515.76 170.84 519.54 163.63 C 519.91 169.20 518.97 174.78 516.89 179.95 C 514.06 187.07 511.72 194.74 506.24 200.36 C 507.63 195.46 510.26 191.09 512.66 186.64 Z" />
<path fill="#000000" opacity="1.00" d=" M 833.66 186.64 C 837.55 179.48 836.77 170.85 840.54 163.63 C 840.87 168.94 840.10 174.28 838.14 179.24 C 835.25 186.59 832.87 194.53 827.25 200.36 C 828.63 195.46 831.26 191.09 833.66 186.64 Z" />
<path fill="#000000" opacity="1.00" d=" M 1154.66 186.65 C 1158.54 179.48 1157.77 170.85 1161.54 163.63 C 1162.42 172.94 1158.36 181.58 1154.89 189.94 C 1153.31 193.78 1151.09 197.34 1148.25 200.36 C 1149.63 195.46 1152.26 191.09 1154.66 186.65 Z" />
<path fill="#000000" opacity="1.00" d=" M 1475.66 186.65 C 1479.54 179.48 1478.77 170.85 1482.54 163.63 C 1483.42 172.94 1479.35 181.58 1475.89 189.94 C 1474.31 193.78 1472.09 197.34 1469.24 200.36 C 1470.63 195.46 1473.26 191.09 1475.66 186.65 Z" />
<path fill="#000000" opacity="1.00" d=" M 1796.66 186.64 C 1800.54 179.48 1799.76 170.85 1803.54 163.63 C 1804.43 172.95 1800.34 181.58 1796.89 189.95 C 1795.31 193.78 1793.09 197.34 1790.25 200.36 C 1791.63 195.46 1794.26 191.09 1796.66 186.64 Z" />
<path fill="#000000" opacity="1.00" d=" M 205.71 187.60 C 207.78 180.75 209.94 173.85 213.63 167.67 C 212.59 172.95 210.75 178.01 209.03 183.09 C 206.19 191.60 204.71 200.81 199.36 208.24 C 200.99 201.22 203.65 194.50 205.71 187.60 Z" />
<path fill="#000000" opacity="1.00" d=" M 524.53 194.42 C 527.57 185.39 529.69 175.93 534.63 167.67 C 533.59 172.95 531.75 178.01 530.04 183.09 C 527.18 191.60 525.71 200.81 520.36 208.24 C 521.45 203.55 522.99 198.98 524.53 194.42 Z" />
<path fill="#000000" opacity="1.00" d=" M 845.53 194.42 C 848.57 185.39 850.69 175.93 855.63 167.68 C 854.58 172.95 852.74 178.01 851.03 183.09 C 848.19 191.60 846.71 200.81 841.36 208.24 C 842.45 203.54 843.99 198.98 845.53 194.42 Z" />
<path fill="#000000" opacity="1.00" d=" M 1170.16 182.94 C 1171.79 177.65 1173.82 172.46 1176.63 167.67 C 1175.58 172.94 1173.74 178.00 1172.03 183.09 C 1169.19 191.60 1167.71 200.81 1162.36 208.24 C 1164.45 199.66 1167.70 191.42 1170.16 182.94 Z" />
<path fill="#000000" opacity="1.00" d=" M 1490.19 186.04 C 1492.09 179.70 1494.25 173.39 1497.63 167.67 C 1496.03 175.59 1492.72 183.02 1490.70 190.83 C 1489.02 196.92 1487.06 203.04 1483.36 208.24 C 1485.13 200.69 1488.01 193.47 1490.19 186.04 Z" />
<path fill="#000000" opacity="1.00" d=" M 1811.19 186.04 C 1813.09 179.70 1815.24 173.39 1818.63 167.67 C 1817.03 175.59 1813.73 183.02 1811.70 190.82 C 1810.02 196.91 1808.06 203.04 1804.36 208.24 C 1806.13 200.69 1809.01 193.47 1811.19 186.04 Z" />
<path fill="#000000" opacity="1.00" d=" M 37.49 181.66 C 41.02 191.02 44.28 200.49 47.55 209.94 C 47.17 210.19 46.39 210.69 46.00 210.93 C 40.28 202.33 37.64 191.92 37.49 181.66 Z" />
<path fill="#000000" opacity="1.00" d=" M 358.49 181.66 C 362.02 191.01 365.28 200.48 368.54 209.93 C 368.16 210.18 367.39 210.68 367.01 210.94 C 361.28 202.33 358.63 191.93 358.49 181.66 Z" />
<path fill="#000000" opacity="1.00" d=" M 679.49 181.67 C 683.02 191.03 686.29 200.51 689.56 209.97 C 689.17 210.20 688.38 210.67 687.99 210.91 C 682.27 202.31 679.64 191.92 679.49 181.67 Z" />
<path fill="#000000" opacity="1.00" d=" M 1000.49 181.67 C 1004.02 191.03 1007.29 200.51 1010.56 209.97 C 1010.17 210.21 1009.38 210.67 1008.99 210.91 C 1003.27 202.31 1000.64 191.92 1000.49 181.67 Z" />
<path fill="#000000" opacity="1.00" d=" M 1330.00 210.92 C 1324.36 202.29 1321.39 191.88 1321.66 181.58 C 1324.78 191.10 1328.39 200.44 1331.55 209.95 C 1331.17 210.19 1330.39 210.68 1330.00 210.92 Z" />
<path fill="#000000" opacity="1.00" d=" M 1642.49 181.67 C 1646.02 191.01 1649.28 200.47 1652.54 209.93 C 1652.16 210.18 1651.39 210.69 1651.01 210.94 C 1645.29 202.33 1642.63 191.93 1642.49 181.67 Z" />
<path fill="#000000" opacity="1.00" d=" M 98.27 236.65 C 95.73 225.23 92.73 213.10 96.05 201.53 C 96.34 207.30 96.24 213.12 97.11 218.85 C 97.97 225.10 100.00 231.10 101.74 237.15 C 100.58 236.98 99.42 236.81 98.27 236.65 Z" />
<path fill="#000000" opacity="1.00" d=" M 419.27 236.65 C 416.73 225.23 413.73 213.09 417.05 201.52 C 417.34 207.30 417.24 213.11 418.11 218.85 C 418.97 225.10 421.00 231.09 422.73 237.14 C 421.57 236.97 420.42 236.81 419.27 236.65 Z" />
<path fill="#000000" opacity="1.00" d=" M 740.26 236.65 C 737.73 225.23 734.73 213.09 738.05 201.52 C 738.35 207.90 738.24 214.33 739.39 220.64 C 740.36 226.25 742.17 231.68 743.73 237.15 C 742.57 236.98 741.41 236.81 740.26 236.65 Z" />
<path fill="#000000" opacity="1.00" d=" M 1061.27 236.64 C 1058.72 225.23 1055.74 213.09 1059.05 201.52 C 1059.34 207.30 1059.24 213.11 1060.11 218.85 C 1060.97 225.10 1063.00 231.10 1064.73 237.14 C 1063.57 236.97 1062.41 236.81 1061.27 236.64 Z" />
<path fill="#000000" opacity="1.00" d=" M 1382.27 236.65 C 1379.72 225.23 1376.73 213.09 1380.05 201.52 C 1380.34 207.30 1380.24 213.11 1381.11 218.85 C 1381.97 225.10 1384.00 231.10 1385.73 237.14 C 1384.56 236.97 1383.41 236.81 1382.27 236.65 Z" />
<path fill="#000000" opacity="1.00" d=" M 1703.27 236.64 C 1700.72 225.23 1697.73 213.10 1701.05 201.53 C 1701.34 207.31 1701.24 213.12 1702.11 218.85 C 1702.97 225.10 1705.00 231.10 1706.73 237.15 C 1705.56 236.97 1704.40 236.80 1703.27 236.64 Z" />
<path fill="#000000" opacity="1.00" d=" M 138.90 232.75 C 140.70 224.74 139.88 216.11 143.47 208.56 C 143.62 215.09 142.24 221.51 141.99 228.02 C 141.81 234.84 139.35 241.34 136.10 247.25 C 135.04 249.17 133.11 250.32 131.39 251.58 C 134.07 245.38 137.98 239.58 138.90 232.75 Z" />
<path fill="#000000" opacity="1.00" d=" M 459.90 232.75 C 461.70 224.74 460.89 216.12 464.46 208.56 C 464.31 216.99 463.12 225.37 462.33 233.76 C 460.49 240.24 458.63 247.92 452.39 251.58 C 455.07 245.38 458.98 239.59 459.90 232.75 Z" />
<path fill="#000000" opacity="1.00" d=" M 780.90 232.75 C 782.70 224.74 781.88 216.11 785.47 208.56 C 785.30 216.98 784.12 225.37 783.33 233.75 C 781.49 240.24 779.63 247.92 773.39 251.58 C 776.07 245.38 779.97 239.58 780.90 232.75 Z" />
<path fill="#000000" opacity="1.00" d=" M 1101.90 232.75 C 1103.69 224.74 1102.89 216.11 1106.47 208.56 C 1106.54 212.52 1106.12 216.46 1105.63 220.39 C 1104.86 226.34 1105.24 232.52 1103.12 238.23 C 1101.19 243.20 1099.45 248.92 1094.38 251.58 C 1097.07 245.38 1100.98 239.59 1101.90 232.75 Z" />
<path fill="#000000" opacity="1.00" d=" M 1422.89 232.75 C 1424.70 224.74 1423.89 216.11 1427.46 208.56 C 1427.62 215.09 1426.24 221.51 1425.99 228.03 C 1425.80 234.84 1423.35 241.35 1420.10 247.25 C 1419.02 249.16 1417.09 250.32 1415.39 251.58 C 1418.07 245.38 1421.97 239.59 1422.89 232.75 Z" />
<path fill="#000000" opacity="1.00" d=" M 1743.90 232.75 C 1745.68 224.74 1744.90 216.13 1748.46 208.56 C 1748.59 215.43 1747.17 222.20 1746.91 229.06 C 1746.65 235.27 1744.30 241.14 1741.49 246.59 C 1740.43 248.83 1738.32 250.21 1736.39 251.58 C 1739.07 245.38 1742.97 239.59 1743.90 232.75 Z" />
</g>
<g id="#704f30ff">
<path fill="#704f30" opacity="1.00" d=" M 100.50 17.50 C 106.14 14.19 113.55 12.13 119.68 15.38 C 123.76 17.55 127.89 19.81 132.56 20.40 C 140.88 21.57 148.58 25.05 156.57 27.46 C 169.17 31.35 181.50 37.12 191.22 46.21 C 187.29 45.70 183.38 45.03 179.46 44.44 C 181.24 46.97 183.12 49.48 185.56 51.41 C 192.55 57.00 200.28 62.30 204.71 70.30 C 208.05 76.30 211.51 82.24 214.77 88.28 C 218.80 95.87 223.81 102.93 227.23 110.85 C 224.84 109.93 222.44 109.02 220.06 108.09 C 225.17 118.29 226.86 129.73 227.66 140.99 C 227.62 148.66 227.29 156.34 226.86 164.00 C 226.05 174.40 222.85 184.42 219.23 194.15 C 217.05 200.14 213.86 205.76 212.54 212.05 C 211.27 218.60 206.47 223.55 203.05 229.04 C 196.10 239.61 186.09 247.53 176.32 255.34 C 167.51 262.43 156.81 267.13 145.74 269.29 C 136.53 270.13 127.25 269.74 118.00 269.90 C 104.88 270.06 92.30 265.93 79.85 262.32 C 69.21 259.53 58.80 255.72 47.80 254.48 C 49.63 253.50 51.45 252.52 53.28 251.54 C 48.66 244.62 41.88 239.38 38.09 231.87 C 32.05 222.13 29.12 210.98 25.91 200.09 C 24.82 195.66 21.39 192.31 20.12 187.97 C 19.22 182.54 19.81 176.99 19.15 171.52 C 17.88 175.08 17.04 178.76 16.17 182.44 C 13.35 174.73 15.99 166.73 16.90 158.96 C 17.99 150.84 16.43 142.50 18.58 134.50 C 21.07 125.19 24.24 116.07 26.65 106.72 C 28.37 99.91 31.91 93.78 34.45 87.27 C 32.89 87.69 31.33 88.11 29.77 88.54 C 32.25 84.81 34.77 81.11 37.75 77.76 C 41.76 73.11 46.60 69.24 50.30 64.32 C 58.24 52.99 70.01 45.30 80.15 36.13 C 83.32 33.11 87.19 31.02 91.02 28.95 C 95.87 26.70 95.92 20.09 100.50 17.50 M 136.18 40.21 C 133.08 38.75 131.35 35.56 129.29 32.99 C 128.39 33.96 127.46 34.90 126.50 35.80 C 129.52 39.17 132.92 43.43 138.00 42.95 C 144.35 43.20 148.64 37.67 150.49 32.21 C 146.34 35.66 142.24 41.09 136.18 40.21 M 85.09 52.70 C 87.82 52.66 90.64 53.01 93.29 52.20 C 95.38 51.09 96.84 49.16 98.45 47.48 C 95.32 48.81 92.29 50.47 88.95 51.23 C 88.59 50.92 87.87 50.31 87.51 50.01 C 88.16 42.84 96.17 40.70 99.48 35.11 C 91.36 36.78 84.79 44.25 85.09 52.70 M 118.86 39.03 C 120.98 42.87 123.29 46.61 125.69 50.29 C 124.16 51.86 122.99 54.20 120.77 54.83 C 117.09 54.83 113.87 52.69 110.53 51.41 C 112.11 53.73 113.45 56.77 116.43 57.54 C 119.72 58.49 123.98 58.12 126.01 55.01 C 127.82 52.28 129.49 48.49 127.73 45.34 C 125.77 42.11 122.07 40.67 118.86 39.03 M 171.19 61.55 C 174.98 68.61 178.37 75.86 181.95 83.02 C 184.35 88.09 185.50 93.75 188.85 98.36 C 188.61 90.95 186.04 83.86 182.62 77.36 C 179.53 71.64 176.65 65.43 171.19 61.55 M 90.32 88.20 C 87.66 94.81 86.46 101.89 86.17 108.98 C 86.69 108.78 87.74 108.38 88.26 108.18 C 88.68 102.16 89.22 96.05 91.29 90.33 C 93.35 84.08 97.20 78.64 99.69 72.58 C 94.64 76.38 92.59 82.57 90.32 88.20 M 48.15 118.16 C 52.02 111.47 53.81 103.90 56.73 96.81 C 58.89 91.45 62.16 86.65 64.54 81.40 C 54.32 90.85 50.65 104.96 48.15 118.16 M 39.06 113.91 C 35.68 121.12 34.85 129.11 34.38 136.96 C 34.83 136.76 35.71 136.35 36.16 136.14 C 37.75 127.34 39.45 118.45 43.06 110.20 C 45.22 105.15 48.60 100.76 51.02 95.85 C 44.78 100.05 42.17 107.42 39.06 113.91 M 182.00 97.86 C 184.03 103.99 187.59 109.51 189.27 115.78 C 190.46 120.07 191.85 124.32 193.92 128.28 C 193.57 117.27 189.64 105.95 182.00 97.86 M 61.35 137.36 C 61.97 128.39 63.34 119.52 64.48 110.61 C 60.74 118.87 59.44 128.46 61.35 137.36 M 166.61 111.50 C 168.19 117.30 170.68 122.92 171.06 128.99 C 171.41 134.17 171.14 139.47 172.75 144.48 C 174.42 136.47 173.47 128.16 171.56 120.28 C 170.79 116.93 168.71 114.13 166.61 111.50 M 209.38 147.00 C 209.09 154.00 205.99 160.44 205.22 167.36 C 209.04 163.55 210.38 158.20 210.84 152.99 C 211.78 142.55 213.89 131.91 211.39 121.52 C 209.65 129.90 210.26 138.52 209.38 147.00 M 160.56 126.76 C 160.22 133.16 160.52 139.57 160.47 145.98 C 160.45 152.76 159.42 159.50 159.58 166.29 C 161.50 161.71 162.30 156.75 162.40 151.80 C 162.54 143.44 163.48 134.79 160.56 126.76 M 187.57 144.47 C 187.00 151.29 187.65 158.15 186.91 164.96 C 186.33 170.48 184.92 175.87 184.47 181.40 C 188.14 176.76 188.29 170.66 188.81 165.03 C 189.35 158.18 190.25 151.01 187.57 144.47 M 64.12 153.89 C 63.76 162.80 65.80 171.56 67.68 180.21 C 68.22 180.40 69.31 180.79 69.86 180.99 C 68.78 175.47 67.31 170.03 66.31 164.50 C 65.26 158.86 66.12 153.13 66.14 147.45 C 65.18 149.49 64.17 151.59 64.12 153.89 M 48.12 161.90 C 49.93 168.67 50.91 176.03 55.35 181.72 C 54.76 177.53 53.67 173.44 52.56 169.37 C 50.96 163.57 50.49 157.54 49.28 151.66 C 47.90 154.88 47.05 158.44 48.12 161.90 M 194.31 179.28 C 192.81 186.92 187.18 192.86 185.25 200.36 C 190.71 194.74 193.06 187.07 195.89 179.95 C 197.97 174.78 198.91 169.20 198.54 163.63 C 196.10 168.53 195.39 173.98 194.31 179.28 M 205.71 187.60 C 203.65 194.50 200.99 201.22 199.36 208.24 C 204.71 200.81 206.19 191.60 209.03 183.09 C 210.75 178.01 212.59 172.95 213.63 167.67 C 209.94 173.85 207.78 180.75 205.71 187.60 M 37.49 181.66 C 37.64 191.92 40.28 202.33 46.00 210.93 C 46.39 210.69 47.17 210.19 47.55 209.94 C 44.28 200.49 41.02 191.02 37.49 181.66 M 98.27 236.65 C 99.42 236.81 100.58 236.98 101.74 237.15 C 100.00 231.10 97.97 225.10 97.11 218.85 C 96.24 213.12 96.34 207.30 96.05 201.53 C 92.73 213.10 95.73 225.23 98.27 236.65 M 138.90 232.75 C 137.98 239.58 134.07 245.38 131.39 251.58 C 133.11 250.32 135.04 249.17 136.10 247.25 C 139.35 241.34 141.81 234.84 141.99 228.02 C 142.24 221.51 143.62 215.09 143.47 208.56 C 139.88 216.11 140.70 224.74 138.90 232.75 Z" />
<path fill="#704f30" opacity="1.00" d=" M 420.90 17.91 C 424.75 15.32 429.38 13.88 434.01 13.72 C 440.59 13.65 445.41 19.18 451.79 20.04 C 461.78 21.44 471.03 25.58 480.63 28.45 C 492.14 32.29 503.30 37.86 512.22 46.21 C 508.29 45.70 504.38 45.03 500.47 44.43 C 506.48 53.71 517.60 58.00 523.76 67.21 C 530.24 77.58 535.58 88.62 542.00 99.03 C 544.34 102.83 546.38 106.80 548.24 110.85 C 545.84 109.93 543.44 109.03 541.06 108.09 C 545.93 117.70 547.56 128.43 548.57 139.04 C 548.91 145.70 548.25 152.36 548.16 159.01 C 547.80 175.01 542.14 190.26 535.82 204.76 C 533.61 209.75 533.47 215.56 530.14 220.07 C 526.07 225.97 522.33 232.16 517.46 237.46 C 511.29 244.34 503.93 249.99 496.76 255.78 C 489.11 261.93 479.96 265.91 470.56 268.52 C 464.84 270.06 458.86 269.67 453.00 269.80 C 443.99 269.83 434.91 270.39 425.99 268.82 C 416.92 267.26 408.15 264.36 399.30 261.89 C 389.21 259.28 379.36 255.49 368.87 254.65 C 370.66 253.59 372.45 252.52 374.25 251.47 C 371.84 248.03 369.11 244.83 366.22 241.79 C 361.70 237.01 358.57 231.17 355.61 225.37 C 351.32 216.89 349.39 207.52 346.37 198.57 C 344.99 194.19 341.10 190.85 340.82 186.09 C 340.44 181.24 340.67 176.36 340.15 171.52 C 338.88 175.08 338.03 178.76 337.17 182.43 C 334.35 174.73 336.99 166.73 337.90 158.96 C 338.99 150.84 337.43 142.49 339.59 134.50 C 342.06 125.18 345.25 116.07 347.65 106.72 C 349.37 99.90 352.91 93.77 355.46 87.26 C 353.89 87.69 352.33 88.12 350.77 88.55 C 353.24 84.82 355.77 81.11 358.75 77.76 C 362.75 73.12 367.60 69.24 371.30 64.33 C 379.39 52.80 391.39 45.02 401.68 35.67 C 405.05 32.46 409.34 30.59 413.25 28.17 C 416.83 25.61 417.21 20.41 420.90 17.91 M 457.16 40.19 C 454.19 38.80 452.51 35.79 450.50 33.36 C 450.06 33.44 449.19 33.60 448.75 33.68 C 448.50 34.27 448.01 35.46 447.77 36.06 C 450.69 39.37 454.05 43.44 459.00 42.95 C 465.34 43.20 469.63 37.67 471.49 32.22 C 467.35 35.70 463.19 40.95 457.16 40.19 M 406.09 52.70 C 408.81 52.66 411.63 53.00 414.28 52.20 C 416.35 51.08 417.83 49.18 419.46 47.53 C 415.90 49.10 412.26 50.52 408.47 51.45 C 409.11 48.74 409.33 45.57 411.62 43.64 C 414.67 40.89 418.18 38.60 420.49 35.12 C 412.35 36.77 405.79 44.25 406.09 52.70 M 439.86 39.03 C 441.98 42.87 444.29 46.61 446.69 50.28 C 445.16 51.86 444.00 54.21 441.77 54.83 C 438.09 54.82 434.86 52.69 431.53 51.42 C 433.33 54.64 435.85 58.23 440.04 58.00 C 445.92 58.81 449.79 52.50 449.43 47.30 C 448.44 42.74 443.56 40.93 439.86 39.03 M 492.19 61.56 C 497.32 71.74 502.94 81.76 506.69 92.56 C 507.51 94.61 508.67 96.50 509.85 98.36 C 509.60 90.95 507.04 83.86 503.62 77.36 C 500.53 71.64 497.66 65.43 492.19 61.56 M 415.93 77.92 C 410.82 87.48 407.40 98.07 407.17 108.98 C 407.69 108.78 408.74 108.38 409.26 108.18 C 409.68 102.16 410.22 96.05 412.29 90.34 C 414.35 84.08 418.20 78.65 420.69 72.58 C 418.90 74.16 417.09 75.80 415.93 77.92 M 369.15 118.16 C 373.01 111.47 374.81 103.90 377.73 96.81 C 379.89 91.45 383.15 86.65 385.54 81.41 C 375.32 90.85 371.65 104.96 369.15 118.16 M 360.68 112.49 C 357.00 120.26 355.32 128.92 355.80 137.51 C 359.22 130.76 359.12 122.94 361.87 115.95 C 363.95 108.63 368.51 102.49 372.02 95.85 C 366.19 99.71 363.61 106.46 360.68 112.49 M 502.99 97.86 C 505.03 103.99 508.59 109.51 510.27 115.78 C 511.46 120.07 512.85 124.33 514.92 128.29 C 514.57 117.27 510.64 105.94 502.99 97.86 M 382.36 137.36 C 382.96 128.38 384.34 119.51 385.48 110.61 C 381.74 118.86 380.44 128.46 382.36 137.36 M 487.60 111.49 C 489.20 117.29 491.67 122.92 492.08 129.00 C 492.42 134.17 492.08 139.47 493.75 144.46 C 495.46 136.46 494.44 128.16 492.57 120.28 C 491.79 116.93 489.71 114.12 487.60 111.49 M 530.38 147.00 C 530.09 154.00 526.99 160.44 526.23 167.37 C 530.58 163.07 531.54 156.84 532.06 151.03 C 532.96 141.24 534.77 131.25 532.40 121.52 C 530.64 129.89 531.27 138.52 530.38 147.00 M 481.56 126.76 C 481.22 133.16 481.52 139.57 481.47 145.98 C 481.45 152.76 480.42 159.50 480.58 166.29 C 482.50 161.70 483.29 156.75 483.40 151.80 C 483.53 143.44 484.49 134.79 481.56 126.76 M 508.57 144.47 C 508.00 151.29 508.65 158.15 507.90 164.96 C 507.33 170.48 505.92 175.87 505.48 181.41 C 509.14 176.76 509.29 170.66 509.81 165.03 C 510.35 158.18 511.25 151.01 508.57 144.47 M 385.12 153.89 C 384.76 162.79 386.79 171.56 388.68 180.20 C 389.22 180.40 390.32 180.80 390.86 180.99 C 389.78 175.47 388.32 170.03 387.31 164.50 C 386.26 158.86 387.12 153.13 387.13 147.45 C 386.19 149.49 385.17 151.59 385.12 153.89 M 369.12 161.89 C 370.94 168.67 371.90 176.03 376.35 181.72 C 375.76 177.53 374.67 173.44 373.56 169.37 C 371.96 163.56 371.49 157.54 370.28 151.66 C 368.89 154.88 368.04 158.44 369.12 161.89 M 512.66 186.64 C 510.26 191.09 507.63 195.46 506.24 200.36 C 511.72 194.74 514.06 187.07 516.89 179.95 C 518.97 174.78 519.91 169.20 519.54 163.63 C 515.76 170.84 516.55 179.47 512.66 186.64 M 524.53 194.42 C 522.99 198.98 521.45 203.55 520.36 208.24 C 525.71 200.81 527.18 191.60 530.04 183.09 C 531.75 178.01 533.59 172.95 534.63 167.67 C 529.69 175.93 527.57 185.39 524.53 194.42 M 358.49 181.66 C 358.63 191.93 361.28 202.33 367.01 210.94 C 367.39 210.68 368.16 210.18 368.54 209.93 C 365.28 200.48 362.02 191.01 358.49 181.66 M 419.27 236.65 C 420.42 236.81 421.57 236.97 422.73 237.14 C 421.00 231.09 418.97 225.10 418.11 218.85 C 417.24 213.11 417.34 207.30 417.05 201.52 C 413.73 213.09 416.73 225.23 419.27 236.65 M 459.90 232.75 C 458.98 239.59 455.07 245.38 452.39 251.58 C 458.63 247.92 460.49 240.24 462.33 233.76 C 463.12 225.37 464.31 216.99 464.46 208.56 C 460.89 216.12 461.70 224.74 459.90 232.75 Z" />
<path fill="#704f30" opacity="1.00" d=" M 742.50 17.50 C 746.54 15.07 751.27 13.60 756.01 13.75 C 761.56 14.11 765.75 18.39 771.05 19.62 C 776.23 20.86 781.57 21.50 786.58 23.41 C 795.12 26.63 804.07 28.74 812.35 32.64 C 819.94 36.08 827.13 40.49 833.22 46.21 C 829.28 45.70 825.38 45.03 821.46 44.44 C 827.48 53.71 838.60 57.99 844.76 67.21 C 851.23 77.58 856.59 88.62 863.00 99.04 C 865.33 102.83 867.38 106.79 869.23 110.84 C 866.83 109.93 864.44 109.02 862.06 108.09 C 867.05 117.99 868.71 129.06 869.62 139.99 C 869.81 146.34 869.26 152.67 869.16 159.01 C 868.80 175.01 863.14 190.26 856.82 204.75 C 854.61 209.75 854.47 215.56 851.14 220.07 C 847.07 225.97 843.34 232.16 838.47 237.45 C 832.29 244.34 824.93 249.99 817.76 255.78 C 810.11 261.93 800.96 265.91 791.56 268.52 C 786.16 269.99 780.52 269.69 774.99 269.80 C 765.09 269.82 755.07 270.49 745.30 268.51 C 734.09 266.30 723.27 262.52 712.23 259.65 C 704.94 257.31 697.51 255.37 689.87 254.66 C 691.65 253.60 693.44 252.53 695.24 251.48 C 692.84 248.02 690.11 244.82 687.22 241.79 C 682.70 237.01 679.56 231.18 676.61 225.37 C 672.33 216.89 670.39 207.52 667.37 198.57 C 665.99 194.19 662.09 190.85 661.83 186.09 C 661.44 181.24 661.67 176.36 661.15 171.53 C 659.88 175.08 659.03 178.76 658.17 182.43 C 655.47 175.04 657.78 167.33 658.79 159.87 C 660.10 151.21 658.30 142.27 660.77 133.76 C 663.36 124.44 666.45 115.27 668.88 105.90 C 670.64 99.39 674.02 93.52 676.46 87.26 C 674.89 87.68 673.33 88.11 671.77 88.54 C 675.93 81.95 680.95 75.95 686.64 70.64 C 691.89 65.82 695.29 59.37 700.63 54.64 C 705.71 50.02 710.87 45.49 716.24 41.22 C 720.32 38.01 723.85 34.07 728.42 31.51 C 730.71 30.12 733.25 29.10 735.30 27.34 C 737.99 24.28 738.79 19.67 742.50 17.50 M 778.18 40.21 C 775.08 38.75 773.35 35.56 771.28 32.99 C 770.38 33.96 769.45 34.90 768.49 35.80 C 771.51 39.17 774.92 43.42 780.00 42.95 C 786.35 43.21 790.63 37.66 792.50 32.21 C 788.34 35.65 784.24 41.10 778.18 40.21 M 727.09 52.70 C 729.81 52.66 732.63 53.01 735.29 52.20 C 737.37 51.09 738.84 49.16 740.45 47.48 C 737.32 48.81 734.29 50.47 730.96 51.22 C 730.59 50.92 729.87 50.32 729.50 50.02 C 730.16 42.86 738.16 40.70 741.48 35.12 C 733.35 36.78 726.79 44.25 727.09 52.70 M 760.86 39.03 C 762.98 42.87 765.29 46.61 767.69 50.29 C 766.16 51.86 764.99 54.20 762.76 54.83 C 759.09 54.82 755.86 52.69 752.53 51.42 C 754.33 54.64 756.85 58.23 761.04 58.00 C 766.91 58.80 770.79 52.50 770.44 47.30 C 769.44 42.75 764.56 40.93 760.86 39.03 M 813.19 61.56 C 816.97 68.61 820.36 75.86 823.95 83.02 C 826.35 88.09 827.50 93.75 830.85 98.36 C 830.61 90.95 828.04 83.86 824.62 77.36 C 821.53 71.64 818.65 65.43 813.19 61.56 M 732.05 88.93 C 729.54 95.32 728.46 102.15 728.17 108.99 C 728.70 108.78 729.74 108.38 730.26 108.18 C 730.68 102.15 731.22 96.05 733.29 90.34 C 735.35 84.08 739.20 78.65 741.69 72.58 C 736.43 76.55 734.40 83.07 732.05 88.93 M 690.15 118.16 C 694.91 109.92 696.53 100.35 700.98 91.98 C 702.83 88.45 704.88 85.03 706.54 81.40 C 696.32 90.85 692.66 104.96 690.15 118.16 M 687.50 101.36 C 680.89 112.19 675.81 124.58 676.79 137.51 C 680.22 130.76 680.11 122.94 682.87 115.95 C 684.95 108.63 689.52 102.49 693.02 95.85 C 690.97 97.46 688.90 99.13 687.50 101.36 M 824.01 97.87 C 826.01 103.72 829.35 109.02 831.03 114.99 C 832.31 119.53 833.70 124.08 835.92 128.28 C 835.56 117.27 831.64 105.96 824.01 97.87 M 703.36 137.36 C 703.97 128.39 705.32 119.52 706.49 110.61 C 702.73 118.86 701.44 128.46 703.36 137.36 M 808.60 111.49 C 810.19 117.29 812.69 122.92 813.06 129.00 C 813.40 134.19 813.15 139.49 814.76 144.51 C 816.39 136.48 815.49 128.17 813.57 120.28 C 812.79 116.93 810.71 114.13 808.60 111.49 M 851.38 146.99 C 851.10 154.00 847.99 160.44 847.22 167.37 C 851.04 163.56 852.38 158.20 852.84 152.98 C 853.78 142.55 855.89 131.90 853.40 121.52 C 851.63 129.89 852.27 138.52 851.38 146.99 M 802.57 126.76 C 802.22 133.16 802.51 139.57 802.46 145.98 C 802.45 152.76 801.42 159.50 801.58 166.29 C 803.50 161.70 804.29 156.75 804.40 151.80 C 804.54 143.44 805.48 134.80 802.57 126.76 M 829.58 144.46 C 828.99 151.29 829.65 158.15 828.90 164.96 C 828.33 170.48 826.91 175.87 826.47 181.41 C 830.14 176.76 830.29 170.66 830.81 165.04 C 831.34 158.19 832.25 151.01 829.58 144.46 M 706.12 153.89 C 705.76 162.79 707.79 171.56 709.68 180.20 C 710.23 180.40 711.32 180.79 711.86 180.99 C 710.78 175.47 709.32 170.03 708.31 164.50 C 707.26 158.86 708.12 153.13 708.14 147.45 C 707.19 149.49 706.17 151.59 706.12 153.89 M 690.12 161.89 C 691.94 168.67 692.90 176.03 697.35 181.72 C 696.76 177.53 695.66 173.44 694.56 169.37 C 692.96 163.56 692.49 157.54 691.28 151.65 C 689.89 154.88 689.04 158.44 690.12 161.89 M 833.66 186.64 C 831.26 191.09 828.63 195.46 827.25 200.36 C 832.87 194.53 835.25 186.59 838.14 179.24 C 840.10 174.28 840.87 168.94 840.54 163.63 C 836.77 170.85 837.55 179.48 833.66 186.64 M 845.53 194.42 C 843.99 198.98 842.45 203.54 841.36 208.24 C 846.71 200.81 848.19 191.60 851.03 183.09 C 852.74 178.01 854.58 172.95 855.63 167.68 C 850.69 175.93 848.57 185.39 845.53 194.42 M 679.49 181.67 C 679.64 191.92 682.27 202.31 687.99 210.91 C 688.38 210.67 689.17 210.20 689.56 209.97 C 686.29 200.51 683.02 191.03 679.49 181.67 M 740.26 236.65 C 741.41 236.81 742.57 236.98 743.73 237.15 C 742.17 231.68 740.36 226.25 739.39 220.64 C 738.24 214.33 738.35 207.90 738.05 201.52 C 734.73 213.09 737.73 225.23 740.26 236.65 M 780.90 232.75 C 779.97 239.58 776.07 245.38 773.39 251.58 C 779.63 247.92 781.49 240.24 783.33 233.75 C 784.12 225.37 785.30 216.98 785.47 208.56 C 781.88 216.11 782.70 224.74 780.90 232.75 Z" />
<path fill="#704f30" opacity="1.00" d=" M 1059.80 21.61 C 1062.49 16.46 1068.72 14.72 1074.05 13.84 C 1078.57 13.04 1082.75 15.28 1086.57 17.40 C 1092.81 20.90 1100.27 20.58 1106.85 23.16 C 1116.33 26.72 1126.28 29.04 1135.38 33.59 C 1142.22 36.86 1148.67 41.02 1154.23 46.21 C 1150.29 45.70 1146.38 45.03 1142.46 44.44 C 1148.48 53.71 1159.60 58.00 1165.76 67.21 C 1171.98 77.16 1177.15 87.75 1183.24 97.78 C 1185.85 101.98 1188.19 106.34 1190.23 110.84 C 1187.83 109.93 1185.43 109.02 1183.06 108.09 C 1188.17 118.29 1189.86 129.72 1190.66 140.99 C 1190.38 155.08 1190.60 169.48 1186.04 183.01 C 1183.15 193.90 1177.29 203.72 1174.80 214.71 C 1173.25 219.40 1169.86 223.13 1167.27 227.25 C 1162.39 234.84 1156.17 241.48 1149.24 247.23 C 1141.83 253.30 1134.60 259.90 1125.71 263.77 C 1118.52 266.88 1110.98 269.79 1103.03 269.71 C 1095.02 269.77 1087.00 270.00 1078.99 269.86 C 1063.73 269.61 1049.41 263.81 1034.81 260.10 C 1026.97 257.69 1019.07 255.37 1010.87 254.65 C 1012.66 253.59 1014.44 252.53 1016.24 251.48 C 1012.23 245.34 1006.31 240.71 1002.58 234.37 C 998.34 227.51 994.84 220.16 992.59 212.39 C 990.30 205.74 989.31 198.49 985.26 192.57 C 980.98 186.40 983.33 178.48 982.15 171.52 C 980.88 175.08 980.02 178.76 979.17 182.43 C 976.35 174.73 978.99 166.73 979.90 158.96 C 980.99 150.84 979.43 142.50 981.58 134.50 C 984.07 125.19 987.25 116.07 989.65 106.73 C 991.37 99.91 994.90 93.77 997.46 87.26 C 995.88 87.69 994.32 88.12 992.77 88.55 C 996.92 81.96 1001.94 75.95 1007.64 70.65 C 1012.72 65.99 1016.04 59.79 1021.11 55.12 C 1028.68 47.97 1036.96 41.64 1044.76 34.75 C 1047.70 32.17 1051.30 30.56 1054.65 28.57 C 1057.35 27.14 1058.29 24.05 1059.80 21.61 M 1099.15 40.19 C 1096.19 38.79 1094.51 35.79 1092.50 33.35 C 1092.06 33.43 1091.19 33.59 1090.75 33.67 C 1090.50 34.27 1090.01 35.46 1089.77 36.06 C 1092.69 39.37 1096.05 43.44 1101.00 42.95 C 1107.34 43.20 1111.62 37.66 1113.50 32.22 C 1109.36 35.71 1105.18 40.95 1099.15 40.19 M 1048.09 52.70 C 1050.81 52.67 1053.63 53.00 1056.29 52.20 C 1058.37 51.10 1059.83 49.16 1061.45 47.48 C 1058.02 49.04 1054.58 50.81 1050.78 51.17 C 1049.92 43.25 1059.10 40.93 1062.48 35.12 C 1054.35 36.78 1047.79 44.25 1048.09 52.70 M 1081.86 39.03 C 1083.98 42.87 1086.29 46.61 1088.69 50.29 C 1087.15 51.86 1085.99 54.21 1083.77 54.83 C 1080.09 54.82 1076.87 52.69 1073.53 51.41 C 1075.11 53.73 1076.45 56.77 1079.43 57.54 C 1082.71 58.50 1086.97 58.12 1089.01 55.00 C 1090.82 52.28 1092.49 48.49 1090.73 45.34 C 1088.77 42.10 1085.07 40.67 1081.86 39.03 M 1134.19 61.56 C 1137.97 68.61 1141.36 75.86 1144.95 83.02 C 1147.34 88.09 1148.50 93.75 1151.85 98.36 C 1151.54 87.65 1146.28 78.02 1140.96 69.03 C 1139.28 66.07 1136.84 63.64 1134.19 61.56 M 1053.05 88.93 C 1050.55 95.32 1049.46 102.15 1049.17 108.98 C 1049.69 108.78 1050.74 108.38 1051.26 108.18 C 1051.68 102.15 1052.21 96.05 1054.29 90.34 C 1056.35 84.08 1060.19 78.64 1062.69 72.58 C 1057.43 76.55 1055.40 83.07 1053.05 88.93 M 1011.15 118.15 C 1015.01 111.46 1016.81 103.90 1019.73 96.81 C 1021.89 91.45 1025.15 86.65 1027.54 81.40 C 1017.32 90.84 1013.65 104.95 1011.15 118.15 M 1008.50 101.37 C 1001.90 112.19 996.81 124.57 997.79 137.50 C 999.30 134.47 1000.27 131.21 1000.84 127.88 C 1001.90 121.82 1003.62 115.86 1006.07 110.20 C 1008.22 105.15 1011.60 100.76 1014.03 95.85 C 1011.97 97.46 1009.90 99.13 1008.50 101.37 M 1145.01 97.88 C 1146.21 101.25 1147.74 104.50 1149.27 107.74 C 1152.46 114.35 1153.35 121.82 1156.92 128.28 C 1156.56 117.27 1152.64 105.96 1145.01 97.88 M 1024.36 137.36 C 1024.97 128.38 1026.32 119.51 1027.49 110.61 C 1023.72 118.85 1022.44 128.46 1024.36 137.36 M 1129.61 111.49 C 1131.20 117.30 1133.69 122.92 1134.06 129.00 C 1134.40 134.18 1134.15 139.48 1135.76 144.49 C 1137.40 136.47 1136.48 128.17 1134.57 120.28 C 1133.79 116.93 1131.71 114.13 1129.61 111.49 M 1172.38 146.99 C 1172.10 154.00 1168.99 160.44 1168.22 167.36 C 1172.59 163.08 1173.53 156.84 1174.06 151.02 C 1174.96 141.24 1176.77 131.25 1174.40 121.52 C 1172.65 129.89 1173.25 138.52 1172.38 146.99 M 1123.57 126.77 C 1123.22 133.17 1123.51 139.58 1123.47 145.99 C 1123.45 152.77 1122.42 159.51 1122.58 166.30 C 1126.01 158.32 1125.38 149.46 1125.63 140.98 C 1125.80 136.16 1125.11 131.34 1123.57 126.77 M 1150.57 144.46 C 1150.00 151.28 1150.65 158.15 1149.91 164.96 C 1149.33 170.48 1147.92 175.87 1147.47 181.41 C 1151.14 176.76 1151.28 170.66 1151.81 165.03 C 1152.35 158.18 1153.24 151.01 1150.57 144.46 M 1027.12 153.88 C 1026.75 162.79 1028.80 171.56 1030.67 180.21 C 1031.22 180.40 1032.31 180.79 1032.86 180.99 C 1031.78 175.47 1030.32 170.03 1029.31 164.49 C 1028.25 158.85 1029.13 153.12 1029.14 147.44 C 1028.17 149.48 1027.15 151.58 1027.12 153.88 M 1011.12 161.89 C 1012.93 168.67 1013.90 176.03 1018.35 181.72 C 1017.52 175.29 1015.16 169.21 1014.14 162.82 C 1013.52 159.10 1013.02 155.35 1012.28 151.65 C 1010.89 154.88 1010.04 158.44 1011.12 161.89 M 1154.66 186.65 C 1152.26 191.09 1149.63 195.46 1148.25 200.36 C 1151.09 197.34 1153.31 193.78 1154.89 189.94 C 1158.36 181.58 1162.42 172.94 1161.54 163.63 C 1157.77 170.85 1158.54 179.48 1154.66 186.65 M 1170.16 182.94 C 1167.70 191.42 1164.45 199.66 1162.36 208.24 C 1167.71 200.81 1169.19 191.60 1172.03 183.09 C 1173.74 178.00 1175.58 172.94 1176.63 167.67 C 1173.82 172.46 1171.79 177.65 1170.16 182.94 M 1000.49 181.67 C 1000.64 191.92 1003.27 202.31 1008.99 210.91 C 1009.38 210.67 1010.17 210.21 1010.56 209.97 C 1007.29 200.51 1004.02 191.03 1000.49 181.67 M 1061.27 236.64 C 1062.41 236.81 1063.57 236.97 1064.73 237.14 C 1063.00 231.10 1060.97 225.10 1060.11 218.85 C 1059.24 213.11 1059.34 207.30 1059.05 201.52 C 1055.74 213.09 1058.72 225.23 1061.27 236.64 M 1101.90 232.75 C 1100.98 239.59 1097.07 245.38 1094.38 251.58 C 1099.45 248.92 1101.19 243.20 1103.12 238.23 C 1105.24 232.52 1104.86 226.34 1105.63 220.39 C 1106.12 216.46 1106.54 212.52 1106.47 208.56 C 1102.89 216.11 1103.69 224.74 1101.90 232.75 Z" />
<path fill="#704f30" opacity="1.00" d=" M 1383.90 17.91 C 1387.75 15.32 1392.38 13.88 1397.02 13.72 C 1401.13 13.58 1404.67 15.93 1408.20 17.72 C 1413.11 20.39 1418.84 20.50 1424.12 22.02 C 1441.97 27.98 1461.24 32.78 1475.22 46.22 C 1471.28 45.70 1467.38 45.03 1463.47 44.44 C 1467.74 51.49 1475.39 55.19 1481.09 60.89 C 1487.99 66.80 1491.26 75.49 1495.90 83.06 C 1500.69 92.50 1506.89 101.17 1511.24 110.84 C 1508.83 109.93 1506.44 109.03 1504.06 108.09 C 1509.17 118.30 1510.86 129.73 1511.66 140.99 C 1511.59 148.98 1511.31 156.98 1510.77 164.95 C 1509.38 178.84 1504.35 192.05 1498.82 204.76 C 1497.64 207.56 1496.92 210.52 1496.16 213.45 C 1494.87 218.71 1491.08 222.77 1488.28 227.25 C 1483.27 235.04 1476.84 241.82 1469.70 247.68 C 1462.65 253.45 1455.77 259.68 1447.38 263.46 C 1440.00 266.72 1432.23 269.77 1424.04 269.71 C 1415.68 269.76 1407.32 270.04 1398.97 269.82 C 1386.35 269.48 1374.34 265.24 1362.30 261.89 C 1352.20 259.28 1342.34 255.47 1331.85 254.67 C 1333.64 253.61 1335.43 252.54 1337.25 251.49 C 1333.38 245.54 1327.70 241.05 1323.98 235.00 C 1319.55 227.95 1315.91 220.39 1313.59 212.39 C 1311.29 205.74 1310.31 198.48 1306.26 192.57 C 1301.98 186.40 1304.32 178.48 1303.15 171.52 C 1301.88 175.08 1301.03 178.76 1300.17 182.43 C 1297.34 174.73 1299.99 166.73 1300.90 158.95 C 1301.99 150.84 1300.43 142.50 1302.58 134.51 C 1305.06 125.19 1308.24 116.07 1310.65 106.73 C 1312.37 99.91 1315.90 93.77 1318.46 87.26 C 1316.88 87.68 1315.32 88.11 1313.77 88.54 C 1317.92 81.95 1322.94 75.95 1328.64 70.64 C 1333.89 65.82 1337.29 59.37 1342.63 54.64 C 1347.71 50.02 1352.87 45.49 1358.24 41.22 C 1362.32 38.01 1365.85 34.07 1370.42 31.50 C 1372.70 30.12 1375.25 29.10 1377.30 27.34 C 1379.86 24.46 1380.63 20.21 1383.90 17.91 M 1420.18 40.21 C 1417.37 38.74 1415.81 35.78 1413.46 33.75 C 1412.13 33.60 1411.23 34.91 1410.20 35.47 C 1413.31 38.93 1416.76 43.42 1422.00 42.95 C 1428.34 43.20 1432.63 37.67 1434.49 32.21 C 1430.33 35.66 1426.23 41.10 1420.18 40.21 M 1369.09 52.70 C 1371.81 52.66 1374.63 53.01 1377.28 52.20 C 1379.34 51.08 1380.82 49.18 1382.45 47.53 C 1378.89 49.11 1375.25 50.52 1371.47 51.46 C 1372.09 48.74 1372.33 45.57 1374.62 43.64 C 1377.66 40.89 1381.18 38.60 1383.49 35.12 C 1375.35 36.77 1368.79 44.25 1369.09 52.70 M 1402.86 39.03 C 1404.98 42.87 1407.29 46.61 1409.69 50.28 C 1408.15 51.86 1406.98 54.20 1404.76 54.83 C 1401.08 54.82 1397.86 52.69 1394.53 51.41 C 1396.33 54.63 1398.85 58.23 1403.04 58.00 C 1408.91 58.81 1412.78 52.50 1412.43 47.30 C 1411.44 42.75 1406.55 40.93 1402.86 39.03 M 1455.18 61.56 C 1458.98 68.61 1462.36 75.86 1465.95 83.02 C 1468.34 88.09 1469.50 93.75 1472.85 98.36 C 1472.61 90.95 1470.03 83.86 1466.62 77.36 C 1463.52 71.63 1460.66 65.42 1455.18 61.56 M 1378.56 78.57 C 1373.69 87.98 1370.37 98.32 1370.17 108.99 C 1370.70 108.79 1371.74 108.38 1372.26 108.17 C 1372.60 103.49 1372.95 98.78 1374.12 94.21 C 1375.89 86.42 1380.59 79.83 1383.70 72.58 C 1381.70 74.31 1379.76 76.18 1378.56 78.57 M 1332.15 118.16 C 1335.47 112.36 1337.33 105.91 1339.61 99.67 C 1341.81 93.21 1345.68 87.55 1348.54 81.40 C 1338.32 90.84 1334.65 104.96 1332.15 118.16 M 1323.07 113.91 C 1319.67 121.12 1318.85 129.12 1318.38 136.97 C 1318.82 136.76 1319.71 136.35 1320.16 136.14 C 1321.55 128.59 1322.94 120.99 1325.63 113.77 C 1327.74 107.30 1331.95 101.86 1335.02 95.85 C 1328.77 100.04 1326.17 107.42 1323.07 113.91 M 1466.01 97.88 C 1468.02 103.72 1471.35 109.02 1473.03 114.99 C 1474.31 119.54 1475.70 124.09 1477.93 128.28 C 1477.56 117.28 1473.64 105.97 1466.01 97.88 M 1345.35 137.36 C 1345.97 128.39 1347.33 119.52 1348.48 110.61 C 1344.74 118.87 1343.44 128.46 1345.35 137.36 M 1450.61 111.49 C 1452.19 117.30 1454.68 122.92 1455.06 128.99 C 1455.40 134.18 1455.14 139.49 1456.77 144.51 C 1457.52 140.44 1457.83 136.28 1457.48 132.15 C 1456.81 124.89 1455.90 117.02 1450.61 111.49 M 1492.28 154.25 C 1491.15 158.60 1489.74 162.88 1489.22 167.37 C 1493.03 163.55 1494.38 158.20 1494.84 152.99 C 1495.78 142.56 1497.89 131.91 1495.40 121.53 C 1493.19 132.30 1494.69 143.50 1492.28 154.25 M 1444.56 126.77 C 1444.22 133.17 1444.51 139.58 1444.47 145.98 C 1444.45 152.76 1443.43 159.50 1443.58 166.29 C 1447.01 158.31 1446.38 149.46 1446.63 140.98 C 1446.80 136.16 1446.10 131.34 1444.56 126.77 M 1471.57 144.47 C 1470.99 151.29 1471.65 158.15 1470.90 164.96 C 1470.33 170.48 1468.92 175.88 1468.48 181.41 C 1472.13 176.76 1472.29 170.67 1472.81 165.03 C 1473.34 158.19 1474.25 151.01 1471.57 144.47 M 1348.12 153.89 C 1347.76 162.80 1349.79 171.56 1351.68 180.21 C 1352.22 180.40 1353.32 180.80 1353.86 181.00 C 1352.78 175.47 1351.31 170.03 1350.31 164.50 C 1349.26 158.85 1350.12 153.12 1350.14 147.44 C 1349.18 149.49 1348.15 151.58 1348.12 153.89 M 1334.56 171.42 C 1335.44 175.14 1337.03 178.67 1339.35 181.72 C 1338.75 177.53 1337.66 173.44 1336.55 169.36 C 1334.96 163.56 1334.49 157.54 1333.28 151.66 C 1329.82 158.03 1333.00 165.01 1334.56 171.42 M 1475.66 186.65 C 1473.26 191.09 1470.63 195.46 1469.24 200.36 C 1472.09 197.34 1474.31 193.78 1475.89 189.94 C 1479.35 181.58 1483.42 172.94 1482.54 163.63 C 1478.77 170.85 1479.54 179.48 1475.66 186.65 M 1490.19 186.04 C 1488.01 193.47 1485.13 200.69 1483.36 208.24 C 1487.06 203.04 1489.02 196.92 1490.70 190.83 C 1492.72 183.02 1496.03 175.59 1497.63 167.67 C 1494.25 173.39 1492.09 179.70 1490.19 186.04 M 1330.00 210.92 C 1330.39 210.68 1331.17 210.19 1331.55 209.95 C 1328.39 200.44 1324.78 191.10 1321.66 181.58 C 1321.39 191.88 1324.36 202.29 1330.00 210.92 M 1382.27 236.65 C 1383.41 236.81 1384.56 236.97 1385.73 237.14 C 1384.00 231.10 1381.97 225.10 1381.11 218.85 C 1380.24 213.11 1380.34 207.30 1380.05 201.52 C 1376.73 213.09 1379.72 225.23 1382.27 236.65 M 1422.89 232.75 C 1421.97 239.59 1418.07 245.38 1415.39 251.58 C 1417.09 250.32 1419.02 249.16 1420.10 247.25 C 1423.35 241.35 1425.80 234.84 1425.99 228.03 C 1426.24 221.51 1427.62 215.09 1427.46 208.56 C 1423.89 216.11 1424.70 224.74 1422.89 232.75 Z" />
<path fill="#704f30" opacity="1.00" d=" M 1704.90 17.91 C 1708.75 15.32 1713.38 13.87 1718.01 13.72 C 1722.12 13.58 1725.67 15.93 1729.20 17.72 C 1734.35 20.51 1740.37 20.53 1745.89 22.23 C 1763.48 28.16 1782.45 32.94 1796.22 46.22 C 1792.28 45.71 1788.37 45.03 1784.46 44.44 C 1788.74 51.49 1796.39 55.19 1802.09 60.89 C 1809.16 66.98 1812.49 75.94 1817.27 83.71 C 1821.94 92.94 1828.02 101.39 1832.24 110.85 C 1829.83 109.93 1827.43 109.03 1825.06 108.09 C 1830.29 118.59 1832.01 130.37 1832.72 141.96 C 1832.59 153.84 1832.87 165.96 1829.65 177.51 C 1827.20 186.33 1824.17 195.01 1820.40 203.36 C 1818.93 206.59 1818.02 210.03 1817.16 213.46 C 1815.87 218.71 1812.08 222.78 1809.27 227.25 C 1804.39 234.84 1798.17 241.47 1791.25 247.22 C 1784.01 253.14 1776.99 259.57 1768.38 263.46 C 1760.70 266.89 1752.56 269.97 1744.02 269.73 C 1732.40 269.61 1720.65 270.75 1709.14 268.67 C 1690.09 265.03 1672.05 257.18 1652.80 254.49 C 1654.61 253.50 1656.44 252.51 1658.29 251.54 C 1654.27 245.37 1648.33 240.73 1644.59 234.38 C 1640.33 227.51 1636.83 220.16 1634.59 212.39 C 1632.30 205.73 1631.30 198.49 1627.26 192.57 C 1622.98 186.40 1625.33 178.48 1624.15 171.52 C 1622.88 175.08 1622.02 178.76 1621.17 182.43 C 1618.35 174.73 1620.99 166.73 1621.90 158.96 C 1622.99 150.84 1621.43 142.50 1623.58 134.51 C 1626.06 125.19 1629.23 116.06 1631.65 106.72 C 1633.53 99.24 1637.60 92.59 1640.20 85.36 C 1638.67 86.15 1637.16 86.93 1635.66 87.71 C 1639.31 81.55 1643.86 75.98 1649.14 71.14 C 1654.63 66.23 1658.13 59.54 1663.63 54.64 C 1668.71 50.02 1673.87 45.49 1679.23 41.22 C 1683.32 38.01 1686.85 34.07 1691.42 31.51 C 1693.70 30.12 1696.25 29.10 1698.31 27.34 C 1700.86 24.46 1701.64 20.21 1704.90 17.91 M 1741.18 40.18 C 1738.05 38.39 1735.94 35.36 1733.54 32.78 C 1732.84 33.86 1732.23 34.98 1731.70 36.13 C 1733.20 37.68 1734.62 39.32 1736.31 40.70 C 1739.99 43.93 1745.92 43.54 1749.77 40.77 C 1752.70 38.75 1754.06 35.33 1755.49 32.22 C 1751.35 35.69 1747.19 40.96 1741.18 40.18 M 1690.09 52.70 C 1692.80 52.66 1695.63 53.00 1698.28 52.20 C 1700.37 51.09 1701.83 49.16 1703.45 47.48 C 1700.31 48.81 1697.28 50.47 1693.95 51.22 C 1693.59 50.92 1692.86 50.33 1692.49 50.03 C 1693.17 42.86 1701.14 40.69 1704.48 35.12 C 1696.35 36.77 1689.79 44.25 1690.09 52.70 M 1723.86 39.03 C 1725.98 42.88 1728.29 46.61 1730.69 50.28 C 1729.15 51.86 1727.99 54.20 1725.76 54.82 C 1722.08 54.82 1718.86 52.69 1715.53 51.42 C 1717.11 53.73 1718.45 56.76 1721.42 57.54 C 1724.70 58.54 1728.97 58.11 1731.01 55.01 C 1732.82 52.28 1734.49 48.49 1732.73 45.34 C 1730.77 42.10 1727.07 40.67 1723.86 39.03 M 1776.19 61.56 C 1779.98 68.61 1783.36 75.86 1786.95 83.02 C 1789.34 88.10 1790.50 93.75 1793.85 98.36 C 1793.60 90.95 1791.04 83.86 1787.62 77.36 C 1784.52 71.64 1781.65 65.44 1776.19 61.56 M 1699.93 77.93 C 1694.82 87.49 1691.38 98.08 1691.18 109.00 C 1691.70 108.79 1692.74 108.38 1693.26 108.17 C 1693.65 102.67 1694.09 97.11 1695.80 91.83 C 1697.77 84.98 1701.98 79.11 1704.70 72.58 C 1702.90 74.16 1701.08 75.80 1699.93 77.93 M 1653.15 118.15 C 1656.34 112.57 1658.20 106.40 1660.34 100.38 C 1662.55 93.66 1666.55 87.77 1669.54 81.40 C 1659.32 90.84 1655.65 104.96 1653.15 118.15 M 1644.68 112.49 C 1641.01 120.27 1639.31 128.92 1639.79 137.50 C 1641.30 134.47 1642.27 131.22 1642.84 127.88 C 1643.89 121.81 1645.62 115.86 1648.07 110.20 C 1650.21 105.15 1653.60 100.76 1656.03 95.85 C 1650.18 99.71 1647.61 106.46 1644.68 112.49 M 1787.01 97.87 C 1789.02 103.71 1792.35 109.02 1794.03 114.99 C 1795.31 119.54 1796.70 124.08 1798.92 128.28 C 1798.57 117.27 1794.64 105.96 1787.01 97.87 M 1666.35 137.35 C 1666.97 128.38 1668.32 119.52 1669.49 110.62 C 1665.74 118.87 1664.44 128.46 1666.35 137.35 M 1771.60 111.49 C 1773.19 117.29 1775.68 122.92 1776.06 129.00 C 1776.39 134.19 1776.16 139.49 1777.76 144.51 C 1778.51 140.44 1778.82 136.28 1778.48 132.15 C 1777.82 124.88 1776.89 117.02 1771.60 111.49 M 1813.28 154.25 C 1812.15 158.59 1810.73 162.88 1810.23 167.36 C 1814.04 163.55 1815.37 158.20 1815.84 152.99 C 1816.78 142.55 1818.88 131.91 1816.40 121.52 C 1814.20 132.29 1815.68 143.49 1813.28 154.25 M 1765.57 126.77 C 1765.21 133.17 1765.51 139.58 1765.47 145.98 C 1765.45 152.76 1764.42 159.51 1764.58 166.29 C 1768.01 158.32 1767.38 149.46 1767.63 140.98 C 1767.80 136.16 1767.11 131.34 1765.57 126.77 M 1792.57 144.46 C 1791.99 151.29 1792.65 158.15 1791.91 164.97 C 1791.33 170.48 1789.91 175.87 1789.47 181.41 C 1793.14 176.76 1793.29 170.66 1793.81 165.03 C 1794.34 158.18 1795.24 151.01 1792.57 144.46 M 1669.12 153.89 C 1668.76 162.80 1670.79 171.56 1672.68 180.21 C 1673.22 180.40 1674.32 180.79 1674.87 180.99 C 1673.78 175.47 1672.31 170.03 1671.31 164.50 C 1670.25 158.86 1671.12 153.13 1671.14 147.45 C 1670.18 149.49 1669.16 151.59 1669.12 153.89 M 1655.55 171.42 C 1656.43 175.14 1658.03 178.67 1660.35 181.72 C 1659.75 177.53 1658.66 173.44 1657.56 169.37 C 1655.96 163.57 1655.49 157.54 1654.27 151.66 C 1650.88 158.04 1654.02 165.01 1655.55 171.42 M 1796.66 186.64 C 1794.26 191.09 1791.63 195.46 1790.25 200.36 C 1793.09 197.34 1795.31 193.78 1796.89 189.95 C 1800.34 181.58 1804.43 172.95 1803.54 163.63 C 1799.76 170.85 1800.54 179.48 1796.66 186.64 M 1811.19 186.04 C 1809.01 193.47 1806.13 200.69 1804.36 208.24 C 1808.06 203.04 1810.02 196.91 1811.70 190.82 C 1813.73 183.02 1817.03 175.59 1818.63 167.67 C 1815.24 173.39 1813.09 179.70 1811.19 186.04 M 1642.49 181.67 C 1642.63 191.93 1645.29 202.33 1651.01 210.94 C 1651.39 210.69 1652.16 210.18 1652.54 209.93 C 1649.28 200.47 1646.02 191.01 1642.49 181.67 M 1703.27 236.64 C 1704.40 236.80 1705.56 236.97 1706.73 237.15 C 1705.00 231.10 1702.97 225.10 1702.11 218.85 C 1701.24 213.12 1701.34 207.31 1701.05 201.53 C 1697.73 213.10 1700.72 225.23 1703.27 236.64 M 1743.90 232.75 C 1742.97 239.59 1739.07 245.38 1736.39 251.58 C 1738.32 250.21 1740.43 248.83 1741.49 246.59 C 1744.30 241.14 1746.65 235.27 1746.91 229.06 C 1747.17 222.20 1748.59 215.43 1748.46 208.56 C 1744.90 216.13 1745.68 224.74 1743.90 232.75 Z" />
</g>
</svg>
