<?xml version="1.0" encoding="UTF-8" ?>
<!DOCTYPE svg PUBLIC "-//W3C//DTD SVG 1.1//EN" "http://www.w3.org/Graphics/SVG/1.1/DTD/svg11.dtd">
<svg width="2397pt" height="105pt" viewBox="0 0 2397 105" version="1.1" xmlns="http://www.w3.org/2000/svg">
<g id="#ffffffff">
<path fill="#ffffff" opacity="1.00" d=" M 15.19 13.69 C 29.14 13.43 43.08 14.85 57.04 14.81 C 68.03 15.45 79.04 15.68 90.05 15.87 C 100.66 16.59 111.30 16.63 121.94 16.88 C 135.61 17.79 149.33 17.48 163.01 18.30 C 184.66 18.61 206.29 19.70 227.95 19.85 C 244.27 20.87 260.65 20.40 276.98 21.31 C 302.69 21.58 328.37 22.73 354.08 22.83 C 370.06 23.58 386.06 23.69 402.06 23.81 C 419.01 24.58 435.98 24.68 452.95 24.82 C 471.98 25.62 491.05 25.63 510.10 25.87 C 524.38 26.57 538.70 26.38 553.00 26.69 C 571.36 26.75 589.70 27.52 608.07 27.56 C 643.74 27.81 679.39 28.87 715.07 28.81 C 742.03 29.63 769.02 29.52 795.99 29.83 C 810.01 29.56 823.99 30.47 838.01 30.36 C 859.35 30.52 880.70 30.70 902.04 30.83 C 912.03 30.92 922.04 30.57 932.02 31.19 C 975.01 31.45 1018.00 31.71 1060.99 31.83 C 1074.33 31.94 1087.69 31.54 1101.02 32.19 C 1234.33 32.62 1367.64 32.72 1500.94 32.18 C 1524.95 31.44 1548.98 32.06 1573.01 31.75 C 1601.03 31.63 1629.04 31.44 1657.06 31.28 C 1697.68 30.35 1738.35 31.03 1778.96 29.82 C 1806.95 29.74 1834.95 29.58 1862.92 28.82 C 1895.29 28.78 1927.64 27.77 1960.01 27.45 C 1970.70 27.49 1981.36 26.69 1992.05 26.79 C 2005.36 26.46 2018.68 26.61 2031.97 25.84 C 2056.00 25.81 2079.99 24.73 2104.02 24.39 C 2196.46 21.85 2288.93 19.22 2381.26 13.63 C 2378.36 36.73 2379.24 60.14 2381.45 83.27 C 2362.10 83.98 2342.77 85.14 2323.41 85.64 C 2311.29 86.58 2299.11 86.22 2286.99 87.06 C 2251.67 88.01 2216.37 89.13 2181.05 89.56 C 2130.72 90.74 2080.33 90.46 2030.01 91.09 C 2016.65 90.86 2003.28 91.51 1989.93 90.81 C 1946.29 90.78 1902.65 90.38 1859.02 90.17 C 1850.66 90.43 1842.33 89.60 1833.99 89.72 C 1763.31 89.12 1692.67 87.46 1622.00 86.21 C 1579.69 85.24 1537.37 84.56 1495.06 83.54 C 1471.35 83.31 1447.67 82.35 1423.96 82.18 C 1384.98 81.11 1345.98 80.64 1307.00 79.64 C 1278.63 79.33 1250.29 78.30 1221.93 78.18 C 1197.83 77.16 1173.70 77.57 1149.60 76.68 C 1114.41 76.37 1079.25 75.37 1044.06 75.17 C 1005.47 74.26 966.85 74.35 928.27 73.64 C 898.86 73.42 869.45 73.07 840.04 73.18 C 824.70 72.48 809.33 72.81 793.98 72.63 C 707.00 72.28 620.03 72.31 533.05 72.76 C 527.04 72.59 521.06 73.28 515.05 73.18 C 491.70 73.08 468.34 73.38 444.98 73.56 C 434.65 73.74 424.31 73.49 414.00 74.11 C 387.99 74.30 361.97 74.37 335.98 75.18 C 313.63 75.15 291.29 75.91 268.96 76.24 C 200.31 77.51 131.68 79.21 63.06 81.26 C 46.65 81.52 30.28 82.59 13.87 82.56 C 13.78 77.34 12.94 72.18 12.77 66.97 C 12.33 49.17 14.36 31.43 15.19 13.69 Z" />
</g>
<g id="#7ab634ff">
<path fill="#7ab634" opacity="1.00" d=" M 2.78 1.11 C 14.50 1.17 26.22 1.38 37.92 2.04 C 90.28 3.70 142.62 5.58 194.99 6.79 C 208.97 7.60 222.99 7.21 236.97 8.09 C 276.64 8.78 316.29 10.13 355.97 10.69 C 375.28 11.67 394.64 11.07 413.95 12.17 C 427.63 12.14 441.32 12.55 455.00 12.68 C 477.96 13.71 500.97 13.04 523.93 14.18 C 541.97 14.15 560.01 14.60 578.05 14.76 C 603.00 15.68 628.00 15.10 652.95 16.08 C 681.61 16.40 710.29 16.35 738.94 17.18 C 766.66 17.22 794.37 17.63 822.09 17.82 C 830.37 18.40 838.67 18.09 846.97 18.18 C 873.00 18.38 899.03 18.56 925.06 18.73 C 997.36 19.73 1069.69 19.26 1141.99 20.17 C 1253.00 20.31 1364.02 20.30 1475.04 20.17 C 1533.35 19.49 1591.70 19.43 1650.02 19.17 C 1678.68 18.47 1707.36 18.59 1736.04 18.26 C 1747.34 18.01 1758.67 18.49 1769.97 17.79 C 1794.32 17.64 1818.67 17.16 1843.02 17.19 C 1869.98 16.10 1897.00 16.66 1923.96 15.70 C 1939.31 15.56 1954.66 15.14 1970.01 15.17 C 1983.66 14.39 1997.34 14.57 2011.01 14.22 C 2125.36 11.79 2239.72 8.92 2353.96 2.98 C 2367.63 2.30 2381.28 0.99 2394.99 1.12 C 2394.41 9.00 2392.87 16.78 2392.48 24.67 C 2390.50 48.05 2392.42 71.53 2394.96 94.79 C 2357.33 96.80 2319.67 98.12 2282.02 99.45 C 2245.69 100.35 2209.37 101.66 2173.02 101.81 C 2134.67 103.13 2096.26 102.41 2057.91 103.20 C 2029.62 103.29 2001.33 103.27 1973.05 103.19 C 1948.36 102.49 1923.65 103.03 1898.95 102.66 C 1774.25 101.79 1649.60 98.89 1524.94 96.48 C 1515.26 96.55 1505.61 95.64 1495.94 95.81 C 1482.65 95.46 1469.34 95.61 1456.07 94.87 C 1427.02 94.67 1398.00 93.56 1368.94 93.28 C 1357.98 92.59 1347.00 92.86 1336.03 92.54 C 1269.00 91.09 1201.96 89.92 1134.93 88.73 C 1119.95 88.40 1104.96 88.61 1090.01 87.82 C 1053.99 87.82 1017.99 86.72 981.97 86.55 C 968.31 86.27 954.64 86.57 941.00 85.92 C 896.34 85.55 851.66 85.55 807.00 84.83 C 730.00 84.74 653.01 84.48 576.01 84.82 C 562.98 84.96 549.94 84.54 536.92 85.11 C 494.27 85.57 451.61 85.45 408.97 86.33 C 385.97 86.65 362.96 86.60 339.97 87.29 C 320.32 87.71 300.66 87.52 281.02 88.32 C 238.02 88.84 195.03 90.18 152.03 90.96 C 140.03 91.63 128.00 91.61 115.99 91.88 C 104.65 92.55 93.28 92.57 81.92 92.86 C 69.63 93.57 57.31 93.56 45.00 93.94 C 31.43 94.91 17.80 94.32 4.25 95.55 C 1.97 86.93 0.92 77.95 1.17 69.02 C 1.31 55.36 0.65 41.66 2.10 28.04 C 2.62 19.07 3.19 10.10 2.78 1.11 M 15.19 13.69 C 14.36 31.43 12.33 49.17 12.77 66.97 C 12.94 72.18 13.78 77.34 13.87 82.56 C 30.28 82.59 46.65 81.52 63.06 81.26 C 131.68 79.21 200.31 77.51 268.96 76.24 C 291.29 75.91 313.63 75.15 335.98 75.18 C 361.97 74.37 387.99 74.30 414.00 74.11 C 424.31 73.49 434.65 73.74 444.98 73.56 C 468.34 73.38 491.70 73.08 515.05 73.18 C 521.06 73.28 527.04 72.59 533.05 72.76 C 620.03 72.31 707.00 72.28 793.98 72.63 C 809.33 72.81 824.70 72.48 840.04 73.18 C 869.45 73.07 898.86 73.42 928.27 73.64 C 966.85 74.35 1005.47 74.26 1044.06 75.17 C 1079.25 75.37 1114.41 76.37 1149.60 76.68 C 1173.70 77.57 1197.83 77.16 1221.93 78.18 C 1250.29 78.30 1278.63 79.33 1307.00 79.64 C 1345.98 80.64 1384.98 81.11 1423.96 82.18 C 1447.67 82.35 1471.35 83.31 1495.06 83.54 C 1537.37 84.56 1579.69 85.24 1622.00 86.21 C 1692.67 87.46 1763.31 89.12 1833.99 89.72 C 1842.33 89.60 1850.66 90.43 1859.02 90.17 C 1902.65 90.38 1946.29 90.78 1989.93 90.81 C 2003.28 91.51 2016.65 90.86 2030.01 91.09 C 2080.33 90.46 2130.72 90.74 2181.05 89.56 C 2216.37 89.13 2251.67 88.01 2286.99 87.06 C 2299.11 86.22 2311.29 86.58 2323.41 85.64 C 2342.77 85.14 2362.10 83.98 2381.45 83.27 C 2379.24 60.14 2378.36 36.73 2381.26 13.63 C 2288.93 19.22 2196.46 21.85 2104.02 24.39 C 2079.99 24.73 2056.00 25.81 2031.97 25.84 C 2018.68 26.61 2005.36 26.46 1992.05 26.79 C 1981.36 26.69 1970.70 27.49 1960.01 27.45 C 1927.64 27.77 1895.29 28.78 1862.92 28.82 C 1834.95 29.58 1806.95 29.74 1778.96 29.82 C 1738.35 31.03 1697.68 30.35 1657.06 31.28 C 1629.04 31.44 1601.03 31.63 1573.01 31.75 C 1548.98 32.06 1524.95 31.44 1500.94 32.18 C 1367.64 32.72 1234.33 32.62 1101.02 32.19 C 1087.69 31.54 1074.33 31.94 1060.99 31.83 C 1018.00 31.71 975.01 31.45 932.02 31.19 C 922.04 30.57 912.03 30.92 902.04 30.83 C 880.70 30.70 859.35 30.52 838.01 30.36 C 823.99 30.47 810.01 29.56 795.99 29.83 C 769.02 29.52 742.03 29.63 715.07 28.81 C 679.39 28.87 643.74 27.81 608.07 27.56 C 589.70 27.52 571.36 26.75 553.00 26.69 C 538.70 26.38 524.38 26.57 510.10 25.87 C 491.05 25.63 471.98 25.62 452.95 24.82 C 435.98 24.68 419.01 24.58 402.06 23.81 C 386.06 23.69 370.06 23.58 354.08 22.83 C 328.37 22.73 302.69 21.58 276.98 21.31 C 260.65 20.40 244.27 20.87 227.95 19.85 C 206.29 19.70 184.66 18.61 163.01 18.30 C 149.33 17.48 135.61 17.79 121.94 16.88 C 111.30 16.63 100.66 16.59 90.05 15.87 C 79.04 15.68 68.03 15.45 57.04 14.81 C 43.08 14.85 29.14 13.43 15.19 13.69 Z" />
</g>
</svg>
