<svg width="1880" height="763" xmlns="http://www.w3.org/2000/svg" xmlns:xlink="http://www.w3.org/1999/xlink" xml:space="preserve" overflow="hidden"><defs><clipPath id="clip0"><rect x="388" y="2443" width="1880" height="763"/></clipPath><clipPath id="clip1"><rect x="1538" y="2840" width="587" height="271"/></clipPath><clipPath id="clip2"><rect x="1538" y="2840" width="587" height="271"/></clipPath><clipPath id="clip3"><rect x="1538" y="2840" width="587" height="271"/></clipPath></defs><g clip-path="url(#clip0)" transform="translate(-388 -2443)"><path d="M866.67 51.5C883.975 48.1084 901.462 44.9959 919.165 44.9829 930.38 45.2087 939.529 52.7637 950.118 55.437 970.506 60.0789 991.403 62.1273 1012.29 62.8456 1016.94 63.0051 1021.65 63.2976 1026.17 64.5744 1043.62 69.3363 1060.98 74.6033 1078.8 77.7688 1093.43 79.6443 1107.94 75.5076 1122.56 75.5344 1134.99 75.8802 1147.34 77.9152 1159.8 77.7952 1179.78 77.6357 1199.07 71.85 1218.67 68.7111 1230.04 67.1284 1241.55 66.6094 1253.04 66.7424 1260.39 66.7025 1266.75 71.85 1274.17 71.4245 1294.54 69.6555 1315.42 65.346 1335.64 70.5333 1341.77 71.7703 1347.73 73.9782 1353.98 74.5635 1360.03 73.7785 1363.46 66.4764 1369.87 66.8624 1382.31 67.4741 1394.47 70.6131 1406.3 74.3638 1414.1 76.8377 1421.65 80.2561 1429.8 81.4263 1440.38 83.2486 1451.14 82.7698 1461.82 82.9293 1468.56 82.73 1474.36 86.6137 1480.43 88.9811 1495.52 95.8577 1512.39 98.1852 1526.85 106.578 1534.19 110.156 1541.7 116.234 1550.4 114.106 1567.17 109.89 1583.96 104.623 1601.41 104.463 1613.83 104.064 1625.39 109.398 1637.39 111.699 1645.2 111.513 1653.19 109.291 1659.6 104.716 1663.14 102.282 1665.49 98.4646 1669.2 96.2701 1683.41 97.2012 1697.46 101.151 1711.78 100.367 1725.24 97.4404 1736.85 89.5265 1749.09 83.5679 1749.82 86.7601 1750.55 89.952 1751.29 93.1576 1756.24 90.9497 1760.99 88.0634 1766.36 86.9595 1773.93 89.0611 1779.8 94.8335 1787.1 97.6531 1788.3 98.3316 1789.57 98.4247 1790.9 97.9325 1797.61 96.1501 1803.59 92.4393 1810.2 90.3778 1818.36 87.8242 1826.71 85.9352 1834.86 83.3417 1837.68 82.3574 1840.65 83.1823 1843.49 83.7143 1850.58 85.3503 1857.97 84.8313 1865.11 86.2147 1874.99 87.6912 1884.56 90.5906 1894.24 93.0246 1912.91 97.5201 1932.26 95.3521 1951.27 96.2299 1947.34 102.84 1941.07 109.438 1942.53 117.764 1944.27 123.376 1948.58 127.633 1951.76 132.461 1958.07 142.144 1963.52 152.399 1970.49 161.656 1978.28 172.07 1978.22 185.717 1978.55 198.126 1978.73 209.166 1983.31 219.593 1989.67 228.438 1983.23 236.405 1979.92 246.261 1977.23 255.997 1974.96 264.31 1970.57 271.905 1964.74 278.236 1968.31 279.473 1971.88 280.75 1975.36 282.253 1972.12 282.465 1968.91 282.625 1965.7 282.825 1961.52 292.148 1957.37 301.578 1955.62 311.727 1965.77 310.836 1975.9 309.439 1986.1 309.066 1976.9 311.966 1966.43 312.578 1958.7 318.896 1957.15 323.511 1960.17 327.927 1963.03 331.292 1967.44 336.719 1973.39 341.587 1974.72 348.821 1976.07 355.726 1977.42 362.668 1978.04 369.69 1976.77 377.763 1971.99 384.854 1971.26 393.075 1978.3 391.758 1985.35 390.48 1992.49 389.734 1989.11 395.546 1985.81 401.468 1981.39 406.561 1978.3 410.084 1975.28 413.689 1972.91 417.745 1974.14 421.804 1976.48 425.341 1979 428.733 1975.13 432.204 1970.41 435.411 1968.91 440.662 1967.19 446.955 1967.35 453.898 1963.84 459.603 1960.53 464.618 1955.43 468.196 1952.37 473.409 1950.21 476.747 1949.54 480.723 1948.59 484.528 1942.88 484.982 1937.16 485.501 1931.46 485.992 1930.55 490.539 1928.62 495.224 1929.8 499.877 1933.26 509.453 1943.65 514.429 1947 524.083 1949.39 531.133 1951.75 538.223 1953.44 545.471 1955.11 551.352 1951.96 557.35 1953.34 563.24 1956.04 569.771 1962.37 573.988 1965.06 580.518 1966.19 587.21 1964.28 594.138 1966.05 600.761 1968.05 606.03 1973.24 608.89 1977.58 612.041 1975.42 616.698 1973.3 621.898 1974.7 627.099 1976.45 633.708 1978.57 640.905 1984.27 645.252 1994.03 652.463 2006.73 654.67 2015.88 662.863 2020.29 666.854 2025.34 670.019 2030.58 672.827 2027.15 672.693 2023.74 672.494 2020.36 672.373 2022.31 676.109 2024.73 679.677 2025.94 683.774 2026.74 689.132 2022.99 694.174 2023.8 699.522 2026.89 705.89 2032.72 710.441 2035.69 716.916 2033.44 723.329 2028.66 728.368 2025.99 734.554 2024.17 738.678 2024.91 743.291 2024.91 747.669 2012.17 744.621 1999.48 741.418 1986.82 738.104 1982.84 736.682 1978.85 738.438 1974.93 738.995 1972.03 739.634 1969.36 737.97 1966.65 737.307 1957.65 734.489 1948.26 737.042 1939.13 737.201 1934.89 737.173 1931.37 734.276 1927.26 733.795 1921.06 733.915 1915 736.922 1908.8 735.338 1896.5 732.451 1884.13 729.766 1872.16 725.707 1868.91 724.725 1865.36 723.037 1862.09 724.804 1854.97 728.076 1848.77 733.039 1841.69 736.335 1837.68 738.239 1833.16 737.84 1828.88 737.919 1817.05 737.891 1805.28 739.634 1793.88 742.693 1788.08 744.398 1782.24 741.923 1776.52 741.057 1774.94 743.466 1773.39 745.886 1771.86 748.319 1765.55 747.841 1759.25 747.23 1752.94 747.456 1748.59 747.642 1744.39 750.316 1740.04 748.852 1731.19 746.697 1722.38 743.93 1713.2 743.916 1702.56 743.93 1691.95 744.875 1681.33 745.673 1670.97 746.577 1660.54 746.951 1650.32 748.958 1644.4 749.848 1638.25 751.354 1632.33 749.769 1619.99 746.803 1607.39 744.741 1594.69 744.329 1584.88 743.999 1577.56 736.204 1568.29 734.169 1564.53 734.699 1560.96 736.111 1557.24 736.761 1549.47 738.159 1541.6 736.829 1533.79 737.094 1527.24 737.72 1521.45 741.232 1514.99 742.215 1509.26 741.803 1504.5 737.96 1498.85 737.201 1494.72 737.52 1491.17 740.421 1487.03 740.339 1472.26 736.163 1458.47 729.021 1443.72 724.831 1439.63 729.461 1435.96 734.42 1432.57 739.582 1425.39 736.056 1418.86 730.976 1411.14 728.729 1398.36 727.955 1385.37 730.777 1374.07 736.84 1369.37 733.011 1364.55 729.275 1359.22 726.374 1353.89 723.487 1347.69 723.621 1341.82 723.14 1330.33 722.491 1318.85 721.758 1307.37 721.198 1300.07 720.669 1293.95 727.079 1286.62 725.536 1272.09 722.064 1257.88 717.342 1244.03 711.795 1245.38 715.228 1246.87 718.621 1248.28 722.037 1236.15 723.659 1223.95 726.281 1211.66 725.109 1193.85 723.023 1176.48 717.861 1158.51 717.17 1150.13 717.782 1143.37 723.621 1135.28 725.378 1113.86 730.75 1092.25 723.302 1070.74 722.717 1060.96 722.171 1052.64 729.327 1042.85 728.663 1033.51 728.302 1024.2 727.598 1014.88 727.426 1003.72 727.213 992.719 729.698 981.573 729.433 969.375 728.715 957.738 724.539 945.716 722.834 930.765 722.982 917.052 730.722 902.142 731.268 892.405 730.67 882.937 727.955 873.214 727.251 864.742 726.361 855.95 727.398 847.877 724.154 841.37 722.518 834.933 718.102 828.032 720.109 809.744 724.831 791.8 731.746 772.78 732.956 759.094 733.664 745.394 734.221 731.708 734.888 710.771 736.362 689.623 731.454 668.847 735.685 666.427 735.898 663.674 737.094 661.506 735.486 656.732 732.678 652.236 729.433 647.648 726.347 646.916 728.78 646.17 731.217 645.438 733.65 638.004 731.44 630.608 729.141 623.16 727.014 623.081 730.736 623.029 734.461 622.947 738.197 606.614 735.578 590.31 732.691 574.029 729.712 563.309 727.464 553.308 733.887 542.667 733.623 532.81 732.293 523.448 728.766 514.096 725.522 510.411 724.285 506.768 722.528 502.792 722.676 480.751 722.013 460.016 730.564 439.267 736.774 435.411 733.822 431.513 730.179 426.406 729.897 415.071 728.873 403.726 727.969 392.449 726.56 387.579 726.147 382.685 725.017 377.818 725.735 371.687 727.519 366.631 731.867 360.393 733.344 351.268 731.746 342.651 728.131 333.806 725.47 329.404 728.502 324.948 732.506 319.255 732.358 302.882 732.705 286.03 733.062 270.561 739.077 267.595 740.088 264.403 741.27 261.224 740.445 248.908 737.586 236.844 733.581 224.302 731.801 217.798 730.763 211.201 730.736 204.683 730.031 211.906 729.406 219.141 728.955 226.377 728.395 224.222 724.646 221.495 721.081 220.524 716.809 221.269 711.822 223.584 707.182 223.956 702.127 224.461 695.93 223.717 689.493 226.057 683.571 227.427 678.969 230.553 674.449 229.383 669.462 228.465 665.352 226.935 661.413 226.244 657.264 230.753 652.064 235.767 647.328 240.502 642.341 237.642 636.34 233.546 630.556 233.12 623.734 233.014 614.554 240.342 607.773 242.51 599.259 243.747 591.533 241.845 583.645 243.202 575.93 244.359 569.372 249.108 563.921 249.507 557.191 249.879 547.853 248.19 538.223 251.369 529.177 255.612 517.103 261.77 505.796 266.372 493.852 270.88 482.442 277.73 472.014 281.441 460.308 276.853 454.747 270.202 451.516 265.387 446.237 263.792 444.653 263.977 442.261 263.805 440.212 263.698 430.396 268.008 420.886 266.451 411.043 265.414 403.489 264.39 395.92 264.191 388.284 264.177 383.764 266.265 379.561 266.491 375.065 263.672 369.49 257.886 366.353 253.005 362.802 253.603 360.3 254.188 357.801 254.787 355.299 252.233 354.103 249.679 352.904 247.139 351.694 252.047 348.611 258.897 346.906 261.011 340.882 263.632 330.441 265.081 319.747 266.837 309.133 268.433 299.011 278.036 291.43 277.052 280.71 275.616 269.79 273.275 258.751 274.711 247.698 276.281 239.611 281.202 231.91 279.765 223.424 277.371 210.083 267.21 200.028 262.74 187.539 262.727 180.263 269.524 174.93 269.218 167.601 268.699 161.244 264.191 156.322 261.464 150.816 257.567 143.793 256.556 135.36 251.355 129.043 247.538 123.563 242.085 118.921 240.236 112.297 238.028 101.218 241.672 89.952 246.793 80.1894 249.241 84.2463 251.276 89.3536 256.33 90.7236 267.875 94.7004 279.752 97.6531 291.443 101.204 295.62 96.7887 299.73 92.1733 304.757 88.702 316.674 88.7683 328.379 93.9024 340.456 92.3197 348.649 91.1759 356.695 88.6353 363.947 84.6052 369.226 81.6659 372.91 76.7446 376.98 72.4219 378.11 76.0795 379.121 79.7904 380.238 83.4613 386.624 83.4215 393.91 85.5761 399.564 81.626 404.379 77.2233 408.197 71.85 412.572 67.0352 419.769 69.7886 426.884 73.9648 434.851 73.4193 441.779 73.0072 448.708 72.7144 455.627 72.1026 462.092 71.5043 464.312 63.0185 470.962 62.7391 482.627 61.4224 494.093 58.7223 505.318 55.2906 509.346 59.9727 513.512 64.5479 517.9 68.8974 525.561 67.0218 531.971 61.3691 540.017 60.9168 548.957 61.3292 557.948 65.1865 566.901 62.6325 584.23 57.7779 601.693 52.6039 619.781 51.8457 639.135 50.9016 657.914 56.5145 677.003 58.6027 684.396 59.5469 689.238 51.3536 696.607 52.0588 714.974 53.4288 733.41 54.8651 751.832 53.668 752.722 55.5435 753.612 57.4187 754.506 59.3076 761.328 57.8975 768.126 55.8494 775.148 55.7429 780.32 58.6426 784.83 62.8456 790.617 64.6012 797.227 66.5829 804.582 69.6686 811.325 66.3702 818.23 64.0558 824.784 58.137 832.459 60.3315 838.432 61.4887 844.285 63.2178 850.19 64.7074 851.479 61.5286 852.145 57.8576 854.63 55.3438 858.304 53.2026 862.587 52.4709 866.67 51.5Z" fill="#E8E8E9" transform="matrix(1 0 0 1.00001 202.413 2429.42)"/><g clip-path="url(#clip1)"><g clip-path="url(#clip2)"><g clip-path="url(#clip3)"><path d="M394.512 13.1301C394.894 13.1534 395.281 13.1768 395.674 13.2044 395.408 13.606 395.022 13.8844 394.563 14.0119 394.55 13.7909 394.524 13.3511 394.512 13.1301Z" fill="#B5C09E" transform="matrix(1 0 0 2.33149 1539.11 2840)"/><path d="M47.9367 7.06758C48.0451 7.05058 48.2618 7.02083 48.3702 7.00596 48.4042 7.26095 48.4382 7.51594 48.4743 7.77094 49.5368 7.51382 50.6375 7.50957 51.7106 7.30982 52.3694 7.17595 53.0345 7.33957 53.6528 7.56694 54.6516 7.94093 55.7076 8.2363 56.5725 8.88441 57.1165 9.4454 57.295 10.2316 57.5755 10.9371 57.8241 11.6553 58.6571 11.8423 59.2606 12.1675 60.4144 12.7412 61.6936 12.2546 62.8624 12.0081 63.5678 12.4012 63.8058 13.2363 64.1501 13.9142 65.1807 13.5699 66.2729 13.3851 67.2312 12.8474 68.1981 12.4139 69.0566 11.7063 70.1105 11.4917 70.7098 11.6638 71.0009 12.3162 71.3813 12.7624 71.6171 12.1993 71.8573 11.6341 72.1016 11.0731 73.3107 11.1454 74.5432 10.9307 75.7353 11.19 77.3099 11.7743 78.8696 12.4033 80.3889 13.1194 81.5513 13.7187 82.7349 12.7391 83.9227 12.7539 85.3592 12.7667 86.8721 12.5499 88.2364 13.1194 89.1331 13.4998 90.1212 13.3298 91.0604 13.4679 91.6639 14.0247 91.7277 14.8959 91.972 15.6354 92.9877 15.5759 94.0098 15.5227 95.0234 15.6672 95.1807 15.1254 95.3358 14.5835 95.4888 14.0395 95.6227 14.031 95.8904 14.0119 96.0243 14.0034 96.139 14.3625 96.2495 14.7216 96.3579 15.0829 98.0345 15.1976 99.6877 14.7578 101.364 14.898 102.161 14.9235 103.024 15.1998 103.753 14.728 104.992 14.0608 106.19 13.3171 107.516 12.8198 108.094 13.1301 108.7 13.3893 109.318 13.6167 109.815 12.9516 110.34 12.261 111.077 11.8445 111.949 11.5193 112.988 11.9125 113.806 11.3855 114.713 10.816 115.54 10.1169 116.228 9.29453 116.726 8.66554 117.646 9.17765 118.277 8.83129 118.763 8.45304 119.133 7.95156 119.513 7.47132 120.58 7.74756 121.662 7.99406 122.665 8.46154 123.487 8.95028 124.282 8.06205 125.121 8.21505 126.407 8.94816 127.397 10.0978 128.604 10.9414 129.256 10.9477 129.864 10.6694 130.459 10.4314 130.708 10.7204 130.956 11.0157 131.199 11.3132 131.815 11.0816 132.454 10.9201 133.103 10.8075 133.215 11.0944 133.332 11.3812 133.451 11.6681 134.346 10.9244 135.276 10.2083 136.294 9.64514 137.503 9.3604 138.513 10.6439 139.739 10.3612 140.604 9.82789 140.767 8.74629 140.99 7.84106 142.236 7.92181 143.468 8.1768 144.656 8.55504 145.453 8.76116 145.946 9.45602 146.468 10.0361 146.823 9.81726 147.18 9.58989 147.578 9.44965 148.457 9.28815 149.384 9.74926 150.24 9.3604 151.052 9.01616 151.913 8.80579 152.792 8.71441 153.708 8.64429 154.454 7.99618 155.363 7.89418 156.041 7.83256 156.662 8.16618 157.263 8.43392 157.737 8.1428 158.228 7.87506 158.725 7.62007 158.836 7.97918 158.94 8.3383 159.044 8.69954 161.551 8.92691 164.016 8.30642 166.481 7.95793 167.348 7.88993 168.219 7.84318 169.076 7.66256 170.026 7.45857 170.958 7.81981 171.904 7.87931 173.33 7.98981 174.777 7.72631 176.192 8.02168 176.849 8.16618 177.525 8.07055 178.188 8.15343 178.719 8.4488 178.772 9.1564 178.997 9.66852 179.805 9.4794 180.631 9.35402 181.466 9.3859 182.822 9.4199 184.18 9.33065 185.538 9.31152 186.281 9.3604 186.713 8.63367 187.238 8.2278 188.139 8.84616 188.904 9.63452 189.641 10.4356 190.404 9.90014 191.097 9.2754 191.749 8.60817 192.25 9.32852 192.539 10.2295 193.27 10.7671 194.992 11.326 196.604 10.3336 198.037 9.49852 198.674 10.0128 199.191 10.7671 200.002 11.0115 201.602 11.1071 203.245 11.2282 204.805 10.7671 206.175 11.0306 207.484 11.5958 208.891 11.6872 209.909 11.7318 210.874 12.0697 211.857 12.2928 212.493 11.9847 212.877 11.3472 213.355 10.85 213.817 10.2593 214.465 9.86614 215.113 9.50914 215.198 9.75989 215.285 10.0128 215.374 10.2656 217.168 10.5865 217.093 12.9707 218.491 13.7909 219.112 13.7952 219.72 13.5997 220.344 13.6315 220.973 13.6719 221.564 13.9503 222.195 13.98 222.637 13.7399 223.015 13.4021 223.415 13.0982 223.797 13.4233 224.163 13.7675 224.528 14.116 225.293 13.6995 225.81 12.9919 226.292 12.2886 226.577 12.5011 226.857 12.7306 227.168 12.9133 228.054 12.108 228.789 11.1581 229.573 10.2571 230.219 10.2359 230.882 10.2848 231.515 10.1211 232.068 9.74289 232.442 9.16278 232.979 8.76329 233.942 8.62304 234.898 8.92691 235.863 8.93328 238.581 9.00766 241.241 8.19805 243.963 8.28517 244.273 9.02466 244.558 10.0191 245.474 10.1764 246.228 10.3103 246.747 10.9605 247.497 11.0986 248.137 11.2729 248.865 11.292 249.392 11.7552 250.24 12.4734 251.303 12.8432 252.285 13.3341 252.824 13.5805 253.336 13.8972 253.91 14.0672 255.128 12.9154 255.848 11.2431 257.412 10.4654 258.147 9.78539 258.763 10.9222 259.509 11.0157 260.776 11.071 262.07 10.6566 263.321 11.0115 263.753 11.1199 263.963 11.5533 264.25 11.8551 264.605 11.8147 264.962 11.7701 265.321 11.7297 266.014 12.8687 266.228 14.439 267.52 15.102 267.977 15.3443 268.555 15.7097 269.067 15.3761 270.232 14.7216 271.199 13.7782 272.323 13.0599 272.574 12.8347 272.901 13.0387 273.188 13.0769 273.209 13.5147 272.948 14.0629 273.307 14.4178 273.54 14.7386 273.97 14.6855 274.322 14.7131 275.816 14.7259 277.31 14.6366 278.806 14.711 279.367 14.7046 279.987 14.7875 280.495 14.4773 280.88 14.2393 281.075 13.81 281.32 13.4445 282.612 13.487 283.891 13.3128 285.177 13.2108 286.107 13.1194 287.2 13.7463 287.994 13.0323 289.346 12.125 290.289 10.7629 291.562 9.76626 292.193 9.22865 292.909 9.96601 293.5 10.2231 294.042 10 294.567 9.69401 295.157 9.60264 295.827 9.66639 296.418 10.034 297.064 10.1976 298.094 10.4845 299.199 10.2975 300.213 10.6651 301.528 11.0561 302.544 12.023 303.713 12.6966 304.645 13.2852 305.657 13.7335 306.596 14.3158 307.227 13.844 307.911 13.4424 308.54 12.9643 309.099 12.6052 308.948 11.8466 309.106 11.2877 309.75 11.2431 310.036 11.7701 310.215 12.3056 310.534 12.0633 310.814 11.598 311.275 11.7127 312.149 11.9741 312.867 12.7603 313.829 12.7157 314.877 12.5861 315.899 12.2971 316.923 12.0378 317.869 11.8253 318.844 11.972 319.805 11.9677 321.069 11.8508 322.153 11.1156 323.149 10.3825 323.173 10.7374 323.198 11.0901 323.226 11.445 323.965 11.3111 324.684 11.0922 325.421 10.9392 326.177 10.7629 326.862 11.3026 327.603 11.3239 328.479 11.1496 329.316 10.816 330.153 10.5079 330.523 10.7565 330.867 11.0689 331.303 11.2006 331.974 11.1624 332.62 10.8542 333.3 10.9116 333.944 11.4301 334.435 12.1037 334.945 12.7476 336.012 12.3842 336.911 11.6915 337.854 11.0922 338.047 11.4981 338.239 11.9061 338.421 12.3205 339.62 11.6532 340.78 10.9116 342.025 10.3315 342.078 10.7947 342.134 11.258 342.191 11.7212 342.854 11.445 343.502 11.0412 344.246 11.0497 345.279 11.0412 346.197 11.6065 347.214 11.7021 348.598 11.8721 349.934 12.2695 351.309 12.4904 353.3 12.8156 355.185 13.6039 357.159 13.9992 358.3 13.4934 359.118 12.4309 360.353 12.0952 360.372 12.5287 360.393 12.9643 360.419 13.3978 361.513 13.2406 362.629 13.0854 363.736 13.2427 364.437 13.4148 365.049 13.827 365.678 14.1755 366.755 13.4785 367.882 14.3647 368.957 14.5984 370.438 14.898 371.959 15.2295 373.477 15.0085 374.747 14.8385 376.037 14.8236 377.297 14.5708 378.156 14.3285 379.025 14.1224 379.913 14.0055 380.748 13.8589 381.656 13.7845 382.353 13.2469 383.088 12.6987 383.776 12.0357 384.673 11.7531 385.767 11.3982 386.838 10.8649 388.016 10.8649 388.927 10.867 389.839 10.8606 390.753 10.9031 392.036 10.952 392.918 12.0676 394.131 12.3587 395.353 12.6711 396.577 13.0642 397.652 13.7484 398.169 14.082 398.579 14.5623 399.121 14.8619 400.138 14.9788 401.018 14.2584 402.019 14.2223 402.54 14.1309 402.699 14.7514 402.994 15.0574 404.18 14.8598 405.332 14.5028 406.513 14.2712 406.586 14.7174 406.664 15.1615 406.758 15.6035 407.503 15.459 408.234 15.2359 408.972 15.0361 409.021 15.4378 409.074 15.8372 409.135 16.2389 410.952 15.646 412.829 15.2741 414.658 14.728 415.338 14.5325 415.948 14.0799 416.673 14.0395 417.291 14.2287 417.771 14.7046 418.302 15.0638 418.492 14.507 418.549 13.7697 419.125 13.4594 420.198 13.2788 421.294 13.4127 422.38 13.4084 423.228 14.9639 424.303 16.5363 425.95 17.3226 427.106 17.9006 428.377 18.2151 429.626 18.5253 430.517 18.7739 431.63 18.4934 432.325 19.2329 432.38 19.5538 432.376 19.8789 432.391 20.204 433.63 20.5886 434.943 20.5695 436.207 20.8287 436.815 20.493 437.14 19.8236 437.631 19.3498 438.547 19.4008 438.953 20.5738 439.886 20.697 441.243 20.2996 442.331 19.2924 443.694 18.9035 444.716 18.5806 445.774 19.0714 446.809 18.8568 447.351 18.6592 447.822 18.3107 448.32 18.0174 448.574 18.2214 448.834 18.4297 449.097 18.6379 450.234 17.9877 451.388 17.3608 452.448 16.5831 453.016 16.7616 453.626 17.2397 454.233 16.9252 455.079 16.6277 455.946 16.054 456.881 16.3324 457.682 16.5278 458.596 16.8593 458.919 17.7008 459.316 18.6422 460.204 19.2903 461.139 19.6388 461.647 19.4497 462.085 19.1139 462.589 18.9014 463.594 18.4318 464.741 18.5784 465.797 18.2937 466.86 18.0961 468.054 17.8517 469.051 18.4169 469.713 18.7357 470.294 19.2435 471.016 19.4412 471.488 19.422 471.586 18.9163 471.719 18.5593 472.461 18.5104 473.207 18.4871 473.953 18.5593 475.109 18.6995 476.265 18.4424 477.425 18.538 477.712 18.2979 477.992 18.0408 478.32 17.8432 478.857 18.1619 479.325 18.5806 479.826 18.9588 480.451 18.6698 481.067 18.3596 481.681 18.0387 481.949 18.5444 482.212 19.0523 482.47 19.5665 483.951 19.4645 485.451 19.2733 486.832 18.6995 487.529 18.3999 487.982 17.7603 488.415 17.1653 489.41 17.8092 490.379 18.5019 491.464 18.9949 492.053 18.5487 492.64 18.0961 493.211 17.6222 494.133 17.9622 495.107 18.1237 496.044 18.4233 496.624 18.5784 497.212 18.7697 497.824 18.776 498.759 18.3766 499.193 17.3438 500.058 16.853 501.362 16.802 502.238 17.8559 503.235 18.5019 504.233 18.6592 505.185 18.1513 506.18 18.1067 506.112 18.5189 506.046 18.9333 505.974 19.3455 507.004 18.5593 508.254 19.1713 509.388 19.3009 510.872 19.4773 512.374 19.5368 513.838 19.8704 515.247 19.6898 516.38 18.5168 517.844 18.5041 518.868 18.4722 519.93 18.4658 520.908 18.8249 521.923 19.32 522.71 20.1488 523.536 20.901 524.467 19.8831 525.374 18.7994 526.552 18.0514 527.771 17.2928 529.306 18.0217 530.572 17.4076 531.201 17.1462 531.745 16.7127 532.376 16.4492 533.409 16.1454 534.512 16.173 535.536 15.8075 536.824 15.5227 537.999 14.9129 539.142 14.269 539.718 13.878 540.481 14.0459 541.005 14.4496 542.274 15.3974 542.871 16.955 544.074 17.9707 545.211 18.895 546.269 19.9809 547.646 20.5483 548.124 20.7714 548.696 20.8585 549.085 21.2495 549.546 21.6978 549.932 22.2163 550.323 22.7284 550.357 22.4926 550.4 22.2567 550.447 22.023 551.896 21.7085 553.307 21.1772 554.52 20.3081 555.838 19.4645 556.97 18.2958 558.466 17.7561 558.368 18.2278 558.256 18.6932 558.12 19.1522 559.112 19.9469 560.245 20.5398 561.341 21.1815 561.498 22.3821 561.112 23.5296 560.77 24.6579 560.946 25.9817 562.106 26.9996 562.189 28.3574 562.17 29.6664 560.901 30.5036 560.731 31.768 560.672 33.3766 559.786 34.779 558.821 36.0051 560.105 35.9584 561.333 35.4208 562.633 35.5419 563.275 35.5929 563.902 35.4186 564.539 35.3358 562.757 36.5087 560.479 36.2771 558.445 36.3005 558.634 36.7977 558.915 37.2758 558.997 37.8092 558.885 38.7378 558.449 39.5814 558.12 40.4441 557.782 41.1943 557.529 41.9954 557.07 42.6796 556.233 42.8305 555.408 42.5096 554.588 42.414 554.592 42.9601 554.609 43.5083 554.629 44.0544 555.207 44.2074 555.736 44.5092 556.039 45.0489 555.287 45.3379 554.208 45.0765 553.77 45.9031 552.875 47.1887 551.991 48.4977 550.865 49.5984 550.075 50.3889 549.877 51.53 549.563 52.5564 549.369 53.1386 549.276 53.7442 549.212 54.3519 549.741 54.2861 550.277 54.2244 550.816 54.1734 550.377 55.0468 549.858 55.9393 549.833 56.9422 550.062 58.2937 550.377 59.6728 551.141 60.8352 551.913 62.1505 553.109 63.1195 554.133 64.2244 554.575 64.7344 555.272 64.8152 555.859 65.0893 556.649 65.4633 557.342 66.0094 558.105 66.4408 558.776 66.9465 559.573 66.343 560.289 66.2495 560.268 67.1845 560.064 68.2873 560.808 69.0226 561.626 69.7089 562.563 70.2508 563.36 70.9733 563.105 71.1518 562.861 71.326 562.612 71.4939 563.207 71.6596 563.808 71.8296 564.401 72.0273 564.416 73.111 564.116 74.2478 564.507 75.2954 564.648 75.6885 564.924 76.0264 565.309 76.2092 566.267 76.7765 567.3 77.1973 568.328 77.6265 568.22 78.0069 568.118 78.3872 568.02 78.7676 568.681 78.9631 569.337 79.1756 569.996 79.4008 568.787 80.2189 567.44 80.8139 566.012 81.122 564.788 81.5683 563.502 81.802 562.204 81.8509 562.455 82.1463 562.71 82.4374 562.971 82.7327 561.348 83.7676 559.439 84.1926 557.657 84.8598 557.499 85.9669 557.223 87.0868 556.556 88.0047 555.606 89.318 554.038 89.9937 552.525 90.4144 552.589 91.5045 552.552 92.6074 552.283 93.6699 551.745 93.8165 551.216 93.9695 550.687 94.1203 550.812 95.3847 550.833 96.7255 550.255 97.8943 549.648 99.1288 549.136 100.404 548.783 101.736 548.379 101.305 548.118 100.774 547.886 100.242 547.474 100.336 547.062 100.438 546.662 100.544 546.779 101.073 546.855 101.687 547.355 102.012 547.654 102.369 548.356 102.656 548.167 103.215 547.909 104.18 547.548 105.234 548.092 106.175 548.73 107.376 548.339 108.744 548.513 110.021 548.779 111.099 549.361 112.066 549.66 113.132 549.881 113.819 549.38 114.626 548.674 114.751 547.563 115.047 546.409 115.164 545.266 115.168 544.505 115.166 543.702 115.223 543.024 114.832 541.9 114.159 540.54 114.741 539.365 114.25 537.895 113.627 536.137 113.676 534.767 114.52 534.631 114.227 534.499 113.933 534.374 113.642 533.249 113.819 532.17 114.165 531.116 114.581 530.795 114.086 530.476 113.593 530.166 113.098 529.939 113.258 529.726 113.432 529.495 113.572 529.072 113.468 528.691 113.249 528.281 113.134 527.841 113.273 527.448 113.515 527.045 113.721 526.877 113.366 526.722 113.011 526.564 112.658 526.22 112.879 525.889 113.12 525.519 113.281 524.828 112.665 524.344 111.806 523.528 111.345 522.773 111.216 522.123 111.689 521.486 112.002 521.282 111.906 521.086 111.813 520.895 111.719 520.844 111.366 520.797 111.016 520.759 110.665 519.252 111.428 517.659 112.18 515.938 112.182 515.005 112.151 514.299 111.426 513.419 111.216 512.988 111.477 512.674 111.881 512.268 112.165 511.26 112.14 510.345 111.628 509.348 111.553 508.011 111.454 506.675 111.339 505.351 111.152 505.041 111.462 504.733 111.772 504.425 112.078 502.841 111.175 502.147 109.439 501.222 107.971 500.823 108.729 500.315 109.441 499.658 109.998 499.484 110.179 499.167 110.066 499.136 109.828 498.804 109.133 498.623 108.304 497.954 107.839 496.586 107.522 495.16 107.45 493.77 107.652 493.337 107.741 492.992 107.418 492.65 107.223 491.651 106.532 490.398 106.483 489.265 106.152 489.371 107.057 489.384 107.969 489.361 108.878 488.647 108.691 487.963 108.4 487.251 108.222 486.452 108.547 485.935 109.409 485.073 109.586 483.56 109.564 481.994 109.426 480.538 109.928 479.862 110.138 479.218 110.431 478.562 110.686 477.633 109.917 476.719 109.131 475.795 108.357 475.049 108.595 474.257 108.61 473.483 108.617 473.292 109.49 473.054 110.359 472.612 111.143 471.923 110.971 471.235 110.678 470.519 110.731 469.622 110.971 468.921 111.624 468.077 111.968 467.325 112.049 466.713 111.258 465.95 111.492 464.24 111.959 462.576 112.61 460.84 112.99 459.448 113.241 458.377 114.53 456.892 114.341 456.569 114.354 456.356 114.095 456.173 113.88 455.353 113.829 454.533 113.891 453.719 113.829 453.343 113.806 452.969 113.651 452.786 113.311 452.159 112.389 451.511 111.468 450.672 110.727 450.404 111.02 450.138 111.313 449.871 111.602 449.49 111.42 449.114 111.235 448.74 111.056 447.918 111.864 447.348 112.873 446.792 113.87 444.728 113.787 442.646 114.023 440.606 113.619 439.144 113.466 437.788 112.739 436.309 112.735 435.536 112.992 435.022 113.689 434.286 114.016 433.944 113.986 433.628 113.821 433.381 113.598 432.338 112.675 431.299 111.687 430.03 111.088 428.29 111.148 426.628 111.751 424.941 112.121 424.155 112.28 423.402 112.561 422.648 112.818 422.459 112.401 422.28 111.981 422.117 111.56 420.744 111.471 419.369 111.568 417.999 111.513 417.147 111.502 416.8 110.595 416.443 109.972 415.85 110.125 415.283 110.41 414.671 110.427 414.382 110.259 414.131 110.04 413.874 109.843 411.207 111.337 408.056 110.232 405.209 110.895 404.429 110.988 404.067 111.783 403.54 112.261 403.109 112.059 402.686 111.853 402.266 111.647 401.736 112.27 400.889 112.195 400.158 112.274 399.756 112.297 399.356 112.367 398.961 112.31 398.409 112.042 398.003 111.562 397.508 111.218 396.849 110.752 396.184 110.291 395.644 109.688 394.658 110.155 393.577 109.936 392.559 109.726 392.618 110.323 392.455 110.897 392.151 111.409 391.488 111.118 390.823 110.799 390.104 110.689 389.429 110.597 388.789 110.884 388.152 111.039 387.195 111.271 386.218 111.42 385.238 111.437 384.439 111.381 383.766 110.901 383.107 110.502 382.408 111.271 381.781 112.136 380.94 112.752 378.36 112.193 375.682 112.686 373.081 112.267 371.747 112.095 370.398 112.197 369.059 112.17 369.14 111.239 369.344 110.325 369.55 109.414 368.919 109.564 368.298 109.745 367.673 109.904 367.55 109.467 367.438 109.029 367.333 108.589 366.83 108.959 366.33 109.331 365.842 109.713 365.268 109.354 364.92 108.768 364.671 108.158 363.927 108.489 363.128 108.517 362.346 108.328 361.802 108.171 361.345 108.576 360.833 108.642 360.136 108.661 359.397 108.479 358.761 108.848 356.891 109.76 354.794 110.055 352.733 110.023 351.758 109.958 350.869 110.397 349.975 110.708 349.393 110.905 348.821 111.228 348.521 111.787 348.098 112.389 347.833 113.396 346.919 113.319 345.453 113.113 344.021 112.569 342.801 111.723 342.325 111.471 341.845 111.005 341.267 111.154 340.073 111.345 338.872 111.541 337.661 111.522 336.539 111.53 335.374 111.383 334.303 111.802 333.128 112.216 331.866 112.257 330.636 112.187 330.351 112.157 330.041 112.157 329.82 111.959 328.889 111.071 328.347 109.613 327.019 109.246 326.211 109.435 325.478 109.845 324.705 110.132 324.019 109.511 323.398 108.827 322.758 108.164 322.527 107.839 322.132 108.071 321.823 108.103 320.997 108.326 320.136 108.272 319.295 108.332 319.254 108.736 319.28 109.142 319.284 109.55 318.385 108.797 317.557 107.933 316.469 107.446 314.435 106.434 312.34 105.187 309.985 105.306 309.388 104.32 308.494 103.574 307.537 102.954 307.263 103.251 307.01 103.57 306.702 103.829 305.833 104.012 304.966 103.646 304.095 103.691 303.577 103.67 303.188 104.057 302.775 104.307 302.68 103.969 302.591 103.634 302.506 103.298 301.996 103.264 301.49 103.236 300.984 103.207 300.551 102.548 299.945 102.036 299.22 101.726 298.861 102.061 298.5 102.393 298.135 102.716 297.304 102.437 296.432 102.274 295.561 102.223 294.269 102.191 293.026 102.586 291.787 102.892 291.067 103.06 290.565 103.661 289.894 103.935 288.719 104.354 287.474 104.577 286.224 104.55 284.732 104.516 283.693 105.788 282.34 106.199 281.63 106.26 280.984 105.856 280.283 105.835 277.612 105.837 275.353 107.556 272.741 107.839 272.274 108.166 271.989 108.678 271.626 109.105 271.08 108.717 270.536 108.33 269.981 107.958 269.694 108.5 269.405 109.04 269.091 109.564 269.021 108.776 269.076 107.977 268.942 107.195 268.309 106.126 266.894 105.899 265.767 106.152 264.892 106.284 264.218 106.889 263.466 107.295 262.544 107.051 261.862 106.315 260.978 105.99 260.361 105.669 259.809 106.252 259.28 106.492 258.451 107.063 257.408 106.811 256.473 106.849 255.17 106.762 253.984 107.391 252.72 107.576 251.647 107.803 250.551 107.644 249.469 107.714 248.944 107.72 248.574 108.141 248.124 108.345 247.404 108.279 246.792 107.797 246.069 107.739 244.543 107.616 243.007 107.843 241.488 107.631 240.308 107.448 239.078 107.503 237.947 107.901 236.52 108.517 235.247 109.53 233.712 109.873 232.882 109.741 232.049 109.386 231.203 109.649 229.694 110.07 228.149 109.656 226.632 109.533 225.393 109.433 224.142 109.101 222.907 109.414 222.828 110.128 222.784 110.844 222.82 111.562 222.527 111.553 222.236 111.545 221.947 111.541 221.775 111.039 221.6 110.54 221.418 110.045 221.218 110.147 221.02 110.251 220.825 110.357 220.784 110.742 220.748 111.128 220.714 111.515 218.61 111.607 216.517 111.428 214.422 111.305 213.821 111.264 213.383 110.797 212.856 110.565 212.478 110.536 212.121 110.708 211.77 110.82 209.958 111.545 207.843 111.853 206.007 111.033 204.662 110.582 203.449 109.484 201.947 109.715 200.837 109.964 200.691 111.271 200.021 112.015 199.388 111.63 198.761 111.075 197.975 111.114 197.503 111.073 196.987 111.173 196.562 110.922 195.557 110.366 194.667 109.56 193.538 109.258 192.216 109.101 190.865 109.278 189.554 108.995 188.649 108.81 187.788 108.347 186.849 108.385 186.211 108.736 185.837 109.611 185.015 109.545 183.404 109.584 181.804 109.977 180.191 109.773 180.143 110.13 180.094 110.485 180.045 110.844 179.511 110.54 179.048 110.134 178.621 109.703 177.187 110.015 175.72 110.062 174.271 109.843 174.386 109.726 174.503 109.609 174.624 109.494 173.083 109.201 171.904 108.115 170.593 107.346 169.928 106.932 169.235 106.564 168.555 106.179 168.283 106.366 168.026 106.575 167.737 106.734 167.314 106.825 166.879 106.726 166.454 106.715 166.369 107.029 166.286 107.344 166.205 107.661 165.198 108.079 164.135 108.355 163.045 108.413 163.111 108.931 163.158 109.45 163.185 109.972 161.919 109.554 161.126 108.001 159.658 108.239 158.285 108.353 156.925 108.606 155.544 108.557 154.828 108.519 154.248 109.008 153.581 109.169 152.788 109.246 151.993 108.91 151.207 109.12 150.582 109.233 150.006 109.539 149.378 109.618 147.153 109.414 145.153 107.886 142.86 108.217 140.786 108.498 138.647 108.459 136.645 107.803 136.624 108.232 136.602 108.659 136.579 109.091 136.084 108.946 135.601 108.776 135.121 108.598 134.664 108.842 134.22 109.229 133.672 109.19 132.62 109.137 131.56 108.734 130.51 109.023 129.594 109.216 128.842 109.826 127.947 110.064 127.533 109.862 127.206 109.53 126.864 109.233 126.575 109.777 126.292 110.325 126.003 110.869 124.547 110.565 123.035 110.587 121.583 110.907 121.375 110.58 121.173 110.251 120.98 109.921 120.098 110.017 119.129 110.187 118.334 109.679 116.753 108.81 115.066 108.179 113.366 107.595 113.149 107.826 112.947 108.073 112.703 108.275 112.106 108.442 111.481 108.228 110.876 108.215 110.136 108.149 109.452 108.612 108.71 108.474 107.151 108.36 105.686 107.769 104.267 107.153 103.778 106.987 103.222 106.645 102.722 106.97 101.585 107.654 100.179 107.726 98.9121 107.423 97.839 107.04 96.9125 106.271 95.7566 106.12 93.5955 105.869 91.4195 105.765 89.2436 105.808 87.2376 105.659 85.4824 106.806 83.5487 107.112 83.5678 107.597 83.5827 108.081 83.5785 108.568 83.043 108.334 82.5117 108.098 81.9763 107.871 81.8573 108.542 81.785 109.222 81.7128 109.902 80.9563 109.645 80.2402 109.271 79.4624 109.082 78.009 109.307 77.0485 111.041 75.4824 110.74 75.4654 110.317 75.4484 109.894 75.4335 109.471 74.4709 109.734 73.5317 110.117 72.5394 110.247 71.598 110.145 70.7247 109.713 69.7897 109.558 68.3235 109.261 66.7956 109.388 65.3528 109.743 64.9491 109.996 64.7429 110.457 64.4582 110.822 63.7846 110.465 63.3107 109.858 62.7264 109.388 61.9954 109.048 61.139 109.152 60.3932 108.861 59.5262 108.287 58.9057 107.367 57.9218 106.968 56.1964 106.303 54.2861 107.029 52.5542 106.396 51.1199 106.043 49.7429 105.487 48.4658 104.743 48.1428 104.539 47.8135 104.314 47.6031 103.989 47.5563 103.487 47.6668 102.986 47.6881 102.486 47.3396 102.618 46.9911 102.752 46.6405 102.879 46.4152 101.222 47.9176 99.9873 48.0281 98.3894 48.026 97.2313 47.329 96.1985 46.4514 95.4994 45.765 94.9639 45.0595 94.4582 44.371 93.927 44.7217 93.2682 45.153 92.5904 45.0808 91.8105 45.0872 90.6971 44.5092 89.6962 44.3965 88.604 44.2946 87.703 44.8279 86.9295 45.0893 86.1072 45.4144 85.2636 45.6524 84.3498 46.2538 83.6507 46.819 82.9431 47.5457 82.3481 47.9282 81.5067 48.3978 80.4952 48.9418 79.5219 49.5559 78.5912 48.7081 77.1059 47.8475 75.3783 48.3638 73.6316 48.8334 72.3715 48.7038 71.0051 48.6719 69.6898 48.5976 68.536 47.941 67.4884 48.0323 66.3111 48.1131 64.9087 47.8326 63.5317 47.3906 62.21 46.7 62.0634 45.9966 61.8828 45.4123 61.4726 44.8768 60.9456 44.5283 60.2253 43.8781 59.8258 43.2724 59.5304 42.6286 59.3179 41.9826 59.1267 41.2899 58.9248 40.68 59.4433 40.0702 59.6813 40.2933 58.7123 40.6843 57.754 40.5993 56.7383 40.5185 55.6843 40.2911 54.6324 40.4186 53.5721 40.629 51.7765 40.7098 49.9512 40.4293 48.1577 40.2444 46.9699 40.1892 45.7459 39.7514 44.6133 39.5432 44.0502 39.0969 43.6252 38.7378 43.1556 38.1853 43.3574 37.6222 43.5232 37.0527 43.6677 37.4968 42.6371 38.3277 41.5194 37.7858 40.3676 37.0187 40.5568 36.2197 40.5886 35.4463 40.4059 35.7416 40.0468 36.0455 39.6962 36.3472 39.3434 36.0923 39.0927 35.8373 38.8398 35.5886 38.5827 36.7807 37.4777 38.2363 36.7085 39.6898 36.003 39.3052 35.6566 38.9397 35.289 38.5954 34.9044 39.7663 34.0268 41.5342 33.8568 42.2461 32.4565 42.8517 31.4896 42.0485 30.4484 41.9699 29.4475 41.6851 27.2121 40.6418 25.153 40.4038 22.9091 40.2996 22.0697 40.6035 21.2601 40.6396 20.4293 40.5461 19.813 40.1275 19.3179 39.898 18.7527 39.439 17.8113 39.7132 16.7042 39.303 15.748 39.1054 15.2571 38.8908 14.7641 38.5699 14.3392 38.0748 13.6868 37.1781 13.6847 36.4641 13.4445 37.346 12.3566 38.3723 11.2474 39.779 10.884 41.02 10.5419 42.1292 9.80876 43.4106 9.61327 44.2775 9.47515 45.1445 9.86614 46.003 9.70251 46.9571 9.1054 47.5648 8.10668 47.9367 7.06758M394.512 13.1301C394.524 13.3511 394.55 13.7909 394.563 14.0119 395.022 13.8844 395.408 13.606 395.674 13.2044 395.281 13.1768 394.894 13.1534 394.512 13.1301Z" fill="#FFFFFF" transform="matrix(1 0 0 2.33149 1539.11 2840)"/></g></g></g></g></svg>