<svg width="605" height="325" xmlns="http://www.w3.org/2000/svg" xmlns:xlink="http://www.w3.org/1999/xlink" xml:space="preserve" overflow="hidden"><defs><clipPath id="clip0"><rect x="0" y="0" width="605" height="325"/></clipPath></defs><g clip-path="url(#clip0)"><path d="M2639.59 185.499C2775.24 165.152 2988.09 199.214 3051.26 185.499 3054.2 155.604 3057.51 138.111 3051.26 115.748 3092.94 144.875 3162.37 249.422 3190.81 255.249 3169.68 269.687 3115.63 335.877 3051.26 394.751 3054.05 378.148 3051.18 333.704 3051.26 325 2879.73 341.647 2767.95 309.855 2639.59 325 2634.29 262.153 2637.7 246.99 2639.59 185.499Z" stroke="#82170E" stroke-width="15.5525" stroke-miterlimit="8" fill="none" fill-rule="evenodd" transform="matrix(1.0004 0 0 1 -2610.1 -92.7494)"/><text fill="#82170E" font-family="Ink Free,Ink Free_MSFontService,sans-serif" font-weight="700" font-size="165" transform="matrix(0.754364 0 0 0.75406 75.9645 198)">weiter</text></g></svg>