<svg width="1187" height="399" xmlns="http://www.w3.org/2000/svg" xmlns:xlink="http://www.w3.org/1999/xlink" xml:space="preserve" overflow="hidden"><defs><clipPath id="clip0"><rect x="1604" y="925" width="1187" height="399"/></clipPath><clipPath id="clip1"><rect x="1712" y="926" width="110" height="110"/></clipPath><clipPath id="clip2"><rect x="1712" y="926" width="110" height="110"/></clipPath><clipPath id="clip3"><rect x="1712" y="926" width="110" height="110"/></clipPath><clipPath id="clip4"><rect x="1607" y="926" width="109" height="110"/></clipPath><clipPath id="clip5"><rect x="1607" y="926" width="109" height="110"/></clipPath><clipPath id="clip6"><rect x="1607" y="926" width="109" height="110"/></clipPath><clipPath id="clip7"><rect x="1929" y="926" width="110" height="110"/></clipPath><clipPath id="clip8"><rect x="1929" y="926" width="110" height="110"/></clipPath><clipPath id="clip9"><rect x="1929" y="926" width="110" height="110"/></clipPath><clipPath id="clip10"><rect x="1822" y="926" width="110" height="110"/></clipPath><clipPath id="clip11"><rect x="1822" y="926" width="110" height="110"/></clipPath><clipPath id="clip12"><rect x="1822" y="926" width="110" height="110"/></clipPath><clipPath id="clip13"><rect x="2035" y="926" width="109" height="110"/></clipPath><clipPath id="clip14"><rect x="2035" y="926" width="109" height="110"/></clipPath><clipPath id="clip15"><rect x="2035" y="926" width="109" height="110"/></clipPath><clipPath id="clip16"><rect x="2359" y="927" width="111" height="110"/></clipPath><clipPath id="clip17"><rect x="2359" y="927" width="111" height="110"/></clipPath><clipPath id="clip18"><rect x="2359" y="927" width="111" height="110"/></clipPath><clipPath id="clip19"><rect x="2252" y="927" width="110" height="110"/></clipPath><clipPath id="clip20"><rect x="2252" y="927" width="110" height="110"/></clipPath><clipPath id="clip21"><rect x="2252" y="927" width="110" height="110"/></clipPath><clipPath id="clip22"><rect x="2576" y="927" width="110" height="110"/></clipPath><clipPath id="clip23"><rect x="2576" y="927" width="110" height="110"/></clipPath><clipPath id="clip24"><rect x="2576" y="927" width="110" height="110"/></clipPath><clipPath id="clip25"><rect x="2469" y="927" width="111" height="110"/></clipPath><clipPath id="clip26"><rect x="2469" y="927" width="111" height="110"/></clipPath><clipPath id="clip27"><rect x="2469" y="927" width="111" height="110"/></clipPath><clipPath id="clip28"><rect x="2681" y="927" width="110" height="110"/></clipPath><clipPath id="clip29"><rect x="2681" y="927" width="110" height="110"/></clipPath><clipPath id="clip30"><rect x="2681" y="927" width="110" height="110"/></clipPath><clipPath id="clip31"><rect x="1712" y="1068" width="110" height="109"/></clipPath><clipPath id="clip32"><rect x="1712" y="1068" width="110" height="109"/></clipPath><clipPath id="clip33"><rect x="1712" y="1068" width="110" height="109"/></clipPath><clipPath id="clip34"><rect x="1607" y="1068" width="109" height="109"/></clipPath><clipPath id="clip35"><rect x="1607" y="1068" width="109" height="109"/></clipPath><clipPath id="clip36"><rect x="1607" y="1068" width="109" height="109"/></clipPath><clipPath id="clip37"><rect x="1929" y="1068" width="110" height="109"/></clipPath><clipPath id="clip38"><rect x="1929" y="1068" width="110" height="109"/></clipPath><clipPath id="clip39"><rect x="1929" y="1068" width="110" height="109"/></clipPath><clipPath id="clip40"><rect x="1822" y="1068" width="110" height="109"/></clipPath><clipPath id="clip41"><rect x="1822" y="1068" width="110" height="109"/></clipPath><clipPath id="clip42"><rect x="1822" y="1068" width="110" height="109"/></clipPath><clipPath id="clip43"><rect x="2035" y="1068" width="109" height="109"/></clipPath><clipPath id="clip44"><rect x="2035" y="1068" width="109" height="109"/></clipPath><clipPath id="clip45"><rect x="2035" y="1068" width="109" height="109"/></clipPath><clipPath id="clip46"><rect x="2359" y="1070" width="111" height="110"/></clipPath><clipPath id="clip47"><rect x="2359" y="1070" width="111" height="110"/></clipPath><clipPath id="clip48"><rect x="2359" y="1070" width="111" height="110"/></clipPath><clipPath id="clip49"><rect x="2252" y="1070" width="110" height="110"/></clipPath><clipPath id="clip50"><rect x="2252" y="1070" width="110" height="110"/></clipPath><clipPath id="clip51"><rect x="2252" y="1070" width="110" height="110"/></clipPath><clipPath id="clip52"><rect x="2576" y="1070" width="110" height="110"/></clipPath><clipPath id="clip53"><rect x="2576" y="1070" width="110" height="110"/></clipPath><clipPath id="clip54"><rect x="2576" y="1070" width="110" height="110"/></clipPath><clipPath id="clip55"><rect x="2469" y="1070" width="111" height="110"/></clipPath><clipPath id="clip56"><rect x="2469" y="1070" width="111" height="110"/></clipPath><clipPath id="clip57"><rect x="2469" y="1070" width="111" height="110"/></clipPath><clipPath id="clip58"><rect x="2681" y="1070" width="110" height="110"/></clipPath><clipPath id="clip59"><rect x="2681" y="1070" width="110" height="110"/></clipPath><clipPath id="clip60"><rect x="2681" y="1070" width="110" height="110"/></clipPath><clipPath id="clip61"><rect x="1712" y="1212" width="110" height="110"/></clipPath><clipPath id="clip62"><rect x="1712" y="1212" width="110" height="110"/></clipPath><clipPath id="clip63"><rect x="1712" y="1212" width="110" height="110"/></clipPath><clipPath id="clip64"><rect x="1607" y="1212" width="109" height="110"/></clipPath><clipPath id="clip65"><rect x="1607" y="1212" width="109" height="110"/></clipPath><clipPath id="clip66"><rect x="1607" y="1212" width="109" height="110"/></clipPath><clipPath id="clip67"><rect x="1822" y="1212" width="110" height="110"/></clipPath><clipPath id="clip68"><rect x="1822" y="1212" width="110" height="110"/></clipPath><clipPath id="clip69"><rect x="1822" y="1212" width="110" height="110"/></clipPath></defs><g clip-path="url(#clip0)" transform="translate(-1604 -925)"><g clip-path="url(#clip1)"><g clip-path="url(#clip2)"><g clip-path="url(#clip3)"><path d="M1789.56 940.012C1794.09 939.023 1797.75 942.995 1801.13 945.419 1805.92 949.693 1811.63 953.092 1815.46 958.327 1819.09 963.619 1816.87 970.331 1814.23 975.523 1811.04 982.192 1804.29 985.807 1798.77 990.296 1784.38 1001.11 1772.72 1015.02 1758.45 1025.98 1755.77 1027.84 1752.68 1030.75 1749.17 1029.36 1740.88 1026.42 1734.33 1020.14 1728.22 1014.05 1725.15 1010.6 1720.66 1005.99 1723.34 1001.05 1727.74 988.675 1738.84 981.074 1748.07 972.511 1758.36 963.103 1769.75 955.014 1780.47 946.108 1783.33 943.87 1786.12 941.36 1789.56 940.012M1780.24 948.689C1773.12 954.498 1765.78 960.005 1758.82 966.015 1766.64 974.075 1775.04 981.576 1784.28 987.958 1794.29 978.205 1805.32 969.514 1814.67 959.102 1807.28 952.906 1800.86 945.075 1791.9 941.117 1787.49 942.723 1783.88 945.835 1780.24 948.689M1792.87 981.404C1790.06 983.928 1786.99 986.323 1785.05 989.622 1783.85 992.547 1784.15 995.832 1783.82 998.93 1792.57 993.322 1800.89 986.954 1808.43 979.797 1813.29 975.351 1814.79 968.711 1815.83 962.486 1807.06 967.363 1800.5 975.064 1792.87 981.404M1731.62 990.554C1737.67 998.485 1744.48 1006.46 1753.53 1011.01 1755.88 1012.37 1758.11 1010.22 1760 1009.07 1768.09 1002.99 1775.12 995.674 1782.7 989.005 1774.27 981.547 1765.62 974.319 1757.58 966.43 1748.9 974.448 1739.75 981.949 1731.62 990.554M1725.61 1007.89C1731.17 1016.36 1739.59 1022.45 1748.02 1027.83 1750.07 1022.98 1752.17 1018.13 1754.31 1013.31 1745.33 1007.69 1737.91 1000.09 1730.77 992.361 1728.43 997.123 1722.92 1002.26 1725.61 1007.89M1758.82 1011.92C1753.55 1015.9 1751.9 1022.58 1750.65 1028.7 1761.69 1021.7 1771.47 1012.86 1780.44 1003.4 1783.68 1000.58 1782.47 995.99 1782.76 992.232 1774.27 998.169 1766.88 1005.47 1758.82 1011.92Z" fill="#000000" fill-rule="nonzero" fill-opacity="1"/><path d="M1780.24 948.689C1783.88 945.835 1787.49 942.723 1791.9 941.117 1800.86 945.075 1807.28 952.906 1814.67 959.102 1805.32 969.514 1794.29 978.205 1784.28 987.958 1775.04 981.576 1766.64 974.075 1758.82 966.015 1765.78 960.005 1773.12 954.498 1780.24 948.689Z" fill="#00A2E8" fill-rule="nonzero" fill-opacity="1"/><path d="M1792.87 981.404C1800.5 975.064 1807.06 967.363 1815.83 962.486 1814.79 968.711 1813.29 975.351 1808.43 979.797 1800.89 986.954 1792.57 993.322 1783.82 998.93 1784.15 995.832 1783.85 992.547 1785.05 989.622 1786.99 986.323 1790.06 983.928 1792.87 981.404Z" fill="#00A2E8" fill-rule="nonzero" fill-opacity="1"/><path d="M1731.62 990.554C1739.75 981.949 1748.9 974.448 1757.58 966.43 1765.62 974.319 1774.27 981.547 1782.7 989.005 1775.12 995.674 1768.09 1002.99 1760 1009.07 1758.11 1010.22 1755.88 1012.37 1753.53 1011.01 1744.48 1006.46 1737.67 998.485 1731.62 990.554Z" fill="#FFB3D9" fill-rule="nonzero" fill-opacity="1"/><path d="M1725.61 1007.89C1722.92 1002.26 1728.43 997.123 1730.77 992.361 1737.91 1000.09 1745.33 1007.69 1754.31 1013.31 1752.17 1018.13 1750.07 1022.98 1748.02 1027.83 1739.59 1022.45 1731.17 1016.36 1725.61 1007.89Z" fill="#FFB3D9" fill-rule="nonzero" fill-opacity="1"/><path d="M1758.82 1011.92C1766.88 1005.47 1774.27 998.169 1782.76 992.232 1782.47 995.99 1783.68 1000.58 1780.44 1003.4 1771.47 1012.86 1761.69 1021.7 1750.65 1028.7 1751.9 1022.58 1753.55 1015.9 1758.82 1011.92Z" fill="#FFB3D9" fill-rule="nonzero" fill-opacity="1"/></g></g></g><g clip-path="url(#clip4)"><g clip-path="url(#clip5)"><g clip-path="url(#clip6)"><path d="M1683.56 940.012C1688.09 939.023 1691.75 942.995 1695.13 945.419 1699.92 949.693 1705.63 953.092 1709.46 958.327 1713.09 963.619 1710.87 970.331 1708.23 975.523 1705.04 982.192 1698.29 985.807 1692.77 990.296 1678.38 1001.11 1666.72 1015.02 1652.45 1025.98 1649.77 1027.84 1646.68 1030.75 1643.17 1029.36 1634.88 1026.42 1628.33 1020.14 1622.22 1014.05 1619.15 1010.6 1614.66 1005.99 1617.34 1001.05 1621.74 988.675 1632.84 981.074 1642.07 972.511 1652.36 963.103 1663.75 955.014 1674.47 946.108 1677.33 943.87 1680.12 941.36 1683.56 940.012M1674.24 948.689C1667.12 954.498 1659.78 960.005 1652.82 966.015 1660.64 974.075 1669.04 981.576 1678.28 987.958 1688.29 978.205 1699.32 969.514 1708.67 959.102 1701.28 952.906 1694.86 945.075 1685.9 941.117 1681.49 942.723 1677.88 945.835 1674.24 948.689M1686.87 981.404C1684.06 983.928 1680.99 986.323 1679.05 989.622 1677.85 992.547 1678.15 995.832 1677.82 998.93 1686.57 993.322 1694.89 986.954 1702.43 979.797 1707.29 975.351 1708.79 968.711 1709.83 962.486 1701.06 967.363 1694.5 975.064 1686.87 981.404M1625.62 990.554C1631.67 998.485 1638.48 1006.46 1647.53 1011.01 1649.88 1012.37 1652.11 1010.22 1654 1009.07 1662.09 1002.99 1669.12 995.674 1676.7 989.005 1668.27 981.547 1659.62 974.319 1651.58 966.43 1642.9 974.448 1633.75 981.949 1625.62 990.554M1619.61 1007.89C1625.17 1016.36 1633.59 1022.45 1642.02 1027.83 1644.07 1022.98 1646.17 1018.13 1648.31 1013.31 1639.33 1007.69 1631.91 1000.09 1624.77 992.361 1622.43 997.123 1616.92 1002.26 1619.61 1007.89M1652.82 1011.92C1647.55 1015.9 1645.9 1022.58 1644.65 1028.7 1655.69 1021.7 1665.47 1012.86 1674.44 1003.4 1677.68 1000.58 1676.47 995.99 1676.76 992.232 1668.27 998.169 1660.88 1005.47 1652.82 1011.92Z" fill="#000000" fill-rule="nonzero" fill-opacity="1"/><path d="M1674.24 948.689C1677.88 945.835 1681.49 942.723 1685.9 941.117 1694.86 945.075 1701.28 952.906 1708.67 959.102 1699.32 969.514 1688.29 978.205 1678.28 987.958 1669.04 981.576 1660.64 974.075 1652.82 966.015 1659.78 960.005 1667.12 954.498 1674.24 948.689Z" fill="#00A2E8" fill-rule="nonzero" fill-opacity="1"/><path d="M1686.87 981.404C1694.5 975.064 1701.06 967.363 1709.83 962.486 1708.79 968.711 1707.29 975.351 1702.43 979.797 1694.89 986.954 1686.57 993.322 1677.82 998.93 1678.15 995.832 1677.85 992.547 1679.05 989.622 1680.99 986.323 1684.06 983.928 1686.87 981.404Z" fill="#00A2E8" fill-rule="nonzero" fill-opacity="1"/><path d="M1625.62 990.554C1633.75 981.949 1642.9 974.448 1651.58 966.43 1659.62 974.319 1668.27 981.547 1676.7 989.005 1669.12 995.674 1662.09 1002.99 1654 1009.07 1652.11 1010.22 1649.88 1012.37 1647.53 1011.01 1638.48 1006.46 1631.67 998.485 1625.62 990.554Z" fill="#FFB3D9" fill-rule="nonzero" fill-opacity="1"/><path d="M1619.61 1007.89C1616.92 1002.26 1622.43 997.123 1624.77 992.361 1631.91 1000.09 1639.33 1007.69 1648.31 1013.31 1646.17 1018.13 1644.07 1022.98 1642.02 1027.83 1633.59 1022.45 1625.17 1016.36 1619.61 1007.89Z" fill="#FFB3D9" fill-rule="nonzero" fill-opacity="1"/><path d="M1652.82 1011.92C1660.88 1005.47 1668.27 998.169 1676.76 992.232 1676.47 995.99 1677.68 1000.58 1674.44 1003.4 1665.47 1012.86 1655.69 1021.7 1644.65 1028.7 1645.9 1022.58 1647.55 1015.9 1652.82 1011.92Z" fill="#FFB3D9" fill-rule="nonzero" fill-opacity="1"/></g></g></g><g clip-path="url(#clip7)"><g clip-path="url(#clip8)"><g clip-path="url(#clip9)"><path d="M2005.56 940.012C2010.09 939.023 2013.75 942.995 2017.13 945.419 2021.92 949.693 2027.63 953.092 2031.46 958.327 2035.09 963.619 2032.87 970.331 2030.23 975.523 2027.04 982.192 2020.29 985.807 2014.77 990.296 2000.38 1001.11 1988.72 1015.02 1974.45 1025.98 1971.77 1027.84 1968.68 1030.75 1965.17 1029.36 1956.88 1026.42 1950.33 1020.14 1944.22 1014.05 1941.15 1010.6 1936.66 1005.99 1939.34 1001.05 1943.74 988.675 1954.84 981.074 1964.07 972.511 1974.36 963.103 1985.75 955.014 1996.47 946.108 1999.33 943.87 2002.12 941.36 2005.56 940.012M1996.24 948.689C1989.12 954.498 1981.78 960.005 1974.82 966.015 1982.64 974.075 1991.04 981.576 2000.28 987.958 2010.29 978.205 2021.32 969.514 2030.67 959.102 2023.29 952.906 2016.86 945.075 2007.9 941.117 2003.49 942.723 1999.88 945.835 1996.24 948.689M2008.87 981.404C2006.06 983.928 2002.99 986.323 2001.05 989.622 1999.85 992.547 2000.15 995.832 1999.82 998.93 2008.57 993.322 2016.89 986.954 2024.43 979.797 2029.29 975.351 2030.79 968.711 2031.83 962.486 2023.06 967.363 2016.5 975.064 2008.87 981.404M1947.62 990.554C1953.67 998.485 1960.48 1006.46 1969.53 1011.01 1971.88 1012.37 1974.11 1010.22 1976 1009.07 1984.09 1002.99 1991.12 995.674 1998.7 989.005 1990.27 981.547 1981.62 974.319 1973.58 966.43 1964.9 974.448 1955.75 981.949 1947.62 990.554M1941.61 1007.89C1947.17 1016.36 1955.59 1022.45 1964.02 1027.83 1966.07 1022.98 1968.17 1018.13 1970.31 1013.31 1961.33 1007.69 1953.91 1000.09 1946.77 992.361 1944.43 997.123 1938.92 1002.26 1941.61 1007.89M1974.82 1011.92C1969.55 1015.9 1967.9 1022.58 1966.65 1028.7 1977.69 1021.7 1987.47 1012.86 1996.44 1003.4 1999.68 1000.58 1998.47 995.99 1998.76 992.232 1990.27 998.169 1982.88 1005.47 1974.82 1011.92Z" fill="#000000" fill-rule="nonzero" fill-opacity="1"/><path d="M1996.24 948.689C1999.88 945.835 2003.49 942.723 2007.9 941.117 2016.86 945.075 2023.29 952.906 2030.67 959.102 2021.32 969.514 2010.29 978.205 2000.28 987.958 1991.04 981.576 1982.64 974.075 1974.82 966.015 1981.78 960.005 1989.12 954.498 1996.24 948.689Z" fill="#00A2E8" fill-rule="nonzero" fill-opacity="1"/><path d="M2008.87 981.404C2016.5 975.064 2023.06 967.363 2031.83 962.486 2030.79 968.711 2029.29 975.351 2024.43 979.797 2016.89 986.954 2008.57 993.322 1999.82 998.93 2000.15 995.832 1999.85 992.547 2001.05 989.622 2002.99 986.323 2006.06 983.928 2008.87 981.404Z" fill="#00A2E8" fill-rule="nonzero" fill-opacity="1"/><path d="M1947.62 990.554C1955.75 981.949 1964.9 974.448 1973.58 966.43 1981.62 974.319 1990.27 981.547 1998.7 989.005 1991.12 995.674 1984.09 1002.99 1976 1009.07 1974.11 1010.22 1971.88 1012.37 1969.53 1011.01 1960.48 1006.46 1953.67 998.485 1947.62 990.554Z" fill="#FFB3D9" fill-rule="nonzero" fill-opacity="1"/><path d="M1941.61 1007.89C1938.92 1002.26 1944.43 997.123 1946.77 992.361 1953.91 1000.09 1961.33 1007.69 1970.31 1013.31 1968.17 1018.13 1966.07 1022.98 1964.02 1027.83 1955.59 1022.45 1947.17 1016.36 1941.61 1007.89Z" fill="#FFB3D9" fill-rule="nonzero" fill-opacity="1"/><path d="M1974.82 1011.92C1982.88 1005.47 1990.27 998.169 1998.76 992.232 1998.47 995.99 1999.68 1000.58 1996.44 1003.4 1987.47 1012.86 1977.69 1021.7 1966.65 1028.7 1967.9 1022.58 1969.55 1015.9 1974.82 1011.92Z" fill="#FFB3D9" fill-rule="nonzero" fill-opacity="1"/></g></g></g><g clip-path="url(#clip10)"><g clip-path="url(#clip11)"><g clip-path="url(#clip12)"><path d="M1899.56 940.012C1904.09 939.023 1907.75 942.995 1911.13 945.419 1915.92 949.693 1921.63 953.092 1925.46 958.327 1929.09 963.619 1926.87 970.331 1924.23 975.523 1921.04 982.192 1914.29 985.807 1908.77 990.296 1894.38 1001.11 1882.72 1015.02 1868.45 1025.98 1865.77 1027.84 1862.68 1030.75 1859.17 1029.36 1850.88 1026.42 1844.33 1020.14 1838.22 1014.05 1835.15 1010.6 1830.66 1005.99 1833.34 1001.05 1837.74 988.675 1848.84 981.074 1858.07 972.511 1868.36 963.103 1879.75 955.014 1890.47 946.108 1893.33 943.87 1896.12 941.36 1899.56 940.012M1890.24 948.689C1883.12 954.498 1875.78 960.005 1868.82 966.015 1876.64 974.075 1885.04 981.576 1894.28 987.958 1904.29 978.205 1915.32 969.514 1924.67 959.102 1917.28 952.906 1910.86 945.075 1901.9 941.117 1897.49 942.723 1893.88 945.835 1890.24 948.689M1902.87 981.404C1900.06 983.928 1896.99 986.323 1895.05 989.622 1893.85 992.547 1894.15 995.832 1893.82 998.93 1902.57 993.322 1910.89 986.954 1918.43 979.797 1923.29 975.351 1924.79 968.711 1925.83 962.486 1917.06 967.363 1910.5 975.064 1902.87 981.404M1841.62 990.554C1847.67 998.485 1854.48 1006.46 1863.53 1011.01 1865.88 1012.37 1868.11 1010.22 1870 1009.07 1878.09 1002.99 1885.12 995.674 1892.7 989.005 1884.27 981.547 1875.62 974.319 1867.58 966.43 1858.9 974.448 1849.75 981.949 1841.62 990.554M1835.61 1007.89C1841.17 1016.36 1849.59 1022.45 1858.02 1027.83 1860.07 1022.98 1862.17 1018.13 1864.31 1013.31 1855.33 1007.69 1847.91 1000.09 1840.77 992.361 1838.43 997.123 1832.92 1002.26 1835.61 1007.89M1868.82 1011.92C1863.55 1015.9 1861.9 1022.58 1860.65 1028.7 1871.69 1021.7 1881.47 1012.86 1890.44 1003.4 1893.68 1000.58 1892.47 995.99 1892.76 992.232 1884.27 998.169 1876.88 1005.47 1868.82 1011.92Z" fill="#000000" fill-rule="nonzero" fill-opacity="1"/><path d="M1890.24 948.689C1893.88 945.835 1897.49 942.723 1901.9 941.117 1910.86 945.075 1917.28 952.906 1924.67 959.102 1915.32 969.514 1904.29 978.205 1894.28 987.958 1885.04 981.576 1876.64 974.075 1868.82 966.015 1875.78 960.005 1883.12 954.498 1890.24 948.689Z" fill="#00A2E8" fill-rule="nonzero" fill-opacity="1"/><path d="M1902.87 981.404C1910.5 975.064 1917.06 967.363 1925.83 962.486 1924.79 968.711 1923.29 975.351 1918.43 979.797 1910.89 986.954 1902.57 993.322 1893.82 998.93 1894.15 995.832 1893.85 992.547 1895.05 989.622 1896.99 986.323 1900.06 983.928 1902.87 981.404Z" fill="#00A2E8" fill-rule="nonzero" fill-opacity="1"/><path d="M1841.62 990.554C1849.75 981.949 1858.9 974.448 1867.58 966.43 1875.62 974.319 1884.27 981.547 1892.7 989.005 1885.12 995.674 1878.09 1002.99 1870 1009.07 1868.11 1010.22 1865.88 1012.37 1863.53 1011.01 1854.48 1006.46 1847.67 998.485 1841.62 990.554Z" fill="#FFB3D9" fill-rule="nonzero" fill-opacity="1"/><path d="M1835.61 1007.89C1832.92 1002.26 1838.43 997.123 1840.77 992.361 1847.91 1000.09 1855.33 1007.69 1864.31 1013.31 1862.17 1018.13 1860.07 1022.98 1858.02 1027.83 1849.59 1022.45 1841.17 1016.36 1835.61 1007.89Z" fill="#FFB3D9" fill-rule="nonzero" fill-opacity="1"/><path d="M1868.82 1011.92C1876.88 1005.47 1884.27 998.169 1892.76 992.232 1892.47 995.99 1893.68 1000.58 1890.44 1003.4 1881.47 1012.86 1871.69 1021.7 1860.65 1028.7 1861.9 1022.58 1863.55 1015.9 1868.82 1011.92Z" fill="#FFB3D9" fill-rule="nonzero" fill-opacity="1"/></g></g></g><g clip-path="url(#clip13)"><g clip-path="url(#clip14)"><g clip-path="url(#clip15)"><path d="M2111.56 940.012C2116.09 939.023 2119.75 942.995 2123.13 945.419 2127.92 949.693 2133.63 953.092 2137.46 958.327 2141.09 963.619 2138.87 970.331 2136.23 975.523 2133.04 982.192 2126.29 985.807 2120.77 990.296 2106.38 1001.11 2094.72 1015.02 2080.45 1025.98 2077.77 1027.84 2074.68 1030.75 2071.17 1029.36 2062.88 1026.42 2056.33 1020.14 2050.22 1014.05 2047.15 1010.6 2042.66 1005.99 2045.34 1001.05 2049.74 988.675 2060.84 981.074 2070.07 972.511 2080.36 963.103 2091.75 955.014 2102.47 946.108 2105.33 943.87 2108.12 941.36 2111.56 940.012M2102.24 948.689C2095.12 954.498 2087.78 960.005 2080.82 966.015 2088.64 974.075 2097.04 981.576 2106.28 987.958 2116.29 978.205 2127.32 969.514 2136.67 959.102 2129.28 952.906 2122.86 945.075 2113.9 941.117 2109.49 942.723 2105.88 945.835 2102.24 948.689M2114.87 981.404C2112.06 983.928 2108.99 986.323 2107.05 989.622 2105.85 992.547 2106.15 995.832 2105.82 998.93 2114.57 993.322 2122.89 986.954 2130.43 979.797 2135.29 975.351 2136.79 968.711 2137.83 962.486 2129.06 967.363 2122.5 975.064 2114.87 981.404M2053.62 990.554C2059.67 998.485 2066.48 1006.46 2075.53 1011.01 2077.88 1012.37 2080.11 1010.22 2082 1009.07 2090.09 1002.99 2097.12 995.674 2104.7 989.005 2096.27 981.547 2087.62 974.319 2079.58 966.43 2070.9 974.448 2061.75 981.949 2053.62 990.554M2047.61 1007.89C2053.17 1016.36 2061.59 1022.45 2070.02 1027.83 2072.07 1022.98 2074.17 1018.13 2076.31 1013.31 2067.33 1007.69 2059.91 1000.09 2052.77 992.361 2050.43 997.123 2044.92 1002.26 2047.61 1007.89M2080.82 1011.92C2075.55 1015.9 2073.9 1022.58 2072.65 1028.7 2083.69 1021.7 2093.47 1012.86 2102.44 1003.4 2105.68 1000.58 2104.47 995.99 2104.76 992.232 2096.27 998.169 2088.88 1005.47 2080.82 1011.92Z" fill="#000000" fill-rule="nonzero" fill-opacity="1"/><path d="M2102.24 948.689C2105.88 945.835 2109.49 942.723 2113.9 941.117 2122.86 945.075 2129.28 952.906 2136.67 959.102 2127.32 969.514 2116.29 978.205 2106.28 987.958 2097.04 981.576 2088.64 974.075 2080.82 966.015 2087.78 960.005 2095.12 954.498 2102.24 948.689Z" fill="#00A2E8" fill-rule="nonzero" fill-opacity="1"/><path d="M2114.87 981.404C2122.5 975.064 2129.06 967.363 2137.83 962.486 2136.79 968.711 2135.29 975.351 2130.43 979.797 2122.89 986.954 2114.57 993.322 2105.82 998.93 2106.15 995.832 2105.85 992.547 2107.05 989.622 2108.99 986.323 2112.06 983.928 2114.87 981.404Z" fill="#00A2E8" fill-rule="nonzero" fill-opacity="1"/><path d="M2053.62 990.554C2061.75 981.949 2070.9 974.448 2079.58 966.43 2087.62 974.319 2096.27 981.547 2104.7 989.005 2097.12 995.674 2090.09 1002.99 2082 1009.07 2080.11 1010.22 2077.88 1012.37 2075.53 1011.01 2066.48 1006.46 2059.67 998.485 2053.62 990.554Z" fill="#FFB3D9" fill-rule="nonzero" fill-opacity="1"/><path d="M2047.61 1007.89C2044.92 1002.26 2050.43 997.123 2052.77 992.361 2059.91 1000.09 2067.33 1007.69 2076.31 1013.31 2074.17 1018.13 2072.07 1022.98 2070.02 1027.83 2061.59 1022.45 2053.17 1016.36 2047.61 1007.89Z" fill="#FFB3D9" fill-rule="nonzero" fill-opacity="1"/><path d="M2080.82 1011.92C2088.88 1005.47 2096.27 998.169 2104.76 992.232 2104.47 995.99 2105.68 1000.58 2102.44 1003.4 2093.47 1012.86 2083.69 1021.7 2072.65 1028.7 2073.9 1022.58 2075.55 1015.9 2080.82 1011.92Z" fill="#FFB3D9" fill-rule="nonzero" fill-opacity="1"/></g></g></g><g clip-path="url(#clip16)"><g clip-path="url(#clip17)"><g clip-path="url(#clip18)"><path d="M76.5581 14.0122C81.0902 13.0226 84.7475 16.9954 88.1322 19.4192 92.9225 23.6932 98.6306 27.0922 102.46 32.3271 106.089 37.6193 103.865 44.3314 101.227 49.5233 98.0426 56.1924 91.2875 59.8066 85.7658 64.2956 71.3806 75.1096 59.7205 89.0214 45.4501 99.9788 42.7681 101.843 39.6846 104.755 36.1708 103.364 27.881 100.423 21.3267 94.1415 15.217 88.0462 12.1478 84.6041 7.65868 79.9859 10.3407 75.0522 14.7437 62.675 25.8445 55.0737 35.0664 46.5114 45.3641 37.103 56.7517 29.0141 67.4652 20.1076 70.3337 17.8703 73.116 15.3604 76.5581 14.0122M67.2358 22.6892C60.1221 28.4978 52.7789 34.0051 45.823 40.0145 53.6395 48.0747 62.0439 55.5756 71.2802 61.9579 81.291 52.2052 92.3201 43.5139 101.671 33.1016 94.285 26.9058 87.8597 19.075 78.8959 15.1166 74.4929 16.7229 70.8787 19.8351 67.2358 22.6892M79.8712 55.4035C77.0601 57.9277 73.9909 60.3229 72.0547 63.6216 70.85 66.5473 71.1512 69.8317 70.8213 72.9296 79.57 67.3218 87.8884 60.9539 95.4323 53.7972 100.294 49.3512 101.786 42.7108 102.833 36.4863 94.0555 41.3626 87.5012 49.0643 79.8712 55.4035M18.616 64.5538C24.6684 72.485 31.4809 80.4592 40.5308 85.0056 42.8829 86.3681 45.1059 84.2168 46.9991 83.0694 55.088 76.9884 62.1156 69.6739 69.7026 63.0048 61.2695 55.547 52.6212 48.3185 44.5752 40.4304 35.8983 48.4476 26.748 55.9485 18.616 64.5538M12.6067 81.8934C18.1714 90.3552 26.5903 96.4506 35.0234 101.829 37.0743 96.9813 39.1683 92.1337 41.3052 87.3147 32.3271 81.6926 24.9122 74.0913 17.7699 66.3609 15.4321 71.1225 9.92473 76.2569 12.6067 81.8934M45.823 85.9235C40.5451 89.8963 38.8958 96.5797 37.648 102.704 48.6914 95.7048 58.4727 86.8558 67.4366 77.4043 70.6779 74.5789 69.4731 69.9894 69.76 66.2318 61.2695 72.1694 53.8833 79.4696 45.823 85.9235Z" fill="#000000" fill-rule="nonzero" fill-opacity="1" transform="matrix(1.00917 0 0 1 2359 927)"/><path d="M67.2358 22.6892C70.8787 19.8351 74.4929 16.7229 78.8959 15.1166 87.8597 19.075 94.285 26.9058 101.671 33.1016 92.3201 43.5139 81.291 52.2052 71.2802 61.9579 62.0439 55.5756 53.6395 48.0747 45.823 40.0145 52.7789 34.0051 60.1221 28.4978 67.2358 22.6892Z" fill="#00A2E8" fill-rule="nonzero" fill-opacity="1" transform="matrix(1.00917 0 0 1 2359 927)"/><path d="M79.8712 55.4035C87.5012 49.0643 94.0555 41.3626 102.833 36.4863 101.786 42.7108 100.294 49.3512 95.4323 53.7972 87.8884 60.9539 79.57 67.3218 70.8213 72.9296 71.1512 69.8317 70.85 66.5473 72.0547 63.6216 73.9909 60.3229 77.0601 57.9277 79.8712 55.4035Z" fill="#00A2E8" fill-rule="nonzero" fill-opacity="1" transform="matrix(1.00917 0 0 1 2359 927)"/><path d="M18.616 64.5538C26.748 55.9485 35.8983 48.4476 44.5752 40.4304 52.6212 48.3185 61.2695 55.547 69.7026 63.0048 62.1156 69.6739 55.088 76.9884 46.9991 83.0694 45.1059 84.2168 42.8829 86.3681 40.5308 85.0056 31.4809 80.4592 24.6684 72.485 18.616 64.5538Z" fill="#FFB3D9" fill-rule="nonzero" fill-opacity="1" transform="matrix(1.00917 0 0 1 2359 927)"/><path d="M12.6067 81.8934C9.92473 76.2569 15.4321 71.1225 17.7699 66.3609 24.9122 74.0913 32.3271 81.6926 41.3052 87.3147 39.1683 92.1337 37.0743 96.9813 35.0234 101.829 26.5903 96.4506 18.1714 90.3552 12.6067 81.8934Z" fill="#FFB3D9" fill-rule="nonzero" fill-opacity="1" transform="matrix(1.00917 0 0 1 2359 927)"/><path d="M45.823 85.9235C53.8833 79.4696 61.2695 72.1694 69.76 66.2318 69.4731 69.9894 70.6779 74.5789 67.4366 77.4043 58.4727 86.8558 48.6914 95.7048 37.648 102.704 38.8958 96.5797 40.5451 89.8963 45.823 85.9235Z" fill="#FFB3D9" fill-rule="nonzero" fill-opacity="1" transform="matrix(1.00917 0 0 1 2359 927)"/></g></g></g><g clip-path="url(#clip19)"><g clip-path="url(#clip20)"><g clip-path="url(#clip21)"><path d="M2329.56 941.012C2334.09 940.023 2337.75 943.995 2341.13 946.419 2345.92 950.693 2351.63 954.092 2355.46 959.327 2359.09 964.619 2356.87 971.332 2354.23 976.523 2351.04 983.192 2344.29 986.807 2338.77 991.296 2324.38 1002.11 2312.72 1016.02 2298.45 1026.98 2295.77 1028.84 2292.68 1031.75 2289.17 1030.36 2280.88 1027.42 2274.33 1021.14 2268.22 1015.05 2265.15 1011.6 2260.66 1006.99 2263.34 1002.05 2267.74 989.675 2278.84 982.074 2288.07 973.512 2298.36 964.103 2309.75 956.014 2320.47 947.108 2323.33 944.87 2326.12 942.361 2329.56 941.012M2320.24 949.689C2313.12 955.498 2305.78 961.005 2298.82 967.015 2306.64 975.075 2315.04 982.576 2324.28 988.958 2334.29 979.205 2345.32 970.514 2354.67 960.102 2347.28 953.906 2340.86 946.075 2331.9 942.117 2327.49 943.723 2323.88 946.835 2320.24 949.689M2332.87 982.404C2330.06 984.928 2326.99 987.323 2325.05 990.622 2323.85 993.547 2324.15 996.832 2323.82 999.93 2332.57 994.322 2340.89 987.954 2348.43 980.797 2353.29 976.351 2354.79 969.711 2355.83 963.486 2347.06 968.363 2340.5 976.064 2332.87 982.404M2271.62 991.554C2277.67 999.485 2284.48 1007.46 2293.53 1012.01 2295.88 1013.37 2298.11 1011.22 2300 1010.07 2308.09 1003.99 2315.12 996.674 2322.7 990.005 2314.27 982.547 2305.62 975.319 2297.58 967.43 2288.9 975.448 2279.75 982.949 2271.62 991.554M2265.61 1008.89C2271.17 1017.36 2279.59 1023.45 2288.02 1028.83 2290.07 1023.98 2292.17 1019.13 2294.31 1014.31 2285.33 1008.69 2277.91 1001.09 2270.77 993.361 2268.43 998.123 2262.92 1003.26 2265.61 1008.89M2298.82 1012.92C2293.55 1016.9 2291.9 1023.58 2290.65 1029.7 2301.69 1022.7 2311.47 1013.86 2320.44 1004.4 2323.68 1001.58 2322.47 996.99 2322.76 993.232 2314.27 999.17 2306.88 1006.47 2298.82 1012.92Z" fill="#000000" fill-rule="nonzero" fill-opacity="1"/><path d="M2320.24 949.689C2323.88 946.835 2327.49 943.723 2331.9 942.117 2340.86 946.075 2347.28 953.906 2354.67 960.102 2345.32 970.514 2334.29 979.205 2324.28 988.958 2315.04 982.576 2306.64 975.075 2298.82 967.015 2305.78 961.005 2313.12 955.498 2320.24 949.689Z" fill="#00A2E8" fill-rule="nonzero" fill-opacity="1"/><path d="M2332.87 982.404C2340.5 976.064 2347.06 968.363 2355.83 963.486 2354.79 969.711 2353.29 976.351 2348.43 980.797 2340.89 987.954 2332.57 994.322 2323.82 999.93 2324.15 996.832 2323.85 993.547 2325.05 990.622 2326.99 987.323 2330.06 984.928 2332.87 982.404Z" fill="#00A2E8" fill-rule="nonzero" fill-opacity="1"/><path d="M2271.62 991.554C2279.75 982.949 2288.9 975.448 2297.58 967.43 2305.62 975.319 2314.27 982.547 2322.7 990.005 2315.12 996.674 2308.09 1003.99 2300 1010.07 2298.11 1011.22 2295.88 1013.37 2293.53 1012.01 2284.48 1007.46 2277.67 999.485 2271.62 991.554Z" fill="#FFB3D9" fill-rule="nonzero" fill-opacity="1"/><path d="M2265.61 1008.89C2262.92 1003.26 2268.43 998.123 2270.77 993.361 2277.91 1001.09 2285.33 1008.69 2294.31 1014.31 2292.17 1019.13 2290.07 1023.98 2288.02 1028.83 2279.59 1023.45 2271.17 1017.36 2265.61 1008.89Z" fill="#FFB3D9" fill-rule="nonzero" fill-opacity="1"/><path d="M2298.82 1012.92C2306.88 1006.47 2314.27 999.17 2322.76 993.232 2322.47 996.99 2323.68 1001.58 2320.44 1004.4 2311.47 1013.86 2301.69 1022.7 2290.65 1029.7 2291.9 1023.58 2293.55 1016.9 2298.82 1012.92Z" fill="#FFB3D9" fill-rule="nonzero" fill-opacity="1"/></g></g></g><g clip-path="url(#clip22)"><g clip-path="url(#clip23)"><g clip-path="url(#clip24)"><path d="M2652.56 941.012C2657.09 940.023 2660.75 943.995 2664.13 946.419 2668.92 950.693 2674.63 954.092 2678.46 959.327 2682.09 964.619 2679.87 971.332 2677.23 976.523 2674.04 983.192 2667.29 986.807 2661.77 991.296 2647.38 1002.11 2635.72 1016.02 2621.45 1026.98 2618.77 1028.84 2615.68 1031.75 2612.17 1030.36 2603.88 1027.42 2597.33 1021.14 2591.22 1015.05 2588.15 1011.6 2583.66 1006.99 2586.34 1002.05 2590.74 989.675 2601.84 982.074 2611.07 973.512 2621.36 964.103 2632.75 956.014 2643.47 947.108 2646.33 944.87 2649.12 942.361 2652.56 941.012M2643.24 949.689C2636.12 955.498 2628.78 961.005 2621.82 967.015 2629.64 975.075 2638.04 982.576 2647.28 988.958 2657.29 979.205 2668.32 970.514 2677.67 960.102 2670.28 953.906 2663.86 946.075 2654.9 942.117 2650.49 943.723 2646.88 946.835 2643.24 949.689M2655.87 982.404C2653.06 984.928 2649.99 987.323 2648.05 990.622 2646.85 993.547 2647.15 996.832 2646.82 999.93 2655.57 994.322 2663.89 987.954 2671.43 980.797 2676.29 976.351 2677.79 969.711 2678.83 963.486 2670.06 968.363 2663.5 976.064 2655.87 982.404M2594.62 991.554C2600.67 999.485 2607.48 1007.46 2616.53 1012.01 2618.88 1013.37 2621.11 1011.22 2623 1010.07 2631.09 1003.99 2638.12 996.674 2645.7 990.005 2637.27 982.547 2628.62 975.319 2620.58 967.43 2611.9 975.448 2602.75 982.949 2594.62 991.554M2588.61 1008.89C2594.17 1017.36 2602.59 1023.45 2611.02 1028.83 2613.07 1023.98 2615.17 1019.13 2617.31 1014.31 2608.33 1008.69 2600.91 1001.09 2593.77 993.361 2591.43 998.123 2585.92 1003.26 2588.61 1008.89M2621.82 1012.92C2616.55 1016.9 2614.9 1023.58 2613.65 1029.7 2624.69 1022.7 2634.47 1013.86 2643.44 1004.4 2646.68 1001.58 2645.47 996.99 2645.76 993.232 2637.27 999.17 2629.88 1006.47 2621.82 1012.92Z" fill="#000000" fill-rule="nonzero" fill-opacity="1"/><path d="M2643.24 949.689C2646.88 946.835 2650.49 943.723 2654.9 942.117 2663.86 946.075 2670.28 953.906 2677.67 960.102 2668.32 970.514 2657.29 979.205 2647.28 988.958 2638.04 982.576 2629.64 975.075 2621.82 967.015 2628.78 961.005 2636.12 955.498 2643.24 949.689Z" fill="#00A2E8" fill-rule="nonzero" fill-opacity="1"/><path d="M2655.87 982.404C2663.5 976.064 2670.06 968.363 2678.83 963.486 2677.79 969.711 2676.29 976.351 2671.43 980.797 2663.89 987.954 2655.57 994.322 2646.82 999.93 2647.15 996.832 2646.85 993.547 2648.05 990.622 2649.99 987.323 2653.06 984.928 2655.87 982.404Z" fill="#00A2E8" fill-rule="nonzero" fill-opacity="1"/><path d="M2594.62 991.554C2602.75 982.949 2611.9 975.448 2620.58 967.43 2628.62 975.319 2637.27 982.547 2645.7 990.005 2638.12 996.674 2631.09 1003.99 2623 1010.07 2621.11 1011.22 2618.88 1013.37 2616.53 1012.01 2607.48 1007.46 2600.67 999.485 2594.62 991.554Z" fill="#FFB3D9" fill-rule="nonzero" fill-opacity="1"/><path d="M2588.61 1008.89C2585.92 1003.26 2591.43 998.123 2593.77 993.361 2600.91 1001.09 2608.33 1008.69 2617.31 1014.31 2615.17 1019.13 2613.07 1023.98 2611.02 1028.83 2602.59 1023.45 2594.17 1017.36 2588.61 1008.89Z" fill="#FFB3D9" fill-rule="nonzero" fill-opacity="1"/><path d="M2621.82 1012.92C2629.88 1006.47 2637.27 999.17 2645.76 993.232 2645.47 996.99 2646.68 1001.58 2643.44 1004.4 2634.47 1013.86 2624.69 1022.7 2613.65 1029.7 2614.9 1023.58 2616.55 1016.9 2621.82 1012.92Z" fill="#FFB3D9" fill-rule="nonzero" fill-opacity="1"/></g></g></g><g clip-path="url(#clip25)"><g clip-path="url(#clip26)"><g clip-path="url(#clip27)"><path d="M76.5581 14.0122C81.0902 13.0226 84.7475 16.9954 88.1322 19.4192 92.9225 23.6932 98.6306 27.0922 102.46 32.3271 106.089 37.6193 103.865 44.3314 101.227 49.5233 98.0426 56.1924 91.2875 59.8066 85.7658 64.2956 71.3806 75.1096 59.7205 89.0214 45.4501 99.9788 42.7681 101.843 39.6846 104.755 36.1708 103.364 27.881 100.423 21.3267 94.1415 15.217 88.0462 12.1478 84.6041 7.65868 79.9859 10.3407 75.0522 14.7437 62.675 25.8445 55.0737 35.0664 46.5114 45.3641 37.103 56.7517 29.0141 67.4652 20.1076 70.3337 17.8703 73.116 15.3604 76.5581 14.0122M67.2358 22.6892C60.1221 28.4978 52.7789 34.0051 45.823 40.0145 53.6395 48.0747 62.0439 55.5756 71.2802 61.9579 81.291 52.2052 92.3201 43.5139 101.671 33.1016 94.285 26.9058 87.8597 19.075 78.8959 15.1166 74.4929 16.7229 70.8787 19.8351 67.2358 22.6892M79.8712 55.4035C77.0601 57.9277 73.9909 60.3229 72.0547 63.6216 70.85 66.5473 71.1512 69.8317 70.8213 72.9296 79.57 67.3218 87.8884 60.9539 95.4323 53.7972 100.294 49.3512 101.786 42.7108 102.833 36.4863 94.0555 41.3626 87.5012 49.0643 79.8712 55.4035M18.616 64.5538C24.6684 72.485 31.4809 80.4592 40.5308 85.0056 42.8829 86.3681 45.1059 84.2168 46.9991 83.0694 55.088 76.9884 62.1156 69.6739 69.7026 63.0048 61.2695 55.547 52.6212 48.3185 44.5752 40.4304 35.8983 48.4476 26.748 55.9485 18.616 64.5538M12.6067 81.8934C18.1714 90.3552 26.5903 96.4506 35.0234 101.829 37.0743 96.9813 39.1683 92.1337 41.3052 87.3147 32.3271 81.6926 24.9122 74.0913 17.7699 66.3609 15.4321 71.1225 9.92473 76.2569 12.6067 81.8934M45.823 85.9235C40.5451 89.8963 38.8958 96.5797 37.648 102.704 48.6914 95.7048 58.4727 86.8558 67.4366 77.4043 70.6779 74.5789 69.4731 69.9894 69.76 66.2318 61.2695 72.1694 53.8833 79.4696 45.823 85.9235Z" fill="#000000" fill-rule="nonzero" fill-opacity="1" transform="matrix(1.00917 0 0 1 2469 927)"/><path d="M67.2358 22.6892C70.8787 19.8351 74.4929 16.7229 78.8959 15.1166 87.8597 19.075 94.285 26.9058 101.671 33.1016 92.3201 43.5139 81.291 52.2052 71.2802 61.9579 62.0439 55.5756 53.6395 48.0747 45.823 40.0145 52.7789 34.0051 60.1221 28.4978 67.2358 22.6892Z" fill="#00A2E8" fill-rule="nonzero" fill-opacity="1" transform="matrix(1.00917 0 0 1 2469 927)"/><path d="M79.8712 55.4035C87.5012 49.0643 94.0555 41.3626 102.833 36.4863 101.786 42.7108 100.294 49.3512 95.4323 53.7972 87.8884 60.9539 79.57 67.3218 70.8213 72.9296 71.1512 69.8317 70.85 66.5473 72.0547 63.6216 73.9909 60.3229 77.0601 57.9277 79.8712 55.4035Z" fill="#00A2E8" fill-rule="nonzero" fill-opacity="1" transform="matrix(1.00917 0 0 1 2469 927)"/><path d="M18.616 64.5538C26.748 55.9485 35.8983 48.4476 44.5752 40.4304 52.6212 48.3185 61.2695 55.547 69.7026 63.0048 62.1156 69.6739 55.088 76.9884 46.9991 83.0694 45.1059 84.2168 42.8829 86.3681 40.5308 85.0056 31.4809 80.4592 24.6684 72.485 18.616 64.5538Z" fill="#FFB3D9" fill-rule="nonzero" fill-opacity="1" transform="matrix(1.00917 0 0 1 2469 927)"/><path d="M12.6067 81.8934C9.92473 76.2569 15.4321 71.1225 17.7699 66.3609 24.9122 74.0913 32.3271 81.6926 41.3052 87.3147 39.1683 92.1337 37.0743 96.9813 35.0234 101.829 26.5903 96.4506 18.1714 90.3552 12.6067 81.8934Z" fill="#FFB3D9" fill-rule="nonzero" fill-opacity="1" transform="matrix(1.00917 0 0 1 2469 927)"/><path d="M45.823 85.9235C53.8833 79.4696 61.2695 72.1694 69.76 66.2318 69.4731 69.9894 70.6779 74.5789 67.4366 77.4043 58.4727 86.8558 48.6914 95.7048 37.648 102.704 38.8958 96.5797 40.5451 89.8963 45.823 85.9235Z" fill="#FFB3D9" fill-rule="nonzero" fill-opacity="1" transform="matrix(1.00917 0 0 1 2469 927)"/></g></g></g><g clip-path="url(#clip28)"><g clip-path="url(#clip29)"><g clip-path="url(#clip30)"><path d="M2758.56 941.012C2763.09 940.023 2766.75 943.995 2770.13 946.419 2774.92 950.693 2780.63 954.092 2784.46 959.327 2788.09 964.619 2785.87 971.332 2783.23 976.523 2780.04 983.192 2773.29 986.807 2767.77 991.296 2753.38 1002.11 2741.72 1016.02 2727.45 1026.98 2724.77 1028.84 2721.68 1031.75 2718.17 1030.36 2709.88 1027.42 2703.33 1021.14 2697.22 1015.05 2694.15 1011.6 2689.66 1006.99 2692.34 1002.05 2696.74 989.675 2707.84 982.074 2717.07 973.512 2727.36 964.103 2738.75 956.014 2749.47 947.108 2752.33 944.87 2755.12 942.361 2758.56 941.012M2749.24 949.689C2742.12 955.498 2734.78 961.005 2727.82 967.015 2735.64 975.075 2744.04 982.576 2753.28 988.958 2763.29 979.205 2774.32 970.514 2783.67 960.102 2776.28 953.906 2769.86 946.075 2760.9 942.117 2756.49 943.723 2752.88 946.835 2749.24 949.689M2761.87 982.404C2759.06 984.928 2755.99 987.323 2754.05 990.622 2752.85 993.547 2753.15 996.832 2752.82 999.93 2761.57 994.322 2769.89 987.954 2777.43 980.797 2782.29 976.351 2783.79 969.711 2784.83 963.486 2776.06 968.363 2769.5 976.064 2761.87 982.404M2700.62 991.554C2706.67 999.485 2713.48 1007.46 2722.53 1012.01 2724.88 1013.37 2727.11 1011.22 2729 1010.07 2737.09 1003.99 2744.12 996.674 2751.7 990.005 2743.27 982.547 2734.62 975.319 2726.58 967.43 2717.9 975.448 2708.75 982.949 2700.62 991.554M2694.61 1008.89C2700.17 1017.36 2708.59 1023.45 2717.02 1028.83 2719.07 1023.98 2721.17 1019.13 2723.31 1014.31 2714.33 1008.69 2706.91 1001.09 2699.77 993.361 2697.43 998.123 2691.92 1003.26 2694.61 1008.89M2727.82 1012.92C2722.55 1016.9 2720.9 1023.58 2719.65 1029.7 2730.69 1022.7 2740.47 1013.86 2749.44 1004.4 2752.68 1001.58 2751.47 996.99 2751.76 993.232 2743.27 999.17 2735.88 1006.47 2727.82 1012.92Z" fill="#000000" fill-rule="nonzero" fill-opacity="1"/><path d="M2749.24 949.689C2752.88 946.835 2756.49 943.723 2760.9 942.117 2769.86 946.075 2776.28 953.906 2783.67 960.102 2774.32 970.514 2763.29 979.205 2753.28 988.958 2744.04 982.576 2735.64 975.075 2727.82 967.015 2734.78 961.005 2742.12 955.498 2749.24 949.689Z" fill="#00A2E8" fill-rule="nonzero" fill-opacity="1"/><path d="M2761.87 982.404C2769.5 976.064 2776.06 968.363 2784.83 963.486 2783.79 969.711 2782.29 976.351 2777.43 980.797 2769.89 987.954 2761.57 994.322 2752.82 999.93 2753.15 996.832 2752.85 993.547 2754.05 990.622 2755.99 987.323 2759.06 984.928 2761.87 982.404Z" fill="#00A2E8" fill-rule="nonzero" fill-opacity="1"/><path d="M2700.62 991.554C2708.75 982.949 2717.9 975.448 2726.58 967.43 2734.62 975.319 2743.27 982.547 2751.7 990.005 2744.12 996.674 2737.09 1003.99 2729 1010.07 2727.11 1011.22 2724.88 1013.37 2722.53 1012.01 2713.48 1007.46 2706.67 999.485 2700.62 991.554Z" fill="#FFB3D9" fill-rule="nonzero" fill-opacity="1"/><path d="M2694.61 1008.89C2691.92 1003.26 2697.43 998.123 2699.77 993.361 2706.91 1001.09 2714.33 1008.69 2723.31 1014.31 2721.17 1019.13 2719.07 1023.98 2717.02 1028.83 2708.59 1023.45 2700.17 1017.36 2694.61 1008.89Z" fill="#FFB3D9" fill-rule="nonzero" fill-opacity="1"/><path d="M2727.82 1012.92C2735.88 1006.47 2743.27 999.17 2751.76 993.232 2751.47 996.99 2752.68 1001.58 2749.44 1004.4 2740.47 1013.86 2730.69 1022.7 2719.65 1029.7 2720.9 1023.58 2722.55 1016.9 2727.82 1012.92Z" fill="#FFB3D9" fill-rule="nonzero" fill-opacity="1"/></g></g></g><g clip-path="url(#clip31)"><g clip-path="url(#clip32)"><g clip-path="url(#clip33)"><path d="M1789.56 1082.01C1794.09 1081.02 1797.75 1085 1801.13 1087.42 1805.92 1091.69 1811.63 1095.09 1815.46 1100.33 1819.09 1105.62 1816.87 1112.33 1814.23 1117.52 1811.04 1124.19 1804.29 1127.81 1798.77 1132.3 1784.38 1143.11 1772.72 1157.02 1758.45 1167.98 1755.77 1169.84 1752.68 1172.75 1749.17 1171.36 1740.88 1168.42 1734.33 1162.14 1728.22 1156.05 1725.15 1152.6 1720.66 1147.99 1723.34 1143.05 1727.74 1130.67 1738.84 1123.07 1748.07 1114.51 1758.36 1105.1 1769.75 1097.01 1780.47 1088.11 1783.33 1085.87 1786.12 1083.36 1789.56 1082.01M1780.24 1090.69C1773.12 1096.5 1765.78 1102.01 1758.82 1108.01 1766.64 1116.07 1775.04 1123.58 1784.28 1129.96 1794.29 1120.21 1805.32 1111.51 1814.67 1101.1 1807.28 1094.91 1800.86 1087.07 1791.9 1083.12 1787.49 1084.72 1783.88 1087.84 1780.24 1090.69M1792.87 1123.4C1790.06 1125.93 1786.99 1128.32 1785.05 1131.62 1783.85 1134.55 1784.15 1137.83 1783.82 1140.93 1792.57 1135.32 1800.89 1128.95 1808.43 1121.8 1813.29 1117.35 1814.79 1110.71 1815.83 1104.49 1807.06 1109.36 1800.5 1117.06 1792.87 1123.4M1731.62 1132.55C1737.67 1140.48 1744.48 1148.46 1753.53 1153.01 1755.88 1154.37 1758.11 1152.22 1760 1151.07 1768.09 1144.99 1775.12 1137.67 1782.7 1131 1774.27 1123.55 1765.62 1116.32 1757.58 1108.43 1748.9 1116.45 1739.75 1123.95 1731.62 1132.55M1725.61 1149.89C1731.17 1158.36 1739.59 1164.45 1748.02 1169.83 1750.07 1164.98 1752.17 1160.13 1754.31 1155.31 1745.33 1149.69 1737.91 1142.09 1730.77 1134.36 1728.43 1139.12 1722.92 1144.26 1725.61 1149.89M1758.82 1153.92C1753.55 1157.9 1751.9 1164.58 1750.65 1170.7 1761.69 1163.7 1771.47 1154.86 1780.44 1145.4 1783.68 1142.58 1782.47 1137.99 1782.76 1134.23 1774.27 1140.17 1766.88 1147.47 1758.82 1153.92Z" fill="#000000" fill-rule="nonzero" fill-opacity="1"/><path d="M1780.24 1090.69C1783.88 1087.84 1787.49 1084.72 1791.9 1083.12 1800.86 1087.07 1807.28 1094.91 1814.67 1101.1 1805.32 1111.51 1794.29 1120.21 1784.28 1129.96 1775.04 1123.58 1766.64 1116.07 1758.82 1108.01 1765.78 1102.01 1773.12 1096.5 1780.24 1090.69Z" fill="#00A2E8" fill-rule="nonzero" fill-opacity="1"/><path d="M1792.87 1123.4C1800.5 1117.06 1807.06 1109.36 1815.83 1104.49 1814.79 1110.71 1813.29 1117.35 1808.43 1121.8 1800.89 1128.95 1792.57 1135.32 1783.82 1140.93 1784.15 1137.83 1783.85 1134.55 1785.05 1131.62 1786.99 1128.32 1790.06 1125.93 1792.87 1123.4Z" fill="#00A2E8" fill-rule="nonzero" fill-opacity="1"/><path d="M1731.62 1132.55C1739.75 1123.95 1748.9 1116.45 1757.58 1108.43 1765.62 1116.32 1774.27 1123.55 1782.7 1131 1775.12 1137.67 1768.09 1144.99 1760 1151.07 1758.11 1152.22 1755.88 1154.37 1753.53 1153.01 1744.48 1148.46 1737.67 1140.48 1731.62 1132.55Z" fill="#FFB3D9" fill-rule="nonzero" fill-opacity="1"/><path d="M1725.61 1149.89C1722.92 1144.26 1728.43 1139.12 1730.77 1134.36 1737.91 1142.09 1745.33 1149.69 1754.31 1155.31 1752.17 1160.13 1750.07 1164.98 1748.02 1169.83 1739.59 1164.45 1731.17 1158.36 1725.61 1149.89Z" fill="#FFB3D9" fill-rule="nonzero" fill-opacity="1"/><path d="M1758.82 1153.92C1766.88 1147.47 1774.27 1140.17 1782.76 1134.23 1782.47 1137.99 1783.68 1142.58 1780.44 1145.4 1771.47 1154.86 1761.69 1163.7 1750.65 1170.7 1751.9 1164.58 1753.55 1157.9 1758.82 1153.92Z" fill="#FFB3D9" fill-rule="nonzero" fill-opacity="1"/></g></g></g><g clip-path="url(#clip34)"><g clip-path="url(#clip35)"><g clip-path="url(#clip36)"><path d="M1683.56 1082.01C1688.09 1081.02 1691.75 1085 1695.13 1087.42 1699.92 1091.69 1705.63 1095.09 1709.46 1100.33 1713.09 1105.62 1710.87 1112.33 1708.23 1117.52 1705.04 1124.19 1698.29 1127.81 1692.77 1132.3 1678.38 1143.11 1666.72 1157.02 1652.45 1167.98 1649.77 1169.84 1646.68 1172.75 1643.17 1171.36 1634.88 1168.42 1628.33 1162.14 1622.22 1156.05 1619.15 1152.6 1614.66 1147.99 1617.34 1143.05 1621.74 1130.67 1632.84 1123.07 1642.07 1114.51 1652.36 1105.1 1663.75 1097.01 1674.47 1088.11 1677.33 1085.87 1680.12 1083.36 1683.56 1082.01M1674.24 1090.69C1667.12 1096.5 1659.78 1102.01 1652.82 1108.01 1660.64 1116.07 1669.04 1123.58 1678.28 1129.96 1688.29 1120.21 1699.32 1111.51 1708.67 1101.1 1701.28 1094.91 1694.86 1087.07 1685.9 1083.12 1681.49 1084.72 1677.88 1087.84 1674.24 1090.69M1686.87 1123.4C1684.06 1125.93 1680.99 1128.32 1679.05 1131.62 1677.85 1134.55 1678.15 1137.83 1677.82 1140.93 1686.57 1135.32 1694.89 1128.95 1702.43 1121.8 1707.29 1117.35 1708.79 1110.71 1709.83 1104.49 1701.06 1109.36 1694.5 1117.06 1686.87 1123.4M1625.62 1132.55C1631.67 1140.48 1638.48 1148.46 1647.53 1153.01 1649.88 1154.37 1652.11 1152.22 1654 1151.07 1662.09 1144.99 1669.12 1137.67 1676.7 1131 1668.27 1123.55 1659.62 1116.32 1651.58 1108.43 1642.9 1116.45 1633.75 1123.95 1625.62 1132.55M1619.61 1149.89C1625.17 1158.36 1633.59 1164.45 1642.02 1169.83 1644.07 1164.98 1646.17 1160.13 1648.31 1155.31 1639.33 1149.69 1631.91 1142.09 1624.77 1134.36 1622.43 1139.12 1616.92 1144.26 1619.61 1149.89M1652.82 1153.92C1647.55 1157.9 1645.9 1164.58 1644.65 1170.7 1655.69 1163.7 1665.47 1154.86 1674.44 1145.4 1677.68 1142.58 1676.47 1137.99 1676.76 1134.23 1668.27 1140.17 1660.88 1147.47 1652.82 1153.92Z" fill="#000000" fill-rule="nonzero" fill-opacity="1"/><path d="M1674.24 1090.69C1677.88 1087.84 1681.49 1084.72 1685.9 1083.12 1694.86 1087.07 1701.28 1094.91 1708.67 1101.1 1699.32 1111.51 1688.29 1120.21 1678.28 1129.96 1669.04 1123.58 1660.64 1116.07 1652.82 1108.01 1659.78 1102.01 1667.12 1096.5 1674.24 1090.69Z" fill="#00A2E8" fill-rule="nonzero" fill-opacity="1"/><path d="M1686.87 1123.4C1694.5 1117.06 1701.06 1109.36 1709.83 1104.49 1708.79 1110.71 1707.29 1117.35 1702.43 1121.8 1694.89 1128.95 1686.57 1135.32 1677.82 1140.93 1678.15 1137.83 1677.85 1134.55 1679.05 1131.62 1680.99 1128.32 1684.06 1125.93 1686.87 1123.4Z" fill="#00A2E8" fill-rule="nonzero" fill-opacity="1"/><path d="M1625.62 1132.55C1633.75 1123.95 1642.9 1116.45 1651.58 1108.43 1659.62 1116.32 1668.27 1123.55 1676.7 1131 1669.12 1137.67 1662.09 1144.99 1654 1151.07 1652.11 1152.22 1649.88 1154.37 1647.53 1153.01 1638.48 1148.46 1631.67 1140.48 1625.62 1132.55Z" fill="#FFB3D9" fill-rule="nonzero" fill-opacity="1"/><path d="M1619.61 1149.89C1616.92 1144.26 1622.43 1139.12 1624.77 1134.36 1631.91 1142.09 1639.33 1149.69 1648.31 1155.31 1646.17 1160.13 1644.07 1164.98 1642.02 1169.83 1633.59 1164.45 1625.17 1158.36 1619.61 1149.89Z" fill="#FFB3D9" fill-rule="nonzero" fill-opacity="1"/><path d="M1652.82 1153.92C1660.88 1147.47 1668.27 1140.17 1676.76 1134.23 1676.47 1137.99 1677.68 1142.58 1674.44 1145.4 1665.47 1154.86 1655.69 1163.7 1644.65 1170.7 1645.9 1164.58 1647.55 1157.9 1652.82 1153.92Z" fill="#FFB3D9" fill-rule="nonzero" fill-opacity="1"/></g></g></g><g clip-path="url(#clip37)"><g clip-path="url(#clip38)"><g clip-path="url(#clip39)"><path d="M2005.56 1082.01C2010.09 1081.02 2013.75 1085 2017.13 1087.42 2021.92 1091.69 2027.63 1095.09 2031.46 1100.33 2035.09 1105.62 2032.87 1112.33 2030.23 1117.52 2027.04 1124.19 2020.29 1127.81 2014.77 1132.3 2000.38 1143.11 1988.72 1157.02 1974.45 1167.98 1971.77 1169.84 1968.68 1172.75 1965.17 1171.36 1956.88 1168.42 1950.33 1162.14 1944.22 1156.05 1941.15 1152.6 1936.66 1147.99 1939.34 1143.05 1943.74 1130.67 1954.84 1123.07 1964.07 1114.51 1974.36 1105.1 1985.75 1097.01 1996.47 1088.11 1999.33 1085.87 2002.12 1083.36 2005.56 1082.01M1996.24 1090.69C1989.12 1096.5 1981.78 1102.01 1974.82 1108.01 1982.64 1116.07 1991.04 1123.58 2000.28 1129.96 2010.29 1120.21 2021.32 1111.51 2030.67 1101.1 2023.29 1094.91 2016.86 1087.07 2007.9 1083.12 2003.49 1084.72 1999.88 1087.84 1996.24 1090.69M2008.87 1123.4C2006.06 1125.93 2002.99 1128.32 2001.05 1131.62 1999.85 1134.55 2000.15 1137.83 1999.82 1140.93 2008.57 1135.32 2016.89 1128.95 2024.43 1121.8 2029.29 1117.35 2030.79 1110.71 2031.83 1104.49 2023.06 1109.36 2016.5 1117.06 2008.87 1123.4M1947.62 1132.55C1953.67 1140.48 1960.48 1148.46 1969.53 1153.01 1971.88 1154.37 1974.11 1152.22 1976 1151.07 1984.09 1144.99 1991.12 1137.67 1998.7 1131 1990.27 1123.55 1981.62 1116.32 1973.58 1108.43 1964.9 1116.45 1955.75 1123.95 1947.62 1132.55M1941.61 1149.89C1947.17 1158.36 1955.59 1164.45 1964.02 1169.83 1966.07 1164.98 1968.17 1160.13 1970.31 1155.31 1961.33 1149.69 1953.91 1142.09 1946.77 1134.36 1944.43 1139.12 1938.92 1144.26 1941.61 1149.89M1974.82 1153.92C1969.55 1157.9 1967.9 1164.58 1966.65 1170.7 1977.69 1163.7 1987.47 1154.86 1996.44 1145.4 1999.68 1142.58 1998.47 1137.99 1998.76 1134.23 1990.27 1140.17 1982.88 1147.47 1974.82 1153.92Z" fill="#000000" fill-rule="nonzero" fill-opacity="1"/><path d="M1996.24 1090.69C1999.88 1087.84 2003.49 1084.72 2007.9 1083.12 2016.86 1087.07 2023.29 1094.91 2030.67 1101.1 2021.32 1111.51 2010.29 1120.21 2000.28 1129.96 1991.04 1123.58 1982.64 1116.07 1974.82 1108.01 1981.78 1102.01 1989.12 1096.5 1996.24 1090.69Z" fill="#00A2E8" fill-rule="nonzero" fill-opacity="1"/><path d="M2008.87 1123.4C2016.5 1117.06 2023.06 1109.36 2031.83 1104.49 2030.79 1110.71 2029.29 1117.35 2024.43 1121.8 2016.89 1128.95 2008.57 1135.32 1999.82 1140.93 2000.15 1137.83 1999.85 1134.55 2001.05 1131.62 2002.99 1128.32 2006.06 1125.93 2008.87 1123.4Z" fill="#00A2E8" fill-rule="nonzero" fill-opacity="1"/><path d="M1947.62 1132.55C1955.75 1123.95 1964.9 1116.45 1973.58 1108.43 1981.62 1116.32 1990.27 1123.55 1998.7 1131 1991.12 1137.67 1984.09 1144.99 1976 1151.07 1974.11 1152.22 1971.88 1154.37 1969.53 1153.01 1960.48 1148.46 1953.67 1140.48 1947.62 1132.55Z" fill="#FFB3D9" fill-rule="nonzero" fill-opacity="1"/><path d="M1941.61 1149.89C1938.92 1144.26 1944.43 1139.12 1946.77 1134.36 1953.91 1142.09 1961.33 1149.69 1970.31 1155.31 1968.17 1160.13 1966.07 1164.98 1964.02 1169.83 1955.59 1164.45 1947.17 1158.36 1941.61 1149.89Z" fill="#FFB3D9" fill-rule="nonzero" fill-opacity="1"/><path d="M1974.82 1153.92C1982.88 1147.47 1990.27 1140.17 1998.76 1134.23 1998.47 1137.99 1999.68 1142.58 1996.44 1145.4 1987.47 1154.86 1977.69 1163.7 1966.65 1170.7 1967.9 1164.58 1969.55 1157.9 1974.82 1153.92Z" fill="#FFB3D9" fill-rule="nonzero" fill-opacity="1"/></g></g></g><g clip-path="url(#clip40)"><g clip-path="url(#clip41)"><g clip-path="url(#clip42)"><path d="M1899.56 1082.01C1904.09 1081.02 1907.75 1085 1911.13 1087.42 1915.92 1091.69 1921.63 1095.09 1925.46 1100.33 1929.09 1105.62 1926.87 1112.33 1924.23 1117.52 1921.04 1124.19 1914.29 1127.81 1908.77 1132.3 1894.38 1143.11 1882.72 1157.02 1868.45 1167.98 1865.77 1169.84 1862.68 1172.75 1859.17 1171.36 1850.88 1168.42 1844.33 1162.14 1838.22 1156.05 1835.15 1152.6 1830.66 1147.99 1833.34 1143.05 1837.74 1130.67 1848.84 1123.07 1858.07 1114.51 1868.36 1105.1 1879.75 1097.01 1890.47 1088.11 1893.33 1085.87 1896.12 1083.36 1899.56 1082.01M1890.24 1090.69C1883.12 1096.5 1875.78 1102.01 1868.82 1108.01 1876.64 1116.07 1885.04 1123.58 1894.28 1129.96 1904.29 1120.21 1915.32 1111.51 1924.67 1101.1 1917.28 1094.91 1910.86 1087.07 1901.9 1083.12 1897.49 1084.72 1893.88 1087.84 1890.24 1090.69M1902.87 1123.4C1900.06 1125.93 1896.99 1128.32 1895.05 1131.62 1893.85 1134.55 1894.15 1137.83 1893.82 1140.93 1902.57 1135.32 1910.89 1128.95 1918.43 1121.8 1923.29 1117.35 1924.79 1110.71 1925.83 1104.49 1917.06 1109.36 1910.5 1117.06 1902.87 1123.4M1841.62 1132.55C1847.67 1140.48 1854.48 1148.46 1863.53 1153.01 1865.88 1154.37 1868.11 1152.22 1870 1151.07 1878.09 1144.99 1885.12 1137.67 1892.7 1131 1884.27 1123.55 1875.62 1116.32 1867.58 1108.43 1858.9 1116.45 1849.75 1123.95 1841.62 1132.55M1835.61 1149.89C1841.17 1158.36 1849.59 1164.45 1858.02 1169.83 1860.07 1164.98 1862.17 1160.13 1864.31 1155.31 1855.33 1149.69 1847.91 1142.09 1840.77 1134.36 1838.43 1139.12 1832.92 1144.26 1835.61 1149.89M1868.82 1153.92C1863.55 1157.9 1861.9 1164.58 1860.65 1170.7 1871.69 1163.7 1881.47 1154.86 1890.44 1145.4 1893.68 1142.58 1892.47 1137.99 1892.76 1134.23 1884.27 1140.17 1876.88 1147.47 1868.82 1153.92Z" fill="#000000" fill-rule="nonzero" fill-opacity="1"/><path d="M1890.24 1090.69C1893.88 1087.84 1897.49 1084.72 1901.9 1083.12 1910.86 1087.07 1917.28 1094.91 1924.67 1101.1 1915.32 1111.51 1904.29 1120.21 1894.28 1129.96 1885.04 1123.58 1876.64 1116.07 1868.82 1108.01 1875.78 1102.01 1883.12 1096.5 1890.24 1090.69Z" fill="#00A2E8" fill-rule="nonzero" fill-opacity="1"/><path d="M1902.87 1123.4C1910.5 1117.06 1917.06 1109.36 1925.83 1104.49 1924.79 1110.71 1923.29 1117.35 1918.43 1121.8 1910.89 1128.95 1902.57 1135.32 1893.82 1140.93 1894.15 1137.83 1893.85 1134.55 1895.05 1131.62 1896.99 1128.32 1900.06 1125.93 1902.87 1123.4Z" fill="#00A2E8" fill-rule="nonzero" fill-opacity="1"/><path d="M1841.62 1132.55C1849.75 1123.95 1858.9 1116.45 1867.58 1108.43 1875.62 1116.32 1884.27 1123.55 1892.7 1131 1885.12 1137.67 1878.09 1144.99 1870 1151.07 1868.11 1152.22 1865.88 1154.37 1863.53 1153.01 1854.48 1148.46 1847.67 1140.48 1841.62 1132.55Z" fill="#FFB3D9" fill-rule="nonzero" fill-opacity="1"/><path d="M1835.61 1149.89C1832.92 1144.26 1838.43 1139.12 1840.77 1134.36 1847.91 1142.09 1855.33 1149.69 1864.31 1155.31 1862.17 1160.13 1860.07 1164.98 1858.02 1169.83 1849.59 1164.45 1841.17 1158.36 1835.61 1149.89Z" fill="#FFB3D9" fill-rule="nonzero" fill-opacity="1"/><path d="M1868.82 1153.92C1876.88 1147.47 1884.27 1140.17 1892.76 1134.23 1892.47 1137.99 1893.68 1142.58 1890.44 1145.4 1881.47 1154.86 1871.69 1163.7 1860.65 1170.7 1861.9 1164.58 1863.55 1157.9 1868.82 1153.92Z" fill="#FFB3D9" fill-rule="nonzero" fill-opacity="1"/></g></g></g><g clip-path="url(#clip43)"><g clip-path="url(#clip44)"><g clip-path="url(#clip45)"><path d="M2111.56 1082.01C2116.09 1081.02 2119.75 1085 2123.13 1087.42 2127.92 1091.69 2133.63 1095.09 2137.46 1100.33 2141.09 1105.62 2138.87 1112.33 2136.23 1117.52 2133.04 1124.19 2126.29 1127.81 2120.77 1132.3 2106.38 1143.11 2094.72 1157.02 2080.45 1167.98 2077.77 1169.84 2074.68 1172.75 2071.17 1171.36 2062.88 1168.42 2056.33 1162.14 2050.22 1156.05 2047.15 1152.6 2042.66 1147.99 2045.34 1143.05 2049.74 1130.67 2060.84 1123.07 2070.07 1114.51 2080.36 1105.1 2091.75 1097.01 2102.47 1088.11 2105.33 1085.87 2108.12 1083.36 2111.56 1082.01M2102.24 1090.69C2095.12 1096.5 2087.78 1102.01 2080.82 1108.01 2088.64 1116.07 2097.04 1123.58 2106.28 1129.96 2116.29 1120.21 2127.32 1111.51 2136.67 1101.1 2129.28 1094.91 2122.86 1087.07 2113.9 1083.12 2109.49 1084.72 2105.88 1087.84 2102.24 1090.69M2114.87 1123.4C2112.06 1125.93 2108.99 1128.32 2107.05 1131.62 2105.85 1134.55 2106.15 1137.83 2105.82 1140.93 2114.57 1135.32 2122.89 1128.95 2130.43 1121.8 2135.29 1117.35 2136.79 1110.71 2137.83 1104.49 2129.06 1109.36 2122.5 1117.06 2114.87 1123.4M2053.62 1132.55C2059.67 1140.48 2066.48 1148.46 2075.53 1153.01 2077.88 1154.37 2080.11 1152.22 2082 1151.07 2090.09 1144.99 2097.12 1137.67 2104.7 1131 2096.27 1123.55 2087.62 1116.32 2079.58 1108.43 2070.9 1116.45 2061.75 1123.95 2053.62 1132.55M2047.61 1149.89C2053.17 1158.36 2061.59 1164.45 2070.02 1169.83 2072.07 1164.98 2074.17 1160.13 2076.31 1155.31 2067.33 1149.69 2059.91 1142.09 2052.77 1134.36 2050.43 1139.12 2044.92 1144.26 2047.61 1149.89M2080.82 1153.92C2075.55 1157.9 2073.9 1164.58 2072.65 1170.7 2083.69 1163.7 2093.47 1154.86 2102.44 1145.4 2105.68 1142.58 2104.47 1137.99 2104.76 1134.23 2096.27 1140.17 2088.88 1147.47 2080.82 1153.92Z" fill="#000000" fill-rule="nonzero" fill-opacity="1"/><path d="M2102.24 1090.69C2105.88 1087.84 2109.49 1084.72 2113.9 1083.12 2122.86 1087.07 2129.28 1094.91 2136.67 1101.1 2127.32 1111.51 2116.29 1120.21 2106.28 1129.96 2097.04 1123.58 2088.64 1116.07 2080.82 1108.01 2087.78 1102.01 2095.12 1096.5 2102.24 1090.69Z" fill="#00A2E8" fill-rule="nonzero" fill-opacity="1"/><path d="M2114.87 1123.4C2122.5 1117.06 2129.06 1109.36 2137.83 1104.49 2136.79 1110.71 2135.29 1117.35 2130.43 1121.8 2122.89 1128.95 2114.57 1135.32 2105.82 1140.93 2106.15 1137.83 2105.85 1134.55 2107.05 1131.62 2108.99 1128.32 2112.06 1125.93 2114.87 1123.4Z" fill="#00A2E8" fill-rule="nonzero" fill-opacity="1"/><path d="M2053.62 1132.55C2061.75 1123.95 2070.9 1116.45 2079.58 1108.43 2087.62 1116.32 2096.27 1123.55 2104.7 1131 2097.12 1137.67 2090.09 1144.99 2082 1151.07 2080.11 1152.22 2077.88 1154.37 2075.53 1153.01 2066.48 1148.46 2059.67 1140.48 2053.62 1132.55Z" fill="#FFB3D9" fill-rule="nonzero" fill-opacity="1"/><path d="M2047.61 1149.89C2044.92 1144.26 2050.43 1139.12 2052.77 1134.36 2059.91 1142.09 2067.33 1149.69 2076.31 1155.31 2074.17 1160.13 2072.07 1164.98 2070.02 1169.83 2061.59 1164.45 2053.17 1158.36 2047.61 1149.89Z" fill="#FFB3D9" fill-rule="nonzero" fill-opacity="1"/><path d="M2080.82 1153.92C2088.88 1147.47 2096.27 1140.17 2104.76 1134.23 2104.47 1137.99 2105.68 1142.58 2102.44 1145.4 2093.47 1154.86 2083.69 1163.7 2072.65 1170.7 2073.9 1164.58 2075.55 1157.9 2080.82 1153.92Z" fill="#FFB3D9" fill-rule="nonzero" fill-opacity="1"/></g></g></g><g clip-path="url(#clip46)"><g clip-path="url(#clip47)"><g clip-path="url(#clip48)"><path d="M76.5581 14.0122C81.0902 13.0226 84.7475 16.9954 88.1322 19.4192 92.9225 23.6932 98.6306 27.0922 102.46 32.3271 106.089 37.6193 103.865 44.3314 101.227 49.5233 98.0426 56.1924 91.2875 59.8066 85.7658 64.2956 71.3806 75.1096 59.7205 89.0214 45.4501 99.9788 42.7681 101.843 39.6846 104.755 36.1708 103.364 27.881 100.423 21.3267 94.1415 15.217 88.0462 12.1478 84.6041 7.65868 79.9859 10.3407 75.0522 14.7437 62.675 25.8445 55.0737 35.0664 46.5114 45.3641 37.103 56.7517 29.0141 67.4652 20.1076 70.3337 17.8703 73.116 15.3604 76.5581 14.0122M67.2358 22.6892C60.1221 28.4978 52.7789 34.0051 45.823 40.0145 53.6395 48.0747 62.0439 55.5756 71.2802 61.9579 81.291 52.2052 92.3201 43.5139 101.671 33.1016 94.285 26.9058 87.8597 19.075 78.8959 15.1166 74.4929 16.7229 70.8787 19.8351 67.2358 22.6892M79.8712 55.4035C77.0601 57.9277 73.9909 60.3229 72.0547 63.6216 70.85 66.5473 71.1512 69.8317 70.8213 72.9296 79.57 67.3218 87.8884 60.9539 95.4323 53.7972 100.294 49.3512 101.786 42.7108 102.833 36.4863 94.0555 41.3626 87.5012 49.0643 79.8712 55.4035M18.616 64.5538C24.6684 72.485 31.4809 80.4592 40.5308 85.0056 42.8829 86.3681 45.1059 84.2168 46.9991 83.0694 55.088 76.9884 62.1156 69.6739 69.7026 63.0048 61.2695 55.547 52.6212 48.3185 44.5752 40.4304 35.8983 48.4476 26.748 55.9485 18.616 64.5538M12.6067 81.8934C18.1714 90.3552 26.5903 96.4506 35.0234 101.829 37.0743 96.9813 39.1683 92.1337 41.3052 87.3147 32.3271 81.6926 24.9122 74.0913 17.7699 66.3609 15.4321 71.1225 9.92473 76.2569 12.6067 81.8934M45.823 85.9235C40.5451 89.8963 38.8958 96.5797 37.648 102.704 48.6914 95.7048 58.4727 86.8558 67.4366 77.4043 70.6779 74.5789 69.4731 69.9894 69.76 66.2318 61.2695 72.1694 53.8833 79.4696 45.823 85.9235Z" fill="#000000" fill-rule="nonzero" fill-opacity="1" transform="matrix(1.00917 0 0 1 2359 1070)"/><path d="M67.2358 22.6892C70.8787 19.8351 74.4929 16.7229 78.8959 15.1166 87.8597 19.075 94.285 26.9058 101.671 33.1016 92.3201 43.5139 81.291 52.2052 71.2802 61.9579 62.0439 55.5756 53.6395 48.0747 45.823 40.0145 52.7789 34.0051 60.1221 28.4978 67.2358 22.6892Z" fill="#00A2E8" fill-rule="nonzero" fill-opacity="1" transform="matrix(1.00917 0 0 1 2359 1070)"/><path d="M79.8712 55.4035C87.5012 49.0643 94.0555 41.3626 102.833 36.4863 101.786 42.7108 100.294 49.3512 95.4323 53.7972 87.8884 60.9539 79.57 67.3218 70.8213 72.9296 71.1512 69.8317 70.85 66.5473 72.0547 63.6216 73.9909 60.3229 77.0601 57.9277 79.8712 55.4035Z" fill="#00A2E8" fill-rule="nonzero" fill-opacity="1" transform="matrix(1.00917 0 0 1 2359 1070)"/><path d="M18.616 64.5538C26.748 55.9485 35.8983 48.4476 44.5752 40.4304 52.6212 48.3185 61.2695 55.547 69.7026 63.0048 62.1156 69.6739 55.088 76.9884 46.9991 83.0694 45.1059 84.2168 42.8829 86.3681 40.5308 85.0056 31.4809 80.4592 24.6684 72.485 18.616 64.5538Z" fill="#FFB3D9" fill-rule="nonzero" fill-opacity="1" transform="matrix(1.00917 0 0 1 2359 1070)"/><path d="M12.6067 81.8934C9.92473 76.2569 15.4321 71.1225 17.7699 66.3609 24.9122 74.0913 32.3271 81.6926 41.3052 87.3147 39.1683 92.1337 37.0743 96.9813 35.0234 101.829 26.5903 96.4506 18.1714 90.3552 12.6067 81.8934Z" fill="#FFB3D9" fill-rule="nonzero" fill-opacity="1" transform="matrix(1.00917 0 0 1 2359 1070)"/><path d="M45.823 85.9235C53.8833 79.4696 61.2695 72.1694 69.76 66.2318 69.4731 69.9894 70.6779 74.5789 67.4366 77.4043 58.4727 86.8558 48.6914 95.7048 37.648 102.704 38.8958 96.5797 40.5451 89.8963 45.823 85.9235Z" fill="#FFB3D9" fill-rule="nonzero" fill-opacity="1" transform="matrix(1.00917 0 0 1 2359 1070)"/></g></g></g><g clip-path="url(#clip49)"><g clip-path="url(#clip50)"><g clip-path="url(#clip51)"><path d="M2329.56 1084.01C2334.09 1083.02 2337.75 1087 2341.13 1089.42 2345.92 1093.69 2351.63 1097.09 2355.46 1102.33 2359.09 1107.62 2356.87 1114.33 2354.23 1119.52 2351.04 1126.19 2344.29 1129.81 2338.77 1134.3 2324.38 1145.11 2312.72 1159.02 2298.45 1169.98 2295.77 1171.84 2292.68 1174.75 2289.17 1173.36 2280.88 1170.42 2274.33 1164.14 2268.22 1158.05 2265.15 1154.6 2260.66 1149.99 2263.34 1145.05 2267.74 1132.68 2278.84 1125.07 2288.07 1116.51 2298.36 1107.1 2309.75 1099.01 2320.47 1090.11 2323.33 1087.87 2326.12 1085.36 2329.56 1084.01M2320.24 1092.69C2313.12 1098.5 2305.78 1104.01 2298.82 1110.01 2306.64 1118.07 2315.04 1125.58 2324.28 1131.96 2334.29 1122.21 2345.32 1113.51 2354.67 1103.1 2347.28 1096.91 2340.86 1089.08 2331.9 1085.12 2327.49 1086.72 2323.88 1089.84 2320.24 1092.69M2332.87 1125.4C2330.06 1127.93 2326.99 1130.32 2325.05 1133.62 2323.85 1136.55 2324.15 1139.83 2323.82 1142.93 2332.57 1137.32 2340.89 1130.95 2348.43 1123.8 2353.29 1119.35 2354.79 1112.71 2355.83 1106.49 2347.06 1111.36 2340.5 1119.06 2332.87 1125.4M2271.62 1134.55C2277.67 1142.49 2284.48 1150.46 2293.53 1155.01 2295.88 1156.37 2298.11 1154.22 2300 1153.07 2308.09 1146.99 2315.12 1139.67 2322.7 1133.01 2314.27 1125.55 2305.62 1118.32 2297.58 1110.43 2288.9 1118.45 2279.75 1125.95 2271.62 1134.55M2265.61 1151.89C2271.17 1160.36 2279.59 1166.45 2288.02 1171.83 2290.07 1166.98 2292.17 1162.13 2294.31 1157.31 2285.33 1151.69 2277.91 1144.09 2270.77 1136.36 2268.43 1141.12 2262.92 1146.26 2265.61 1151.89M2298.82 1155.92C2293.55 1159.9 2291.9 1166.58 2290.65 1172.7 2301.69 1165.7 2311.47 1156.86 2320.44 1147.4 2323.68 1144.58 2322.47 1139.99 2322.76 1136.23 2314.27 1142.17 2306.88 1149.47 2298.82 1155.92Z" fill="#000000" fill-rule="nonzero" fill-opacity="1"/><path d="M2320.24 1092.69C2323.88 1089.84 2327.49 1086.72 2331.9 1085.12 2340.86 1089.08 2347.28 1096.91 2354.67 1103.1 2345.32 1113.51 2334.29 1122.21 2324.28 1131.96 2315.04 1125.58 2306.64 1118.07 2298.82 1110.01 2305.78 1104.01 2313.12 1098.5 2320.24 1092.69Z" fill="#00A2E8" fill-rule="nonzero" fill-opacity="1"/><path d="M2332.87 1125.4C2340.5 1119.06 2347.06 1111.36 2355.83 1106.49 2354.79 1112.71 2353.29 1119.35 2348.43 1123.8 2340.89 1130.95 2332.57 1137.32 2323.82 1142.93 2324.15 1139.83 2323.85 1136.55 2325.05 1133.62 2326.99 1130.32 2330.06 1127.93 2332.87 1125.4Z" fill="#00A2E8" fill-rule="nonzero" fill-opacity="1"/><path d="M2271.62 1134.55C2279.75 1125.95 2288.9 1118.45 2297.58 1110.43 2305.62 1118.32 2314.27 1125.55 2322.7 1133.01 2315.12 1139.67 2308.09 1146.99 2300 1153.07 2298.11 1154.22 2295.88 1156.37 2293.53 1155.01 2284.48 1150.46 2277.67 1142.49 2271.62 1134.55Z" fill="#FFB3D9" fill-rule="nonzero" fill-opacity="1"/><path d="M2265.61 1151.89C2262.92 1146.26 2268.43 1141.12 2270.77 1136.36 2277.91 1144.09 2285.33 1151.69 2294.31 1157.31 2292.17 1162.13 2290.07 1166.98 2288.02 1171.83 2279.59 1166.45 2271.17 1160.36 2265.61 1151.89Z" fill="#FFB3D9" fill-rule="nonzero" fill-opacity="1"/><path d="M2298.82 1155.92C2306.88 1149.47 2314.27 1142.17 2322.76 1136.23 2322.47 1139.99 2323.68 1144.58 2320.44 1147.4 2311.47 1156.86 2301.69 1165.7 2290.65 1172.7 2291.9 1166.58 2293.55 1159.9 2298.82 1155.92Z" fill="#FFB3D9" fill-rule="nonzero" fill-opacity="1"/></g></g></g><g clip-path="url(#clip52)"><g clip-path="url(#clip53)"><g clip-path="url(#clip54)"><path d="M2652.56 1084.01C2657.09 1083.02 2660.75 1087 2664.13 1089.42 2668.92 1093.69 2674.63 1097.09 2678.46 1102.33 2682.09 1107.62 2679.87 1114.33 2677.23 1119.52 2674.04 1126.19 2667.29 1129.81 2661.77 1134.3 2647.38 1145.11 2635.72 1159.02 2621.45 1169.98 2618.77 1171.84 2615.68 1174.75 2612.17 1173.36 2603.88 1170.42 2597.33 1164.14 2591.22 1158.05 2588.15 1154.6 2583.66 1149.99 2586.34 1145.05 2590.74 1132.68 2601.84 1125.07 2611.07 1116.51 2621.36 1107.1 2632.75 1099.01 2643.47 1090.11 2646.33 1087.87 2649.12 1085.36 2652.56 1084.01M2643.24 1092.69C2636.12 1098.5 2628.78 1104.01 2621.82 1110.01 2629.64 1118.07 2638.04 1125.58 2647.28 1131.96 2657.29 1122.21 2668.32 1113.51 2677.67 1103.1 2670.28 1096.91 2663.86 1089.08 2654.9 1085.12 2650.49 1086.72 2646.88 1089.84 2643.24 1092.69M2655.87 1125.4C2653.06 1127.93 2649.99 1130.32 2648.05 1133.62 2646.85 1136.55 2647.15 1139.83 2646.82 1142.93 2655.57 1137.32 2663.89 1130.95 2671.43 1123.8 2676.29 1119.35 2677.79 1112.71 2678.83 1106.49 2670.06 1111.36 2663.5 1119.06 2655.87 1125.4M2594.62 1134.55C2600.67 1142.49 2607.48 1150.46 2616.53 1155.01 2618.88 1156.37 2621.11 1154.22 2623 1153.07 2631.09 1146.99 2638.12 1139.67 2645.7 1133.01 2637.27 1125.55 2628.62 1118.32 2620.58 1110.43 2611.9 1118.45 2602.75 1125.95 2594.62 1134.55M2588.61 1151.89C2594.17 1160.36 2602.59 1166.45 2611.02 1171.83 2613.07 1166.98 2615.17 1162.13 2617.31 1157.31 2608.33 1151.69 2600.91 1144.09 2593.77 1136.36 2591.43 1141.12 2585.92 1146.26 2588.61 1151.89M2621.82 1155.92C2616.55 1159.9 2614.9 1166.58 2613.65 1172.7 2624.69 1165.7 2634.47 1156.86 2643.44 1147.4 2646.68 1144.58 2645.47 1139.99 2645.76 1136.23 2637.27 1142.17 2629.88 1149.47 2621.82 1155.92Z" fill="#000000" fill-rule="nonzero" fill-opacity="1"/><path d="M2643.24 1092.69C2646.88 1089.84 2650.49 1086.72 2654.9 1085.12 2663.86 1089.08 2670.28 1096.91 2677.67 1103.1 2668.32 1113.51 2657.29 1122.21 2647.28 1131.96 2638.04 1125.58 2629.64 1118.07 2621.82 1110.01 2628.78 1104.01 2636.12 1098.5 2643.24 1092.69Z" fill="#00A2E8" fill-rule="nonzero" fill-opacity="1"/><path d="M2655.87 1125.4C2663.5 1119.06 2670.06 1111.36 2678.83 1106.49 2677.79 1112.71 2676.29 1119.35 2671.43 1123.8 2663.89 1130.95 2655.57 1137.32 2646.82 1142.93 2647.15 1139.83 2646.85 1136.55 2648.05 1133.62 2649.99 1130.32 2653.06 1127.93 2655.87 1125.4Z" fill="#00A2E8" fill-rule="nonzero" fill-opacity="1"/><path d="M2594.62 1134.55C2602.75 1125.95 2611.9 1118.45 2620.58 1110.43 2628.62 1118.32 2637.27 1125.55 2645.7 1133.01 2638.12 1139.67 2631.09 1146.99 2623 1153.07 2621.11 1154.22 2618.88 1156.37 2616.53 1155.01 2607.48 1150.46 2600.67 1142.49 2594.62 1134.55Z" fill="#FFB3D9" fill-rule="nonzero" fill-opacity="1"/><path d="M2588.61 1151.89C2585.92 1146.26 2591.43 1141.12 2593.77 1136.36 2600.91 1144.09 2608.33 1151.69 2617.31 1157.31 2615.17 1162.13 2613.07 1166.98 2611.02 1171.83 2602.59 1166.45 2594.17 1160.36 2588.61 1151.89Z" fill="#FFB3D9" fill-rule="nonzero" fill-opacity="1"/><path d="M2621.82 1155.92C2629.88 1149.47 2637.27 1142.17 2645.76 1136.23 2645.47 1139.99 2646.68 1144.58 2643.44 1147.4 2634.47 1156.86 2624.69 1165.7 2613.65 1172.7 2614.9 1166.58 2616.55 1159.9 2621.82 1155.92Z" fill="#FFB3D9" fill-rule="nonzero" fill-opacity="1"/></g></g></g><g clip-path="url(#clip55)"><g clip-path="url(#clip56)"><g clip-path="url(#clip57)"><path d="M76.5581 14.0122C81.0902 13.0226 84.7475 16.9954 88.1322 19.4192 92.9225 23.6932 98.6306 27.0922 102.46 32.3271 106.089 37.6193 103.865 44.3314 101.227 49.5233 98.0426 56.1924 91.2875 59.8066 85.7658 64.2956 71.3806 75.1096 59.7205 89.0214 45.4501 99.9788 42.7681 101.843 39.6846 104.755 36.1708 103.364 27.881 100.423 21.3267 94.1415 15.217 88.0462 12.1478 84.6041 7.65868 79.9859 10.3407 75.0522 14.7437 62.675 25.8445 55.0737 35.0664 46.5114 45.3641 37.103 56.7517 29.0141 67.4652 20.1076 70.3337 17.8703 73.116 15.3604 76.5581 14.0122M67.2358 22.6892C60.1221 28.4978 52.7789 34.0051 45.823 40.0145 53.6395 48.0747 62.0439 55.5756 71.2802 61.9579 81.291 52.2052 92.3201 43.5139 101.671 33.1016 94.285 26.9058 87.8597 19.075 78.8959 15.1166 74.4929 16.7229 70.8787 19.8351 67.2358 22.6892M79.8712 55.4035C77.0601 57.9277 73.9909 60.3229 72.0547 63.6216 70.85 66.5473 71.1512 69.8317 70.8213 72.9296 79.57 67.3218 87.8884 60.9539 95.4323 53.7972 100.294 49.3512 101.786 42.7108 102.833 36.4863 94.0555 41.3626 87.5012 49.0643 79.8712 55.4035M18.616 64.5538C24.6684 72.485 31.4809 80.4592 40.5308 85.0056 42.8829 86.3681 45.1059 84.2168 46.9991 83.0694 55.088 76.9884 62.1156 69.6739 69.7026 63.0048 61.2695 55.547 52.6212 48.3185 44.5752 40.4304 35.8983 48.4476 26.748 55.9485 18.616 64.5538M12.6067 81.8934C18.1714 90.3552 26.5903 96.4506 35.0234 101.829 37.0743 96.9813 39.1683 92.1337 41.3052 87.3147 32.3271 81.6926 24.9122 74.0913 17.7699 66.3609 15.4321 71.1225 9.92473 76.2569 12.6067 81.8934M45.823 85.9235C40.5451 89.8963 38.8958 96.5797 37.648 102.704 48.6914 95.7048 58.4727 86.8558 67.4366 77.4043 70.6779 74.5789 69.4731 69.9894 69.76 66.2318 61.2695 72.1694 53.8833 79.4696 45.823 85.9235Z" fill="#000000" fill-rule="nonzero" fill-opacity="1" transform="matrix(1.00917 0 0 1 2469 1070)"/><path d="M67.2358 22.6892C70.8787 19.8351 74.4929 16.7229 78.8959 15.1166 87.8597 19.075 94.285 26.9058 101.671 33.1016 92.3201 43.5139 81.291 52.2052 71.2802 61.9579 62.0439 55.5756 53.6395 48.0747 45.823 40.0145 52.7789 34.0051 60.1221 28.4978 67.2358 22.6892Z" fill="#00A2E8" fill-rule="nonzero" fill-opacity="1" transform="matrix(1.00917 0 0 1 2469 1070)"/><path d="M79.8712 55.4035C87.5012 49.0643 94.0555 41.3626 102.833 36.4863 101.786 42.7108 100.294 49.3512 95.4323 53.7972 87.8884 60.9539 79.57 67.3218 70.8213 72.9296 71.1512 69.8317 70.85 66.5473 72.0547 63.6216 73.9909 60.3229 77.0601 57.9277 79.8712 55.4035Z" fill="#00A2E8" fill-rule="nonzero" fill-opacity="1" transform="matrix(1.00917 0 0 1 2469 1070)"/><path d="M18.616 64.5538C26.748 55.9485 35.8983 48.4476 44.5752 40.4304 52.6212 48.3185 61.2695 55.547 69.7026 63.0048 62.1156 69.6739 55.088 76.9884 46.9991 83.0694 45.1059 84.2168 42.8829 86.3681 40.5308 85.0056 31.4809 80.4592 24.6684 72.485 18.616 64.5538Z" fill="#FFB3D9" fill-rule="nonzero" fill-opacity="1" transform="matrix(1.00917 0 0 1 2469 1070)"/><path d="M12.6067 81.8934C9.92473 76.2569 15.4321 71.1225 17.7699 66.3609 24.9122 74.0913 32.3271 81.6926 41.3052 87.3147 39.1683 92.1337 37.0743 96.9813 35.0234 101.829 26.5903 96.4506 18.1714 90.3552 12.6067 81.8934Z" fill="#FFB3D9" fill-rule="nonzero" fill-opacity="1" transform="matrix(1.00917 0 0 1 2469 1070)"/><path d="M45.823 85.9235C53.8833 79.4696 61.2695 72.1694 69.76 66.2318 69.4731 69.9894 70.6779 74.5789 67.4366 77.4043 58.4727 86.8558 48.6914 95.7048 37.648 102.704 38.8958 96.5797 40.5451 89.8963 45.823 85.9235Z" fill="#FFB3D9" fill-rule="nonzero" fill-opacity="1" transform="matrix(1.00917 0 0 1 2469 1070)"/></g></g></g><g clip-path="url(#clip58)"><g clip-path="url(#clip59)"><g clip-path="url(#clip60)"><path d="M2758.56 1084.01C2763.09 1083.02 2766.75 1087 2770.13 1089.42 2774.92 1093.69 2780.63 1097.09 2784.46 1102.33 2788.09 1107.62 2785.87 1114.33 2783.23 1119.52 2780.04 1126.19 2773.29 1129.81 2767.77 1134.3 2753.38 1145.11 2741.72 1159.02 2727.45 1169.98 2724.77 1171.84 2721.68 1174.75 2718.17 1173.36 2709.88 1170.42 2703.33 1164.14 2697.22 1158.05 2694.15 1154.6 2689.66 1149.99 2692.34 1145.05 2696.74 1132.68 2707.84 1125.07 2717.07 1116.51 2727.36 1107.1 2738.75 1099.01 2749.47 1090.11 2752.33 1087.87 2755.12 1085.36 2758.56 1084.01M2749.24 1092.69C2742.12 1098.5 2734.78 1104.01 2727.82 1110.01 2735.64 1118.07 2744.04 1125.58 2753.28 1131.96 2763.29 1122.21 2774.32 1113.51 2783.67 1103.1 2776.28 1096.91 2769.86 1089.08 2760.9 1085.12 2756.49 1086.72 2752.88 1089.84 2749.24 1092.69M2761.87 1125.4C2759.06 1127.93 2755.99 1130.32 2754.05 1133.62 2752.85 1136.55 2753.15 1139.83 2752.82 1142.93 2761.57 1137.32 2769.89 1130.95 2777.43 1123.8 2782.29 1119.35 2783.79 1112.71 2784.83 1106.49 2776.06 1111.36 2769.5 1119.06 2761.87 1125.4M2700.62 1134.55C2706.67 1142.49 2713.48 1150.46 2722.53 1155.01 2724.88 1156.37 2727.11 1154.22 2729 1153.07 2737.09 1146.99 2744.12 1139.67 2751.7 1133.01 2743.27 1125.55 2734.62 1118.32 2726.58 1110.43 2717.9 1118.45 2708.75 1125.95 2700.62 1134.55M2694.61 1151.89C2700.17 1160.36 2708.59 1166.45 2717.02 1171.83 2719.07 1166.98 2721.17 1162.13 2723.31 1157.31 2714.33 1151.69 2706.91 1144.09 2699.77 1136.36 2697.43 1141.12 2691.92 1146.26 2694.61 1151.89M2727.82 1155.92C2722.55 1159.9 2720.9 1166.58 2719.65 1172.7 2730.69 1165.7 2740.47 1156.86 2749.44 1147.4 2752.68 1144.58 2751.47 1139.99 2751.76 1136.23 2743.27 1142.17 2735.88 1149.47 2727.82 1155.92Z" fill="#000000" fill-rule="nonzero" fill-opacity="1"/><path d="M2749.24 1092.69C2752.88 1089.84 2756.49 1086.72 2760.9 1085.12 2769.86 1089.08 2776.28 1096.91 2783.67 1103.1 2774.32 1113.51 2763.29 1122.21 2753.28 1131.96 2744.04 1125.58 2735.64 1118.07 2727.82 1110.01 2734.78 1104.01 2742.12 1098.5 2749.24 1092.69Z" fill="#00A2E8" fill-rule="nonzero" fill-opacity="1"/><path d="M2761.87 1125.4C2769.5 1119.06 2776.06 1111.36 2784.83 1106.49 2783.79 1112.71 2782.29 1119.35 2777.43 1123.8 2769.89 1130.95 2761.57 1137.32 2752.82 1142.93 2753.15 1139.83 2752.85 1136.55 2754.05 1133.62 2755.99 1130.32 2759.06 1127.93 2761.87 1125.4Z" fill="#00A2E8" fill-rule="nonzero" fill-opacity="1"/><path d="M2700.62 1134.55C2708.75 1125.95 2717.9 1118.45 2726.58 1110.43 2734.62 1118.32 2743.27 1125.55 2751.7 1133.01 2744.12 1139.67 2737.09 1146.99 2729 1153.07 2727.11 1154.22 2724.88 1156.37 2722.53 1155.01 2713.48 1150.46 2706.67 1142.49 2700.62 1134.55Z" fill="#FFB3D9" fill-rule="nonzero" fill-opacity="1"/><path d="M2694.61 1151.89C2691.92 1146.26 2697.43 1141.12 2699.77 1136.36 2706.91 1144.09 2714.33 1151.69 2723.31 1157.31 2721.17 1162.13 2719.07 1166.98 2717.02 1171.83 2708.59 1166.45 2700.17 1160.36 2694.61 1151.89Z" fill="#FFB3D9" fill-rule="nonzero" fill-opacity="1"/><path d="M2727.82 1155.92C2735.88 1149.47 2743.27 1142.17 2751.76 1136.23 2751.47 1139.99 2752.68 1144.58 2749.44 1147.4 2740.47 1156.86 2730.69 1165.7 2719.65 1172.7 2720.9 1166.58 2722.55 1159.9 2727.82 1155.92Z" fill="#FFB3D9" fill-rule="nonzero" fill-opacity="1"/></g></g></g><g clip-path="url(#clip61)"><g clip-path="url(#clip62)"><g clip-path="url(#clip63)"><path d="M1789.56 1226.01C1794.09 1225.02 1797.75 1229 1801.13 1231.42 1805.92 1235.69 1811.63 1239.09 1815.46 1244.33 1819.09 1249.62 1816.87 1256.33 1814.23 1261.52 1811.04 1268.19 1804.29 1271.81 1798.77 1276.3 1784.38 1287.11 1772.72 1301.02 1758.45 1311.98 1755.77 1313.84 1752.68 1316.75 1749.17 1315.36 1740.88 1312.42 1734.33 1306.14 1728.22 1300.05 1725.15 1296.6 1720.66 1291.99 1723.34 1287.05 1727.74 1274.68 1738.84 1267.07 1748.07 1258.51 1758.36 1249.1 1769.75 1241.01 1780.47 1232.11 1783.33 1229.87 1786.12 1227.36 1789.56 1226.01M1780.24 1234.69C1773.12 1240.5 1765.78 1246.01 1758.82 1252.01 1766.64 1260.07 1775.04 1267.58 1784.28 1273.96 1794.29 1264.21 1805.32 1255.51 1814.67 1245.1 1807.28 1238.91 1800.86 1231.08 1791.9 1227.12 1787.49 1228.72 1783.88 1231.84 1780.24 1234.69M1792.87 1267.4C1790.06 1269.93 1786.99 1272.32 1785.05 1275.62 1783.85 1278.55 1784.15 1281.83 1783.82 1284.93 1792.57 1279.32 1800.89 1272.95 1808.43 1265.8 1813.29 1261.35 1814.79 1254.71 1815.83 1248.49 1807.06 1253.36 1800.5 1261.06 1792.87 1267.4M1731.62 1276.55C1737.67 1284.49 1744.48 1292.46 1753.53 1297.01 1755.88 1298.37 1758.11 1296.22 1760 1295.07 1768.09 1288.99 1775.12 1281.67 1782.7 1275.01 1774.27 1267.55 1765.62 1260.32 1757.58 1252.43 1748.9 1260.45 1739.75 1267.95 1731.62 1276.55M1725.61 1293.89C1731.17 1302.36 1739.59 1308.45 1748.02 1313.83 1750.07 1308.98 1752.17 1304.13 1754.31 1299.31 1745.33 1293.69 1737.91 1286.09 1730.77 1278.36 1728.43 1283.12 1722.92 1288.26 1725.61 1293.89M1758.82 1297.92C1753.55 1301.9 1751.9 1308.58 1750.65 1314.7 1761.69 1307.7 1771.47 1298.86 1780.44 1289.4 1783.68 1286.58 1782.47 1281.99 1782.76 1278.23 1774.27 1284.17 1766.88 1291.47 1758.82 1297.92Z" fill="#000000" fill-rule="nonzero" fill-opacity="1"/><path d="M1780.24 1234.69C1783.88 1231.84 1787.49 1228.72 1791.9 1227.12 1800.86 1231.08 1807.28 1238.91 1814.67 1245.1 1805.32 1255.51 1794.29 1264.21 1784.28 1273.96 1775.04 1267.58 1766.64 1260.07 1758.82 1252.01 1765.78 1246.01 1773.12 1240.5 1780.24 1234.69Z" fill="#00A2E8" fill-rule="nonzero" fill-opacity="1"/><path d="M1792.87 1267.4C1800.5 1261.06 1807.06 1253.36 1815.83 1248.49 1814.79 1254.71 1813.29 1261.35 1808.43 1265.8 1800.89 1272.95 1792.57 1279.32 1783.82 1284.93 1784.15 1281.83 1783.85 1278.55 1785.05 1275.62 1786.99 1272.32 1790.06 1269.93 1792.87 1267.4Z" fill="#00A2E8" fill-rule="nonzero" fill-opacity="1"/><path d="M1731.62 1276.55C1739.75 1267.95 1748.9 1260.45 1757.58 1252.43 1765.62 1260.32 1774.27 1267.55 1782.7 1275.01 1775.12 1281.67 1768.09 1288.99 1760 1295.07 1758.11 1296.22 1755.88 1298.37 1753.53 1297.01 1744.48 1292.46 1737.67 1284.49 1731.62 1276.55Z" fill="#FFB3D9" fill-rule="nonzero" fill-opacity="1"/><path d="M1725.61 1293.89C1722.92 1288.26 1728.43 1283.12 1730.77 1278.36 1737.91 1286.09 1745.33 1293.69 1754.31 1299.31 1752.17 1304.13 1750.07 1308.98 1748.02 1313.83 1739.59 1308.45 1731.17 1302.36 1725.61 1293.89Z" fill="#FFB3D9" fill-rule="nonzero" fill-opacity="1"/><path d="M1758.82 1297.92C1766.88 1291.47 1774.27 1284.17 1782.76 1278.23 1782.47 1281.99 1783.68 1286.58 1780.44 1289.4 1771.47 1298.86 1761.69 1307.7 1750.65 1314.7 1751.9 1308.58 1753.55 1301.9 1758.82 1297.92Z" fill="#FFB3D9" fill-rule="nonzero" fill-opacity="1"/></g></g></g><g clip-path="url(#clip64)"><g clip-path="url(#clip65)"><g clip-path="url(#clip66)"><path d="M1683.56 1226.01C1688.09 1225.02 1691.75 1229 1695.13 1231.42 1699.92 1235.69 1705.63 1239.09 1709.46 1244.33 1713.09 1249.62 1710.87 1256.33 1708.23 1261.52 1705.04 1268.19 1698.29 1271.81 1692.77 1276.3 1678.38 1287.11 1666.72 1301.02 1652.45 1311.98 1649.77 1313.84 1646.68 1316.75 1643.17 1315.36 1634.88 1312.42 1628.33 1306.14 1622.22 1300.05 1619.15 1296.6 1614.66 1291.99 1617.34 1287.05 1621.74 1274.68 1632.84 1267.07 1642.07 1258.51 1652.36 1249.1 1663.75 1241.01 1674.47 1232.11 1677.33 1229.87 1680.12 1227.36 1683.56 1226.01M1674.24 1234.69C1667.12 1240.5 1659.78 1246.01 1652.82 1252.01 1660.64 1260.07 1669.04 1267.58 1678.28 1273.96 1688.29 1264.21 1699.32 1255.51 1708.67 1245.1 1701.28 1238.91 1694.86 1231.08 1685.9 1227.12 1681.49 1228.72 1677.88 1231.84 1674.24 1234.69M1686.87 1267.4C1684.06 1269.93 1680.99 1272.32 1679.05 1275.62 1677.85 1278.55 1678.15 1281.83 1677.82 1284.93 1686.57 1279.32 1694.89 1272.95 1702.43 1265.8 1707.29 1261.35 1708.79 1254.71 1709.83 1248.49 1701.06 1253.36 1694.5 1261.06 1686.87 1267.4M1625.62 1276.55C1631.67 1284.49 1638.48 1292.46 1647.53 1297.01 1649.88 1298.37 1652.11 1296.22 1654 1295.07 1662.09 1288.99 1669.12 1281.67 1676.7 1275.01 1668.27 1267.55 1659.62 1260.32 1651.58 1252.43 1642.9 1260.45 1633.75 1267.95 1625.62 1276.55M1619.61 1293.89C1625.17 1302.36 1633.59 1308.45 1642.02 1313.83 1644.07 1308.98 1646.17 1304.13 1648.31 1299.31 1639.33 1293.69 1631.91 1286.09 1624.77 1278.36 1622.43 1283.12 1616.92 1288.26 1619.61 1293.89M1652.82 1297.92C1647.55 1301.9 1645.9 1308.58 1644.65 1314.7 1655.69 1307.7 1665.47 1298.86 1674.44 1289.4 1677.68 1286.58 1676.47 1281.99 1676.76 1278.23 1668.27 1284.17 1660.88 1291.47 1652.82 1297.92Z" fill="#000000" fill-rule="nonzero" fill-opacity="1"/><path d="M1674.24 1234.69C1677.88 1231.84 1681.49 1228.72 1685.9 1227.12 1694.86 1231.08 1701.28 1238.91 1708.67 1245.1 1699.32 1255.51 1688.29 1264.21 1678.28 1273.96 1669.04 1267.58 1660.64 1260.07 1652.82 1252.01 1659.78 1246.01 1667.12 1240.5 1674.24 1234.69Z" fill="#00A2E8" fill-rule="nonzero" fill-opacity="1"/><path d="M1686.87 1267.4C1694.5 1261.06 1701.06 1253.36 1709.83 1248.49 1708.79 1254.71 1707.29 1261.35 1702.43 1265.8 1694.89 1272.95 1686.57 1279.32 1677.82 1284.93 1678.15 1281.83 1677.85 1278.55 1679.05 1275.62 1680.99 1272.32 1684.06 1269.93 1686.87 1267.4Z" fill="#00A2E8" fill-rule="nonzero" fill-opacity="1"/><path d="M1625.62 1276.55C1633.75 1267.95 1642.9 1260.45 1651.58 1252.43 1659.62 1260.32 1668.27 1267.55 1676.7 1275.01 1669.12 1281.67 1662.09 1288.99 1654 1295.07 1652.11 1296.22 1649.88 1298.37 1647.53 1297.01 1638.48 1292.46 1631.67 1284.49 1625.62 1276.55Z" fill="#FFB3D9" fill-rule="nonzero" fill-opacity="1"/><path d="M1619.61 1293.89C1616.92 1288.26 1622.43 1283.12 1624.77 1278.36 1631.91 1286.09 1639.33 1293.69 1648.31 1299.31 1646.17 1304.13 1644.07 1308.98 1642.02 1313.83 1633.59 1308.45 1625.17 1302.36 1619.61 1293.89Z" fill="#FFB3D9" fill-rule="nonzero" fill-opacity="1"/><path d="M1652.82 1297.92C1660.88 1291.47 1668.27 1284.17 1676.76 1278.23 1676.47 1281.99 1677.68 1286.58 1674.44 1289.4 1665.47 1298.86 1655.69 1307.7 1644.65 1314.7 1645.9 1308.58 1647.55 1301.9 1652.82 1297.92Z" fill="#FFB3D9" fill-rule="nonzero" fill-opacity="1"/></g></g></g><g clip-path="url(#clip67)"><g clip-path="url(#clip68)"><g clip-path="url(#clip69)"><path d="M1899.56 1226.01C1904.09 1225.02 1907.75 1229 1911.13 1231.42 1915.92 1235.69 1921.63 1239.09 1925.46 1244.33 1929.09 1249.62 1926.87 1256.33 1924.23 1261.52 1921.04 1268.19 1914.29 1271.81 1908.77 1276.3 1894.38 1287.11 1882.72 1301.02 1868.45 1311.98 1865.77 1313.84 1862.68 1316.75 1859.17 1315.36 1850.88 1312.42 1844.33 1306.14 1838.22 1300.05 1835.15 1296.6 1830.66 1291.99 1833.34 1287.05 1837.74 1274.68 1848.84 1267.07 1858.07 1258.51 1868.36 1249.1 1879.75 1241.01 1890.47 1232.11 1893.33 1229.87 1896.12 1227.36 1899.56 1226.01M1890.24 1234.69C1883.12 1240.5 1875.78 1246.01 1868.82 1252.01 1876.64 1260.07 1885.04 1267.58 1894.28 1273.96 1904.29 1264.21 1915.32 1255.51 1924.67 1245.1 1917.28 1238.91 1910.86 1231.08 1901.9 1227.12 1897.49 1228.72 1893.88 1231.84 1890.24 1234.69M1902.87 1267.4C1900.06 1269.93 1896.99 1272.32 1895.05 1275.62 1893.85 1278.55 1894.15 1281.83 1893.82 1284.93 1902.57 1279.32 1910.89 1272.95 1918.43 1265.8 1923.29 1261.35 1924.79 1254.71 1925.83 1248.49 1917.06 1253.36 1910.5 1261.06 1902.87 1267.4M1841.62 1276.55C1847.67 1284.49 1854.48 1292.46 1863.53 1297.01 1865.88 1298.37 1868.11 1296.22 1870 1295.07 1878.09 1288.99 1885.12 1281.67 1892.7 1275.01 1884.27 1267.55 1875.62 1260.32 1867.58 1252.43 1858.9 1260.45 1849.75 1267.95 1841.62 1276.55M1835.61 1293.89C1841.17 1302.36 1849.59 1308.45 1858.02 1313.83 1860.07 1308.98 1862.17 1304.13 1864.31 1299.31 1855.33 1293.69 1847.91 1286.09 1840.77 1278.36 1838.43 1283.12 1832.92 1288.26 1835.61 1293.89M1868.82 1297.92C1863.55 1301.9 1861.9 1308.58 1860.65 1314.7 1871.69 1307.7 1881.47 1298.86 1890.44 1289.4 1893.68 1286.58 1892.47 1281.99 1892.76 1278.23 1884.27 1284.17 1876.88 1291.47 1868.82 1297.92Z" fill="#000000" fill-rule="nonzero" fill-opacity="1"/><path d="M1890.24 1234.69C1893.88 1231.84 1897.49 1228.72 1901.9 1227.12 1910.86 1231.08 1917.28 1238.91 1924.67 1245.1 1915.32 1255.51 1904.29 1264.21 1894.28 1273.96 1885.04 1267.58 1876.64 1260.07 1868.82 1252.01 1875.78 1246.01 1883.12 1240.5 1890.24 1234.69Z" fill="#00A2E8" fill-rule="nonzero" fill-opacity="1"/><path d="M1902.87 1267.4C1910.5 1261.06 1917.06 1253.36 1925.83 1248.49 1924.79 1254.71 1923.29 1261.35 1918.43 1265.8 1910.89 1272.95 1902.57 1279.32 1893.82 1284.93 1894.15 1281.83 1893.85 1278.55 1895.05 1275.62 1896.99 1272.32 1900.06 1269.93 1902.87 1267.4Z" fill="#00A2E8" fill-rule="nonzero" fill-opacity="1"/><path d="M1841.62 1276.55C1849.75 1267.95 1858.9 1260.45 1867.58 1252.43 1875.62 1260.32 1884.27 1267.55 1892.7 1275.01 1885.12 1281.67 1878.09 1288.99 1870 1295.07 1868.11 1296.22 1865.88 1298.37 1863.53 1297.01 1854.48 1292.46 1847.67 1284.49 1841.62 1276.55Z" fill="#FFB3D9" fill-rule="nonzero" fill-opacity="1"/><path d="M1835.61 1293.89C1832.92 1288.26 1838.43 1283.12 1840.77 1278.36 1847.91 1286.09 1855.33 1293.69 1864.31 1299.31 1862.17 1304.13 1860.07 1308.98 1858.02 1313.83 1849.59 1308.45 1841.17 1302.36 1835.61 1293.89Z" fill="#FFB3D9" fill-rule="nonzero" fill-opacity="1"/><path d="M1868.82 1297.92C1876.88 1291.47 1884.27 1284.17 1892.76 1278.23 1892.47 1281.99 1893.68 1286.58 1890.44 1289.4 1881.47 1298.86 1871.69 1307.7 1860.65 1314.7 1861.9 1308.58 1863.55 1301.9 1868.82 1297.92Z" fill="#FFB3D9" fill-rule="nonzero" fill-opacity="1"/></g></g></g></g></svg>