<svg width="1187" height="257" xmlns="http://www.w3.org/2000/svg" xmlns:xlink="http://www.w3.org/1999/xlink" xml:space="preserve" overflow="hidden"><defs><clipPath id="clip0"><rect x="1608" y="1003" width="1187" height="257"/></clipPath><clipPath id="clip1"><rect x="1716" y="1006" width="109" height="111"/></clipPath><clipPath id="clip2"><rect x="1716" y="1006" width="109" height="111"/></clipPath><clipPath id="clip3"><rect x="1716" y="1006" width="109" height="111"/></clipPath><clipPath id="clip4"><rect x="1610" y="1006" width="110" height="111"/></clipPath><clipPath id="clip5"><rect x="1610" y="1006" width="110" height="111"/></clipPath><clipPath id="clip6"><rect x="1610" y="1006" width="110" height="111"/></clipPath><clipPath id="clip7"><rect x="1931" y="1006" width="110" height="111"/></clipPath><clipPath id="clip8"><rect x="1931" y="1006" width="110" height="111"/></clipPath><clipPath id="clip9"><rect x="1931" y="1006" width="110" height="111"/></clipPath><clipPath id="clip10"><rect x="1826" y="1006" width="109" height="111"/></clipPath><clipPath id="clip11"><rect x="1826" y="1006" width="109" height="111"/></clipPath><clipPath id="clip12"><rect x="1826" y="1006" width="109" height="111"/></clipPath><clipPath id="clip13"><rect x="2038" y="1006" width="110" height="111"/></clipPath><clipPath id="clip14"><rect x="2038" y="1006" width="110" height="111"/></clipPath><clipPath id="clip15"><rect x="2038" y="1006" width="110" height="111"/></clipPath><clipPath id="clip16"><rect x="2361" y="1007" width="110" height="111"/></clipPath><clipPath id="clip17"><rect x="2361" y="1007" width="110" height="111"/></clipPath><clipPath id="clip18"><rect x="2361" y="1007" width="110" height="111"/></clipPath><clipPath id="clip19"><rect x="2256" y="1007" width="109" height="111"/></clipPath><clipPath id="clip20"><rect x="2256" y="1007" width="109" height="111"/></clipPath><clipPath id="clip21"><rect x="2256" y="1007" width="109" height="111"/></clipPath><clipPath id="clip22"><rect x="2578" y="1007" width="111" height="111"/></clipPath><clipPath id="clip23"><rect x="2578" y="1007" width="111" height="111"/></clipPath><clipPath id="clip24"><rect x="2578" y="1007" width="111" height="111"/></clipPath><clipPath id="clip25"><rect x="2471" y="1007" width="110" height="111"/></clipPath><clipPath id="clip26"><rect x="2471" y="1007" width="110" height="111"/></clipPath><clipPath id="clip27"><rect x="2471" y="1007" width="110" height="111"/></clipPath><clipPath id="clip28"><rect x="2685" y="1007" width="109" height="111"/></clipPath><clipPath id="clip29"><rect x="2685" y="1007" width="109" height="111"/></clipPath><clipPath id="clip30"><rect x="2685" y="1007" width="109" height="111"/></clipPath><clipPath id="clip31"><rect x="1716" y="1149" width="109" height="110"/></clipPath><clipPath id="clip32"><rect x="1716" y="1149" width="109" height="110"/></clipPath><clipPath id="clip33"><rect x="1716" y="1149" width="109" height="110"/></clipPath><clipPath id="clip34"><rect x="1610" y="1149" width="110" height="110"/></clipPath><clipPath id="clip35"><rect x="1610" y="1149" width="110" height="110"/></clipPath><clipPath id="clip36"><rect x="1610" y="1149" width="110" height="110"/></clipPath></defs><g clip-path="url(#clip0)" transform="translate(-1608 -1003)"><g clip-path="url(#clip1)"><g clip-path="url(#clip2)"><g clip-path="url(#clip3)"><path d="M76.5581 14.0122C81.0902 13.0226 84.7475 16.9954 88.1322 19.4192 92.9225 23.6932 98.6306 27.0922 102.46 32.3271 106.089 37.6193 103.865 44.3314 101.227 49.5233 98.0426 56.1924 91.2875 59.8066 85.7658 64.2956 71.3806 75.1096 59.7205 89.0214 45.4501 99.9788 42.7681 101.843 39.6846 104.755 36.1708 103.364 27.881 100.423 21.3267 94.1415 15.217 88.0462 12.1478 84.6041 7.65868 79.9859 10.3407 75.0522 14.7437 62.675 25.8445 55.0737 35.0664 46.5114 45.3641 37.103 56.7517 29.0141 67.4652 20.1076 70.3337 17.8703 73.116 15.3604 76.5581 14.0122M67.2358 22.6892C60.1221 28.4978 52.7789 34.0051 45.823 40.0145 53.6395 48.0747 62.0439 55.5756 71.2802 61.9579 81.291 52.2052 92.3201 43.5139 101.671 33.1016 94.285 26.9058 87.8597 19.075 78.8959 15.1166 74.4929 16.7229 70.8787 19.8351 67.2358 22.6892M79.8712 55.4035C77.0601 57.9277 73.9909 60.3229 72.0547 63.6216 70.85 66.5473 71.1512 69.8317 70.8213 72.9296 79.57 67.3218 87.8884 60.9539 95.4323 53.7972 100.294 49.3512 101.786 42.7108 102.833 36.4863 94.0555 41.3626 87.5012 49.0643 79.8712 55.4035M18.616 64.5538C24.6684 72.485 31.4809 80.4592 40.5308 85.0056 42.8829 86.3681 45.1059 84.2168 46.9991 83.0694 55.088 76.9884 62.1156 69.6739 69.7026 63.0048 61.2695 55.547 52.6212 48.3185 44.5752 40.4304 35.8983 48.4476 26.748 55.9485 18.616 64.5538M12.6067 81.8934C18.1714 90.3552 26.5903 96.4506 35.0234 101.829 37.0743 96.9813 39.1683 92.1337 41.3052 87.3147 32.3271 81.6926 24.9122 74.0913 17.7699 66.3609 15.4321 71.1225 9.92473 76.2569 12.6067 81.8934M45.823 85.9235C40.5451 89.8963 38.8958 96.5797 37.648 102.704 48.6914 95.7048 58.4727 86.8558 67.4366 77.4043 70.6779 74.5789 69.4731 69.9894 69.76 66.2318 61.2695 72.1694 53.8833 79.4696 45.823 85.9235Z" fill="#000000" fill-rule="nonzero" fill-opacity="1" transform="matrix(1 0 0 1 1716 1007)"/><path d="M67.2358 22.6892C70.8787 19.8351 74.4929 16.7229 78.8959 15.1166 87.8597 19.075 94.285 26.9058 101.671 33.1016 92.3201 43.5139 81.291 52.2052 71.2802 61.9579 62.0439 55.5756 53.6395 48.0747 45.823 40.0145 52.7789 34.0051 60.1221 28.4978 67.2358 22.6892Z" fill="#00A2E8" fill-rule="nonzero" fill-opacity="1" transform="matrix(1 0 0 1 1716 1007)"/><path d="M79.8712 55.4035C87.5012 49.0643 94.0555 41.3626 102.833 36.4863 101.786 42.7108 100.294 49.3512 95.4323 53.7972 87.8884 60.9539 79.57 67.3218 70.8213 72.9296 71.1512 69.8317 70.85 66.5473 72.0547 63.6216 73.9909 60.3229 77.0601 57.9277 79.8712 55.4035Z" fill="#00A2E8" fill-rule="nonzero" fill-opacity="1" transform="matrix(1 0 0 1 1716 1007)"/><path d="M18.616 64.5538C26.748 55.9485 35.8983 48.4476 44.5752 40.4304 52.6212 48.3185 61.2695 55.547 69.7026 63.0048 62.1156 69.6739 55.088 76.9884 46.9991 83.0694 45.1059 84.2168 42.8829 86.3681 40.5308 85.0056 31.4809 80.4592 24.6684 72.485 18.616 64.5538Z" fill="#FFB3D9" fill-rule="nonzero" fill-opacity="1" transform="matrix(1 0 0 1 1716 1007)"/><path d="M12.6067 81.8934C9.92473 76.2569 15.4321 71.1225 17.7699 66.3609 24.9122 74.0913 32.3271 81.6926 41.3052 87.3147 39.1683 92.1337 37.0743 96.9813 35.0234 101.829 26.5903 96.4506 18.1714 90.3552 12.6067 81.8934Z" fill="#FFB3D9" fill-rule="nonzero" fill-opacity="1" transform="matrix(1 0 0 1 1716 1007)"/><path d="M45.823 85.9235C53.8833 79.4696 61.2695 72.1694 69.76 66.2318 69.4731 69.9894 70.6779 74.5789 67.4366 77.4043 58.4727 86.8558 48.6914 95.7048 37.648 102.704 38.8958 96.5797 40.5451 89.8963 45.823 85.9235Z" fill="#FFB3D9" fill-rule="nonzero" fill-opacity="1" transform="matrix(1 0 0 1 1716 1007)"/></g></g></g><g clip-path="url(#clip4)"><g clip-path="url(#clip5)"><g clip-path="url(#clip6)"><path d="M76.5581 14.0122C81.0902 13.0226 84.7475 16.9954 88.1322 19.4192 92.9225 23.6932 98.6306 27.0922 102.46 32.3271 106.089 37.6193 103.865 44.3314 101.227 49.5233 98.0426 56.1924 91.2875 59.8066 85.7658 64.2956 71.3806 75.1096 59.7205 89.0214 45.4501 99.9788 42.7681 101.843 39.6846 104.755 36.1708 103.364 27.881 100.423 21.3267 94.1415 15.217 88.0462 12.1478 84.6041 7.65868 79.9859 10.3407 75.0522 14.7437 62.675 25.8445 55.0737 35.0664 46.5114 45.3641 37.103 56.7517 29.0141 67.4652 20.1076 70.3337 17.8703 73.116 15.3604 76.5581 14.0122M67.2358 22.6892C60.1221 28.4978 52.7789 34.0051 45.823 40.0145 53.6395 48.0747 62.0439 55.5756 71.2802 61.9579 81.291 52.2052 92.3201 43.5139 101.671 33.1016 94.285 26.9058 87.8597 19.075 78.8959 15.1166 74.4929 16.7229 70.8787 19.8351 67.2358 22.6892M79.8712 55.4035C77.0601 57.9277 73.9909 60.3229 72.0547 63.6216 70.85 66.5473 71.1512 69.8317 70.8213 72.9296 79.57 67.3218 87.8884 60.9539 95.4323 53.7972 100.294 49.3512 101.786 42.7108 102.833 36.4863 94.0555 41.3626 87.5012 49.0643 79.8712 55.4035M18.616 64.5538C24.6684 72.485 31.4809 80.4592 40.5308 85.0056 42.8829 86.3681 45.1059 84.2168 46.9991 83.0694 55.088 76.9884 62.1156 69.6739 69.7026 63.0048 61.2695 55.547 52.6212 48.3185 44.5752 40.4304 35.8983 48.4476 26.748 55.9485 18.616 64.5538M12.6067 81.8934C18.1714 90.3552 26.5903 96.4506 35.0234 101.829 37.0743 96.9813 39.1683 92.1337 41.3052 87.3147 32.3271 81.6926 24.9122 74.0913 17.7699 66.3609 15.4321 71.1225 9.92473 76.2569 12.6067 81.8934M45.823 85.9235C40.5451 89.8963 38.8958 96.5797 37.648 102.704 48.6914 95.7048 58.4727 86.8558 67.4366 77.4043 70.6779 74.5789 69.4731 69.9894 69.76 66.2318 61.2695 72.1694 53.8833 79.4696 45.823 85.9235Z" fill="#000000" fill-rule="nonzero" fill-opacity="1" transform="matrix(1 0 0 1 1610 1007)"/><path d="M67.2358 22.6892C70.8787 19.8351 74.4929 16.7229 78.8959 15.1166 87.8597 19.075 94.285 26.9058 101.671 33.1016 92.3201 43.5139 81.291 52.2052 71.2802 61.9579 62.0439 55.5756 53.6395 48.0747 45.823 40.0145 52.7789 34.0051 60.1221 28.4978 67.2358 22.6892Z" fill="#00A2E8" fill-rule="nonzero" fill-opacity="1" transform="matrix(1 0 0 1 1610 1007)"/><path d="M79.8712 55.4035C87.5012 49.0643 94.0555 41.3626 102.833 36.4863 101.786 42.7108 100.294 49.3512 95.4323 53.7972 87.8884 60.9539 79.57 67.3218 70.8213 72.9296 71.1512 69.8317 70.85 66.5473 72.0547 63.6216 73.9909 60.3229 77.0601 57.9277 79.8712 55.4035Z" fill="#00A2E8" fill-rule="nonzero" fill-opacity="1" transform="matrix(1 0 0 1 1610 1007)"/><path d="M18.616 64.5538C26.748 55.9485 35.8983 48.4476 44.5752 40.4304 52.6212 48.3185 61.2695 55.547 69.7026 63.0048 62.1156 69.6739 55.088 76.9884 46.9991 83.0694 45.1059 84.2168 42.8829 86.3681 40.5308 85.0056 31.4809 80.4592 24.6684 72.485 18.616 64.5538Z" fill="#FFB3D9" fill-rule="nonzero" fill-opacity="1" transform="matrix(1 0 0 1 1610 1007)"/><path d="M12.6067 81.8934C9.92473 76.2569 15.4321 71.1225 17.7699 66.3609 24.9122 74.0913 32.3271 81.6926 41.3052 87.3147 39.1683 92.1337 37.0743 96.9813 35.0234 101.829 26.5903 96.4506 18.1714 90.3552 12.6067 81.8934Z" fill="#FFB3D9" fill-rule="nonzero" fill-opacity="1" transform="matrix(1 0 0 1 1610 1007)"/><path d="M45.823 85.9235C53.8833 79.4696 61.2695 72.1694 69.76 66.2318 69.4731 69.9894 70.6779 74.5789 67.4366 77.4043 58.4727 86.8558 48.6914 95.7048 37.648 102.704 38.8958 96.5797 40.5451 89.8963 45.823 85.9235Z" fill="#FFB3D9" fill-rule="nonzero" fill-opacity="1" transform="matrix(1 0 0 1 1610 1007)"/></g></g></g><g clip-path="url(#clip7)"><g clip-path="url(#clip8)"><g clip-path="url(#clip9)"><path d="M76.5581 14.0122C81.0902 13.0226 84.7475 16.9954 88.1322 19.4192 92.9225 23.6932 98.6306 27.0922 102.46 32.3271 106.089 37.6193 103.865 44.3314 101.227 49.5233 98.0426 56.1924 91.2875 59.8066 85.7658 64.2956 71.3806 75.1096 59.7205 89.0214 45.4501 99.9788 42.7681 101.843 39.6846 104.755 36.1708 103.364 27.881 100.423 21.3267 94.1415 15.217 88.0462 12.1478 84.6041 7.65868 79.9859 10.3407 75.0522 14.7437 62.675 25.8445 55.0737 35.0664 46.5114 45.3641 37.103 56.7517 29.0141 67.4652 20.1076 70.3337 17.8703 73.116 15.3604 76.5581 14.0122M67.2358 22.6892C60.1221 28.4978 52.7789 34.0051 45.823 40.0145 53.6395 48.0747 62.0439 55.5756 71.2802 61.9579 81.291 52.2052 92.3201 43.5139 101.671 33.1016 94.285 26.9058 87.8597 19.075 78.8959 15.1166 74.4929 16.7229 70.8787 19.8351 67.2358 22.6892M79.8712 55.4035C77.0601 57.9277 73.9909 60.3229 72.0547 63.6216 70.85 66.5473 71.1512 69.8317 70.8213 72.9296 79.57 67.3218 87.8884 60.9539 95.4323 53.7972 100.294 49.3512 101.786 42.7108 102.833 36.4863 94.0555 41.3626 87.5012 49.0643 79.8712 55.4035M18.616 64.5538C24.6684 72.485 31.4809 80.4592 40.5308 85.0056 42.8829 86.3681 45.1059 84.2168 46.9991 83.0694 55.088 76.9884 62.1156 69.6739 69.7026 63.0048 61.2695 55.547 52.6212 48.3185 44.5752 40.4304 35.8983 48.4476 26.748 55.9485 18.616 64.5538M12.6067 81.8934C18.1714 90.3552 26.5903 96.4506 35.0234 101.829 37.0743 96.9813 39.1683 92.1337 41.3052 87.3147 32.3271 81.6926 24.9122 74.0913 17.7699 66.3609 15.4321 71.1225 9.92473 76.2569 12.6067 81.8934M45.823 85.9235C40.5451 89.8963 38.8958 96.5797 37.648 102.704 48.6914 95.7048 58.4727 86.8558 67.4366 77.4043 70.6779 74.5789 69.4731 69.9894 69.76 66.2318 61.2695 72.1694 53.8833 79.4696 45.823 85.9235Z" fill="#000000" fill-rule="nonzero" fill-opacity="1" transform="matrix(1 0 0 1 1932 1007)"/><path d="M67.2358 22.6892C70.8787 19.8351 74.4929 16.7229 78.8959 15.1166 87.8597 19.075 94.285 26.9058 101.671 33.1016 92.3201 43.5139 81.291 52.2052 71.2802 61.9579 62.0439 55.5756 53.6395 48.0747 45.823 40.0145 52.7789 34.0051 60.1221 28.4978 67.2358 22.6892Z" fill="#00A2E8" fill-rule="nonzero" fill-opacity="1" transform="matrix(1 0 0 1 1932 1007)"/><path d="M79.8712 55.4035C87.5012 49.0643 94.0555 41.3626 102.833 36.4863 101.786 42.7108 100.294 49.3512 95.4323 53.7972 87.8884 60.9539 79.57 67.3218 70.8213 72.9296 71.1512 69.8317 70.85 66.5473 72.0547 63.6216 73.9909 60.3229 77.0601 57.9277 79.8712 55.4035Z" fill="#00A2E8" fill-rule="nonzero" fill-opacity="1" transform="matrix(1 0 0 1 1932 1007)"/><path d="M18.616 64.5538C26.748 55.9485 35.8983 48.4476 44.5752 40.4304 52.6212 48.3185 61.2695 55.547 69.7026 63.0048 62.1156 69.6739 55.088 76.9884 46.9991 83.0694 45.1059 84.2168 42.8829 86.3681 40.5308 85.0056 31.4809 80.4592 24.6684 72.485 18.616 64.5538Z" fill="#FFB3D9" fill-rule="nonzero" fill-opacity="1" transform="matrix(1 0 0 1 1932 1007)"/><path d="M12.6067 81.8934C9.92473 76.2569 15.4321 71.1225 17.7699 66.3609 24.9122 74.0913 32.3271 81.6926 41.3052 87.3147 39.1683 92.1337 37.0743 96.9813 35.0234 101.829 26.5903 96.4506 18.1714 90.3552 12.6067 81.8934Z" fill="#FFB3D9" fill-rule="nonzero" fill-opacity="1" transform="matrix(1 0 0 1 1932 1007)"/><path d="M45.823 85.9235C53.8833 79.4696 61.2695 72.1694 69.76 66.2318 69.4731 69.9894 70.6779 74.5789 67.4366 77.4043 58.4727 86.8558 48.6914 95.7048 37.648 102.704 38.8958 96.5797 40.5451 89.8963 45.823 85.9235Z" fill="#FFB3D9" fill-rule="nonzero" fill-opacity="1" transform="matrix(1 0 0 1 1932 1007)"/></g></g></g><g clip-path="url(#clip10)"><g clip-path="url(#clip11)"><g clip-path="url(#clip12)"><path d="M76.5581 14.0122C81.0902 13.0226 84.7475 16.9954 88.1322 19.4192 92.9225 23.6932 98.6306 27.0922 102.46 32.3271 106.089 37.6193 103.865 44.3314 101.227 49.5233 98.0426 56.1924 91.2875 59.8066 85.7658 64.2956 71.3806 75.1096 59.7205 89.0214 45.4501 99.9788 42.7681 101.843 39.6846 104.755 36.1708 103.364 27.881 100.423 21.3267 94.1415 15.217 88.0462 12.1478 84.6041 7.65868 79.9859 10.3407 75.0522 14.7437 62.675 25.8445 55.0737 35.0664 46.5114 45.3641 37.103 56.7517 29.0141 67.4652 20.1076 70.3337 17.8703 73.116 15.3604 76.5581 14.0122M67.2358 22.6892C60.1221 28.4978 52.7789 34.0051 45.823 40.0145 53.6395 48.0747 62.0439 55.5756 71.2802 61.9579 81.291 52.2052 92.3201 43.5139 101.671 33.1016 94.285 26.9058 87.8597 19.075 78.8959 15.1166 74.4929 16.7229 70.8787 19.8351 67.2358 22.6892M79.8712 55.4035C77.0601 57.9277 73.9909 60.3229 72.0547 63.6216 70.85 66.5473 71.1512 69.8317 70.8213 72.9296 79.57 67.3218 87.8884 60.9539 95.4323 53.7972 100.294 49.3512 101.786 42.7108 102.833 36.4863 94.0555 41.3626 87.5012 49.0643 79.8712 55.4035M18.616 64.5538C24.6684 72.485 31.4809 80.4592 40.5308 85.0056 42.8829 86.3681 45.1059 84.2168 46.9991 83.0694 55.088 76.9884 62.1156 69.6739 69.7026 63.0048 61.2695 55.547 52.6212 48.3185 44.5752 40.4304 35.8983 48.4476 26.748 55.9485 18.616 64.5538M12.6067 81.8934C18.1714 90.3552 26.5903 96.4506 35.0234 101.829 37.0743 96.9813 39.1683 92.1337 41.3052 87.3147 32.3271 81.6926 24.9122 74.0913 17.7699 66.3609 15.4321 71.1225 9.92473 76.2569 12.6067 81.8934M45.823 85.9235C40.5451 89.8963 38.8958 96.5797 37.648 102.704 48.6914 95.7048 58.4727 86.8558 67.4366 77.4043 70.6779 74.5789 69.4731 69.9894 69.76 66.2318 61.2695 72.1694 53.8833 79.4696 45.823 85.9235Z" fill="#000000" fill-rule="nonzero" fill-opacity="1" transform="matrix(1 0 0 1 1826 1007)"/><path d="M67.2358 22.6892C70.8787 19.8351 74.4929 16.7229 78.8959 15.1166 87.8597 19.075 94.285 26.9058 101.671 33.1016 92.3201 43.5139 81.291 52.2052 71.2802 61.9579 62.0439 55.5756 53.6395 48.0747 45.823 40.0145 52.7789 34.0051 60.1221 28.4978 67.2358 22.6892Z" fill="#00A2E8" fill-rule="nonzero" fill-opacity="1" transform="matrix(1 0 0 1 1826 1007)"/><path d="M79.8712 55.4035C87.5012 49.0643 94.0555 41.3626 102.833 36.4863 101.786 42.7108 100.294 49.3512 95.4323 53.7972 87.8884 60.9539 79.57 67.3218 70.8213 72.9296 71.1512 69.8317 70.85 66.5473 72.0547 63.6216 73.9909 60.3229 77.0601 57.9277 79.8712 55.4035Z" fill="#00A2E8" fill-rule="nonzero" fill-opacity="1" transform="matrix(1 0 0 1 1826 1007)"/><path d="M18.616 64.5538C26.748 55.9485 35.8983 48.4476 44.5752 40.4304 52.6212 48.3185 61.2695 55.547 69.7026 63.0048 62.1156 69.6739 55.088 76.9884 46.9991 83.0694 45.1059 84.2168 42.8829 86.3681 40.5308 85.0056 31.4809 80.4592 24.6684 72.485 18.616 64.5538Z" fill="#FFB3D9" fill-rule="nonzero" fill-opacity="1" transform="matrix(1 0 0 1 1826 1007)"/><path d="M12.6067 81.8934C9.92473 76.2569 15.4321 71.1225 17.7699 66.3609 24.9122 74.0913 32.3271 81.6926 41.3052 87.3147 39.1683 92.1337 37.0743 96.9813 35.0234 101.829 26.5903 96.4506 18.1714 90.3552 12.6067 81.8934Z" fill="#FFB3D9" fill-rule="nonzero" fill-opacity="1" transform="matrix(1 0 0 1 1826 1007)"/><path d="M45.823 85.9235C53.8833 79.4696 61.2695 72.1694 69.76 66.2318 69.4731 69.9894 70.6779 74.5789 67.4366 77.4043 58.4727 86.8558 48.6914 95.7048 37.648 102.704 38.8958 96.5797 40.5451 89.8963 45.823 85.9235Z" fill="#FFB3D9" fill-rule="nonzero" fill-opacity="1" transform="matrix(1 0 0 1 1826 1007)"/></g></g></g><g clip-path="url(#clip13)"><g clip-path="url(#clip14)"><g clip-path="url(#clip15)"><path d="M76.5581 14.0122C81.0902 13.0226 84.7475 16.9954 88.1322 19.4192 92.9225 23.6932 98.6306 27.0922 102.46 32.3271 106.089 37.6193 103.865 44.3314 101.227 49.5233 98.0426 56.1924 91.2875 59.8066 85.7658 64.2956 71.3806 75.1096 59.7205 89.0214 45.4501 99.9788 42.7681 101.843 39.6846 104.755 36.1708 103.364 27.881 100.423 21.3267 94.1415 15.217 88.0462 12.1478 84.6041 7.65868 79.9859 10.3407 75.0522 14.7437 62.675 25.8445 55.0737 35.0664 46.5114 45.3641 37.103 56.7517 29.0141 67.4652 20.1076 70.3337 17.8703 73.116 15.3604 76.5581 14.0122M67.2358 22.6892C60.1221 28.4978 52.7789 34.0051 45.823 40.0145 53.6395 48.0747 62.0439 55.5756 71.2802 61.9579 81.291 52.2052 92.3201 43.5139 101.671 33.1016 94.285 26.9058 87.8597 19.075 78.8959 15.1166 74.4929 16.7229 70.8787 19.8351 67.2358 22.6892M79.8712 55.4035C77.0601 57.9277 73.9909 60.3229 72.0547 63.6216 70.85 66.5473 71.1512 69.8317 70.8213 72.9296 79.57 67.3218 87.8884 60.9539 95.4323 53.7972 100.294 49.3512 101.786 42.7108 102.833 36.4863 94.0555 41.3626 87.5012 49.0643 79.8712 55.4035M18.616 64.5538C24.6684 72.485 31.4809 80.4592 40.5308 85.0056 42.8829 86.3681 45.1059 84.2168 46.9991 83.0694 55.088 76.9884 62.1156 69.6739 69.7026 63.0048 61.2695 55.547 52.6212 48.3185 44.5752 40.4304 35.8983 48.4476 26.748 55.9485 18.616 64.5538M12.6067 81.8934C18.1714 90.3552 26.5903 96.4506 35.0234 101.829 37.0743 96.9813 39.1683 92.1337 41.3052 87.3147 32.3271 81.6926 24.9122 74.0913 17.7699 66.3609 15.4321 71.1225 9.92473 76.2569 12.6067 81.8934M45.823 85.9235C40.5451 89.8963 38.8958 96.5797 37.648 102.704 48.6914 95.7048 58.4727 86.8558 67.4366 77.4043 70.6779 74.5789 69.4731 69.9894 69.76 66.2318 61.2695 72.1694 53.8833 79.4696 45.823 85.9235Z" fill="#000000" fill-rule="nonzero" fill-opacity="1" transform="matrix(1 0 0 1 2038 1007)"/><path d="M67.2358 22.6892C70.8787 19.8351 74.4929 16.7229 78.8959 15.1166 87.8597 19.075 94.285 26.9058 101.671 33.1016 92.3201 43.5139 81.291 52.2052 71.2802 61.9579 62.0439 55.5756 53.6395 48.0747 45.823 40.0145 52.7789 34.0051 60.1221 28.4978 67.2358 22.6892Z" fill="#00A2E8" fill-rule="nonzero" fill-opacity="1" transform="matrix(1 0 0 1 2038 1007)"/><path d="M79.8712 55.4035C87.5012 49.0643 94.0555 41.3626 102.833 36.4863 101.786 42.7108 100.294 49.3512 95.4323 53.7972 87.8884 60.9539 79.57 67.3218 70.8213 72.9296 71.1512 69.8317 70.85 66.5473 72.0547 63.6216 73.9909 60.3229 77.0601 57.9277 79.8712 55.4035Z" fill="#00A2E8" fill-rule="nonzero" fill-opacity="1" transform="matrix(1 0 0 1 2038 1007)"/><path d="M18.616 64.5538C26.748 55.9485 35.8983 48.4476 44.5752 40.4304 52.6212 48.3185 61.2695 55.547 69.7026 63.0048 62.1156 69.6739 55.088 76.9884 46.9991 83.0694 45.1059 84.2168 42.8829 86.3681 40.5308 85.0056 31.4809 80.4592 24.6684 72.485 18.616 64.5538Z" fill="#FFB3D9" fill-rule="nonzero" fill-opacity="1" transform="matrix(1 0 0 1 2038 1007)"/><path d="M12.6067 81.8934C9.92473 76.2569 15.4321 71.1225 17.7699 66.3609 24.9122 74.0913 32.3271 81.6926 41.3052 87.3147 39.1683 92.1337 37.0743 96.9813 35.0234 101.829 26.5903 96.4506 18.1714 90.3552 12.6067 81.8934Z" fill="#FFB3D9" fill-rule="nonzero" fill-opacity="1" transform="matrix(1 0 0 1 2038 1007)"/><path d="M45.823 85.9235C53.8833 79.4696 61.2695 72.1694 69.76 66.2318 69.4731 69.9894 70.6779 74.5789 67.4366 77.4043 58.4727 86.8558 48.6914 95.7048 37.648 102.704 38.8958 96.5797 40.5451 89.8963 45.823 85.9235Z" fill="#FFB3D9" fill-rule="nonzero" fill-opacity="1" transform="matrix(1 0 0 1 2038 1007)"/></g></g></g><g clip-path="url(#clip16)"><g clip-path="url(#clip17)"><g clip-path="url(#clip18)"><path d="M76.5581 14.0122C81.0902 13.0226 84.7475 16.9954 88.1322 19.4192 92.9225 23.6932 98.6306 27.0922 102.46 32.3271 106.089 37.6193 103.865 44.3314 101.227 49.5233 98.0426 56.1924 91.2875 59.8066 85.7658 64.2956 71.3806 75.1096 59.7205 89.0214 45.4501 99.9788 42.7681 101.843 39.6846 104.755 36.1708 103.364 27.881 100.423 21.3267 94.1415 15.217 88.0462 12.1478 84.6041 7.65868 79.9859 10.3407 75.0522 14.7437 62.675 25.8445 55.0737 35.0664 46.5114 45.3641 37.103 56.7517 29.0141 67.4652 20.1076 70.3337 17.8703 73.116 15.3604 76.5581 14.0122M67.2358 22.6892C60.1221 28.4978 52.7789 34.0051 45.823 40.0145 53.6395 48.0747 62.0439 55.5756 71.2802 61.9579 81.291 52.2052 92.3201 43.5139 101.671 33.1016 94.285 26.9058 87.8597 19.075 78.8959 15.1166 74.4929 16.7229 70.8787 19.8351 67.2358 22.6892M79.8712 55.4035C77.0601 57.9277 73.9909 60.3229 72.0547 63.6216 70.85 66.5473 71.1512 69.8317 70.8213 72.9296 79.57 67.3218 87.8884 60.9539 95.4323 53.7972 100.294 49.3512 101.786 42.7108 102.833 36.4863 94.0555 41.3626 87.5012 49.0643 79.8712 55.4035M18.616 64.5538C24.6684 72.485 31.4809 80.4592 40.5308 85.0056 42.8829 86.3681 45.1059 84.2168 46.9991 83.0694 55.088 76.9884 62.1156 69.6739 69.7026 63.0048 61.2695 55.547 52.6212 48.3185 44.5752 40.4304 35.8983 48.4476 26.748 55.9485 18.616 64.5538M12.6067 81.8934C18.1714 90.3552 26.5903 96.4506 35.0234 101.829 37.0743 96.9813 39.1683 92.1337 41.3052 87.3147 32.3271 81.6926 24.9122 74.0913 17.7699 66.3609 15.4321 71.1225 9.92473 76.2569 12.6067 81.8934M45.823 85.9235C40.5451 89.8963 38.8958 96.5797 37.648 102.704 48.6914 95.7048 58.4727 86.8558 67.4366 77.4043 70.6779 74.5789 69.4731 69.9894 69.76 66.2318 61.2695 72.1694 53.8833 79.4696 45.823 85.9235Z" fill="#000000" fill-rule="nonzero" fill-opacity="1" transform="matrix(1 0 0 1.00917 2362 1008)"/><path d="M67.2358 22.6892C70.8787 19.8351 74.4929 16.7229 78.8959 15.1166 87.8597 19.075 94.285 26.9058 101.671 33.1016 92.3201 43.5139 81.291 52.2052 71.2802 61.9579 62.0439 55.5756 53.6395 48.0747 45.823 40.0145 52.7789 34.0051 60.1221 28.4978 67.2358 22.6892Z" fill="#00A2E8" fill-rule="nonzero" fill-opacity="1" transform="matrix(1 0 0 1.00917 2362 1008)"/><path d="M79.8712 55.4035C87.5012 49.0643 94.0555 41.3626 102.833 36.4863 101.786 42.7108 100.294 49.3512 95.4323 53.7972 87.8884 60.9539 79.57 67.3218 70.8213 72.9296 71.1512 69.8317 70.85 66.5473 72.0547 63.6216 73.9909 60.3229 77.0601 57.9277 79.8712 55.4035Z" fill="#00A2E8" fill-rule="nonzero" fill-opacity="1" transform="matrix(1 0 0 1.00917 2362 1008)"/><path d="M18.616 64.5538C26.748 55.9485 35.8983 48.4476 44.5752 40.4304 52.6212 48.3185 61.2695 55.547 69.7026 63.0048 62.1156 69.6739 55.088 76.9884 46.9991 83.0694 45.1059 84.2168 42.8829 86.3681 40.5308 85.0056 31.4809 80.4592 24.6684 72.485 18.616 64.5538Z" fill="#FFB3D9" fill-rule="nonzero" fill-opacity="1" transform="matrix(1 0 0 1.00917 2362 1008)"/><path d="M12.6067 81.8934C9.92473 76.2569 15.4321 71.1225 17.7699 66.3609 24.9122 74.0913 32.3271 81.6926 41.3052 87.3147 39.1683 92.1337 37.0743 96.9813 35.0234 101.829 26.5903 96.4506 18.1714 90.3552 12.6067 81.8934Z" fill="#FFB3D9" fill-rule="nonzero" fill-opacity="1" transform="matrix(1 0 0 1.00917 2362 1008)"/><path d="M45.823 85.9235C53.8833 79.4696 61.2695 72.1694 69.76 66.2318 69.4731 69.9894 70.6779 74.5789 67.4366 77.4043 58.4727 86.8558 48.6914 95.7048 37.648 102.704 38.8958 96.5797 40.5451 89.8963 45.823 85.9235Z" fill="#FFB3D9" fill-rule="nonzero" fill-opacity="1" transform="matrix(1 0 0 1.00917 2362 1008)"/></g></g></g><g clip-path="url(#clip19)"><g clip-path="url(#clip20)"><g clip-path="url(#clip21)"><path d="M76.5581 14.0122C81.0902 13.0226 84.7475 16.9954 88.1322 19.4192 92.9225 23.6932 98.6306 27.0922 102.46 32.3271 106.089 37.6193 103.865 44.3314 101.227 49.5233 98.0426 56.1924 91.2875 59.8066 85.7658 64.2956 71.3806 75.1096 59.7205 89.0214 45.4501 99.9788 42.7681 101.843 39.6846 104.755 36.1708 103.364 27.881 100.423 21.3267 94.1415 15.217 88.0462 12.1478 84.6041 7.65868 79.9859 10.3407 75.0522 14.7437 62.675 25.8445 55.0737 35.0664 46.5114 45.3641 37.103 56.7517 29.0141 67.4652 20.1076 70.3337 17.8703 73.116 15.3604 76.5581 14.0122M67.2358 22.6892C60.1221 28.4978 52.7789 34.0051 45.823 40.0145 53.6395 48.0747 62.0439 55.5756 71.2802 61.9579 81.291 52.2052 92.3201 43.5139 101.671 33.1016 94.285 26.9058 87.8597 19.075 78.8959 15.1166 74.4929 16.7229 70.8787 19.8351 67.2358 22.6892M79.8712 55.4035C77.0601 57.9277 73.9909 60.3229 72.0547 63.6216 70.85 66.5473 71.1512 69.8317 70.8213 72.9296 79.57 67.3218 87.8884 60.9539 95.4323 53.7972 100.294 49.3512 101.786 42.7108 102.833 36.4863 94.0555 41.3626 87.5012 49.0643 79.8712 55.4035M18.616 64.5538C24.6684 72.485 31.4809 80.4592 40.5308 85.0056 42.8829 86.3681 45.1059 84.2168 46.9991 83.0694 55.088 76.9884 62.1156 69.6739 69.7026 63.0048 61.2695 55.547 52.6212 48.3185 44.5752 40.4304 35.8983 48.4476 26.748 55.9485 18.616 64.5538M12.6067 81.8934C18.1714 90.3552 26.5903 96.4506 35.0234 101.829 37.0743 96.9813 39.1683 92.1337 41.3052 87.3147 32.3271 81.6926 24.9122 74.0913 17.7699 66.3609 15.4321 71.1225 9.92473 76.2569 12.6067 81.8934M45.823 85.9235C40.5451 89.8963 38.8958 96.5797 37.648 102.704 48.6914 95.7048 58.4727 86.8558 67.4366 77.4043 70.6779 74.5789 69.4731 69.9894 69.76 66.2318 61.2695 72.1694 53.8833 79.4696 45.823 85.9235Z" fill="#000000" fill-rule="nonzero" fill-opacity="1" transform="matrix(1 0 0 1.00917 2256 1008)"/><path d="M67.2358 22.6892C70.8787 19.8351 74.4929 16.7229 78.8959 15.1166 87.8597 19.075 94.285 26.9058 101.671 33.1016 92.3201 43.5139 81.291 52.2052 71.2802 61.9579 62.0439 55.5756 53.6395 48.0747 45.823 40.0145 52.7789 34.0051 60.1221 28.4978 67.2358 22.6892Z" fill="#00A2E8" fill-rule="nonzero" fill-opacity="1" transform="matrix(1 0 0 1.00917 2256 1008)"/><path d="M79.8712 55.4035C87.5012 49.0643 94.0555 41.3626 102.833 36.4863 101.786 42.7108 100.294 49.3512 95.4323 53.7972 87.8884 60.9539 79.57 67.3218 70.8213 72.9296 71.1512 69.8317 70.85 66.5473 72.0547 63.6216 73.9909 60.3229 77.0601 57.9277 79.8712 55.4035Z" fill="#00A2E8" fill-rule="nonzero" fill-opacity="1" transform="matrix(1 0 0 1.00917 2256 1008)"/><path d="M18.616 64.5538C26.748 55.9485 35.8983 48.4476 44.5752 40.4304 52.6212 48.3185 61.2695 55.547 69.7026 63.0048 62.1156 69.6739 55.088 76.9884 46.9991 83.0694 45.1059 84.2168 42.8829 86.3681 40.5308 85.0056 31.4809 80.4592 24.6684 72.485 18.616 64.5538Z" fill="#FFB3D9" fill-rule="nonzero" fill-opacity="1" transform="matrix(1 0 0 1.00917 2256 1008)"/><path d="M12.6067 81.8934C9.92473 76.2569 15.4321 71.1225 17.7699 66.3609 24.9122 74.0913 32.3271 81.6926 41.3052 87.3147 39.1683 92.1337 37.0743 96.9813 35.0234 101.829 26.5903 96.4506 18.1714 90.3552 12.6067 81.8934Z" fill="#FFB3D9" fill-rule="nonzero" fill-opacity="1" transform="matrix(1 0 0 1.00917 2256 1008)"/><path d="M45.823 85.9235C53.8833 79.4696 61.2695 72.1694 69.76 66.2318 69.4731 69.9894 70.6779 74.5789 67.4366 77.4043 58.4727 86.8558 48.6914 95.7048 37.648 102.704 38.8958 96.5797 40.5451 89.8963 45.823 85.9235Z" fill="#FFB3D9" fill-rule="nonzero" fill-opacity="1" transform="matrix(1 0 0 1.00917 2256 1008)"/></g></g></g><g clip-path="url(#clip22)"><g clip-path="url(#clip23)"><g clip-path="url(#clip24)"><path d="M2655.26 1022.14C2659.83 1021.14 2663.53 1025.15 2666.94 1027.6 2671.78 1031.91 2677.54 1035.34 2681.4 1040.62 2685.06 1045.96 2682.82 1052.74 2680.16 1057.98 2676.94 1064.71 2670.13 1068.36 2664.55 1072.89 2650.04 1083.8 2638.27 1097.84 2623.87 1108.9 2621.16 1110.78 2618.05 1113.72 2614.5 1112.31 2606.14 1109.34 2599.52 1103.01 2593.36 1096.85 2590.26 1093.38 2585.73 1088.72 2588.44 1083.74 2592.88 1071.25 2604.08 1063.58 2613.39 1054.94 2623.78 1045.44 2635.27 1037.28 2646.08 1028.29 2648.98 1026.03 2651.79 1023.5 2655.26 1022.14M2645.85 1030.9C2638.67 1036.76 2631.26 1042.32 2624.24 1048.38 2632.13 1056.52 2640.61 1064.09 2649.93 1070.53 2660.04 1060.68 2671.17 1051.91 2680.6 1041.41 2673.15 1035.15 2666.67 1027.25 2657.62 1023.26 2653.18 1024.88 2649.53 1028.02 2645.85 1030.9M2658.6 1063.91C2655.77 1066.46 2652.67 1068.88 2650.72 1072.21 2649.5 1075.16 2649.8 1078.47 2649.47 1081.6 2658.3 1075.94 2666.7 1069.51 2674.31 1062.29 2679.21 1057.8 2680.72 1051.1 2681.78 1044.82 2672.92 1049.74 2666.3 1057.51 2658.6 1063.91M2596.79 1073.15C2602.9 1081.15 2609.77 1089.2 2618.9 1093.79 2621.28 1095.16 2623.52 1092.99 2625.43 1091.83 2633.59 1085.69 2640.69 1078.31 2648.34 1071.58 2639.83 1064.06 2631.1 1056.76 2622.98 1048.8 2614.23 1056.89 2604.99 1064.46 2596.79 1073.15M2590.72 1090.64C2596.34 1099.18 2604.83 1105.34 2613.34 1110.76 2615.41 1105.87 2617.53 1100.98 2619.68 1096.12 2610.62 1090.44 2603.14 1082.77 2595.93 1074.97 2593.57 1079.77 2588.02 1084.96 2590.72 1090.64M2624.24 1094.71C2618.92 1098.72 2617.25 1105.47 2615.99 1111.65 2627.14 1104.58 2637.01 1095.65 2646.06 1086.11 2649.33 1083.26 2648.11 1078.63 2648.4 1074.84 2639.83 1080.83 2632.38 1088.2 2624.24 1094.71Z" fill="#000000" fill-rule="nonzero" fill-opacity="1"/><path d="M2645.85 1030.9C2649.53 1028.02 2653.18 1024.88 2657.62 1023.26 2666.67 1027.25 2673.15 1035.15 2680.6 1041.41 2671.17 1051.91 2660.04 1060.68 2649.93 1070.53 2640.61 1064.09 2632.13 1056.52 2624.24 1048.38 2631.26 1042.32 2638.67 1036.76 2645.85 1030.9Z" fill="#00A2E8" fill-rule="nonzero" fill-opacity="1"/><path d="M2658.6 1063.91C2666.3 1057.51 2672.92 1049.74 2681.78 1044.82 2680.72 1051.1 2679.21 1057.8 2674.31 1062.29 2666.7 1069.51 2658.3 1075.94 2649.47 1081.6 2649.8 1078.47 2649.5 1075.16 2650.72 1072.21 2652.67 1068.88 2655.77 1066.46 2658.6 1063.91Z" fill="#00A2E8" fill-rule="nonzero" fill-opacity="1"/><path d="M2596.79 1073.15C2604.99 1064.46 2614.23 1056.89 2622.98 1048.8 2631.1 1056.76 2639.83 1064.06 2648.34 1071.58 2640.69 1078.31 2633.59 1085.69 2625.43 1091.83 2623.52 1092.99 2621.28 1095.16 2618.9 1093.79 2609.77 1089.2 2602.9 1081.15 2596.79 1073.15Z" fill="#FFB3D9" fill-rule="nonzero" fill-opacity="1"/><path d="M2590.72 1090.64C2588.02 1084.96 2593.57 1079.77 2595.93 1074.97 2603.14 1082.77 2610.62 1090.44 2619.68 1096.12 2617.53 1100.98 2615.41 1105.87 2613.34 1110.76 2604.83 1105.34 2596.34 1099.18 2590.72 1090.64Z" fill="#FFB3D9" fill-rule="nonzero" fill-opacity="1"/><path d="M2624.24 1094.71C2632.38 1088.2 2639.83 1080.83 2648.4 1074.84 2648.11 1078.63 2649.33 1083.26 2646.06 1086.11 2637.01 1095.65 2627.14 1104.58 2615.99 1111.65 2617.25 1105.47 2618.92 1098.72 2624.24 1094.71Z" fill="#FFB3D9" fill-rule="nonzero" fill-opacity="1"/></g></g></g><g clip-path="url(#clip25)"><g clip-path="url(#clip26)"><g clip-path="url(#clip27)"><path d="M76.5581 14.0122C81.0902 13.0226 84.7475 16.9954 88.1322 19.4192 92.9225 23.6932 98.6306 27.0922 102.46 32.3271 106.089 37.6193 103.865 44.3314 101.227 49.5233 98.0426 56.1924 91.2875 59.8066 85.7658 64.2956 71.3806 75.1096 59.7205 89.0214 45.4501 99.9788 42.7681 101.843 39.6846 104.755 36.1708 103.364 27.881 100.423 21.3267 94.1415 15.217 88.0462 12.1478 84.6041 7.65868 79.9859 10.3407 75.0522 14.7437 62.675 25.8445 55.0737 35.0664 46.5114 45.3641 37.103 56.7517 29.0141 67.4652 20.1076 70.3337 17.8703 73.116 15.3604 76.5581 14.0122M67.2358 22.6892C60.1221 28.4978 52.7789 34.0051 45.823 40.0145 53.6395 48.0747 62.0439 55.5756 71.2802 61.9579 81.291 52.2052 92.3201 43.5139 101.671 33.1016 94.285 26.9058 87.8597 19.075 78.8959 15.1166 74.4929 16.7229 70.8787 19.8351 67.2358 22.6892M79.8712 55.4035C77.0601 57.9277 73.9909 60.3229 72.0547 63.6216 70.85 66.5473 71.1512 69.8317 70.8213 72.9296 79.57 67.3218 87.8884 60.9539 95.4323 53.7972 100.294 49.3512 101.786 42.7108 102.833 36.4863 94.0555 41.3626 87.5012 49.0643 79.8712 55.4035M18.616 64.5538C24.6684 72.485 31.4809 80.4592 40.5308 85.0056 42.8829 86.3681 45.1059 84.2168 46.9991 83.0694 55.088 76.9884 62.1156 69.6739 69.7026 63.0048 61.2695 55.547 52.6212 48.3185 44.5752 40.4304 35.8983 48.4476 26.748 55.9485 18.616 64.5538M12.6067 81.8934C18.1714 90.3552 26.5903 96.4506 35.0234 101.829 37.0743 96.9813 39.1683 92.1337 41.3052 87.3147 32.3271 81.6926 24.9122 74.0913 17.7699 66.3609 15.4321 71.1225 9.92473 76.2569 12.6067 81.8934M45.823 85.9235C40.5451 89.8963 38.8958 96.5797 37.648 102.704 48.6914 95.7048 58.4727 86.8558 67.4366 77.4043 70.6779 74.5789 69.4731 69.9894 69.76 66.2318 61.2695 72.1694 53.8833 79.4696 45.823 85.9235Z" fill="#000000" fill-rule="nonzero" fill-opacity="1" transform="matrix(1 0 0 1.00917 2472 1008)"/><path d="M67.2358 22.6892C70.8787 19.8351 74.4929 16.7229 78.8959 15.1166 87.8597 19.075 94.285 26.9058 101.671 33.1016 92.3201 43.5139 81.291 52.2052 71.2802 61.9579 62.0439 55.5756 53.6395 48.0747 45.823 40.0145 52.7789 34.0051 60.1221 28.4978 67.2358 22.6892Z" fill="#00A2E8" fill-rule="nonzero" fill-opacity="1" transform="matrix(1 0 0 1.00917 2472 1008)"/><path d="M79.8712 55.4035C87.5012 49.0643 94.0555 41.3626 102.833 36.4863 101.786 42.7108 100.294 49.3512 95.4323 53.7972 87.8884 60.9539 79.57 67.3218 70.8213 72.9296 71.1512 69.8317 70.85 66.5473 72.0547 63.6216 73.9909 60.3229 77.0601 57.9277 79.8712 55.4035Z" fill="#00A2E8" fill-rule="nonzero" fill-opacity="1" transform="matrix(1 0 0 1.00917 2472 1008)"/><path d="M18.616 64.5538C26.748 55.9485 35.8983 48.4476 44.5752 40.4304 52.6212 48.3185 61.2695 55.547 69.7026 63.0048 62.1156 69.6739 55.088 76.9884 46.9991 83.0694 45.1059 84.2168 42.8829 86.3681 40.5308 85.0056 31.4809 80.4592 24.6684 72.485 18.616 64.5538Z" fill="#FFB3D9" fill-rule="nonzero" fill-opacity="1" transform="matrix(1 0 0 1.00917 2472 1008)"/><path d="M12.6067 81.8934C9.92473 76.2569 15.4321 71.1225 17.7699 66.3609 24.9122 74.0913 32.3271 81.6926 41.3052 87.3147 39.1683 92.1337 37.0743 96.9813 35.0234 101.829 26.5903 96.4506 18.1714 90.3552 12.6067 81.8934Z" fill="#FFB3D9" fill-rule="nonzero" fill-opacity="1" transform="matrix(1 0 0 1.00917 2472 1008)"/><path d="M45.823 85.9235C53.8833 79.4696 61.2695 72.1694 69.76 66.2318 69.4731 69.9894 70.6779 74.5789 67.4366 77.4043 58.4727 86.8558 48.6914 95.7048 37.648 102.704 38.8958 96.5797 40.5451 89.8963 45.823 85.9235Z" fill="#FFB3D9" fill-rule="nonzero" fill-opacity="1" transform="matrix(1 0 0 1.00917 2472 1008)"/></g></g></g><g clip-path="url(#clip28)"><g clip-path="url(#clip29)"><g clip-path="url(#clip30)"><path d="M76.5581 14.0122C81.0902 13.0226 84.7475 16.9954 88.1322 19.4192 92.9225 23.6932 98.6306 27.0922 102.46 32.3271 106.089 37.6193 103.865 44.3314 101.227 49.5233 98.0426 56.1924 91.2875 59.8066 85.7658 64.2956 71.3806 75.1096 59.7205 89.0214 45.4501 99.9788 42.7681 101.843 39.6846 104.755 36.1708 103.364 27.881 100.423 21.3267 94.1415 15.217 88.0462 12.1478 84.6041 7.65868 79.9859 10.3407 75.0522 14.7437 62.675 25.8445 55.0737 35.0664 46.5114 45.3641 37.103 56.7517 29.0141 67.4652 20.1076 70.3337 17.8703 73.116 15.3604 76.5581 14.0122M67.2358 22.6892C60.1221 28.4978 52.7789 34.0051 45.823 40.0145 53.6395 48.0747 62.0439 55.5756 71.2802 61.9579 81.291 52.2052 92.3201 43.5139 101.671 33.1016 94.285 26.9058 87.8597 19.075 78.8959 15.1166 74.4929 16.7229 70.8787 19.8351 67.2358 22.6892M79.8712 55.4035C77.0601 57.9277 73.9909 60.3229 72.0547 63.6216 70.85 66.5473 71.1512 69.8317 70.8213 72.9296 79.57 67.3218 87.8884 60.9539 95.4323 53.7972 100.294 49.3512 101.786 42.7108 102.833 36.4863 94.0555 41.3626 87.5012 49.0643 79.8712 55.4035M18.616 64.5538C24.6684 72.485 31.4809 80.4592 40.5308 85.0056 42.8829 86.3681 45.1059 84.2168 46.9991 83.0694 55.088 76.9884 62.1156 69.6739 69.7026 63.0048 61.2695 55.547 52.6212 48.3185 44.5752 40.4304 35.8983 48.4476 26.748 55.9485 18.616 64.5538M12.6067 81.8934C18.1714 90.3552 26.5903 96.4506 35.0234 101.829 37.0743 96.9813 39.1683 92.1337 41.3052 87.3147 32.3271 81.6926 24.9122 74.0913 17.7699 66.3609 15.4321 71.1225 9.92473 76.2569 12.6067 81.8934M45.823 85.9235C40.5451 89.8963 38.8958 96.5797 37.648 102.704 48.6914 95.7048 58.4727 86.8558 67.4366 77.4043 70.6779 74.5789 69.4731 69.9894 69.76 66.2318 61.2695 72.1694 53.8833 79.4696 45.823 85.9235Z" fill="#000000" fill-rule="nonzero" fill-opacity="1" transform="matrix(1 0 0 1.00917 2685 1008)"/><path d="M67.2358 22.6892C70.8787 19.8351 74.4929 16.7229 78.8959 15.1166 87.8597 19.075 94.285 26.9058 101.671 33.1016 92.3201 43.5139 81.291 52.2052 71.2802 61.9579 62.0439 55.5756 53.6395 48.0747 45.823 40.0145 52.7789 34.0051 60.1221 28.4978 67.2358 22.6892Z" fill="#00A2E8" fill-rule="nonzero" fill-opacity="1" transform="matrix(1 0 0 1.00917 2685 1008)"/><path d="M79.8712 55.4035C87.5012 49.0643 94.0555 41.3626 102.833 36.4863 101.786 42.7108 100.294 49.3512 95.4323 53.7972 87.8884 60.9539 79.57 67.3218 70.8213 72.9296 71.1512 69.8317 70.85 66.5473 72.0547 63.6216 73.9909 60.3229 77.0601 57.9277 79.8712 55.4035Z" fill="#00A2E8" fill-rule="nonzero" fill-opacity="1" transform="matrix(1 0 0 1.00917 2685 1008)"/><path d="M18.616 64.5538C26.748 55.9485 35.8983 48.4476 44.5752 40.4304 52.6212 48.3185 61.2695 55.547 69.7026 63.0048 62.1156 69.6739 55.088 76.9884 46.9991 83.0694 45.1059 84.2168 42.8829 86.3681 40.5308 85.0056 31.4809 80.4592 24.6684 72.485 18.616 64.5538Z" fill="#FFB3D9" fill-rule="nonzero" fill-opacity="1" transform="matrix(1 0 0 1.00917 2685 1008)"/><path d="M12.6067 81.8934C9.92473 76.2569 15.4321 71.1225 17.7699 66.3609 24.9122 74.0913 32.3271 81.6926 41.3052 87.3147 39.1683 92.1337 37.0743 96.9813 35.0234 101.829 26.5903 96.4506 18.1714 90.3552 12.6067 81.8934Z" fill="#FFB3D9" fill-rule="nonzero" fill-opacity="1" transform="matrix(1 0 0 1.00917 2685 1008)"/><path d="M45.823 85.9235C53.8833 79.4696 61.2695 72.1694 69.76 66.2318 69.4731 69.9894 70.6779 74.5789 67.4366 77.4043 58.4727 86.8558 48.6914 95.7048 37.648 102.704 38.8958 96.5797 40.5451 89.8963 45.823 85.9235Z" fill="#FFB3D9" fill-rule="nonzero" fill-opacity="1" transform="matrix(1 0 0 1.00917 2685 1008)"/></g></g></g><g clip-path="url(#clip31)"><g clip-path="url(#clip32)"><g clip-path="url(#clip33)"><path d="M1792.56 1163.01C1797.09 1162.02 1800.75 1166 1804.13 1168.42 1808.92 1172.69 1814.63 1176.09 1818.46 1181.33 1822.09 1186.62 1819.87 1193.33 1817.23 1198.52 1814.04 1205.19 1807.29 1208.81 1801.77 1213.3 1787.38 1224.11 1775.72 1238.02 1761.45 1248.98 1758.77 1250.84 1755.68 1253.75 1752.17 1252.36 1743.88 1249.42 1737.33 1243.14 1731.22 1237.05 1728.15 1233.6 1723.66 1228.99 1726.34 1224.05 1730.74 1211.68 1741.84 1204.07 1751.07 1195.51 1761.36 1186.1 1772.75 1178.01 1783.47 1169.11 1786.33 1166.87 1789.12 1164.36 1792.56 1163.01M1783.24 1171.69C1776.12 1177.5 1768.78 1183.01 1761.82 1189.01 1769.64 1197.07 1778.04 1204.58 1787.28 1210.96 1797.29 1201.21 1808.32 1192.51 1817.67 1182.1 1810.28 1175.91 1803.86 1168.08 1794.9 1164.12 1790.49 1165.72 1786.88 1168.84 1783.24 1171.69M1795.87 1204.4C1793.06 1206.93 1789.99 1209.32 1788.05 1212.62 1786.85 1215.55 1787.15 1218.83 1786.82 1221.93 1795.57 1216.32 1803.89 1209.95 1811.43 1202.8 1816.29 1198.35 1817.79 1191.71 1818.83 1185.49 1810.06 1190.36 1803.5 1198.06 1795.87 1204.4M1734.62 1213.55C1740.67 1221.49 1747.48 1229.46 1756.53 1234.01 1758.88 1235.37 1761.11 1233.22 1763 1232.07 1771.09 1225.99 1778.12 1218.67 1785.7 1212.01 1777.27 1204.55 1768.62 1197.32 1760.58 1189.43 1751.9 1197.45 1742.75 1204.95 1734.62 1213.55M1728.61 1230.89C1734.17 1239.36 1742.59 1245.45 1751.02 1250.83 1753.07 1245.98 1755.17 1241.13 1757.31 1236.31 1748.33 1230.69 1740.91 1223.09 1733.77 1215.36 1731.43 1220.12 1725.92 1225.26 1728.61 1230.89M1761.82 1234.92C1756.55 1238.9 1754.9 1245.58 1753.65 1251.7 1764.69 1244.7 1774.47 1235.86 1783.44 1226.4 1786.68 1223.58 1785.47 1218.99 1785.76 1215.23 1777.27 1221.17 1769.88 1228.47 1761.82 1234.92Z" fill="#000000" fill-rule="nonzero" fill-opacity="1"/><path d="M1783.24 1171.69C1786.88 1168.84 1790.49 1165.72 1794.9 1164.12 1803.86 1168.08 1810.28 1175.91 1817.67 1182.1 1808.32 1192.51 1797.29 1201.21 1787.28 1210.96 1778.04 1204.58 1769.64 1197.07 1761.82 1189.01 1768.78 1183.01 1776.12 1177.5 1783.24 1171.69Z" fill="#00A2E8" fill-rule="nonzero" fill-opacity="1"/><path d="M1795.87 1204.4C1803.5 1198.06 1810.06 1190.36 1818.83 1185.49 1817.79 1191.71 1816.29 1198.35 1811.43 1202.8 1803.89 1209.95 1795.57 1216.32 1786.82 1221.93 1787.15 1218.83 1786.85 1215.55 1788.05 1212.62 1789.99 1209.32 1793.06 1206.93 1795.87 1204.4Z" fill="#00A2E8" fill-rule="nonzero" fill-opacity="1"/><path d="M1734.62 1213.55C1742.75 1204.95 1751.9 1197.45 1760.58 1189.43 1768.62 1197.32 1777.27 1204.55 1785.7 1212.01 1778.12 1218.67 1771.09 1225.99 1763 1232.07 1761.11 1233.22 1758.88 1235.37 1756.53 1234.01 1747.48 1229.46 1740.67 1221.49 1734.62 1213.55Z" fill="#FFB3D9" fill-rule="nonzero" fill-opacity="1"/><path d="M1728.61 1230.89C1725.92 1225.26 1731.43 1220.12 1733.77 1215.36 1740.91 1223.09 1748.33 1230.69 1757.31 1236.31 1755.17 1241.13 1753.07 1245.98 1751.02 1250.83 1742.59 1245.45 1734.17 1239.36 1728.61 1230.89Z" fill="#FFB3D9" fill-rule="nonzero" fill-opacity="1"/><path d="M1761.82 1234.92C1769.88 1228.47 1777.27 1221.17 1785.76 1215.23 1785.47 1218.99 1786.68 1223.58 1783.44 1226.4 1774.47 1235.86 1764.69 1244.7 1753.65 1251.7 1754.9 1245.58 1756.55 1238.9 1761.82 1234.92Z" fill="#FFB3D9" fill-rule="nonzero" fill-opacity="1"/></g></g></g><g clip-path="url(#clip34)"><g clip-path="url(#clip35)"><g clip-path="url(#clip36)"><path d="M1686.56 1163.01C1691.09 1162.02 1694.75 1166 1698.13 1168.42 1702.92 1172.69 1708.63 1176.09 1712.46 1181.33 1716.09 1186.62 1713.87 1193.33 1711.23 1198.52 1708.04 1205.19 1701.29 1208.81 1695.77 1213.3 1681.38 1224.11 1669.72 1238.02 1655.45 1248.98 1652.77 1250.84 1649.68 1253.75 1646.17 1252.36 1637.88 1249.42 1631.33 1243.14 1625.22 1237.05 1622.15 1233.6 1617.66 1228.99 1620.34 1224.05 1624.74 1211.68 1635.84 1204.07 1645.07 1195.51 1655.36 1186.1 1666.75 1178.01 1677.47 1169.11 1680.33 1166.87 1683.12 1164.36 1686.56 1163.01M1677.24 1171.69C1670.12 1177.5 1662.78 1183.01 1655.82 1189.01 1663.64 1197.07 1672.04 1204.58 1681.28 1210.96 1691.29 1201.21 1702.32 1192.51 1711.67 1182.1 1704.29 1175.91 1697.86 1168.08 1688.9 1164.12 1684.49 1165.72 1680.88 1168.84 1677.24 1171.69M1689.87 1204.4C1687.06 1206.93 1683.99 1209.32 1682.05 1212.62 1680.85 1215.55 1681.15 1218.83 1680.82 1221.93 1689.57 1216.32 1697.89 1209.95 1705.43 1202.8 1710.29 1198.35 1711.79 1191.71 1712.83 1185.49 1704.06 1190.36 1697.5 1198.06 1689.87 1204.4M1628.62 1213.55C1634.67 1221.49 1641.48 1229.46 1650.53 1234.01 1652.88 1235.37 1655.11 1233.22 1657 1232.07 1665.09 1225.99 1672.12 1218.67 1679.7 1212.01 1671.27 1204.55 1662.62 1197.32 1654.58 1189.43 1645.9 1197.45 1636.75 1204.95 1628.62 1213.55M1622.61 1230.89C1628.17 1239.36 1636.59 1245.45 1645.02 1250.83 1647.07 1245.98 1649.17 1241.13 1651.31 1236.31 1642.33 1230.69 1634.91 1223.09 1627.77 1215.36 1625.43 1220.12 1619.92 1225.26 1622.61 1230.89M1655.82 1234.92C1650.55 1238.9 1648.9 1245.58 1647.65 1251.7 1658.69 1244.7 1668.47 1235.86 1677.44 1226.4 1680.68 1223.58 1679.47 1218.99 1679.76 1215.23 1671.27 1221.17 1663.88 1228.47 1655.82 1234.92Z" fill="#000000" fill-rule="nonzero" fill-opacity="1"/><path d="M1677.24 1171.69C1680.88 1168.84 1684.49 1165.72 1688.9 1164.12 1697.86 1168.08 1704.29 1175.91 1711.67 1182.1 1702.32 1192.51 1691.29 1201.21 1681.28 1210.96 1672.04 1204.58 1663.64 1197.07 1655.82 1189.01 1662.78 1183.01 1670.12 1177.5 1677.24 1171.69Z" fill="#00A2E8" fill-rule="nonzero" fill-opacity="1"/><path d="M1689.87 1204.4C1697.5 1198.06 1704.06 1190.36 1712.83 1185.49 1711.79 1191.71 1710.29 1198.35 1705.43 1202.8 1697.89 1209.95 1689.57 1216.32 1680.82 1221.93 1681.15 1218.83 1680.85 1215.55 1682.05 1212.62 1683.99 1209.32 1687.06 1206.93 1689.87 1204.4Z" fill="#00A2E8" fill-rule="nonzero" fill-opacity="1"/><path d="M1628.62 1213.55C1636.75 1204.95 1645.9 1197.45 1654.58 1189.43 1662.62 1197.32 1671.27 1204.55 1679.7 1212.01 1672.12 1218.67 1665.09 1225.99 1657 1232.07 1655.11 1233.22 1652.88 1235.37 1650.53 1234.01 1641.48 1229.46 1634.67 1221.49 1628.62 1213.55Z" fill="#FFB3D9" fill-rule="nonzero" fill-opacity="1"/><path d="M1622.61 1230.89C1619.92 1225.26 1625.43 1220.12 1627.77 1215.36 1634.91 1223.09 1642.33 1230.69 1651.31 1236.31 1649.17 1241.13 1647.07 1245.98 1645.02 1250.83 1636.59 1245.45 1628.17 1239.36 1622.61 1230.89Z" fill="#FFB3D9" fill-rule="nonzero" fill-opacity="1"/><path d="M1655.82 1234.92C1663.88 1228.47 1671.27 1221.17 1679.76 1215.23 1679.47 1218.99 1680.68 1223.58 1677.44 1226.4 1668.47 1235.86 1658.69 1244.7 1647.65 1251.7 1648.9 1245.58 1650.55 1238.9 1655.82 1234.92Z" fill="#FFB3D9" fill-rule="nonzero" fill-opacity="1"/></g></g></g></g></svg>