<svg width="428" height="518" xmlns="http://www.w3.org/2000/svg" xmlns:xlink="http://www.w3.org/1999/xlink" xml:space="preserve" overflow="hidden"><defs><clipPath id="clip0"><rect x="0" y="0" width="428" height="520"/></clipPath></defs><g clip-path="url(#clip0)"><path d="M139.296 45.6041C256.184 50.2146 373.19 48.901 490.139 49.545 492.751 126.395 489.812 203.271 487.895 280.096 486.341 342.051 485.309 404.083 488.478 466.008 370.701 469.561 252.852 467.848 135.074 465.328 136.086 462.839 136.495 460.094 135.994 457.441 134.896 451.032 130.592 445.772 129.053 439.505 128.21 436.086 128.869 432.027 131.629 429.635 133.919 427.545 135.754 424.406 134.906 421.217 133.188 415.104 126.917 411.873 124.376 406.23 123.201 403.761 124.264 400.894 126.201 399.161 128.404 396.687 132.386 396.12 133.653 392.777 134.645 389.812 132.687 386.996 131.118 384.64 129.089 381.527 126.242 378.547 126.022 374.647 125.956 372.004 128.051 370.103 130.045 368.728 132.692 366.872 134.507 363.586 133.756 360.304 132.575 354.549 128.01 350.199 126.676 344.5 126.14 342.307 126.574 339.894 127.944 338.09 128.844 336.771 130.208 335.912 131.353 334.834 133.761 332.283 134.727 328.531 133.991 325.117 132.692 318.626 128.128 313.386 126.564 306.992 125.905 304.314 126.191 301.354 127.714 299.013 129.135 296.549 132.013 295.256 133.04 292.516 134.814 288.857 133.526 284.655 131.747 281.266 129.723 277.059 126.61 273.144 126.186 268.35 125.899 264.945 128.102 261.925 130.765 260.054 132.708 258.679 134.967 257.268 135.662 254.835 136.214 252.857 135.085 250.935 133.832 249.499 130.771 245.91 126.349 243.488 124.141 239.204 122.592 236.194 124.31 232.452 127.08 230.847 131.721 228.036 135.095 223.114 135.611 217.665 136.357 210.279 132.999 202.949 127.944 197.7 129.206 192.189 133.342 187.937 135.054 182.605 135.754 180.479 135.591 177.949 134.052 176.216 132.376 174.023 129.391 173.482 127.694 171.309 125.833 169.418 124.739 166.566 125.731 163.974 127.632 158.97 132.565 155.995 134.936 151.273 135.887 149.437 135.938 147.117 134.819 145.343 133.306 142.639 130.137 141.407 128.66 138.678 127.653 137.017 127.504 134.931 128.118 133.101 129.687 128.343 134.047 125.148 135.647 120.415 136.521 117.9 134.809 115.401 132.692 114.179 129.871 112.533 126.963 110.575 125.552 107.514 124.535 105.305 125.03 102.724 126.175 100.669 128.772 95.9158 133.209 92.4298 135.56 87.5177 136.649 85.2789 136.955 82.575 135.959 80.2493 134.788 77.2029 131.66 75.3679 130.786 72.1579 129.488 68.1046 131.762 64.1381 133.863 60.8157 136.751 56.2665 140.293 51.3187 139.296 45.6041M146.979 53.5932C145.875 59.6861 145.026 65.9015 145.42 72.1068 145.629 73.3744 145.675 75.2503 147.173 75.6644 150.352 74.5501 151.232 70.8187 153.399 68.5595 156.767 64.639 162.318 61.3166 167.568 63.3509 171.033 64.6288 172.352 68.2835 174.376 71.0334 175.618 72.894 175.976 75.3986 174.964 77.4482 173.717 80.0346 171.176 81.7163 168.6 82.7948 164.91 84.2618 160.667 84.7985 156.844 83.5257 154.068 82.3808 150.971 81.3636 147.96 82.115 145.829 82.6568 144.577 84.7729 144.275 86.8328 143.069 94.7657 146.616 102.683 145.011 110.591 150.419 107.437 152.995 101.237 158.127 97.7713 161.046 95.742 164.961 96.2072 167.89 97.9553 170.553 99.5602 173.589 101.145 174.918 104.135 176.099 106.675 175.337 109.696 173.681 111.838 169.975 116.648 163.141 119.03 157.309 117.138 154.426 115.932 151.313 114.685 148.129 115.242 146.028 115.569 144.633 117.537 144.321 119.541 143.12 126.942 146.468 134.359 144.909 141.74 148.829 137.109 152.203 131.726 157.503 128.522 160.657 126.518 164.93 126.799 167.808 129.16 170.2 131.369 173.625 132.544 175.092 135.642 176.697 138.658 175.536 142.348 173.4 144.786 169.398 149.458 162.436 151.922 156.537 149.657 153.675 148.267 150.547 146.631 147.27 147.291 145.236 147.746 144.28 149.903 144.101 151.794 143.36 159.011 146.478 166.137 145.134 173.333 148.845 169.183 152.826 165.181 157.529 162.15 160.34 160.412 163.703 158.919 167.067 159.727 170.272 160.55 172.311 163.499 173.538 166.387 174.734 169.265 175.715 172.613 174.519 175.649 173.487 178.082 170.849 179.217 168.437 179.774 161.792 181.21 154.902 180.157 148.241 181.455 145.926 181.946 143.319 182.912 142.312 185.248 141.101 188.249 142.409 191.443 143.493 194.27 143.917 196.866 143.273 199.693 144.428 202.167 145.021 203.445 146.498 202.591 147.229 201.922 151.017 198.553 153.946 194.055 158.613 191.775 161.051 190.508 164.215 190.728 166.31 192.573 168.135 194.28 170.691 194.842 172.572 196.483 175.465 198.63 177.433 202.325 176.61 205.975 175.567 210.795 171.197 214.281 166.571 215.446 161.587 216.76 156.21 215.303 152.141 212.267 150.179 210.718 147.071 210.979 145.497 212.972 143.002 215.993 142.328 220.047 141.857 223.824 141.361 229.574 141.453 235.58 143.508 241.044 144.03 242.486 145.537 244.479 147.234 243.324 149.734 241.315 150.894 238.09 151.605 235.059 152.627 231.266 156.001 228.148 159.998 227.923 166.177 227.504 172.107 231.016 175.828 235.775 176.876 239.296 176.339 243.58 173.655 246.278 171.514 248.461 168.559 249.596 165.651 250.337 158.163 252.162 150.388 251.702 142.788 252.683 142.195 257.892 141.975 263.146 142.179 268.385 142.348 270.967 142.45 273.655 143.534 276.052 143.856 276.86 144.817 277.571 145.67 277.07 147.148 276.216 148.134 274.708 148.926 273.236 149.473 270.808 150.122 268.263 151.891 266.412 154.14 263.862 157.738 262.921 161.03 263.284 165.999 263.8 170.706 266.494 173.686 270.496 175.884 273.425 176.901 277.32 176.007 280.913 173.344 283.73 169.464 285.192 165.646 285.509 157.974 286.168 150.506 283.566 142.854 283.679 142.813 291.187 141.816 298.665 142.046 306.179 142.195 308.106 142.113 310.309 143.58 311.792 146.836 310.115 148.093 306.297 149.662 303.22 151.17 299.514 154.907 296.8 158.96 296.907 164.603 296.994 169.837 300.291 173.195 304.692 175.639 307.871 176.988 312.369 175.173 316.167 173.523 319.372 170.502 322.035 166.883 322.679 161.245 323.783 155.515 322.444 149.841 322.914 148.165 323.083 146.427 323.446 145.047 324.463 143.411 325.633 142.583 327.688 142.563 329.661 142.716 335.631 141.857 341.617 142.537 347.577 142.767 348.722 142.844 350.357 144.168 350.807 146.064 350.071 147.602 348.098 147.766 346.059 148.742 338.488 156.486 332.539 164.051 333.546 167.532 334.001 170.583 336.418 172.015 339.598 173.165 342.348 175.097 345.006 174.724 348.144 174.463 351.001 172.091 353.107 169.622 354.237 165.022 356.332 159.87 356.833 154.871 356.798 152.463 356.951 150.623 354.906 148.206 354.983 145.41 354.712 143.202 356.987 142.302 359.425 140.559 364.01 140.687 369.137 141.709 373.875 142.266 375.879 142.854 378.204 144.704 379.421 146.166 380.162 147.495 378.741 148.221 377.622 150.276 374.892 150.158 371.176 152.325 368.508 154.477 365.456 158.52 364.24 162.098 364.996 169.617 366.443 176.298 373.4 175.915 381.317 173.804 383.73 170.972 385.462 167.869 386.25 159.696 388.361 151.073 386.321 142.91 388.494 143.278 389.465 143.534 390.487 143.457 391.54 143.248 397.035 141.607 402.381 141.586 407.886 141.648 409.067 141.694 410.8 143.094 411.204 144.311 411.183 145.916 410.682 146.13 409.292 147.464 405.233 148.901 401.134 151.278 397.546 152.566 395.639 154.176 393.83 156.328 392.889 158.372 391.964 160.77 392.087 162.824 392.92 165.053 393.866 167.506 394.402 169.454 395.92 171.948 397.73 173.517 400.715 173.62 403.797 173.896 410.411 169.03 416.857 162.589 418.411 158.929 419.3 154.963 418.569 151.758 416.632 149.688 415.421 146.826 415.201 144.95 416.882 142.184 419.361 141.31 423.215 140.815 426.742 140.375 431.23 140.406 436.03 142.409 440.17 143.053 441.673 144.893 442.925 146.458 441.862 148.773 440.783 148.942 438.028 150.225 436.117 152.428 432.293 156.542 429.589 160.989 429.39 167.757 428.996 174.161 433.142 177.678 438.749 178.562 441.893 178.256 445.552 176.421 448.333 173.584 452.437 168.268 453.659 163.571 453.91 156.225 454.145 148.722 452.673 142.215 449.192 141.811 452.233 141.576 455.606 143.278 458.331 144.883 460.902 147.981 461.94 150.848 462.267 156.139 462.834 161.429 461.955 166.678 461.387 171.105 460.912 175.628 460.253 180.04 461.214 179.84 325.332 184.021 189.465 182.278 53.5779 170.522 52.8828 158.74 53.2814 146.979 53.5932M193.38 53.6853C191.765 55.556 190.595 57.7948 190.058 60.2125 188.836 65.4466 189.383 70.8698 188.77 76.1806 188.765 84.686 189.031 93.1965 189.077 101.702 190.181 212.431 185.12 323.154 188.003 433.878 189.419 440.313 188.213 446.927 188.949 453.429 189.266 456.164 190.002 459.251 192.455 460.856 194.709 462.348 197.49 461.71 199.989 461.495 293.232 459.537 386.51 464.756 479.732 461.091 482.436 326.052 483.648 190.988 484.011 55.9241 387.221 50.1175 290.252 54.8098 193.38 53.6853M134.338 66.4791C134.175 67.3532 133.541 68.2477 133.914 69.1524 135.059 69.868 136.771 68.7435 136.925 67.4861 136.424 66.5405 135.218 66.6938 134.338 66.4791M159.875 68.4726C160.023 69.9293 159.742 72.1477 161.49 72.7355 163.489 72.6026 165.6 70.2054 164.802 68.2324 163.33 67.1487 161.444 68.1148 159.875 68.4726M134.548 102.019C133.781 103.179 132.059 104.661 133.101 106.123 134.328 106.762 135.826 106.43 136.971 105.771 137.574 105.449 138.187 104.687 137.778 103.987 137.073 102.862 135.688 102.525 134.548 102.019M160.437 105.316C161.925 105.975 164.976 105.428 164.971 103.455 164.179 102.407 162.799 102.203 161.628 101.845 161.081 102.878 159.584 104.079 160.437 105.316M134.553 131.404C133.602 132.176 132.411 133.081 132.406 134.43 133.158 136.071 136.178 136.035 136.925 134.41 136.899 133.05 135.678 131.982 134.553 131.404M161.73 133.291C160.678 134.113 158.091 134.63 158.694 136.332 160.606 137.191 163.525 137.4 164.92 135.555 164.087 134.512 162.967 133.771 161.73 133.291M134.584 162.691C133.791 163.821 132.202 165.17 132.994 166.668 134.502 167.665 136.874 166.995 137.86 165.538 138.065 163.755 135.826 163.295 134.584 162.691M159.998 166.786C159.972 168.11 159.671 170.394 161.439 170.691 163.187 170.251 165.145 168.191 164.373 166.331 162.973 165.549 161.398 166.453 159.998 166.786M132.427 197.296C133.301 198.798 135.959 198.722 136.889 197.332 137.114 195.859 135.611 195.021 134.763 194.081 133.71 194.868 132.324 195.803 132.427 197.296M158.117 198.042C158.357 199.417 158.224 201.589 159.962 201.998 161.736 201.835 163.688 199.519 162.564 197.838 161.168 197.03 159.543 197.715 158.117 198.042M134.722 231.951C133.347 233.75 131.21 235.703 131.757 238.192 133.05 240.503 137.093 239.174 137.334 236.705 137.487 234.757 136.066 233.173 134.722 231.951M160.12 235.861C159.032 237.057 158.239 238.596 157.948 240.196 157.882 241.637 159.691 241.31 160.56 240.957 163.146 239.838 165.973 238.32 167.128 235.59 164.986 234.256 162.359 235.381 160.12 235.861M134.594 265.334C133.531 266.469 132.125 267.634 132.069 269.316 132.304 271.774 136.771 271.805 137.124 269.387 137.099 267.675 135.693 266.474 134.594 265.334M159.706 268.861C159.006 269.944 157.876 270.982 158.014 272.393 159.568 273.768 162.513 272.582 163.438 270.91 163.228 269.254 161.005 269.203 159.706 268.861M132.636 300.92C131.655 303.051 130.254 305.31 130.694 307.748 131.404 309.532 133.705 308.316 134.354 307.089 135.821 304.968 134.451 302.31 132.636 300.92M157.713 304.825C156.619 306.716 155.142 308.561 154.963 310.815 155.014 312.078 156.563 311.981 157.411 311.633 159.941 310.739 162.242 309.134 163.969 307.079 164.526 306.399 165.211 305.07 164.123 304.528 162.058 303.772 159.793 304.426 157.713 304.825M157.974 343.017C158.014 344.53 159.998 344.188 160.974 343.866 162.022 343.487 163.663 342.859 163.387 341.463 162.482 340.436 161.03 340.318 159.803 339.945 159.088 340.891 158.219 341.811 157.974 343.017M130.413 343.912C131.394 345.184 133.935 345.179 134.773 343.758 135.023 342.271 133.454 341.387 132.534 340.508 131.634 341.433 130.004 342.389 130.413 343.912M129.983 376.103C130.336 378.444 134.558 378.485 135.013 376.175 135.085 374.437 133.602 373.231 132.56 372.045 131.399 373.134 129.978 374.381 129.983 376.103M157.57 373.742C157.519 375.572 160.371 375.362 161.414 374.514 162.4 373.328 160.493 372.347 159.829 371.595 158.981 372.193 158.045 372.771 157.57 373.742M157.585 398.727C156.645 400.623 155.188 402.555 155.53 404.794 155.817 406.102 157.401 406.404 158.536 406.21 160.724 405.877 162.947 404.845 164.281 403.03 164.976 402.172 164.705 400.884 163.806 400.316 161.986 399.095 159.717 398.839 157.585 398.727M129.805 406.424C131.553 407.574 134.671 406.414 135.069 404.298 134.512 402.417 132.227 402.197 130.668 401.594 129.927 403 128.624 404.917 129.805 406.424M130.638 434.68C130.423 436.158 129.472 438.376 131.087 439.352 132.856 439.603 134.87 437.798 134.619 435.989 133.827 434.588 131.992 434.829 130.638 434.68M159.665 436.623C159.65 437.676 158.873 439.69 160.396 439.971 161.73 439.669 162.988 438.458 163.065 437.052 162.38 435.836 160.749 436.541 159.665 436.623Z" transform="matrix(1 0 0 1.00032 -99.8149 0)"/><path d="M312.037 182.667C313.069 181.369 314.214 179.968 315.932 179.61 318.917 179.017 322.06 179.861 324.616 181.445 333.541 180.126 342.879 180.172 351.456 183.244 362.308 187.037 371.411 195.062 377.284 204.861 387.993 222.587 389.342 245.149 382.569 264.531 376.819 280.867 366.535 295.737 352.724 306.276 344.556 312.645 334.844 317.317 324.488 318.539 317.061 319.433 309.134 318.774 302.571 314.915 295.287 310.698 290.548 303.138 288.029 295.277 284.609 284.609 285.386 273.231 286.214 262.231 288.34 240.16 294.188 218.36 303.894 198.4 302.54 197.47 301.18 196.34 300.674 194.714 299.775 192.215 300.761 189.388 302.627 187.604 305.213 185.105 308.607 183.623 312.037 182.667M320.777 198.993C314 211.235 309.486 224.606 306.425 238.223 303.547 250.961 301.686 263.979 301.645 277.054 301.635 281.961 302.162 286.919 303.782 291.571 305.167 295.42 307.171 299.345 310.698 301.64 314.782 304.329 319.949 304.564 324.652 303.894 332.411 302.729 339.368 298.568 345.271 293.564 352.632 287.405 358.796 279.866 363.555 271.544 367.705 264.363 370.956 256.558 372.26 248.333 373.916 237.804 372.035 226.702 366.744 217.419 361.93 208.74 354.089 201.431 344.479 198.512 336.73 196.146 328.588 197.909 320.777 198.993Z" transform="matrix(1 0 0 1.00032 -99.8149 0)"/><path d="M146.979 53.5932C158.74 53.2814 170.522 52.8828 182.278 53.5779 184.021 189.465 179.84 325.332 180.04 461.214 175.628 460.253 171.105 460.912 166.678 461.387 161.429 461.955 156.139 462.834 150.848 462.267 147.981 461.94 144.883 460.902 143.278 458.331 141.576 455.606 141.811 452.233 142.215 449.192 148.722 452.673 156.225 454.145 163.571 453.91 168.268 453.659 173.584 452.437 176.421 448.333 178.256 445.552 178.562 441.893 177.678 438.749 174.161 433.142 167.757 428.996 160.989 429.39 156.542 429.589 152.428 432.293 150.225 436.117 148.942 438.028 148.773 440.783 146.458 441.862 144.893 442.925 143.053 441.673 142.409 440.17 140.406 436.03 140.375 431.23 140.815 426.742 141.31 423.215 142.184 419.361 144.95 416.882 146.826 415.201 149.688 415.421 151.758 416.632 154.963 418.569 158.929 419.3 162.589 418.411 169.03 416.857 173.896 410.411 173.62 403.797 173.517 400.715 171.948 397.73 169.454 395.92 167.506 394.402 165.053 393.866 162.824 392.92 160.77 392.087 158.372 391.964 156.328 392.889 154.176 393.83 152.566 395.639 151.278 397.546 148.901 401.134 147.464 405.233 146.13 409.292 145.916 410.682 144.311 411.183 143.094 411.204 141.694 410.8 141.648 409.067 141.586 407.886 141.607 402.381 143.248 397.035 143.457 391.54 143.534 390.487 143.278 389.465 142.91 388.494 151.073 386.321 159.696 388.361 167.869 386.25 170.972 385.462 173.804 383.73 175.915 381.317 176.298 373.4 169.617 366.443 162.098 364.996 158.52 364.24 154.477 365.456 152.325 368.508 150.158 371.176 150.276 374.892 148.221 377.622 147.495 378.741 146.166 380.162 144.704 379.421 142.854 378.204 142.266 375.879 141.709 373.875 140.687 369.137 140.559 364.01 142.302 359.425 143.202 356.987 145.41 354.712 148.206 354.983 150.623 354.906 152.463 356.951 154.871 356.798 159.87 356.833 165.022 356.332 169.622 354.237 172.091 353.107 174.463 351.001 174.724 348.144 175.097 345.006 173.165 342.348 172.015 339.598 170.583 336.418 167.532 334.001 164.051 333.546 156.486 332.539 148.742 338.488 147.766 346.059 147.602 348.098 146.064 350.071 144.168 350.807 142.844 350.357 142.767 348.722 142.537 347.577 141.857 341.617 142.716 335.631 142.563 329.661 142.583 327.688 143.411 325.633 145.047 324.463 146.427 323.446 148.165 323.083 149.841 322.914 155.515 322.444 161.245 323.783 166.883 322.679 170.502 322.035 173.523 319.372 175.173 316.167 176.988 312.369 175.639 307.871 173.195 304.692 169.837 300.291 164.603 296.994 158.96 296.907 154.907 296.8 151.17 299.514 149.662 303.22 148.093 306.297 146.836 310.115 143.58 311.792 142.113 310.309 142.195 308.106 142.046 306.179 141.816 298.665 142.813 291.187 142.854 283.679 150.506 283.566 157.974 286.168 165.646 285.509 169.464 285.192 173.344 283.73 176.007 280.913 176.901 277.32 175.884 273.425 173.686 270.496 170.706 266.494 165.999 263.8 161.03 263.284 157.738 262.921 154.14 263.862 151.891 266.412 150.122 268.263 149.473 270.808 148.926 273.236 148.134 274.708 147.148 276.216 145.67 277.07 144.817 277.571 143.856 276.86 143.534 276.052 142.45 273.655 142.348 270.967 142.179 268.385 141.975 263.146 142.195 257.892 142.788 252.683 150.388 251.702 158.163 252.162 165.651 250.337 168.559 249.596 171.514 248.461 173.655 246.278 176.339 243.58 176.876 239.296 175.828 235.775 172.107 231.016 166.177 227.504 159.998 227.923 156.001 228.148 152.627 231.266 151.605 235.059 150.894 238.09 149.734 241.315 147.234 243.324 145.537 244.479 144.03 242.486 143.508 241.044 141.453 235.58 141.361 229.574 141.857 223.824 142.328 220.047 143.002 215.993 145.497 212.972 147.071 210.979 150.179 210.718 152.141 212.267 156.21 215.303 161.587 216.76 166.571 215.446 171.197 214.281 175.567 210.795 176.61 205.975 177.433 202.325 175.465 198.63 172.572 196.483 170.691 194.842 168.135 194.28 166.31 192.573 164.215 190.728 161.051 190.508 158.613 191.775 153.946 194.055 151.017 198.553 147.229 201.922 146.498 202.591 145.021 203.445 144.428 202.167 143.273 199.693 143.917 196.866 143.493 194.27 142.409 191.443 141.101 188.249 142.312 185.248 143.319 182.912 145.926 181.946 148.241 181.455 154.902 180.157 161.792 181.21 168.437 179.774 170.849 179.217 173.487 178.082 174.519 175.649 175.715 172.613 174.734 169.265 173.538 166.387 172.311 163.499 170.272 160.55 167.067 159.727 163.703 158.919 160.34 160.412 157.529 162.15 152.826 165.181 148.845 169.183 145.134 173.333 146.478 166.137 143.36 159.011 144.101 151.794 144.28 149.903 145.236 147.746 147.27 147.291 150.547 146.631 153.675 148.267 156.537 149.657 162.436 151.922 169.398 149.458 173.4 144.786 175.536 142.348 176.697 138.658 175.092 135.642 173.625 132.544 170.2 131.369 167.808 129.16 164.93 126.799 160.657 126.518 157.503 128.522 152.203 131.726 148.829 137.109 144.909 141.74 146.468 134.359 143.12 126.942 144.321 119.541 144.633 117.537 146.028 115.569 148.129 115.242 151.313 114.685 154.426 115.932 157.309 117.138 163.141 119.03 169.975 116.648 173.681 111.838 175.337 109.696 176.099 106.675 174.918 104.135 173.589 101.145 170.553 99.5602 167.89 97.9553 164.961 96.2072 161.046 95.742 158.127 97.7713 152.995 101.237 150.419 107.437 145.011 110.591 146.616 102.683 143.069 94.7657 144.275 86.8328 144.577 84.7729 145.829 82.6568 147.96 82.115 150.971 81.3636 154.068 82.3808 156.844 83.5257 160.667 84.7985 164.91 84.2618 168.6 82.7948 171.176 81.7163 173.717 80.0346 174.964 77.4482 175.976 75.3986 175.618 72.894 174.376 71.0334 172.352 68.2835 171.033 64.6288 167.568 63.3509 162.318 61.3166 156.767 64.639 153.399 68.5595 151.232 70.8187 150.352 74.5501 147.173 75.6644 145.675 75.2503 145.629 73.3744 145.42 72.1068 145.026 65.9015 145.875 59.6861 146.979 53.5932Z" fill="#FFFFFF" transform="matrix(1 0 0 1.00032 -99.8149 0)"/><path d="M193.38 53.6853C290.252 54.8098 387.221 50.1175 484.011 55.9241 483.648 190.988 482.436 326.052 479.732 461.091 386.51 464.756 293.232 459.537 199.989 461.495 197.49 461.71 194.709 462.348 192.455 460.856 190.002 459.251 189.266 456.164 188.949 453.429 188.213 446.927 189.419 440.313 188.003 433.878 185.12 323.154 190.181 212.431 189.077 101.702 189.031 93.1965 188.765 84.686 188.77 76.1806 189.383 70.8698 188.836 65.4466 190.058 60.2125 190.595 57.7948 191.765 55.556 193.38 53.6853M312.037 182.667C308.607 183.623 305.213 185.105 302.627 187.604 300.761 189.388 299.775 192.215 300.674 194.714 301.18 196.34 302.54 197.47 303.894 198.4 294.188 218.36 288.34 240.16 286.214 262.231 285.386 273.231 284.609 284.609 288.029 295.277 290.548 303.138 295.287 310.698 302.571 314.915 309.134 318.774 317.061 319.433 324.488 318.539 334.844 317.317 344.556 312.645 352.724 306.276 366.535 295.737 376.819 280.867 382.569 264.531 389.342 245.149 387.993 222.587 377.284 204.861 371.411 195.062 362.308 187.037 351.456 183.244 342.879 180.172 333.541 180.126 324.616 181.445 322.06 179.861 318.917 179.017 315.932 179.61 314.214 179.968 313.069 181.369 312.037 182.667Z" fill="#FFFFFF" transform="matrix(1 0 0 1.00032 -99.8149 0)"/><path d="M134.338 66.4791C135.218 66.6938 136.424 66.5405 136.925 67.4861 136.771 68.7435 135.059 69.868 133.914 69.1524 133.541 68.2477 134.175 67.3532 134.338 66.4791Z" fill="#FFFFFF" transform="matrix(1 0 0 1.00032 -99.8149 0)"/><path d="M159.875 68.4726C161.444 68.1148 163.33 67.1487 164.802 68.2324 165.6 70.2054 163.489 72.6026 161.49 72.7355 159.742 72.1477 160.023 69.9293 159.875 68.4726Z" fill="#FFFFFF" transform="matrix(1 0 0 1.00032 -99.8149 0)"/><path d="M134.548 102.019C135.688 102.525 137.073 102.862 137.778 103.987 138.187 104.687 137.574 105.449 136.971 105.771 135.826 106.43 134.328 106.762 133.101 106.123 132.059 104.661 133.781 103.179 134.548 102.019Z" fill="#FFFFFF" transform="matrix(1 0 0 1.00032 -99.8149 0)"/><path d="M160.437 105.316C159.584 104.079 161.081 102.878 161.628 101.845 162.799 102.203 164.179 102.407 164.971 103.455 164.976 105.428 161.925 105.975 160.437 105.316Z" fill="#FFFFFF" transform="matrix(1 0 0 1.00032 -99.8149 0)"/><path d="M134.553 131.404C135.678 131.982 136.899 133.05 136.925 134.41 136.178 136.035 133.158 136.071 132.406 134.43 132.411 133.081 133.602 132.176 134.553 131.404Z" fill="#FFFFFF" transform="matrix(1 0 0 1.00032 -99.8149 0)"/><path d="M161.73 133.291C162.967 133.771 164.087 134.512 164.92 135.555 163.525 137.4 160.606 137.191 158.694 136.332 158.091 134.63 160.678 134.113 161.73 133.291Z" fill="#FFFFFF" transform="matrix(1 0 0 1.00032 -99.8149 0)"/><path d="M134.584 162.691C135.826 163.295 138.065 163.755 137.86 165.538 136.874 166.995 134.502 167.665 132.994 166.668 132.202 165.17 133.791 163.821 134.584 162.691Z" fill="#FFFFFF" transform="matrix(1 0 0 1.00032 -99.8149 0)"/><path d="M159.998 166.786C161.398 166.453 162.973 165.549 164.373 166.331 165.145 168.191 163.187 170.251 161.439 170.691 159.671 170.394 159.972 168.11 159.998 166.786Z" fill="#FFFFFF" transform="matrix(1 0 0 1.00032 -99.8149 0)"/><path d="M132.427 197.296C132.324 195.803 133.71 194.868 134.763 194.081 135.611 195.021 137.114 195.859 136.889 197.332 135.959 198.722 133.301 198.798 132.427 197.296Z" fill="#FFFFFF" transform="matrix(1 0 0 1.00032 -99.8149 0)"/><path d="M320.777 198.993C328.588 197.909 336.73 196.146 344.479 198.512 354.089 201.431 361.93 208.74 366.744 217.419 372.035 226.702 373.916 237.804 372.26 248.333 370.956 256.558 367.705 264.363 363.555 271.544 358.796 279.866 352.632 287.405 345.271 293.564 339.368 298.568 332.411 302.729 324.652 303.894 319.949 304.564 314.782 304.329 310.698 301.64 307.171 299.345 305.167 295.42 303.782 291.571 302.162 286.919 301.635 281.961 301.645 277.054 301.686 263.979 303.547 250.961 306.425 238.223 309.486 224.606 314 211.235 320.777 198.993Z" fill="#FFFFFF" transform="matrix(1 0 0 1.00032 -99.8149 0)"/><path d="M158.117 198.042C159.543 197.715 161.168 197.03 162.564 197.838 163.688 199.519 161.736 201.835 159.962 201.998 158.224 201.589 158.357 199.417 158.117 198.042Z" fill="#FFFFFF" transform="matrix(1 0 0 1.00032 -99.8149 0)"/><path d="M134.722 231.951C136.066 233.173 137.487 234.757 137.334 236.705 137.093 239.174 133.05 240.503 131.757 238.192 131.21 235.703 133.347 233.75 134.722 231.951Z" fill="#FFFFFF" transform="matrix(1 0 0 1.00032 -99.8149 0)"/><path d="M160.12 235.861C162.359 235.381 164.986 234.256 167.128 235.59 165.973 238.32 163.146 239.838 160.56 240.957 159.691 241.31 157.882 241.637 157.948 240.196 158.239 238.596 159.032 237.057 160.12 235.861Z" fill="#FFFFFF" transform="matrix(1 0 0 1.00032 -99.8149 0)"/><path d="M134.594 265.334C135.693 266.474 137.099 267.675 137.124 269.387 136.771 271.805 132.304 271.774 132.069 269.316 132.125 267.634 133.531 266.469 134.594 265.334Z" fill="#FFFFFF" transform="matrix(1 0 0 1.00032 -99.8149 0)"/><path d="M159.706 268.861C161.005 269.203 163.228 269.254 163.438 270.91 162.513 272.582 159.568 273.768 158.014 272.393 157.876 270.982 159.006 269.944 159.706 268.861Z" fill="#FFFFFF" transform="matrix(1 0 0 1.00032 -99.8149 0)"/><path d="M132.636 300.92C134.451 302.31 135.821 304.968 134.354 307.089 133.705 308.316 131.404 309.532 130.694 307.748 130.254 305.31 131.655 303.051 132.636 300.92Z" fill="#FFFFFF" transform="matrix(1 0 0 1.00032 -99.8149 0)"/><path d="M157.713 304.825C159.793 304.426 162.058 303.772 164.123 304.528 165.211 305.07 164.526 306.399 163.969 307.079 162.242 309.134 159.941 310.739 157.411 311.633 156.563 311.981 155.014 312.078 154.963 310.815 155.142 308.561 156.619 306.716 157.713 304.825Z" fill="#FFFFFF" transform="matrix(1 0 0 1.00032 -99.8149 0)"/><path d="M157.974 343.017C158.219 341.811 159.088 340.891 159.803 339.945 161.03 340.318 162.482 340.436 163.387 341.463 163.663 342.859 162.022 343.487 160.974 343.866 159.998 344.188 158.014 344.53 157.974 343.017Z" fill="#FFFFFF" transform="matrix(1 0 0 1.00032 -99.8149 0)"/><path d="M130.413 343.912C130.004 342.389 131.634 341.433 132.534 340.508 133.454 341.387 135.023 342.271 134.773 343.758 133.935 345.179 131.394 345.184 130.413 343.912Z" fill="#FFFFFF" transform="matrix(1 0 0 1.00032 -99.8149 0)"/><path d="M129.983 376.103C129.978 374.381 131.399 373.134 132.56 372.045 133.602 373.231 135.085 374.437 135.013 376.175 134.558 378.485 130.336 378.444 129.983 376.103Z" fill="#FFFFFF" transform="matrix(1 0 0 1.00032 -99.8149 0)"/><path d="M157.57 373.742C158.045 372.771 158.981 372.193 159.829 371.595 160.493 372.347 162.4 373.328 161.414 374.514 160.371 375.362 157.519 375.572 157.57 373.742Z" fill="#FFFFFF" transform="matrix(1 0 0 1.00032 -99.8149 0)"/><path d="M157.585 398.727C159.717 398.839 161.986 399.095 163.806 400.316 164.705 400.884 164.976 402.172 164.281 403.03 162.947 404.845 160.724 405.877 158.536 406.21 157.401 406.404 155.817 406.102 155.53 404.794 155.188 402.555 156.645 400.623 157.585 398.727Z" fill="#FFFFFF" transform="matrix(1 0 0 1.00032 -99.8149 0)"/><path d="M129.805 406.424C128.624 404.917 129.927 403 130.668 401.594 132.227 402.197 134.512 402.417 135.069 404.298 134.671 406.414 131.553 407.574 129.805 406.424Z" fill="#FFFFFF" transform="matrix(1 0 0 1.00032 -99.8149 0)"/><path d="M130.638 434.68C131.992 434.829 133.827 434.588 134.619 435.989 134.87 437.798 132.856 439.603 131.087 439.352 129.472 438.376 130.423 436.158 130.638 434.68Z" fill="#FFFFFF" transform="matrix(1 0 0 1.00032 -99.8149 0)"/><path d="M159.665 436.623C160.749 436.541 162.38 435.836 163.065 437.052 162.988 438.458 161.73 439.669 160.396 439.971 158.873 439.69 159.65 437.676 159.665 436.623Z" fill="#FFFFFF" transform="matrix(1 0 0 1.00032 -99.8149 0)"/></g></svg>