<svg width="428" height="518" xmlns="http://www.w3.org/2000/svg" xmlns:xlink="http://www.w3.org/1999/xlink" xml:space="preserve" overflow="hidden"><defs><clipPath id="clip0"><rect x="0" y="0" width="428" height="520"/></clipPath></defs><g clip-path="url(#clip0)"><path d="M138.08 46.1237C254.999 50.7657 372.031 49.3854 489.007 50.1011 491.722 131.234 488.348 212.383 486.441 293.485 485.081 351.311 484.36 409.209 487.346 466.999 369.547 470.608 251.671 468.849 133.872 466.339 135.299 462.98 135.299 459.161 134.133 455.731 132.502 450.532 129.24 445.982 127.886 440.68 126.965 437.194 127.62 433.027 130.442 430.578 132.778 428.451 134.593 425.226 133.652 422 131.807 415.824 125.324 412.608 122.993 406.714 121.649 403.058 124.69 399.751 127.63 398.053 129.982 396.847 132.732 395.083 132.732 392.108 132.558 388.713 130.156 386.06 128.366 383.36 126.633 380.794 124.486 377.987 124.88 374.705 125.217 372.308 127.252 370.779 129.067 369.445 131.505 367.65 133.172 364.588 132.594 361.505 131.515 355.34 126.367 350.785 125.324 344.609 124.798 341.587 126.408 338.607 128.801 336.848 132.108 334.486 133.606 330.09 132.819 326.158 131.546 319.389 126.643 313.986 125.243 307.268 124.353 303.531 125.907 299.533 128.837 297.12 131.602 294.983 133.177 291.348 132.569 287.867 131.5 281.313 126.132 276.415 125.043 269.871 124.414 266.257 126.633 262.867 129.491 260.868 131.572 259.391 134.113 257.832 134.552 255.086 134.849 252.612 133.024 250.598 131.413 248.967 128.545 246.058 124.9 243.742 122.968 240.035 121.373 237.055 123.029 233.282 125.774 231.646 130.478 228.824 133.908 223.84 134.404 218.328 135.161 210.885 131.684 203.615 126.694 198.278 128.095 193.007 131.858 188.82 133.698 183.738 134.521 181.525 134.506 178.81 132.891 176.949 131.229 174.735 128.254 174.173 126.531 172.031 124.588 170.088 123.479 167.108 124.583 164.454 126.536 159.598 131.28 156.648 133.658 152.057 134.583 150.319 134.772 148.131 133.816 146.372 132.359 143.335 128.811 142.078 127.313 139.072 126.301 137.257 126.342 135.023 127.119 133.136 128.678 129.215 131.914 126.301 133.826 122.579 134.639 121.004 135.038 119.011 134.092 117.395 132.604 114.726 129.378 113.96 127.293 111.894 124.869 109.905 123.019 106.685 124.051 103.484 126.255 96.8281 133.085 92.8967 135.074 86.1177 136.081 82.764 134.481 79.3182 132.139 76.941 129.823 74.5484 128.514 71.0311 129.527 67.749 131.26 61.9004 136.101 57.5549 137.763 51.6706 138.31 49.8711 138.284 47.9744 138.08 46.1237M145.753 54.145C144.762 59.5539 144.077 65.0445 144.092 70.5557 144.189 72.2785 144.133 74.165 145.084 75.6782 145.574 76.5218 146.638 76.1486 147.226 75.6425 149.45 73.8685 150.38 71.0465 152.287 68.9964 155.124 65.7858 159.127 63.1223 163.565 63.2654 166.755 63.3626 169.551 65.5098 171.024 68.25 172.092 70.3716 174.045 72.0945 174.301 74.574 174.761 77.7079 172.527 80.4583 170.006 82.0074 165.891 84.5329 160.676 85.5451 155.988 84.2057 153.044 83.0452 149.792 81.8335 146.607 82.7282 144.327 83.3724 143.202 85.7854 142.967 87.9735 142.062 95.7392 145.324 103.449 143.821 111.189 148.376 108.459 150.988 103.668 154.741 100.074 156.561 98.3158 158.933 96.8997 161.545 96.9917 164.684 97.053 167.363 98.8679 169.889 100.529 171.929 101.854 173.754 103.812 174.188 106.281 174.664 108.903 173.427 111.516 171.678 113.407 167.506 117.886 160.41 119.859 154.736 117.196 152.108 116.102 149.112 115.212 146.285 116.02 144.281 116.628 143.264 118.735 143.018 120.672 142.113 127.942 145.165 135.166 143.734 142.415 147.072 138.243 150.181 133.765 154.393 130.406 156.955 128.356 160.467 127.032 163.698 128.218 166.141 128.944 167.777 131.009 169.93 132.236 172.23 133.617 174.291 135.82 174.597 138.591 174.95 141.648 173.258 144.531 171.116 146.576 166.965 150.513 160.497 152.466 155.063 150.186 152.323 148.805 149.291 147.338 146.137 147.911 144.271 148.289 143.213 150.165 142.972 151.924 141.95 159.347 145.39 166.714 143.872 174.101 147.44 169.996 151.367 166.126 155.896 163.079 158.744 161.259 162.118 159.633 165.584 160.318 168.805 160.988 170.932 163.866 172.184 166.719 173.427 169.587 174.454 172.89 173.447 175.983 172.532 178.641 169.72 179.904 167.174 180.466 160.528 181.877 153.642 180.834 146.985 182.143 144.552 182.644 141.776 183.779 140.938 186.351 139.966 189.413 141.393 192.47 142.389 195.323 142.533 197.618 142.272 199.98 142.942 202.219 143.115 202.92 143.76 203.871 144.603 203.467 146.444 202.695 147.65 200.998 149.025 199.622 152.057 196.483 155.109 192.746 159.582 191.765 162.271 191.115 164.649 192.761 166.591 194.397 169.557 195.829 172.644 197.526 174.337 200.491 176.024 203.196 175.932 206.769 174.362 209.51 171.755 214.193 166.269 216.83 160.998 216.636 157.379 216.554 153.897 215.128 150.988 213.022 149.301 211.703 146.699 211.56 145.033 212.991 143.054 214.637 142.18 217.188 141.515 219.586 140.125 225.363 140.074 231.426 141.035 237.275 141.515 239.57 141.97 242.08 143.627 243.849 144.537 244.862 146.06 244.361 146.807 243.425 148.458 241.538 149.588 239.197 150.135 236.758 150.687 234.376 151.898 232.076 153.851 230.552 156.581 228.405 160.359 228.221 163.611 229.095 168.013 230.296 172.051 233.021 174.735 236.707 175.471 239.897 175.236 243.563 173.15 246.221 170.937 249.049 167.404 250.388 164.02 251.201 156.658 252.908 149.041 252.489 141.582 253.445 140.886 260.337 140.447 267.356 141.505 274.232 141.868 275.628 142.195 278.117 144.102 277.99 145.84 277.289 146.909 275.52 147.742 273.925 148.253 271.655 148.851 269.304 150.416 267.499 152.548 264.841 156.126 263.747 159.444 264.028 165.073 264.488 170.466 267.75 173.365 272.622 175.001 275.357 175.456 278.664 174.868 281.778 172.087 284.385 168.432 285.996 164.633 286.292 156.903 287.008 149.363 284.38 141.648 284.467 141.602 292.064 140.59 299.635 140.845 307.237 140.984 308.879 140.958 310.673 141.883 312.104 142.671 312.922 143.637 311.987 144.194 311.378 146.05 309.149 147.364 306.522 148.524 303.884 149.664 301.353 151.745 299.165 154.419 298.281 157.834 297.11 161.602 297.912 164.751 299.492 168.754 301.522 172.246 304.83 173.979 309.027 175.175 311.915 175.139 315.412 173.386 318.076 171.688 320.57 169.255 322.748 166.233 323.398 160.293 324.768 154.194 323.193 148.197 323.807 146.674 323.986 145.114 324.379 143.852 325.294 142.149 326.516 141.306 328.679 141.352 330.734 141.5 336.72 140.621 342.727 141.362 348.699 141.459 349.813 141.94 350.841 142.579 351.756 144.787 351.183 146.479 348.944 146.602 346.679 147.701 339.159 155.492 333.31 163.023 334.43 166.54 334.952 169.557 337.487 170.932 340.723 172.077 343.407 173.928 346.045 173.508 349.118 173.186 352.052 170.686 354.138 168.135 355.253 163.493 357.272 158.335 357.758 153.325 357.676 151.587 357.783 150.242 356.475 148.606 356.122 146.49 355.457 143.979 356.004 142.584 357.799 140.181 360.815 139.777 364.879 139.767 368.606 139.895 372.21 140.309 376.019 142.257 379.148 142.89 380.354 144.577 381.05 145.682 380.022 149.255 377.093 148.58 371.735 151.822 368.565 154.357 365.738 158.575 365.12 162.098 366.162 169.076 368.1 175.119 374.736 174.7 382.256 172.568 384.659 169.73 386.407 166.607 387.184 158.458 389.27 149.874 387.251 141.73 389.408 142.65 391.786 142.129 394.357 141.832 396.806 141.295 400.845 140.355 404.863 140.375 408.963 140.431 410.154 140.569 411.959 142.067 412.184 143.039 411.995 144.429 411.785 144.751 410.681 146.76 405.011 148.575 398.692 153.463 394.781 156.387 392.404 160.431 393.048 163.58 394.608 167.921 395.722 171.903 399.199 172.338 403.856 173.058 410.113 169.004 416.443 163.222 418.779 159.598 420.256 155.359 419.991 151.863 418.283 150.273 417.409 148.58 416.463 146.694 416.627 144.833 416.713 143.269 417.986 142.277 419.49 140.355 422.429 139.711 426.003 139.445 429.453 139.25 433.16 139.429 437.01 140.871 440.481 141.449 441.8 142.492 443.395 144.148 443.226 145.881 442.884 147.241 441.437 147.727 439.77 149.393 435.138 153.437 431.238 158.412 430.522 165.686 429.382 172.9 433.819 176.576 439.929 177.47 443.722 176.831 448.206 173.836 450.946 170.41 454.095 165.523 454.862 161.034 454.949 154.133 454.913 147.088 453.512 141.009 450.153 140.605 453.277 140.35 456.769 142.19 459.519 143.862 462.029 146.985 462.996 149.843 463.302 155.099 463.824 160.349 462.955 165.564 462.387 169.96 461.922 174.459 461.257 178.835 462.229 178.646 326.184 182.818 190.159 181.08 54.1143 169.311 53.419 157.522 53.7871 145.753 54.145M192.25 54.1706C190.916 55.694 189.822 57.4425 189.239 59.3954 187.654 64.4055 188.171 69.7326 187.726 74.8961 187.572 76.3326 187.491 77.7743 187.547 79.2211 189.74 197.838 183.687 316.465 186.826 435.072 188.37 442.04 186.724 449.238 188.027 456.232 188.442 458.318 189.285 460.516 191.11 461.764 194.045 463.803 197.649 462.213 200.9 462.459 293.46 460.618 386.05 465.751 478.588 462.096 481.283 326.9 482.499 191.683 482.867 56.4609 386.085 50.6072 289.119 55.4026 192.25 54.1706M133.162 67.0077C132.932 67.9024 131.863 69.7581 133.397 69.9677 134.419 69.845 135.534 69.1753 135.718 68.0813 135.242 67.1355 134.041 67.2224 133.162 67.0077M158.677 69.0117C158.795 70.4994 158.544 73.0198 160.533 73.301 162.374 72.9125 164.071 70.9749 163.774 69.0475 162.491 67.5087 160.278 68.6743 158.677 69.0117M131.597 106.312C132.916 107.774 135.825 106.971 136.689 105.315 136.674 103.607 134.593 103.219 133.361 102.595 132.579 103.699 131.311 104.824 131.597 106.312M159.107 105.744C160.692 106.802 163.12 105.897 164.025 104.297 163.156 103.193 161.806 102.784 160.518 102.406 159.889 103.382 158.565 104.461 159.107 105.744M131.183 135.043C131.95 136.699 134.925 136.658 135.728 135.048 135.748 133.601 134.353 132.794 133.433 131.909 132.528 132.799 131.198 133.622 131.183 135.043M157.067 136.52C158.877 138.085 161.745 137.793 163.667 136.572 163.273 135.12 161.811 134.547 160.615 133.903 159.316 134.603 157.854 135.191 157.067 136.52M131.756 167.276C133.208 168.381 135.738 167.67 136.653 166.147 136.817 164.383 134.583 163.964 133.351 163.34 132.594 164.475 131.035 165.799 131.756 167.276M158.703 167.522C158.831 168.728 158.544 170.262 159.587 171.152 160.748 171.734 161.873 170.594 162.547 169.766 163.125 169.009 163.948 167.624 162.951 166.867 161.53 166.325 160.058 167.128 158.703 167.522M131.178 197.889C131.96 199.535 134.977 199.494 135.733 197.853 135.713 196.422 134.358 195.63 133.433 194.755 132.512 195.64 131.204 196.468 131.178 197.889M156.919 198.728C157.139 200.082 157.011 201.933 158.468 202.654 160.359 202.838 162.527 200.261 161.346 198.544 159.971 197.715 158.345 198.426 156.919 198.728M133.591 232.669C132.385 234.054 131.081 235.465 130.544 237.265 130.237 238.149 130.411 239.335 131.326 239.8 133.208 240.777 136.05 239.463 136.147 237.234 136.173 235.363 134.782 233.942 133.591 232.669M158.78 236.595C158.054 237.771 157.241 238.936 156.868 240.291 156.438 241.084 156.97 242.29 157.997 242.009 160.564 241.595 162.829 240.025 164.7 238.292 165.226 237.684 166.239 236.723 165.41 235.961 163.222 235.276 160.937 236.181 158.78 236.595M130.861 269.938C130.856 272.652 135.938 272.627 135.907 269.917 135.743 268.317 134.424 267.213 133.397 266.114 132.349 267.208 131.02 268.322 130.861 269.938M157.082 273.501C158.984 274.278 161.459 273.235 162.445 271.456 161.535 270.193 159.976 269.933 158.57 269.605 157.875 270.725 156.177 272.105 157.082 273.501M129.619 308.879C130.738 310.346 132.717 308.853 133.32 307.611 134.521 305.484 133.095 303.117 131.454 301.721 130.442 303.919 128.831 306.373 129.619 308.879M156.576 305.591C155.416 307.539 153.8 309.487 153.785 311.864 153.938 312.053 154.245 312.437 154.403 312.626 157.369 312.743 159.92 310.632 162.026 308.751 162.808 307.933 164.281 306.307 162.931 305.351 160.876 304.594 158.657 305.279 156.576 305.591M158.58 340.826C157.844 341.945 156.326 343.203 156.98 344.665 158.764 345.493 161.806 344.583 162.256 342.533 161.489 341.27 159.853 341.204 158.58 340.826M129.087 344.558C129.936 346.127 132.737 346.102 133.606 344.573 133.714 343.096 132.262 342.272 131.347 341.378 130.416 342.267 129.067 343.106 129.087 344.558M156.387 375.247C157.353 376.433 159.439 376.198 160.472 375.191 160.707 373.872 159.316 373.238 158.514 372.492 157.701 373.264 156.229 373.933 156.387 375.247M128.801 377.272C129.486 379.311 133.141 379.301 133.78 377.231 133.974 375.416 132.405 374.122 131.29 372.936 130.166 374.138 128.571 375.436 128.801 377.272M156.5 399.577C155.462 401.371 154.189 403.248 154.25 405.415 154.327 406.739 155.768 407.337 156.929 407.194 159.076 407.005 161.193 406.039 162.685 404.474 163.473 403.718 163.831 402.317 162.91 401.52 161.152 400.006 158.683 399.914 156.5 399.577M128.484 407.276C130.176 408.6 133.361 407.399 133.826 405.344 133.489 403.375 130.999 403.145 129.47 402.537 128.704 403.922 127.512 405.712 128.484 407.276M129.43 435.665C129.189 437.158 128.284 439.32 129.864 440.358 131.669 440.563 133.964 438.605 133.274 436.713 132.323 435.604 130.733 435.788 129.43 435.665M158.473 437.567C158.463 438.635 157.691 440.374 158.999 440.956 160.431 440.803 161.699 439.499 161.883 438.088 161.259 436.79 159.562 437.546 158.473 437.567Z" transform="matrix(1 0 0 1.00014 -97.8754 0)"/><path d="M363.463 183.61C369.823 182.097 376.438 181.678 382.957 182.169 391.341 182.844 399.51 186.698 404.95 193.186 410.732 199.714 413.109 208.707 412.511 217.301 412.117 226.626 408.498 235.434 404.04 243.507 399.541 251.937 393.365 259.289 387.307 266.625 375.876 280.188 363.315 292.744 351.352 305.837 349.256 308.147 346.874 310.218 345.069 312.784 348.985 313.393 352.957 312.795 356.873 312.416 367.297 311.067 377.609 308.965 387.992 307.299 402.9 304.569 418.058 303.541 432.981 300.949 436.575 299.436 439.801 296.885 443.702 296.128 446.467 295.709 449.044 297.749 449.75 300.366 450.665 303.587 451.171 307.56 448.845 310.33 446.288 313.29 442.398 314.768 438.635 315.443 422.894 317.222 407.261 319.809 391.561 321.854 373.913 324.277 356.321 327.958 338.433 327.723 333.929 327.62 329.348 324.829 327.753 320.524 326.634 317.227 326.654 313.244 328.781 310.346 330.877 307.37 333.714 305.054 336.219 302.442 349.701 289.14 362.211 274.902 374.414 260.429 380.528 253.016 386.474 245.409 391.402 237.137 395.942 229.524 398.375 220.44 397.164 211.58 396.52 206.8 393.933 202.26 389.853 199.607 384.424 195.844 377.44 195.609 371.106 196.422 365.283 197.071 359.997 199.791 354.869 202.444 351.991 203.993 349.097 205.522 346.301 207.209 341.342 210.573 337.109 214.97 331.782 217.786 328.699 219.509 324.154 218.656 322.447 215.404 320.703 211.979 321.358 207.618 323.73 204.648 326.644 200.849 331.23 199.055 335.217 196.657 344.445 191.949 353.305 186.167 363.463 183.61Z" transform="matrix(1 0 0 1.00014 -97.8754 0)"/><path d="M260.204 187.593C262.796 185.62 266.323 185.87 269.37 186.33 272.131 186.8 275.234 188.048 276.287 190.885 277.366 193.794 275.965 196.831 274.36 199.239 275.577 205.169 275.459 211.248 275.873 217.265 276.809 232.633 278.02 247.985 279.252 263.338 280.224 274.892 281.129 286.461 282.519 297.979 283.966 306.276 286.445 314.354 288.015 322.626 288.424 324.435 288.148 326.424 287.028 327.937 284.886 330.851 281.267 332.661 277.642 332.574 275.541 332.539 273.966 330.887 272.918 329.236 270.035 324.737 269.391 319.313 268.557 314.154 265.127 291.205 263.67 268.026 262.106 244.897 261.42 234.611 260.73 224.325 260.045 214.034 250.286 223.18 239.79 231.6 228.395 238.63 226.242 239.816 223.896 241.17 221.34 240.818 218.783 240.552 216.575 238.584 215.813 236.16 215.21 234.064 216.197 231.876 217.638 230.368 219.908 227.955 222.93 226.488 225.598 224.576 237.934 216.345 248.348 205.686 258.895 195.353 259.145 192.792 258.108 189.592 260.204 187.593Z" transform="matrix(1 0 0 1.00014 -97.8754 0)"/><path d="M145.753 54.145C157.522 53.7871 169.311 53.419 181.08 54.1143 182.818 190.159 178.646 326.184 178.835 462.229 174.459 461.257 169.96 461.922 165.564 462.387 160.349 462.955 155.099 463.824 149.843 463.302 146.985 462.996 143.862 462.029 142.19 459.519 140.35 456.769 140.605 453.277 141.009 450.153 147.088 453.512 154.133 454.913 161.034 454.949 165.523 454.862 170.41 454.095 173.836 450.946 176.831 448.206 177.47 443.722 176.576 439.929 172.9 433.819 165.686 429.382 158.412 430.522 153.437 431.238 149.393 435.138 147.727 439.77 147.241 441.437 145.881 442.884 144.148 443.226 142.492 443.395 141.449 441.8 140.871 440.481 139.429 437.01 139.25 433.16 139.445 429.453 139.711 426.003 140.355 422.429 142.277 419.49 143.269 417.986 144.833 416.713 146.694 416.627 148.58 416.463 150.273 417.409 151.863 418.283 155.359 419.991 159.598 420.256 163.222 418.779 169.004 416.443 173.058 410.113 172.338 403.856 171.903 399.199 167.921 395.722 163.58 394.608 160.431 393.048 156.387 392.404 153.463 394.781 148.575 398.692 146.76 405.011 144.751 410.681 144.429 411.785 143.039 411.995 142.067 412.184 140.569 411.959 140.431 410.154 140.375 408.963 140.355 404.863 141.295 400.845 141.832 396.806 142.129 394.357 142.65 391.786 141.73 389.408 149.874 387.251 158.458 389.27 166.607 387.184 169.73 386.407 172.568 384.659 174.7 382.256 175.119 374.736 169.076 368.1 162.098 366.162 158.575 365.12 154.357 365.738 151.822 368.565 148.58 371.735 149.255 377.093 145.682 380.022 144.577 381.05 142.89 380.354 142.257 379.148 140.309 376.019 139.895 372.21 139.767 368.606 139.777 364.879 140.181 360.815 142.584 357.799 143.979 356.004 146.49 355.457 148.606 356.122 150.242 356.475 151.587 357.783 153.325 357.676 158.335 357.758 163.493 357.272 168.135 355.253 170.686 354.138 173.186 352.052 173.508 349.118 173.928 346.045 172.077 343.407 170.932 340.723 169.557 337.487 166.54 334.952 163.023 334.43 155.492 333.31 147.701 339.159 146.602 346.679 146.479 348.944 144.787 351.183 142.579 351.756 141.94 350.841 141.459 349.813 141.362 348.699 140.621 342.727 141.5 336.72 141.352 330.734 141.306 328.679 142.149 326.516 143.852 325.294 145.114 324.379 146.674 323.986 148.197 323.807 154.194 323.193 160.293 324.768 166.233 323.398 169.255 322.748 171.688 320.57 173.386 318.076 175.139 315.412 175.175 311.915 173.979 309.027 172.246 304.83 168.754 301.522 164.751 299.492 161.602 297.912 157.834 297.11 154.419 298.281 151.745 299.165 149.664 301.353 148.524 303.884 147.364 306.522 146.05 309.149 144.194 311.378 143.637 311.987 142.671 312.922 141.883 312.104 140.958 310.673 140.984 308.879 140.845 307.237 140.59 299.635 141.602 292.064 141.648 284.467 149.363 284.38 156.903 287.008 164.633 286.292 168.432 285.996 172.087 284.385 174.868 281.778 175.456 278.664 175.001 275.357 173.365 272.622 170.466 267.75 165.073 264.488 159.444 264.028 156.126 263.747 152.548 264.841 150.416 267.499 148.851 269.304 148.253 271.655 147.742 273.925 146.909 275.52 145.84 277.289 144.102 277.99 142.195 278.117 141.868 275.628 141.505 274.232 140.447 267.356 140.886 260.337 141.582 253.445 149.041 252.489 156.658 252.908 164.02 251.201 167.404 250.388 170.937 249.049 173.15 246.221 175.236 243.563 175.471 239.897 174.735 236.707 172.051 233.021 168.013 230.296 163.611 229.095 160.359 228.221 156.581 228.405 153.851 230.552 151.898 232.076 150.687 234.376 150.135 236.758 149.588 239.197 148.458 241.538 146.807 243.425 146.06 244.361 144.537 244.862 143.627 243.849 141.97 242.08 141.515 239.57 141.035 237.275 140.074 231.426 140.125 225.363 141.515 219.586 142.18 217.188 143.054 214.637 145.033 212.991 146.699 211.56 149.301 211.703 150.988 213.022 153.897 215.128 157.379 216.554 160.998 216.636 166.269 216.83 171.755 214.193 174.362 209.51 175.932 206.769 176.024 203.196 174.337 200.491 172.644 197.526 169.557 195.829 166.591 194.397 164.649 192.761 162.271 191.115 159.582 191.765 155.109 192.746 152.057 196.483 149.025 199.622 147.65 200.998 146.444 202.695 144.603 203.467 143.76 203.871 143.115 202.92 142.942 202.219 142.272 199.98 142.533 197.618 142.389 195.323 141.393 192.47 139.966 189.413 140.938 186.351 141.776 183.779 144.552 182.644 146.985 182.143 153.642 180.834 160.528 181.877 167.174 180.466 169.72 179.904 172.532 178.641 173.447 175.983 174.454 172.89 173.427 169.587 172.184 166.719 170.932 163.866 168.805 160.988 165.584 160.318 162.118 159.633 158.744 161.259 155.896 163.079 151.367 166.126 147.44 169.996 143.872 174.101 145.39 166.714 141.95 159.347 142.972 151.924 143.213 150.165 144.271 148.289 146.137 147.911 149.291 147.338 152.323 148.805 155.063 150.186 160.497 152.466 166.965 150.513 171.116 146.576 173.258 144.531 174.95 141.648 174.597 138.591 174.291 135.82 172.23 133.617 169.93 132.236 167.777 131.009 166.141 128.944 163.698 128.218 160.467 127.032 156.955 128.356 154.393 130.406 150.181 133.765 147.072 138.243 143.734 142.415 145.165 135.166 142.113 127.942 143.018 120.672 143.264 118.735 144.281 116.628 146.285 116.02 149.112 115.212 152.108 116.102 154.736 117.196 160.41 119.859 167.506 117.886 171.678 113.407 173.427 111.516 174.664 108.903 174.188 106.281 173.754 103.812 171.929 101.854 169.889 100.529 167.363 98.8679 164.684 97.053 161.545 96.9917 158.933 96.8997 156.561 98.3158 154.741 100.074 150.988 103.668 148.376 108.459 143.821 111.189 145.324 103.449 142.062 95.7392 142.967 87.9735 143.202 85.7854 144.327 83.3724 146.607 82.7282 149.792 81.8335 153.044 83.0452 155.988 84.2057 160.676 85.5451 165.891 84.5329 170.006 82.0074 172.527 80.4583 174.761 77.7079 174.301 74.574 174.045 72.0945 172.092 70.3716 171.024 68.25 169.551 65.5098 166.755 63.3626 163.565 63.2654 159.127 63.1223 155.124 65.7858 152.287 68.9964 150.38 71.0465 149.45 73.8685 147.226 75.6425 146.638 76.1486 145.574 76.5218 145.084 75.6782 144.133 74.165 144.189 72.2785 144.092 70.5557 144.077 65.0445 144.762 59.5539 145.753 54.145Z" fill="#FFFFFF" transform="matrix(1 0 0 1.00014 -97.8754 0)"/><path d="M192.25 54.1706C289.119 55.4026 386.085 50.6072 482.867 56.4609 482.499 191.683 481.283 326.9 478.588 462.096 386.05 465.751 293.46 460.618 200.9 462.459 197.649 462.213 194.045 463.803 191.11 461.764 189.285 460.516 188.442 458.318 188.027 456.232 186.724 449.238 188.37 442.04 186.826 435.072 183.687 316.465 189.74 197.838 187.547 79.2211 187.491 77.7743 187.572 76.3326 187.726 74.8961 188.171 69.7326 187.654 64.4055 189.239 59.3954 189.822 57.4425 190.916 55.694 192.25 54.1706M363.463 183.61C353.305 186.167 344.445 191.949 335.217 196.657 331.23 199.055 326.644 200.849 323.73 204.648 321.358 207.618 320.703 211.979 322.447 215.404 324.154 218.656 328.699 219.509 331.782 217.786 337.109 214.97 341.342 210.573 346.301 207.209 349.097 205.522 351.991 203.993 354.869 202.444 359.997 199.791 365.283 197.071 371.106 196.422 377.44 195.609 384.424 195.844 389.853 199.607 393.933 202.26 396.52 206.8 397.164 211.58 398.375 220.44 395.942 229.524 391.402 237.137 386.474 245.409 380.528 253.016 374.414 260.429 362.211 274.902 349.701 289.14 336.219 302.442 333.714 305.054 330.877 307.37 328.781 310.346 326.654 313.244 326.634 317.227 327.753 320.524 329.348 324.829 333.929 327.62 338.433 327.723 356.321 327.958 373.913 324.277 391.561 321.854 407.261 319.809 422.894 317.222 438.635 315.443 442.398 314.768 446.288 313.29 448.845 310.33 451.171 307.56 450.665 303.587 449.75 300.366 449.044 297.749 446.467 295.709 443.702 296.128 439.801 296.885 436.575 299.436 432.981 300.949 418.058 303.541 402.9 304.569 387.992 307.299 377.609 308.965 367.297 311.067 356.873 312.416 352.957 312.795 348.985 313.393 345.069 312.784 346.874 310.218 349.256 308.147 351.352 305.837 363.315 292.744 375.876 280.188 387.307 266.625 393.365 259.289 399.541 251.937 404.04 243.507 408.498 235.434 412.117 226.626 412.511 217.301 413.109 208.707 410.732 199.714 404.95 193.186 399.51 186.698 391.341 182.844 382.957 182.169 376.438 181.678 369.823 182.097 363.463 183.61M260.204 187.593C258.108 189.592 259.145 192.792 258.895 195.353 248.348 205.686 237.934 216.345 225.598 224.576 222.93 226.488 219.908 227.955 217.638 230.368 216.197 231.876 215.21 234.064 215.813 236.16 216.575 238.584 218.783 240.552 221.34 240.818 223.896 241.17 226.242 239.816 228.395 238.63 239.79 231.6 250.286 223.18 260.045 214.034 260.73 224.325 261.42 234.611 262.106 244.897 263.67 268.026 265.127 291.205 268.557 314.154 269.391 319.313 270.035 324.737 272.918 329.236 273.966 330.887 275.541 332.539 277.642 332.574 281.267 332.661 284.886 330.851 287.028 327.937 288.148 326.424 288.424 324.435 288.015 322.626 286.445 314.354 283.966 306.276 282.519 297.979 281.129 286.461 280.224 274.892 279.252 263.338 278.02 247.985 276.809 232.633 275.873 217.265 275.459 211.248 275.577 205.169 274.36 199.239 275.965 196.831 277.366 193.794 276.287 190.885 275.234 188.048 272.131 186.8 269.37 186.33 266.323 185.87 262.796 185.62 260.204 187.593Z" fill="#FFFFFF" transform="matrix(1 0 0 1.00014 -97.8754 0)"/><path d="M133.162 67.0077C134.041 67.2224 135.242 67.1355 135.718 68.0813 135.534 69.1753 134.419 69.845 133.397 69.9677 131.863 69.7581 132.932 67.9024 133.162 67.0077Z" fill="#FFFFFF" transform="matrix(1 0 0 1.00014 -97.8754 0)"/><path d="M158.677 69.0117C160.278 68.6743 162.491 67.5087 163.774 69.0475 164.071 70.9749 162.374 72.9125 160.533 73.301 158.544 73.0198 158.795 70.4994 158.677 69.0117Z" fill="#FFFFFF" transform="matrix(1 0 0 1.00014 -97.8754 0)"/><path d="M131.597 106.312C131.311 104.824 132.579 103.699 133.361 102.595 134.593 103.219 136.674 103.607 136.689 105.315 135.825 106.971 132.916 107.774 131.597 106.312Z" fill="#FFFFFF" transform="matrix(1 0 0 1.00014 -97.8754 0)"/><path d="M159.107 105.744C158.565 104.461 159.889 103.382 160.518 102.406 161.806 102.784 163.156 103.193 164.025 104.297 163.12 105.897 160.692 106.802 159.107 105.744Z" fill="#FFFFFF" transform="matrix(1 0 0 1.00014 -97.8754 0)"/><path d="M131.183 135.043C131.198 133.622 132.528 132.799 133.433 131.909 134.353 132.794 135.748 133.601 135.728 135.048 134.925 136.658 131.95 136.699 131.183 135.043Z" fill="#FFFFFF" transform="matrix(1 0 0 1.00014 -97.8754 0)"/><path d="M157.067 136.52C157.854 135.191 159.316 134.603 160.615 133.903 161.811 134.547 163.273 135.12 163.667 136.572 161.745 137.793 158.877 138.085 157.067 136.52Z" fill="#FFFFFF" transform="matrix(1 0 0 1.00014 -97.8754 0)"/><path d="M131.756 167.276C131.035 165.799 132.594 164.475 133.351 163.34 134.583 163.964 136.817 164.383 136.653 166.147 135.738 167.67 133.208 168.381 131.756 167.276Z" fill="#FFFFFF" transform="matrix(1 0 0 1.00014 -97.8754 0)"/><path d="M158.703 167.522C160.058 167.128 161.53 166.325 162.951 166.867 163.948 167.624 163.125 169.009 162.547 169.766 161.873 170.594 160.748 171.734 159.587 171.152 158.544 170.262 158.831 168.728 158.703 167.522Z" fill="#FFFFFF" transform="matrix(1 0 0 1.00014 -97.8754 0)"/><path d="M131.178 197.889C131.204 196.468 132.512 195.64 133.433 194.755 134.358 195.63 135.713 196.422 135.733 197.853 134.977 199.494 131.96 199.535 131.178 197.889Z" fill="#FFFFFF" transform="matrix(1 0 0 1.00014 -97.8754 0)"/><path d="M156.919 198.728C158.345 198.426 159.971 197.715 161.346 198.544 162.527 200.261 160.359 202.838 158.468 202.654 157.011 201.933 157.139 200.082 156.919 198.728Z" fill="#FFFFFF" transform="matrix(1 0 0 1.00014 -97.8754 0)"/><path d="M133.591 232.669C134.782 233.942 136.173 235.363 136.147 237.234 136.05 239.463 133.208 240.777 131.326 239.8 130.411 239.335 130.237 238.149 130.544 237.265 131.081 235.465 132.385 234.054 133.591 232.669Z" fill="#FFFFFF" transform="matrix(1 0 0 1.00014 -97.8754 0)"/><path d="M158.78 236.595C160.937 236.181 163.222 235.276 165.41 235.961 166.239 236.723 165.226 237.684 164.7 238.292 162.829 240.025 160.564 241.595 157.997 242.009 156.97 242.29 156.438 241.084 156.868 240.291 157.241 238.936 158.054 237.771 158.78 236.595Z" fill="#FFFFFF" transform="matrix(1 0 0 1.00014 -97.8754 0)"/><path d="M130.861 269.938C131.02 268.322 132.349 267.208 133.397 266.114 134.424 267.213 135.743 268.317 135.907 269.917 135.938 272.627 130.856 272.652 130.861 269.938Z" fill="#FFFFFF" transform="matrix(1 0 0 1.00014 -97.8754 0)"/><path d="M157.082 273.501C156.177 272.105 157.875 270.725 158.57 269.605 159.976 269.933 161.535 270.193 162.445 271.456 161.459 273.235 158.984 274.278 157.082 273.501Z" fill="#FFFFFF" transform="matrix(1 0 0 1.00014 -97.8754 0)"/><path d="M129.619 308.879C128.831 306.373 130.442 303.919 131.454 301.721 133.095 303.117 134.521 305.484 133.32 307.611 132.717 308.853 130.738 310.346 129.619 308.879Z" fill="#FFFFFF" transform="matrix(1 0 0 1.00014 -97.8754 0)"/><path d="M156.576 305.591C158.657 305.279 160.876 304.594 162.931 305.351 164.281 306.307 162.808 307.933 162.026 308.751 159.92 310.632 157.369 312.743 154.403 312.626 154.245 312.437 153.938 312.053 153.785 311.864 153.8 309.487 155.416 307.539 156.576 305.591Z" fill="#FFFFFF" transform="matrix(1 0 0 1.00014 -97.8754 0)"/><path d="M158.58 340.826C159.853 341.204 161.489 341.27 162.256 342.533 161.806 344.583 158.764 345.493 156.98 344.665 156.326 343.203 157.844 341.945 158.58 340.826Z" fill="#FFFFFF" transform="matrix(1 0 0 1.00014 -97.8754 0)"/><path d="M129.087 344.558C129.067 343.106 130.416 342.267 131.347 341.378 132.262 342.272 133.714 343.096 133.606 344.573 132.737 346.102 129.936 346.127 129.087 344.558Z" fill="#FFFFFF" transform="matrix(1 0 0 1.00014 -97.8754 0)"/><path d="M156.387 375.247C156.229 373.933 157.701 373.264 158.514 372.492 159.316 373.238 160.707 373.872 160.472 375.191 159.439 376.198 157.353 376.433 156.387 375.247Z" fill="#FFFFFF" transform="matrix(1 0 0 1.00014 -97.8754 0)"/><path d="M128.801 377.272C128.571 375.436 130.166 374.138 131.29 372.936 132.405 374.122 133.974 375.416 133.78 377.231 133.141 379.301 129.486 379.311 128.801 377.272Z" fill="#FFFFFF" transform="matrix(1 0 0 1.00014 -97.8754 0)"/><path d="M156.5 399.577C158.683 399.914 161.152 400.006 162.91 401.52 163.831 402.317 163.473 403.718 162.685 404.474 161.193 406.039 159.076 407.005 156.929 407.194 155.768 407.337 154.327 406.739 154.25 405.415 154.189 403.248 155.462 401.371 156.5 399.577Z" fill="#FFFFFF" transform="matrix(1 0 0 1.00014 -97.8754 0)"/><path d="M128.484 407.276C127.512 405.712 128.704 403.922 129.47 402.537 130.999 403.145 133.489 403.375 133.826 405.344 133.361 407.399 130.176 408.6 128.484 407.276Z" fill="#FFFFFF" transform="matrix(1 0 0 1.00014 -97.8754 0)"/><path d="M129.43 435.665C130.733 435.788 132.323 435.604 133.274 436.713 133.964 438.605 131.669 440.563 129.864 440.358 128.284 439.32 129.189 437.158 129.43 435.665Z" fill="#FFFFFF" transform="matrix(1 0 0 1.00014 -97.8754 0)"/><path d="M158.473 437.567C159.562 437.546 161.259 436.79 161.883 438.088 161.699 439.499 160.431 440.803 158.999 440.956 157.691 440.374 158.463 438.635 158.473 437.567Z" fill="#FFFFFF" transform="matrix(1 0 0 1.00014 -97.8754 0)"/></g></svg>