<svg width="428" height="518" xmlns="http://www.w3.org/2000/svg" xmlns:xlink="http://www.w3.org/1999/xlink" xml:space="preserve" overflow="hidden"><defs><clipPath id="clip0"><rect x="0" y="0" width="429" height="558"/></clipPath></defs><g clip-path="url(#clip0)"><path d="M139.37 46.4159C255.914 50.9883 372.57 49.6746 489.175 50.3467 491.777 127.079 488.834 203.841 486.919 280.553 485.381 342.076 484.358 403.685 487.52 465.178 374.097 468.599 260.598 467.148 147.17 464.745 143.27 464.587 139.334 464.735 135.465 464.409 135.388 462.922 136.396 461.405 136.279 459.816 136.575 452.056 130.857 445.941 129.146 438.675 128.362 435.355 128.988 431.435 131.61 429.077 133.55 427.28 135.266 424.877 135.205 422.122 135.134 419.255 133.392 416.817 131.625 414.704 129.141 411.633 125.857 409.036 124.375 405.279 123.351 402.784 124.619 400.07 126.524 398.405 128.443 396.338 131.529 395.757 133.153 393.374 134.131 392.051 134.258 390.274 133.733 388.751 132.038 383.838 127.435 380.426 126.259 375.289 125.643 372.646 127.374 370.172 129.497 368.792 132.211 366.994 134.477 363.934 133.947 360.518 133.061 354.515 128.219 350.08 126.824 344.25 126.228 341.943 126.727 339.387 128.234 337.529 129.462 335.853 131.508 334.968 132.552 333.135 134.161 330.731 134.681 327.697 134.105 324.876 132.756 318.002 127.634 312.518 126.473 305.588 125.811 301.958 127.532 298.262 130.337 295.98 133.102 293.811 134.538 290.079 133.835 286.622 132.639 280.206 127.384 275.374 126.371 268.908 125.755 265.094 128.316 261.657 131.356 259.677 133.489 258.271 135.984 256.352 135.897 253.521 135.658 250.96 133.627 249.096 131.88 247.411 129.136 244.773 125.765 242.518 124.141 238.953 122.781 235.898 124.66 232.309 127.42 230.786 132.211 227.843 135.536 222.568 135.785 216.911 136.239 209.707 132.71 202.904 128.005 197.665 129.472 192.782 132.761 188.77 134.716 184.111 135.724 181.789 136.03 178.836 134.344 176.748 132.69 174.38 129.548 173.846 127.791 171.59 125.852 169.635 124.813 166.611 125.984 163.983 127.985 159.222 132.654 156.3 134.996 151.753 135.923 149.986 136.071 147.766 135.057 145.999 133.586 143.117 130.23 141.885 128.728 139.029 127.817 137.466 127.639 135.536 128.168 133.815 129.65 128.866 134.283 125.627 135.801 120.709 136.626 117.949 134.446 115.515 132.17 114.319 128.881 112.415 125.2 109.568 125.118 105.408 125.363 100.912 128.861 97.6231 131.473 94.283 134.166 90.9581 137.354 87.0528 136.519 82.4702 135.933 78.5445 131.895 76.5129 130.877 72.7858 130.103 70.3825 130.668 67.7807 131.717 65.5556 133.871 61.0036 137.389 57.1696 138.942 52.3274 139.574 50.4231 139.63 48.3915 139.37 46.4159M147.038 54.3692C146.045 59.6034 145.409 64.9242 145.363 70.2502 145.429 72.0934 145.373 74.0791 146.3 75.739 146.682 76.4671 147.664 76.4264 148.235 75.9529 150.674 74.2115 151.6 71.1921 153.617 69.0689 156.371 65.9986 160.18 63.468 164.431 63.4477 167.665 63.4069 170.587 65.4945 172.125 68.2491 173.214 70.4487 175.266 72.2308 175.49 74.8021 175.908 78.0455 173.479 80.8002 170.852 82.3226 166.748 84.6902 161.626 85.6322 157.038 84.2371 154.182 83.066 150.994 81.9763 147.899 82.8114 145.816 83.402 144.635 85.4998 144.334 87.5212 143.184 95.4133 146.636 103.27 145.103 111.142 150.541 107.944 153.107 101.661 158.347 98.2494 161.218 96.3604 164.991 96.8492 167.843 98.5244 170.475 100.118 173.474 101.661 174.839 104.583 176.117 107.19 175.312 110.337 173.561 112.521 169.813 117.241 163.031 119.558 157.247 117.633 154.375 116.406 151.249 115.195 148.077 115.8 146.106 116.152 144.788 117.98 144.436 119.859 143.087 127.247 146.605 134.691 144.935 142.043 147.756 139.039 150.012 135.531 152.975 132.649 155.169 130.439 157.751 128.321 160.903 127.761 163.556 127.257 166.274 128.321 168.296 130.011 170.358 131.916 173.24 132.914 174.706 135.444 176.565 138.179 175.908 141.89 173.994 144.416 170.098 149.681 162.563 152.486 156.341 149.961 153.673 148.591 150.735 147.211 147.659 147.624 145.679 147.888 144.502 149.813 144.258 151.651 143.25 159.029 146.615 166.346 145.19 173.708 148.83 169.523 152.843 165.567 157.512 162.532 160.485 160.679 164.161 159.08 167.68 160.276 171.208 161.575 173.072 165.21 174.223 168.561 175.093 171.229 175.633 174.462 173.948 176.931 172.359 179.131 169.559 179.89 167.023 180.333 160.933 181.305 154.701 180.577 148.627 181.662 146.203 182.14 143.413 183.092 142.369 185.562 141.193 188.576 142.512 191.779 143.622 194.605 143.973 197.257 143.285 200.221 144.691 202.655 145.404 203.525 146.534 202.711 147.196 202.196 151.106 198.78 154.07 194.096 158.932 191.886 161.371 190.704 164.447 191.086 166.463 192.924 167.929 194.33 169.961 194.819 171.585 195.995 174.065 197.624 176.203 200.099 176.656 203.118 177.176 206.295 175.715 209.488 173.489 211.698 168.851 216.423 161.157 217.314 155.348 214.33 153.087 213.398 151.305 211.056 148.637 211.443 146.04 211.743 144.477 214.233 143.622 216.468 141.641 221.799 141.447 227.624 141.875 233.241 142.191 236.214 142.613 239.284 144.019 241.968 144.558 243.047 145.806 244.228 147.079 243.485 148.591 242.579 149.431 240.934 150.22 239.422 151.447 237.192 151.422 234.483 152.909 232.365 154.711 229.274 158.403 227.68 161.911 227.986 167.43 228.408 172.553 231.591 175.877 235.939 176.758 239.386 176.341 243.449 173.805 246.133 171.219 248.857 167.471 250.023 163.886 250.73 156.952 252.141 149.818 251.728 142.837 252.726 142.211 259.753 141.661 266.922 142.909 273.913 143.219 275.227 143.861 277.64 145.673 277.004 147.608 275.807 149.085 273.699 149.416 271.423 150.022 268.567 151.733 265.848 154.355 264.458 157.435 262.777 161.193 262.91 164.457 263.943 168.999 265.395 173.128 268.577 175.165 272.956 176.331 275.425 176.555 278.256 176.01 280.924 173.377 283.338 170.007 284.906 166.453 285.303 158.576 286.24 150.887 283.434 143.031 283.582 142.751 290.364 142.15 297.172 142.084 303.974 142.17 306.225 142.018 308.613 142.96 310.716 143.403 311.805 144.635 311.317 145.19 310.619 147.481 308.139 148.785 304.967 150.246 301.973 151.967 298.679 155.607 296.546 159.335 296.739 165.002 296.989 170.221 300.38 173.489 304.906 175.76 308.063 176.916 312.452 175.073 316.088 173.423 319.148 170.536 321.714 167.048 322.376 161.325 323.552 155.49 322.142 149.721 322.661 147.985 322.849 146.178 323.272 144.813 324.423 143.209 325.767 142.522 327.951 142.644 329.993 142.786 336.072 141.794 342.208 142.797 348.247 142.96 349.229 143.632 350.94 144.905 350.192 146.361 349.128 147.751 347.569 147.827 345.675 148.774 338.511 155.77 332.839 162.939 333.129 165.801 333.226 168.612 334.56 170.429 336.795 171.865 338.42 172.481 340.548 173.5 342.427 174.579 344.525 175.21 347.076 174.324 349.357 173.342 351.826 170.954 353.369 168.581 354.301 164.202 355.996 159.441 356.455 154.783 356.388 152.542 356.556 150.857 354.632 148.627 354.611 145.948 354.189 143.591 356.139 142.613 358.491 140.729 362.789 140.785 367.687 141.544 372.239 142.033 374.489 142.588 376.954 144.304 378.614 145.653 379.897 147.42 378.552 148.179 377.295 150.358 374.489 150.195 370.594 152.517 367.875 154.767 364.846 158.897 363.776 162.471 364.632 169.808 366.225 176.295 373.064 175.883 380.844 173.739 383.262 170.872 385.004 167.731 385.773 159.615 387.819 151.071 385.803 142.975 387.987 143.479 389.113 143.616 390.345 143.515 391.577 143.204 396.531 141.901 401.373 141.671 406.338 141.666 407.601 141.6 409.011 142.359 410.106 143.377 411.19 144.818 410.197 145.872 409.693 147.72 404.174 149.513 398.252 153.779 394.067 156.259 391.562 160.251 391.048 163.382 392.595 166.789 393.731 170.511 395.172 172.278 398.553 175.297 403.97 172.863 410.987 168.352 414.795 164.971 417.784 160.083 418.879 155.735 417.662 152.904 417.112 150.633 414.576 147.578 415.085 144.421 415.584 142.73 418.782 141.855 421.552 140.363 426.638 140.22 432.183 141.615 437.311 142.186 439.016 143.021 441.267 145.073 441.537 146.519 441.46 147.797 440.412 148.52 439.215 149.436 436.776 150.618 434.373 152.512 432.535 155.19 429.78 159.131 428.41 162.945 428.716 168.25 429.077 173.108 432.102 176.366 436.211 177.074 437.143 177.95 438.1 177.98 439.342 178.428 442.652 177.822 446.328 175.414 448.798 172.461 451.853 168.062 452.84 163.968 453.11 156.498 453.497 148.963 451.837 142.267 448.528 141.89 451.623 141.656 455.091 143.52 457.789 145.353 460.427 148.703 461.303 151.733 461.547 157.328 461.949 162.889 460.946 168.438 460.386 172.252 460.009 176.163 459.526 179.941 460.427 180.078 450.875 179.951 441.318 180.022 431.761 180.384 305.965 183.826 180.175 182.257 54.3742 170.531 53.6258 158.774 54.0535 147.038 54.3692M193.393 54.4048C191.835 56.0952 190.72 58.1574 190.139 60.3824 188.815 65.2654 189.309 70.3774 188.831 75.3622 188.505 78.5802 188.805 81.8185 188.78 85.0415 190.669 200.969 184.941 316.892 187.924 432.81 187.965 434.215 188.418 435.564 188.53 436.964 189.004 442.723 188.123 448.548 189.126 454.271 189.498 456.206 190.195 458.217 191.718 459.556 193.276 460.931 195.496 461.211 197.492 460.931 200.384 460.488 203.322 460.692 206.234 460.58 297.095 458.915 387.998 463.956 478.833 460.223 479.73 410.691 480.605 361.164 481.201 311.627 482.27 226.652 482.82 141.666 483.06 56.6859 386.592 50.8661 289.942 55.637 193.393 54.4048M134.482 67.1748C134.248 68.0098 133.733 68.855 133.963 69.7461 134.971 70.6982 136.834 69.4966 136.992 68.2848 136.636 67.2715 135.322 67.4294 134.482 67.1748M159.91 69.1962C160.042 70.6218 159.772 72.7604 161.427 73.3968 163.469 73.4121 165.689 70.8459 164.778 68.8805 163.265 67.9232 161.463 68.8041 159.91 69.1962M132.837 105.887C132.853 106.697 133.713 107.012 134.395 107.027 135.729 107.043 137.277 106.605 137.99 105.378 138.056 103.626 135.943 103.239 134.726 102.588 133.932 103.57 132.939 104.553 132.837 105.887M160.17 105.368C160.719 106.605 162.43 106.167 163.433 105.836 164.156 105.546 165.394 104.92 164.905 103.957 164.161 102.98 162.838 102.832 161.768 102.399 161.122 103.305 160.159 104.166 160.17 105.368M134.665 131.783C133.815 132.685 132.466 133.509 132.522 134.91 133.255 136.432 135.709 136.376 136.809 135.297 137.532 133.744 135.709 132.608 134.665 131.783M158.362 136.503C160.251 137.705 163.469 137.939 164.91 135.974 164.121 134.966 163.016 134.319 161.896 133.744 160.577 134.441 158.953 134.986 158.362 136.503M133.051 166.916C134.477 168.072 136.911 167.318 137.934 165.923 138.24 164.111 135.897 163.657 134.696 163.031 133.901 164.136 132.394 165.429 133.051 166.916M159.976 167.155C160.032 168.403 159.767 170.022 160.918 170.872 162.12 171.259 163.133 170.195 163.82 169.36 164.35 168.601 165.052 167.476 164.319 166.621 162.909 165.918 161.366 166.789 159.976 167.155M134.619 194.309C133.805 195.256 132.303 196.122 132.573 197.568 133.469 198.963 136.03 198.948 136.972 197.573 137.201 196.051 135.694 195.078 134.619 194.309M158.184 198.22C158.357 199.605 158.25 201.662 159.889 202.186 161.677 202.125 163.535 199.92 162.695 198.205 161.417 197.125 159.62 197.95 158.184 198.22M131.819 236.779C131.569 237.584 131.794 238.592 132.552 239.05 134.512 240.196 137.618 238.648 137.45 236.25 137.303 234.529 136.055 233.215 134.91 232.044 133.632 233.424 132.298 234.911 131.819 236.779M159.981 235.939C159.172 237.467 157.624 239.116 158.158 240.949 160.058 241.952 162.165 240.201 163.825 239.31 165.088 238.261 167.303 237.146 166.758 235.175 164.467 234.778 162.191 235.394 159.981 235.939M134.665 265.298C133.596 266.459 132.15 267.66 132.18 269.386 132.629 271.907 137.511 271.596 137.206 268.852 136.88 267.36 135.714 266.306 134.665 265.298M158.077 272.36C158.942 273.358 160.45 272.834 161.509 272.472 162.344 272.09 163.657 271.479 163.403 270.364 162.634 269.193 161.04 269.147 159.828 268.76 159.07 269.835 157.832 270.909 158.077 272.36M130.816 307.533C131.473 309.3 133.784 308.129 134.416 306.938 135.938 304.835 134.548 302.167 132.797 300.716 131.753 302.808 130.373 305.1 130.816 307.533M159.151 304.31C157.425 304.254 156.906 306.098 156.137 307.294 155.567 308.526 154.502 310.064 155.338 311.398 157.12 312.07 158.892 310.797 160.399 309.967 162.14 308.689 164.492 307.304 164.706 304.957 163.449 303.277 160.928 304.188 159.151 304.31M158.337 343.537C159.482 344.061 160.791 343.649 161.88 343.165 162.608 342.788 163.612 342.208 163.423 341.235 162.634 340.064 161.066 339.998 159.833 339.621 159.08 340.726 157.405 342.111 158.337 343.537M132.588 340.187C131.732 341.113 130.169 342.025 130.51 343.496 131.432 344.901 134.4 344.871 134.945 343.14 134.833 341.765 133.555 340.971 132.588 340.187M159.635 371.159C158.881 371.923 157.624 372.539 157.583 373.751 158.413 375.07 160.74 374.881 161.702 373.751 161.891 372.463 160.521 371.786 159.635 371.159M130.103 375.818C130.74 377.931 134.502 377.931 135.103 375.798 135.251 374.031 133.733 372.809 132.7 371.597 131.452 372.677 130.001 374.016 130.103 375.818M157.853 398.13C156.646 399.571 155.806 401.384 155.5 403.247 155.266 404.418 156.157 405.605 157.374 405.63 159.742 405.778 162.12 404.703 163.8 403.074 164.635 402.305 165.114 400.864 164.136 400.009 162.405 398.568 160.007 398.354 157.853 398.13M130.729 401.048C130.037 402.473 128.81 404.255 129.848 405.813 131.625 406.99 134.711 405.854 135.169 403.746 134.63 401.842 132.333 401.582 130.729 401.048M130.734 434.001C130.536 435.473 129.548 437.855 131.33 438.68 133.041 438.726 134.966 437.076 134.726 435.284 133.922 433.894 132.099 434.103 130.734 434.001M159.711 436.084C159.538 437.071 159.1 438.482 160.063 439.205 161.565 439.291 162.939 437.805 163.087 436.374 162.471 435.223 160.638 435.59 159.711 436.084Z" transform="matrix(1 0 0 1.00082 -97.9317 0)"/><path d="M348.532 190.72C359.438 182.242 372.672 176.743 386.409 175.19 389.612 174.813 392.967 175.053 395.956 176.346 397.534 177.018 398.593 178.439 399.367 179.92 403.476 179.992 407.382 181.483 411.155 182.98 418.212 185.872 424.235 191.448 427.168 198.541 429.093 203.199 429.286 208.434 428.258 213.332 427.036 219.238 424.408 224.926 420.259 229.34 416.038 233.79 410.747 237.268 405.482 240.155 413.532 242.375 421.287 246.026 427.687 251.448 438.069 259.865 444.577 273.674 442.173 287.111 440.473 297.208 434.872 306.403 427.275 313.175 415.824 323.369 401.022 329.367 385.91 331.388 374.683 332.951 363.064 332.101 352.32 328.389 344.326 325.645 336.617 321.597 330.584 315.589 324.749 309.789 320.548 302.096 319.845 293.816 319.097 285.105 321.887 276.367 326.546 269.076 331.729 261.168 339.209 254.845 347.631 250.618 343.511 249.391 339.469 247.584 336.327 244.58 331.067 239.61 327.732 232.39 328.16 225.084 328.42 219.656 330.696 214.605 333.038 209.793 336.755 202.42 342.03 195.822 348.532 190.72M376.042 192.349C370.665 193.235 365.711 195.761 361.266 198.831 354.311 203.739 348.384 210.297 344.805 218.067 343.252 221.469 341.76 225.287 342.763 229.07 343.634 232.507 346.572 234.931 349.662 236.377 356.353 239.498 363.97 240.063 371.226 239.218 382.376 237.92 393.262 233.821 402.234 227.034 407.397 223.083 411.822 217.772 413.492 211.387 414.439 207.935 413.95 204.085 411.934 201.102 408.914 196.387 403.466 193.882 398.14 192.812 396.995 192.721 395.666 192.135 394.688 192.991 392.982 194.157 390.778 194.752 388.756 194.141 384.668 192.858 380.365 191.427 376.042 192.349M383.211 249.89C375.406 251.311 367.728 253.607 360.584 257.09 352.814 260.894 345.446 266.046 340.482 273.251 336.526 279.096 333.817 286.128 334.224 293.272 334.596 299.713 338.858 305.196 343.924 308.847 350.395 313.46 358.058 316.24 365.849 317.59 377.723 319.433 390.106 318.017 401.272 313.593 409.597 310.166 417.611 305.12 422.789 297.589 426.44 292.192 428.853 285.66 428.314 279.071 427.759 272.436 423.909 266.54 419.133 262.1 412.621 256.107 404.138 252.747 395.62 250.786 391.557 250.002 387.341 249.239 383.211 249.89Z" transform="matrix(1 0 0 1.00082 -97.9317 0)"/><path d="M259.677 180.302C262.248 178.235 265.843 178.5 268.913 178.958 271.642 179.426 274.702 180.643 275.771 183.428 276.917 186.377 275.425 189.421 273.862 191.896 275.059 197.441 274.952 203.138 275.323 208.775 276.179 223.21 277.314 237.624 278.455 252.039 279.504 264.687 280.476 277.345 281.973 289.947 283.399 298.297 285.904 306.418 287.487 314.743 287.88 316.561 287.594 318.547 286.454 320.054 284.285 322.946 280.654 324.738 277.034 324.601 274.707 324.484 273.114 322.493 272.039 320.629 269.122 315.568 268.699 309.616 267.747 303.974 264.269 279.488 262.869 254.773 261.194 230.114 260.669 222.258 260.135 214.406 259.621 206.55 249.875 215.669 239.412 224.081 228.032 231.082 225.868 232.273 223.49 233.627 220.924 233.205 218.444 232.889 216.331 230.975 215.577 228.627 215.002 226.703 215.791 224.651 217.059 223.189 219.223 220.659 222.278 219.187 224.956 217.288 237.334 209.065 247.833 198.439 258.343 188.031 258.918 185.536 257.614 182.339 259.677 180.302Z" transform="matrix(1 0 0 1.00082 -97.9317 0)"/><path d="M147.038 54.3692C158.774 54.0535 170.531 53.6258 182.257 54.3742 183.826 180.175 180.384 305.965 180.022 431.761 179.951 441.318 180.078 450.875 179.941 460.427 176.163 459.526 172.252 460.009 168.438 460.386 162.889 460.946 157.328 461.949 151.733 461.547 148.703 461.303 145.353 460.427 143.52 457.789 141.656 455.091 141.89 451.623 142.267 448.528 148.963 451.837 156.498 453.497 163.968 453.11 168.062 452.84 172.461 451.853 175.414 448.798 177.822 446.328 178.428 442.652 177.98 439.342 177.95 438.1 177.074 437.143 176.366 436.211 173.108 432.102 168.25 429.077 162.945 428.716 159.131 428.41 155.19 429.78 152.512 432.535 150.618 434.373 149.436 436.776 148.52 439.215 147.797 440.412 146.519 441.46 145.073 441.537 143.021 441.267 142.186 439.016 141.615 437.311 140.22 432.183 140.363 426.638 141.855 421.552 142.73 418.782 144.421 415.584 147.578 415.085 150.633 414.576 152.904 417.112 155.735 417.662 160.083 418.879 164.971 417.784 168.352 414.795 172.863 410.987 175.297 403.97 172.278 398.553 170.511 395.172 166.789 393.731 163.382 392.595 160.251 391.048 156.259 391.562 153.779 394.067 149.513 398.252 147.72 404.174 145.872 409.693 144.818 410.197 143.377 411.19 142.359 410.106 141.6 409.011 141.666 407.601 141.671 406.338 141.901 401.373 143.204 396.531 143.515 391.577 143.616 390.345 143.479 389.113 142.975 387.987 151.071 385.803 159.615 387.819 167.731 385.773 170.872 385.004 173.739 383.262 175.883 380.844 176.295 373.064 169.808 366.225 162.471 364.632 158.897 363.776 154.767 364.846 152.517 367.875 150.195 370.594 150.358 374.489 148.179 377.295 147.42 378.552 145.653 379.897 144.304 378.614 142.588 376.954 142.033 374.489 141.544 372.239 140.785 367.687 140.729 362.789 142.613 358.491 143.591 356.139 145.948 354.189 148.627 354.611 150.857 354.632 152.542 356.556 154.783 356.388 159.441 356.455 164.202 355.996 168.581 354.301 170.954 353.369 173.342 351.826 174.324 349.357 175.21 347.076 174.579 344.525 173.5 342.427 172.481 340.548 171.865 338.42 170.429 336.795 168.612 334.56 165.801 333.226 162.939 333.129 155.77 332.839 148.774 338.511 147.827 345.675 147.751 347.569 146.361 349.128 144.905 350.192 143.632 350.94 142.96 349.229 142.797 348.247 141.794 342.208 142.786 336.072 142.644 329.993 142.522 327.951 143.209 325.767 144.813 324.423 146.178 323.272 147.985 322.849 149.721 322.661 155.49 322.142 161.325 323.552 167.048 322.376 170.536 321.714 173.423 319.148 175.073 316.088 176.916 312.452 175.76 308.063 173.489 304.906 170.221 300.38 165.002 296.989 159.335 296.739 155.607 296.546 151.967 298.679 150.246 301.973 148.785 304.967 147.481 308.139 145.19 310.619 144.635 311.317 143.403 311.805 142.96 310.716 142.018 308.613 142.17 306.225 142.084 303.974 142.15 297.172 142.751 290.364 143.031 283.582 150.887 283.434 158.576 286.24 166.453 285.303 170.007 284.906 173.377 283.338 176.01 280.924 176.555 278.256 176.331 275.425 175.165 272.956 173.128 268.577 168.999 265.395 164.457 263.943 161.193 262.91 157.435 262.777 154.355 264.458 151.733 265.848 150.022 268.567 149.416 271.423 149.085 273.699 147.608 275.807 145.673 277.004 143.861 277.64 143.219 275.227 142.909 273.913 141.661 266.922 142.211 259.753 142.837 252.726 149.818 251.728 156.952 252.141 163.886 250.73 167.471 250.023 171.219 248.857 173.805 246.133 176.341 243.449 176.758 239.386 175.877 235.939 172.553 231.591 167.43 228.408 161.911 227.986 158.403 227.68 154.711 229.274 152.909 232.365 151.422 234.483 151.447 237.192 150.22 239.422 149.431 240.934 148.591 242.579 147.079 243.485 145.806 244.228 144.558 243.047 144.019 241.968 142.613 239.284 142.191 236.214 141.875 233.241 141.447 227.624 141.641 221.799 143.622 216.468 144.477 214.233 146.04 211.743 148.637 211.443 151.305 211.056 153.087 213.398 155.348 214.33 161.157 217.314 168.851 216.423 173.489 211.698 175.715 209.488 177.176 206.295 176.656 203.118 176.203 200.099 174.065 197.624 171.585 195.995 169.961 194.819 167.929 194.33 166.463 192.924 164.447 191.086 161.371 190.704 158.932 191.886 154.07 194.096 151.106 198.78 147.196 202.196 146.534 202.711 145.404 203.525 144.691 202.655 143.285 200.221 143.973 197.257 143.622 194.605 142.512 191.779 141.193 188.576 142.369 185.562 143.413 183.092 146.203 182.14 148.627 181.662 154.701 180.577 160.933 181.305 167.023 180.333 169.559 179.89 172.359 179.131 173.948 176.931 175.633 174.462 175.093 171.229 174.223 168.561 173.072 165.21 171.208 161.575 167.68 160.276 164.161 159.08 160.485 160.679 157.512 162.532 152.843 165.567 148.83 169.523 145.19 173.708 146.615 166.346 143.25 159.029 144.258 151.651 144.502 149.813 145.679 147.888 147.659 147.624 150.735 147.211 153.673 148.591 156.341 149.961 162.563 152.486 170.098 149.681 173.994 144.416 175.908 141.89 176.565 138.179 174.706 135.444 173.24 132.914 170.358 131.916 168.296 130.011 166.274 128.321 163.556 127.257 160.903 127.761 157.751 128.321 155.169 130.439 152.975 132.649 150.012 135.531 147.756 139.039 144.935 142.043 146.605 134.691 143.087 127.247 144.436 119.859 144.788 117.98 146.106 116.152 148.077 115.8 151.249 115.195 154.375 116.406 157.247 117.633 163.031 119.558 169.813 117.241 173.561 112.521 175.312 110.337 176.117 107.19 174.839 104.583 173.474 101.661 170.475 100.118 167.843 98.5244 164.991 96.8492 161.218 96.3604 158.347 98.2494 153.107 101.661 150.541 107.944 145.103 111.142 146.636 103.27 143.184 95.4133 144.334 87.5212 144.635 85.4998 145.816 83.402 147.899 82.8114 150.994 81.9763 154.182 83.066 157.038 84.2371 161.626 85.6322 166.748 84.6902 170.852 82.3226 173.479 80.8002 175.908 78.0455 175.49 74.8021 175.266 72.2308 173.214 70.4487 172.125 68.2491 170.587 65.4945 167.665 63.4069 164.431 63.4477 160.18 63.468 156.371 65.9986 153.617 69.0689 151.6 71.1921 150.674 74.2115 148.235 75.9529 147.664 76.4264 146.682 76.4671 146.3 75.739 145.373 74.0791 145.429 72.0934 145.363 70.2502 145.409 64.9242 146.045 59.6034 147.038 54.3692Z" fill="#FFFFFF" transform="matrix(1 0 0 1.00082 -97.9317 0)"/><path d="M193.393 54.4048C289.942 55.637 386.592 50.8661 483.06 56.6859 482.82 141.666 482.27 226.652 481.201 311.627 480.605 361.164 479.73 410.691 478.833 460.223 387.998 463.956 297.095 458.915 206.234 460.58 203.322 460.692 200.384 460.488 197.492 460.931 195.496 461.211 193.276 460.931 191.718 459.556 190.195 458.217 189.498 456.206 189.126 454.271 188.123 448.548 189.004 442.723 188.53 436.964 188.418 435.564 187.965 434.215 187.924 432.81 184.941 316.892 190.669 200.969 188.78 85.0415 188.805 81.8185 188.505 78.5802 188.831 75.3622 189.309 70.3774 188.815 65.2654 190.139 60.3824 190.72 58.1574 191.835 56.0952 193.393 54.4048M348.532 190.72C342.03 195.822 336.755 202.42 333.038 209.793 330.696 214.605 328.42 219.656 328.16 225.084 327.732 232.39 331.067 239.61 336.327 244.58 339.469 247.584 343.511 249.391 347.631 250.618 339.209 254.845 331.729 261.168 326.546 269.076 321.887 276.367 319.097 285.105 319.845 293.816 320.548 302.096 324.749 309.789 330.584 315.589 336.617 321.597 344.326 325.645 352.32 328.389 363.064 332.101 374.683 332.951 385.91 331.388 401.022 329.367 415.824 323.369 427.275 313.175 434.872 306.403 440.473 297.208 442.173 287.111 444.577 273.674 438.069 259.865 427.687 251.448 421.287 246.026 413.532 242.375 405.482 240.155 410.747 237.268 416.038 233.79 420.259 229.34 424.408 224.926 427.036 219.238 428.258 213.332 429.286 208.434 429.093 203.199 427.168 198.541 424.235 191.448 418.212 185.872 411.155 182.98 407.382 181.483 403.476 179.992 399.367 179.92 398.593 178.439 397.534 177.018 395.956 176.346 392.967 175.053 389.612 174.813 386.409 175.19 372.672 176.743 359.438 182.242 348.532 190.72M259.677 180.302C257.614 182.339 258.918 185.536 258.343 188.031 247.833 198.439 237.334 209.065 224.956 217.288 222.278 219.187 219.223 220.659 217.059 223.189 215.791 224.651 215.002 226.703 215.577 228.627 216.331 230.975 218.444 232.889 220.924 233.205 223.49 233.627 225.868 232.273 228.032 231.082 239.412 224.081 249.875 215.669 259.621 206.55 260.135 214.406 260.669 222.258 261.194 230.114 262.869 254.773 264.269 279.488 267.747 303.974 268.699 309.616 269.122 315.568 272.039 320.629 273.114 322.493 274.707 324.484 277.034 324.601 280.654 324.738 284.285 322.946 286.454 320.054 287.594 318.547 287.88 316.561 287.487 314.743 285.904 306.418 283.399 298.297 281.973 289.947 280.476 277.345 279.504 264.687 278.455 252.039 277.314 237.624 276.179 223.21 275.323 208.775 274.952 203.138 275.059 197.441 273.862 191.896 275.425 189.421 276.917 186.377 275.771 183.428 274.702 180.643 271.642 179.426 268.913 178.958 265.843 178.5 262.248 178.235 259.677 180.302Z" fill="#FFFFFF" transform="matrix(1 0 0 1.00082 -97.9317 0)"/><path d="M134.482 67.1748C135.322 67.4294 136.636 67.2715 136.992 68.2848 136.834 69.4966 134.971 70.6982 133.963 69.7461 133.733 68.855 134.248 68.0098 134.482 67.1748Z" fill="#FFFFFF" transform="matrix(1 0 0 1.00082 -97.9317 0)"/><path d="M159.91 69.1962C161.463 68.8041 163.265 67.9232 164.778 68.8805 165.689 70.8459 163.469 73.4121 161.427 73.3968 159.772 72.7604 160.042 70.6218 159.91 69.1962Z" fill="#FFFFFF" transform="matrix(1 0 0 1.00082 -97.9317 0)"/><path d="M132.837 105.887C132.939 104.553 133.932 103.57 134.726 102.588 135.943 103.239 138.056 103.626 137.99 105.378 137.277 106.605 135.729 107.043 134.395 107.027 133.713 107.012 132.853 106.697 132.837 105.887Z" fill="#FFFFFF" transform="matrix(1 0 0 1.00082 -97.9317 0)"/><path d="M160.17 105.368C160.159 104.166 161.122 103.305 161.768 102.399 162.838 102.832 164.161 102.98 164.905 103.957 165.394 104.92 164.156 105.546 163.433 105.836 162.43 106.167 160.719 106.605 160.17 105.368Z" fill="#FFFFFF" transform="matrix(1 0 0 1.00082 -97.9317 0)"/><path d="M134.665 131.783C135.709 132.608 137.532 133.744 136.809 135.297 135.709 136.376 133.255 136.432 132.522 134.91 132.466 133.509 133.815 132.685 134.665 131.783Z" fill="#FFFFFF" transform="matrix(1 0 0 1.00082 -97.9317 0)"/><path d="M158.362 136.503C158.953 134.986 160.577 134.441 161.896 133.744 163.016 134.319 164.121 134.966 164.91 135.974 163.469 137.939 160.251 137.705 158.362 136.503Z" fill="#FFFFFF" transform="matrix(1 0 0 1.00082 -97.9317 0)"/><path d="M133.051 166.916C132.394 165.429 133.901 164.136 134.696 163.031 135.897 163.657 138.24 164.111 137.934 165.923 136.911 167.318 134.477 168.072 133.051 166.916Z" fill="#FFFFFF" transform="matrix(1 0 0 1.00082 -97.9317 0)"/><path d="M159.976 167.155C161.366 166.789 162.909 165.918 164.319 166.621 165.052 167.476 164.35 168.601 163.82 169.36 163.133 170.195 162.12 171.259 160.918 170.872 159.767 170.022 160.032 168.403 159.976 167.155Z" fill="#FFFFFF" transform="matrix(1 0 0 1.00082 -97.9317 0)"/><path d="M376.042 192.349C380.365 191.427 384.668 192.858 388.756 194.141 390.778 194.752 392.982 194.157 394.688 192.991 395.666 192.135 396.995 192.721 398.14 192.812 403.466 193.882 408.914 196.387 411.934 201.102 413.95 204.085 414.439 207.935 413.492 211.387 411.822 217.772 407.397 223.083 402.234 227.034 393.262 233.821 382.376 237.92 371.226 239.218 363.97 240.063 356.353 239.498 349.662 236.377 346.572 234.931 343.634 232.507 342.763 229.07 341.76 225.287 343.252 221.469 344.805 218.067 348.384 210.297 354.311 203.739 361.266 198.831 365.711 195.761 370.665 193.235 376.042 192.349Z" fill="#FFFFFF" transform="matrix(1 0 0 1.00082 -97.9317 0)"/><path d="M134.619 194.309C135.694 195.078 137.201 196.051 136.972 197.573 136.03 198.948 133.469 198.963 132.573 197.568 132.303 196.122 133.805 195.256 134.619 194.309Z" fill="#FFFFFF" transform="matrix(1 0 0 1.00082 -97.9317 0)"/><path d="M158.184 198.22C159.62 197.95 161.417 197.125 162.695 198.205 163.535 199.92 161.677 202.125 159.889 202.186 158.25 201.662 158.357 199.605 158.184 198.22Z" fill="#FFFFFF" transform="matrix(1 0 0 1.00082 -97.9317 0)"/><path d="M131.819 236.779C132.298 234.911 133.632 233.424 134.91 232.044 136.055 233.215 137.303 234.529 137.45 236.25 137.618 238.648 134.512 240.196 132.552 239.05 131.794 238.592 131.569 237.584 131.819 236.779Z" fill="#FFFFFF" transform="matrix(1 0 0 1.00082 -97.9317 0)"/><path d="M159.981 235.939C162.191 235.394 164.467 234.778 166.758 235.175 167.303 237.146 165.088 238.261 163.825 239.31 162.165 240.201 160.058 241.952 158.158 240.949 157.624 239.116 159.172 237.467 159.981 235.939Z" fill="#FFFFFF" transform="matrix(1 0 0 1.00082 -97.9317 0)"/><path d="M383.211 249.89C387.341 249.239 391.557 250.002 395.62 250.786 404.138 252.747 412.621 256.107 419.133 262.1 423.909 266.54 427.759 272.436 428.314 279.071 428.853 285.66 426.44 292.192 422.789 297.589 417.611 305.12 409.597 310.166 401.272 313.593 390.106 318.017 377.723 319.433 365.849 317.59 358.058 316.24 350.395 313.46 343.924 308.847 338.858 305.196 334.596 299.713 334.224 293.272 333.817 286.128 336.526 279.096 340.482 273.251 345.446 266.046 352.814 260.894 360.584 257.09 367.728 253.607 375.406 251.311 383.211 249.89Z" fill="#FFFFFF" transform="matrix(1 0 0 1.00082 -97.9317 0)"/><path d="M134.665 265.298C135.714 266.306 136.88 267.36 137.206 268.852 137.511 271.596 132.629 271.907 132.18 269.386 132.15 267.66 133.596 266.459 134.665 265.298Z" fill="#FFFFFF" transform="matrix(1 0 0 1.00082 -97.9317 0)"/><path d="M158.077 272.36C157.832 270.909 159.07 269.835 159.828 268.76 161.04 269.147 162.634 269.193 163.403 270.364 163.657 271.479 162.344 272.09 161.509 272.472 160.45 272.834 158.942 273.358 158.077 272.36Z" fill="#FFFFFF" transform="matrix(1 0 0 1.00082 -97.9317 0)"/><path d="M130.816 307.533C130.373 305.1 131.753 302.808 132.797 300.716 134.548 302.167 135.938 304.835 134.416 306.938 133.784 308.129 131.473 309.3 130.816 307.533Z" fill="#FFFFFF" transform="matrix(1 0 0 1.00082 -97.9317 0)"/><path d="M159.151 304.31C160.928 304.188 163.449 303.277 164.706 304.957 164.492 307.304 162.14 308.689 160.399 309.967 158.892 310.797 157.12 312.07 155.338 311.398 154.502 310.064 155.567 308.526 156.137 307.294 156.906 306.098 157.425 304.254 159.151 304.31Z" fill="#FFFFFF" transform="matrix(1 0 0 1.00082 -97.9317 0)"/><path d="M158.337 343.537C157.405 342.111 159.08 340.726 159.833 339.621 161.066 339.998 162.634 340.064 163.423 341.235 163.612 342.208 162.608 342.788 161.88 343.165 160.791 343.649 159.482 344.061 158.337 343.537Z" fill="#FFFFFF" transform="matrix(1 0 0 1.00082 -97.9317 0)"/><path d="M132.588 340.187C133.555 340.971 134.833 341.765 134.945 343.14 134.4 344.871 131.432 344.901 130.51 343.496 130.169 342.025 131.732 341.113 132.588 340.187Z" fill="#FFFFFF" transform="matrix(1 0 0 1.00082 -97.9317 0)"/><path d="M159.635 371.159C160.521 371.786 161.891 372.463 161.702 373.751 160.74 374.881 158.413 375.07 157.583 373.751 157.624 372.539 158.881 371.923 159.635 371.159Z" fill="#FFFFFF" transform="matrix(1 0 0 1.00082 -97.9317 0)"/><path d="M130.103 375.818C130.001 374.016 131.452 372.677 132.7 371.597 133.733 372.809 135.251 374.031 135.103 375.798 134.502 377.931 130.74 377.931 130.103 375.818Z" fill="#FFFFFF" transform="matrix(1 0 0 1.00082 -97.9317 0)"/><path d="M157.853 398.13C160.007 398.354 162.405 398.568 164.136 400.009 165.114 400.864 164.635 402.305 163.8 403.074 162.12 404.703 159.742 405.778 157.374 405.63 156.157 405.605 155.266 404.418 155.5 403.247 155.806 401.384 156.646 399.571 157.853 398.13Z" fill="#FFFFFF" transform="matrix(1 0 0 1.00082 -97.9317 0)"/><path d="M130.729 401.048C132.333 401.582 134.63 401.842 135.169 403.746 134.711 405.854 131.625 406.99 129.848 405.813 128.81 404.255 130.037 402.473 130.729 401.048Z" fill="#FFFFFF" transform="matrix(1 0 0 1.00082 -97.9317 0)"/><path d="M130.734 434.001C132.099 434.103 133.922 433.894 134.726 435.284 134.966 437.076 133.041 438.726 131.33 438.68 129.548 437.855 130.536 435.473 130.734 434.001Z" fill="#FFFFFF" transform="matrix(1 0 0 1.00082 -97.9317 0)"/><path d="M159.711 436.084C160.638 435.59 162.471 435.223 163.087 436.374 162.939 437.805 161.565 439.291 160.063 439.205 159.1 438.482 159.538 437.071 159.711 436.084Z" fill="#FFFFFF" transform="matrix(1 0 0 1.00082 -97.9317 0)"/></g></svg>