<svg width="428" height="518" xmlns="http://www.w3.org/2000/svg" xmlns:xlink="http://www.w3.org/1999/xlink" xml:space="preserve" overflow="hidden"><defs><clipPath id="clip0"><rect x="0" y="0" width="438" height="537"/></clipPath></defs><g clip-path="url(#clip0)"><path d="M138.256 45.7544C255.396 50.3503 372.642 49.0759 489.838 49.6901 492.699 132.734 489.024 215.798 487.182 298.821 485.877 354.909 485.334 411.058 488.19 467.109 370.171 470.651 252.074 468.967 134.049 466.413 135.364 463.281 135.497 459.74 134.515 456.505 133 451.141 129.658 446.51 128.148 441.146 127.14 437.656 127.606 433.392 130.4 430.833 132.36 429.001 134.141 426.575 134.064 423.771 133.957 420.331 131.593 417.573 129.433 415.121 127.094 412.373 124.136 409.886 123.03 406.334 122.252 403.857 123.655 401.385 125.477 399.788 127.519 397.695 130.82 397.086 132.294 394.394 133.507 392.331 132.678 389.823 131.567 387.914 129.484 384.112 126.05 380.969 125.067 376.629 124.448 373.901 126.295 371.419 128.476 370.007 131.117 368.231 133.281 365.227 132.821 361.895 131.956 355.717 126.904 351.183 125.584 345.154 125.134 343.086 125.507 340.845 126.741 339.115 127.662 337.666 129.131 336.735 130.354 335.583 132.729 333.045 133.676 329.329 132.964 325.946 131.618 319.017 126.449 313.5 125.292 306.519 124.642 302.916 126.301 299.236 129.074 296.953 131.833 294.804 133.358 291.149 132.729 287.685 131.664 281.487 126.874 276.783 125.379 270.739 124.622 267.888 125.482 264.746 127.529 262.637 129.489 260.314 132.703 259.29 134.198 256.527 135.201 254.848 134.761 252.719 133.645 251.214 130.687 247.069 125.799 244.638 123.26 240.149 122.088 238.138 122.314 235.538 123.67 233.675 124.74 231.817 126.874 231.09 128.394 229.693 132.15 226.582 134.515 221.873 134.668 216.99 134.965 209.902 131.582 203.146 126.848 198.044 128.256 192.89 131.874 188.75 133.768 183.806 134.638 181.595 134.776 178.857 133.215 176.912 131.562 174.527 128.409 173.984 126.633 171.727 124.699 169.777 123.634 166.773 124.765 164.137 126.746 159.306 131.48 156.358 133.844 151.762 134.704 150.119 134.929 148.083 134.126 146.378 132.565 142.816 128.117 141.516 127.002 137.668 125.886 134.131 128.133 130.784 130.108 128.046 131.9 125.431 134.315 122.974 134.801 119.714 135.109 117.042 132.857 115.062 130.733 113.91 128.327 112.513 126.019 110.701 124.688 108.209 123.583 106.197 123.783 103.71 124.75 101.688 127.467 95.9819 133.184 92.1639 135.175 86.0531 136.275 82.7418 134.837 79.2053 132.498 76.8152 130.154 74.4302 128.675 70.9551 129.637 67.6182 131.306 61.5995 136.357 57.1828 137.99 51.1385 138.497 49.3881 138.466 47.5508 138.256 45.7544M145.953 53.7742C144.894 59.665 144.091 65.6632 144.352 71.6614 144.551 73.0893 144.495 74.9983 145.902 75.8325 147.781 75.7506 148.83 73.8263 149.833 72.4701 152.151 68.3194 155.805 64.701 160.442 63.3192 163.308 62.4389 166.64 62.9251 168.907 64.9671 170.77 66.4565 171.574 68.7749 173.012 70.6122 174.46 72.5008 175.121 75.1467 174.133 77.3986 172.853 80.321 169.967 82.1378 167.091 83.2331 163.528 84.5279 159.496 84.9783 155.857 83.7551 153.062 82.5933 149.935 81.58 146.905 82.3579 144.613 82.9567 143.425 85.3366 143.18 87.527 142.207 95.3421 145.549 103.106 144.004 110.89 148.707 108.07 151.343 103.065 155.304 99.4365 157.172 97.7066 159.659 96.4323 162.269 96.6984 165.668 97.0106 168.518 99.1089 171.221 101.008 174.092 103.055 175.51 107.098 173.8 110.338 170.683 116.428 162.761 119.53 156.292 117.431 153.354 116.203 150.145 114.918 146.905 115.594 144.72 116.034 143.471 118.219 143.22 120.287 142.253 127.601 145.411 134.888 143.896 142.176 147.1 138.159 150.114 133.911 154.05 130.564 156.624 128.378 160.14 126.756 163.549 127.81 166.241 128.486 168.017 130.748 170.356 132.068 172.541 133.414 174.471 135.528 174.829 138.154 175.233 141.015 173.79 143.789 171.866 145.805 167.7 150.135 160.836 152.325 155.15 149.864 152.479 148.502 149.516 147.125 146.44 147.622 144.582 147.944 143.456 149.741 143.2 151.491 142.069 158.963 145.611 166.405 144.07 173.851 147.847 169.563 151.957 165.458 156.814 162.392 159.746 160.616 163.38 159.122 166.799 160.35 169.885 161.507 171.702 164.557 172.858 167.474 173.897 170.187 174.696 173.319 173.555 176.119 172.505 178.544 169.864 179.676 167.444 180.228 160.698 181.682 153.682 180.571 146.931 181.974 144.659 182.485 142.125 183.535 141.219 185.868 140.078 188.98 141.537 192.158 142.57 195.07 142.734 197.358 142.458 199.707 143.113 201.944 143.307 202.512 143.579 203.228 144.259 203.356 145.385 203.285 146.22 202.42 147.013 201.713 149.997 198.786 152.591 195.383 156.128 193.079 158.129 191.764 160.688 190.945 163.037 191.759 164.967 192.332 166.19 194.098 168.037 194.82 171.164 196.253 174.148 198.561 175.346 201.898 176.462 204.902 175.581 208.326 173.652 210.793 170.545 214.841 165.223 216.893 160.192 216.381 156.901 216.095 153.794 214.708 151.143 212.789 149.362 211.417 146.603 211.402 144.971 213.014 142.642 215.255 141.834 218.557 141.219 221.622 140.278 227.298 140.319 233.184 141.583 238.813 142.069 240.615 142.57 242.611 144.044 243.875 144.981 244.689 146.296 244.09 146.998 243.271 148.727 241.316 149.858 238.865 150.406 236.321 151.133 233.301 153.083 230.446 156.02 229.227 159.449 227.794 163.38 228.45 166.691 229.918 169.916 231.387 172.879 233.614 174.962 236.495 175.786 239.822 175.453 243.701 173.145 246.388 170.893 249.008 167.505 250.272 164.23 251.05 156.86 252.755 149.234 252.34 141.772 253.297 141.163 258.569 140.948 263.886 141.163 269.188 141.301 271.481 141.455 273.815 142.202 276.005 142.524 276.881 143.103 278.037 144.224 277.899 145.58 277.474 146.409 276.21 147.212 275.12 148.456 273.452 148.262 271.21 149.301 269.434 150.769 266.194 154.152 264.065 157.679 263.891 163.206 263.564 168.703 266.266 172.214 270.478 174.747 273.498 176.006 277.674 175.075 281.553 172.203 284.66 167.863 286.083 163.713 286.272 156.353 286.625 149.193 284.276 141.839 284.353 141.793 292.096 140.728 299.814 141.056 307.558 141.245 309.287 141.143 311.437 142.745 312.548 147.694 309.518 147.658 302.511 152.397 299.297 155.386 297.23 159.342 297.26 162.674 298.422 167.341 300.065 171.466 303.438 173.744 307.86 175.33 310.879 175.627 314.743 173.8 317.732 172.101 320.393 169.532 322.696 166.364 323.346 160.473 324.677 154.424 323.131 148.477 323.725 146.926 323.904 145.35 324.288 144.065 325.209 142.376 326.412 141.516 328.541 141.542 330.578 141.675 336.228 140.938 341.878 141.414 347.524 141.619 348.911 141.624 350.651 142.862 351.572 144.689 351.464 145.892 349.494 146.578 347.984 147.069 340.21 154.511 333.726 162.264 334.258 165.99 334.452 169.414 336.878 170.975 340.241 172.152 343.066 174.158 345.804 173.769 349.028 173.462 351.981 170.955 354.085 168.391 355.206 163.718 357.243 158.528 357.724 153.487 357.632 151.783 357.739 150.473 356.454 148.876 356.101 146.624 355.359 143.927 356.04 142.555 358.041 139.909 361.762 139.771 366.624 140.083 371.015 140.477 374.111 140.933 377.551 143.139 379.941 144.403 381.251 146.23 380.089 146.992 378.83 149.244 376.056 149.091 372.156 151.327 369.377 153.502 366.286 157.617 365.093 161.22 365.882 168.708 367.386 175.371 374.326 174.957 382.233 172.812 384.68 169.931 386.42 166.778 387.198 158.625 389.255 150.048 387.259 141.9 389.404 142.238 390.407 142.514 391.446 142.443 392.526 142.212 397.864 140.687 403.063 140.554 408.412 140.59 409.579 140.559 410.945 141.429 411.856 142.468 412.649 143.722 411.754 144.725 411.349 145.554 408.985 146.301 406.59 147.274 404.282 149.111 400.049 151.43 395.233 156.056 393.544 159.429 392.331 162.658 394.281 165.765 395.33 169.133 396.635 171.896 399.634 172.49 403.253 173.718 410.454 168.385 417.972 161.287 419.472 157.781 420.224 154.009 419.543 150.938 417.711 148.968 416.539 146.286 416.14 144.336 417.563 141.813 419.441 140.779 422.629 140.139 425.582 139.275 430.357 139.223 435.44 140.861 440.061 141.434 441.535 142.478 443.424 144.326 443.291 145.969 442.958 147.361 441.637 147.842 440.041 149.014 436.852 151.138 433.935 154.096 432.2 157.198 430.337 161.041 429.963 164.532 430.798 169.614 432.011 174.036 435.455 176.774 439.861 177.746 443.552 177.152 447.948 174.363 450.737 171.067 454.018 166.18 454.872 161.706 455.011 154.644 455.067 147.453 453.619 141.204 450.256 140.769 453.368 140.549 456.853 142.386 459.596 144.029 462.063 147.079 463.046 149.894 463.363 155.191 463.916 160.488 463.041 165.745 462.473 170.166 462.002 174.691 461.331 179.097 462.304 178.908 326.125 183.074 189.958 181.354 53.7793 169.568 53.0116 157.75 53.4415 145.953 53.7742M192.542 53.7998C188.826 57.7457 188.391 63.4522 188.263 68.5907 188.274 71.8303 187.854 75.0495 187.818 78.2789 190.014 197.036 184.01 315.792 187.061 434.539 187.112 436.064 187.629 437.533 187.695 439.063 188.095 444.621 187.322 450.23 188.202 455.758 188.555 457.769 189.2 459.862 190.725 461.306 191.989 462.513 193.791 462.979 195.505 462.918 201.284 462.258 207.118 462.56 212.922 462.345 301.759 461.106 390.627 465.682 479.444 462.171 482.12 326.832 483.354 191.462 483.717 56.0978 386.747 50.2326 289.594 55.0332 192.542 53.7998M132.923 69.6552C134.095 69.6142 135.38 69.1946 135.871 68.0226 135.856 66.7738 134.223 66.9171 133.389 66.6151 132.995 67.5824 132.585 68.606 132.923 69.6552M158.902 68.6674C159.025 70.0953 158.789 71.9941 160.207 72.859 162.31 73.1405 164.409 70.6327 163.963 68.6162 162.617 67.1986 160.494 68.3194 158.902 68.6674M131.72 105.936C133.015 107.502 136.025 106.683 136.884 104.974 136.803 103.285 134.771 102.896 133.527 102.287 132.744 103.382 131.567 104.462 131.72 105.936M159.137 105.481C160.755 106.218 162.909 105.854 163.999 104.396 164.137 102.763 161.865 102.584 160.739 102.093 159.946 103.086 159.107 104.14 159.137 105.481M131.316 134.638C131.93 136.46 135.334 136.439 135.907 134.617 135.81 133.251 134.51 132.478 133.604 131.633 132.683 132.483 131.511 133.297 131.316 134.638M157.29 136.183C158.922 137.755 161.768 137.57 163.6 136.449 164.066 134.878 161.886 134.315 160.872 133.629 159.547 134.274 158.155 134.929 157.29 136.183M131.869 166.963C133.307 168.181 135.958 167.439 136.859 165.852 136.905 164.122 134.771 163.708 133.537 163.093 132.759 164.209 131.291 165.468 131.869 166.963M158.933 167.275C159.055 168.554 158.712 170.443 160.161 171.088 161.573 171.123 162.592 169.89 163.267 168.795 163.636 168.13 163.963 167.004 163.099 166.579 161.681 166.139 160.263 166.876 158.933 167.275M131.526 198.054C132.493 199.114 134.29 199.062 135.446 198.341 136.772 196.877 134.597 195.439 133.604 194.538 132.678 195.459 130.922 196.519 131.526 198.054M157.146 198.515C157.351 199.866 157.239 201.667 158.636 202.435 160.545 202.711 162.827 199.999 161.538 198.305 160.156 197.532 158.564 198.208 157.146 198.515M130.738 238.819C132.125 241.163 136.357 239.622 136.327 237.007 136.316 235.159 134.94 233.752 133.763 232.498 132.304 234.264 130.134 236.306 130.738 238.819M160.77 235.999C158.411 236.065 157.592 238.619 157.003 240.497 156.578 241.546 157.817 242.12 158.656 241.797 161.031 241.193 163.17 239.806 164.931 238.122 165.422 237.534 166.277 236.761 165.837 235.922 164.25 235.113 162.418 235.753 160.77 235.999M131.04 270.13C131.495 272.397 135.564 272.408 136.066 270.166 136.178 268.395 134.668 267.146 133.563 265.979 132.457 267.141 130.968 268.37 131.04 270.13M157.223 273.308C159.117 274.209 161.773 273.134 162.664 271.236 161.701 270.13 160.258 269.808 158.917 269.444 158.068 270.504 156.537 271.85 157.223 273.308M129.535 307.604C129.382 308.576 130.206 309.702 131.27 309.369 133.056 308.893 134.238 306.882 133.875 305.08 133.645 303.683 132.596 302.639 131.71 301.616 130.625 303.448 129.658 305.444 129.535 307.604M157.366 305.408C156.573 305.48 156.312 306.309 155.908 306.867 155.043 308.366 154.004 309.912 153.978 311.708 154.183 312.875 155.596 312.66 156.415 312.389 158.943 311.483 161.251 309.886 162.981 307.839 163.575 307.148 164.225 305.766 163.104 305.234 161.251 304.594 159.235 305.06 157.366 305.408M158.794 340.773C158.052 341.761 157.167 342.728 156.952 343.997 157.326 345.415 159.132 344.949 160.166 344.627 161.118 344.253 162.602 343.649 162.433 342.411 161.645 341.208 160.043 341.142 158.794 340.773M129.243 344.473C130.062 346.101 132.979 346.06 133.809 344.468 133.814 343.015 132.442 342.206 131.506 341.326 130.584 342.211 129.259 343.035 129.243 344.473M156.379 375.196C157.54 376.215 159.705 376.404 160.673 375.073 160.923 373.825 159.485 373.19 158.718 372.479 157.755 373.205 156.778 374.004 156.379 375.196M128.941 377.167C129.54 379.332 133.435 379.316 133.967 377.121 134.085 375.345 132.57 374.091 131.465 372.919 130.344 374.106 128.819 375.35 128.941 377.167M154.47 405.397C154.516 406.718 155.959 407.368 157.126 407.209 159.409 407.009 161.701 405.96 163.17 404.179 163.851 403.401 163.912 402.106 163.047 401.441 161.266 400.029 158.876 399.906 156.716 399.588 155.683 401.38 154.413 403.243 154.47 405.397M129.545 402.577C128.906 403.985 127.713 405.663 128.593 407.224 130.185 408.637 132.939 407.501 133.937 405.848 134.238 403.519 131.193 403.115 129.545 402.577M129.581 435.721C129.366 437.175 128.547 439.099 129.811 440.281 131.608 440.885 133.814 438.894 133.589 437.052 132.836 435.614 130.948 435.844 129.581 435.721M158.707 437.615C158.61 438.7 157.848 441.12 159.69 440.967 160.893 440.471 162.587 439.078 161.84 437.64 160.842 437.164 159.736 437.517 158.707 437.615Z" transform="matrix(1.0008 0 0 1 -96.0989 0.0639743)"/><path d="M421.775 181.272C423.689 179.164 427.026 179.645 429.313 180.842 432.374 182.506 435.414 185.203 435.798 188.867 436.059 191.083 434.273 192.752 433.689 194.758 432.543 198.474 432.911 202.42 432.737 206.253 432.553 225.328 432.43 244.412 432.63 263.487 440.066 261.967 447.564 260.754 455.057 259.587 456.137 258.251 456.587 256.424 458.04 255.385 459.53 254.224 461.623 254.597 463.215 255.349 465.492 256.527 467.35 258.482 468.532 260.749 470.134 263.83 469.679 268.149 466.807 270.335 464.489 272.034 461.541 272.423 458.788 272.93 450.379 274.066 441.919 274.787 433.515 275.924 434.309 286.554 435.685 297.143 437.702 307.614 438.72 312.86 439.959 318.09 440.358 323.433 440.235 328.915 433.904 332.702 428.848 331.597 425.47 330.373 424.247 326.545 423.284 323.423 421.232 315.572 420.618 307.44 419.707 299.405 419.021 292.552 418.479 285.684 417.998 278.815 393.13 283.473 368.804 290.597 343.997 295.556 340.921 295.96 337.436 297.337 334.606 295.413 331.904 293.647 328.935 291.139 328.94 287.628 329.012 284.389 331.612 282.111 333.833 280.11 346.418 267.776 357.877 254.351 370.416 241.966 387.607 225.241 401.978 205.951 417.588 187.813 419.287 185.827 420.168 183.309 421.775 181.272M390.504 239.504C378.39 252.407 366.189 265.232 354.274 278.314 361.337 276.65 368.522 275.581 375.616 274.035 389.342 270.795 403.258 268.451 417.066 265.585 416.795 261.685 416.565 257.775 416.59 253.865 416.621 239.417 416.867 224.969 417.22 210.527 408.34 220.21 399.491 229.924 390.504 239.504Z" transform="matrix(1.0008 0 0 1 -96.0989 0.0639743)"/><path d="M242.57 183.811C253.875 180.674 265.846 179.972 277.418 181.963 286.139 183.371 295.172 186.406 301.247 193.141 305.725 197.977 307.496 204.851 306.739 211.32 306.38 216.3 304.308 221.023 301.278 224.954 296.528 231.183 290.09 235.835 283.595 240.093 280.397 242.15 277.085 244.034 273.692 245.743 282.659 246.163 291.866 247.504 299.922 251.695 307.537 255.708 314.078 262.412 316.575 270.79 318.868 278.329 317.788 286.441 315.444 293.831 312.809 302.189 307.732 309.733 300.991 315.337 293.872 321.304 285.264 325.189 276.522 328.142 264.26 332.185 251.404 334.135 238.552 335.02 234.596 335.322 230.594 335.353 226.674 334.729 224.048 334.319 221.274 333.142 219.99 330.67 218.429 327.825 218.424 323.618 221.187 321.504 223.802 319.61 227.206 319.493 230.318 319.513 242.887 319.917 255.595 319.063 267.786 315.828 276.046 313.546 284.43 310.552 290.996 304.84 296.477 300.162 300.198 293.575 301.646 286.533 302.864 281.154 302.936 275.084 299.855 270.284 296.784 265.478 291.364 262.852 286.047 261.317 274.071 258.067 261.527 258.139 249.228 258.717 247.458 258.855 245.636 258.681 243.911 259.188 238.747 260.908 233.614 262.755 228.332 264.096 225.358 264.72 222.093 265.161 219.201 263.999 214.503 261.445 213.771 253.998 217.738 250.467 218.874 249.438 220.333 248.86 221.801 248.502 225.256 247.662 228.726 246.895 232.237 246.352 243.251 244.817 253.845 241.163 264.055 236.853 270.514 233.972 276.957 230.804 282.464 226.305 286.579 222.891 289.993 218.265 290.791 212.871 291.364 209.544 291.088 205.705 288.652 203.141 286.349 200.813 283.273 199.436 280.228 198.356 269.101 194.661 256.839 194.681 245.651 198.146 239.044 200.122 232.447 203.116 227.789 208.362 224.299 211.929 217.922 210.992 214.841 207.374 212.302 204.063 213.546 199.16 216.632 196.647 223.946 190.167 233.219 186.314 242.57 183.811Z" transform="matrix(1.0008 0 0 1 -96.0989 0.0639743)"/><path d="M145.953 53.7742C157.75 53.4415 169.568 53.0116 181.354 53.7793 183.074 189.958 178.908 326.125 179.097 462.304 174.691 461.331 170.166 462.002 165.745 462.473 160.488 463.041 155.191 463.916 149.894 463.363 147.079 463.046 144.029 462.063 142.386 459.596 140.549 456.853 140.769 453.368 141.204 450.256 147.453 453.619 154.644 455.067 161.706 455.011 166.18 454.872 171.067 454.018 174.363 450.737 177.152 447.948 177.746 443.552 176.774 439.861 174.036 435.455 169.614 432.011 164.532 430.798 161.041 429.963 157.198 430.337 154.096 432.2 151.138 433.935 149.014 436.852 147.842 440.041 147.361 441.637 145.969 442.958 144.326 443.291 142.478 443.424 141.434 441.535 140.861 440.061 139.223 435.44 139.275 430.357 140.139 425.582 140.779 422.629 141.813 419.441 144.336 417.563 146.286 416.14 148.968 416.539 150.938 417.711 154.009 419.543 157.781 420.224 161.287 419.472 168.385 417.972 173.718 410.454 172.49 403.253 171.896 399.634 169.133 396.635 165.765 395.33 162.658 394.281 159.429 392.331 156.056 393.544 151.43 395.233 149.111 400.049 147.274 404.282 146.301 406.59 145.554 408.985 144.725 411.349 143.722 411.754 142.468 412.649 141.429 411.856 140.559 410.945 140.59 409.579 140.554 408.412 140.687 403.063 142.212 397.864 142.443 392.526 142.514 391.446 142.238 390.407 141.9 389.404 150.048 387.259 158.625 389.255 166.778 387.198 169.931 386.42 172.812 384.68 174.957 382.233 175.371 374.326 168.708 367.386 161.22 365.882 157.617 365.093 153.502 366.286 151.327 369.377 149.091 372.156 149.244 376.056 146.992 378.83 146.23 380.089 144.403 381.251 143.139 379.941 140.933 377.551 140.477 374.111 140.083 371.015 139.771 366.624 139.909 361.762 142.555 358.041 143.927 356.04 146.624 355.359 148.876 356.101 150.473 356.454 151.783 357.739 153.487 357.632 158.528 357.724 163.718 357.243 168.391 355.206 170.955 354.085 173.462 351.981 173.769 349.028 174.158 345.804 172.152 343.066 170.975 340.241 169.414 336.878 165.99 334.452 162.264 334.258 154.511 333.726 147.069 340.21 146.578 347.984 145.892 349.494 144.689 351.464 142.862 351.572 141.624 350.651 141.619 348.911 141.414 347.524 140.938 341.878 141.675 336.228 141.542 330.578 141.516 328.541 142.376 326.412 144.065 325.209 145.35 324.288 146.926 323.904 148.477 323.725 154.424 323.131 160.473 324.677 166.364 323.346 169.532 322.696 172.101 320.393 173.8 317.732 175.627 314.743 175.33 310.879 173.744 307.86 171.466 303.438 167.341 300.065 162.674 298.422 159.342 297.26 155.386 297.23 152.397 299.297 147.658 302.511 147.694 309.518 142.745 312.548 141.143 311.437 141.245 309.287 141.056 307.558 140.728 299.814 141.793 292.096 141.839 284.353 149.193 284.276 156.353 286.625 163.713 286.272 167.863 286.083 172.203 284.66 175.075 281.553 176.006 277.674 174.747 273.498 172.214 270.478 168.703 266.266 163.206 263.564 157.679 263.891 154.152 264.065 150.769 266.194 149.301 269.434 148.262 271.21 148.456 273.452 147.212 275.12 146.409 276.21 145.58 277.474 144.224 277.899 143.103 278.037 142.524 276.881 142.202 276.005 141.455 273.815 141.301 271.481 141.163 269.188 140.948 263.886 141.163 258.569 141.772 253.297 149.234 252.34 156.86 252.755 164.23 251.05 167.505 250.272 170.893 249.008 173.145 246.388 175.453 243.701 175.786 239.822 174.962 236.495 172.879 233.614 169.916 231.387 166.691 229.918 163.38 228.45 159.449 227.794 156.02 229.227 153.083 230.446 151.133 233.301 150.406 236.321 149.858 238.865 148.727 241.316 146.998 243.271 146.296 244.09 144.981 244.689 144.044 243.875 142.57 242.611 142.069 240.615 141.583 238.813 140.319 233.184 140.278 227.298 141.219 221.622 141.834 218.557 142.642 215.255 144.971 213.014 146.603 211.402 149.362 211.417 151.143 212.789 153.794 214.708 156.901 216.095 160.192 216.381 165.223 216.893 170.545 214.841 173.652 210.793 175.581 208.326 176.462 204.902 175.346 201.898 174.148 198.561 171.164 196.253 168.037 194.82 166.19 194.098 164.967 192.332 163.037 191.759 160.688 190.945 158.129 191.764 156.128 193.079 152.591 195.383 149.997 198.786 147.013 201.713 146.22 202.42 145.385 203.285 144.259 203.356 143.579 203.228 143.307 202.512 143.113 201.944 142.458 199.707 142.734 197.358 142.57 195.07 141.537 192.158 140.078 188.98 141.219 185.868 142.125 183.535 144.659 182.485 146.931 181.974 153.682 180.571 160.698 181.682 167.444 180.228 169.864 179.676 172.505 178.544 173.555 176.119 174.696 173.319 173.897 170.187 172.858 167.474 171.702 164.557 169.885 161.507 166.799 160.35 163.38 159.122 159.746 160.616 156.814 162.392 151.957 165.458 147.847 169.563 144.07 173.851 145.611 166.405 142.069 158.963 143.2 151.491 143.456 149.741 144.582 147.944 146.44 147.622 149.516 147.125 152.479 148.502 155.15 149.864 160.836 152.325 167.7 150.135 171.866 145.805 173.79 143.789 175.233 141.015 174.829 138.154 174.471 135.528 172.541 133.414 170.356 132.068 168.017 130.748 166.241 128.486 163.549 127.81 160.14 126.756 156.624 128.378 154.05 130.564 150.114 133.911 147.1 138.159 143.896 142.176 145.411 134.888 142.253 127.601 143.22 120.287 143.471 118.219 144.72 116.034 146.905 115.594 150.145 114.918 153.354 116.203 156.292 117.431 162.761 119.53 170.683 116.428 173.8 110.338 175.51 107.098 174.092 103.055 171.221 101.008 168.518 99.1089 165.668 97.0106 162.269 96.6984 159.659 96.4323 157.172 97.7066 155.304 99.4365 151.343 103.065 148.707 108.07 144.004 110.89 145.549 103.106 142.207 95.3421 143.18 87.527 143.425 85.3366 144.613 82.9567 146.905 82.3579 149.935 81.58 153.062 82.5933 155.857 83.7551 159.496 84.9783 163.528 84.5279 167.091 83.2331 169.967 82.1378 172.853 80.321 174.133 77.3986 175.121 75.1467 174.46 72.5008 173.012 70.6122 171.574 68.7749 170.77 66.4565 168.907 64.9671 166.64 62.9251 163.308 62.4389 160.442 63.3192 155.805 64.701 152.151 68.3194 149.833 72.4701 148.83 73.8263 147.781 75.7506 145.902 75.8325 144.495 74.9983 144.551 73.0893 144.352 71.6614 144.091 65.6632 144.894 59.665 145.953 53.7742Z" fill="#FFFFFF" transform="matrix(1.0008 0 0 1 -96.0989 0.0639743)"/><path d="M192.542 53.7998C289.594 55.0332 386.747 50.2326 483.717 56.0978 483.354 191.462 482.12 326.832 479.444 462.171 390.627 465.682 301.759 461.106 212.922 462.345 207.118 462.56 201.284 462.258 195.505 462.918 193.791 462.979 191.989 462.513 190.725 461.306 189.2 459.862 188.555 457.769 188.202 455.758 187.322 450.23 188.095 444.621 187.695 439.063 187.629 437.533 187.112 436.064 187.061 434.539 184.01 315.792 190.014 197.036 187.818 78.2789 187.854 75.0495 188.274 71.8303 188.263 68.5907 188.391 63.4522 188.826 57.7457 192.542 53.7998M421.775 181.272C420.168 183.309 419.287 185.827 417.588 187.813 401.978 205.951 387.607 225.241 370.416 241.966 357.877 254.351 346.418 267.776 333.833 280.11 331.612 282.111 329.012 284.389 328.94 287.628 328.935 291.139 331.904 293.647 334.606 295.413 337.436 297.337 340.921 295.96 343.997 295.556 368.804 290.597 393.13 283.473 417.998 278.815 418.479 285.684 419.021 292.552 419.707 299.405 420.618 307.44 421.232 315.572 423.284 323.423 424.247 326.545 425.47 330.373 428.848 331.597 433.904 332.702 440.235 328.915 440.358 323.433 439.959 318.09 438.72 312.86 437.702 307.614 435.685 297.143 434.309 286.554 433.515 275.924 441.919 274.787 450.379 274.066 458.788 272.93 461.541 272.423 464.489 272.034 466.807 270.335 469.679 268.149 470.134 263.83 468.532 260.749 467.35 258.482 465.492 256.527 463.215 255.349 461.623 254.597 459.53 254.224 458.04 255.385 456.587 256.424 456.137 258.251 455.057 259.587 447.564 260.754 440.066 261.967 432.63 263.487 432.43 244.412 432.553 225.328 432.737 206.253 432.911 202.42 432.543 198.474 433.689 194.758 434.273 192.752 436.059 191.083 435.798 188.867 435.414 185.203 432.374 182.506 429.313 180.842 427.026 179.645 423.689 179.164 421.775 181.272M242.57 183.811C233.219 186.314 223.946 190.167 216.632 196.647 213.546 199.16 212.302 204.063 214.841 207.374 217.922 210.992 224.299 211.929 227.789 208.362 232.447 203.116 239.044 200.122 245.651 198.146 256.839 194.681 269.101 194.661 280.228 198.356 283.273 199.436 286.349 200.813 288.652 203.141 291.088 205.705 291.364 209.544 290.791 212.871 289.993 218.265 286.579 222.891 282.464 226.305 276.957 230.804 270.514 233.972 264.055 236.853 253.845 241.163 243.251 244.817 232.237 246.352 228.726 246.895 225.256 247.662 221.801 248.502 220.333 248.86 218.874 249.438 217.738 250.467 213.771 253.998 214.503 261.445 219.201 263.999 222.093 265.161 225.358 264.72 228.332 264.096 233.614 262.755 238.747 260.908 243.911 259.188 245.636 258.681 247.458 258.855 249.228 258.717 261.527 258.139 274.071 258.067 286.047 261.317 291.364 262.852 296.784 265.478 299.855 270.284 302.936 275.084 302.864 281.154 301.646 286.533 300.198 293.575 296.477 300.162 290.996 304.84 284.43 310.552 276.046 313.546 267.786 315.828 255.595 319.063 242.887 319.917 230.318 319.513 227.206 319.493 223.802 319.61 221.187 321.504 218.424 323.618 218.429 327.825 219.99 330.67 221.274 333.142 224.048 334.319 226.674 334.729 230.594 335.353 234.596 335.322 238.552 335.02 251.404 334.135 264.26 332.185 276.522 328.142 285.264 325.189 293.872 321.304 300.991 315.337 307.732 309.733 312.809 302.189 315.444 293.831 317.788 286.441 318.868 278.329 316.575 270.79 314.078 262.412 307.537 255.708 299.922 251.695 291.866 247.504 282.659 246.163 273.692 245.743 277.085 244.034 280.397 242.15 283.595 240.093 290.09 235.835 296.528 231.183 301.278 224.954 304.308 221.023 306.38 216.3 306.739 211.32 307.496 204.851 305.725 197.977 301.247 193.141 295.172 186.406 286.139 183.371 277.418 181.963 265.846 179.972 253.875 180.674 242.57 183.811Z" fill="#FFFFFF" transform="matrix(1.0008 0 0 1 -96.0989 0.0639743)"/><path d="M132.923 69.6552C132.585 68.606 132.995 67.5824 133.389 66.6151 134.223 66.9171 135.856 66.7738 135.871 68.0226 135.38 69.1946 134.095 69.6142 132.923 69.6552Z" fill="#FFFFFF" transform="matrix(1.0008 0 0 1 -96.0989 0.0639743)"/><path d="M158.902 68.6674C160.494 68.3194 162.617 67.1986 163.963 68.6162 164.409 70.6327 162.31 73.1405 160.207 72.859 158.789 71.9941 159.025 70.0953 158.902 68.6674Z" fill="#FFFFFF" transform="matrix(1.0008 0 0 1 -96.0989 0.0639743)"/><path d="M131.72 105.936C131.567 104.462 132.744 103.382 133.527 102.287 134.771 102.896 136.803 103.285 136.884 104.974 136.025 106.683 133.015 107.502 131.72 105.936Z" fill="#FFFFFF" transform="matrix(1.0008 0 0 1 -96.0989 0.0639743)"/><path d="M159.137 105.481C159.107 104.14 159.946 103.086 160.739 102.093 161.865 102.584 164.137 102.763 163.999 104.396 162.909 105.854 160.755 106.218 159.137 105.481Z" fill="#FFFFFF" transform="matrix(1.0008 0 0 1 -96.0989 0.0639743)"/><path d="M131.316 134.638C131.511 133.297 132.683 132.483 133.604 131.633 134.51 132.478 135.81 133.251 135.907 134.617 135.334 136.439 131.93 136.46 131.316 134.638Z" fill="#FFFFFF" transform="matrix(1.0008 0 0 1 -96.0989 0.0639743)"/><path d="M157.29 136.183C158.155 134.929 159.547 134.274 160.872 133.629 161.886 134.315 164.066 134.878 163.6 136.449 161.768 137.57 158.922 137.755 157.29 136.183Z" fill="#FFFFFF" transform="matrix(1.0008 0 0 1 -96.0989 0.0639743)"/><path d="M131.869 166.963C131.291 165.468 132.759 164.209 133.537 163.093 134.771 163.708 136.905 164.122 136.859 165.852 135.958 167.439 133.307 168.181 131.869 166.963Z" fill="#FFFFFF" transform="matrix(1.0008 0 0 1 -96.0989 0.0639743)"/><path d="M158.933 167.275C160.263 166.876 161.681 166.139 163.099 166.579 163.963 167.004 163.636 168.13 163.267 168.795 162.592 169.89 161.573 171.123 160.161 171.088 158.712 170.443 159.055 168.554 158.933 167.275Z" fill="#FFFFFF" transform="matrix(1.0008 0 0 1 -96.0989 0.0639743)"/><path d="M131.526 198.054C130.922 196.519 132.678 195.459 133.604 194.538 134.597 195.439 136.772 196.877 135.446 198.341 134.29 199.062 132.493 199.114 131.526 198.054Z" fill="#FFFFFF" transform="matrix(1.0008 0 0 1 -96.0989 0.0639743)"/><path d="M157.146 198.515C158.564 198.208 160.156 197.532 161.538 198.305 162.827 199.999 160.545 202.711 158.636 202.435 157.239 201.667 157.351 199.866 157.146 198.515Z" fill="#FFFFFF" transform="matrix(1.0008 0 0 1 -96.0989 0.0639743)"/><path d="M390.504 239.504C399.491 229.924 408.34 220.21 417.22 210.527 416.867 224.969 416.621 239.417 416.59 253.865 416.565 257.775 416.795 261.685 417.066 265.585 403.258 268.451 389.342 270.795 375.616 274.035 368.522 275.581 361.337 276.65 354.274 278.314 366.189 265.232 378.39 252.407 390.504 239.504Z" fill="#FFFFFF" transform="matrix(1.0008 0 0 1 -96.0989 0.0639743)"/><path d="M130.738 238.819C130.134 236.306 132.304 234.264 133.763 232.498 134.94 233.752 136.316 235.159 136.327 237.007 136.357 239.622 132.125 241.163 130.738 238.819Z" fill="#FFFFFF" transform="matrix(1.0008 0 0 1 -96.0989 0.0639743)"/><path d="M160.77 235.999C162.418 235.753 164.25 235.113 165.837 235.922 166.277 236.761 165.422 237.534 164.931 238.122 163.17 239.806 161.031 241.193 158.656 241.797 157.817 242.12 156.578 241.546 157.003 240.497 157.592 238.619 158.411 236.065 160.77 235.999Z" fill="#FFFFFF" transform="matrix(1.0008 0 0 1 -96.0989 0.0639743)"/><path d="M131.04 270.13C130.968 268.37 132.457 267.141 133.563 265.979 134.668 267.146 136.178 268.395 136.066 270.166 135.564 272.408 131.495 272.397 131.04 270.13Z" fill="#FFFFFF" transform="matrix(1.0008 0 0 1 -96.0989 0.0639743)"/><path d="M157.223 273.308C156.537 271.85 158.068 270.504 158.917 269.444 160.258 269.808 161.701 270.13 162.664 271.236 161.773 273.134 159.117 274.209 157.223 273.308Z" fill="#FFFFFF" transform="matrix(1.0008 0 0 1 -96.0989 0.0639743)"/><path d="M129.535 307.604C129.658 305.444 130.625 303.448 131.71 301.616 132.596 302.639 133.645 303.683 133.875 305.08 134.238 306.882 133.056 308.893 131.27 309.369 130.206 309.702 129.382 308.576 129.535 307.604Z" fill="#FFFFFF" transform="matrix(1.0008 0 0 1 -96.0989 0.0639743)"/><path d="M157.366 305.408C159.235 305.06 161.251 304.594 163.104 305.234 164.225 305.766 163.575 307.148 162.981 307.839 161.251 309.886 158.943 311.483 156.415 312.389 155.596 312.66 154.183 312.875 153.978 311.708 154.004 309.912 155.043 308.366 155.908 306.867 156.312 306.309 156.573 305.48 157.366 305.408Z" fill="#FFFFFF" transform="matrix(1.0008 0 0 1 -96.0989 0.0639743)"/><path d="M158.794 340.773C160.043 341.142 161.645 341.208 162.433 342.411 162.602 343.649 161.118 344.253 160.166 344.627 159.132 344.949 157.326 345.415 156.952 343.997 157.167 342.728 158.052 341.761 158.794 340.773Z" fill="#FFFFFF" transform="matrix(1.0008 0 0 1 -96.0989 0.0639743)"/><path d="M129.243 344.473C129.259 343.035 130.584 342.211 131.506 341.326 132.442 342.206 133.814 343.015 133.809 344.468 132.979 346.06 130.062 346.101 129.243 344.473Z" fill="#FFFFFF" transform="matrix(1.0008 0 0 1 -96.0989 0.0639743)"/><path d="M156.379 375.196C156.778 374.004 157.755 373.205 158.718 372.479 159.485 373.19 160.923 373.825 160.673 375.073 159.705 376.404 157.54 376.215 156.379 375.196Z" fill="#FFFFFF" transform="matrix(1.0008 0 0 1 -96.0989 0.0639743)"/><path d="M128.941 377.167C128.819 375.35 130.344 374.106 131.465 372.919 132.57 374.091 134.085 375.345 133.967 377.121 133.435 379.316 129.54 379.332 128.941 377.167Z" fill="#FFFFFF" transform="matrix(1.0008 0 0 1 -96.0989 0.0639743)"/><path d="M154.47 405.397C154.413 403.243 155.683 401.38 156.716 399.588 158.876 399.906 161.266 400.029 163.047 401.441 163.912 402.106 163.851 403.401 163.17 404.179 161.701 405.96 159.409 407.009 157.126 407.209 155.959 407.368 154.516 406.718 154.47 405.397Z" fill="#FFFFFF" transform="matrix(1.0008 0 0 1 -96.0989 0.0639743)"/><path d="M129.545 402.577C131.193 403.115 134.238 403.519 133.937 405.848 132.939 407.501 130.185 408.637 128.593 407.224 127.713 405.663 128.906 403.985 129.545 402.577Z" fill="#FFFFFF" transform="matrix(1.0008 0 0 1 -96.0989 0.0639743)"/><path d="M129.581 435.721C130.948 435.844 132.836 435.614 133.589 437.052 133.814 438.894 131.608 440.885 129.811 440.281 128.547 439.099 129.366 437.175 129.581 435.721Z" fill="#FFFFFF" transform="matrix(1.0008 0 0 1 -96.0989 0.0639743)"/><path d="M158.707 437.615C159.736 437.517 160.842 437.164 161.84 437.64 162.587 439.078 160.893 440.471 159.69 440.967 157.848 441.12 158.61 438.7 158.707 437.615Z" fill="#FFFFFF" transform="matrix(1.0008 0 0 1 -96.0989 0.0639743)"/></g></svg>