<svg width="428" height="518" xmlns="http://www.w3.org/2000/svg" xmlns:xlink="http://www.w3.org/1999/xlink" xml:space="preserve" overflow="hidden"><defs><clipPath id="clip0"><rect x="0" y="0" width="432" height="525"/></clipPath></defs><g clip-path="url(#clip0)"><path d="M139.038 45.8326C256.16 50.4276 373.39 49.1433 490.573 49.7727 493.29 129.725 490.015 209.703 488.112 289.635 486.674 348.777 485.886 407.991 488.91 467.102 370.903 470.658 252.824 468.944 134.822 466.421 136.265 463.1 136.26 459.303 135.118 455.895 133.486 450.579 130.109 445.958 128.789 440.534 127.893 437.004 128.681 432.813 131.598 430.434 133.926 428.269 135.61 424.928 134.525 421.735 132.56 415.881 126.558 412.688 124.081 407.146 122.879 404.572 124.112 401.645 126.143 399.911 127.924 397.977 130.692 397.378 132.396 395.367 133.686 393.985 134.003 391.913 133.358 390.158 131.67 385.399 127.361 382.042 125.964 377.151 125.135 374.515 126.65 371.788 128.835 370.345 131.373 368.636 133.721 366.026 133.65 362.777 133.481 358.182 130.488 354.426 128.471 350.486 126.814 347.431 125.253 343.655 126.88 340.262 128.006 337.417 131.265 336.363 132.555 333.651 134.724 330.054 134.1 325.561 132.509 321.872 130.477 316.735 127.003 312.119 126.082 306.583 125.406 302.909 127.141 299.168 129.981 296.865 132.724 294.716 134.146 291.022 133.496 287.594 132.34 281.105 127.039 276.229 125.98 269.72 125.33 265.882 127.883 262.403 130.943 260.397 133.067 258.995 135.538 257.127 135.553 254.323 135.405 251.698 133.317 249.779 131.552 248.07 128.794 245.409 125.406 243.137 123.754 239.561 122.372 236.521 124.199 232.888 126.967 231.353 131.137 228.769 134.295 224.476 135.159 219.605 136.582 211.724 132.954 203.793 127.648 198.113 129.07 192.643 133.113 188.36 134.827 183.018 135.599 180.711 135.205 177.963 133.394 176.254 131.813 174.473 129.295 173.956 127.755 172.129 125.693 170.185 124.368 167.13 125.493 164.346 127.361 159.583 131.931 156.651 134.402 152.265 135.41 150.536 135.804 148.336 134.924 146.468 133.942 144.186 131.792 142.814 130.037 141.187 128.139 139.427 126.962 136.71 127.683 134.126 129.019 129.014 133.757 125.719 135.405 120.76 136.249 118.294 134.607 115.848 132.55 114.615 129.705 112.957 126.747 110.997 125.304 107.917 124.286 105.793 124.705 103.281 125.775 101.265 128.354 96.3421 132.959 92.8012 135.338 87.7559 136.449 85.4583 136.705 82.6798 135.62 80.3311 134.428 77.4401 131.48 75.6696 130.585 72.6199 129.311 69.0329 130.999 65.3026 132.872 62.2683 135.881 57.2741 140.138 52.0753 139.038 45.8326M193.314 53.8816C191.84 55.5088 190.74 57.4583 190.146 59.5768 188.729 64.5044 189.22 69.6827 188.765 74.7332 188.422 77.614 188.688 80.5154 188.673 83.4116 190.637 200.6 184.794 317.794 187.859 434.982 189.164 440.846 188.248 446.885 188.647 452.83 188.893 455.916 189.302 459.477 191.84 461.596 194.015 463.392 196.962 462.901 199.536 462.594 293.069 460.598 386.632 465.858 480.15 462.174 482.846 326.856 484.075 191.512 484.433 56.1689 387.482 50.3202 290.346 55.0994 193.314 53.8816M145.107 67.5541C145.061 69.9846 144.902 72.5124 145.736 74.8406 145.971 75.6952 147.01 76.3092 147.783 75.6491 150.316 74.0015 151.227 70.9159 153.227 68.7771 156.011 65.6045 159.91 62.9693 164.27 62.9744 167.539 62.9488 170.492 65.0928 172.012 67.902 173.03 70.0256 175.01 71.6886 175.302 74.1345 175.86 77.2865 173.639 80.1213 171.106 81.6923 166.971 84.2661 161.721 85.269 156.993 83.954 154.138 82.8026 151.017 81.6667 147.901 82.3677 145.711 82.8333 144.375 84.962 144.053 87.0548 142.814 95.0271 146.376 102.979 144.784 110.931 150.306 107.753 152.849 101.346 158.17 97.9488 161.082 96.0556 164.879 96.6082 167.744 98.307 170.323 99.883 173.26 101.393 174.632 104.248 175.885 106.678 175.297 109.667 173.767 111.831 170.083 116.989 162.842 119.527 156.809 117.404 154.031 116.186 150.966 115.086 147.89 115.607 145.833 115.94 144.452 117.828 144.114 119.788 142.789 127.264 146.36 134.801 144.595 142.236 147.895 138.317 150.812 134.018 154.752 130.687 156.983 128.83 159.782 127.289 162.781 127.581 165.339 127.781 167.519 129.316 169.371 130.979 171.398 132.294 173.613 133.573 174.785 135.789 176.341 138.444 175.691 141.847 173.951 144.252 169.735 150.203 160.831 153.058 154.348 149.134 152.056 148.09 149.431 147.143 146.898 147.762 145.071 148.243 144.14 150.147 143.92 151.887 142.999 159.25 146.314 166.547 144.876 173.89 148.433 169.796 152.352 165.948 156.86 162.909 159.634 161.138 162.878 159.542 166.265 160.058 169.1 160.488 171.239 162.735 172.534 165.165 174.115 168.241 175.414 171.797 174.642 175.287 173.992 177.983 171.346 179.508 168.829 180.127 161.89 181.831 154.614 180.557 147.64 182.041 145.388 182.558 142.891 183.612 142.001 185.93 140.901 188.974 142.236 192.152 143.336 194.987 143.597 197.561 143.08 200.329 144.216 202.749 144.999 204.136 146.575 202.877 147.368 202.156 151.339 198.497 154.527 193.477 159.9 191.748 162.735 190.796 165.508 192.316 167.524 194.209 170.533 195.606 173.624 197.341 175.348 200.303 177.103 203.092 176.96 206.797 175.271 209.58 172.636 214.063 167.355 216.601 162.233 216.499 158.529 216.452 154.942 215.04 151.979 212.866 150.234 211.504 147.532 211.423 145.869 212.952 143.904 214.697 143.055 217.312 142.405 219.779 141.228 224.773 141.131 229.977 141.694 235.058 142.047 237.621 142.477 240.262 143.72 242.575 144.237 243.506 145.183 244.591 146.386 244.248 148.162 243.537 149.031 241.648 149.901 240.077 151.165 237.841 151.124 235.104 152.603 232.96 154.404 229.813 158.145 228.17 161.696 228.493 167.263 228.923 172.452 232.136 175.762 236.562 176.336 239.1 176.341 241.884 175.256 244.299 173.844 247.518 170.584 249.401 167.371 250.434 159.327 252.962 150.771 252.189 142.523 253.387 141.888 260.156 141.443 267.034 142.415 273.788 142.789 275.287 142.968 277.534 144.779 277.979 146.954 277.242 148.469 274.939 148.996 272.78 149.533 269.812 151.129 266.901 153.795 265.35 156.789 263.559 160.539 263.58 163.814 264.526 168.42 265.882 172.631 268.988 174.816 273.322 176.136 275.912 176.474 278.936 175.834 281.765 173.071 284.293 169.499 285.885 165.769 286.197 157.976 286.959 150.387 284.278 142.615 284.395 142.584 292.127 141.504 299.838 141.842 307.58 141.996 309.08 141.96 310.773 142.901 312.042 143.449 312.82 144.39 312.104 144.866 311.638 147.154 309.151 148.489 305.994 149.927 302.985 151.651 299.629 155.341 297.449 159.127 297.648 164.807 297.914 170.037 301.317 173.311 305.851 175.609 309.034 176.776 313.47 174.913 317.129 173.255 320.183 170.379 322.757 166.9 323.428 161.138 324.635 155.259 323.202 149.456 323.73 147.701 323.909 145.869 324.344 144.493 325.51 143.055 326.728 142.333 328.647 142.323 330.504 142.492 336.517 141.596 342.55 142.318 348.552 142.538 349.637 142.635 351.162 143.843 351.622 145.557 351.264 146.703 349.483 147.358 347.989 147.865 340.14 155.469 333.6 163.298 334.296 166.971 334.577 170.287 337.034 171.807 340.365 172.948 343.138 174.918 345.804 174.55 348.971 174.279 351.985 171.71 354.135 169.09 355.26 164.341 357.292 159.071 357.773 153.949 357.634 152.475 357.67 151.355 356.539 149.968 356.212 147.711 355.378 144.917 355.905 143.454 357.906 141.167 360.874 140.768 364.819 140.737 368.447 140.849 372.115 141.259 376.004 143.254 379.182 143.904 380.374 145.577 381.05 146.673 380.016 150.208 377.099 149.579 371.824 152.731 368.641 155.279 365.724 159.593 365.09 163.17 366.17 170.129 368.129 176.151 374.746 175.727 382.252 173.649 384.626 170.866 386.341 167.816 387.144 159.577 389.329 150.863 387.2 142.635 389.457 143.29 390.695 143.275 392.128 143.178 393.494 142.804 398.458 141.499 403.314 141.341 408.292 141.382 409.531 141.3 411.061 142.333 411.956 143.428 412.616 144.61 411.731 145.588 411.245 146.432 408.548 147.353 405.867 148.489 403.273 150.3 399.312 152.69 394.85 157.142 393.469 160.325 392.445 163.328 394.257 166.26 395.224 169.719 396.482 172.615 399.481 173.25 403.175 174.56 410.503 169.034 418.178 161.768 419.539 158.206 420.23 154.435 419.412 151.355 417.523 149.088 416.208 145.905 416.326 144.135 418.424 141.075 421.939 140.486 426.872 140.343 431.36 140.42 435.121 140.609 439.306 143.009 442.407 144.733 444.413 147.727 442.515 148.433 440.504 149.599 437.229 151.651 434.159 154.67 432.332 157.822 430.347 161.793 429.937 165.375 430.817 170.477 432.061 174.933 435.54 177.625 440.012 178.5 443.845 177.835 448.363 174.78 451.091 171.254 454.253 166.27 454.969 161.706 455.02 154.901 454.934 147.998 453.511 141.99 450.246 141.55 453.363 141.33 456.868 143.173 459.605 144.876 462.128 148.008 463.085 150.889 463.382 156.226 463.893 161.558 462.998 166.854 462.43 171.167 461.985 175.583 461.325 179.871 462.317 179.682 326.145 183.863 189.993 182.118 53.8253 170.379 53.1396 158.605 53.462 146.862 53.8662 145.726 58.2822 145.398 62.9795 145.107 67.5541M133.619 69.5497C134.868 69.9335 136.787 69.038 136.582 67.5643 135.993 66.9401 135.052 66.9401 134.3 66.6637 133.752 67.5285 133.42 68.5212 133.619 69.5497M159.711 68.7361C159.782 70.133 159.567 72.0007 160.928 72.8808 162.315 73.3465 163.538 72.0621 164.254 71.0234 164.833 70.22 165.308 68.7156 164.152 68.1835 162.668 67.6974 161.143 68.3575 159.711 68.7361M134.3 102.38C133.501 103.511 131.982 104.831 132.713 106.351 134.233 107.313 136.572 106.704 137.58 105.256 137.897 103.45 135.579 102.928 134.3 102.38M160.309 105.701C161.819 106.259 163.947 105.788 164.802 104.355 164.771 102.805 162.673 102.646 161.558 102.17 160.867 103.137 159.286 104.478 160.309 105.701M132.212 135.067C133.2 136.346 135.64 136.393 136.572 135.042 136.986 133.532 135.323 132.586 134.392 131.711 133.43 132.606 131.91 133.542 132.212 135.067M158.129 136.116C158.907 137.534 160.78 137.349 162.162 137.283 163.001 137.119 164.5 137.058 164.531 135.901 163.983 134.745 162.694 134.305 161.675 133.691 160.376 134.31 159.025 134.934 158.129 136.116M134.279 163.185C133.501 164.326 131.982 165.641 132.719 167.145 134.233 168.123 136.582 167.499 137.58 166.045 137.892 164.249 135.558 163.707 134.279 163.185M159.711 167.355C159.828 168.645 159.491 170.768 161.154 171.152 162.914 170.855 164.341 169.09 164.444 167.335 163.461 165.595 161.154 166.936 159.711 167.355M132.176 197.786C132.949 199.311 135.656 199.29 136.572 197.924 136.986 196.43 135.318 195.473 134.392 194.608 133.476 195.473 132.053 196.338 132.176 197.786M157.94 198.569C158.119 199.94 158.017 202.11 159.721 202.514 161.455 202.447 163.2 200.334 162.556 198.645 161.343 197.371 159.393 198.262 157.94 198.569M131.434 237.417C131.204 238.23 131.47 239.228 132.243 239.658 134.192 240.707 137.196 239.249 137.114 236.895 137.007 235.119 135.712 233.758 134.545 232.55 133.281 233.993 131.879 235.493 131.434 237.417M159.767 236.485C158.938 237.867 157.889 239.243 157.751 240.906 157.689 242.058 159.137 242.001 159.9 241.725 162.249 240.947 164.439 239.556 166.107 237.724 166.654 237.186 167.166 235.938 166.076 235.697 163.947 235.319 161.824 236.025 159.767 236.485M131.813 269.659C131.588 272.36 136.362 272.642 136.858 270.175 136.935 268.42 135.461 267.182 134.361 266.026 133.307 267.059 132.115 268.139 131.813 269.659M157.827 273.067C158.513 274.085 159.951 273.65 160.923 273.379 161.89 272.995 163.241 272.453 163.251 271.224 162.515 269.95 160.852 269.889 159.588 269.52 158.83 270.575 157.628 271.644 157.827 273.067M130.436 308.517C131.127 310.282 133.42 309.1 134.064 307.903 135.584 305.789 134.208 303.088 132.412 301.66 131.388 303.779 129.991 306.071 130.436 308.517M158.385 305.37C158.211 305.416 157.863 305.508 157.689 305.549 156.354 307.171 155.228 309.11 154.783 311.188 154.45 312.288 155.689 312.938 156.615 312.559 159.127 311.92 161.322 310.349 163.159 308.558 163.85 307.749 164.95 306.644 164.295 305.503 162.499 304.454 160.304 305.119 158.385 305.37M158.135 344.724C159.89 345.344 162.382 344.561 163.246 342.846 163.006 341.219 160.867 341.23 159.629 340.789 158.836 341.859 157.121 343.363 158.135 344.724M130.15 344.709C131.081 346.096 134.023 346.065 134.586 344.351 134.515 342.974 133.215 342.202 132.309 341.368 131.357 342.232 129.766 343.215 130.15 344.709M159.363 372.648C158.503 373.241 157.459 373.947 157.316 375.073 158.104 376.465 160.57 376.271 161.491 375.088 161.588 373.942 160.36 372.878 159.363 372.648M129.725 377.156C130.308 379.556 134.95 379.264 134.765 376.603 134.504 375.088 133.292 374.045 132.319 372.96 131.086 374.039 129.643 375.375 129.725 377.156M155.238 405.279C155.192 406.512 156.436 407.295 157.567 407.223 159.925 407.151 162.284 406.082 163.855 404.311 164.577 403.544 164.761 402.224 163.886 401.497 162.116 400.044 159.69 399.921 157.52 399.599 156.456 401.333 155.264 403.17 155.238 405.279M129.674 407.52C131.475 408.425 134.499 407.346 134.801 405.212 134.202 403.375 131.966 403.119 130.39 402.587 129.613 404.004 128.267 406.087 129.674 407.52M130.375 435.735C130.15 437.183 129.285 439.219 130.677 440.325 132.473 440.785 134.658 438.846 134.361 436.983 133.522 435.632 131.741 435.822 130.375 435.735M159.46 437.689C159.424 438.733 158.82 440.14 159.792 440.939 161.307 441.102 162.852 439.496 162.832 438.027 162.105 436.886 160.524 437.551 159.46 437.689Z" transform="matrix(1.00062 0 0 1 -101.733 0)"/><path d="M265.002 169.515C276.183 167.258 287.849 167.591 298.938 170.231 306.629 172.129 314.36 175.808 319.048 182.435 323.279 188.355 323.842 196.205 322.031 203.087 320.357 209.069 316.3 214.042 311.807 218.177 305.278 224.056 297.756 228.702 290.065 232.883 299.23 233.415 308.67 234.766 316.811 239.274 324.205 243.388 330.489 250.091 332.807 258.366 334.966 265.893 333.825 273.936 331.461 281.274 328.79 289.574 323.689 297.045 316.97 302.596 310.548 307.959 302.888 311.607 295.069 314.447 281.817 319.17 267.786 321.309 253.791 322.22 250.419 322.471 247.026 322.42 243.675 322.01 241.152 321.673 238.445 320.91 236.798 318.838 234.234 315.67 234.326 309.847 238.404 307.964 241.106 306.644 244.197 306.608 247.144 306.675 260.77 307.084 274.586 305.943 287.66 301.895 295.238 299.531 302.817 296.298 308.563 290.659 314.652 284.815 318.045 276.495 318.52 268.134 318.756 263.769 317.661 259.189 314.775 255.817 311.398 251.79 306.378 249.621 301.414 248.27 289.564 245.215 277.211 245.307 265.079 245.885 263.457 246.023 261.799 245.855 260.218 246.289 255.034 248.009 249.882 249.861 244.586 251.222 241.597 251.867 238.333 252.312 235.406 251.192 230.575 248.664 229.864 240.968 234.024 237.499 235.155 236.521 236.577 235.989 238.01 235.641 241.567 234.781 245.143 233.993 248.766 233.451 259.384 231.942 269.597 228.426 279.463 224.322 286.243 221.339 293.028 218.054 298.774 213.306 303.211 209.616 306.716 204.402 307.094 198.507 307.437 195.335 306.649 191.809 304.116 189.681 300.186 186.401 295.121 184.937 290.203 183.893 280.22 181.79 269.72 182.599 260.075 185.853 254.006 187.813 248.065 190.811 243.798 195.652 240.64 198.753 235.39 198.185 232.069 195.662 229.05 193.329 228.882 188.529 231.159 185.633 233.175 182.977 235.994 181.099 238.768 179.324 246.73 174.299 255.822 171.377 265.002 169.515Z" transform="matrix(1.00062 0 0 1 -101.733 0)"/><path d="M409.858 174.713C423.776 173.414 437.894 173.148 451.741 175.317 453.634 175.542 455.64 176.08 456.934 177.589 459.385 180.091 458.29 184.661 455.333 186.268 454.11 186.963 452.672 187.112 451.29 187.107 441.072 187.056 430.848 187.194 420.65 187.818 407.786 188.708 394.743 189.819 382.549 194.332 379.561 207.355 374.582 219.804 369.741 232.223 378.967 230.739 388.265 229.644 397.608 229.194 406.471 228.682 415.405 228.795 424.191 230.202 430.382 231.118 436.773 233.175 441.22 237.8 445.559 242.262 447.273 248.756 446.68 254.86 445.897 262.981 442.888 270.846 438.252 277.549 429.553 290.08 416.065 298.36 402.137 303.968 394.594 306.803 387.246 310.175 379.53 312.523 375.861 313.342 372.059 314.734 368.278 313.833 364.722 312.948 362.557 309.433 361.989 306.01 361.61 303.732 362.245 301.087 364.215 299.705 365.724 298.569 367.679 298.452 369.485 298.293 378.184 297.5 386.857 295.811 394.968 292.491 403.795 289.093 412.483 284.738 419.376 278.137 425.854 271.92 430.213 263.365 430.715 254.338 430.848 251.637 430.336 248.577 428.105 246.786 425.04 244.217 420.916 243.629 417.083 243.143 406.302 241.874 395.48 243.506 384.77 244.713 379.003 245.568 373.175 245.988 367.428 246.939 364.716 247.958 361.928 248.771 359.205 249.749 355.767 250.05 351.52 248.249 350.783 244.539 350.107 241.761 351.469 239.146 352.384 236.613 356.059 226.993 359.768 217.389 363.166 207.672 364.604 203.517 365.893 199.311 366.835 195.018 367.418 193.436 366.241 191.958 366.39 190.356 366.205 187.654 367.787 185.167 370.002 183.735 373.973 181.074 378.716 179.953 383.306 178.848 392.061 176.929 400.955 175.706 409.858 174.713Z" transform="matrix(1.00062 0 0 1 -101.733 0)"/><path d="M193.314 53.8816C290.346 55.0994 387.482 50.3202 484.433 56.1689 484.075 191.512 482.846 326.856 480.15 462.174 386.632 465.858 293.069 460.598 199.536 462.594 196.962 462.901 194.015 463.392 191.84 461.596 189.302 459.477 188.893 455.916 188.647 452.83 188.248 446.885 189.164 440.846 187.859 434.982 184.794 317.794 190.637 200.6 188.673 83.4116 188.688 80.5154 188.422 77.614 188.765 74.7332 189.22 69.6827 188.729 64.5044 190.146 59.5768 190.74 57.4583 191.84 55.5088 193.314 53.8816M265.002 169.515C255.822 171.377 246.73 174.299 238.768 179.324 235.994 181.099 233.175 182.977 231.159 185.633 228.882 188.529 229.05 193.329 232.069 195.662 235.39 198.185 240.64 198.753 243.798 195.652 248.065 190.811 254.006 187.813 260.075 185.853 269.72 182.599 280.22 181.79 290.203 183.893 295.121 184.937 300.186 186.401 304.116 189.681 306.649 191.809 307.437 195.335 307.094 198.507 306.716 204.402 303.211 209.616 298.774 213.306 293.028 218.054 286.243 221.339 279.463 224.322 269.597 228.426 259.384 231.942 248.766 233.451 245.143 233.993 241.567 234.781 238.01 235.641 236.577 235.989 235.155 236.521 234.024 237.499 229.864 240.968 230.575 248.664 235.406 251.192 238.333 252.312 241.597 251.867 244.586 251.222 249.882 249.861 255.034 248.009 260.218 246.289 261.799 245.855 263.457 246.023 265.079 245.885 277.211 245.307 289.564 245.215 301.414 248.27 306.378 249.621 311.398 251.79 314.775 255.817 317.661 259.189 318.756 263.769 318.52 268.134 318.045 276.495 314.652 284.815 308.563 290.659 302.817 296.298 295.238 299.531 287.66 301.895 274.586 305.943 260.77 307.084 247.144 306.675 244.197 306.608 241.106 306.644 238.404 307.964 234.326 309.847 234.234 315.67 236.798 318.838 238.445 320.91 241.152 321.673 243.675 322.01 247.026 322.42 250.419 322.471 253.791 322.22 267.786 321.309 281.817 319.17 295.069 314.447 302.888 311.607 310.548 307.959 316.97 302.596 323.689 297.045 328.79 289.574 331.461 281.274 333.825 273.936 334.966 265.893 332.807 258.366 330.489 250.091 324.205 243.388 316.811 239.274 308.67 234.766 299.23 233.415 290.065 232.883 297.756 228.702 305.278 224.056 311.807 218.177 316.3 214.042 320.357 209.069 322.031 203.087 323.842 196.205 323.279 188.355 319.048 182.435 314.36 175.808 306.629 172.129 298.938 170.231 287.849 167.591 276.183 167.258 265.002 169.515M409.858 174.713C400.955 175.706 392.061 176.929 383.306 178.848 378.716 179.953 373.973 181.074 370.002 183.735 367.787 185.167 366.205 187.654 366.39 190.356 366.241 191.958 367.418 193.436 366.835 195.018 365.893 199.311 364.604 203.517 363.166 207.672 359.768 217.389 356.059 226.993 352.384 236.613 351.469 239.146 350.107 241.761 350.783 244.539 351.52 248.249 355.767 250.05 359.205 249.749 361.928 248.771 364.716 247.958 367.428 246.939 373.175 245.988 379.003 245.568 384.77 244.713 395.48 243.506 406.302 241.874 417.083 243.143 420.916 243.629 425.04 244.217 428.105 246.786 430.336 248.577 430.848 251.637 430.715 254.338 430.213 263.365 425.854 271.92 419.376 278.137 412.483 284.738 403.795 289.093 394.968 292.491 386.857 295.811 378.184 297.5 369.485 298.293 367.679 298.452 365.724 298.569 364.215 299.705 362.245 301.087 361.61 303.732 361.989 306.01 362.557 309.433 364.722 312.948 368.278 313.833 372.059 314.734 375.861 313.342 379.53 312.523 387.246 310.175 394.594 306.803 402.137 303.968 416.065 298.36 429.553 290.08 438.252 277.549 442.888 270.846 445.897 262.981 446.68 254.86 447.273 248.756 445.559 242.262 441.22 237.8 436.773 233.175 430.382 231.118 424.191 230.202 415.405 228.795 406.471 228.682 397.608 229.194 388.265 229.644 378.967 230.739 369.741 232.223 374.582 219.804 379.561 207.355 382.549 194.332 394.743 189.819 407.786 188.708 420.65 187.818 430.848 187.194 441.072 187.056 451.29 187.107 452.672 187.112 454.11 186.963 455.333 186.268 458.29 184.661 459.385 180.091 456.934 177.589 455.64 176.08 453.634 175.542 451.741 175.317 437.894 173.148 423.776 173.414 409.858 174.713Z" fill="#FFFFFF" transform="matrix(1.00062 0 0 1 -101.733 0)"/><path d="M145.107 67.5541C145.398 62.9795 145.726 58.2822 146.862 53.8662 158.605 53.462 170.379 53.1396 182.118 53.8253 183.863 189.993 179.682 326.145 179.871 462.317 175.583 461.325 171.167 461.985 166.854 462.43 161.558 462.998 156.226 463.893 150.889 463.382 148.008 463.085 144.876 462.128 143.173 459.605 141.33 456.868 141.55 453.363 141.99 450.246 147.998 453.511 154.901 454.934 161.706 455.02 166.27 454.969 171.254 454.253 174.78 451.091 177.835 448.363 178.5 443.845 177.625 440.012 174.933 435.54 170.477 432.061 165.375 430.817 161.793 429.937 157.822 430.347 154.67 432.332 151.651 434.159 149.599 437.229 148.433 440.504 147.727 442.515 144.733 444.413 143.009 442.407 140.609 439.306 140.42 435.121 140.343 431.36 140.486 426.872 141.075 421.939 144.135 418.424 145.905 416.326 149.088 416.208 151.355 417.523 154.435 419.412 158.206 420.23 161.768 419.539 169.034 418.178 174.56 410.503 173.25 403.175 172.615 399.481 169.719 396.482 166.26 395.224 163.328 394.257 160.325 392.445 157.142 393.469 152.69 394.85 150.3 399.312 148.489 403.273 147.353 405.867 146.432 408.548 145.588 411.245 144.61 411.731 143.428 412.616 142.333 411.956 141.3 411.061 141.382 409.531 141.341 408.292 141.499 403.314 142.804 398.458 143.178 393.494 143.275 392.128 143.29 390.695 142.635 389.457 150.863 387.2 159.577 389.329 167.816 387.144 170.866 386.341 173.649 384.626 175.727 382.252 176.151 374.746 170.129 368.129 163.17 366.17 159.593 365.09 155.279 365.724 152.731 368.641 149.579 371.824 150.208 377.099 146.673 380.016 145.577 381.05 143.904 380.374 143.254 379.182 141.259 376.004 140.849 372.115 140.737 368.447 140.768 364.819 141.167 360.874 143.454 357.906 144.917 355.905 147.711 355.378 149.968 356.212 151.355 356.539 152.475 357.67 153.949 357.634 159.071 357.773 164.341 357.292 169.09 355.26 171.71 354.135 174.279 351.985 174.55 348.971 174.918 345.804 172.948 343.138 171.807 340.365 170.287 337.034 166.971 334.577 163.298 334.296 155.469 333.6 147.865 340.14 147.358 347.989 146.703 349.483 145.557 351.264 143.843 351.622 142.635 351.162 142.538 349.637 142.318 348.552 141.596 342.55 142.492 336.517 142.323 330.504 142.333 328.647 143.055 326.728 144.493 325.51 145.869 324.344 147.701 323.909 149.456 323.73 155.259 323.202 161.138 324.635 166.9 323.428 170.379 322.757 173.255 320.183 174.913 317.129 176.776 313.47 175.609 309.034 173.311 305.851 170.037 301.317 164.807 297.914 159.127 297.648 155.341 297.449 151.651 299.629 149.927 302.985 148.489 305.994 147.154 309.151 144.866 311.638 144.39 312.104 143.449 312.82 142.901 312.042 141.96 310.773 141.996 309.08 141.842 307.58 141.504 299.838 142.584 292.127 142.615 284.395 150.387 284.278 157.976 286.959 165.769 286.197 169.499 285.885 173.071 284.293 175.834 281.765 176.474 278.936 176.136 275.912 174.816 273.322 172.631 268.988 168.42 265.882 163.814 264.526 160.539 263.58 156.789 263.559 153.795 265.35 151.129 266.901 149.533 269.812 148.996 272.78 148.469 274.939 146.954 277.242 144.779 277.979 142.968 277.534 142.789 275.287 142.415 273.788 141.443 267.034 141.888 260.156 142.523 253.387 150.771 252.189 159.327 252.962 167.371 250.434 170.584 249.401 173.844 247.518 175.256 244.299 176.341 241.884 176.336 239.1 175.762 236.562 172.452 232.136 167.263 228.923 161.696 228.493 158.145 228.17 154.404 229.813 152.603 232.96 151.124 235.104 151.165 237.841 149.901 240.077 149.031 241.648 148.162 243.537 146.386 244.248 145.183 244.591 144.237 243.506 143.72 242.575 142.477 240.262 142.047 237.621 141.694 235.058 141.131 229.977 141.228 224.773 142.405 219.779 143.055 217.312 143.904 214.697 145.869 212.952 147.532 211.423 150.234 211.504 151.979 212.866 154.942 215.04 158.529 216.452 162.233 216.499 167.355 216.601 172.636 214.063 175.271 209.58 176.96 206.797 177.103 203.092 175.348 200.303 173.624 197.341 170.533 195.606 167.524 194.209 165.508 192.316 162.735 190.796 159.9 191.748 154.527 193.477 151.339 198.497 147.368 202.156 146.575 202.877 144.999 204.136 144.216 202.749 143.08 200.329 143.597 197.561 143.336 194.987 142.236 192.152 140.901 188.974 142.001 185.93 142.891 183.612 145.388 182.558 147.64 182.041 154.614 180.557 161.89 181.831 168.829 180.127 171.346 179.508 173.992 177.983 174.642 175.287 175.414 171.797 174.115 168.241 172.534 165.165 171.239 162.735 169.1 160.488 166.265 160.058 162.878 159.542 159.634 161.138 156.86 162.909 152.352 165.948 148.433 169.796 144.876 173.89 146.314 166.547 142.999 159.25 143.92 151.887 144.14 150.147 145.071 148.243 146.898 147.762 149.431 147.143 152.056 148.09 154.348 149.134 160.831 153.058 169.735 150.203 173.951 144.252 175.691 141.847 176.341 138.444 174.785 135.789 173.613 133.573 171.398 132.294 169.371 130.979 167.519 129.316 165.339 127.781 162.781 127.581 159.782 127.289 156.983 128.83 154.752 130.687 150.812 134.018 147.895 138.317 144.595 142.236 146.36 134.801 142.789 127.264 144.114 119.788 144.452 117.828 145.833 115.94 147.89 115.607 150.966 115.086 154.031 116.186 156.809 117.404 162.842 119.527 170.083 116.989 173.767 111.831 175.297 109.667 175.885 106.678 174.632 104.248 173.26 101.393 170.323 99.883 167.744 98.307 164.879 96.6082 161.082 96.0556 158.17 97.9488 152.849 101.346 150.306 107.753 144.784 110.931 146.376 102.979 142.814 95.0271 144.053 87.0548 144.375 84.962 145.711 82.8333 147.901 82.3677 151.017 81.6667 154.138 82.8026 156.993 83.954 161.721 85.269 166.971 84.2661 171.106 81.6923 173.639 80.1213 175.86 77.2865 175.302 74.1345 175.01 71.6886 173.03 70.0256 172.012 67.902 170.492 65.0928 167.539 62.9488 164.27 62.9744 159.91 62.9693 156.011 65.6045 153.227 68.7771 151.227 70.9159 150.316 74.0015 147.783 75.6491 147.01 76.3092 145.971 75.6952 145.736 74.8406 144.902 72.5124 145.061 69.9846 145.107 67.5541Z" fill="#FFFFFF" transform="matrix(1.00062 0 0 1 -101.733 0)"/><path d="M133.619 69.5497C133.42 68.5212 133.752 67.5285 134.3 66.6637 135.052 66.9401 135.993 66.9401 136.582 67.5643 136.787 69.038 134.868 69.9335 133.619 69.5497Z" fill="#FFFFFF" transform="matrix(1.00062 0 0 1 -101.733 0)"/><path d="M159.711 68.7361C161.143 68.3575 162.668 67.6974 164.152 68.1835 165.308 68.7156 164.833 70.22 164.254 71.0234 163.538 72.0621 162.315 73.3465 160.928 72.8808 159.567 72.0007 159.782 70.133 159.711 68.7361Z" fill="#FFFFFF" transform="matrix(1.00062 0 0 1 -101.733 0)"/><path d="M134.3 102.38C135.579 102.928 137.897 103.45 137.58 105.256 136.572 106.704 134.233 107.313 132.713 106.351 131.982 104.831 133.501 103.511 134.3 102.38Z" fill="#FFFFFF" transform="matrix(1.00062 0 0 1 -101.733 0)"/><path d="M160.309 105.701C159.286 104.478 160.867 103.137 161.558 102.17 162.673 102.646 164.771 102.805 164.802 104.355 163.947 105.788 161.819 106.259 160.309 105.701Z" fill="#FFFFFF" transform="matrix(1.00062 0 0 1 -101.733 0)"/><path d="M132.212 135.067C131.91 133.542 133.43 132.606 134.392 131.711 135.323 132.586 136.986 133.532 136.572 135.042 135.64 136.393 133.2 136.346 132.212 135.067Z" fill="#FFFFFF" transform="matrix(1.00062 0 0 1 -101.733 0)"/><path d="M158.129 136.116C159.025 134.934 160.376 134.31 161.675 133.691 162.694 134.305 163.983 134.745 164.531 135.901 164.5 137.058 163.001 137.119 162.162 137.283 160.78 137.349 158.907 137.534 158.129 136.116Z" fill="#FFFFFF" transform="matrix(1.00062 0 0 1 -101.733 0)"/><path d="M134.279 163.185C135.558 163.707 137.892 164.249 137.58 166.045 136.582 167.499 134.233 168.123 132.719 167.145 131.982 165.641 133.501 164.326 134.279 163.185Z" fill="#FFFFFF" transform="matrix(1.00062 0 0 1 -101.733 0)"/><path d="M159.711 167.355C161.154 166.936 163.461 165.595 164.444 167.335 164.341 169.09 162.914 170.855 161.154 171.152 159.491 170.768 159.828 168.645 159.711 167.355Z" fill="#FFFFFF" transform="matrix(1.00062 0 0 1 -101.733 0)"/><path d="M132.176 197.786C132.053 196.338 133.476 195.473 134.392 194.608 135.318 195.473 136.986 196.43 136.572 197.924 135.656 199.29 132.949 199.311 132.176 197.786Z" fill="#FFFFFF" transform="matrix(1.00062 0 0 1 -101.733 0)"/><path d="M157.94 198.569C159.393 198.262 161.343 197.371 162.556 198.645 163.2 200.334 161.455 202.447 159.721 202.514 158.017 202.11 158.119 199.94 157.94 198.569Z" fill="#FFFFFF" transform="matrix(1.00062 0 0 1 -101.733 0)"/><path d="M131.434 237.417C131.879 235.493 133.281 233.993 134.545 232.55 135.712 233.758 137.007 235.119 137.114 236.895 137.196 239.249 134.192 240.707 132.243 239.658 131.47 239.228 131.204 238.23 131.434 237.417Z" fill="#FFFFFF" transform="matrix(1.00062 0 0 1 -101.733 0)"/><path d="M159.767 236.485C161.824 236.025 163.947 235.319 166.076 235.697 167.166 235.938 166.654 237.186 166.107 237.724 164.439 239.556 162.249 240.947 159.9 241.725 159.137 242.001 157.689 242.058 157.751 240.906 157.889 239.243 158.938 237.867 159.767 236.485Z" fill="#FFFFFF" transform="matrix(1.00062 0 0 1 -101.733 0)"/><path d="M131.813 269.659C132.115 268.139 133.307 267.059 134.361 266.026 135.461 267.182 136.935 268.42 136.858 270.175 136.362 272.642 131.588 272.36 131.813 269.659Z" fill="#FFFFFF" transform="matrix(1.00062 0 0 1 -101.733 0)"/><path d="M157.827 273.067C157.628 271.644 158.83 270.575 159.588 269.52 160.852 269.889 162.515 269.95 163.251 271.224 163.241 272.453 161.89 272.995 160.923 273.379 159.951 273.65 158.513 274.085 157.827 273.067Z" fill="#FFFFFF" transform="matrix(1.00062 0 0 1 -101.733 0)"/><path d="M130.436 308.517C129.991 306.071 131.388 303.779 132.412 301.66 134.208 303.088 135.584 305.789 134.064 307.903 133.42 309.1 131.127 310.282 130.436 308.517Z" fill="#FFFFFF" transform="matrix(1.00062 0 0 1 -101.733 0)"/><path d="M158.385 305.37C160.304 305.119 162.499 304.454 164.295 305.503 164.95 306.644 163.85 307.749 163.159 308.558 161.322 310.349 159.127 311.92 156.615 312.559 155.689 312.938 154.45 312.288 154.783 311.188 155.228 309.11 156.354 307.171 157.689 305.549 157.863 305.508 158.211 305.416 158.385 305.37Z" fill="#FFFFFF" transform="matrix(1.00062 0 0 1 -101.733 0)"/><path d="M158.135 344.724C157.121 343.363 158.836 341.859 159.629 340.789 160.867 341.23 163.006 341.219 163.246 342.846 162.382 344.561 159.89 345.344 158.135 344.724Z" fill="#FFFFFF" transform="matrix(1.00062 0 0 1 -101.733 0)"/><path d="M130.15 344.709C129.766 343.215 131.357 342.232 132.309 341.368 133.215 342.202 134.515 342.974 134.586 344.351 134.023 346.065 131.081 346.096 130.15 344.709Z" fill="#FFFFFF" transform="matrix(1.00062 0 0 1 -101.733 0)"/><path d="M159.363 372.648C160.36 372.878 161.588 373.942 161.491 375.088 160.57 376.271 158.104 376.465 157.316 375.073 157.459 373.947 158.503 373.241 159.363 372.648Z" fill="#FFFFFF" transform="matrix(1.00062 0 0 1 -101.733 0)"/><path d="M129.725 377.156C129.643 375.375 131.086 374.039 132.319 372.96 133.292 374.045 134.504 375.088 134.765 376.603 134.95 379.264 130.308 379.556 129.725 377.156Z" fill="#FFFFFF" transform="matrix(1.00062 0 0 1 -101.733 0)"/><path d="M155.238 405.279C155.264 403.17 156.456 401.333 157.52 399.599 159.69 399.921 162.116 400.044 163.886 401.497 164.761 402.224 164.577 403.544 163.855 404.311 162.284 406.082 159.925 407.151 157.567 407.223 156.436 407.295 155.192 406.512 155.238 405.279Z" fill="#FFFFFF" transform="matrix(1.00062 0 0 1 -101.733 0)"/><path d="M129.674 407.52C128.267 406.087 129.613 404.004 130.39 402.587 131.966 403.119 134.202 403.375 134.801 405.212 134.499 407.346 131.475 408.425 129.674 407.52Z" fill="#FFFFFF" transform="matrix(1.00062 0 0 1 -101.733 0)"/><path d="M130.375 435.735C131.741 435.822 133.522 435.632 134.361 436.983 134.658 438.846 132.473 440.785 130.677 440.325 129.285 439.219 130.15 437.183 130.375 435.735Z" fill="#FFFFFF" transform="matrix(1.00062 0 0 1 -101.733 0)"/><path d="M159.46 437.689C160.524 437.551 162.105 436.886 162.832 438.027 162.852 439.496 161.307 441.102 159.792 440.939 158.82 440.14 159.424 438.733 159.46 437.689Z" fill="#FFFFFF" transform="matrix(1.00062 0 0 1 -101.733 0)"/></g></svg>