<svg width="428" height="518" xmlns="http://www.w3.org/2000/svg" xmlns:xlink="http://www.w3.org/1999/xlink" xml:space="preserve" overflow="hidden"><defs><clipPath id="clip0"><rect x="0" y="0" width="422" height="518"/></clipPath></defs><g clip-path="url(#clip0)"><path d="M139.06 45.0575C255.514 49.6518 372.08 48.3238 488.596 48.9954 491.18 125.872 488.24 202.774 486.327 279.63 484.785 341.045 483.793 402.546 486.922 463.93 369.603 467.471 252.202 465.757 134.877 463.259 136.078 460.292 136.327 456.97 135.462 453.887 134.012 448.234 130.4 443.426 128.92 437.789 128.024 434.391 128.563 430.315 131.255 427.853 133.224 426.031 134.984 423.589 134.888 420.786 134.76 417.601 132.664 414.981 130.665 412.681 128.273 409.837 125.221 407.329 123.969 403.721 123.094 401.228 124.463 398.649 126.325 397.031 128.116 395.164 130.843 394.548 132.506 392.538 133.743 391.17 134.028 389.155 133.412 387.445 131.713 382.612 127.256 379.224 125.984 374.202 125.272 371.49 127.022 368.911 129.21 367.491 131.947 365.69 134.19 362.576 133.626 359.147 132.674 353.103 127.76 348.631 126.452 342.703 126.004 340.648 126.381 338.419 127.602 336.695 128.507 335.265 129.957 334.349 131.173 333.215 133.402 330.813 134.425 327.364 133.875 324.133 132.735 316.99 127.312 311.383 126.157 304.25 125.531 300.678 127.18 297.035 129.932 294.776 132.7 292.624 134.201 288.936 133.544 285.466 132.44 279.34 127.704 274.669 126.248 268.671 125.506 265.868 126.355 262.784 128.355 260.703 130.309 258.368 133.524 257.351 135.02 254.593 135.956 253.011 135.635 251.001 134.623 249.546 131.692 245.221 126.584 242.805 124.066 238.154 122.377 235.153 124.045 231.276 126.864 229.643 131.27 226.977 134.577 222.403 135.289 217.259 136.271 210.711 133.758 204.081 129.8 198.938 129.169 198.047 128.243 197.345 127.805 196.343 129.164 190.863 133.336 186.615 134.928 181.227 135.554 179.141 135.259 176.704 133.738 175.071 132.11 173.021 129.306 172.481 127.658 170.461 125.78 168.599 124.564 165.791 125.495 163.171 127.347 157.976 132.557 154.984 134.852 150.049 135.722 148.228 135.635 145.984 134.521 144.29 133.036 141.761 130.1 140.55 128.609 138.027 127.51 136.348 127.276 134.185 127.917 132.288 129.459 127.49 133.895 124.29 135.447 119.507 136.287 116.989 134.516 114.526 132.4 113.325 129.688 111.758 126.94 109.871 125.49 106.996 124.412 104.915 124.737 102.392 125.77 100.362 128.375 95.2282 133.265 91.6209 135.569 86.3042 136.673 83.8315 136.622 80.8552 135.228 78.5097 133.982 76.2456 131.723 74.6582 130.827 72.1805 129.779 69.7536 130.166 66.9604 131.224 64.6099 133.351 59.8375 137.101 55.8996 138.658 50.8576 139.278 48.9903 139.278 46.9959 139.06 45.0575M192.954 53.086C188.518 58.011 188.9 65.0423 188.65 71.2189 188.045 77.66 188.528 84.1266 188.528 90.5881 190.095 204.392 184.616 318.196 187.592 431.989 189.078 438.68 187.663 445.579 188.65 452.325 188.996 454.503 189.668 456.812 191.382 458.318 193.026 459.758 195.371 459.967 197.452 459.636 199.457 459.336 201.487 459.407 203.507 459.361 295.072 457.621 386.672 462.638 478.217 459.031 480.898 324.484 482.119 189.912 482.475 55.345 386.056 49.5296 289.455 54.2562 192.954 53.086M146.712 53.03C145.607 59.3745 144.615 65.8665 145.282 72.3077 145.409 73.4117 146.009 75.4621 147.485 74.8414 150.136 73.3507 151.057 70.2166 153.01 68.0492 155.834 64.7523 159.879 61.9998 164.381 62.1168 167.5 62.1779 170.283 64.2283 171.769 66.8943 172.914 69.1889 175.076 71.0561 175.178 73.7781 175.396 77.0342 172.883 79.6646 170.232 81.1503 166.157 83.3838 161.141 84.2843 156.648 82.8699 153.829 81.7201 150.695 80.6568 147.638 81.4504 145.404 82.0406 144.229 84.3352 143.964 86.4721 142.947 94.2768 146.32 102.046 144.763 109.815 149.428 107.027 152.049 102.066 155.966 98.4589 157.803 96.7443 160.245 95.4673 162.825 95.6963 166.31 95.9812 169.235 98.1537 171.988 100.118 174.755 102.173 176.048 106.126 174.379 109.276 170.97 115.92 161.827 118.963 155.137 115.569 152.598 114.602 149.708 113.788 147.037 114.684 145.043 115.406 144.137 117.594 143.934 119.558 143.15 126.696 146.137 133.804 144.656 140.911 147.846 136.923 150.833 132.695 154.75 129.372 157.253 127.261 160.616 125.658 163.944 126.564 166.91 127.241 168.843 129.759 171.423 131.168 174.603 133.092 176.516 137.223 174.913 140.779 171.662 148.177 161.502 152.028 154.384 147.836 152.125 146.773 149.561 145.862 147.042 146.36 145.104 146.778 144.091 148.782 143.888 150.604 142.997 157.889 146.325 165.129 144.829 172.385 148.441 168.319 152.334 164.412 156.887 161.395 159.68 159.624 162.992 158.042 166.386 158.688 169.556 159.309 171.693 162.097 172.949 164.89 174.236 167.806 175.325 171.189 174.267 174.343 173.3 177.04 170.395 178.266 167.795 178.8 161.217 180.138 154.404 179.126 147.816 180.444 145.429 180.952 142.723 182.082 141.909 184.611 140.967 187.602 142.295 190.634 143.323 193.412 143.511 195.666 143.237 197.976 143.832 200.194 144.04 200.779 144.264 201.558 144.972 201.716 145.989 201.751 146.762 200.952 147.49 200.352 150.69 197.294 153.377 193.611 157.208 191.281 159.253 190.009 161.909 189.373 164.188 190.4 165.806 191.016 166.859 192.527 168.472 193.153 171.342 194.466 174.114 196.44 175.529 199.345 176.882 201.965 176.607 205.211 175.152 207.729 172.965 211.611 168.732 214.079 164.371 214.623 160.036 215.214 155.6 213.82 152.1 211.271 150.497 209.968 148.029 209.648 146.299 210.884 144.203 212.385 143.272 214.954 142.575 217.335 141.151 222.835 141.074 228.625 141.827 234.237 142.244 236.669 142.692 239.223 144.112 241.304 144.687 242.204 145.948 242.8 146.91 242.092 148.696 240.851 149.606 238.745 150.477 236.827 151.143 234.751 151.479 232.512 152.802 230.706 154.689 227.77 158.332 226.361 161.736 226.687 167.175 227.16 172.171 230.304 175.488 234.552 176.399 237.859 176.053 241.782 173.763 244.479 171.632 246.992 168.436 248.249 165.323 249.042 157.859 250.859 150.115 250.406 142.545 251.383 141.883 257.463 141.603 263.609 142.133 269.709 142.402 271.658 142.534 273.825 143.812 275.417 144.524 276.252 145.689 275.692 146.315 275.051 147.531 273.81 148.711 272.36 148.986 270.589 149.515 267.74 151.046 264.972 153.56 263.425 156.47 261.604 160.159 261.548 163.394 262.428 168.029 263.71 172.288 266.778 174.537 271.088 175.854 273.688 176.445 276.878 175.519 279.681 172.685 282.464 168.726 283.909 164.799 284.128 157.335 284.611 150.069 282.184 142.616 282.245 142.621 290.625 141.201 299.009 142.046 307.379 142.138 308.508 142.809 310.91 144.346 309.765 147.078 307.318 148.365 303.736 149.998 300.541 151.769 297.244 155.488 295.189 159.228 295.453 164.931 295.804 170.161 299.289 173.351 303.929 175.564 307.119 176.541 311.551 174.577 315.097 172.914 317.951 170.202 320.368 166.895 321.045 162.194 322.078 157.365 321.279 152.608 321.258 150.187 321.258 147.612 321.299 145.429 322.485 143.404 323.558 142.306 325.893 142.316 328.127 142.489 334.258 141.532 340.424 142.387 346.529 142.56 347.537 143.033 349.592 144.478 348.956 145.984 347.944 147.398 346.346 147.5 344.454 148.391 337.351 155.244 331.699 162.336 331.831 165.19 331.872 168.029 333.113 169.897 335.291 171.438 336.934 172.084 339.132 173.122 341.086 174.348 343.4 174.979 346.346 173.662 348.763 172.379 351.114 169.876 352.462 167.439 353.322 162.819 354.873 157.849 355.352 153.005 354.996 150.711 353.937 148.095 352.589 145.557 353.713 142.616 355.077 141.553 358.521 141.044 361.477 140.413 366.123 140.688 371.048 142.585 375.382 143.17 376.715 144.519 378.476 146.162 377.646 148.248 376.283 149.24 373.775 149.912 371.475 150.639 368.412 152.43 365.395 155.361 364.011 158.739 362.388 162.753 363.08 165.994 364.703 170.889 367.16 174.954 371.907 175.483 377.499 175.498 378.359 175.798 379.453 175.025 380.089 172.751 382.566 169.591 384.093 166.325 384.749 158.52 386.367 150.39 384.637 142.651 386.703 143.008 387.654 143.293 388.656 143.211 389.694 143.013 395.174 141.369 400.511 141.344 406.006 141.405 407.201 141.466 409.033 142.947 409.333 144.102 409.262 145.618 408.804 145.847 407.491 147.551 402.449 149.291 397.143 153.031 393.2 155.264 390.747 158.932 389.72 162.066 390.946 164.437 391.958 167.063 392.508 169.139 394.121 171.616 395.922 173.158 398.893 173.26 401.956 173.489 407.919 169.566 413.744 164.046 415.937 159.991 417.58 155.234 416.99 151.52 414.757 149.591 413.632 146.981 413.297 145.094 414.68 142.763 416.395 141.726 419.285 141.069 421.992 140.062 426.769 139.991 431.857 141.461 436.548 142.031 438.145 142.982 440.247 144.961 440.267 146.666 440.002 148.09 438.624 148.594 436.995 149.815 433.663 152.11 430.641 155.279 428.957 158.658 427.13 162.774 427.008 166.391 428.168 170.985 429.644 174.989 432.895 177.432 437.046 178.271 440.806 177.635 445.212 174.684 447.924 171.235 451.094 166.305 451.842 161.792 451.918 154.954 451.867 148.019 450.437 141.975 447.171 141.568 450.244 141.334 453.663 143.099 456.385 144.707 458.858 147.719 459.87 150.517 460.196 155.753 460.771 160.993 459.906 166.188 459.341 170.65 458.873 175.208 458.176 179.655 459.158 179.462 323.772 183.613 188.401 181.894 53.0148 170.176 52.2974 158.434 52.6892 146.712 53.03M133.778 68.5936C134.882 69.1125 136.276 68.2018 136.668 67.1436 136.638 65.9429 135.005 66.0904 134.18 65.8157 133.977 66.7111 133.239 67.6829 133.778 68.5936M159.594 67.8253C159.68 69.199 159.477 70.934 160.688 71.8905 161.985 72.501 163.242 71.3054 163.964 70.3336 164.57 69.5348 165.226 68.0797 164.173 67.3573 162.672 66.7315 161.064 67.4743 159.594 67.8253M161.385 101.079C160.779 102.056 159.095 103.516 160.291 104.625 161.771 105.129 163.801 104.646 164.656 103.277 164.671 101.71 162.535 101.537 161.385 101.079M132.852 105.307C134.419 106.152 137.055 105.567 137.696 103.786 137.452 102.209 135.554 101.852 134.348 101.262 133.595 102.402 131.891 103.847 132.852 105.307M132.277 133.753C133.198 135.122 135.625 135.03 136.628 133.799 136.984 132.252 135.381 131.336 134.425 130.436 133.524 131.341 131.952 132.267 132.277 133.753M158.174 134.943C158.602 136.119 160.23 135.961 161.252 136.042 162.331 135.936 163.918 135.986 164.407 134.796 164.076 133.519 162.611 133.117 161.654 132.415 160.413 133.066 158.719 133.514 158.174 134.943M134.358 161.715C133.585 162.845 131.937 164.254 132.827 165.714 134.358 166.64 136.912 166.02 137.671 164.356 137.62 162.702 135.574 162.316 134.358 161.715M159.609 165.852C159.721 167.139 159.4 168.93 160.779 169.647 162.687 169.612 164.671 167.348 164.122 165.47 162.794 164.417 161.029 165.496 159.609 165.852M132.517 196.658C133.677 197.533 135.686 197.528 136.622 196.323 136.994 194.781 135.366 193.865 134.419 192.97 133.478 193.901 131.519 195.147 132.517 196.658M157.844 196.908C158.017 198.246 157.92 200.037 159.278 200.795 161.105 201.09 162.672 199.065 162.626 197.371 161.721 195.565 159.329 196.638 157.844 196.908M134.557 230.711C133.158 232.456 131.092 234.384 131.519 236.832 132.746 239.421 137.319 237.793 137.131 235.071 137.055 233.285 135.752 231.902 134.557 230.711M161.868 234.099C160.81 234.354 159.446 234.395 159.029 235.611 158.373 236.847 157.33 238.241 157.818 239.696 158.052 239.772 158.515 239.925 158.749 240.001 161.258 239.701 163.45 238.16 165.323 236.547 165.908 235.895 167.007 234.99 166.406 234.038 164.961 233.397 163.349 233.865 161.868 234.099M131.998 268.62C133.041 270.325 136.368 270.218 136.892 268.142 136.974 266.412 135.513 265.216 134.496 264.021 133.147 265.115 131.474 266.707 131.998 268.62M159.38 267.674C158.576 268.585 156.877 270.416 158.23 271.464 159.96 271.871 162.819 271.139 163.125 269.119 162.306 268.035 160.616 267.501 159.38 267.674M132.445 299.437C131.53 301.284 130.497 303.181 130.385 305.283 130.283 306.137 130.731 307.17 131.718 307.196 133.778 306.931 135.203 304.591 134.643 302.622 134.358 301.309 133.366 300.337 132.445 299.437M157.386 303.354C156.317 305.247 154.832 307.074 154.674 309.328 154.725 310.498 156.119 310.462 156.938 310.172 159.533 309.297 161.899 307.664 163.659 305.563 164.28 304.855 164.86 303.421 163.664 302.968 161.604 302.367 159.426 302.907 157.386 303.354M159.436 338.358C158.734 339.483 157.182 340.755 157.935 342.2 159.243 342.876 160.805 342.276 162.016 341.63 162.57 341.269 163.359 340.663 163.064 339.905 162.224 338.776 160.693 338.679 159.436 338.358M130.512 342.647C131.733 343.462 133.962 343.472 134.643 341.956 134.592 340.536 133.259 339.747 132.333 338.893 131.377 339.803 129.321 341.182 130.512 342.647M157.228 372.431C158.017 373.81 160.489 373.652 161.359 372.421 161.548 371.215 160.194 370.6 159.487 369.872 158.586 370.554 157.37 371.185 157.228 372.431M129.795 374.405C130.202 376.69 134.358 376.7 134.791 374.416 134.867 372.676 133.397 371.455 132.303 370.305 131.194 371.439 129.739 372.671 129.795 374.405M157.36 396.838C156.394 398.593 155.167 400.374 155.162 402.46 155.137 403.538 156.124 404.352 157.157 404.373 159.426 404.469 161.67 403.457 163.323 401.946 164.168 401.203 164.814 399.778 163.888 398.842 162.148 397.234 159.594 397.122 157.36 396.838M130.354 399.814C129.749 401.254 128.365 403.187 129.673 404.627 131.428 405.644 134.465 404.556 134.847 402.454 134.292 400.567 131.987 400.262 130.354 399.814M130.481 432.696C130.207 434.162 129.321 436.268 130.807 437.352 132.527 437.667 134.221 436.085 134.496 434.447 134.14 432.63 131.87 432.864 130.481 432.696M159.38 434.63C159.283 435.668 158.866 436.833 159.482 437.799 161.029 438.369 163.12 436.288 162.57 434.731 161.609 434.085 160.428 434.533 159.38 434.63Z" transform="matrix(1 0 0 1.0011 -101.042 0)"/><path d="M359.605 177.956C362.602 177.187 365.609 178.709 367.852 180.601 369.974 182.331 371.79 184.88 371.551 187.75 371.17 189.729 369.674 191.276 369.257 193.25 368.366 196.918 368.656 200.734 368.504 204.478 368.32 223.288 368.209 242.097 368.392 260.907 375.728 259.462 383.095 258.165 390.498 257.106 391.785 256.048 392.06 254.023 393.495 253.001 395.332 251.434 398.048 252.217 399.86 253.433 402.795 255.478 405.273 258.821 404.983 262.561 404.886 265.013 403.462 267.389 401.223 268.457 398.603 269.724 395.672 270.106 392.828 270.533 384.983 271.495 377.112 272.243 369.277 273.286 370.025 283.13 371.251 292.945 373.042 302.657 374.11 308.6 375.632 314.492 376.09 320.531 376.008 325.425 370.88 328.829 366.326 328.849 363.981 328.997 362.052 327.272 361.025 325.324 359.025 321.645 358.303 317.453 357.611 313.377 355.738 301.04 354.767 288.59 353.846 276.15 331.052 280.459 308.697 286.738 286.031 291.632 282.281 292.395 278.536 293.265 274.72 293.647 272.253 293.906 270.172 292.258 268.422 290.737 266.499 289.078 264.86 286.6 265.425 283.95 266.025 280.739 268.859 278.796 271.022 276.638 284.214 263.527 296.318 249.363 309.684 236.419 323.731 222.184 336.064 206.396 348.849 191.057 351.231 188.167 354.014 185.547 355.733 182.179 356.68 180.53 357.56 178.444 359.605 177.956M329.521 233.865C316.511 247.791 303.329 261.558 290.508 275.662 298.745 273.713 307.15 272.578 315.377 270.569 327.832 267.745 340.429 265.608 352.93 263.008 352.706 259.63 352.482 256.252 352.462 252.868 352.436 237.992 352.762 223.12 353.057 208.253 345.268 216.842 337.422 225.379 329.521 233.865Z" transform="matrix(1 0 0 1.0011 -101.042 0)"/><path d="M192.954 53.086C289.455 54.2562 386.056 49.5296 482.475 55.345 482.119 189.912 480.898 324.484 478.217 459.031 386.672 462.638 295.072 457.621 203.507 459.361 201.487 459.407 199.457 459.336 197.452 459.636 195.371 459.967 193.026 459.758 191.382 458.318 189.668 456.812 188.996 454.503 188.65 452.325 187.663 445.579 189.078 438.68 187.592 431.989 184.616 318.196 190.095 204.392 188.528 90.5881 188.528 84.1266 188.045 77.66 188.65 71.2189 188.9 65.0423 188.518 58.011 192.954 53.086M359.605 177.956C357.56 178.444 356.68 180.53 355.733 182.179 354.014 185.547 351.231 188.167 348.849 191.057 336.064 206.396 323.731 222.184 309.684 236.419 296.318 249.363 284.214 263.527 271.022 276.638 268.859 278.796 266.025 280.739 265.425 283.95 264.86 286.6 266.499 289.078 268.422 290.737 270.172 292.258 272.253 293.906 274.72 293.647 278.536 293.265 282.281 292.395 286.031 291.632 308.697 286.738 331.052 280.459 353.846 276.15 354.767 288.59 355.738 301.04 357.611 313.377 358.303 317.453 359.025 321.645 361.025 325.324 362.052 327.272 363.981 328.997 366.326 328.849 370.88 328.829 376.008 325.425 376.09 320.531 375.632 314.492 374.11 308.6 373.042 302.657 371.251 292.945 370.025 283.13 369.277 273.286 377.112 272.243 384.983 271.495 392.828 270.533 395.672 270.106 398.603 269.724 401.223 268.457 403.462 267.389 404.886 265.013 404.983 262.561 405.273 258.821 402.795 255.478 399.86 253.433 398.048 252.217 395.332 251.434 393.495 253.001 392.06 254.023 391.785 256.048 390.498 257.106 383.095 258.165 375.728 259.462 368.392 260.907 368.209 242.097 368.32 223.288 368.504 204.478 368.656 200.734 368.366 196.918 369.257 193.25 369.674 191.276 371.17 189.729 371.551 187.75 371.79 184.88 369.974 182.331 367.852 180.601 365.609 178.709 362.602 177.187 359.605 177.956Z" fill="#FFFFFF" transform="matrix(1 0 0 1.0011 -101.042 0)"/><path d="M146.712 53.03C158.434 52.6892 170.176 52.2974 181.894 53.0148 183.613 188.401 179.462 323.772 179.655 459.158 175.208 458.176 170.65 458.873 166.188 459.341 160.993 459.906 155.753 460.771 150.517 460.196 147.719 459.87 144.707 458.858 143.099 456.385 141.334 453.663 141.568 450.244 141.975 447.171 148.019 450.437 154.954 451.867 161.792 451.918 166.305 451.842 171.235 451.094 174.684 447.924 177.635 445.212 178.271 440.806 177.432 437.046 174.989 432.895 170.985 429.644 166.391 428.168 162.774 427.008 158.658 427.13 155.279 428.957 152.11 430.641 149.815 433.663 148.594 436.995 148.09 438.624 146.666 440.002 144.961 440.267 142.982 440.247 142.031 438.145 141.461 436.548 139.991 431.857 140.062 426.769 141.069 421.992 141.726 419.285 142.763 416.395 145.094 414.68 146.981 413.297 149.591 413.632 151.52 414.757 155.234 416.99 159.991 417.58 164.046 415.937 169.566 413.744 173.489 407.919 173.26 401.956 173.158 398.893 171.616 395.922 169.139 394.121 167.063 392.508 164.437 391.958 162.066 390.946 158.932 389.72 155.264 390.747 153.031 393.2 149.291 397.143 147.551 402.449 145.847 407.491 145.618 408.804 144.102 409.262 142.947 409.333 141.466 409.033 141.405 407.201 141.344 406.006 141.369 400.511 143.013 395.174 143.211 389.694 143.293 388.656 143.008 387.654 142.651 386.703 150.39 384.637 158.52 386.367 166.325 384.749 169.591 384.093 172.751 382.566 175.025 380.089 175.798 379.453 175.498 378.359 175.483 377.499 174.954 371.907 170.889 367.16 165.994 364.703 162.753 363.08 158.739 362.388 155.361 364.011 152.43 365.395 150.639 368.412 149.912 371.475 149.24 373.775 148.248 376.283 146.162 377.646 144.519 378.476 143.17 376.715 142.585 375.382 140.688 371.048 140.413 366.123 141.044 361.477 141.553 358.521 142.616 355.077 145.557 353.713 148.095 352.589 150.711 353.937 153.005 354.996 157.849 355.352 162.819 354.873 167.439 353.322 169.876 352.462 172.379 351.114 173.662 348.763 174.979 346.346 174.348 343.4 173.122 341.086 172.084 339.132 171.438 336.934 169.897 335.291 168.029 333.113 165.19 331.872 162.336 331.831 155.244 331.699 148.391 337.351 147.5 344.454 147.398 346.346 145.984 347.944 144.478 348.956 143.033 349.592 142.56 347.537 142.387 346.529 141.532 340.424 142.489 334.258 142.316 328.127 142.306 325.893 143.404 323.558 145.429 322.485 147.612 321.299 150.187 321.258 152.608 321.258 157.365 321.279 162.194 322.078 166.895 321.045 170.202 320.368 172.914 317.951 174.577 315.097 176.541 311.551 175.564 307.119 173.351 303.929 170.161 299.289 164.931 295.804 159.228 295.453 155.488 295.189 151.769 297.244 149.998 300.541 148.365 303.736 147.078 307.318 144.346 309.765 142.809 310.91 142.138 308.508 142.046 307.379 141.201 299.009 142.621 290.625 142.616 282.245 150.069 282.184 157.335 284.611 164.799 284.128 168.726 283.909 172.685 282.464 175.519 279.681 176.445 276.878 175.854 273.688 174.537 271.088 172.288 266.778 168.029 263.71 163.394 262.428 160.159 261.548 156.47 261.604 153.56 263.425 151.046 264.972 149.515 267.74 148.986 270.589 148.711 272.36 147.531 273.81 146.315 275.051 145.689 275.692 144.524 276.252 143.812 275.417 142.534 273.825 142.402 271.658 142.133 269.709 141.603 263.609 141.883 257.463 142.545 251.383 150.115 250.406 157.859 250.859 165.323 249.042 168.436 248.249 171.632 246.992 173.763 244.479 176.053 241.782 176.399 237.859 175.488 234.552 172.171 230.304 167.175 227.16 161.736 226.687 158.332 226.361 154.689 227.77 152.802 230.706 151.479 232.512 151.143 234.751 150.477 236.827 149.606 238.745 148.696 240.851 146.91 242.092 145.948 242.8 144.687 242.204 144.112 241.304 142.692 239.223 142.244 236.669 141.827 234.237 141.074 228.625 141.151 222.835 142.575 217.335 143.272 214.954 144.203 212.385 146.299 210.884 148.029 209.648 150.497 209.968 152.1 211.271 155.6 213.82 160.036 215.214 164.371 214.623 168.732 214.079 172.965 211.611 175.152 207.729 176.607 205.211 176.882 201.965 175.529 199.345 174.114 196.44 171.342 194.466 168.472 193.153 166.859 192.527 165.806 191.016 164.188 190.4 161.909 189.373 159.253 190.009 157.208 191.281 153.377 193.611 150.69 197.294 147.49 200.352 146.762 200.952 145.989 201.751 144.972 201.716 144.264 201.558 144.04 200.779 143.832 200.194 143.237 197.976 143.511 195.666 143.323 193.412 142.295 190.634 140.967 187.602 141.909 184.611 142.723 182.082 145.429 180.952 147.816 180.444 154.404 179.126 161.217 180.138 167.795 178.8 170.395 178.266 173.3 177.04 174.267 174.343 175.325 171.189 174.236 167.806 172.949 164.89 171.693 162.097 169.556 159.309 166.386 158.688 162.992 158.042 159.68 159.624 156.887 161.395 152.334 164.412 148.441 168.319 144.829 172.385 146.325 165.129 142.997 157.889 143.888 150.604 144.091 148.782 145.104 146.778 147.042 146.36 149.561 145.862 152.125 146.773 154.384 147.836 161.502 152.028 171.662 148.177 174.913 140.779 176.516 137.223 174.603 133.092 171.423 131.168 168.843 129.759 166.91 127.241 163.944 126.564 160.616 125.658 157.253 127.261 154.75 129.372 150.833 132.695 147.846 136.923 144.656 140.911 146.137 133.804 143.15 126.696 143.934 119.558 144.137 117.594 145.043 115.406 147.037 114.684 149.708 113.788 152.598 114.602 155.137 115.569 161.827 118.963 170.97 115.92 174.379 109.276 176.048 106.126 174.755 102.173 171.988 100.118 169.235 98.1537 166.31 95.9812 162.825 95.6963 160.245 95.4673 157.803 96.7443 155.966 98.4589 152.049 102.066 149.428 107.027 144.763 109.815 146.32 102.046 142.947 94.2768 143.964 86.4721 144.229 84.3352 145.404 82.0406 147.638 81.4504 150.695 80.6568 153.829 81.7201 156.648 82.8699 161.141 84.2843 166.157 83.3838 170.232 81.1503 172.883 79.6646 175.396 77.0342 175.178 73.7781 175.076 71.0561 172.914 69.1889 171.769 66.8943 170.283 64.2283 167.5 62.1779 164.381 62.1168 159.879 61.9998 155.834 64.7523 153.01 68.0492 151.057 70.2166 150.136 73.3507 147.485 74.8414 146.009 75.4621 145.409 73.4117 145.282 72.3077 144.615 65.8665 145.607 59.3745 146.712 53.03Z" fill="#FFFFFF" transform="matrix(1 0 0 1.0011 -101.042 0)"/><path d="M133.778 68.5936C133.239 67.6829 133.977 66.7111 134.18 65.8157 135.005 66.0904 136.638 65.9429 136.668 67.1436 136.276 68.2018 134.882 69.1125 133.778 68.5936Z" fill="#FFFFFF" transform="matrix(1 0 0 1.0011 -101.042 0)"/><path d="M159.594 67.8253C161.064 67.4743 162.672 66.7315 164.173 67.3573 165.226 68.0797 164.57 69.5348 163.964 70.3336 163.242 71.3054 161.985 72.501 160.688 71.8905 159.477 70.934 159.68 69.199 159.594 67.8253Z" fill="#FFFFFF" transform="matrix(1 0 0 1.0011 -101.042 0)"/><path d="M161.385 101.079C162.535 101.537 164.671 101.71 164.656 103.277 163.801 104.646 161.771 105.129 160.291 104.625 159.095 103.516 160.779 102.056 161.385 101.079Z" fill="#FFFFFF" transform="matrix(1 0 0 1.0011 -101.042 0)"/><path d="M132.852 105.307C131.891 103.847 133.595 102.402 134.348 101.262 135.554 101.852 137.452 102.209 137.696 103.786 137.055 105.567 134.419 106.152 132.852 105.307Z" fill="#FFFFFF" transform="matrix(1 0 0 1.0011 -101.042 0)"/><path d="M132.277 133.753C131.952 132.267 133.524 131.341 134.425 130.436 135.381 131.336 136.984 132.252 136.628 133.799 135.625 135.03 133.198 135.122 132.277 133.753Z" fill="#FFFFFF" transform="matrix(1 0 0 1.0011 -101.042 0)"/><path d="M158.174 134.943C158.719 133.514 160.413 133.066 161.654 132.415 162.611 133.117 164.076 133.519 164.407 134.796 163.918 135.986 162.331 135.936 161.252 136.042 160.23 135.961 158.602 136.119 158.174 134.943Z" fill="#FFFFFF" transform="matrix(1 0 0 1.0011 -101.042 0)"/><path d="M134.358 161.715C135.574 162.316 137.62 162.702 137.671 164.356 136.912 166.02 134.358 166.64 132.827 165.714 131.937 164.254 133.585 162.845 134.358 161.715Z" fill="#FFFFFF" transform="matrix(1 0 0 1.0011 -101.042 0)"/><path d="M159.609 165.852C161.029 165.496 162.794 164.417 164.122 165.47 164.671 167.348 162.687 169.612 160.779 169.647 159.4 168.93 159.721 167.139 159.609 165.852Z" fill="#FFFFFF" transform="matrix(1 0 0 1.0011 -101.042 0)"/><path d="M132.517 196.658C131.519 195.147 133.478 193.901 134.419 192.97 135.366 193.865 136.994 194.781 136.622 196.323 135.686 197.528 133.677 197.533 132.517 196.658Z" fill="#FFFFFF" transform="matrix(1 0 0 1.0011 -101.042 0)"/><path d="M157.844 196.908C159.329 196.638 161.721 195.565 162.626 197.371 162.672 199.065 161.105 201.09 159.278 200.795 157.92 200.037 158.017 198.246 157.844 196.908Z" fill="#FFFFFF" transform="matrix(1 0 0 1.0011 -101.042 0)"/><path d="M329.521 233.865C337.422 225.379 345.268 216.842 353.057 208.253 352.762 223.12 352.436 237.992 352.462 252.868 352.482 256.252 352.706 259.63 352.93 263.008 340.429 265.608 327.832 267.745 315.377 270.569 307.15 272.578 298.745 273.713 290.508 275.662 303.329 261.558 316.511 247.791 329.521 233.865Z" fill="#FFFFFF" transform="matrix(1 0 0 1.0011 -101.042 0)"/><path d="M134.557 230.711C135.752 231.902 137.055 233.285 137.131 235.071 137.319 237.793 132.746 239.421 131.519 236.832 131.092 234.384 133.158 232.456 134.557 230.711Z" fill="#FFFFFF" transform="matrix(1 0 0 1.0011 -101.042 0)"/><path d="M161.868 234.099C163.349 233.865 164.961 233.397 166.406 234.038 167.007 234.99 165.908 235.895 165.323 236.547 163.45 238.16 161.258 239.701 158.749 240.001 158.515 239.925 158.052 239.772 157.818 239.696 157.33 238.241 158.373 236.847 159.029 235.611 159.446 234.395 160.81 234.354 161.868 234.099Z" fill="#FFFFFF" transform="matrix(1 0 0 1.0011 -101.042 0)"/><path d="M131.998 268.62C131.474 266.707 133.147 265.115 134.496 264.021 135.513 265.216 136.974 266.412 136.892 268.142 136.368 270.218 133.041 270.325 131.998 268.62Z" fill="#FFFFFF" transform="matrix(1 0 0 1.0011 -101.042 0)"/><path d="M159.38 267.674C160.616 267.501 162.306 268.035 163.125 269.119 162.819 271.139 159.96 271.871 158.23 271.464 156.877 270.416 158.576 268.585 159.38 267.674Z" fill="#FFFFFF" transform="matrix(1 0 0 1.0011 -101.042 0)"/><path d="M132.445 299.437C133.366 300.337 134.358 301.309 134.643 302.622 135.203 304.591 133.778 306.931 131.718 307.196 130.731 307.17 130.283 306.137 130.385 305.283 130.497 303.181 131.53 301.284 132.445 299.437Z" fill="#FFFFFF" transform="matrix(1 0 0 1.0011 -101.042 0)"/><path d="M157.386 303.354C159.426 302.907 161.604 302.367 163.664 302.968 164.86 303.421 164.28 304.855 163.659 305.563 161.899 307.664 159.533 309.297 156.938 310.172 156.119 310.462 154.725 310.498 154.674 309.328 154.832 307.074 156.317 305.247 157.386 303.354Z" fill="#FFFFFF" transform="matrix(1 0 0 1.0011 -101.042 0)"/><path d="M159.436 338.358C160.693 338.679 162.224 338.776 163.064 339.905 163.359 340.663 162.57 341.269 162.016 341.63 160.805 342.276 159.243 342.876 157.935 342.2 157.182 340.755 158.734 339.483 159.436 338.358Z" fill="#FFFFFF" transform="matrix(1 0 0 1.0011 -101.042 0)"/><path d="M130.512 342.647C129.321 341.182 131.377 339.803 132.333 338.893 133.259 339.747 134.592 340.536 134.643 341.956 133.962 343.472 131.733 343.462 130.512 342.647Z" fill="#FFFFFF" transform="matrix(1 0 0 1.0011 -101.042 0)"/><path d="M157.228 372.431C157.37 371.185 158.586 370.554 159.487 369.872 160.194 370.6 161.548 371.215 161.359 372.421 160.489 373.652 158.017 373.81 157.228 372.431Z" fill="#FFFFFF" transform="matrix(1 0 0 1.0011 -101.042 0)"/><path d="M129.795 374.405C129.739 372.671 131.194 371.439 132.303 370.305 133.397 371.455 134.867 372.676 134.791 374.416 134.358 376.7 130.202 376.69 129.795 374.405Z" fill="#FFFFFF" transform="matrix(1 0 0 1.0011 -101.042 0)"/><path d="M157.36 396.838C159.594 397.122 162.148 397.234 163.888 398.842 164.814 399.778 164.168 401.203 163.323 401.946 161.67 403.457 159.426 404.469 157.157 404.373 156.124 404.352 155.137 403.538 155.162 402.46 155.167 400.374 156.394 398.593 157.36 396.838Z" fill="#FFFFFF" transform="matrix(1 0 0 1.0011 -101.042 0)"/><path d="M130.354 399.814C131.987 400.262 134.292 400.567 134.847 402.454 134.465 404.556 131.428 405.644 129.673 404.627 128.365 403.187 129.749 401.254 130.354 399.814Z" fill="#FFFFFF" transform="matrix(1 0 0 1.0011 -101.042 0)"/><path d="M130.481 432.696C131.87 432.864 134.14 432.63 134.496 434.447 134.221 436.085 132.527 437.667 130.807 437.352 129.321 436.268 130.207 434.162 130.481 432.696Z" fill="#FFFFFF" transform="matrix(1 0 0 1.0011 -101.042 0)"/><path d="M159.38 434.63C160.428 434.533 161.609 434.085 162.57 434.731 163.12 436.288 161.029 438.369 159.482 437.799 158.866 436.833 159.283 435.668 159.38 434.63Z" fill="#FFFFFF" transform="matrix(1 0 0 1.0011 -101.042 0)"/></g></svg>