<svg width="428" height="518" xmlns="http://www.w3.org/2000/svg" xmlns:xlink="http://www.w3.org/1999/xlink" xml:space="preserve" overflow="hidden"><defs><clipPath id="clip0"><rect x="0" y="0" width="440" height="538"/></clipPath></defs><g clip-path="url(#clip0)"><path d="M140.076 44.8934C209.532 47.6478 279.05 48.317 348.547 48.5127 396.864 48.7186 445.186 48.5384 493.498 48.94 496.165 129.764 492.885 210.608 490.955 291.406 489.621 346.971 488.854 402.599 491.31 458.15 491.449 461.553 491.691 464.956 491.747 468.364 435.965 469.98 380.158 470.557 324.355 470.341 261.535 470.161 198.725 468.935 135.921 467.694 136.971 464.657 137.362 461.352 136.456 458.232 134.989 452.44 131.246 447.534 129.794 441.747 128.878 438.215 129.604 433.999 132.502 431.574 134.845 429.422 136.601 426.122 135.581 422.894 133.64 416.736 127.128 413.514 124.852 407.557 123.586 403.871 126.685 400.607 129.63 398.913 132.029 397.718 134.804 395.829 134.69 392.802 134.371 389.172 131.715 386.402 129.815 383.483 128.09 380.919 126.005 377.872 126.989 374.639 127.92 371.627 131.257 370.607 132.986 368.203 134.505 366.329 135.015 363.745 134.412 361.418 133.038 355.693 128.44 351.317 127.292 345.514 126.602 342.369 128.25 339.182 130.767 337.349 134.176 334.929 135.627 330.337 134.727 326.321 133.336 319.567 128.41 314.135 127.102 307.355 126.283 303.566 127.998 299.617 130.968 297.239 133.743 295.056 135.18 291.303 134.485 287.827 133.285 281.268 127.869 276.342 126.922 269.716 126.391 265.973 128.873 262.621 131.838 260.644 133.913 259.254 136.312 257.535 136.564 254.832 136.647 252.232 134.654 250.245 132.935 248.556 130.098 245.755 126.546 243.449 124.765 239.763 123.282 236.71 125.094 232.977 127.895 231.412 132.477 228.601 135.808 223.726 136.359 218.34 137.177 210.86 133.764 203.436 128.672 198.102 129.923 192.321 134.469 187.94 135.978 182.251 136.59 180.078 136.055 177.607 134.418 176.021 132.827 174.224 130.299 173.694 128.734 171.867 126.711 169.936 125.362 166.955 126.407 164.185 128.312 159.063 133.393 156.061 135.751 151.211 136.709 149.327 136.662 146.954 135.468 145.183 133.944 142.609 130.932 141.394 129.449 138.783 128.343 137.033 128.178 134.793 128.888 132.863 130.5 128.209 134.727 125.027 136.369 120.394 137.316 117.892 135.694 115.312 133.563 114.051 130.834 112.46 128.039 110.622 126.489 107.775 125.372 105.772 125.49 103.281 126.448 101.247 129.125 95.4757 134.891 91.6453 136.94 85.524 138.099 82.1982 136.698 78.584 134.33 76.1695 131.952 73.7652 130.428 70.2438 131.421 66.8613 132.724 62.0579 136.25 58.3202 138.397 53.903 139.865 51.1589 140.575 47.9927 140.076 44.8934M147.824 52.966C146.789 58.4129 146.125 63.9525 146.135 69.5024 146.238 71.2374 146.171 73.1526 147.16 74.6662 147.633 75.4693 148.653 75.1192 149.24 74.6456 151.603 72.7767 152.55 69.7547 154.635 67.6387 157.472 64.5446 161.415 61.9961 165.755 62.1454 168.963 62.2484 171.779 64.4107 173.262 67.1702 174.333 69.3222 176.335 71.0469 176.557 73.5644 176.999 76.7152 174.739 79.4696 172.201 81.0192 168.057 83.5573 162.806 84.5561 158.09 83.2124 155.14 82.0334 151.876 80.8442 148.684 81.7194 146.573 82.3114 145.389 84.4531 145.085 86.497 143.911 94.4666 147.453 102.421 145.842 110.365 150.666 107.512 153.302 102.333 157.41 98.6831 159.248 97.0305 161.668 95.8515 164.19 96.0986 167.326 96.3406 169.946 98.2249 172.49 99.893 174.698 101.386 176.567 103.78 176.546 106.565 176.531 109.639 174.554 112.336 172.211 114.164 168.206 117.294 162.553 118.633 157.714 116.764 154.856 115.513 151.639 114.396 148.503 115.163 146.372 115.74 145.265 117.953 145.039 120.002 144.148 127.308 147.273 134.588 145.723 141.862 148.22 138.629 150.702 135.365 153.523 132.399 155.768 130.108 158.368 127.874 161.59 127.205 164.283 126.613 167.089 127.632 169.174 129.341 171.259 131.308 174.199 132.307 175.728 134.86 177.664 137.651 176.999 141.471 175.017 144.05 171.084 149.327 163.537 152.138 157.271 149.636 154.496 148.225 151.423 146.732 148.225 147.299 146.424 147.649 145.327 149.399 145.054 151.103 143.88 158.646 147.505 166.162 145.888 173.668 149.595 169.457 153.626 165.436 158.347 162.358 161.225 160.566 164.685 158.996 168.139 159.876 171.542 160.787 173.581 164.031 174.806 167.109 175.887 169.905 176.747 173.169 175.491 176.047 174.384 178.456 171.707 179.527 169.282 180.078 162.44 181.515 155.33 180.361 148.498 181.87 146.192 182.405 143.649 183.636 142.923 186.091 142.058 189.088 143.34 192.099 144.4 194.864 144.652 197.454 144.127 200.26 145.311 202.684 145.893 203.786 147.242 203.071 147.922 202.473 151.855 199.06 154.815 194.39 159.634 192.089 161.997 190.9 165.014 191.07 167.094 192.769 169.298 194.813 172.433 195.461 174.533 197.67 177.664 200.342 178.858 205.099 176.86 208.801 173.324 215.885 163.753 218.315 156.823 214.973 154.347 214.15 152.565 211.612 149.785 211.756 147.062 211.823 145.332 214.387 144.436 216.678 142.537 221.579 142.264 226.948 142.485 232.148 142.737 235.634 143.108 239.248 144.658 242.435 145.178 243.475 146.202 244.741 147.525 244.319 149.224 243.603 150.079 241.812 150.928 240.293 152.195 238.11 152.179 235.438 153.533 233.291 155.109 230.346 158.363 228.514 161.678 228.488 167.063 228.411 172.124 231.237 175.748 235.073 176.325 235.742 177.108 236.37 177.154 237.333 177.653 240.293 177.375 243.578 175.522 246.049 173.457 248.808 170.121 250.209 166.878 251.048 159.263 252.963 151.345 252.479 143.613 253.478 142.969 259.048 142.753 264.67 143.046 270.272 143.226 272.485 143.371 274.776 144.272 276.841 144.586 277.593 145.281 278.447 146.212 278.169 147.85 277.443 148.854 275.811 149.718 274.318 150.29 272.393 150.589 270.333 151.757 268.645 153.683 265.458 157.523 263.867 161.153 264.099 166.878 264.408 172.417 267.625 175.45 272.501 177.221 275.307 177.777 278.782 177.097 282.02 174.42 284.481 170.986 286.082 167.362 286.463 159.397 287.374 151.618 284.589 143.669 284.692 143.638 292.409 142.578 300.106 142.881 307.834 143.01 309.353 143.031 310.99 143.818 312.349 144.308 313.167 145.353 312.73 145.842 312.158 148.431 309.492 149.677 305.903 151.423 302.701 153.4 299.401 157.369 297.599 161.158 298.078 166.801 298.711 171.923 302.253 174.986 306.964 177.113 310.187 177.921 314.609 175.887 318.074 174.271 320.699 171.81 322.991 168.757 323.763 162.038 325.518 155.032 323.124 148.298 324.638 145.404 325.251 143.319 328.036 143.376 330.965 143.566 337.251 142.547 343.579 143.479 349.839 143.638 350.833 144.215 352.82 145.61 352.089 147.088 351.059 148.519 349.484 148.612 347.589 149.502 340.366 156.504 334.61 163.722 334.811 166.744 334.868 169.715 336.294 171.583 338.677 172.984 340.351 173.596 342.487 174.626 344.382 175.774 346.626 176.34 349.443 175.136 351.785 173.895 354.184 171.393 355.585 168.937 356.47 164.638 357.999 160.02 358.416 155.485 358.334 153.78 358.493 152.478 357.217 150.903 356.841 148.771 356.105 146.171 356.558 144.709 358.354 142.444 361.047 141.934 364.723 141.79 368.116 141.759 371.997 142.14 376.075 144.03 379.54 144.637 380.801 146.264 381.99 147.587 380.93 151.278 378.098 150.635 372.723 153.744 369.48 156.159 366.638 160.262 365.84 163.768 366.746 171.017 368.507 177.355 375.297 176.963 383.03 174.873 385.465 172.021 387.19 168.917 387.993 160.664 390.171 151.932 388.024 143.7 390.31 144.246 391.401 144.349 392.637 144.266 393.847 143.952 399.036 142.531 404.108 142.387 409.318 142.428 410.605 142.356 412.329 143.649 413.071 144.719 413.375 145.682 412.664 146.619 412.257 148.205 407.48 149.785 402.563 152.807 398.47 154.522 396.117 157.081 394.099 160.108 394.048 162.651 393.914 164.875 395.294 167.223 396.014 170.796 397.24 173.818 400.298 174.466 404.092 175.64 410.651 171.352 417.514 165.22 419.877 161.204 421.447 156.504 420.901 152.828 418.708 150.851 417.529 148.159 417.122 146.197 418.549 143.772 420.335 142.717 423.357 142.058 426.184 141.126 430.796 141.064 435.672 142.361 440.218 142.923 441.886 143.726 444.033 145.677 444.414 147.566 444.414 149.209 442.833 149.729 441.093 150.985 437.7 153.333 434.611 156.586 432.938 159.933 431.162 163.969 431.038 167.547 432.14 172.263 433.602 176.376 436.928 178.879 441.165 179.713 444.944 179.1 449.372 176.15 452.111 172.701 455.333 167.727 456.111 163.181 456.198 156.236 456.173 149.188 454.721 143.041 451.41 142.598 454.51 142.392 457.964 144.163 460.713 145.744 463.148 148.684 464.183 151.443 464.539 156.777 465.177 162.126 464.286 167.424 463.715 171.959 463.241 176.603 462.51 181.123 463.524 180.928 326.661 185.134 189.808 183.383 52.9402 171.537 52.2349 159.67 52.621 147.824 52.966M194.648 52.9917C193.109 54.6855 191.976 56.7294 191.389 58.9432 189.989 64.0709 190.545 69.4406 189.999 74.6765 189.803 76.3651 189.906 78.0641 189.927 79.7579 192.022 198.365 186.086 316.967 189.124 435.564 189.144 436.928 189.608 438.231 189.716 439.59 190.241 445.51 189.304 451.503 190.354 457.388 190.807 459.818 191.924 462.453 194.318 463.529 197.042 464.822 200.007 463.586 202.854 463.756 296.23 461.887 389.63 467.066 482.985 463.385 485.703 327.377 486.918 191.338 487.289 55.3033 389.836 49.4085 292.188 54.2428 194.648 52.9917M135.092 65.9603C134.896 66.8098 134.294 67.7159 134.675 68.5963 135.792 69.3428 137.45 68.2411 137.702 67.0261 137.26 66.0221 135.998 66.0993 135.092 65.9603M160.834 67.9322C160.921 69.4149 160.705 71.9787 162.682 72.2207 164.535 71.8912 166.26 69.8885 165.951 67.9733 164.69 66.4031 162.435 67.5872 160.834 67.9322M133.697 105.649C135.138 106.812 137.79 106.071 138.66 104.485 138.737 102.761 136.564 102.328 135.334 101.726 134.551 102.838 133.012 104.161 133.697 105.649M161.266 104.943C162.898 105.86 165.318 105.098 166.178 103.43 165.354 102.271 163.959 101.916 162.677 101.535 162.023 102.539 160.684 103.605 161.266 104.943M133.136 134.356C133.903 136.024 136.894 135.978 137.707 134.371 137.733 132.914 136.348 132.091 135.401 131.226 134.479 132.111 133.146 132.914 133.136 134.356M159.248 135.926C160.597 137.105 162.538 136.992 164.185 136.683 164.813 136.518 165.699 136.261 165.709 135.458 165.158 134.284 163.845 133.826 162.8 133.218 161.482 133.918 159.917 134.474 159.248 135.926M133.573 166.595C134.948 168.072 138.31 167.182 138.722 165.179 138.186 163.758 136.559 163.408 135.329 162.836 134.541 163.938 133.223 165.096 133.573 166.595M160.808 167.12C161.004 168.366 160.648 170.461 162.249 170.863 163.701 170.77 164.736 169.462 165.359 168.258 165.75 167.578 165.755 166.337 164.731 166.234 163.362 166.028 162.044 166.626 160.808 167.12M133.192 197.716C134.073 199.194 136.812 199.163 137.661 197.675 137.862 196.187 136.338 195.322 135.401 194.447 134.469 195.338 132.986 196.234 133.192 197.716M159.099 198.401C159.243 199.776 159.14 201.727 160.664 202.376 162.461 202.509 164.123 200.455 163.835 198.736 162.821 197.119 160.587 198.128 159.099 198.401M135.535 232.596C134.284 234.043 132.909 235.52 132.436 237.43 132.255 238.172 132.358 239.099 133.028 239.588 134.994 240.952 138.372 239.32 138.13 236.802 137.949 235.078 136.703 233.76 135.535 232.596M160.88 236.56C160.061 237.956 159.042 239.33 158.867 240.988 158.908 242.342 160.571 242.007 161.415 241.693 163.82 240.731 166.234 239.325 167.722 237.147 168.294 236.514 167.614 235.562 166.831 235.665 164.808 235.5 162.826 236.092 160.88 236.56M132.806 270.318C133.167 272.717 137.548 272.707 137.898 270.303 137.882 268.578 136.456 267.368 135.355 266.225 134.248 267.363 132.817 268.588 132.806 270.318M160.72 269.747C159.989 270.874 158.285 272.274 159.238 273.69 160.551 274.272 162.059 273.731 163.243 273.088 163.99 272.722 164.916 271.703 164.051 270.946 163.104 270.184 161.858 270.04 160.72 269.747M131.308 307.88C131.179 308.791 131.71 310.001 132.806 309.873 134.804 309.528 136.127 307.262 135.638 305.332 135.334 303.998 134.387 302.953 133.378 302.093 132.466 303.921 131.462 305.8 131.308 307.88M158.687 305.96C157.528 307.86 156.071 309.749 155.86 312.045 155.902 313.193 157.286 313.234 158.115 312.915 160.705 312.086 163.032 310.444 164.824 308.41 165.421 307.715 166.183 306.428 165.199 305.744 163.109 304.91 160.813 305.605 158.687 305.96M160.746 341.391C160.01 342.322 159.15 343.239 158.903 344.444 158.785 345.37 159.845 345.7 160.576 345.587 162.131 345.437 163.727 344.768 164.582 343.393 163.897 341.895 162.136 341.766 160.746 341.391M131.02 344.994C131.658 346.786 134.932 346.74 135.622 345 135.519 343.599 134.237 342.791 133.29 341.952 132.379 342.801 131.107 343.615 131.02 344.994M158.44 375.792C159.155 377.295 162.368 377.218 162.703 375.421 162.358 374.422 161.415 373.871 160.628 373.269 159.794 373.995 158.656 374.597 158.44 375.792M133.141 373.727C132.106 374.932 130.608 376.147 130.716 377.897 131.221 380.173 135.37 380.137 135.777 377.82 135.766 376.085 134.402 374.736 133.141 373.727M156.365 406.229C156.339 407.397 157.477 408.18 158.563 408.149 160.937 408.144 163.305 407.068 164.927 405.348 165.714 404.571 165.961 403.171 165.045 402.393 163.253 400.941 160.818 400.797 158.625 400.504 157.595 402.27 156.36 404.102 156.365 406.229M130.623 408.417C132.446 409.472 136.111 408.118 135.705 405.704 134.711 404.272 132.883 403.943 131.318 403.505 130.649 404.967 129.249 406.97 130.623 408.417M131.329 436.841C131.154 438.287 130.242 440.408 131.704 441.448 133.496 441.86 135.648 439.95 135.36 438.102 134.577 436.696 132.698 436.892 131.329 436.841M160.648 438.704C160.592 439.775 159.825 441.52 161.127 442.097 162.538 442.009 163.897 440.676 164.015 439.265 163.516 437.922 161.699 438.668 160.648 438.704Z" transform="matrix(1.00012 0 0 1 -99.742 0)"/><path d="M300.261 179.759C302.825 178.745 305.697 179.738 307.865 181.237 310.29 182.899 312.596 185.283 312.915 188.341 313.26 190.802 311.134 192.599 310.65 194.88 309.677 198.653 310.017 202.602 309.842 206.458 309.667 225.476 309.538 244.489 309.739 263.507 317.188 262.019 324.679 260.711 332.201 259.64 333.406 258.369 333.776 256.423 335.274 255.378 336.948 254.075 339.306 254.621 341.01 255.583 343.332 256.999 345.278 259.146 346.266 261.695 347.43 264.799 346.637 268.83 343.718 270.689 341.174 272.274 338.111 272.64 335.213 273.134 327.027 274.169 318.81 274.931 310.635 276.017 311.572 288.8 313.409 301.517 316.087 314.053 316.637 317.652 317.626 321.25 317.446 324.906 316.56 329.395 311.783 332.314 307.401 332.242 305.013 332.299 303.164 330.42 302.14 328.437 300.25 324.808 299.519 320.715 298.845 316.72 296.94 304.194 295.936 291.555 295.02 278.926 270.704 283.493 246.893 290.355 222.67 295.359 219.684 295.874 216.688 296.708 213.64 296.6 210.69 295.921 208.26 293.712 206.51 291.328 204.6 288.692 205.485 285.011 207.668 282.823 221.033 270.102 232.972 255.98 246.049 242.97 262.07 227.474 275.775 209.83 290.021 192.743 292.363 189.901 295.097 187.327 296.811 184.027 297.743 182.472 298.474 180.526 300.261 179.759M267.785 238.929C255.486 252.062 243.042 265.062 230.969 278.406 239.037 276.517 247.253 275.384 255.311 273.448 268.171 270.498 281.181 268.31 294.093 265.612 293.82 261.859 293.594 258.096 293.609 254.327 293.624 239.624 293.882 224.92 294.242 210.222 285.459 219.818 276.686 229.435 267.785 238.929Z" transform="matrix(1.00012 0 0 1 -99.742 0)"/><path d="M416.963 190.241C431.363 188.871 445.984 188.588 460.296 190.936 462.201 191.178 464.101 192.058 465.208 193.68 467.159 196.455 465.702 200.769 462.639 202.067 461.414 202.612 460.054 202.679 458.736 202.669 446.525 202.617 434.302 202.813 422.132 203.827 411.223 204.785 400.082 205.974 389.878 210.088 386.819 223.123 381.872 235.618 376.996 248.067 388.874 246.121 400.874 244.937 412.911 244.736 419.769 244.664 426.647 245.101 433.407 246.301 439.477 247.372 445.68 249.756 449.742 254.595 453.537 259.028 454.947 265.098 454.412 270.833 453.552 279.848 449.948 288.528 444.46 295.704 435.6 307.262 422.714 314.995 409.364 320.339 401.873 323.155 394.573 326.497 386.912 328.839 383.144 329.678 379.215 331.14 375.339 330.116 372.049 329.215 369.995 326.028 369.31 322.851 368.831 320.725 369.14 318.264 370.679 316.627 371.848 315.356 373.593 314.815 375.272 314.686 382.14 314.058 389.013 313.07 395.628 311.077 403.515 308.513 411.279 305.352 418.327 300.93 425.833 296.276 432.418 289.681 435.78 281.397 437.551 276.759 438.946 271.672 438.071 266.683 437.494 263.435 434.493 261.386 431.553 260.433 426.528 258.894 421.21 258.621 415.99 258.575 404.782 258.765 393.682 260.531 382.567 261.818 379.663 262.271 376.662 262.256 373.846 263.131 371.338 264.238 368.641 264.768 366.072 265.69 363.935 265.896 361.768 265.098 360.043 263.877 357.628 262.034 357.268 258.523 358.298 255.831 362.808 243.665 367.699 231.633 371.735 219.293 372.713 216.049 373.727 212.791 374.263 209.434 373.367 206.607 373.223 203.153 375.431 200.872 378.52 197.68 382.974 196.424 387.123 195.23 396.905 192.722 406.949 191.41 416.963 190.241Z" transform="matrix(1.00012 0 0 1 -99.742 0)"/><path d="M147.824 52.966C159.67 52.621 171.537 52.2349 183.383 52.9402 185.134 189.808 180.928 326.661 181.123 463.524 176.603 462.51 171.959 463.241 167.424 463.715 162.126 464.286 156.777 465.177 151.443 464.539 148.684 464.183 145.744 463.148 144.163 460.713 142.392 457.964 142.598 454.51 143.041 451.41 149.188 454.721 156.236 456.173 163.181 456.198 167.727 456.111 172.701 455.333 176.15 452.111 179.1 449.372 179.713 444.944 178.879 441.165 176.376 436.928 172.263 433.602 167.547 432.14 163.969 431.038 159.933 431.162 156.586 432.938 153.333 434.611 150.985 437.7 149.729 441.093 149.209 442.833 147.566 444.414 145.677 444.414 143.726 444.033 142.923 441.886 142.361 440.218 141.064 435.672 141.126 430.796 142.058 426.184 142.717 423.357 143.772 420.335 146.197 418.549 148.159 417.122 150.851 417.529 152.828 418.708 156.504 420.901 161.204 421.447 165.22 419.877 171.352 417.514 175.64 410.651 174.466 404.092 173.818 400.298 170.796 397.24 167.223 396.014 164.875 395.294 162.651 393.914 160.108 394.048 157.081 394.099 154.522 396.117 152.807 398.47 149.785 402.563 148.205 407.48 146.619 412.257 145.682 412.664 144.719 413.375 143.649 413.071 142.356 412.329 142.428 410.605 142.387 409.318 142.531 404.108 143.952 399.036 144.266 393.847 144.349 392.637 144.246 391.401 143.7 390.31 151.932 388.024 160.664 390.171 168.917 387.993 172.021 387.19 174.873 385.465 176.963 383.03 177.355 375.297 171.017 368.507 163.768 366.746 160.262 365.84 156.159 366.638 153.744 369.48 150.635 372.723 151.278 378.098 147.587 380.93 146.264 381.99 144.637 380.801 144.03 379.54 142.14 376.075 141.759 371.997 141.79 368.116 141.934 364.723 142.444 361.047 144.709 358.354 146.171 356.558 148.771 356.105 150.903 356.841 152.478 357.217 153.78 358.493 155.485 358.334 160.02 358.416 164.638 357.999 168.937 356.47 171.393 355.585 173.895 354.184 175.136 351.785 176.34 349.443 175.774 346.626 174.626 344.382 173.596 342.487 172.984 340.351 171.583 338.677 169.715 336.294 166.744 334.868 163.722 334.811 156.504 334.61 149.502 340.366 148.612 347.589 148.519 349.484 147.088 351.059 145.61 352.089 144.215 352.82 143.638 350.833 143.479 349.839 142.547 343.579 143.566 337.251 143.376 330.965 143.319 328.036 145.404 325.251 148.298 324.638 155.032 323.124 162.038 325.518 168.757 323.763 171.81 322.991 174.271 320.699 175.887 318.074 177.921 314.609 177.113 310.187 174.986 306.964 171.923 302.253 166.801 298.711 161.158 298.078 157.369 297.599 153.4 299.401 151.423 302.701 149.677 305.903 148.431 309.492 145.842 312.158 145.353 312.73 144.308 313.167 143.818 312.349 143.031 310.99 143.01 309.353 142.881 307.834 142.578 300.106 143.638 292.409 143.669 284.692 151.618 284.589 159.397 287.374 167.362 286.463 170.986 286.082 174.42 284.481 177.097 282.02 177.777 278.782 177.221 275.307 175.45 272.501 172.417 267.625 166.878 264.408 161.153 264.099 157.523 263.867 153.683 265.458 151.757 268.645 150.589 270.333 150.29 272.393 149.718 274.318 148.854 275.811 147.85 277.443 146.212 278.169 145.281 278.447 144.586 277.593 144.272 276.841 143.371 274.776 143.226 272.485 143.046 270.272 142.753 264.67 142.969 259.048 143.613 253.478 151.345 252.479 159.263 252.963 166.878 251.048 170.121 250.209 173.457 248.808 175.522 246.049 177.375 243.578 177.653 240.293 177.154 237.333 177.108 236.37 176.325 235.742 175.748 235.073 172.124 231.237 167.063 228.411 161.678 228.488 158.363 228.514 155.109 230.346 153.533 233.291 152.179 235.438 152.195 238.11 150.928 240.293 150.079 241.812 149.224 243.603 147.525 244.319 146.202 244.741 145.178 243.475 144.658 242.435 143.108 239.248 142.737 235.634 142.485 232.148 142.264 226.948 142.537 221.579 144.436 216.678 145.332 214.387 147.062 211.823 149.785 211.756 152.565 211.612 154.347 214.15 156.823 214.973 163.753 218.315 173.324 215.885 176.86 208.801 178.858 205.099 177.664 200.342 174.533 197.67 172.433 195.461 169.298 194.813 167.094 192.769 165.014 191.07 161.997 190.9 159.634 192.089 154.815 194.39 151.855 199.06 147.922 202.473 147.242 203.071 145.893 203.786 145.311 202.684 144.127 200.26 144.652 197.454 144.4 194.864 143.34 192.099 142.058 189.088 142.923 186.091 143.649 183.636 146.192 182.405 148.498 181.87 155.33 180.361 162.44 181.515 169.282 180.078 171.707 179.527 174.384 178.456 175.491 176.047 176.747 173.169 175.887 169.905 174.806 167.109 173.581 164.031 171.542 160.787 168.139 159.876 164.685 158.996 161.225 160.566 158.347 162.358 153.626 165.436 149.595 169.457 145.888 173.668 147.505 166.162 143.88 158.646 145.054 151.103 145.327 149.399 146.424 147.649 148.225 147.299 151.423 146.732 154.496 148.225 157.271 149.636 163.537 152.138 171.084 149.327 175.017 144.05 176.999 141.471 177.664 137.651 175.728 134.86 174.199 132.307 171.259 131.308 169.174 129.341 167.089 127.632 164.283 126.613 161.59 127.205 158.368 127.874 155.768 130.108 153.523 132.399 150.702 135.365 148.22 138.629 145.723 141.862 147.273 134.588 144.148 127.308 145.039 120.002 145.265 117.953 146.372 115.74 148.503 115.163 151.639 114.396 154.856 115.513 157.714 116.764 162.553 118.633 168.206 117.294 172.211 114.164 174.554 112.336 176.531 109.639 176.546 106.565 176.567 103.78 174.698 101.386 172.49 99.893 169.946 98.2249 167.326 96.3406 164.19 96.0986 161.668 95.8515 159.248 97.0305 157.41 98.6831 153.302 102.333 150.666 107.512 145.842 110.365 147.453 102.421 143.911 94.4666 145.085 86.497 145.389 84.4531 146.573 82.3114 148.684 81.7194 151.876 80.8442 155.14 82.0334 158.09 83.2124 162.806 84.5561 168.057 83.5573 172.201 81.0192 174.739 79.4696 176.999 76.7152 176.557 73.5644 176.335 71.0469 174.333 69.3222 173.262 67.1702 171.779 64.4107 168.963 62.2484 165.755 62.1454 161.415 61.9961 157.472 64.5446 154.635 67.6387 152.55 69.7547 151.603 72.7767 149.24 74.6456 148.653 75.1192 147.633 75.4693 147.16 74.6662 146.171 73.1526 146.238 71.2374 146.135 69.5024 146.125 63.9525 146.789 58.4129 147.824 52.966Z" fill="#FFFFFF" transform="matrix(1.00012 0 0 1 -99.742 0)"/><path d="M194.648 52.9917C292.188 54.2428 389.836 49.4085 487.289 55.3033 486.918 191.338 485.703 327.377 482.985 463.385 389.63 467.066 296.23 461.887 202.854 463.756 200.007 463.586 197.042 464.822 194.318 463.529 191.924 462.453 190.807 459.818 190.354 457.388 189.304 451.503 190.241 445.51 189.716 439.59 189.608 438.231 189.144 436.928 189.124 435.564 186.086 316.967 192.022 198.365 189.927 79.7579 189.906 78.0641 189.803 76.3651 189.999 74.6765 190.545 69.4406 189.989 64.0709 191.389 58.9432 191.976 56.7294 193.109 54.6855 194.648 52.9917M300.261 179.759C298.474 180.526 297.743 182.472 296.811 184.027 295.097 187.327 292.363 189.901 290.021 192.743 275.775 209.83 262.07 227.474 246.049 242.97 232.972 255.98 221.033 270.102 207.668 282.823 205.485 285.011 204.6 288.692 206.51 291.328 208.26 293.712 210.69 295.921 213.64 296.6 216.688 296.708 219.684 295.874 222.67 295.359 246.893 290.355 270.704 283.493 295.02 278.926 295.936 291.555 296.94 304.194 298.845 316.72 299.519 320.715 300.25 324.808 302.14 328.437 303.164 330.42 305.013 332.299 307.401 332.242 311.783 332.314 316.56 329.395 317.446 324.906 317.626 321.25 316.637 317.652 316.087 314.053 313.409 301.517 311.572 288.8 310.635 276.017 318.81 274.931 327.027 274.169 335.213 273.134 338.111 272.64 341.174 272.274 343.718 270.689 346.637 268.83 347.43 264.799 346.266 261.695 345.278 259.146 343.332 256.999 341.01 255.583 339.306 254.621 336.948 254.075 335.274 255.378 333.776 256.423 333.406 258.369 332.201 259.64 324.679 260.711 317.188 262.019 309.739 263.507 309.538 244.489 309.667 225.476 309.842 206.458 310.017 202.602 309.677 198.653 310.65 194.88 311.134 192.599 313.26 190.802 312.915 188.341 312.596 185.283 310.29 182.899 307.865 181.237 305.697 179.738 302.825 178.745 300.261 179.759M416.963 190.241C406.949 191.41 396.905 192.722 387.123 195.23 382.974 196.424 378.52 197.68 375.431 200.872 373.223 203.153 373.367 206.607 374.263 209.434 373.727 212.791 372.713 216.049 371.735 219.293 367.699 231.633 362.808 243.665 358.298 255.831 357.268 258.523 357.628 262.034 360.043 263.877 361.768 265.098 363.935 265.896 366.072 265.69 368.641 264.768 371.338 264.238 373.846 263.131 376.662 262.256 379.663 262.271 382.567 261.818 393.682 260.531 404.782 258.765 415.99 258.575 421.21 258.621 426.528 258.894 431.553 260.433 434.493 261.386 437.494 263.435 438.071 266.683 438.946 271.672 437.551 276.759 435.78 281.397 432.418 289.681 425.833 296.276 418.327 300.93 411.279 305.352 403.515 308.513 395.628 311.077 389.013 313.07 382.14 314.058 375.272 314.686 373.593 314.815 371.848 315.356 370.679 316.627 369.14 318.264 368.831 320.725 369.31 322.851 369.995 326.028 372.049 329.215 375.339 330.116 379.215 331.14 383.144 329.678 386.912 328.839 394.573 326.497 401.873 323.155 409.364 320.339 422.714 314.995 435.6 307.262 444.46 295.704 449.948 288.528 453.552 279.848 454.412 270.833 454.947 265.098 453.537 259.028 449.742 254.595 445.68 249.756 439.477 247.372 433.407 246.301 426.647 245.101 419.769 244.664 412.911 244.736 400.874 244.937 388.874 246.121 376.996 248.067 381.872 235.618 386.819 223.123 389.878 210.088 400.082 205.974 411.223 204.785 422.132 203.827 434.302 202.813 446.525 202.617 458.736 202.669 460.054 202.679 461.414 202.612 462.639 202.067 465.702 200.769 467.159 196.455 465.208 193.68 464.101 192.058 462.201 191.178 460.296 190.936 445.984 188.588 431.363 188.871 416.963 190.241Z" fill="#FFFFFF" transform="matrix(1.00012 0 0 1 -99.742 0)"/><path d="M135.092 65.9603C135.998 66.0993 137.26 66.0221 137.702 67.0261 137.45 68.2411 135.792 69.3428 134.675 68.5963 134.294 67.7159 134.896 66.8098 135.092 65.9603Z" fill="#FFFFFF" transform="matrix(1.00012 0 0 1 -99.742 0)"/><path d="M160.834 67.9322C162.435 67.5872 164.69 66.4031 165.951 67.9733 166.26 69.8885 164.535 71.8912 162.682 72.2207 160.705 71.9787 160.921 69.4149 160.834 67.9322Z" fill="#FFFFFF" transform="matrix(1.00012 0 0 1 -99.742 0)"/><path d="M133.697 105.649C133.012 104.161 134.551 102.838 135.334 101.726 136.564 102.328 138.737 102.761 138.66 104.485 137.79 106.071 135.138 106.812 133.697 105.649Z" fill="#FFFFFF" transform="matrix(1.00012 0 0 1 -99.742 0)"/><path d="M161.266 104.943C160.684 103.605 162.023 102.539 162.677 101.535 163.959 101.916 165.354 102.271 166.178 103.43 165.318 105.098 162.898 105.86 161.266 104.943Z" fill="#FFFFFF" transform="matrix(1.00012 0 0 1 -99.742 0)"/><path d="M133.136 134.356C133.146 132.914 134.479 132.111 135.401 131.226 136.348 132.091 137.733 132.914 137.707 134.371 136.894 135.978 133.903 136.024 133.136 134.356Z" fill="#FFFFFF" transform="matrix(1.00012 0 0 1 -99.742 0)"/><path d="M159.248 135.926C159.917 134.474 161.482 133.918 162.8 133.218 163.845 133.826 165.158 134.284 165.709 135.458 165.699 136.261 164.813 136.518 164.185 136.683 162.538 136.992 160.597 137.105 159.248 135.926Z" fill="#FFFFFF" transform="matrix(1.00012 0 0 1 -99.742 0)"/><path d="M133.573 166.595C133.223 165.096 134.541 163.938 135.329 162.836 136.559 163.408 138.186 163.758 138.722 165.179 138.31 167.182 134.948 168.072 133.573 166.595Z" fill="#FFFFFF" transform="matrix(1.00012 0 0 1 -99.742 0)"/><path d="M160.808 167.12C162.044 166.626 163.362 166.028 164.731 166.234 165.755 166.337 165.75 167.578 165.359 168.258 164.736 169.462 163.701 170.77 162.249 170.863 160.648 170.461 161.004 168.366 160.808 167.12Z" fill="#FFFFFF" transform="matrix(1.00012 0 0 1 -99.742 0)"/><path d="M133.192 197.716C132.986 196.234 134.469 195.338 135.401 194.447 136.338 195.322 137.862 196.187 137.661 197.675 136.812 199.163 134.073 199.194 133.192 197.716Z" fill="#FFFFFF" transform="matrix(1.00012 0 0 1 -99.742 0)"/><path d="M159.099 198.401C160.587 198.128 162.821 197.119 163.835 198.736 164.123 200.455 162.461 202.509 160.664 202.376 159.14 201.727 159.243 199.776 159.099 198.401Z" fill="#FFFFFF" transform="matrix(1.00012 0 0 1 -99.742 0)"/><path d="M267.785 238.929C276.686 229.435 285.459 219.818 294.242 210.222 293.882 224.92 293.624 239.624 293.609 254.327 293.594 258.096 293.82 261.859 294.093 265.612 281.181 268.31 268.171 270.498 255.311 273.448 247.253 275.384 239.037 276.517 230.969 278.406 243.042 265.062 255.486 252.062 267.785 238.929Z" fill="#FFFFFF" transform="matrix(1.00012 0 0 1 -99.742 0)"/><path d="M135.535 232.596C136.703 233.76 137.949 235.078 138.13 236.802 138.372 239.32 134.994 240.952 133.028 239.588 132.358 239.099 132.255 238.172 132.436 237.43 132.909 235.52 134.284 234.043 135.535 232.596Z" fill="#FFFFFF" transform="matrix(1.00012 0 0 1 -99.742 0)"/><path d="M160.88 236.56C162.826 236.092 164.808 235.5 166.831 235.665 167.614 235.562 168.294 236.514 167.722 237.147 166.234 239.325 163.82 240.731 161.415 241.693 160.571 242.007 158.908 242.342 158.867 240.988 159.042 239.33 160.061 237.956 160.88 236.56Z" fill="#FFFFFF" transform="matrix(1.00012 0 0 1 -99.742 0)"/><path d="M132.806 270.318C132.817 268.588 134.248 267.363 135.355 266.225 136.456 267.368 137.882 268.578 137.898 270.303 137.548 272.707 133.167 272.717 132.806 270.318Z" fill="#FFFFFF" transform="matrix(1.00012 0 0 1 -99.742 0)"/><path d="M160.72 269.747C161.858 270.04 163.104 270.184 164.051 270.946 164.916 271.703 163.99 272.722 163.243 273.088 162.059 273.731 160.551 274.272 159.238 273.69 158.285 272.274 159.989 270.874 160.72 269.747Z" fill="#FFFFFF" transform="matrix(1.00012 0 0 1 -99.742 0)"/><path d="M131.308 307.88C131.462 305.8 132.466 303.921 133.378 302.093 134.387 302.953 135.334 303.998 135.638 305.332 136.127 307.262 134.804 309.528 132.806 309.873 131.71 310.001 131.179 308.791 131.308 307.88Z" fill="#FFFFFF" transform="matrix(1.00012 0 0 1 -99.742 0)"/><path d="M158.687 305.96C160.813 305.605 163.109 304.91 165.199 305.744 166.183 306.428 165.421 307.715 164.824 308.41 163.032 310.444 160.705 312.086 158.115 312.915 157.286 313.234 155.902 313.193 155.86 312.045 156.071 309.749 157.528 307.86 158.687 305.96Z" fill="#FFFFFF" transform="matrix(1.00012 0 0 1 -99.742 0)"/><path d="M160.746 341.391C162.136 341.766 163.897 341.895 164.582 343.393 163.727 344.768 162.131 345.437 160.576 345.587 159.845 345.7 158.785 345.37 158.903 344.444 159.15 343.239 160.01 342.322 160.746 341.391Z" fill="#FFFFFF" transform="matrix(1.00012 0 0 1 -99.742 0)"/><path d="M131.02 344.994C131.107 343.615 132.379 342.801 133.29 341.952 134.237 342.791 135.519 343.599 135.622 345 134.932 346.74 131.658 346.786 131.02 344.994Z" fill="#FFFFFF" transform="matrix(1.00012 0 0 1 -99.742 0)"/><path d="M158.44 375.792C158.656 374.597 159.794 373.995 160.628 373.269 161.415 373.871 162.358 374.422 162.703 375.421 162.368 377.218 159.155 377.295 158.44 375.792Z" fill="#FFFFFF" transform="matrix(1.00012 0 0 1 -99.742 0)"/><path d="M133.141 373.727C134.402 374.736 135.766 376.085 135.777 377.82 135.37 380.137 131.221 380.173 130.716 377.897 130.608 376.147 132.106 374.932 133.141 373.727Z" fill="#FFFFFF" transform="matrix(1.00012 0 0 1 -99.742 0)"/><path d="M156.365 406.229C156.36 404.102 157.595 402.27 158.625 400.504 160.818 400.797 163.253 400.941 165.045 402.393 165.961 403.171 165.714 404.571 164.927 405.348 163.305 407.068 160.937 408.144 158.563 408.149 157.477 408.18 156.339 407.397 156.365 406.229Z" fill="#FFFFFF" transform="matrix(1.00012 0 0 1 -99.742 0)"/><path d="M130.623 408.417C129.249 406.97 130.649 404.967 131.318 403.505 132.883 403.943 134.711 404.272 135.705 405.704 136.111 408.118 132.446 409.472 130.623 408.417Z" fill="#FFFFFF" transform="matrix(1.00012 0 0 1 -99.742 0)"/><path d="M131.329 436.841C132.698 436.892 134.577 436.696 135.36 438.102 135.648 439.95 133.496 441.86 131.704 441.448 130.242 440.408 131.154 438.287 131.329 436.841Z" fill="#FFFFFF" transform="matrix(1.00012 0 0 1 -99.742 0)"/><path d="M160.648 438.704C161.699 438.668 163.516 437.922 164.015 439.265 163.897 440.676 162.538 442.009 161.127 442.097 159.825 441.52 160.592 439.775 160.648 438.704Z" fill="#FFFFFF" transform="matrix(1.00012 0 0 1 -99.742 0)"/></g></svg>