<svg width="428" height="518" xmlns="http://www.w3.org/2000/svg" xmlns:xlink="http://www.w3.org/1999/xlink" xml:space="preserve" overflow="hidden"><defs><clipPath id="clip0"><rect x="0" y="0" width="434" height="520"/></clipPath></defs><g clip-path="url(#clip0)"><path d="M138.893 45.6635C255.922 50.2651 373.059 48.9613 490.145 49.6056 492.763 126.637 489.808 203.699 487.885 280.71 486.331 342.52 485.324 404.412 488.473 466.191 370.569 469.729 252.583 468.037 134.674 465.506 135.763 462.842 136.126 459.882 135.492 457.065 134.235 450.873 130.119 445.745 128.631 439.635 127.803 436.224 128.472 432.18 131.223 429.797 133.539 427.701 135.38 424.521 134.485 421.315 132.731 415.205 126.427 411.984 123.922 406.298 122.797 403.839 123.886 401.027 125.793 399.314 127.833 397.008 131.315 396.446 132.895 393.68 133.999 391.89 133.509 389.64 132.593 387.887 130.548 383.725 126.714 380.468 125.706 375.82 125.123 373.146 126.928 370.718 129.05 369.332 131.796 367.507 134.03 364.367 133.422 360.926 132.45 354.934 127.608 350.486 126.264 344.621 125.727 342.428 126.172 340.025 127.537 338.22 128.784 336.389 130.988 335.464 132.087 333.511 133.642 331.149 134.158 328.188 133.626 325.422 132.328 318.591 127.317 313.141 125.993 306.32 125.2 302.624 126.816 298.743 129.694 296.391 132.563 294.172 134.081 290.332 133.304 286.763 132.087 280.623 127.286 275.934 125.947 269.84 125.323 267.089 126.223 264.139 128.166 262.124 130.282 259.624 133.943 258.56 135.155 255.298 135.942 253.217 134.746 251.08 133.381 249.557 130.318 246.003 125.926 243.58 123.728 239.31 122.178 236.304 123.901 232.556 126.673 230.956 131.32 228.144 134.705 223.21 135.211 217.754 135.963 210.346 132.558 203.034 127.521 197.758 128.846 192.266 132.946 188.007 134.659 182.669 135.359 180.537 135.175 177.996 133.621 176.278 132.005 174.172 129.173 173.63 127.48 171.615 125.553 169.718 124.295 166.83 125.292 164.161 126.974 159.59 131.208 156.701 133.785 152.697 135.022 150.867 135.769 148.464 134.864 146.327 133.943 143.995 131.786 142.569 130.001 140.948 128.094 139.23 126.852 136.566 127.501 133.979 128.754 128.789 133.58 125.476 135.247 120.481 136.132 117.94 134.368 115.434 132.225 114.218 129.51 112.643 126.744 110.761 125.277 107.888 124.218 105.873 124.459 103.419 125.43 101.42 128.115 95.8622 133.616 92.0991 135.712 86.1988 136.929 82.9214 135.651 79.2912 133.309 76.8626 130.967 74.5004 129.342 71.1156 130.216 67.7462 131.806 61.5494 137.072 57.0704 138.668 50.8685 139.133 49.171 139.082 47.3968 138.893 45.6635M146.587 53.6601C145.652 58.5481 145.054 63.5076 144.916 68.4825 144.916 70.5737 144.839 72.762 145.631 74.7356 145.887 75.5332 146.823 75.9883 147.554 75.477 149.466 74.2805 150.494 72.1893 151.695 70.364 154.328 66.5447 158.378 63.3235 163.112 62.8122 166.625 62.3879 170.051 64.4842 171.723 67.5161 172.822 69.776 174.939 71.5656 175.164 74.1987 175.552 77.2358 173.405 79.8843 170.986 81.4233 166.911 83.9849 161.747 84.9972 157.054 83.7855 154.057 82.6299 150.79 81.3517 147.538 82.1902 145.304 82.7731 144.097 85.0483 143.826 87.1907 142.799 95.039 146.168 102.846 144.634 110.669 149.44 107.801 152.074 102.632 156.19 99.0066 158.056 97.35 160.536 96.2047 163.077 96.5269 166.497 96.9461 169.381 99.0526 172.086 101.026 174.775 103.087 176.033 106.947 174.427 110.056 171.329 116.206 163.327 119.325 156.839 117.183 153.909 115.936 150.693 114.688 147.472 115.383 145.463 115.823 144.22 117.756 143.919 119.678 142.737 127.087 146.112 134.516 144.486 141.894 147.85 137.793 150.908 133.345 155.07 129.986 157.626 127.91 161.118 126.504 164.391 127.634 166.732 128.283 168.353 130.17 170.347 131.423 172.658 132.762 174.836 134.792 175.363 137.522 176.007 140.83 174.136 144.041 171.769 146.204 167.576 150.049 161.108 151.92 155.734 149.558 153.117 148.219 150.233 146.894 147.221 147.303 145.048 147.585 143.898 149.803 143.724 151.792 142.942 159.053 146.107 166.226 144.737 173.466 148.341 169.371 152.258 165.48 156.818 162.453 159.687 160.628 163.123 159.017 166.605 159.794 169.826 160.566 171.902 163.496 173.139 166.38 174.31 169.156 175.256 172.336 174.325 175.317 173.497 177.868 170.874 179.193 168.435 179.781 161.466 181.412 154.185 180.128 147.211 181.703 145.002 182.225 142.594 183.36 141.797 185.655 140.805 188.6 142.057 191.637 143.106 194.378 143.545 197.011 142.84 199.91 144.113 202.38 144.711 203.453 146.046 202.722 146.731 202.114 150.192 199.077 152.871 195.16 156.803 192.66 158.761 191.397 161.241 190.589 163.537 191.356 165.505 191.862 166.712 193.677 168.573 194.398 171.585 195.779 174.463 197.937 175.777 201.066 176.974 203.837 176.442 207.124 174.795 209.594 171.978 213.93 166.661 216.282 161.563 216.011 157.979 215.862 154.548 214.421 151.68 212.314 150.028 211.092 147.544 210.99 145.923 212.319 144 213.858 143.116 216.271 142.446 218.557 141.106 223.598 140.973 228.895 141.48 234.064 141.848 236.871 142.262 239.786 143.699 242.276 144.22 243.242 145.376 244.188 146.516 243.615 148.045 242.802 148.873 241.171 149.671 239.714 151 237.393 150.964 234.535 152.524 232.316 154.359 229.258 158.046 227.689 161.543 228.001 167.075 228.425 172.213 231.62 175.537 235.987 176.437 239.418 176.012 243.472 173.512 246.162 171.135 248.723 167.694 249.925 164.365 250.661 157.146 252.251 149.696 251.852 142.395 252.803 141.766 258.33 141.546 263.919 141.843 269.477 142.022 271.752 142.175 274.114 143.162 276.21 143.525 277.146 144.711 277.775 145.58 277.033 147.247 275.745 148.633 273.889 148.945 271.762 149.517 268.914 151.169 266.189 153.74 264.732 156.665 263.039 160.285 263.044 163.47 263.924 168.133 265.243 172.403 268.362 174.622 272.728 175.956 275.295 176.237 278.286 175.706 281.108 172.996 283.655 169.442 285.25 165.74 285.587 157.907 286.4 150.274 283.696 142.461 283.798 142.492 292.29 140.989 300.793 141.935 309.27 142.073 310.329 142.691 312.461 144.108 311.479 147.037 308.989 148.259 305.17 150.044 301.887 151.93 298.59 155.786 296.682 159.549 297.071 165.178 297.577 170.311 301.049 173.435 305.681 175.593 308.851 176.529 313.207 174.611 316.715 172.929 319.624 170.173 322.089 166.804 322.753 161.047 323.985 155.162 322.549 149.348 323.065 147.585 323.239 145.744 323.668 144.358 324.834 142.773 326.148 142.078 328.285 142.175 330.3 142.282 336.093 141.485 341.901 142.139 347.679 142.359 348.834 142.446 350.383 143.683 350.946 145.764 350.281 147.303 348.067 147.426 345.905 148.505 338.838 155.433 333.311 162.535 333.572 165.372 333.674 168.159 334.973 169.989 337.156 171.523 338.874 172.178 341.119 173.251 343.113 174.34 345.271 174.898 347.929 173.844 350.215 172.761 352.531 170.449 353.962 168.144 354.867 163.798 356.545 159.073 356.994 154.441 356.943 152.355 357.122 150.77 355.466 148.76 355.236 146.547 354.714 144.159 355.732 142.952 357.644 140.656 361.161 140.437 365.589 140.662 369.669 140.984 372.896 141.444 376.408 143.566 378.995 144.384 380.054 145.999 379.962 146.833 378.985 149.967 376.061 149.512 371.214 152.375 368.125 154.773 365.196 158.956 364.367 162.509 365.308 168.297 366.765 173.374 371.3 175.072 377.078 175.409 378.52 175.762 380.084 175.419 381.552 173.333 384.113 170.276 385.729 167.101 386.511 159.027 388.444 150.555 386.511 142.507 388.654 142.896 389.61 143.131 390.627 143.065 391.67 142.865 397.172 141.214 402.525 141.193 408.042 141.255 409.213 141.296 410.849 142.605 411.35 143.607 411.498 144.486 410.88 145.376 410.522 147.242 405.061 148.985 399.222 153.122 394.994 155.392 392.616 159.043 391.711 162.115 392.954 164.518 393.976 167.187 394.534 169.258 396.211 171.656 398.005 173.139 400.909 173.256 403.895 173.533 409.898 169.585 415.773 164.033 417.992 160.034 419.623 155.32 419.111 151.629 416.928 149.701 415.778 147.099 415.312 145.135 416.626 142.717 418.278 141.633 421.197 140.953 423.928 139.9 428.749 139.828 433.898 141.285 438.648 141.863 440.238 142.753 442.309 144.706 442.431 146.378 442.247 147.881 440.938 148.392 439.343 149.645 435.882 152.007 432.701 155.336 431.009 159.232 428.954 164.012 429.168 167.99 430.886 171.886 432.569 175.291 435.498 177.434 439.169 178.262 442.754 177.741 446.941 175.112 449.692 171.764 453.158 166.671 454.012 162.054 454.125 155.08 454.13 147.994 452.688 141.827 449.365 141.423 452.376 141.183 455.71 142.829 458.414 144.246 460.777 146.976 461.912 149.589 462.321 159.641 463.783 169.662 459.621 179.689 461.39 179.494 325.468 183.677 189.567 181.933 53.6448 170.163 52.9392 158.368 53.3278 146.587 53.6601M193.141 53.6908C190.784 56.1655 189.643 59.5195 189.245 62.8583 188.692 67.6082 188.851 72.4143 188.401 77.1744 190.579 194.439 184.755 311.704 187.527 428.969 187.624 431.505 187.47 434.082 188.074 436.572 188.948 442.846 187.69 449.252 188.907 455.5 189.362 457.893 190.543 460.47 192.926 461.462 195.145 462.469 197.574 461.774 199.885 461.666 293.16 459.728 386.47 464.933 479.73 461.267 482.43 326.189 483.642 191.085 484.005 55.9865 387.14 50.1322 290.087 54.9332 193.141 53.6908M134.01 66.4987C133.749 67.419 133.038 68.416 133.626 69.3517 134.792 69.7351 136.423 68.8097 136.479 67.5468 136.045 66.6316 134.828 66.7645 134.01 66.4987M159.498 68.549C159.651 69.9959 159.38 72.1433 161.062 72.7876 163.097 72.7415 165.352 70.1902 164.375 68.2166 162.857 67.2758 161.057 68.1655 159.498 68.549M134.143 102.095C133.411 103.097 132.466 104.068 132.307 105.362 132.542 106.835 134.47 106.656 135.538 106.308 136.495 106.032 137.982 105.173 137.348 103.981 136.597 102.928 135.273 102.581 134.143 102.095M160.019 105.367C161.553 106.068 163.567 105.505 164.616 104.217 164.738 102.54 162.494 102.407 161.369 101.885 160.709 102.887 159.268 104.058 160.019 105.367M132.123 134.792C133.084 136.024 135.344 135.994 136.362 134.843 136.985 133.314 135.16 132.292 134.276 131.377 133.345 132.266 131.653 133.268 132.123 134.792M157.907 136.091C159.702 137.297 162.484 137.446 164.212 136.096 164.651 134.628 162.463 134.045 161.512 133.36 160.157 134.035 158.628 134.649 157.907 136.091M132.716 166.876C134.276 167.673 136.428 167.049 137.471 165.674 137.717 163.854 135.426 163.404 134.189 162.775 133.381 163.905 131.637 165.429 132.716 166.876M159.559 166.932C159.651 168.215 159.314 170.368 160.95 170.756 162.698 170.536 164.017 168.793 164.299 167.131 163.608 165.117 160.97 166.579 159.559 166.932M134.204 194.163C133.309 195.104 131.571 196.132 132.159 197.66 133.238 198.821 135.692 198.826 136.5 197.354 136.633 195.871 135.17 195.012 134.204 194.163M157.749 198.131C157.979 199.496 157.841 201.551 159.467 202.078 161.256 202.047 163.118 199.864 162.34 198.121 161.031 196.996 159.216 197.839 157.749 198.131M134.347 232.06C132.941 233.824 130.881 235.757 131.325 238.226 132.547 240.67 136.781 239.29 136.95 236.744 137.047 234.816 135.646 233.298 134.347 232.06M159.631 235.951C158.777 237.306 157.795 238.676 157.575 240.302 157.422 241.468 158.787 241.524 159.574 241.253 161.936 240.537 164.104 239.142 165.807 237.362 166.277 236.831 167.075 235.731 166.109 235.276 163.951 234.704 161.742 235.547 159.631 235.951M131.74 269.937C132.614 271.915 136.469 271.747 136.735 269.425 136.643 267.743 135.273 266.562 134.173 265.453 133.059 266.69 131.351 268.055 131.74 269.937M159.278 269.154C158.521 270.121 156.941 271.69 158.02 272.902 159.774 273.454 162.944 272.636 163.046 270.468 162.075 269.563 160.576 268.945 159.278 269.154M130.19 307.312C130.155 308.166 130.932 309.02 131.826 308.769 133.764 308.34 135.002 306.07 134.439 304.183 134.143 302.895 133.151 301.944 132.276 301.023 131.279 302.987 130.139 305.042 130.19 307.312M157.381 304.919C156.256 306.78 154.835 308.621 154.589 310.85 154.594 312.466 156.604 312.016 157.575 311.587 160.244 310.339 163.164 308.631 164.329 305.789 164.258 305.558 164.109 305.088 164.033 304.858 162.003 303.723 159.533 304.613 157.381 304.919M132.128 340.659C131.208 341.584 129.659 342.499 129.976 344.028 130.973 345.322 133.325 345.291 134.342 344.033 134.715 342.479 133.094 341.553 132.128 340.659M157.969 344.008C159.712 344.667 162.259 343.864 163.112 342.111 162.734 340.51 160.668 340.536 159.406 340.096 158.72 341.201 156.931 342.683 157.969 344.008M156.977 374.373C158.107 375.544 160.341 375.641 161.354 374.286 161.41 373.064 160.126 372.471 159.385 371.745 158.388 372.425 157.473 373.238 156.977 374.373M129.577 376.296C129.991 378.607 134.168 378.617 134.618 376.316 134.674 374.568 133.187 373.32 132.082 372.18 131.014 373.351 129.531 374.557 129.577 376.296M155.08 404.437C155.014 405.69 156.292 406.513 157.447 406.416 159.799 406.324 162.172 405.255 163.721 403.461 164.406 402.709 164.564 401.441 163.736 400.725 161.967 399.243 159.518 399.13 157.335 398.803 156.317 400.541 155.1 402.346 155.08 404.437M129.572 406.738C131.366 407.597 134.398 406.523 134.639 404.386 134.051 402.571 131.806 402.356 130.267 401.758 129.485 403.169 128.089 405.337 129.572 406.738M130.226 434.854C129.996 436.357 129.019 438.765 130.855 439.589 132.568 439.573 134.521 437.927 134.199 436.112 133.365 434.767 131.576 434.992 130.226 434.854M159.298 436.782C159.268 437.85 158.623 439.328 159.677 440.1 161.164 440.156 162.703 438.638 162.647 437.16 161.952 436.02 160.367 436.725 159.298 436.782Z" transform="matrix(1 0 0 1.00003 -97.8861 0)"/><path d="M282.97 176.478C296.698 175.302 310.625 175.107 324.256 177.378 326.787 177.664 329.334 179.402 329.814 182.025 330.423 185.441 327.636 188.968 324.113 188.958 313.381 189.015 302.639 189.035 291.922 189.735 279.176 190.635 266.245 191.745 254.179 196.244 251.229 209.262 246.223 221.686 241.396 234.09 253.212 232.152 265.156 230.976 277.131 230.782 283.266 230.721 289.412 231.068 295.476 232.014 301.703 232.909 308.146 234.898 312.66 239.494 316.97 243.815 318.78 250.139 318.315 256.142 317.569 265.391 313.872 274.319 308.207 281.64 298.85 293.702 285.143 301.504 271.072 306.826 262.16 310.17 253.478 314.542 243.958 315.851 241.074 316.275 237.868 315.452 235.997 313.105 234.003 310.533 232.812 306.908 234.09 303.759 234.908 301.703 237.061 300.497 239.198 300.307 247.235 299.551 255.329 298.416 262.958 295.655 270.878 292.843 278.675 289.427 285.531 284.509 292.26 279.728 297.869 273.091 300.522 265.197 301.816 261.081 302.905 256.648 301.99 252.343 301.161 248.621 297.362 246.719 293.962 245.896 282.842 243.37 271.373 244.894 260.186 246.105 253.243 247.041 246.264 247.731 239.336 248.733 236.283 249.889 233.006 250.221 230 251.51 228.22 251.776 226.436 250.937 224.928 250.058 222.213 248.324 221.727 244.572 222.842 241.749 226.012 233.185 229.391 224.698 232.49 216.108 234.872 209.461 237.373 202.804 238.671 195.845 238.456 194.317 237.833 192.819 238.093 191.249 238.231 188.427 240.404 186.254 242.736 184.945 247.108 182.485 252.072 181.396 256.929 180.323 265.529 178.589 274.237 177.357 282.97 176.478Z" transform="matrix(1 0 0 1.00003 -97.8861 0)"/><path d="M375.411 180.665C376.444 179.331 377.646 177.93 379.399 177.592 382.36 177.05 385.458 177.889 387.989 179.453 396.952 178.129 406.334 178.185 414.944 181.294 425.313 184.95 434.097 192.481 439.952 201.72 450.704 218.629 452.678 240.323 446.987 259.348 442.436 274.175 434.077 287.868 422.844 298.574 416.473 304.541 409.279 309.777 401.16 313.09 393.184 316.342 384.338 317.763 375.79 316.444 368.836 315.38 362.348 311.633 358.038 306.065 351.58 297.925 349.049 287.351 348.885 277.131 348.671 253.821 353.39 230.583 361.765 208.868 363.421 204.645 365.237 200.478 367.256 196.413 365.911 195.487 364.556 194.378 364.045 192.767 363.115 190.231 364.132 187.358 366.039 185.563 368.626 183.089 372.006 181.626 375.411 180.665M384.17 196.986C377.4 209.139 372.916 222.448 369.843 235.987 366.898 248.969 365.001 262.242 365.006 275.571 365.037 281.778 365.968 288.149 368.913 293.686 370.513 296.913 373.167 299.689 376.572 300.998 381.245 302.797 386.47 302.475 391.246 301.279 399.304 299.152 406.211 294.095 412.183 288.446 418.385 282.591 423.575 275.699 427.691 268.234 431.592 261.24 434.583 253.652 435.739 245.696 437.247 235.179 435.227 224.156 429.854 214.973 424.971 206.404 417.102 199.215 407.51 196.433 399.861 194.194 391.87 195.968 384.17 196.986Z" transform="matrix(1 0 0 1.00003 -97.8861 0)"/><path d="M146.587 53.6601C158.368 53.3278 170.163 52.9392 181.933 53.6448 183.677 189.567 179.494 325.468 179.689 461.39 169.662 459.621 159.641 463.783 149.589 462.321 146.976 461.912 144.246 460.777 142.829 458.414 141.183 455.71 141.423 452.376 141.827 449.365 147.994 452.688 155.08 454.13 162.054 454.125 166.671 454.012 171.764 453.158 175.112 449.692 177.741 446.941 178.262 442.754 177.434 439.169 175.291 435.498 171.886 432.569 167.99 430.886 164.012 429.168 159.232 428.954 155.336 431.009 152.007 432.701 149.645 435.882 148.392 439.343 147.881 440.938 146.378 442.247 144.706 442.431 142.753 442.309 141.863 440.238 141.285 438.648 139.828 433.898 139.9 428.749 140.953 423.928 141.633 421.197 142.717 418.278 145.135 416.626 147.099 415.312 149.701 415.778 151.629 416.928 155.32 419.111 160.034 419.623 164.033 417.992 169.585 415.773 173.533 409.898 173.256 403.895 173.139 400.909 171.656 398.005 169.258 396.211 167.187 394.534 164.518 393.976 162.115 392.954 159.043 391.711 155.392 392.616 153.122 394.994 148.985 399.222 147.242 405.061 145.376 410.522 144.486 410.88 143.607 411.498 142.605 411.35 141.296 410.849 141.255 409.213 141.193 408.042 141.214 402.525 142.865 397.172 143.065 391.67 143.131 390.627 142.896 389.61 142.507 388.654 150.555 386.511 159.027 388.444 167.101 386.511 170.276 385.729 173.333 384.113 175.419 381.552 175.762 380.084 175.409 378.52 175.072 377.078 173.374 371.3 168.297 366.765 162.509 365.308 158.956 364.367 154.773 365.196 152.375 368.125 149.512 371.214 149.967 376.061 146.833 378.985 145.999 379.962 144.384 380.054 143.566 378.995 141.444 376.408 140.984 372.896 140.662 369.669 140.437 365.589 140.656 361.161 142.952 357.644 144.159 355.732 146.547 354.714 148.76 355.236 150.77 355.466 152.355 357.122 154.441 356.943 159.073 356.994 163.798 356.545 168.144 354.867 170.449 353.962 172.761 352.531 173.844 350.215 174.898 347.929 174.34 345.271 173.251 343.113 172.178 341.119 171.523 338.874 169.989 337.156 168.159 334.973 165.372 333.674 162.535 333.572 155.433 333.311 148.505 338.838 147.426 345.905 147.303 348.067 145.764 350.281 143.683 350.946 142.446 350.383 142.359 348.834 142.139 347.679 141.485 341.901 142.282 336.093 142.175 330.3 142.078 328.285 142.773 326.148 144.358 324.834 145.744 323.668 147.585 323.239 149.348 323.065 155.162 322.549 161.047 323.985 166.804 322.753 170.173 322.089 172.929 319.624 174.611 316.715 176.529 313.207 175.593 308.851 173.435 305.681 170.311 301.049 165.178 297.577 159.549 297.071 155.786 296.682 151.93 298.59 150.044 301.887 148.259 305.17 147.037 308.989 144.108 311.479 142.691 312.461 142.073 310.329 141.935 309.27 140.989 300.793 142.492 292.29 142.461 283.798 150.274 283.696 157.907 286.4 165.74 285.587 169.442 285.25 172.996 283.655 175.706 281.108 176.237 278.286 175.956 275.295 174.622 272.728 172.403 268.362 168.133 265.243 163.47 263.924 160.285 263.044 156.665 263.039 153.74 264.732 151.169 266.189 149.517 268.914 148.945 271.762 148.633 273.889 147.247 275.745 145.58 277.033 144.711 277.775 143.525 277.146 143.162 276.21 142.175 274.114 142.022 271.752 141.843 269.477 141.546 263.919 141.766 258.33 142.395 252.803 149.696 251.852 157.146 252.251 164.365 250.661 167.694 249.925 171.135 248.723 173.512 246.162 176.012 243.472 176.437 239.418 175.537 235.987 172.213 231.62 167.075 228.425 161.543 228.001 158.046 227.689 154.359 229.258 152.524 232.316 150.964 234.535 151 237.393 149.671 239.714 148.873 241.171 148.045 242.802 146.516 243.615 145.376 244.188 144.22 243.242 143.699 242.276 142.262 239.786 141.848 236.871 141.48 234.064 140.973 228.895 141.106 223.598 142.446 218.557 143.116 216.271 144 213.858 145.923 212.319 147.544 210.99 150.028 211.092 151.68 212.314 154.548 214.421 157.979 215.862 161.563 216.011 166.661 216.282 171.978 213.93 174.795 209.594 176.442 207.124 176.974 203.837 175.777 201.066 174.463 197.937 171.585 195.779 168.573 194.398 166.712 193.677 165.505 191.862 163.537 191.356 161.241 190.589 158.761 191.397 156.803 192.66 152.871 195.16 150.192 199.077 146.731 202.114 146.046 202.722 144.711 203.453 144.113 202.38 142.84 199.91 143.545 197.011 143.106 194.378 142.057 191.637 140.805 188.6 141.797 185.655 142.594 183.36 145.002 182.225 147.211 181.703 154.185 180.128 161.466 181.412 168.435 179.781 170.874 179.193 173.497 177.868 174.325 175.317 175.256 172.336 174.31 169.156 173.139 166.38 171.902 163.496 169.826 160.566 166.605 159.794 163.123 159.017 159.687 160.628 156.818 162.453 152.258 165.48 148.341 169.371 144.737 173.466 146.107 166.226 142.942 159.053 143.724 151.792 143.898 149.803 145.048 147.585 147.221 147.303 150.233 146.894 153.117 148.219 155.734 149.558 161.108 151.92 167.576 150.049 171.769 146.204 174.136 144.041 176.007 140.83 175.363 137.522 174.836 134.792 172.658 132.762 170.347 131.423 168.353 130.17 166.732 128.283 164.391 127.634 161.118 126.504 157.626 127.91 155.07 129.986 150.908 133.345 147.85 137.793 144.486 141.894 146.112 134.516 142.737 127.087 143.919 119.678 144.22 117.756 145.463 115.823 147.472 115.383 150.693 114.688 153.909 115.936 156.839 117.183 163.327 119.325 171.329 116.206 174.427 110.056 176.033 106.947 174.775 103.087 172.086 101.026 169.381 99.0526 166.497 96.9461 163.077 96.5269 160.536 96.2047 158.056 97.35 156.19 99.0066 152.074 102.632 149.44 107.801 144.634 110.669 146.168 102.846 142.799 95.039 143.826 87.1907 144.097 85.0483 145.304 82.7731 147.538 82.1902 150.79 81.3517 154.057 82.6299 157.054 83.7855 161.747 84.9972 166.911 83.9849 170.986 81.4233 173.405 79.8843 175.552 77.2358 175.164 74.1987 174.939 71.5656 172.822 69.776 171.723 67.5161 170.051 64.4842 166.625 62.3879 163.112 62.8122 158.378 63.3235 154.328 66.5447 151.695 70.364 150.494 72.1893 149.466 74.2805 147.554 75.477 146.823 75.9883 145.887 75.5332 145.631 74.7356 144.839 72.762 144.916 70.5737 144.916 68.4825 145.054 63.5076 145.652 58.5481 146.587 53.6601Z" fill="#FFFFFF" transform="matrix(1 0 0 1.00003 -97.8861 0)"/><path d="M193.141 53.6908C290.087 54.9332 387.14 50.1322 484.005 55.9865 483.642 191.085 482.43 326.189 479.73 461.267 386.47 464.933 293.16 459.728 199.885 461.666 197.574 461.774 195.145 462.469 192.926 461.462 190.543 460.47 189.362 457.893 188.907 455.5 187.69 449.252 188.948 442.846 188.074 436.572 187.47 434.082 187.624 431.505 187.527 428.969 184.755 311.704 190.579 194.439 188.401 77.1744 188.851 72.4143 188.692 67.6082 189.245 62.8583 189.643 59.5195 190.784 56.1655 193.141 53.6908M282.97 176.478C274.237 177.357 265.529 178.589 256.929 180.323 252.072 181.396 247.108 182.485 242.736 184.945 240.404 186.254 238.231 188.427 238.093 191.249 237.833 192.819 238.456 194.317 238.671 195.845 237.373 202.804 234.872 209.461 232.49 216.108 229.391 224.698 226.012 233.185 222.842 241.749 221.727 244.572 222.213 248.324 224.928 250.058 226.436 250.937 228.22 251.776 230 251.51 233.006 250.221 236.283 249.889 239.336 248.733 246.264 247.731 253.243 247.041 260.186 246.105 271.373 244.894 282.842 243.37 293.962 245.896 297.362 246.719 301.161 248.621 301.99 252.343 302.905 256.648 301.816 261.081 300.522 265.197 297.869 273.091 292.26 279.728 285.531 284.509 278.675 289.427 270.878 292.843 262.958 295.655 255.329 298.416 247.235 299.551 239.198 300.307 237.061 300.497 234.908 301.703 234.09 303.759 232.812 306.908 234.003 310.533 235.997 313.105 237.868 315.452 241.074 316.275 243.958 315.851 253.478 314.542 262.16 310.17 271.072 306.826 285.143 301.504 298.85 293.702 308.207 281.64 313.872 274.319 317.569 265.391 318.315 256.142 318.78 250.139 316.97 243.815 312.66 239.494 308.146 234.898 301.703 232.909 295.476 232.014 289.412 231.068 283.266 230.721 277.131 230.782 265.156 230.976 253.212 232.152 241.396 234.09 246.223 221.686 251.229 209.262 254.179 196.244 266.245 191.745 279.176 190.635 291.922 189.735 302.639 189.035 313.381 189.015 324.113 188.958 327.636 188.968 330.423 185.441 329.814 182.025 329.334 179.402 326.787 177.664 324.256 177.378 310.625 175.107 296.698 175.302 282.97 176.478M375.411 180.665C372.006 181.626 368.626 183.089 366.039 185.563 364.132 187.358 363.115 190.231 364.045 192.767 364.556 194.378 365.911 195.487 367.256 196.413 365.237 200.478 363.421 204.645 361.765 208.868 353.39 230.583 348.671 253.821 348.885 277.131 349.049 287.351 351.58 297.925 358.038 306.065 362.348 311.633 368.836 315.38 375.79 316.444 384.338 317.763 393.184 316.342 401.16 313.09 409.279 309.777 416.473 304.541 422.844 298.574 434.077 287.868 442.436 274.175 446.987 259.348 452.678 240.323 450.704 218.629 439.952 201.72 434.097 192.481 425.313 184.95 414.944 181.294 406.334 178.185 396.952 178.129 387.989 179.453 385.458 177.889 382.36 177.05 379.399 177.592 377.646 177.93 376.444 179.331 375.411 180.665Z" fill="#FFFFFF" transform="matrix(1 0 0 1.00003 -97.8861 0)"/><path d="M134.01 66.4987C134.828 66.7645 136.045 66.6316 136.479 67.5468 136.423 68.8097 134.792 69.7351 133.626 69.3517 133.038 68.416 133.749 67.419 134.01 66.4987Z" fill="#FFFFFF" transform="matrix(1 0 0 1.00003 -97.8861 0)"/><path d="M159.498 68.549C161.057 68.1655 162.857 67.2758 164.375 68.2166 165.352 70.1902 163.097 72.7415 161.062 72.7876 159.38 72.1433 159.651 69.9959 159.498 68.549Z" fill="#FFFFFF" transform="matrix(1 0 0 1.00003 -97.8861 0)"/><path d="M134.143 102.095C135.273 102.581 136.597 102.928 137.348 103.981 137.982 105.173 136.495 106.032 135.538 106.308 134.47 106.656 132.542 106.835 132.307 105.362 132.466 104.068 133.411 103.097 134.143 102.095Z" fill="#FFFFFF" transform="matrix(1 0 0 1.00003 -97.8861 0)"/><path d="M160.019 105.367C159.268 104.058 160.709 102.887 161.369 101.885 162.494 102.407 164.738 102.54 164.616 104.217 163.567 105.505 161.553 106.068 160.019 105.367Z" fill="#FFFFFF" transform="matrix(1 0 0 1.00003 -97.8861 0)"/><path d="M132.123 134.792C131.653 133.268 133.345 132.266 134.276 131.377 135.16 132.292 136.985 133.314 136.362 134.843 135.344 135.994 133.084 136.024 132.123 134.792Z" fill="#FFFFFF" transform="matrix(1 0 0 1.00003 -97.8861 0)"/><path d="M157.907 136.091C158.628 134.649 160.157 134.035 161.512 133.36 162.463 134.045 164.651 134.628 164.212 136.096 162.484 137.446 159.702 137.297 157.907 136.091Z" fill="#FFFFFF" transform="matrix(1 0 0 1.00003 -97.8861 0)"/><path d="M132.716 166.876C131.637 165.429 133.381 163.905 134.189 162.775 135.426 163.404 137.717 163.854 137.471 165.674 136.428 167.049 134.276 167.673 132.716 166.876Z" fill="#FFFFFF" transform="matrix(1 0 0 1.00003 -97.8861 0)"/><path d="M159.559 166.932C160.97 166.579 163.608 165.117 164.299 167.131 164.017 168.793 162.698 170.536 160.95 170.756 159.314 170.368 159.651 168.215 159.559 166.932Z" fill="#FFFFFF" transform="matrix(1 0 0 1.00003 -97.8861 0)"/><path d="M134.204 194.163C135.17 195.012 136.633 195.871 136.5 197.354 135.692 198.826 133.238 198.821 132.159 197.66 131.571 196.132 133.309 195.104 134.204 194.163Z" fill="#FFFFFF" transform="matrix(1 0 0 1.00003 -97.8861 0)"/><path d="M384.17 196.986C391.87 195.968 399.861 194.194 407.51 196.433 417.102 199.215 424.971 206.404 429.854 214.973 435.227 224.156 437.247 235.179 435.739 245.696 434.583 253.652 431.592 261.24 427.691 268.234 423.575 275.699 418.385 282.591 412.183 288.446 406.211 294.095 399.304 299.152 391.246 301.279 386.47 302.475 381.245 302.797 376.572 300.998 373.167 299.689 370.513 296.913 368.913 293.686 365.968 288.149 365.037 281.778 365.006 275.571 365.001 262.242 366.898 248.969 369.843 235.987 372.916 222.448 377.4 209.139 384.17 196.986Z" fill="#FFFFFF" transform="matrix(1 0 0 1.00003 -97.8861 0)"/><path d="M157.749 198.131C159.216 197.839 161.031 196.996 162.34 198.121 163.118 199.864 161.256 202.047 159.467 202.078 157.841 201.551 157.979 199.496 157.749 198.131Z" fill="#FFFFFF" transform="matrix(1 0 0 1.00003 -97.8861 0)"/><path d="M134.347 232.06C135.646 233.298 137.047 234.816 136.95 236.744 136.781 239.29 132.547 240.67 131.325 238.226 130.881 235.757 132.941 233.824 134.347 232.06Z" fill="#FFFFFF" transform="matrix(1 0 0 1.00003 -97.8861 0)"/><path d="M159.631 235.951C161.742 235.547 163.951 234.704 166.109 235.276 167.075 235.731 166.277 236.831 165.807 237.362 164.104 239.142 161.936 240.537 159.574 241.253 158.787 241.524 157.422 241.468 157.575 240.302 157.795 238.676 158.777 237.306 159.631 235.951Z" fill="#FFFFFF" transform="matrix(1 0 0 1.00003 -97.8861 0)"/><path d="M131.74 269.937C131.351 268.055 133.059 266.69 134.173 265.453 135.273 266.562 136.643 267.743 136.735 269.425 136.469 271.747 132.614 271.915 131.74 269.937Z" fill="#FFFFFF" transform="matrix(1 0 0 1.00003 -97.8861 0)"/><path d="M159.278 269.154C160.576 268.945 162.075 269.563 163.046 270.468 162.944 272.636 159.774 273.454 158.02 272.902 156.941 271.69 158.521 270.121 159.278 269.154Z" fill="#FFFFFF" transform="matrix(1 0 0 1.00003 -97.8861 0)"/><path d="M130.19 307.312C130.139 305.042 131.279 302.987 132.276 301.023 133.151 301.944 134.143 302.895 134.439 304.183 135.002 306.07 133.764 308.34 131.826 308.769 130.932 309.02 130.155 308.166 130.19 307.312Z" fill="#FFFFFF" transform="matrix(1 0 0 1.00003 -97.8861 0)"/><path d="M157.381 304.919C159.533 304.613 162.003 303.723 164.033 304.858 164.109 305.088 164.258 305.558 164.329 305.789 163.164 308.631 160.244 310.339 157.575 311.587 156.604 312.016 154.594 312.466 154.589 310.85 154.835 308.621 156.256 306.78 157.381 304.919Z" fill="#FFFFFF" transform="matrix(1 0 0 1.00003 -97.8861 0)"/><path d="M132.128 340.659C133.094 341.553 134.715 342.479 134.342 344.033 133.325 345.291 130.973 345.322 129.976 344.028 129.659 342.499 131.208 341.584 132.128 340.659Z" fill="#FFFFFF" transform="matrix(1 0 0 1.00003 -97.8861 0)"/><path d="M157.969 344.008C156.931 342.683 158.72 341.201 159.406 340.096 160.668 340.536 162.734 340.51 163.112 342.111 162.259 343.864 159.712 344.667 157.969 344.008Z" fill="#FFFFFF" transform="matrix(1 0 0 1.00003 -97.8861 0)"/><path d="M156.977 374.373C157.473 373.238 158.388 372.425 159.385 371.745 160.126 372.471 161.41 373.064 161.354 374.286 160.341 375.641 158.107 375.544 156.977 374.373Z" fill="#FFFFFF" transform="matrix(1 0 0 1.00003 -97.8861 0)"/><path d="M129.577 376.296C129.531 374.557 131.014 373.351 132.082 372.18 133.187 373.32 134.674 374.568 134.618 376.316 134.168 378.617 129.991 378.607 129.577 376.296Z" fill="#FFFFFF" transform="matrix(1 0 0 1.00003 -97.8861 0)"/><path d="M155.08 404.437C155.1 402.346 156.317 400.541 157.335 398.803 159.518 399.13 161.967 399.243 163.736 400.725 164.564 401.441 164.406 402.709 163.721 403.461 162.172 405.255 159.799 406.324 157.447 406.416 156.292 406.513 155.014 405.69 155.08 404.437Z" fill="#FFFFFF" transform="matrix(1 0 0 1.00003 -97.8861 0)"/><path d="M129.572 406.738C128.089 405.337 129.485 403.169 130.267 401.758 131.806 402.356 134.051 402.571 134.639 404.386 134.398 406.523 131.366 407.597 129.572 406.738Z" fill="#FFFFFF" transform="matrix(1 0 0 1.00003 -97.8861 0)"/><path d="M130.226 434.854C131.576 434.992 133.365 434.767 134.199 436.112 134.521 437.927 132.568 439.573 130.855 439.589 129.019 438.765 129.996 436.357 130.226 434.854Z" fill="#FFFFFF" transform="matrix(1 0 0 1.00003 -97.8861 0)"/><path d="M159.298 436.782C160.367 436.725 161.952 436.02 162.647 437.16 162.703 438.638 161.164 440.156 159.677 440.1 158.623 439.328 159.268 437.85 159.298 436.782Z" fill="#FFFFFF" transform="matrix(1 0 0 1.00003 -97.8861 0)"/></g></svg>