<svg width="428" height="518" xmlns="http://www.w3.org/2000/svg" xmlns:xlink="http://www.w3.org/1999/xlink" xml:space="preserve" overflow="hidden"><defs><clipPath id="clip0"><rect x="0" y="0" width="426" height="532"/></clipPath></defs><g clip-path="url(#clip0)"><path d="M137.831 45.0602C254.269 49.6288 370.825 48.3518 487.324 48.9725 490.061 129.32 486.698 209.687 484.821 290.009 483.427 347.961 482.72 405.99 485.67 463.911 391.643 466.709 297.554 466.246 203.516 464.583 180.21 464.165 156.904 463.784 133.609 463.153 135.369 459.348 134.891 454.932 133.354 451.141 131.579 446.344 128.562 442.009 127.509 436.952 126.852 433.722 127.575 429.982 130.129 427.729 132.494 425.597 134.377 422.341 133.405 419.075 132.037 414.547 128.109 411.555 125.27 407.984 123.566 405.918 121.841 403.237 122.716 400.449 123.713 397.621 126.318 395.779 128.872 394.441 131.106 393.276 133.064 390.844 132.372 388.188 131.441 384.495 128.648 381.707 126.715 378.532 125.341 376.35 123.978 373.669 124.929 371.054 126.089 367.859 129.895 366.902 131.411 363.951 133.181 361.143 132.408 357.602 131.034 354.804 129.086 350.495 125.804 346.679 125.097 341.882 124.634 338.875 126.333 335.985 128.709 334.256 131.838 331.966 133.293 327.789 132.627 324.014 131.441 316.938 126.104 311.362 124.929 304.285 124.273 300.642 125.982 296.944 128.801 294.664 131.523 292.507 132.962 288.844 132.301 285.415 131.172 279.219 126.318 274.508 124.95 268.392 124.329 265.701 125.158 262.791 127.036 260.787 129.02 258.35 132.383 257.327 133.853 254.437 134.769 252.774 134.301 250.723 133.212 249.263 130.266 245.158 125.423 242.746 122.91 238.295 121.709 236.26 121.999 233.624 123.383 231.757 124.421 230.048 126.379 229.33 127.829 228.059 131.675 224.96 134.107 220.183 134.255 215.233 134.529 208.202 131.172 201.502 126.476 196.445 127.88 191.306 131.482 187.19 133.364 182.266 134.265 179.992 134.331 177.153 132.637 175.225 130.968 173.017 127.987 172.472 126.283 170.305 124.446 168.438 123.337 165.629 124.293 163.055 126.166 158.008 131.161 155.037 133.512 150.275 134.367 148.576 134.484 146.46 133.558 144.766 132.082 141.769 128.572 140.523 127.091 137.531 125.998 135.583 126.171 133.156 127.097 131.177 128.913 126.939 132.81 123.891 134.229 119.455 135.018 116.983 133.314 114.576 131.248 113.376 128.47 111.748 125.596 109.824 124.171 106.823 123.149 104.706 123.561 102.188 124.624 100.173 127.392 94.8417 132.678 91.1176 134.682 85.3483 135.888 82.0211 134.499 78.3886 132.118 75.9618 129.885 73.6725 128.368 70.3961 129.172 67.1604 130.317 62.2764 133.914 58.5269 136.081 54.1109 137.577 51.3586 138.309 48.184 137.831 45.0602M191.769 53.0629C187.486 57.6722 187.633 64.3674 187.45 70.2435 187.44 72.7821 186.987 75.3056 187.089 77.8442 189.271 195.9 183.258 313.956 186.361 432.002 187.603 437.66 186.799 443.469 187.104 449.198 187.338 452.495 187.679 456.412 190.518 458.59 192.812 460.324 195.778 459.597 198.408 459.404 291.256 457.465 384.139 462.66 476.966 459.007 479.642 324.462 480.878 189.892 481.209 55.3268 384.815 49.5322 288.244 54.2686 191.769 53.0629M145.478 53.0273C144.608 57.5196 144.063 62.0831 143.845 66.6568 143.789 68.9411 143.692 71.2915 144.328 73.5147 144.547 74.2321 145.127 75.2598 146.037 74.9189 148.337 73.8505 149.37 71.3475 150.748 69.3786 153.44 65.6393 157.51 62.4596 162.241 62.1187 165.629 61.8236 168.845 63.8942 170.473 66.789 171.612 69.1039 173.805 70.9964 173.932 73.7284 174.192 76.8064 171.908 79.3857 169.43 80.8815 165.375 83.2828 160.298 84.2647 155.719 82.9674 152.687 81.7922 149.309 80.4897 146.058 81.5632 144.023 82.2806 143.005 84.4326 142.731 86.4371 141.723 94.2566 145.035 102.02 143.555 109.814 148.006 107.092 150.631 102.432 154.289 98.8608 156.146 97.0293 158.604 95.5336 161.305 95.676 164.48 95.7829 167.171 97.6601 169.725 99.3441 171.902 100.794 173.8 103.078 173.876 105.805 173.983 108.96 171.948 111.748 169.552 113.599 165.451 116.789 159.591 118.066 154.732 115.914 152.036 114.764 148.968 113.793 146.043 114.591 144.069 115.166 143.026 117.196 142.756 119.104 141.8 126.369 144.893 133.593 143.448 140.833 146.775 136.773 149.797 132.362 153.918 129.045 156.391 127.046 159.723 125.642 162.913 126.618 165.624 127.285 167.42 129.564 169.771 130.892 172.208 132.377 174.283 134.911 174.243 137.897 174.192 141.235 172.019 144.125 169.471 146.093 165.375 149.253 159.565 150.693 154.681 148.581 152.036 147.233 149.115 145.87 146.068 146.292 144.165 146.567 142.985 148.383 142.725 150.163 141.637 157.591 145.081 164.973 143.621 172.386 147.213 168.255 151.166 164.363 155.744 161.325 158.67 159.479 162.236 157.84 165.752 158.827 168.936 159.784 170.88 162.796 172.075 165.711 173.169 168.453 174.039 171.618 172.966 174.497 171.999 176.949 169.389 178.135 166.983 178.699 160.277 180.19 153.302 179.076 146.587 180.439 144.257 180.933 141.642 181.996 140.741 184.402 139.688 187.368 140.97 190.441 142.023 193.209 142.471 195.865 141.688 198.856 143.122 201.298 143.88 202.26 145.081 201.303 145.783 200.754 149.151 197.717 151.827 193.881 155.709 191.428 157.652 190.187 160.11 189.414 162.379 190.177 164.347 190.711 165.558 192.542 167.446 193.245 170.758 194.771 173.948 197.335 174.909 201.003 175.896 204.697 174.054 208.573 171.261 210.98 166.678 215.101 159.611 215.828 154.116 213.162 151.69 212.252 149.838 209.698 147.004 210.13 144.13 210.542 142.629 213.447 141.769 215.925 139.795 222.147 139.754 228.878 140.767 235.288 141.296 237.659 141.713 240.391 143.656 242.064 145.457 243.158 146.974 241.037 147.803 239.673 149.873 236.814 149.644 232.958 151.914 230.221 153.908 227.514 157.444 226.334 160.715 226.695 166.087 227.245 171.043 230.363 174.283 234.616 174.98 237.303 174.884 240.314 173.617 242.828 172.096 245.799 168.987 247.513 165.925 248.505 157.942 250.968 149.482 250.276 141.296 251.39 140.634 258.375 140.131 265.498 141.316 272.452 141.606 273.841 142.349 276.517 144.272 275.617 146.195 274.33 147.589 272.193 147.91 269.888 148.739 265.686 152.397 262.231 156.716 261.941 162.628 261.412 168.585 264.429 172.101 269.13 174.339 272.096 175.25 276.014 174.4 279.656 171.735 282.032 168.387 283.63 164.815 283.996 156.935 284.896 149.237 282.144 141.377 282.241 141.337 289.928 140.273 297.59 140.599 305.282 140.736 306.768 140.741 308.411 141.606 309.698 142.262 310.583 143.285 309.698 143.799 309.133 145.961 306.676 147.253 303.629 148.658 300.714 150.352 297.417 153.964 295.265 157.683 295.428 163.539 295.656 168.941 299.238 172.182 304.015 174.38 307.226 175.301 311.697 173.266 315.213 171.618 317.93 169.043 320.275 165.874 320.972 159.346 322.544 152.575 320.306 146.043 321.735 143.122 322.315 140.996 325.113 141.082 328.069 141.24 334.047 140.36 340.05 141.072 346.018 141.276 347.091 141.398 348.47 142.461 349.07 144.17 348.938 145.147 347.158 145.981 345.85 146.348 344.074 146.526 342.228 147.37 340.59 149.731 335.487 155.124 331.854 160.776 331.808 163.803 331.763 166.84 333.07 168.784 335.41 170.285 337.105 170.936 339.318 171.989 341.281 173.108 343.5 173.678 346.247 172.518 348.567 171.18 351.187 168.372 352.591 165.696 353.476 161.31 354.86 156.645 355.282 152.066 355.018 150.067 354.417 148.22 353.034 146.017 353.293 143.122 353.415 141.26 356.096 140.487 358.625 139.073 363.254 139.246 368.291 140.451 372.946 141.031 374.732 141.657 376.858 143.473 377.764 144.974 378.186 146.104 376.782 146.831 375.678 148.805 372.941 148.693 369.253 150.901 366.648 153.109 363.595 157.235 362.486 160.812 363.315 168.189 364.882 174.695 371.735 174.304 379.54 172.203 381.915 169.41 383.645 166.337 384.429 158.192 386.555 149.594 384.5 141.454 386.677 141.789 387.649 142.039 388.667 141.978 389.715 141.764 395.179 140.136 400.5 140.105 405.979 140.172 407.145 140.202 408.717 141.454 409.271 142.486 409.47 143.392 408.818 144.298 408.421 145.824 403.772 147.375 399.004 150.26 394.985 151.898 392.686 154.3 390.661 157.22 390.437 159.876 390.157 162.231 391.587 164.673 392.365 168.209 393.581 171.195 396.608 171.836 400.368 173.093 407.506 167.843 414.979 160.822 416.531 157.332 417.309 153.567 416.653 150.494 414.842 148.556 413.687 145.931 413.229 143.972 414.577 141.418 416.394 140.365 419.573 139.714 422.504 138.854 427.016 138.818 431.773 140.116 436.21 140.685 437.853 141.51 439.979 143.489 440.249 145.407 440.142 146.938 438.509 147.447 436.744 149.09 432.251 152.956 428.451 157.769 427.632 165.08 426.33 172.426 430.751 176.135 436.907 177.107 440.743 176.374 445.332 173.281 448.048 169.761 451.157 164.815 451.849 160.283 451.894 153.542 451.798 146.709 450.373 140.746 447.153 140.339 450.134 140.105 453.426 141.713 456.117 143.092 458.457 145.773 459.617 148.357 460.034 158.395 461.54 168.402 457.358 178.414 459.124 178.216 323.75 182.383 188.386 180.648 53.0069 168.931 52.3049 157.194 52.6864 145.478 53.0273M133.222 68.7935C134.183 68.6256 135.094 68.0406 135.481 67.1146 135.277 65.9649 133.858 66.1175 133.024 65.7715 132.678 66.6924 131.579 68.6002 133.222 68.7935M158.334 67.8472C158.461 69.2921 158.227 71.2457 159.743 72.0546 161.32 72.2022 162.526 70.8336 163.193 69.5617 163.615 68.8291 163.701 67.5827 162.719 67.2622 161.244 66.8247 159.748 67.4657 158.334 67.8472M133.039 101.288C132.459 102.112 131.782 102.895 131.421 103.852 131.07 104.493 131.421 105.429 132.169 105.571 133.838 105.978 135.756 105.281 136.646 103.775 135.979 102.32 134.453 101.735 133.039 101.288M158.934 104.569C160.45 105.169 163.126 104.661 163.462 102.824 162.78 101.669 161.315 101.501 160.181 101.059 159.535 102.061 157.983 103.333 158.934 104.569M131.039 133.777C132.031 135.084 134.372 135.048 135.399 133.787 135.745 132.25 134.133 131.329 133.191 130.424 132.271 131.334 130.714 132.271 131.039 133.777M156.726 134.891C158.405 136.631 161.559 136.351 163.36 134.916 162.735 133.67 161.498 133.024 160.323 132.403 158.995 133.024 157.662 133.721 156.726 134.891M133.029 161.738C132.321 162.908 130.607 164.383 131.67 165.787 133.242 166.571 135.694 165.996 136.458 164.322 136.28 162.669 134.326 162.241 133.029 161.738M158.359 165.879C158.492 167.166 158.161 169.089 159.677 169.679 161.544 169.435 163.554 167.227 162.826 165.324 161.371 164.556 159.779 165.451 158.359 165.879M131.06 196.328C132.062 197.671 134.916 197.65 135.511 195.921 135.328 194.578 134.117 193.794 133.197 192.96 132.281 193.865 130.673 194.817 131.06 196.328M156.589 196.908C156.808 198.266 156.67 200.331 158.298 200.845 160.094 200.83 161.9 198.637 161.158 196.918 159.881 195.778 158.049 196.623 156.589 196.908M133.354 230.689C131.899 232.449 129.727 234.484 130.347 236.982 131.762 239.343 136.03 237.72 135.903 235.064 135.827 233.273 134.494 231.925 133.354 230.689M158.385 234.637C157.606 236.188 155.917 237.933 156.67 239.734 158.868 240.487 161.041 238.697 162.842 237.567 163.859 236.667 165.599 235.669 165.243 234.092 163.035 233.166 160.603 234.184 158.385 234.637M133.12 263.976C132.037 265.141 130.571 266.378 130.627 268.128 131.146 270.371 135.196 270.351 135.649 268.092 135.705 266.342 134.25 265.106 133.12 263.976M158.232 267.446C157.53 268.469 156.457 269.446 156.462 270.773 156.762 271.944 158.339 271.628 159.214 271.409 160.283 271.048 161.844 270.504 161.875 269.166 161.178 267.868 159.479 267.843 158.232 267.446M131.044 299.838C130.073 301.502 129.294 303.354 129.142 305.292 129.04 306.198 129.656 307.373 130.724 307.134 133.425 306.584 134.367 302.911 132.601 300.912 132.23 300.54 131.543 299.248 131.044 299.838M156.233 303.267C155.078 305.175 153.587 307.073 153.435 309.378 153.557 310.466 154.829 310.441 155.627 310.171 158.176 309.362 160.466 307.755 162.241 305.77 162.913 305.028 163.773 303.461 162.404 302.937 160.374 302.347 158.253 302.932 156.233 303.267M156.752 342.212C158.66 342.955 160.964 341.912 162.094 340.284 161.31 338.875 159.641 338.666 158.237 338.32 157.52 339.435 155.851 340.813 156.752 342.212M131.05 338.88C130.185 339.806 128.653 340.707 128.943 342.182 129.869 343.601 132.805 343.571 133.395 341.856 133.288 340.472 132.016 339.684 131.05 338.88M155.811 372.458C156.864 373.521 158.69 373.663 159.876 372.743 160.659 371.949 159.647 371.018 159.046 370.514 157.754 369.09 156.396 371.43 155.811 372.458M130.973 370.285C130.027 371.384 128.826 372.427 128.541 373.928 128.353 376.584 133.018 376.864 133.558 374.452 133.644 372.677 132.179 371.374 130.973 370.285M156.172 396.791C155.154 398.526 153.949 400.327 153.923 402.413 153.867 403.609 155.037 404.423 156.151 404.367 158.497 404.336 160.847 403.273 162.429 401.548 163.182 400.78 163.427 399.422 162.516 398.679 160.751 397.229 158.334 397.112 156.172 396.791M129.172 399.752C128.496 401.212 127.081 403.242 128.511 404.677 130.286 405.552 133.263 404.509 133.593 402.423 133.069 400.541 130.744 400.292 129.172 399.752M129.193 432.714C128.989 434.134 128.211 435.94 129.32 437.166 131.106 437.975 133.487 435.828 133.156 433.956 132.321 432.618 130.551 432.816 129.193 432.714M158.146 434.592C158.059 435.675 157.535 436.993 158.4 437.899 159.957 438.077 161.458 436.479 161.498 434.983 160.725 433.895 159.224 434.556 158.146 434.592Z" transform="matrix(1 0 0 1.00066 -100.977 0)"/><path d="M382.333 191.403C402.357 187.837 422.941 186.025 443.174 188.839 445.489 189.185 448.125 189.393 449.763 191.296 452.134 193.687 451.213 198.037 448.491 199.767 447.214 200.611 445.637 200.794 444.141 200.784 429.692 200.723 415.218 200.998 400.851 202.595 392.319 203.364 383.874 205.078 375.81 207.993 372.865 220.941 367.899 233.309 363.087 245.646 372.239 244.166 381.458 243.082 390.722 242.634 399.223 242.141 407.796 242.217 416.231 243.479 422.483 244.328 428.97 246.17 433.63 250.657 438.163 254.956 440.112 261.433 439.628 267.573 438.957 275.983 435.823 284.138 430.985 291.032 422.01 303.735 408.137 311.998 393.866 317.538 384.637 320.947 375.693 325.541 365.864 326.975 362.847 327.474 359.444 326.609 357.561 324.07 355.679 321.521 354.565 317.996 355.837 314.943 356.686 312.822 358.955 311.657 361.148 311.504 369.777 310.731 378.451 309.352 386.555 306.172 395.245 302.952 403.797 298.892 410.838 292.767 416.953 287.44 421.537 280.231 423.109 272.228 423.75 268.901 424.279 265.208 422.712 262.058 421.115 259.25 417.874 257.973 414.883 257.266 407.78 255.77 400.454 255.811 393.256 256.442 383.035 257.246 372.9 258.823 362.715 259.932 358.788 260.247 355.552 263.178 351.558 263.132 348.989 262.903 346.155 261.885 344.843 259.51 343.729 257.434 343.937 254.91 344.797 252.789 348.75 242.268 352.876 231.813 356.569 221.195 358.08 216.693 359.591 212.15 360.385 207.459 359.82 205.368 359.393 203.079 360.268 201.008 361.408 198.337 364.074 196.78 366.607 195.636 371.618 193.489 377.006 192.431 382.333 191.403Z" transform="matrix(1 0 0 1.00066 -100.977 0)"/><path d="M275.703 189.205C289.729 187.735 303.975 187.353 317.975 189.322 320.311 189.688 322.987 189.841 324.671 191.744 327.199 194.206 326.141 198.836 323.17 200.454 321.913 201.166 320.438 201.303 319.023 201.293 302.052 201.207 285.018 201.644 268.194 204.066 262.247 204.915 256.432 206.533 250.769 208.512 247.844 221.46 242.848 233.812 238.061 246.155 249.686 244.247 261.443 243.087 273.226 242.868 279.824 242.782 286.443 243.174 292.955 244.262 299.04 245.239 305.297 247.432 309.525 252.128 313.554 256.528 315.106 262.735 314.562 268.591 313.727 277.433 310.227 285.955 304.875 293.021 294.919 306.172 279.829 314.145 264.623 319.69 256.818 322.748 249.08 326.344 240.706 327.499 237.847 327.932 234.657 327.174 232.764 324.869 230.74 322.341 229.549 318.764 230.729 315.615 231.523 313.448 233.787 312.186 236.005 312.028 243.871 311.285 251.782 310.171 259.25 307.5 267.248 304.682 275.128 301.248 282.037 296.272 288.737 291.5 294.308 284.871 296.928 276.995 298.195 272.925 299.264 268.54 298.343 264.282 297.513 260.659 293.84 258.767 290.523 257.943 282.668 256.116 274.508 256.35 266.53 257.093 256.854 257.927 247.254 259.393 237.603 260.451 234.016 260.812 230.933 262.949 227.428 263.605 225.199 263.763 222.91 263.005 221.145 261.651 218.753 259.677 218.596 256.096 219.725 253.405 223.856 242.39 228.201 231.447 232.012 220.315 233.248 216.627 234.357 212.888 235.186 209.087 235.69 207.541 234.632 206.07 234.728 204.513 234.596 202.168 235.746 199.894 237.598 198.49 240.803 195.982 244.802 194.832 248.668 193.779 257.541 191.545 266.632 190.345 275.703 189.205Z" transform="matrix(1 0 0 1.00066 -100.977 0)"/><path d="M191.769 53.0629C288.244 54.2686 384.815 49.5322 481.209 55.3268 480.878 189.892 479.642 324.462 476.966 459.007 384.139 462.66 291.256 457.465 198.408 459.404 195.778 459.597 192.812 460.324 190.518 458.59 187.679 456.412 187.338 452.495 187.104 449.198 186.799 443.469 187.603 437.66 186.361 432.002 183.258 313.956 189.271 195.9 187.089 77.8442 186.987 75.3056 187.44 72.7821 187.45 70.2435 187.633 64.3674 187.486 57.6722 191.769 53.0629M382.333 191.403C377.006 192.431 371.618 193.489 366.607 195.636 364.074 196.78 361.408 198.337 360.268 201.008 359.393 203.079 359.82 205.368 360.385 207.459 359.591 212.15 358.08 216.693 356.569 221.195 352.876 231.813 348.75 242.268 344.797 252.789 343.937 254.91 343.729 257.434 344.843 259.51 346.155 261.885 348.989 262.903 351.558 263.132 355.552 263.178 358.788 260.247 362.715 259.932 372.9 258.823 383.035 257.246 393.256 256.442 400.454 255.811 407.78 255.77 414.883 257.266 417.874 257.973 421.115 259.25 422.712 262.058 424.279 265.208 423.75 268.901 423.109 272.228 421.537 280.231 416.953 287.44 410.838 292.767 403.797 298.892 395.245 302.952 386.555 306.172 378.451 309.352 369.777 310.731 361.148 311.504 358.955 311.657 356.686 312.822 355.837 314.943 354.565 317.996 355.679 321.521 357.561 324.07 359.444 326.609 362.847 327.474 365.864 326.975 375.693 325.541 384.637 320.947 393.866 317.538 408.137 311.998 422.01 303.735 430.985 291.032 435.823 284.138 438.957 275.983 439.628 267.573 440.112 261.433 438.163 254.956 433.63 250.657 428.97 246.17 422.483 244.328 416.231 243.479 407.796 242.217 399.223 242.141 390.722 242.634 381.458 243.082 372.239 244.166 363.087 245.646 367.899 233.309 372.865 220.941 375.81 207.993 383.874 205.078 392.319 203.364 400.851 202.595 415.218 200.998 429.692 200.723 444.141 200.784 445.637 200.794 447.214 200.611 448.491 199.767 451.213 198.037 452.134 193.687 449.763 191.296 448.125 189.393 445.489 189.185 443.174 188.839 422.941 186.025 402.357 187.837 382.333 191.403M275.703 189.205C266.632 190.345 257.541 191.545 248.668 193.779 244.802 194.832 240.803 195.982 237.598 198.49 235.746 199.894 234.596 202.168 234.728 204.513 234.632 206.07 235.69 207.541 235.186 209.087 234.357 212.888 233.248 216.627 232.012 220.315 228.201 231.447 223.856 242.39 219.725 253.405 218.596 256.096 218.753 259.677 221.145 261.651 222.91 263.005 225.199 263.763 227.428 263.605 230.933 262.949 234.016 260.812 237.603 260.451 247.254 259.393 256.854 257.927 266.53 257.093 274.508 256.35 282.668 256.116 290.523 257.943 293.84 258.767 297.513 260.659 298.343 264.282 299.264 268.54 298.195 272.925 296.928 276.995 294.308 284.871 288.737 291.5 282.037 296.272 275.128 301.248 267.248 304.682 259.25 307.5 251.782 310.171 243.871 311.285 236.005 312.028 233.787 312.186 231.523 313.448 230.729 315.615 229.549 318.764 230.74 322.341 232.764 324.869 234.657 327.174 237.847 327.932 240.706 327.499 249.08 326.344 256.818 322.748 264.623 319.69 279.829 314.145 294.919 306.172 304.875 293.021 310.227 285.955 313.727 277.433 314.562 268.591 315.106 262.735 313.554 256.528 309.525 252.128 305.297 247.432 299.04 245.239 292.955 244.262 286.443 243.174 279.824 242.782 273.226 242.868 261.443 243.087 249.686 244.247 238.061 246.155 242.848 233.812 247.844 221.46 250.769 208.512 256.432 206.533 262.247 204.915 268.194 204.066 285.018 201.644 302.052 201.207 319.023 201.293 320.438 201.303 321.913 201.166 323.17 200.454 326.141 198.836 327.199 194.206 324.671 191.744 322.987 189.841 320.311 189.688 317.975 189.322 303.975 187.353 289.729 187.735 275.703 189.205Z" fill="#FFFFFF" transform="matrix(1 0 0 1.00066 -100.977 0)"/><path d="M145.478 53.0273C157.194 52.6864 168.931 52.3049 180.648 53.0069 182.383 188.386 178.216 323.75 178.414 459.124 168.402 457.358 158.395 461.54 148.357 460.034 145.773 459.617 143.092 458.457 141.713 456.117 140.105 453.426 140.339 450.134 140.746 447.153 146.709 450.373 153.542 451.798 160.283 451.894 164.815 451.849 169.761 451.157 173.281 448.048 176.374 445.332 177.107 440.743 176.135 436.907 172.426 430.751 165.08 426.33 157.769 427.632 152.956 428.451 149.09 432.251 147.447 436.744 146.938 438.509 145.407 440.142 143.489 440.249 141.51 439.979 140.685 437.853 140.116 436.21 138.818 431.773 138.854 427.016 139.714 422.504 140.365 419.573 141.418 416.394 143.972 414.577 145.931 413.229 148.556 413.687 150.494 414.842 153.567 416.653 157.332 417.309 160.822 416.531 167.843 414.979 173.093 407.506 171.836 400.368 171.195 396.608 168.209 393.581 164.673 392.365 162.231 391.587 159.876 390.157 157.22 390.437 154.3 390.661 151.898 392.686 150.26 394.985 147.375 399.004 145.824 403.772 144.298 408.421 143.392 408.818 142.486 409.47 141.454 409.271 140.202 408.717 140.172 407.145 140.105 405.979 140.136 400.5 141.764 395.179 141.978 389.715 142.039 388.667 141.789 387.649 141.454 386.677 149.594 384.5 158.192 386.555 166.337 384.429 169.41 383.645 172.203 381.915 174.304 379.54 174.695 371.735 168.189 364.882 160.812 363.315 157.235 362.486 153.109 363.595 150.901 366.648 148.693 369.253 148.805 372.941 146.831 375.678 146.104 376.782 144.974 378.186 143.473 377.764 141.657 376.858 141.031 374.732 140.451 372.946 139.246 368.291 139.073 363.254 140.487 358.625 141.26 356.096 143.122 353.415 146.017 353.293 148.22 353.034 150.067 354.417 152.066 355.018 156.645 355.282 161.31 354.86 165.696 353.476 168.372 352.591 171.18 351.187 172.518 348.567 173.678 346.247 173.108 343.5 171.989 341.281 170.936 339.318 170.285 337.105 168.784 335.41 166.84 333.07 163.803 331.763 160.776 331.808 155.124 331.854 149.731 335.487 147.37 340.59 146.526 342.228 146.348 344.074 145.981 345.85 145.147 347.158 144.17 348.938 142.461 349.07 141.398 348.47 141.276 347.091 141.072 346.018 140.36 340.05 141.24 334.047 141.082 328.069 140.996 325.113 143.122 322.315 146.043 321.735 152.575 320.306 159.346 322.544 165.874 320.972 169.043 320.275 171.618 317.93 173.266 315.213 175.301 311.697 174.38 307.226 172.182 304.015 168.941 299.238 163.539 295.656 157.683 295.428 153.964 295.265 150.352 297.417 148.658 300.714 147.253 303.629 145.961 306.676 143.799 309.133 143.285 309.698 142.262 310.583 141.606 309.698 140.741 308.411 140.736 306.768 140.599 305.282 140.273 297.59 141.337 289.928 141.377 282.241 149.237 282.144 156.935 284.896 164.815 283.996 168.387 283.63 171.735 282.032 174.4 279.656 175.25 276.014 174.339 272.096 172.101 269.13 168.585 264.429 162.628 261.412 156.716 261.941 152.397 262.231 148.739 265.686 147.91 269.888 147.589 272.193 146.195 274.33 144.272 275.617 142.349 276.517 141.606 273.841 141.316 272.452 140.131 265.498 140.634 258.375 141.296 251.39 149.482 250.276 157.942 250.968 165.925 248.505 168.987 247.513 172.096 245.799 173.617 242.828 174.884 240.314 174.98 237.303 174.283 234.616 171.043 230.363 166.087 227.245 160.715 226.695 157.444 226.334 153.908 227.514 151.914 230.221 149.644 232.958 149.873 236.814 147.803 239.673 146.974 241.037 145.457 243.158 143.656 242.064 141.713 240.391 141.296 237.659 140.767 235.288 139.754 228.878 139.795 222.147 141.769 215.925 142.629 213.447 144.13 210.542 147.004 210.13 149.838 209.698 151.69 212.252 154.116 213.162 159.611 215.828 166.678 215.101 171.261 210.98 174.054 208.573 175.896 204.697 174.909 201.003 173.948 197.335 170.758 194.771 167.446 193.245 165.558 192.542 164.347 190.711 162.379 190.177 160.11 189.414 157.652 190.187 155.709 191.428 151.827 193.881 149.151 197.717 145.783 200.754 145.081 201.303 143.88 202.26 143.122 201.298 141.688 198.856 142.471 195.865 142.023 193.209 140.97 190.441 139.688 187.368 140.741 184.402 141.642 181.996 144.257 180.933 146.587 180.439 153.302 179.076 160.277 180.19 166.983 178.699 169.389 178.135 171.999 176.949 172.966 174.497 174.039 171.618 173.169 168.453 172.075 165.711 170.88 162.796 168.936 159.784 165.752 158.827 162.236 157.84 158.67 159.479 155.744 161.325 151.166 164.363 147.213 168.255 143.621 172.386 145.081 164.973 141.637 157.591 142.725 150.163 142.985 148.383 144.165 146.567 146.068 146.292 149.115 145.87 152.036 147.233 154.681 148.581 159.565 150.693 165.375 149.253 169.471 146.093 172.019 144.125 174.192 141.235 174.243 137.897 174.283 134.911 172.208 132.377 169.771 130.892 167.42 129.564 165.624 127.285 162.913 126.618 159.723 125.642 156.391 127.046 153.918 129.045 149.797 132.362 146.775 136.773 143.448 140.833 144.893 133.593 141.8 126.369 142.756 119.104 143.026 117.196 144.069 115.166 146.043 114.591 148.968 113.793 152.036 114.764 154.732 115.914 159.591 118.066 165.451 116.789 169.552 113.599 171.948 111.748 173.983 108.96 173.876 105.805 173.8 103.078 171.902 100.794 169.725 99.3441 167.171 97.6601 164.48 95.7829 161.305 95.676 158.604 95.5336 156.146 97.0293 154.289 98.8608 150.631 102.432 148.006 107.092 143.555 109.814 145.035 102.02 141.723 94.2566 142.731 86.4371 143.005 84.4326 144.023 82.2806 146.058 81.5632 149.309 80.4897 152.687 81.7922 155.719 82.9674 160.298 84.2647 165.375 83.2828 169.43 80.8815 171.908 79.3857 174.192 76.8064 173.932 73.7284 173.805 70.9964 171.612 69.1039 170.473 66.789 168.845 63.8942 165.629 61.8236 162.241 62.1187 157.51 62.4596 153.44 65.6393 150.748 69.3786 149.37 71.3475 148.337 73.8505 146.037 74.9189 145.127 75.2598 144.547 74.2321 144.328 73.5147 143.692 71.2915 143.789 68.9411 143.845 66.6568 144.063 62.0831 144.608 57.5196 145.478 53.0273Z" fill="#FFFFFF" transform="matrix(1 0 0 1.00066 -100.977 0)"/><path d="M133.222 68.7935C131.579 68.6002 132.678 66.6924 133.024 65.7715 133.858 66.1175 135.277 65.9649 135.481 67.1146 135.094 68.0406 134.183 68.6256 133.222 68.7935Z" fill="#FFFFFF" transform="matrix(1 0 0 1.00066 -100.977 0)"/><path d="M158.334 67.8472C159.748 67.4657 161.244 66.8247 162.719 67.2622 163.701 67.5827 163.615 68.8291 163.193 69.5617 162.526 70.8336 161.32 72.2022 159.743 72.0546 158.227 71.2457 158.461 69.2921 158.334 67.8472Z" fill="#FFFFFF" transform="matrix(1 0 0 1.00066 -100.977 0)"/><path d="M133.039 101.288C134.453 101.735 135.979 102.32 136.646 103.775 135.756 105.281 133.838 105.978 132.169 105.571 131.421 105.429 131.07 104.493 131.421 103.852 131.782 102.895 132.459 102.112 133.039 101.288Z" fill="#FFFFFF" transform="matrix(1 0 0 1.00066 -100.977 0)"/><path d="M158.934 104.569C157.983 103.333 159.535 102.061 160.181 101.059 161.315 101.501 162.78 101.669 163.462 102.824 163.126 104.661 160.45 105.169 158.934 104.569Z" fill="#FFFFFF" transform="matrix(1 0 0 1.00066 -100.977 0)"/><path d="M131.039 133.777C130.714 132.271 132.271 131.334 133.191 130.424 134.133 131.329 135.745 132.25 135.399 133.787 134.372 135.048 132.031 135.084 131.039 133.777Z" fill="#FFFFFF" transform="matrix(1 0 0 1.00066 -100.977 0)"/><path d="M156.726 134.891C157.662 133.721 158.995 133.024 160.323 132.403 161.498 133.024 162.735 133.67 163.36 134.916 161.559 136.351 158.405 136.631 156.726 134.891Z" fill="#FFFFFF" transform="matrix(1 0 0 1.00066 -100.977 0)"/><path d="M133.029 161.738C134.326 162.241 136.28 162.669 136.458 164.322 135.694 165.996 133.242 166.571 131.67 165.787 130.607 164.383 132.321 162.908 133.029 161.738Z" fill="#FFFFFF" transform="matrix(1 0 0 1.00066 -100.977 0)"/><path d="M158.359 165.879C159.779 165.451 161.371 164.556 162.826 165.324 163.554 167.227 161.544 169.435 159.677 169.679 158.161 169.089 158.492 167.166 158.359 165.879Z" fill="#FFFFFF" transform="matrix(1 0 0 1.00066 -100.977 0)"/><path d="M131.06 196.328C130.673 194.817 132.281 193.865 133.197 192.96 134.117 193.794 135.328 194.578 135.511 195.921 134.916 197.65 132.062 197.671 131.06 196.328Z" fill="#FFFFFF" transform="matrix(1 0 0 1.00066 -100.977 0)"/><path d="M156.589 196.908C158.049 196.623 159.881 195.778 161.158 196.918 161.9 198.637 160.094 200.83 158.298 200.845 156.67 200.331 156.808 198.266 156.589 196.908Z" fill="#FFFFFF" transform="matrix(1 0 0 1.00066 -100.977 0)"/><path d="M133.354 230.689C134.494 231.925 135.827 233.273 135.903 235.064 136.03 237.72 131.762 239.343 130.347 236.982 129.727 234.484 131.899 232.449 133.354 230.689Z" fill="#FFFFFF" transform="matrix(1 0 0 1.00066 -100.977 0)"/><path d="M158.385 234.637C160.603 234.184 163.035 233.166 165.243 234.092 165.599 235.669 163.859 236.667 162.842 237.567 161.041 238.697 158.868 240.487 156.67 239.734 155.917 237.933 157.606 236.188 158.385 234.637Z" fill="#FFFFFF" transform="matrix(1 0 0 1.00066 -100.977 0)"/><path d="M133.12 263.976C134.25 265.106 135.705 266.342 135.649 268.092 135.196 270.351 131.146 270.371 130.627 268.128 130.571 266.378 132.037 265.141 133.12 263.976Z" fill="#FFFFFF" transform="matrix(1 0 0 1.00066 -100.977 0)"/><path d="M158.232 267.446C159.479 267.843 161.178 267.868 161.875 269.166 161.844 270.504 160.283 271.048 159.214 271.409 158.339 271.628 156.762 271.944 156.462 270.773 156.457 269.446 157.53 268.469 158.232 267.446Z" fill="#FFFFFF" transform="matrix(1 0 0 1.00066 -100.977 0)"/><path d="M131.044 299.838C131.543 299.248 132.23 300.54 132.601 300.912 134.367 302.911 133.425 306.584 130.724 307.134 129.656 307.373 129.04 306.198 129.142 305.292 129.294 303.354 130.073 301.502 131.044 299.838Z" fill="#FFFFFF" transform="matrix(1 0 0 1.00066 -100.977 0)"/><path d="M156.233 303.267C158.253 302.932 160.374 302.347 162.404 302.937 163.773 303.461 162.913 305.028 162.241 305.77 160.466 307.755 158.176 309.362 155.627 310.171 154.829 310.441 153.557 310.466 153.435 309.378 153.587 307.073 155.078 305.175 156.233 303.267Z" fill="#FFFFFF" transform="matrix(1 0 0 1.00066 -100.977 0)"/><path d="M156.752 342.212C155.851 340.813 157.52 339.435 158.237 338.32 159.641 338.666 161.31 338.875 162.094 340.284 160.964 341.912 158.66 342.955 156.752 342.212Z" fill="#FFFFFF" transform="matrix(1 0 0 1.00066 -100.977 0)"/><path d="M131.05 338.88C132.016 339.684 133.288 340.472 133.395 341.856 132.805 343.571 129.869 343.601 128.943 342.182 128.653 340.707 130.185 339.806 131.05 338.88Z" fill="#FFFFFF" transform="matrix(1 0 0 1.00066 -100.977 0)"/><path d="M155.811 372.458C156.396 371.43 157.754 369.09 159.046 370.514 159.647 371.018 160.659 371.949 159.876 372.743 158.69 373.663 156.864 373.521 155.811 372.458Z" fill="#FFFFFF" transform="matrix(1 0 0 1.00066 -100.977 0)"/><path d="M130.973 370.285C132.179 371.374 133.644 372.677 133.558 374.452 133.018 376.864 128.353 376.584 128.541 373.928 128.826 372.427 130.027 371.384 130.973 370.285Z" fill="#FFFFFF" transform="matrix(1 0 0 1.00066 -100.977 0)"/><path d="M156.172 396.791C158.334 397.112 160.751 397.229 162.516 398.679 163.427 399.422 163.182 400.78 162.429 401.548 160.847 403.273 158.497 404.336 156.151 404.367 155.037 404.423 153.867 403.609 153.923 402.413 153.949 400.327 155.154 398.526 156.172 396.791Z" fill="#FFFFFF" transform="matrix(1 0 0 1.00066 -100.977 0)"/><path d="M129.172 399.752C130.744 400.292 133.069 400.541 133.593 402.423 133.263 404.509 130.286 405.552 128.511 404.677 127.081 403.242 128.496 401.212 129.172 399.752Z" fill="#FFFFFF" transform="matrix(1 0 0 1.00066 -100.977 0)"/><path d="M129.193 432.714C130.551 432.816 132.321 432.618 133.156 433.956 133.487 435.828 131.106 437.975 129.32 437.166 128.211 435.94 128.989 434.134 129.193 432.714Z" fill="#FFFFFF" transform="matrix(1 0 0 1.00066 -100.977 0)"/><path d="M158.146 434.592C159.224 434.556 160.725 433.895 161.498 434.983 161.458 436.479 159.957 438.077 158.4 437.899 157.535 436.993 158.059 435.675 158.146 434.592Z" fill="#FFFFFF" transform="matrix(1 0 0 1.00066 -100.977 0)"/></g></svg>