<svg width="428" height="518" xmlns="http://www.w3.org/2000/svg" xmlns:xlink="http://www.w3.org/1999/xlink" xml:space="preserve" overflow="hidden"><defs><clipPath id="clip0"><rect x="0" y="0" width="424" height="534"/></clipPath></defs><g clip-path="url(#clip0)"><path d="M139.518 45.9054C255.988 50.5107 372.566 49.208 489.098 49.8288 491.83 130.424 488.451 211.04 486.569 291.609 485.19 349.351 484.492 407.164 487.439 464.87 431.839 466.519 376.214 467.048 320.595 466.835 258.843 466.646 197.102 465.445 135.365 464.214 136.413 461.349 136.795 458.209 136.011 455.232 134.643 449.395 130.867 444.48 129.366 438.699 128.424 435.208 129.076 431.025 131.91 428.577 134.149 426.517 135.945 423.468 135.167 420.339 133.477 413.912 126.587 410.696 124.394 404.548 123.264 400.849 126.445 397.684 129.396 396.04 131.65 394.905 134.19 393.099 134.174 390.295 134.022 386.931 131.63 384.295 129.859 381.624 128.119 379.059 125.956 376.245 126.358 372.958 126.699 370.591 128.714 369.07 130.511 367.752 132.963 365.951 134.643 362.877 134.037 359.788 132.938 353.656 127.803 349.122 126.796 342.965 126.292 339.983 127.89 337.047 130.246 335.306 133.564 332.945 135.07 328.533 134.251 324.594 133.024 318.208 128.602 313.038 126.928 306.804 126.236 304.245 126.317 301.395 127.625 299.044 128.445 297.441 129.773 296.199 131.096 295.014 133.548 292.795 134.637 289.223 133.925 286.002 132.653 279.732 127.585 274.959 126.526 268.624 125.89 265.021 128.114 261.642 130.963 259.652 133.035 258.187 135.559 256.629 135.996 253.907 136.286 251.556 134.612 249.602 133.085 248.035 130.175 245.027 126.399 242.691 124.435 238.88 122.811 235.791 124.674 231.944 127.554 230.372 132.261 227.471 135.564 222.331 135.899 216.78 136.424 209.544 133.014 202.552 128.165 197.361 129.544 192.16 133.248 188.018 135.095 183.021 135.905 180.874 136.006 178.248 134.515 176.36 132.887 173.978 129.757 173.424 127.976 171.205 126.068 169.282 124.974 166.34 126.053 163.72 127.992 158.87 132.729 155.934 135.101 151.354 136.027 149.619 136.215 147.42 135.243 145.665 133.783 142.657 130.271 141.411 128.785 138.429 127.778 136.627 127.813 134.414 128.577 132.541 130.134 128.633 133.355 125.727 135.263 122.023 136.078 120.45 136.48 118.46 135.533 116.847 134.124 114.298 131.091 113.514 129.045 111.626 126.628 109.677 124.572 106.614 125.442 103.377 126.607 99.0622 130.047 95.953 132.663 92.4977 134.994 89.5361 137.411 85.9587 136.658 81.9895 135.976 77.7506 131.32 75.593 130.775 71.2981 130.078 66.9574 132.816 63.1613 134.984 59.6755 137.645 55.6045 140.403 50.9839 139.518 45.9054M147.156 53.8896C146.158 59.2684 145.487 64.7286 145.497 70.204 145.593 71.9291 145.538 73.817 146.489 75.3335 146.876 76.0001 147.777 75.9187 148.321 75.5014 150.759 73.7967 151.68 70.7892 153.664 68.6723 156.483 65.497 160.442 62.8559 164.839 62.973 168.025 63.0391 170.828 65.1713 172.309 67.9039 173.393 70.0412 175.363 71.7866 175.602 74.2903 176.024 77.4148 173.77 80.1372 171.251 81.6689 167.144 84.1624 161.949 85.1598 157.287 83.796 154.361 82.6409 151.125 81.4552 147.965 82.3559 145.716 83.0174 144.611 85.399 144.377 87.5668 143.477 95.2915 146.723 102.96 145.232 110.659 150.58 107.53 153.14 101.413 158.193 97.9529 161.012 95.9479 164.834 96.2685 167.729 97.9325 170.33 99.4795 173.256 100.97 174.757 103.734 176.075 106.059 175.703 109.011 174.268 111.194 170.813 116.435 163.73 119.081 157.7 117.275 154.636 116.048 151.318 114.603 147.955 115.397 145.817 115.901 144.667 118.079 144.428 120.109 143.533 127.325 146.54 134.495 145.161 141.69 148.504 137.589 151.557 133.141 155.735 129.824 158.285 127.778 161.786 126.44 165.012 127.62 167.338 128.292 168.92 130.22 170.935 131.432 173.108 132.704 175.123 134.602 175.739 137.126 176.492 140.169 174.986 143.258 172.905 145.41 168.757 149.715 161.938 151.878 156.285 149.43 153.735 148.112 150.942 146.845 148 147.135 145.95 147.308 144.622 149.257 144.393 151.166 143.339 158.57 146.81 165.933 145.278 173.307 148.825 169.21 152.738 165.363 157.247 162.335 160.147 160.468 163.638 158.814 167.17 159.633 170.355 160.442 172.386 163.363 173.612 166.228 174.793 169.047 175.754 172.299 174.691 175.301 173.724 177.881 170.956 179.087 168.447 179.642 161.842 181.036 154.997 180.003 148.387 181.301 145.95 181.805 143.171 182.935 142.342 185.52 141.456 188.451 142.683 191.412 143.716 194.125 144.031 196.242 143.67 198.44 144.164 200.552 144.347 201.361 144.596 202.47 145.573 202.628 146.733 202.455 147.583 201.554 148.408 200.796 151.303 197.906 153.868 194.598 157.338 192.359 159.333 191.071 161.872 190.267 164.198 191.112 166.106 191.687 167.307 193.448 169.149 194.145 172.208 195.555 175.123 197.809 176.34 201.05 177.449 203.915 176.726 207.208 174.966 209.65 172.024 213.777 166.788 215.971 161.786 215.609 158.356 215.411 155.094 214.011 152.331 212.012 150.647 210.714 148.062 210.597 146.418 212.022 144.342 213.772 143.471 216.495 142.815 219.039 141.573 224.53 141.528 230.27 142.393 235.827 142.835 238.127 143.293 240.58 144.784 242.468 145.38 243.251 146.54 243.582 147.385 242.976 149.105 241.75 150.016 239.725 150.871 237.857 151.568 235.867 151.832 233.684 153.059 231.908 154.738 229.069 158.041 227.456 161.297 227.553 166.544 227.629 171.419 230.443 174.93 234.209 175.403 234.784 176.07 235.323 176.146 236.122 176.716 239.18 176.416 242.62 174.416 245.129 172.35 247.745 169.114 249.068 165.974 249.887 158.473 251.739 150.682 251.337 143.054 252.233 142.337 257.327 142.235 262.492 142.372 267.631 142.55 270.303 142.612 273.107 143.746 275.585 144.102 276.537 145.278 277.137 146.148 276.425 147.965 275.061 149.324 273.005 149.624 270.73 150.407 266.975 153.42 263.718 157.257 263.036 163.241 261.917 169.505 264.817 173.312 269.412 175.866 272.435 176.95 276.577 176.161 280.465 173.383 283.091 169.704 284.689 165.892 284.974 158.214 285.666 150.728 283.07 143.064 283.147 143.019 290.704 142.006 298.23 142.265 305.792 142.398 307.41 142.377 309.171 143.258 310.595 143.996 311.532 145.039 310.565 145.593 309.939 147.42 307.751 148.728 305.176 149.868 302.581 150.937 300.184 152.809 298.067 155.282 297.095 158.641 295.716 162.468 296.403 165.658 297.904 169.724 299.848 173.286 303.1 175.134 307.257 176.467 310.224 176.497 313.888 174.65 316.651 172.945 319.144 170.493 321.302 167.455 321.928 161.557 323.251 155.506 321.694 149.558 322.315 148.041 322.498 146.494 322.89 145.242 323.806 143.548 325.032 142.713 327.19 142.769 329.246 142.902 335.031 142.103 340.828 142.713 346.603 142.896 347.789 143.024 349.188 144.047 349.987 145.858 349.906 147.044 347.977 147.751 346.496 148.24 338.731 155.644 332.228 163.399 332.772 167.134 332.976 170.544 335.433 172.08 338.817 173.251 341.616 175.24 344.344 174.798 347.54 174.462 350.46 171.963 352.516 169.424 353.626 164.814 355.615 159.699 356.104 154.723 356.017 153.211 356.129 151.995 355.122 150.626 354.674 148.591 353.895 146.046 354.043 144.454 355.656 142.072 358.073 141.467 361.635 141.232 364.882 141.08 368.907 141.436 373.126 143.278 376.769 143.879 378.041 145.405 379.456 146.835 378.438 150.642 375.639 149.914 370.118 153.16 366.902 155.664 364.078 159.852 363.432 163.358 364.449 170.345 366.347 176.411 372.973 175.988 380.494 173.851 382.896 171.012 384.641 167.882 385.405 159.771 387.471 151.227 385.461 143.12 387.613 144.026 389.781 143.589 392.173 143.324 394.432 142.79 398.646 141.777 402.823 141.797 407.093 141.858 408.258 141.986 410.029 143.441 410.263 144.459 410.126 145.884 409.856 146.184 408.701 147.995 403.47 149.731 397.898 153.73 393.877 155.934 391.603 159.425 390.707 162.417 391.837 164.976 392.905 167.821 393.496 169.979 395.348 172.289 397.195 173.663 400.101 173.724 403.052 173.872 409.077 169.806 414.919 164.167 416.99 160.213 418.456 155.644 417.876 152.056 415.718 150.082 414.563 147.39 414.192 145.471 415.652 142.927 417.627 141.919 420.893 141.309 423.931 140.525 428.583 140.495 433.529 142.108 438.017 142.683 439.467 143.721 441.325 145.543 441.182 147.339 440.836 148.693 439.304 149.181 437.59 150.85 433.061 154.824 429.275 159.694 428.542 166.946 427.371 174.157 431.778 177.841 437.859 178.772 441.655 178.105 446.164 175.098 448.892 171.673 452.011 166.813 452.764 162.351 452.846 155.476 452.82 148.499 451.38 142.423 448.103 142.042 451.085 141.787 454.372 143.4 457.069 144.779 459.425 147.486 460.586 150.082 460.998 160.107 462.494 170.111 458.311 180.11 460.082 179.912 324.671 184.085 189.275 182.339 53.8591 170.62 53.1772 158.88 53.5385 147.156 53.8896M193.458 53.9252C189.402 58.3066 189.316 64.6268 189.178 70.2346 189.163 73.298 188.659 76.3309 188.802 79.3943 190.954 197.3 184.945 315.216 188.069 433.117 189.636 440.119 187.916 447.375 189.321 454.403 189.804 456.815 191.092 459.385 193.555 460.265 196.145 461.267 198.867 460.173 201.534 460.326 293.93 458.474 386.356 463.603 478.732 459.96 481.409 325.388 482.63 190.797 482.991 56.1999 386.57 50.3784 289.961 55.1363 193.458 53.9252M134.581 66.7183C134.383 67.563 133.828 68.4433 134.139 69.3288 135.207 70.1175 136.871 69.0336 137.141 67.8531 136.8 66.7844 135.457 66.9167 134.581 66.7183M160.025 68.6978C160.147 70.1582 159.893 72.6466 161.832 72.9418 163.699 72.6415 165.404 70.6264 165.104 68.713 163.801 67.2068 161.623 68.3518 160.025 68.6978M133.157 105.978C134.592 107.184 137.273 106.441 138.128 104.823 138.088 103.133 136.037 102.731 134.811 102.121 134.042 103.24 132.566 104.497 133.157 105.978M160.422 105.24C162.015 106.319 164.457 105.413 165.363 103.8 164.468 102.726 163.139 102.299 161.852 101.932 161.226 102.919 159.974 103.937 160.422 105.24M132.627 134.363C133.325 136.072 136.403 136.042 137.172 134.403 137.161 132.968 135.793 132.175 134.877 131.304 133.976 132.169 132.704 132.984 132.627 134.363M158.417 135.879C159.979 137.304 162.417 137.126 164.259 136.393 165.541 135.818 164.345 134.551 163.582 134.164 161.837 132.454 159.557 134.419 158.417 135.879M134.805 162.585C134.027 163.72 132.18 165.368 133.452 166.742 135.019 167.399 137.212 166.859 138.108 165.358 138.194 163.613 136.032 163.211 134.805 162.585M160.051 166.752C160.193 168.025 159.837 169.989 161.358 170.544 162.687 170.513 163.653 169.399 164.31 168.355 164.707 167.699 165.093 166.559 164.249 166.071 162.829 165.592 161.389 166.345 160.051 166.752M132.643 196.959C133.365 198.608 136.378 198.577 137.141 196.979 137.212 195.539 135.793 194.72 134.872 193.855 133.971 194.735 132.658 195.555 132.643 196.959M158.331 197.753C158.453 199.112 158.361 200.928 159.755 201.692 161.587 201.946 163.445 199.738 162.941 197.982 161.827 196.567 159.791 197.544 158.331 197.753M132.002 236.178C131.696 237.058 131.874 238.224 132.775 238.692 134.648 239.664 137.497 238.356 137.584 236.127 137.604 234.27 136.215 232.855 135.034 231.588 133.833 232.972 132.536 234.382 132.002 236.178M160.127 235.501C159.297 237.048 157.623 238.814 158.361 240.641 159.959 241.363 161.674 240.157 163.083 239.43 164.722 238.315 166.961 237.145 167.083 234.906 164.768 234.229 162.396 235.002 160.127 235.501M132.307 268.669C132.302 271.377 137.35 271.382 137.345 268.674 137.177 267.077 135.869 265.977 134.836 264.883 133.798 265.983 132.495 267.066 132.307 268.669M158.392 272.191C160.28 273.066 162.809 271.962 163.791 270.176 162.834 268.954 161.297 268.649 159.862 268.374 159.221 269.504 157.608 270.802 158.392 272.191M132.912 300.321C131.956 302.23 130.872 304.209 130.831 306.402 130.78 307.222 131.36 308.188 132.297 308.076 134.368 307.725 135.696 305.308 135.045 303.344 134.709 302.112 133.772 301.202 132.912 300.321M157.979 304.153C156.819 305.939 155.491 307.751 155.14 309.903 154.86 311.145 156.3 311.491 157.201 311.13 159.857 310.31 162.254 308.636 164.055 306.535 164.615 305.863 165.312 304.606 164.335 303.98 162.3 303.145 160.061 303.883 157.979 304.153M159.908 339.255C159.196 340.375 157.71 341.601 158.325 343.051 160.086 343.916 163.18 342.985 163.592 340.924 162.788 339.698 161.19 339.611 159.908 339.255M130.561 342.995C131.442 344.517 134.159 344.486 135.055 342.995 135.172 341.52 133.716 340.69 132.795 339.794 131.874 340.695 130.5 341.535 130.561 342.995M157.537 373.573C158.773 374.398 160.717 374.668 161.781 373.431 162.086 372.144 160.626 371.492 159.857 370.77 158.875 371.513 157.857 372.317 157.537 373.573M130.256 375.482C130.897 377.558 134.597 377.563 135.223 375.477 135.416 373.67 133.849 372.398 132.755 371.207 131.635 372.393 130.078 373.665 130.256 375.482M157.847 397.735C156.819 399.531 155.547 401.399 155.623 403.566 155.715 404.849 157.099 405.444 158.244 405.317 160.503 405.113 162.768 404.091 164.244 402.34 164.926 401.577 165.043 400.289 164.188 399.602 162.422 398.162 160.01 398.05 157.847 397.735M130.236 405.627C131.986 406.472 134.714 405.485 135.289 403.551 135.009 401.526 132.475 401.302 130.953 400.666 130.139 402.065 128.74 404.243 130.236 405.627M130.897 433.646C130.653 435.127 129.762 437.244 131.284 438.292 133.029 438.562 134.978 436.862 134.887 435.076 134.215 433.549 132.261 433.788 130.897 433.646M159.822 435.539C159.801 436.628 159.089 438.216 160.295 438.928 161.709 438.801 162.956 437.559 163.211 436.18 162.819 434.704 160.89 435.539 159.822 435.539Z" transform="matrix(1 0 0 1.00033 -100.444 0.00739606)"/><path d="M289.202 183.82C293.105 182.385 296.968 180.304 301.263 180.584 305.507 180.528 310.127 184.253 309.354 188.792 308.804 192.72 305.161 195.173 301.69 196.389 285.63 202.134 269.713 210.2 258.466 223.37 251.851 231.12 246.991 240.29 243.892 249.973 240.987 259.454 238.768 269.494 240.279 279.432 241.083 284.18 242.412 289.085 245.572 292.846 248.676 296.566 253.266 298.667 257.902 299.751 260.736 289.91 264.603 280.302 270.069 271.611 274.771 264.181 280.557 257.281 287.813 252.218 294.693 247.454 303.003 244.391 311.45 244.803 316.356 245.068 321.373 246.228 325.47 249.052 330.187 252.289 332.94 257.922 333.22 263.57 333.474 268.98 331.922 274.353 329.515 279.157 325.409 287.177 318.788 293.68 311.298 298.571 298.907 306.718 284.414 311.084 269.83 313.175 270.059 315.669 270.333 318.218 271.316 320.554 272.257 322.696 274.252 324.203 275.096 326.396 275.402 328.182 274.267 329.892 272.929 330.976 270.196 333.144 266.329 334.268 262.985 332.899 260.105 331.729 258.273 328.95 257.215 326.141 255.795 322.249 255.439 318.061 255.418 313.944 247.5 313.074 239.664 309.578 234.621 303.263 227.685 294.607 225.308 283.121 225.537 272.237 226.148 253.098 233.099 234.351 244.473 219.009 255.82 203.513 271.341 191 289.202 183.82M298.79 261.016C293.385 263.85 288.943 268.232 285.274 273.051 279.218 281.127 275.203 290.531 272.048 300.067 279.549 299.207 286.897 297.085 293.706 293.818 301.436 290.139 308.748 285.218 314.239 278.572 317.419 274.679 319.862 269.748 319.348 264.598 319.155 262.191 317.384 260.136 315.114 259.403 309.761 257.601 303.746 258.421 298.79 261.016Z" transform="matrix(1 0 0 1.00033 -100.444 0.00739606)"/><path d="M418.293 181.637C424.344 181.082 430.425 180.492 436.506 180.787 438.928 181.011 441.559 181.281 443.528 182.853 445.788 184.761 446.134 188.166 445.274 190.848 444.658 192.797 442.449 193.545 441.696 195.397 433.381 211.655 426.389 228.636 421.458 246.233 427.779 245.317 433.992 243.841 440.159 242.223 442.979 241.165 446.281 243.908 445.635 246.874 444.938 251.113 441.956 255.266 437.6 256.248 431.275 258.059 424.705 258.731 418.258 259.957 414.594 276.526 413.011 293.482 412.222 310.407 412.115 314.361 411.978 318.473 410.11 322.06 408.655 325.037 406.106 328.101 402.523 328.192 400.371 328.35 398.585 326.742 397.602 324.976 395.714 321.633 394.208 318.091 392.814 314.519 391.547 311.354 390.122 308.173 389.7 304.759 389.455 302.682 390.259 300.158 392.397 299.415 394.341 298.622 396.345 299.583 398.06 300.479 399.327 287.437 401.002 274.415 403.444 261.535 397.373 262.451 391.308 263.438 385.176 263.83 382.982 263.993 380.616 263.774 378.81 262.41 376.505 260.787 375.207 257.515 376.337 254.848 377.716 252.279 380.896 251.79 383.486 251.271 391.14 250.126 398.814 249.149 406.482 248.075 408.96 238.335 412.121 228.774 415.713 219.385 418.894 211.116 422.257 202.913 426.191 194.974 414.97 196.308 403.734 197.666 392.636 199.839 384.993 201.325 377.365 202.862 369.737 204.424 363.971 205.64 358.068 206.796 352.155 206.19 348.71 205.686 344.751 203.961 343.718 200.318 343.25 197.89 343.647 195.086 345.341 193.188 346.664 191.743 348.725 191.479 350.583 191.524 362.617 191.499 374.433 188.939 386.199 186.715 396.814 184.543 407.5 182.655 418.293 181.637Z" transform="matrix(1 0 0 1.00033 -100.444 0.00739606)"/><path d="M147.156 53.8896C158.88 53.5385 170.62 53.1772 182.339 53.8591 184.085 189.275 179.912 324.671 180.11 460.082 170.111 458.311 160.107 462.494 150.082 460.998 147.486 460.586 144.779 459.425 143.4 457.069 141.787 454.372 142.042 451.085 142.423 448.103 148.499 451.38 155.476 452.82 162.351 452.846 166.813 452.764 171.673 452.011 175.098 448.892 178.105 446.164 178.772 441.655 177.841 437.859 174.157 431.778 166.946 427.371 159.694 428.542 154.824 429.275 150.85 433.061 149.181 437.59 148.693 439.304 147.339 440.836 145.543 441.182 143.721 441.325 142.683 439.467 142.108 438.017 140.495 433.529 140.525 428.583 141.309 423.931 141.919 420.893 142.927 417.627 145.471 415.652 147.39 414.192 150.082 414.563 152.056 415.718 155.644 417.876 160.213 418.456 164.167 416.99 169.806 414.919 173.872 409.077 173.724 403.052 173.663 400.101 172.289 397.195 169.979 395.348 167.821 393.496 164.976 392.905 162.417 391.837 159.425 390.707 155.934 391.603 153.73 393.877 149.731 397.898 147.995 403.47 146.184 408.701 145.884 409.856 144.459 410.126 143.441 410.263 141.986 410.029 141.858 408.258 141.797 407.093 141.777 402.823 142.79 398.646 143.324 394.432 143.589 392.173 144.026 389.781 143.12 387.613 151.227 385.461 159.771 387.471 167.882 385.405 171.012 384.641 173.851 382.896 175.988 380.494 176.411 372.973 170.345 366.347 163.358 364.449 159.852 363.432 155.664 364.078 153.16 366.902 149.914 370.118 150.642 375.639 146.835 378.438 145.405 379.456 143.879 378.041 143.278 376.769 141.436 373.126 141.08 368.907 141.232 364.882 141.467 361.635 142.072 358.073 144.454 355.656 146.046 354.043 148.591 353.895 150.626 354.674 151.995 355.122 153.211 356.129 154.723 356.017 159.699 356.104 164.814 355.615 169.424 353.626 171.963 352.516 174.462 350.46 174.798 347.54 175.24 344.344 173.251 341.616 172.08 338.817 170.544 335.433 167.134 332.976 163.399 332.772 155.644 332.228 148.24 338.731 147.751 346.496 147.044 347.977 145.858 349.906 144.047 349.987 143.024 349.188 142.896 347.789 142.713 346.603 142.103 340.828 142.902 335.031 142.769 329.246 142.713 327.19 143.548 325.032 145.242 323.806 146.494 322.89 148.041 322.498 149.558 322.315 155.506 321.694 161.557 323.251 167.455 321.928 170.493 321.302 172.945 319.144 174.65 316.651 176.497 313.888 176.467 310.224 175.134 307.257 173.286 303.1 169.724 299.848 165.658 297.904 162.468 296.403 158.641 295.716 155.282 297.095 152.809 298.067 150.937 300.184 149.868 302.581 148.728 305.176 147.42 307.751 145.593 309.939 145.039 310.565 143.996 311.532 143.258 310.595 142.377 309.171 142.398 307.41 142.265 305.792 142.006 298.23 143.019 290.704 143.064 283.147 150.728 283.07 158.214 285.666 165.892 284.974 169.704 284.689 173.383 283.091 176.161 280.465 176.95 276.577 175.866 272.435 173.312 269.412 169.505 264.817 163.241 261.917 157.257 263.036 153.42 263.718 150.407 266.975 149.624 270.73 149.324 273.005 147.965 275.061 146.148 276.425 145.278 277.137 144.102 276.537 143.746 275.585 142.612 273.107 142.55 270.303 142.372 267.631 142.235 262.492 142.337 257.327 143.054 252.233 150.682 251.337 158.473 251.739 165.974 249.887 169.114 249.068 172.35 247.745 174.416 245.129 176.416 242.62 176.716 239.18 176.146 236.122 176.07 235.323 175.403 234.784 174.93 234.209 171.419 230.443 166.544 227.629 161.297 227.553 158.041 227.456 154.738 229.069 153.059 231.908 151.832 233.684 151.568 235.867 150.871 237.857 150.016 239.725 149.105 241.75 147.385 242.976 146.54 243.582 145.38 243.251 144.784 242.468 143.293 240.58 142.835 238.127 142.393 235.827 141.528 230.27 141.573 224.53 142.815 219.039 143.471 216.495 144.342 213.772 146.418 212.022 148.062 210.597 150.647 210.714 152.331 212.012 155.094 214.011 158.356 215.411 161.786 215.609 166.788 215.971 172.024 213.777 174.966 209.65 176.726 207.208 177.449 203.915 176.34 201.05 175.123 197.809 172.208 195.555 169.149 194.145 167.307 193.448 166.106 191.687 164.198 191.112 161.872 190.267 159.333 191.071 157.338 192.359 153.868 194.598 151.303 197.906 148.408 200.796 147.583 201.554 146.733 202.455 145.573 202.628 144.596 202.47 144.347 201.361 144.164 200.552 143.67 198.44 144.031 196.242 143.716 194.125 142.683 191.412 141.456 188.451 142.342 185.52 143.171 182.935 145.95 181.805 148.387 181.301 154.997 180.003 161.842 181.036 168.447 179.642 170.956 179.087 173.724 177.881 174.691 175.301 175.754 172.299 174.793 169.047 173.612 166.228 172.386 163.363 170.355 160.442 167.17 159.633 163.638 158.814 160.147 160.468 157.247 162.335 152.738 165.363 148.825 169.21 145.278 173.307 146.81 165.933 143.339 158.57 144.393 151.166 144.622 149.257 145.95 147.308 148 147.135 150.942 146.845 153.735 148.112 156.285 149.43 161.938 151.878 168.757 149.715 172.905 145.41 174.986 143.258 176.492 140.169 175.739 137.126 175.123 134.602 173.108 132.704 170.935 131.432 168.92 130.22 167.338 128.292 165.012 127.62 161.786 126.44 158.285 127.778 155.735 129.824 151.557 133.141 148.504 137.589 145.161 141.69 146.54 134.495 143.533 127.325 144.428 120.109 144.667 118.079 145.817 115.901 147.955 115.397 151.318 114.603 154.636 116.048 157.7 117.275 163.73 119.081 170.813 116.435 174.268 111.194 175.703 109.011 176.075 106.059 174.757 103.734 173.256 100.97 170.33 99.4795 167.729 97.9325 164.834 96.2685 161.012 95.9479 158.193 97.9529 153.14 101.413 150.58 107.53 145.232 110.659 146.723 102.96 143.477 95.2915 144.377 87.5668 144.611 85.399 145.716 83.0174 147.965 82.3559 151.125 81.4552 154.361 82.6409 157.287 83.796 161.949 85.1598 167.144 84.1624 171.251 81.6689 173.77 80.1372 176.024 77.4148 175.602 74.2903 175.363 71.7866 173.393 70.0412 172.309 67.9039 170.828 65.1713 168.025 63.0391 164.839 62.973 160.442 62.8559 156.483 65.497 153.664 68.6723 151.68 70.7892 150.759 73.7967 148.321 75.5014 147.777 75.9187 146.876 76.0001 146.489 75.3335 145.538 73.817 145.593 71.9291 145.497 70.204 145.487 64.7286 146.158 59.2684 147.156 53.8896Z" fill="#FFFFFF" transform="matrix(1 0 0 1.00033 -100.444 0.00739606)"/><path d="M193.458 53.9252C289.961 55.1363 386.57 50.3784 482.991 56.1999 482.63 190.797 481.409 325.388 478.732 459.96 386.356 463.603 293.93 458.474 201.534 460.326 198.867 460.173 196.145 461.267 193.555 460.265 191.092 459.385 189.804 456.815 189.321 454.403 187.916 447.375 189.636 440.119 188.069 433.117 184.945 315.216 190.954 197.3 188.802 79.3943 188.659 76.3309 189.163 73.298 189.178 70.2346 189.316 64.6268 189.402 58.3066 193.458 53.9252M289.202 183.82C271.341 191 255.82 203.513 244.473 219.009 233.099 234.351 226.148 253.098 225.537 272.237 225.308 283.121 227.685 294.607 234.621 303.263 239.664 309.578 247.5 313.074 255.418 313.944 255.439 318.061 255.795 322.249 257.215 326.141 258.273 328.95 260.105 331.729 262.985 332.899 266.329 334.268 270.196 333.144 272.929 330.976 274.267 329.892 275.402 328.182 275.096 326.396 274.252 324.203 272.257 322.696 271.316 320.554 270.333 318.218 270.059 315.669 269.83 313.175 284.414 311.084 298.907 306.718 311.298 298.571 318.788 293.68 325.409 287.177 329.515 279.157 331.922 274.353 333.474 268.98 333.22 263.57 332.94 257.922 330.187 252.289 325.47 249.052 321.373 246.228 316.356 245.068 311.45 244.803 303.003 244.391 294.693 247.454 287.813 252.218 280.557 257.281 274.771 264.181 270.069 271.611 264.603 280.302 260.736 289.91 257.902 299.751 253.266 298.667 248.676 296.566 245.572 292.846 242.412 289.085 241.083 284.18 240.279 279.432 238.768 269.494 240.987 259.454 243.892 249.973 246.991 240.29 251.851 231.12 258.466 223.37 269.713 210.2 285.63 202.134 301.69 196.389 305.161 195.173 308.804 192.72 309.354 188.792 310.127 184.253 305.507 180.528 301.263 180.584 296.968 180.304 293.105 182.385 289.202 183.82M418.293 181.637C407.5 182.655 396.814 184.543 386.199 186.715 374.433 188.939 362.617 191.499 350.583 191.524 348.725 191.479 346.664 191.743 345.341 193.188 343.647 195.086 343.25 197.89 343.718 200.318 344.751 203.961 348.71 205.686 352.155 206.19 358.068 206.796 363.971 205.64 369.737 204.424 377.365 202.862 384.993 201.325 392.636 199.839 403.734 197.666 414.97 196.308 426.191 194.974 422.257 202.913 418.894 211.116 415.713 219.385 412.121 228.774 408.96 238.335 406.482 248.075 398.814 249.149 391.14 250.126 383.486 251.271 380.896 251.79 377.716 252.279 376.337 254.848 375.207 257.515 376.505 260.787 378.81 262.41 380.616 263.774 382.982 263.993 385.176 263.83 391.308 263.438 397.373 262.451 403.444 261.535 401.002 274.415 399.327 287.437 398.06 300.479 396.345 299.583 394.341 298.622 392.397 299.415 390.259 300.158 389.455 302.682 389.7 304.759 390.122 308.173 391.547 311.354 392.814 314.519 394.208 318.091 395.714 321.633 397.602 324.976 398.585 326.742 400.371 328.35 402.523 328.192 406.106 328.101 408.655 325.037 410.11 322.06 411.978 318.473 412.115 314.361 412.222 310.407 413.011 293.482 414.594 276.526 418.258 259.957 424.705 258.731 431.275 258.059 437.6 256.248 441.956 255.266 444.938 251.113 445.635 246.874 446.281 243.908 442.979 241.165 440.159 242.223 433.992 243.841 427.779 245.317 421.458 246.233 426.389 228.636 433.381 211.655 441.696 195.397 442.449 193.545 444.658 192.797 445.274 190.848 446.134 188.166 445.788 184.761 443.528 182.853 441.559 181.281 438.928 181.011 436.506 180.787 430.425 180.492 424.344 181.082 418.293 181.637Z" fill="#FFFFFF" transform="matrix(1 0 0 1.00033 -100.444 0.00739606)"/><path d="M134.581 66.7183C135.457 66.9167 136.8 66.7844 137.141 67.8531 136.871 69.0336 135.207 70.1175 134.139 69.3288 133.828 68.4433 134.383 67.563 134.581 66.7183Z" fill="#FFFFFF" transform="matrix(1 0 0 1.00033 -100.444 0.00739606)"/><path d="M160.025 68.6978C161.623 68.3518 163.801 67.2068 165.104 68.713 165.404 70.6264 163.699 72.6415 161.832 72.9418 159.893 72.6466 160.147 70.1582 160.025 68.6978Z" fill="#FFFFFF" transform="matrix(1 0 0 1.00033 -100.444 0.00739606)"/><path d="M133.157 105.978C132.566 104.497 134.042 103.24 134.811 102.121 136.037 102.731 138.088 103.133 138.128 104.823 137.273 106.441 134.592 107.184 133.157 105.978Z" fill="#FFFFFF" transform="matrix(1 0 0 1.00033 -100.444 0.00739606)"/><path d="M160.422 105.24C159.974 103.937 161.226 102.919 161.852 101.932 163.139 102.299 164.468 102.726 165.363 103.8 164.457 105.413 162.015 106.319 160.422 105.24Z" fill="#FFFFFF" transform="matrix(1 0 0 1.00033 -100.444 0.00739606)"/><path d="M132.627 134.363C132.704 132.984 133.976 132.169 134.877 131.304 135.793 132.175 137.161 132.968 137.172 134.403 136.403 136.042 133.325 136.072 132.627 134.363Z" fill="#FFFFFF" transform="matrix(1 0 0 1.00033 -100.444 0.00739606)"/><path d="M158.417 135.879C159.557 134.419 161.837 132.454 163.582 134.164 164.345 134.551 165.541 135.818 164.259 136.393 162.417 137.126 159.979 137.304 158.417 135.879Z" fill="#FFFFFF" transform="matrix(1 0 0 1.00033 -100.444 0.00739606)"/><path d="M134.805 162.585C136.032 163.211 138.194 163.613 138.108 165.358 137.212 166.859 135.019 167.399 133.452 166.742 132.18 165.368 134.027 163.72 134.805 162.585Z" fill="#FFFFFF" transform="matrix(1 0 0 1.00033 -100.444 0.00739606)"/><path d="M160.051 166.752C161.389 166.345 162.829 165.592 164.249 166.071 165.093 166.559 164.707 167.699 164.31 168.355 163.653 169.399 162.687 170.513 161.358 170.544 159.837 169.989 160.193 168.025 160.051 166.752Z" fill="#FFFFFF" transform="matrix(1 0 0 1.00033 -100.444 0.00739606)"/><path d="M132.643 196.959C132.658 195.555 133.971 194.735 134.872 193.855 135.793 194.72 137.212 195.539 137.141 196.979 136.378 198.577 133.365 198.608 132.643 196.959Z" fill="#FFFFFF" transform="matrix(1 0 0 1.00033 -100.444 0.00739606)"/><path d="M158.331 197.753C159.791 197.544 161.827 196.567 162.941 197.982 163.445 199.738 161.587 201.946 159.755 201.692 158.361 200.928 158.453 199.112 158.331 197.753Z" fill="#FFFFFF" transform="matrix(1 0 0 1.00033 -100.444 0.00739606)"/><path d="M132.002 236.178C132.536 234.382 133.833 232.972 135.034 231.588 136.215 232.855 137.604 234.27 137.584 236.127 137.497 238.356 134.648 239.664 132.775 238.692 131.874 238.224 131.696 237.058 132.002 236.178Z" fill="#FFFFFF" transform="matrix(1 0 0 1.00033 -100.444 0.00739606)"/><path d="M160.127 235.501C162.396 235.002 164.768 234.229 167.083 234.906 166.961 237.145 164.722 238.315 163.083 239.43 161.674 240.157 159.959 241.363 158.361 240.641 157.623 238.814 159.297 237.048 160.127 235.501Z" fill="#FFFFFF" transform="matrix(1 0 0 1.00033 -100.444 0.00739606)"/><path d="M298.79 261.016C303.746 258.421 309.761 257.601 315.114 259.403 317.384 260.136 319.155 262.191 319.348 264.598 319.862 269.748 317.419 274.679 314.239 278.572 308.748 285.218 301.436 290.139 293.706 293.818 286.897 297.085 279.549 299.207 272.048 300.067 275.203 290.531 279.218 281.127 285.274 273.051 288.943 268.232 293.385 263.85 298.79 261.016Z" fill="#FFFFFF" transform="matrix(1 0 0 1.00033 -100.444 0.00739606)"/><path d="M132.307 268.669C132.495 267.066 133.798 265.983 134.836 264.883 135.869 265.977 137.177 267.077 137.345 268.674 137.35 271.382 132.302 271.377 132.307 268.669Z" fill="#FFFFFF" transform="matrix(1 0 0 1.00033 -100.444 0.00739606)"/><path d="M158.392 272.191C157.608 270.802 159.221 269.504 159.862 268.374 161.297 268.649 162.834 268.954 163.791 270.176 162.809 271.962 160.28 273.066 158.392 272.191Z" fill="#FFFFFF" transform="matrix(1 0 0 1.00033 -100.444 0.00739606)"/><path d="M132.912 300.321C133.772 301.202 134.709 302.112 135.045 303.344 135.696 305.308 134.368 307.725 132.297 308.076 131.36 308.188 130.78 307.222 130.831 306.402 130.872 304.209 131.956 302.23 132.912 300.321Z" fill="#FFFFFF" transform="matrix(1 0 0 1.00033 -100.444 0.00739606)"/><path d="M157.979 304.153C160.061 303.883 162.3 303.145 164.335 303.98 165.312 304.606 164.615 305.863 164.055 306.535 162.254 308.636 159.857 310.31 157.201 311.13 156.3 311.491 154.86 311.145 155.14 309.903 155.491 307.751 156.819 305.939 157.979 304.153Z" fill="#FFFFFF" transform="matrix(1 0 0 1.00033 -100.444 0.00739606)"/><path d="M159.908 339.255C161.19 339.611 162.788 339.698 163.592 340.924 163.18 342.985 160.086 343.916 158.325 343.051 157.71 341.601 159.196 340.375 159.908 339.255Z" fill="#FFFFFF" transform="matrix(1 0 0 1.00033 -100.444 0.00739606)"/><path d="M130.561 342.995C130.5 341.535 131.874 340.695 132.795 339.794 133.716 340.69 135.172 341.52 135.055 342.995 134.159 344.486 131.442 344.517 130.561 342.995Z" fill="#FFFFFF" transform="matrix(1 0 0 1.00033 -100.444 0.00739606)"/><path d="M157.537 373.573C157.857 372.317 158.875 371.513 159.857 370.77 160.626 371.492 162.086 372.144 161.781 373.431 160.717 374.668 158.773 374.398 157.537 373.573Z" fill="#FFFFFF" transform="matrix(1 0 0 1.00033 -100.444 0.00739606)"/><path d="M130.256 375.482C130.078 373.665 131.635 372.393 132.755 371.207 133.849 372.398 135.416 373.67 135.223 375.477 134.597 377.563 130.897 377.558 130.256 375.482Z" fill="#FFFFFF" transform="matrix(1 0 0 1.00033 -100.444 0.00739606)"/><path d="M157.847 397.735C160.01 398.05 162.422 398.162 164.188 399.602 165.043 400.289 164.926 401.577 164.244 402.34 162.768 404.091 160.503 405.113 158.244 405.317 157.099 405.444 155.715 404.849 155.623 403.566 155.547 401.399 156.819 399.531 157.847 397.735Z" fill="#FFFFFF" transform="matrix(1 0 0 1.00033 -100.444 0.00739606)"/><path d="M130.236 405.627C128.74 404.243 130.139 402.065 130.953 400.666 132.475 401.302 135.009 401.526 135.289 403.551 134.714 405.485 131.986 406.472 130.236 405.627Z" fill="#FFFFFF" transform="matrix(1 0 0 1.00033 -100.444 0.00739606)"/><path d="M130.897 433.646C132.261 433.788 134.215 433.549 134.887 435.076 134.978 436.862 133.029 438.562 131.284 438.292 129.762 437.244 130.653 435.127 130.897 433.646Z" fill="#FFFFFF" transform="matrix(1 0 0 1.00033 -100.444 0.00739606)"/><path d="M159.822 435.539C160.89 435.539 162.819 434.704 163.211 436.18 162.956 437.559 161.709 438.801 160.295 438.928 159.089 438.216 159.801 436.628 159.822 435.539Z" fill="#FFFFFF" transform="matrix(1 0 0 1.00033 -100.444 0.00739606)"/></g></svg>