<svg width="428" height="518" xmlns="http://www.w3.org/2000/svg" xmlns:xlink="http://www.w3.org/1999/xlink" xml:space="preserve" overflow="hidden"><defs><clipPath id="clip0"><rect x="0" y="0" width="426" height="558"/></clipPath></defs><g clip-path="url(#clip0)"><path d="M139.431 45.6482C256.432 50.2632 373.551 48.9534 490.613 49.5929 493.223 126.338 490.301 203.115 488.383 279.84 486.817 342.029 485.768 404.3 488.951 466.459 371.064 470.01 253.096 468.306 135.21 465.779 136.459 462.791 136.673 459.424 135.799 456.308 134.335 450.69 130.769 445.901 129.265 440.304 128.298 436.774 128.897 432.517 131.777 430.03 134.064 427.938 135.886 424.796 135.031 421.609 133.998 417.715 130.866 414.942 128.308 412.006 126.272 409.672 123.796 407.053 124.031 403.717 124.522 400.432 127.464 398.253 130.211 396.8 132.391 395.674 134.473 393.464 134.018 390.819 133.353 387.171 130.636 384.418 128.718 381.384 127.147 378.995 125.407 376.048 126.492 373.111 127.541 370.225 130.795 369.233 132.463 366.828 133.9 364.991 134.356 362.52 133.813 360.269 132.447 354.513 127.797 350.123 126.697 344.28 126.072 341.205 127.679 338.105 130.135 336.314 133.517 333.909 135 329.376 134.11 325.38 133.056 320.218 129.961 315.828 127.945 311.039 126.42 307.601 125.54 303.416 127.464 299.947 128.851 297 132.263 295.618 133.317 292.457 135.041 288.45 133.292 284.086 131.342 280.515 129.337 276.545 126.43 272.707 126.297 268.098 126.231 264.593 128.718 261.707 131.485 259.876 133.261 258.668 135.169 257.256 135.788 255.092 136.351 253.117 135.226 251.193 133.977 249.755 131.056 246.363 127.014 243.999 124.63 240.142 123.371 238.192 123.361 235.568 124.655 233.639 125.77 231.495 128.191 230.702 129.853 229.106 133.793 225.734 136.039 220.551 135.855 215.373 135.727 208.686 132.381 202.521 128.001 197.645 129.495 192.698 132.846 188.63 134.796 183.887 135.753 181.61 136.034 178.75 134.422 176.699 132.785 174.274 129.598 173.736 127.812 171.47 125.955 169.577 124.86 166.722 125.852 164.133 127.751 159.134 132.667 156.162 135.052 151.455 135.947 149.71 136.09 147.535 135.118 145.791 133.614 142.777 130.058 141.519 128.605 138.474 127.623 136.668 127.699 134.448 128.477 132.585 130.217 128.155 134.259 125.049 135.778 120.521 136.648 118.004 134.939 115.507 132.816 114.289 130.094 112.698 127.305 110.831 125.827 107.95 124.696 105.796 125.029 103.177 126.134 101.089 128.733 96.0598 133.491 92.4834 135.829 87.2903 136.939 84.8958 137.037 81.9897 135.773 79.6311 134.448 76.9757 131.731 75.2003 130.918 72.2533 129.715 68.59 131.511 64.8806 133.409 61.821 136.407 56.9247 140.485 51.7827 139.431 45.6482M147.116 53.6553C146.021 59.7438 145.167 65.9551 145.561 72.151 145.77 73.4147 145.806 75.3948 147.356 75.7222 149.434 75.1185 150.518 72.9696 151.639 71.2863 154.253 66.9937 158.602 63.3252 163.749 62.8034 167.274 62.4197 170.661 64.5736 172.309 67.6179 173.404 69.8333 175.461 71.6138 175.686 74.1975 176.09 77.4106 173.716 80.153 171.117 81.6828 167.044 84.0772 161.959 85.034 157.364 83.7293 154.458 82.5833 151.26 81.3911 148.103 82.1944 145.96 82.7367 144.711 84.8651 144.409 86.9322 143.217 94.8676 146.748 102.788 145.156 110.703 149.996 107.822 152.626 102.598 156.786 98.971 158.786 97.1853 161.544 96.0751 164.246 96.6379 167.418 97.2672 170.129 99.2114 172.672 101.104 175.404 103.207 176.556 107.178 174.862 110.283 171.368 116.868 162.281 119.876 155.594 116.495 153.148 115.543 150.411 114.806 147.802 115.476 145.903 115.973 144.757 117.85 144.45 119.697 143.248 127.131 146.671 134.591 144.998 141.994 148.19 138.029 151.163 133.824 155.036 130.483 157.533 128.344 160.884 126.65 164.246 127.495 166.65 127.965 168.436 129.71 170.329 131.117 172.488 132.401 174.668 134.018 175.573 136.469 176.806 139.646 175.312 143.151 173.082 145.479 169.019 149.761 162.388 151.982 156.725 149.817 153.962 148.472 151.015 146.947 147.848 147.341 145.827 147.556 144.573 149.5 144.333 151.378 143.284 158.791 146.717 166.154 145.238 173.547 149.035 169.29 153.117 165.182 157.968 162.127 160.894 160.357 164.522 158.884 167.934 160.101 171.194 161.345 173.02 164.634 174.182 167.735 175.123 170.38 175.809 173.455 174.545 176.116 173.358 178.49 170.667 179.503 168.226 180.03 161.667 181.344 154.888 180.352 148.329 181.646 145.908 182.143 143.151 183.253 142.301 185.806 141.355 188.743 142.598 191.746 143.637 194.473 144.143 197.354 143.146 200.766 145.208 203.207 147.239 202.695 148.564 201.002 149.95 199.574 152.974 196.438 155.921 192.769 160.229 191.413 162.941 190.508 165.693 191.838 167.648 193.685 170.104 195.041 172.795 196.202 174.611 198.454 176.822 200.894 177.609 204.552 176.356 207.637 174.448 212.549 169.311 215.665 164.184 216.079 159.943 216.468 155.701 214.979 152.304 212.483 150.549 211.122 147.822 211.081 146.175 212.651 144.143 214.529 143.294 217.302 142.66 219.917 141.478 225.504 141.447 231.331 142.419 236.954 142.91 239.19 143.35 241.661 145.013 243.365 145.709 244.102 146.916 244.035 147.643 243.37 149.26 241.973 150.206 239.968 150.999 238.024 151.593 235.849 152.079 233.557 153.522 231.756 155.369 229.218 158.572 227.944 161.657 228.093 167.06 228.328 172.043 231.331 175.517 235.358 176.474 236.274 176.346 237.706 176.469 238.919 176.637 241.784 175.711 244.787 173.573 246.762 170.636 249.52 166.558 250.538 162.7 251.208 156.162 252.319 149.49 252.073 142.926 252.928 142.368 257.788 142.153 262.684 142.281 267.576 142.409 270.405 142.486 273.326 143.519 276.007 143.821 276.928 144.839 277.931 145.847 277.322 147.305 276.447 148.308 274.953 149.076 273.475 149.597 271.321 150.094 269.059 151.526 267.294 153.593 264.465 157.262 263.227 160.674 263.498 166.435 263.917 171.982 267.284 174.857 272.319 176.417 275.005 176.806 278.228 176.233 281.257 173.547 283.774 170.042 285.37 166.379 285.729 158.515 286.578 150.841 283.841 142.992 283.948 142.951 291.459 141.959 298.944 142.184 306.46 142.322 308.394 142.266 310.584 143.703 312.098 144.415 311.699 145.208 311.356 145.704 310.671 147.546 308.379 148.835 305.713 150.032 303.042 151.414 300.07 154.248 297.747 157.543 297.322 162.245 296.683 166.891 298.826 170.406 301.825 173.649 304.633 176.341 308.64 176.172 313.091 176.064 316.693 173.527 319.696 170.661 321.625 167.029 323.728 162.649 323.487 158.602 323.349 154.673 323.252 150.58 322.617 146.778 323.922 144.241 324.761 142.654 327.401 142.701 330.011 142.854 335.971 141.994 341.947 142.67 347.892 142.905 349.049 142.977 350.701 144.312 351.146 146.2 350.404 147.735 348.445 147.909 346.403 148.815 339.312 155.624 333.669 162.716 333.746 165.693 333.756 168.661 335.086 170.564 337.399 172.022 339.046 172.657 341.185 173.675 343.093 174.755 345.196 175.389 347.739 174.524 350.031 173.562 352.523 171.158 354.073 168.779 355.025 164.419 356.723 159.682 357.189 155.036 357.143 152.78 357.332 151.066 355.475 148.856 355.367 146.548 354.958 144.287 356.304 143.181 358.294 141.027 362.116 140.889 366.715 141.294 370.983 141.682 373.858 142.184 376.979 144.138 379.251 145.192 380.591 147.095 379.87 147.883 378.642 150.493 375.669 150.186 371.254 152.887 368.348 155.22 365.488 159.262 364.597 162.752 365.447 170.058 367.104 176.469 373.93 176.085 381.691 173.967 384.096 171.148 385.835 168.037 386.623 159.856 388.736 151.224 386.69 143.048 388.869 143.412 389.841 143.673 390.865 143.596 391.919 143.391 397.434 141.728 402.806 141.723 408.337 141.785 409.514 141.851 411.161 143.202 411.606 144.42 411.581 146.047 411.105 146.267 409.708 147.756 405.216 149.331 400.627 152.227 396.82 153.88 394.62 156.3 392.748 159.155 392.635 161.662 392.441 163.893 393.771 166.205 394.508 169.766 395.684 172.831 398.642 173.557 402.402 174.775 408.557 171.081 415.04 165.566 417.782 161.416 419.895 156.238 419.557 152.253 417.219 150.309 416.047 147.684 415.526 145.683 416.851 143.13 418.595 142.051 421.716 141.386 424.602 140.444 429.278 140.393 434.241 141.795 438.836 142.368 440.473 143.289 442.591 145.3 442.699 146.942 442.453 148.395 441.184 148.917 439.613 150.094 436.365 152.222 433.371 155.231 431.606 158.398 429.698 162.327 429.35 165.873 430.245 170.83 431.494 175.143 434.871 177.845 439.173 178.904 442.888 178.27 447.375 175.425 450.179 172.079 453.438 167.172 454.262 162.685 454.384 155.676 454.41 148.554 452.967 142.353 449.621 141.954 452.665 141.713 456.032 143.407 458.754 144.793 461.005 147.392 462.125 149.91 462.555 160.025 464.116 170.119 459.874 180.214 461.655 180.019 325.646 184.199 189.648 182.455 53.6349 170.687 52.9339 158.889 53.3176 147.116 53.6553M193.562 53.7372C188.942 58.8894 189.546 66.2467 189.219 72.6728 188.738 77.078 189.019 81.5088 189.045 85.9345 190.881 202.05 185.151 318.171 188.185 434.282 189.597 440.724 188.405 447.334 189.126 453.837 189.449 456.59 190.18 459.705 192.662 461.312 194.903 462.785 197.661 462.156 200.147 461.941 293.495 459.977 386.874 465.216 480.202 461.532 482.898 326.363 484.116 191.173 484.479 55.9781 387.595 50.166 290.528 54.8628 193.562 53.7372M134.509 66.4923C134.33 67.3876 133.639 68.3137 134.059 69.2449 135.389 69.9816 136.755 68.636 137.241 67.4593 136.407 66.9374 135.466 66.6713 134.509 66.4923M160.025 68.5439C160.183 69.997 159.897 72.2021 161.631 72.8008 163.186 72.7803 164.353 71.4398 164.977 70.1351 165.427 69.3523 165.294 68.109 164.271 67.8942 162.823 67.5974 161.401 68.1807 160.025 68.5439M134.688 102.112C133.957 103.12 132.979 104.092 132.852 105.402 132.979 106.697 134.637 106.681 135.594 106.461 136.617 106.211 138.034 105.689 138.05 104.43 137.538 103.028 135.896 102.68 134.688 102.112M160.301 104.916C160.761 106.047 162.281 105.719 163.207 105.494 164.051 105.192 165.397 104.686 165.126 103.55 164.358 102.532 163.007 102.348 161.902 101.908 161.242 102.824 160.296 103.709 160.301 104.916M134.678 131.567C133.691 132.289 132.575 133.23 132.519 134.545 133.281 136.198 136.31 136.172 137.057 134.53 137.021 133.199 135.793 132.033 134.678 131.567M161.979 133.409C160.649 134.11 159.134 134.729 158.418 136.157 159.897 137.195 161.815 137.231 163.519 136.827 164.107 136.658 164.911 136.377 164.9 135.625 164.312 134.479 163.038 134.003 161.979 133.409M134.704 162.844C133.936 163.974 132.345 165.31 133.112 166.778 134.54 167.863 137.052 167.167 137.968 165.683 138.224 163.918 135.932 163.447 134.704 162.844M160.091 166.988C160.183 168.303 159.825 170.549 161.59 170.856 163.34 170.421 165.274 168.374 164.547 166.507 163.125 165.683 161.508 166.63 160.091 166.988M134.775 194.243C133.859 195.138 132.447 195.993 132.55 197.466 133.394 198.991 136.07 198.919 137.011 197.538 137.257 196.023 135.712 195.143 134.775 194.243M158.29 198.203C158.495 199.61 158.367 201.769 160.122 202.199 161.8 202.009 163.279 200.239 163.048 198.546 162.035 196.888 159.769 197.957 158.29 198.203M131.9 238.453C133.23 240.74 137.272 239.379 137.472 236.893 137.62 234.954 136.146 233.46 134.934 232.15 133.471 233.92 131.327 235.941 131.9 238.453M160.173 236.059C159.303 237.415 158.321 238.796 158.101 240.438 158.039 241.876 159.835 241.538 160.705 241.196 163.304 240.07 166.154 238.545 167.295 235.793 165.08 234.468 162.48 235.69 160.173 236.059M134.724 265.59C133.665 266.726 132.263 267.883 132.197 269.561 132.412 272.047 136.955 272.073 137.257 269.617 137.211 267.913 135.814 266.726 134.724 265.59M159.907 269.095C159.185 270.17 158.045 271.213 158.162 272.625 158.914 273.695 160.424 273.204 161.452 272.886 162.378 272.503 163.77 271.884 163.57 270.671 162.7 269.54 161.181 269.428 159.907 269.095M132.795 301.18C131.782 303.298 130.411 305.56 130.81 308.005 131.475 309.837 133.819 308.64 134.468 307.401 135.978 305.263 134.545 302.643 132.795 301.18M157.901 305.089C156.786 306.967 155.317 308.819 155.123 311.07 155.092 312.359 156.704 312.298 157.548 311.94 160.188 310.993 162.634 309.31 164.343 307.069 164.962 306.368 165.156 304.992 164.026 304.705 162.005 304.173 159.902 304.726 157.901 305.089M158.326 344.081C159.472 344.874 160.976 344.301 162.132 343.794 162.844 343.41 163.944 342.709 163.493 341.753 162.588 340.745 161.15 340.642 159.938 340.279 159.216 341.395 157.732 342.622 158.326 344.081M130.529 344.219C131.496 345.529 134.018 345.508 134.903 344.116 135.164 342.607 133.588 341.727 132.662 340.837 131.772 341.758 130.15 342.699 130.529 344.219M130.109 376.447C130.426 378.805 134.673 378.862 135.139 376.554 135.231 374.794 133.721 373.566 132.647 372.395 131.547 373.525 130.109 374.728 130.109 376.447M157.814 374.876C158.94 375.771 160.956 375.73 161.841 374.523 162.005 373.27 160.608 372.65 159.825 371.944 159.052 372.763 157.379 373.5 157.814 374.876M155.604 404.689C155.553 405.994 156.914 406.771 158.091 406.644 160.291 406.531 162.455 405.549 164 403.988 164.773 403.231 165.223 401.901 164.358 401.046 162.619 399.465 160.117 399.404 157.927 398.995 156.822 400.714 155.645 402.571 155.604 404.689M129.92 406.812C131.67 407.974 134.791 406.812 135.2 404.694 134.637 402.801 132.33 402.556 130.733 402.003 130.073 403.436 128.748 405.308 129.92 406.812M130.764 435.096C130.554 436.574 129.582 438.851 131.25 439.787 133.01 439.987 134.985 438.222 134.755 436.416 133.967 435.009 132.12 435.249 130.764 435.096M159.825 437.025C159.81 438.099 159.139 439.639 160.239 440.371 161.708 440.366 163.069 438.979 163.217 437.552 162.68 436.221 160.899 436.973 159.825 437.025Z" transform="matrix(1 0 0 1.00057 -100.968 0)"/><path d="M373.781 189.648C384.986 181.35 398.462 175.998 412.389 174.872 416.467 174.76 421.732 175.44 423.538 179.723 427.887 179.907 432.031 181.431 436.012 183.094 442.888 186.051 448.705 191.603 451.565 198.571 453.463 203.237 453.648 208.471 452.614 213.373 451.34 219.574 448.48 225.529 443.993 230.052 439.808 234.15 434.958 237.568 429.729 240.203 437.158 242.454 444.433 245.58 450.557 250.431 457.321 255.649 462.796 262.725 465.359 270.937 467.656 277.757 467.605 285.268 465.528 292.134 462.98 300.904 457.541 308.665 450.624 314.559 439.46 324.065 425.369 329.786 410.926 331.847 399.609 333.546 387.867 332.814 376.984 329.182 368.854 326.46 360.985 322.444 354.799 316.416 349.136 310.901 344.94 303.656 343.861 295.757 342.735 287.734 344.823 279.538 348.583 272.457 353.684 263.022 362.1 255.629 371.591 250.794 367.508 249.607 363.518 247.801 360.381 244.869 354.743 239.63 351.285 231.807 352.118 224.051 352.676 218.566 355.076 213.48 357.547 208.62 361.481 201.206 367.028 194.642 373.781 189.648M400.376 192.222C394.339 193.179 388.823 196.151 383.952 199.743 376.283 205.535 369.939 213.409 366.997 222.644 365.928 225.969 366.183 229.909 368.501 232.662 371.484 236.202 376.094 237.742 380.453 238.781 389.76 240.786 399.465 239.318 408.439 236.473 416.273 233.843 423.794 229.883 429.851 224.204 434.124 220.08 437.639 214.724 438.227 208.691 438.708 203.253 435.075 198.28 430.496 195.711 427.181 193.885 423.461 192.544 419.649 192.473 417.736 193.711 415.428 194.78 413.111 194.105 409.007 192.851 404.715 191.357 400.376 192.222M407.513 250.047C395.746 252.165 384.167 256.325 374.441 263.406 367.882 268.19 362.489 274.774 359.86 282.521 357.992 287.775 357.225 293.751 359.368 299.046 361.563 304.413 366.086 308.461 370.988 311.362 380.366 316.821 391.356 319.287 402.167 318.862 412.594 318.519 423.026 315.997 432.179 310.911 438.595 307.427 444.464 302.597 448.245 296.268 451.494 290.799 453.499 284.301 452.491 277.911 451.499 271.653 447.697 266.189 443.082 262.009 436.232 255.905 427.375 252.549 418.493 250.707 414.886 250.103 411.166 249.479 407.513 250.047Z" transform="matrix(1 0 0 1.00057 -100.968 0)"/><path d="M230.794 192.943C242.526 183.002 257.389 176.704 272.723 175.389 276.841 175.256 282.173 175.906 284.009 180.234 288.323 180.413 292.436 181.923 296.386 183.56 303.411 186.563 309.346 192.258 312.165 199.41 313.945 204.005 314.094 209.111 313.081 213.905 311.771 220.265 308.783 226.358 304.107 230.922 299.983 234.841 295.286 238.172 290.19 240.715 298.294 243.145 306.199 246.696 312.646 252.267 320.361 258.642 325.938 267.775 327.273 277.762 328.286 285.273 326.567 292.953 323.237 299.691 319.578 307.156 313.771 313.403 307.079 318.248 294.186 327.621 278.34 332.528 262.49 333.183 250.328 333.674 238.049 331.008 227.233 325.411 219.84 321.615 213.168 316.094 208.886 308.895 205.279 303.006 203.514 295.987 204.133 289.09 204.926 280.131 208.84 271.561 214.693 264.777 219.543 259.226 225.473 254.595 232.073 251.306 227.832 250.083 223.698 248.169 220.5 245.059 215.46 240.178 212.222 233.229 212.488 226.143 212.57 222.608 213.542 219.165 214.877 215.916 218.315 207.167 223.682 199.119 230.794 192.943M260.694 192.759C255.041 193.68 249.847 196.387 245.222 199.671 237.445 205.304 231.004 213.04 227.781 222.153 226.691 225.151 226.368 228.65 227.914 231.556 229.633 234.826 233.05 236.734 236.397 237.972 244.972 241.134 254.421 240.602 263.191 238.581 272.099 236.509 280.638 232.621 287.811 226.931 293.111 222.639 297.645 216.765 298.627 209.858 299.358 204.839 296.478 199.953 292.431 197.169 288.839 194.729 284.567 193.194 280.228 192.953 278.31 194.089 276.13 195.266 273.818 194.673 269.581 193.419 265.171 191.813 260.694 192.759M267.883 250.574C259.881 252.037 252.012 254.396 244.711 258.008 236.954 261.856 229.617 267.074 224.706 274.324 220.833 280.162 218.172 287.146 218.607 294.237 218.965 300.177 222.649 305.36 227.202 308.952 233.01 313.51 240.034 316.309 247.177 317.992 259.522 320.663 272.61 319.497 284.444 315.189 293.424 311.755 302.132 306.496 307.652 298.432 311.469 292.764 313.925 285.826 313.035 278.929 312.185 272.539 308.368 266.931 303.697 262.654 297.179 256.76 288.763 253.434 280.295 251.495 276.227 250.697 272.017 249.945 267.883 250.574Z" transform="matrix(1 0 0 1.00057 -100.968 0)"/><path d="M147.116 53.6553C158.889 53.3176 170.687 52.9339 182.455 53.6349 184.199 189.648 180.019 325.646 180.214 461.655 170.119 459.874 160.025 464.116 149.91 462.555 147.392 462.125 144.793 461.005 143.407 458.754 141.713 456.032 141.954 452.665 142.353 449.621 148.554 452.967 155.676 454.41 162.685 454.384 167.172 454.262 172.079 453.438 175.425 450.179 178.27 447.375 178.904 442.888 177.845 439.173 175.143 434.871 170.83 431.494 165.873 430.245 162.327 429.35 158.398 429.698 155.231 431.606 152.222 433.371 150.094 436.365 148.917 439.613 148.395 441.184 146.942 442.453 145.3 442.699 143.289 442.591 142.368 440.473 141.795 438.836 140.393 434.241 140.444 429.278 141.386 424.602 142.051 421.716 143.13 418.595 145.683 416.851 147.684 415.526 150.309 416.047 152.253 417.219 156.238 419.557 161.416 419.895 165.566 417.782 171.081 415.04 174.775 408.557 173.557 402.402 172.831 398.642 169.766 395.684 166.205 394.508 163.893 393.771 161.662 392.441 159.155 392.635 156.3 392.748 153.88 394.62 152.227 396.82 149.331 400.627 147.756 405.216 146.267 409.708 146.047 411.105 144.42 411.581 143.202 411.606 141.851 411.161 141.785 409.514 141.723 408.337 141.728 402.806 143.391 397.434 143.596 391.919 143.673 390.865 143.412 389.841 143.048 388.869 151.224 386.69 159.856 388.736 168.037 386.623 171.148 385.835 173.967 384.096 176.085 381.691 176.469 373.93 170.058 367.104 162.752 365.447 159.262 364.597 155.22 365.488 152.887 368.348 150.186 371.254 150.493 375.669 147.883 378.642 147.095 379.87 145.192 380.591 144.138 379.251 142.184 376.979 141.682 373.858 141.294 370.983 140.889 366.715 141.027 362.116 143.181 358.294 144.287 356.304 146.548 354.958 148.856 355.367 151.066 355.475 152.78 357.332 155.036 357.143 159.682 357.189 164.419 356.723 168.779 355.025 171.158 354.073 173.562 352.523 174.524 350.031 175.389 347.739 174.755 345.196 173.675 343.093 172.657 341.185 172.022 339.046 170.564 337.399 168.661 335.086 165.693 333.756 162.716 333.746 155.624 333.669 148.815 339.312 147.909 346.403 147.735 348.445 146.2 350.404 144.312 351.146 142.977 350.701 142.905 349.049 142.67 347.892 141.994 341.947 142.854 335.971 142.701 330.011 142.654 327.401 144.241 324.761 146.778 323.922 150.58 322.617 154.673 323.252 158.602 323.349 162.649 323.487 167.029 323.728 170.661 321.625 173.527 319.696 176.064 316.693 176.172 313.091 176.341 308.64 173.649 304.633 170.406 301.825 166.891 298.826 162.245 296.683 157.543 297.322 154.248 297.747 151.414 300.07 150.032 303.042 148.835 305.713 147.546 308.379 145.704 310.671 145.208 311.356 144.415 311.699 143.703 312.098 142.266 310.584 142.322 308.394 142.184 306.46 141.959 298.944 142.951 291.459 142.992 283.948 150.841 283.841 158.515 286.578 166.379 285.729 170.042 285.37 173.547 283.774 176.233 281.257 176.806 278.228 176.417 275.005 174.857 272.319 171.982 267.284 166.435 263.917 160.674 263.498 157.262 263.227 153.593 264.465 151.526 267.294 150.094 269.059 149.597 271.321 149.076 273.475 148.308 274.953 147.305 276.447 145.847 277.322 144.839 277.931 143.821 276.928 143.519 276.007 142.486 273.326 142.409 270.405 142.281 267.576 142.153 262.684 142.368 257.788 142.926 252.928 149.49 252.073 156.162 252.319 162.7 251.208 166.558 250.538 170.636 249.52 173.573 246.762 175.711 244.787 176.637 241.784 176.469 238.919 176.346 237.706 176.474 236.274 175.517 235.358 172.043 231.331 167.06 228.328 161.657 228.093 158.572 227.944 155.369 229.218 153.522 231.756 152.079 233.557 151.593 235.849 150.999 238.024 150.206 239.968 149.26 241.973 147.643 243.37 146.916 244.035 145.709 244.102 145.013 243.365 143.35 241.661 142.91 239.19 142.419 236.954 141.447 231.331 141.478 225.504 142.66 219.917 143.294 217.302 144.143 214.529 146.175 212.651 147.822 211.081 150.549 211.122 152.304 212.483 155.701 214.979 159.943 216.468 164.184 216.079 169.311 215.665 174.448 212.549 176.356 207.637 177.609 204.552 176.822 200.894 174.611 198.454 172.795 196.202 170.104 195.041 167.648 193.685 165.693 191.838 162.941 190.508 160.229 191.413 155.921 192.769 152.974 196.438 149.95 199.574 148.564 201.002 147.239 202.695 145.208 203.207 143.146 200.766 144.143 197.354 143.637 194.473 142.598 191.746 141.355 188.743 142.301 185.806 143.151 183.253 145.908 182.143 148.329 181.646 154.888 180.352 161.667 181.344 168.226 180.03 170.667 179.503 173.358 178.49 174.545 176.116 175.809 173.455 175.123 170.38 174.182 167.735 173.02 164.634 171.194 161.345 167.934 160.101 164.522 158.884 160.894 160.357 157.968 162.127 153.117 165.182 149.035 169.29 145.238 173.547 146.717 166.154 143.284 158.791 144.333 151.378 144.573 149.5 145.827 147.556 147.848 147.341 151.015 146.947 153.962 148.472 156.725 149.817 162.388 151.982 169.019 149.761 173.082 145.479 175.312 143.151 176.806 139.646 175.573 136.469 174.668 134.018 172.488 132.401 170.329 131.117 168.436 129.71 166.65 127.965 164.246 127.495 160.884 126.65 157.533 128.344 155.036 130.483 151.163 133.824 148.19 138.029 144.998 141.994 146.671 134.591 143.248 127.131 144.45 119.697 144.757 117.85 145.903 115.973 147.802 115.476 150.411 114.806 153.148 115.543 155.594 116.495 162.281 119.876 171.368 116.868 174.862 110.283 176.556 107.178 175.404 103.207 172.672 101.104 170.129 99.2114 167.418 97.2672 164.246 96.6379 161.544 96.0751 158.786 97.1853 156.786 98.971 152.626 102.598 149.996 107.822 145.156 110.703 146.748 102.788 143.217 94.8676 144.409 86.9322 144.711 84.8651 145.96 82.7367 148.103 82.1944 151.26 81.3911 154.458 82.5833 157.364 83.7293 161.959 85.034 167.044 84.0772 171.117 81.6828 173.716 80.153 176.09 77.4106 175.686 74.1975 175.461 71.6138 173.404 69.8333 172.309 67.6179 170.661 64.5736 167.274 62.4197 163.749 62.8034 158.602 63.3252 154.253 66.9937 151.639 71.2863 150.518 72.9696 149.434 75.1185 147.356 75.7222 145.806 75.3948 145.77 73.4147 145.561 72.151 145.167 65.9551 146.021 59.7438 147.116 53.6553Z" fill="#FFFFFF" transform="matrix(1 0 0 1.00057 -100.968 0)"/><path d="M193.562 53.7372C290.528 54.8628 387.595 50.166 484.479 55.9781 484.116 191.173 482.898 326.363 480.202 461.532 386.874 465.216 293.495 459.977 200.147 461.941 197.661 462.156 194.903 462.785 192.662 461.312 190.18 459.705 189.449 456.59 189.126 453.837 188.405 447.334 189.597 440.724 188.185 434.282 185.151 318.171 190.881 202.05 189.045 85.9345 189.019 81.5088 188.738 77.078 189.219 72.6728 189.546 66.2467 188.942 58.8894 193.562 53.7372M373.781 189.648C367.028 194.642 361.481 201.206 357.547 208.62 355.076 213.48 352.676 218.566 352.118 224.051 351.285 231.807 354.743 239.63 360.381 244.869 363.518 247.801 367.508 249.607 371.591 250.794 362.1 255.629 353.684 263.022 348.583 272.457 344.823 279.538 342.735 287.734 343.861 295.757 344.94 303.656 349.136 310.901 354.799 316.416 360.985 322.444 368.854 326.46 376.984 329.182 387.867 332.814 399.609 333.546 410.926 331.847 425.369 329.786 439.46 324.065 450.624 314.559 457.541 308.665 462.98 300.904 465.528 292.134 467.605 285.268 467.656 277.757 465.359 270.937 462.796 262.725 457.321 255.649 450.557 250.431 444.433 245.58 437.158 242.454 429.729 240.203 434.958 237.568 439.808 234.15 443.993 230.052 448.48 225.529 451.34 219.574 452.614 213.373 453.648 208.471 453.463 203.237 451.565 198.571 448.705 191.603 442.888 186.051 436.012 183.094 432.031 181.431 427.887 179.907 423.538 179.723 421.732 175.44 416.467 174.76 412.389 174.872 398.462 175.998 384.986 181.35 373.781 189.648M230.794 192.943C223.682 199.119 218.315 207.167 214.877 215.916 213.542 219.165 212.57 222.608 212.488 226.143 212.222 233.229 215.46 240.178 220.5 245.059 223.698 248.169 227.832 250.083 232.073 251.306 225.473 254.595 219.543 259.226 214.693 264.777 208.84 271.561 204.926 280.131 204.133 289.09 203.514 295.987 205.279 303.006 208.886 308.895 213.168 316.094 219.84 321.615 227.233 325.411 238.049 331.008 250.328 333.674 262.49 333.183 278.34 332.528 294.186 327.621 307.079 318.248 313.771 313.403 319.578 307.156 323.237 299.691 326.567 292.953 328.286 285.273 327.273 277.762 325.938 267.775 320.361 258.642 312.646 252.267 306.199 246.696 298.294 243.145 290.19 240.715 295.286 238.172 299.983 234.841 304.107 230.922 308.783 226.358 311.771 220.265 313.081 213.905 314.094 209.111 313.945 204.005 312.165 199.41 309.346 192.258 303.411 186.563 296.386 183.56 292.436 181.923 288.323 180.413 284.009 180.234 282.173 175.906 276.841 175.256 272.723 175.389 257.389 176.704 242.526 183.002 230.794 192.943Z" fill="#FFFFFF" transform="matrix(1 0 0 1.00057 -100.968 0)"/><path d="M134.509 66.4923C135.466 66.6713 136.407 66.9374 137.241 67.4593 136.755 68.636 135.389 69.9816 134.059 69.2449 133.639 68.3137 134.33 67.3876 134.509 66.4923Z" fill="#FFFFFF" transform="matrix(1 0 0 1.00057 -100.968 0)"/><path d="M160.025 68.5439C161.401 68.1807 162.823 67.5974 164.271 67.8942 165.294 68.109 165.427 69.3523 164.977 70.1351 164.353 71.4398 163.186 72.7803 161.631 72.8008 159.897 72.2021 160.183 69.997 160.025 68.5439Z" fill="#FFFFFF" transform="matrix(1 0 0 1.00057 -100.968 0)"/><path d="M134.688 102.112C135.896 102.68 137.538 103.028 138.05 104.43 138.034 105.689 136.617 106.211 135.594 106.461 134.637 106.681 132.979 106.697 132.852 105.402 132.979 104.092 133.957 103.12 134.688 102.112Z" fill="#FFFFFF" transform="matrix(1 0 0 1.00057 -100.968 0)"/><path d="M160.301 104.916C160.296 103.709 161.242 102.824 161.902 101.908 163.007 102.348 164.358 102.532 165.126 103.55 165.397 104.686 164.051 105.192 163.207 105.494 162.281 105.719 160.761 106.047 160.301 104.916Z" fill="#FFFFFF" transform="matrix(1 0 0 1.00057 -100.968 0)"/><path d="M134.678 131.567C135.793 132.033 137.021 133.199 137.057 134.53 136.31 136.172 133.281 136.198 132.519 134.545 132.575 133.23 133.691 132.289 134.678 131.567Z" fill="#FFFFFF" transform="matrix(1 0 0 1.00057 -100.968 0)"/><path d="M161.979 133.409C163.038 134.003 164.312 134.479 164.9 135.625 164.911 136.377 164.107 136.658 163.519 136.827 161.815 137.231 159.897 137.195 158.418 136.157 159.134 134.729 160.649 134.11 161.979 133.409Z" fill="#FFFFFF" transform="matrix(1 0 0 1.00057 -100.968 0)"/><path d="M134.704 162.844C135.932 163.447 138.224 163.918 137.968 165.683 137.052 167.167 134.54 167.863 133.112 166.778 132.345 165.31 133.936 163.974 134.704 162.844Z" fill="#FFFFFF" transform="matrix(1 0 0 1.00057 -100.968 0)"/><path d="M160.091 166.988C161.508 166.63 163.125 165.683 164.547 166.507 165.274 168.374 163.34 170.421 161.59 170.856 159.825 170.549 160.183 168.303 160.091 166.988Z" fill="#FFFFFF" transform="matrix(1 0 0 1.00057 -100.968 0)"/><path d="M400.376 192.222C404.715 191.357 409.007 192.851 413.111 194.105 415.428 194.78 417.736 193.711 419.649 192.473 423.461 192.544 427.181 193.885 430.496 195.711 435.075 198.28 438.708 203.253 438.227 208.691 437.639 214.724 434.124 220.08 429.851 224.204 423.794 229.883 416.273 233.843 408.439 236.473 399.465 239.318 389.76 240.786 380.453 238.781 376.094 237.742 371.484 236.202 368.501 232.662 366.183 229.909 365.928 225.969 366.997 222.644 369.939 213.409 376.283 205.535 383.952 199.743 388.823 196.151 394.339 193.179 400.376 192.222Z" fill="#FFFFFF" transform="matrix(1 0 0 1.00057 -100.968 0)"/><path d="M260.694 192.759C265.171 191.813 269.581 193.419 273.818 194.673 276.13 195.266 278.31 194.089 280.228 192.953 284.567 193.194 288.839 194.729 292.431 197.169 296.478 199.953 299.358 204.839 298.627 209.858 297.645 216.765 293.111 222.639 287.811 226.931 280.638 232.621 272.099 236.509 263.191 238.581 254.421 240.602 244.972 241.134 236.397 237.972 233.05 236.734 229.633 234.826 227.914 231.556 226.368 228.65 226.691 225.151 227.781 222.153 231.004 213.04 237.445 205.304 245.222 199.671 249.847 196.387 255.041 193.68 260.694 192.759Z" fill="#FFFFFF" transform="matrix(1 0 0 1.00057 -100.968 0)"/><path d="M134.775 194.243C135.712 195.143 137.257 196.023 137.011 197.538 136.07 198.919 133.394 198.991 132.55 197.466 132.447 195.993 133.859 195.138 134.775 194.243Z" fill="#FFFFFF" transform="matrix(1 0 0 1.00057 -100.968 0)"/><path d="M158.29 198.203C159.769 197.957 162.035 196.888 163.048 198.546 163.279 200.239 161.8 202.009 160.122 202.199 158.367 201.769 158.495 199.61 158.29 198.203Z" fill="#FFFFFF" transform="matrix(1 0 0 1.00057 -100.968 0)"/><path d="M131.9 238.453C131.327 235.941 133.471 233.92 134.934 232.15 136.146 233.46 137.62 234.954 137.472 236.893 137.272 239.379 133.23 240.74 131.9 238.453Z" fill="#FFFFFF" transform="matrix(1 0 0 1.00057 -100.968 0)"/><path d="M160.173 236.059C162.48 235.69 165.08 234.468 167.295 235.793 166.154 238.545 163.304 240.07 160.705 241.196 159.835 241.538 158.039 241.876 158.101 240.438 158.321 238.796 159.303 237.415 160.173 236.059Z" fill="#FFFFFF" transform="matrix(1 0 0 1.00057 -100.968 0)"/><path d="M407.513 250.047C411.166 249.479 414.886 250.103 418.493 250.707 427.375 252.549 436.232 255.905 443.082 262.009 447.697 266.189 451.499 271.653 452.491 277.911 453.499 284.301 451.494 290.799 448.245 296.268 444.464 302.597 438.595 307.427 432.179 310.911 423.026 315.997 412.594 318.519 402.167 318.862 391.356 319.287 380.366 316.821 370.988 311.362 366.086 308.461 361.563 304.413 359.368 299.046 357.225 293.751 357.992 287.775 359.86 282.521 362.489 274.774 367.882 268.19 374.441 263.406 384.167 256.325 395.746 252.165 407.513 250.047Z" fill="#FFFFFF" transform="matrix(1 0 0 1.00057 -100.968 0)"/><path d="M267.883 250.574C272.017 249.945 276.227 250.697 280.295 251.495 288.763 253.434 297.179 256.76 303.697 262.654 308.368 266.931 312.185 272.539 313.035 278.929 313.925 285.826 311.469 292.764 307.652 298.432 302.132 306.496 293.424 311.755 284.444 315.189 272.61 319.497 259.522 320.663 247.177 317.992 240.034 316.309 233.01 313.51 227.202 308.952 222.649 305.36 218.965 300.177 218.607 294.237 218.172 287.146 220.833 280.162 224.706 274.324 229.617 267.074 236.954 261.856 244.711 258.008 252.012 254.396 259.881 252.037 267.883 250.574Z" fill="#FFFFFF" transform="matrix(1 0 0 1.00057 -100.968 0)"/><path d="M134.724 265.59C135.814 266.726 137.211 267.913 137.257 269.617 136.955 272.073 132.412 272.047 132.197 269.561 132.263 267.883 133.665 266.726 134.724 265.59Z" fill="#FFFFFF" transform="matrix(1 0 0 1.00057 -100.968 0)"/><path d="M159.907 269.095C161.181 269.428 162.7 269.54 163.57 270.671 163.77 271.884 162.378 272.503 161.452 272.886 160.424 273.204 158.914 273.695 158.162 272.625 158.045 271.213 159.185 270.17 159.907 269.095Z" fill="#FFFFFF" transform="matrix(1 0 0 1.00057 -100.968 0)"/><path d="M132.795 301.18C134.545 302.643 135.978 305.263 134.468 307.401 133.819 308.64 131.475 309.837 130.81 308.005 130.411 305.56 131.782 303.298 132.795 301.18Z" fill="#FFFFFF" transform="matrix(1 0 0 1.00057 -100.968 0)"/><path d="M157.901 305.089C159.902 304.726 162.005 304.173 164.026 304.705 165.156 304.992 164.962 306.368 164.343 307.069 162.634 309.31 160.188 310.993 157.548 311.94 156.704 312.298 155.092 312.359 155.123 311.07 155.317 308.819 156.786 306.967 157.901 305.089Z" fill="#FFFFFF" transform="matrix(1 0 0 1.00057 -100.968 0)"/><path d="M158.326 344.081C157.732 342.622 159.216 341.395 159.938 340.279 161.15 340.642 162.588 340.745 163.493 341.753 163.944 342.709 162.844 343.41 162.132 343.794 160.976 344.301 159.472 344.874 158.326 344.081Z" fill="#FFFFFF" transform="matrix(1 0 0 1.00057 -100.968 0)"/><path d="M130.529 344.219C130.15 342.699 131.772 341.758 132.662 340.837 133.588 341.727 135.164 342.607 134.903 344.116 134.018 345.508 131.496 345.529 130.529 344.219Z" fill="#FFFFFF" transform="matrix(1 0 0 1.00057 -100.968 0)"/><path d="M130.109 376.447C130.109 374.728 131.547 373.525 132.647 372.395 133.721 373.566 135.231 374.794 135.139 376.554 134.673 378.862 130.426 378.805 130.109 376.447Z" fill="#FFFFFF" transform="matrix(1 0 0 1.00057 -100.968 0)"/><path d="M157.814 374.876C157.379 373.5 159.052 372.763 159.825 371.944 160.608 372.65 162.005 373.27 161.841 374.523 160.956 375.73 158.94 375.771 157.814 374.876Z" fill="#FFFFFF" transform="matrix(1 0 0 1.00057 -100.968 0)"/><path d="M155.604 404.689C155.645 402.571 156.822 400.714 157.927 398.995 160.117 399.404 162.619 399.465 164.358 401.046 165.223 401.901 164.773 403.231 164 403.988 162.455 405.549 160.291 406.531 158.091 406.644 156.914 406.771 155.553 405.994 155.604 404.689Z" fill="#FFFFFF" transform="matrix(1 0 0 1.00057 -100.968 0)"/><path d="M129.92 406.812C128.748 405.308 130.073 403.436 130.733 402.003 132.33 402.556 134.637 402.801 135.2 404.694 134.791 406.812 131.67 407.974 129.92 406.812Z" fill="#FFFFFF" transform="matrix(1 0 0 1.00057 -100.968 0)"/><path d="M130.764 435.096C132.12 435.249 133.967 435.009 134.755 436.416 134.985 438.222 133.01 439.987 131.25 439.787 129.582 438.851 130.554 436.574 130.764 435.096Z" fill="#FFFFFF" transform="matrix(1 0 0 1.00057 -100.968 0)"/><path d="M159.825 437.025C160.899 436.973 162.68 436.221 163.217 437.552 163.069 438.979 161.708 440.366 160.239 440.371 159.139 439.639 159.81 438.099 159.825 437.025Z" fill="#FFFFFF" transform="matrix(1 0 0 1.00057 -100.968 0)"/></g></svg>