<svg width="428" height="518" xmlns="http://www.w3.org/2000/svg" xmlns:xlink="http://www.w3.org/1999/xlink" xml:space="preserve" overflow="hidden"><defs><clipPath id="clip0"><rect x="0" y="0" width="436" height="569"/></clipPath></defs><g clip-path="url(#clip0)"><path d="M139.553 46.1054C256.426 50.7558 373.417 49.3453 490.351 50.0966 492.922 127.257 490.004 204.449 488.067 281.589 486.539 343.307 485.497 405.111 488.685 466.798 370.938 470.442 253.104 468.658 135.347 466.149 136.66 463.052 136.804 459.546 135.838 456.337 134.32 450.823 130.814 446.096 129.383 440.556 128.443 437.061 129.082 432.85 131.933 430.402 134.371 428.205 136.19 424.765 135.025 421.459 133.032 415.638 127.043 412.45 124.6 406.9 123.476 404.416 124.6 401.585 126.537 399.878 128.581 397.589 132.066 397.027 133.604 394.231 135 391.799 133.691 388.983 132.342 386.857 130.257 383.372 127.094 380.321 126.348 376.192 125.867 373.412 127.901 371.081 130.068 369.676 132.725 367.857 134.708 364.678 134.075 361.367 133.022 355.423 128.254 350.993 126.92 345.147 126.424 342.964 126.864 340.583 128.228 338.799 129.455 336.97 131.652 336.071 132.741 334.129 134.305 331.763 134.831 328.793 134.294 326.019 133.001 319.084 127.845 313.565 126.634 306.609 125.913 302.869 127.702 299.062 130.61 296.736 133.39 294.508 134.739 290.681 133.952 287.206 132.72 281.267 128.208 276.683 126.726 270.842 125.944 267.986 126.777 264.817 128.826 262.696 130.789 260.351 134.023 259.329 135.511 256.554 136.476 254.913 136.083 252.834 135.01 251.352 132.015 247.059 126.889 244.621 124.437 239.904 122.868 236.935 124.523 233.174 127.268 231.549 131.964 228.733 135.388 223.746 135.884 218.242 136.64 210.806 133.17 203.544 128.182 198.209 129.557 192.94 133.334 188.765 135.168 183.691 136.011 181.458 135.986 178.718 134.345 176.848 132.69 174.656 129.731 174.114 128.029 171.978 126.082 170.041 124.963 167.057 126.062 164.41 128.044 159.422 133.007 156.453 135.301 151.654 136.165 149.871 136.165 147.668 135.112 145.966 133.625 143.248 130.467 142.021 128.964 139.318 127.809 137.463 127.768 135.092 128.591 133.099 130.16 129.158 133.415 126.235 135.327 122.489 136.134 120.91 136.512 118.917 135.551 117.318 134.141 114.783 131.126 114.006 129.092 112.126 126.757 110.235 124.712 107.342 125.372 104.184 126.312 99.8916 129.685 96.7794 132.271 93.4219 134.759 90.2995 137.493 86.5639 136.696 82.3274 136.052 78.2289 131.693 76.1337 130.896 72.1016 129.91 67.8447 132.49 63.9507 134.642 60.5165 137.407 56.2443 140.519 51.4559 139.553 46.1054M147.239 54.1133C146.222 59.52 145.557 65.0136 145.568 70.5174 145.67 72.2498 145.604 74.1611 146.58 75.6738 147.07 76.4863 148.118 76.1183 148.695 75.6175 150.923 73.8443 151.848 71.0233 153.76 68.9741 156.596 65.7597 160.602 63.0972 165.043 63.2403 168.227 63.3374 171.017 65.4837 172.489 68.2178 173.547 70.3488 175.524 72.0659 175.765 74.5597 176.214 77.6872 173.981 80.4315 171.467 81.9799 167.358 84.4993 162.156 85.506 157.48 84.1824 154.531 83.0122 151.266 81.801 148.077 82.6953 146.002 83.283 144.837 85.3834 144.535 87.3917 143.35 95.323 146.861 103.229 145.287 111.139 150.08 108.303 152.692 103.147 156.775 99.5288 158.599 97.8884 161.011 96.7232 163.52 96.9787 166.939 97.3007 169.801 99.4214 172.52 101.343 175.335 103.397 176.7 107.388 175.019 110.588 171.927 116.659 164.067 119.745 157.623 117.716 154.669 116.475 151.45 115.171 148.194 115.846 145.956 116.286 144.719 118.549 144.489 120.655 143.6 127.906 146.631 135.112 145.21 142.343 148.097 138.715 150.836 134.933 154.225 131.749 156.253 129.874 158.66 128.172 161.461 127.794 164.093 127.411 166.719 128.53 168.697 130.216 170.665 132.025 173.383 132.981 174.84 135.337 176.874 138.117 176.25 142.021 174.232 144.627 170.317 149.886 162.764 152.692 156.545 150.131 153.8 148.741 150.755 147.275 147.602 147.857 145.747 148.235 144.699 150.09 144.454 151.838 143.416 159.258 146.866 166.627 145.348 174.017 148.941 169.924 152.85 166.035 157.393 162.999 160.311 161.134 163.822 159.468 167.363 160.326 170.567 161.159 172.591 164.128 173.812 167.021 174.962 169.796 175.898 172.99 174.896 175.954 173.976 178.565 171.206 179.817 168.692 180.384 162.432 181.718 155.967 180.901 149.666 181.851 146.958 182.291 143.718 183.17 142.542 185.944 141.393 188.954 142.696 192.128 143.789 194.949 144.091 196.891 143.754 198.904 144.132 200.856 144.326 201.822 144.464 203.222 145.629 203.498 147.734 202.962 149.002 200.994 150.489 199.558 153.519 196.421 156.565 192.685 161.037 191.688 163.745 191.034 166.142 192.69 168.089 194.351 170.843 195.659 173.675 197.202 175.417 199.809 177.058 202.093 177.507 205.164 176.541 207.812 175.085 211.93 171.252 214.869 167.123 215.993 162.836 217.209 158.124 216.402 154.322 214.143 152.824 213.315 151.526 211.93 149.707 211.9 147.597 211.67 145.782 213.188 144.801 214.925 142.977 218.099 142.374 221.798 142.036 225.391 141.669 230.42 141.852 235.581 143.304 240.441 143.851 241.928 144.469 243.855 146.186 244.325 148.072 244.315 149.084 242.378 149.937 240.962 151.685 238.29 151.526 234.809 153.565 232.285 155.65 229.285 159.56 228.084 163.071 228.621 168.273 229.341 173.061 232.402 176.189 236.578 176.94 239.777 176.71 243.466 174.61 246.134 172.407 248.945 168.891 250.278 165.524 251.091 158.144 252.808 150.509 252.389 143.033 253.345 142.41 259.676 142.052 266.074 142.721 272.416 143.018 274.215 143.151 276.28 144.5 277.649 146.099 278.549 147.382 276.566 148.24 275.482 149.625 273.939 149.462 271.752 150.331 269.968 151.373 267.454 153.463 265.374 156.059 264.511 162.483 262.528 169.617 265.717 173.669 270.801 176.051 273.791 177.196 277.854 176.271 281.61 173.373 284.635 169.137 286.081 165.018 286.265 157.649 286.638 150.479 284.277 143.125 284.354 143.079 291.953 142.062 299.521 142.323 307.126 142.466 308.756 142.43 310.544 143.36 311.965 143.968 312.727 144.914 312.052 145.414 311.526 147.612 309.098 148.951 306.052 150.32 303.114 151.986 299.731 155.625 297.452 159.422 297.605 165.232 297.794 170.598 301.31 173.879 305.986 176.158 309.211 177.201 313.713 175.213 317.326 173.516 320.244 170.731 322.712 167.343 323.356 162.207 324.419 156.964 323.402 151.782 323.545 149.666 323.596 147.438 323.821 145.609 324.971 143.738 326.146 142.777 328.42 142.829 330.582 142.972 336.413 142.154 342.254 142.772 348.075 142.88 349.347 143.248 350.604 144.086 351.606 146.258 351.034 147.964 348.805 148.072 346.562 149.145 339.178 156.657 333.408 164.067 334.236 167.624 334.614 170.772 337.047 172.254 340.271 173.414 343.072 175.402 345.785 174.973 348.984 174.6 352.214 171.687 354.35 168.855 355.428 164.001 357.273 158.681 357.789 153.53 357.416 151.516 356.512 149.4 355.331 147.106 355.817 144.663 356.256 143.125 358.53 142.353 360.723 140.856 365.194 140.984 370.09 141.985 374.659 142.542 376.667 143.14 379.018 145.016 380.198 146.462 380.893 147.76 379.493 148.481 378.394 150.545 375.655 150.412 371.92 152.6 369.252 154.797 366.13 158.962 364.959 162.59 365.787 170 367.346 176.587 374.245 176.163 382.094 173.95 384.634 170.925 386.392 167.649 387.138 159.616 389.044 151.194 387.133 143.191 389.259 143.549 390.281 143.815 391.354 143.728 392.458 143.472 397.614 142.077 402.638 141.852 407.799 141.847 408.934 141.817 410.15 142.353 411.198 143.125 412.639 145.302 411.846 146.084 410.85 147.632 406.527 149.007 402.05 151.613 398.207 152.962 396.24 154.679 394.374 156.964 393.511 158.977 392.724 161.272 392.923 163.244 393.756 165.483 394.701 167.946 395.233 169.862 396.807 172.341 398.662 173.833 401.687 173.894 404.774 174.032 410.804 169.985 416.65 164.348 418.745 160.388 420.233 155.788 419.665 152.186 417.504 150.3 416.405 147.78 415.96 145.859 417.212 143.738 418.597 142.639 421.035 141.924 423.375 140.641 427.98 140.508 432.901 141.469 437.577 141.965 439.488 142.558 441.691 144.331 442.81 145.977 443.607 147.694 442.243 148.608 440.96 149.641 438.415 150.796 435.834 152.835 433.923 155.594 431.153 159.636 429.825 163.51 430.218 169.525 430.78 174.932 434.649 178.034 439.734 178.892 443.403 178.356 447.721 175.586 450.486 172.177 453.874 167.103 454.681 162.498 454.768 155.599 454.743 148.588 453.312 142.496 450.005 142.062 453.123 141.837 456.613 143.682 459.357 145.353 461.846 148.45 462.807 151.291 463.113 156.56 463.645 161.829 462.761 167.062 462.199 171.446 461.744 175.933 461.064 180.292 462.05 180.108 326.054 184.268 190.079 182.541 54.0826 170.782 53.4132 159.003 53.7658 147.239 54.1133M193.722 54.149C188.985 59.2389 189.634 66.6693 189.297 73.0981 188.791 77.8405 189.113 82.6034 189.138 87.3611 190.932 203.228 185.214 319.094 188.285 434.95 189.869 442.008 188.111 449.331 189.563 456.409 190.058 459.5 192.358 462.582 195.731 462.633 203.197 462.071 210.719 462.199 218.216 462.02 305.455 460.998 392.713 465.352 479.931 461.912 482.625 326.77 483.846 191.607 484.204 56.4385 387.465 50.5871 290.543 55.3806 193.722 54.149M134.621 67.0117C134.427 67.8601 133.778 68.8004 134.218 69.6691 135.337 70.3743 136.987 69.2705 137.192 68.0542 136.717 67.1037 135.511 67.1753 134.621 67.0117M160.153 68.9945C160.26 70.4765 160.02 72.955 161.977 73.2719 163.827 72.904 165.549 70.9467 165.237 69.015 163.965 67.487 161.742 68.6419 160.153 68.9945M133.38 106.653C134.943 107.45 137.315 106.872 138.163 105.283 138.163 103.576 136.083 103.167 134.846 102.569 134.044 103.699 132.317 105.227 133.38 106.653M160.582 105.712C162.161 106.734 164.614 105.881 165.467 104.251 164.624 103.126 163.27 102.748 161.992 102.37 161.354 103.346 160.03 104.424 160.582 105.712M132.654 134.959C133.39 136.655 136.456 136.614 137.223 134.959 137.182 133.533 135.843 132.731 134.913 131.867 133.998 132.736 132.715 133.558 132.654 134.959M158.563 136.441C160.301 138.05 163.265 137.769 165.125 136.482 164.721 135.051 163.27 134.478 162.074 133.86 160.796 134.555 159.335 135.112 158.563 136.441M133.231 167.205C134.673 168.314 137.207 167.609 138.122 166.086 138.316 164.338 136.078 163.893 134.841 163.285 134.069 164.399 132.521 165.733 133.231 167.205M160.183 167.46C160.301 168.733 159.948 170.757 161.507 171.262 162.841 171.232 163.806 170.092 164.455 169.05 164.839 168.396 165.217 167.287 164.404 166.796 162.989 166.27 161.527 167.057 160.183 167.46M132.669 197.76C133.323 199.385 135.909 199.323 137.008 198.204 137.688 196.645 135.873 195.593 134.913 194.688 133.998 195.552 132.71 196.364 132.669 197.76M158.4 198.654C158.599 200.008 158.487 201.909 159.979 202.584 161.788 202.681 163.531 200.596 163.091 198.838 161.951 197.392 159.882 198.352 158.4 198.654M135.066 232.586C133.63 234.293 131.688 236.184 131.954 238.606 132.915 241.146 137.115 239.996 137.565 237.615 137.918 235.576 136.364 233.936 135.066 232.586M160.275 236.491C159.376 237.942 158.226 239.434 158.226 241.218 158.395 241.386 158.732 241.734 158.906 241.903 161.589 241.862 163.919 240.124 165.897 238.463 166.489 237.809 167.757 236.767 166.878 235.872 164.706 235.177 162.427 236.092 160.275 236.491M132.388 270.326C133.042 272.391 136.742 272.365 137.35 270.285 137.555 268.481 135.991 267.194 134.877 266.018 133.737 267.194 132.148 268.507 132.388 270.326M158.507 273.341C160.357 274.22 162.953 273.147 163.893 271.343 163.009 270.06 161.43 269.825 160.03 269.509 159.335 270.617 157.715 271.941 158.507 273.341M131.08 308.715C132.153 310.238 134.172 308.761 134.785 307.524 136.011 305.398 134.596 303.002 132.935 301.607 131.913 303.789 130.349 306.221 131.08 308.715M158.047 305.475C156.882 307.422 155.272 309.364 155.257 311.735 155.523 312.946 157.046 312.568 157.873 312.282 160.306 311.347 162.549 309.809 164.215 307.795 164.767 307.131 165.437 305.879 164.461 305.265 162.401 304.443 160.142 305.153 158.047 305.475M160.05 340.695C159.299 341.809 157.858 343.021 158.415 344.503 160.158 345.371 162.641 344.492 163.668 342.888 163.679 341.145 161.318 341.104 160.05 340.695M130.574 344.4C131.371 345.99 134.213 345.969 135.071 344.452 135.224 342.975 133.748 342.131 132.823 341.252 131.892 342.126 130.559 342.964 130.574 344.4M158.068 375.395C159.217 376.151 161.558 376.151 162.023 374.587 161.742 373.545 160.745 373.003 159.979 372.359 159.151 373.12 157.255 374.051 158.068 375.395M130.232 376.636C130.318 379.125 134.616 379.324 135.26 377.076 135.449 375.267 133.896 373.974 132.771 372.793 131.709 373.892 130.41 375.016 130.232 376.636M157.97 399.423C156.923 401.212 155.661 403.093 155.722 405.254 155.799 406.573 157.229 407.176 158.39 407.033 160.546 406.849 162.672 405.878 164.169 404.304 164.946 403.547 165.288 402.162 164.389 401.365 162.631 399.853 160.158 399.75 157.97 399.423M129.966 407.109C131.703 408.509 135.424 407.099 135.27 404.723 134.397 403.195 132.49 402.944 130.998 402.372 130.155 403.721 129.01 405.551 129.966 407.109M130.922 435.497C130.661 436.984 129.777 439.131 131.33 440.168 133.068 440.388 134.969 438.742 134.928 436.974 134.32 435.385 132.291 435.62 130.922 435.497M159.953 437.398C159.923 438.461 159.156 440.224 160.485 440.776 161.885 440.628 163.193 439.33 163.326 437.93 162.784 436.601 161.021 437.367 159.953 437.398Z" transform="matrix(1 0 0 1.00039 -99.0788 0)"/><path d="M255.792 185.306C265.43 179.73 276.474 176.255 287.681 176.506 292.459 176.603 297.268 177.967 301.213 180.711 306.758 184.554 310.657 190.523 312.354 197.024 315.174 197.984 318.016 199.901 318.808 202.941 319.901 206.754 317.254 210.167 315.512 213.315 314.316 215.641 312.18 217.593 311.684 220.199 311.853 240.528 312.573 260.846 313.289 281.165 313.59 281.191 314.198 281.237 314.5 281.257 314.776 287.844 315.435 294.411 315.691 301.003 315.629 305.899 315.982 310.856 314.99 315.696 314.653 317.239 314.321 318.793 314.295 320.387 314.152 323.785 312.083 326.821 309.436 328.829 307.453 330.281 305.828 332.176 303.589 333.265 301.734 335.023 299.496 336.255 297.329 337.568 288.565 341.855 278.968 343.94 269.447 345.765 264.449 346.511 259.487 347.518 254.459 348.024 248.158 348.903 241.8 349.322 235.504 350.206 233.113 350.538 230.277 350.318 228.667 348.284 226.505 346.322 226.546 343.046 227.686 340.552 228.539 339.76 229.285 338.84 230.246 338.166 232.111 337.353 234.155 337.016 235.969 336.06 236.102 336.311 236.368 336.806 236.501 337.057 248.587 335.82 260.698 334.558 272.585 331.977 281.18 330.163 290.195 327.991 297.063 322.186 297.902 314.311 298.699 306.39 298.643 298.448 298.499 279.371 298.096 260.295 297.912 241.218 292.837 248.663 287.543 255.966 281.814 262.921 275.559 270.474 268.124 277.077 259.763 282.213 250.508 287.803 239.194 290.21 228.524 288.146 222.442 286.971 216.836 283.429 213.377 278.263 208.542 271.404 207.51 262.64 208.231 254.469 209.058 244.003 212.666 233.92 217.7 224.768 226.582 208.542 239.766 194.606 255.792 185.306M277.067 191.745C271.088 192.736 265.528 195.404 260.473 198.674 247.192 207.398 236.618 219.969 229.582 234.171 225.667 242.224 223.168 251.122 223.357 260.131 223.521 265.952 227.788 271.532 233.532 272.84 238.346 273.97 243.456 273.27 248.02 271.481 254.351 268.997 259.528 264.403 264.414 259.804 271.711 252.813 277.583 244.539 283.404 236.327 288.422 229.239 293.103 221.921 298.055 214.787 299.583 212.876 299.43 210.275 299.45 207.97 299.399 202.614 297.125 197.003 292.5 194.029 287.936 191.193 282.243 190.983 277.067 191.745Z" transform="matrix(1 0 0 1.00039 -99.0788 0)"/><path d="M366.293 201.715C377.204 193.201 390.45 187.672 404.212 186.072 407.544 185.663 411.049 185.888 414.136 187.283 415.623 187.968 416.65 189.317 417.35 190.758 421.612 190.912 425.67 192.414 429.579 194.014 436.928 197.116 443.132 203.171 445.789 210.76 448.232 217.93 446.781 225.851 443.669 232.581 439.693 241.126 431.659 246.89 423.539 251.168 431.066 253.431 438.425 256.625 444.593 261.577 451.314 266.82 456.72 273.929 459.214 282.141 461.417 288.836 461.34 296.179 459.332 302.91 456.771 311.812 451.232 319.687 444.185 325.625 433.085 334.982 419.144 340.634 404.84 342.688 393.536 344.39 381.808 343.68 370.938 340.067 362.823 337.358 354.963 333.362 348.775 327.363 343.061 321.823 338.83 314.531 337.762 306.579 336.653 298.51 338.779 290.277 342.596 283.179 347.702 273.857 356.047 266.539 365.46 261.751 361.413 260.54 357.447 258.777 354.325 255.869 348.923 250.866 345.494 243.517 345.944 236.087 346.235 230.486 348.616 225.289 351.064 220.342 354.759 213.157 359.941 206.718 366.293 201.715M379.033 209.871C370.887 215.656 364.142 223.746 360.978 233.302 359.915 236.491 359.936 240.257 361.97 243.068 364.346 246.384 368.301 248.045 372.093 249.169 381.435 251.852 391.426 250.626 400.629 247.953 408.535 245.562 416.098 241.744 422.389 236.353 427.147 232.178 431.128 226.612 431.976 220.209 432.62 215.436 429.988 210.791 426.237 208.006 422.517 205.297 417.979 203.698 413.39 203.432 411.545 204.929 408.995 205.788 406.66 205.047 403.701 204.086 400.68 203.182 397.563 202.967 390.807 203.049 384.481 206.084 379.033 209.871M401.421 260.979C388.257 263.371 375.17 268.241 364.939 277.067 358.096 283.03 353.195 291.396 352.102 300.462 351.478 305.403 352.776 310.585 355.883 314.51 360.84 320.939 368.434 324.654 375.998 327.112 385.763 330.229 396.291 330.408 406.343 328.65 415.873 326.974 425.113 323.213 432.84 317.336 439.805 312.026 445.043 304.172 446.321 295.423 447.138 290.001 445.748 284.38 442.754 279.821 437.792 271.982 429.508 266.861 420.856 263.969 414.632 261.92 408.009 260.284 401.421 260.979Z" transform="matrix(1 0 0 1.00039 -99.0788 0)"/><path d="M147.239 54.1133C159.003 53.7658 170.782 53.4132 182.541 54.0826 184.268 190.079 180.108 326.054 180.292 462.05 175.933 461.064 171.446 461.744 167.062 462.199 161.829 462.761 156.56 463.645 151.291 463.113 148.45 462.807 145.353 461.846 143.682 459.357 141.837 456.613 142.062 453.123 142.496 450.005 148.588 453.312 155.599 454.743 162.498 454.768 167.103 454.681 172.177 453.874 175.586 450.486 178.356 447.721 178.892 443.403 178.034 439.734 174.932 434.649 169.525 430.78 163.51 430.218 159.636 429.825 155.594 431.153 152.835 433.923 150.796 435.834 149.641 438.415 148.608 440.96 147.694 442.243 145.977 443.607 144.331 442.81 142.558 441.691 141.965 439.488 141.469 437.577 140.508 432.901 140.641 427.98 141.924 423.375 142.639 421.035 143.738 418.597 145.859 417.212 147.78 415.96 150.3 416.405 152.186 417.504 155.788 419.665 160.388 420.233 164.348 418.745 169.985 416.65 174.032 410.804 173.894 404.774 173.833 401.687 172.341 398.662 169.862 396.807 167.946 395.233 165.483 394.701 163.244 393.756 161.272 392.923 158.977 392.724 156.964 393.511 154.679 394.374 152.962 396.24 151.613 398.207 149.007 402.05 147.632 406.527 146.084 410.85 145.302 411.846 143.125 412.639 142.353 411.198 141.817 410.15 141.847 408.934 141.852 407.799 142.077 402.638 143.472 397.614 143.728 392.458 143.815 391.354 143.549 390.281 143.191 389.259 151.194 387.133 159.616 389.044 167.649 387.138 170.925 386.392 173.95 384.634 176.163 382.094 176.587 374.245 170 367.346 162.59 365.787 158.962 364.959 154.797 366.13 152.6 369.252 150.412 371.92 150.545 375.655 148.481 378.394 147.76 379.493 146.462 380.893 145.016 380.198 143.14 379.018 142.542 376.667 141.985 374.659 140.984 370.09 140.856 365.194 142.353 360.723 143.125 358.53 144.663 356.256 147.106 355.817 149.4 355.331 151.516 356.512 153.53 357.416 158.681 357.789 164.001 357.273 168.855 355.428 171.687 354.35 174.6 352.214 174.973 348.984 175.402 345.785 173.414 343.072 172.254 340.271 170.772 337.047 167.624 334.614 164.067 334.236 156.657 333.408 149.145 339.178 148.072 346.562 147.964 348.805 146.258 351.034 144.086 351.606 143.248 350.604 142.88 349.347 142.772 348.075 142.154 342.254 142.972 336.413 142.829 330.582 142.777 328.42 143.738 326.146 145.609 324.971 147.438 323.821 149.666 323.596 151.782 323.545 156.964 323.402 162.207 324.419 167.343 323.356 170.731 322.712 173.516 320.244 175.213 317.326 177.201 313.713 176.158 309.211 173.879 305.986 170.598 301.31 165.232 297.794 159.422 297.605 155.625 297.452 151.986 299.731 150.32 303.114 148.951 306.052 147.612 309.098 145.414 311.526 144.914 312.052 143.968 312.727 143.36 311.965 142.43 310.544 142.466 308.756 142.323 307.126 142.062 299.521 143.079 291.953 143.125 284.354 150.479 284.277 157.649 286.638 165.018 286.265 169.137 286.081 173.373 284.635 176.271 281.61 177.196 277.854 176.051 273.791 173.669 270.801 169.617 265.717 162.483 262.528 156.059 264.511 153.463 265.374 151.373 267.454 150.331 269.968 149.462 271.752 149.625 273.939 148.24 275.482 147.382 276.566 146.099 278.549 144.5 277.649 143.151 276.28 143.018 274.215 142.721 272.416 142.052 266.074 142.41 259.676 143.033 253.345 150.509 252.389 158.144 252.808 165.524 251.091 168.891 250.278 172.407 248.945 174.61 246.134 176.71 243.466 176.94 239.777 176.189 236.578 173.061 232.402 168.273 229.341 163.071 228.621 159.56 228.084 155.65 229.285 153.565 232.285 151.526 234.809 151.685 238.29 149.937 240.962 149.084 242.378 148.072 244.315 146.186 244.325 144.469 243.855 143.851 241.928 143.304 240.441 141.852 235.581 141.669 230.42 142.036 225.391 142.374 221.798 142.977 218.099 144.801 214.925 145.782 213.188 147.597 211.67 149.707 211.9 151.526 211.93 152.824 213.315 154.322 214.143 158.124 216.402 162.836 217.209 167.123 215.993 171.252 214.869 175.085 211.93 176.541 207.812 177.507 205.164 177.058 202.093 175.417 199.809 173.675 197.202 170.843 195.659 168.089 194.351 166.142 192.69 163.745 191.034 161.037 191.688 156.565 192.685 153.519 196.421 150.489 199.558 149.002 200.994 147.734 202.962 145.629 203.498 144.464 203.222 144.326 201.822 144.132 200.856 143.754 198.904 144.091 196.891 143.789 194.949 142.696 192.128 141.393 188.954 142.542 185.944 143.718 183.17 146.958 182.291 149.666 181.851 155.967 180.901 162.432 181.718 168.692 180.384 171.206 179.817 173.976 178.565 174.896 175.954 175.898 172.99 174.962 169.796 173.812 167.021 172.591 164.128 170.567 161.159 167.363 160.326 163.822 159.468 160.311 161.134 157.393 162.999 152.85 166.035 148.941 169.924 145.348 174.017 146.866 166.627 143.416 159.258 144.454 151.838 144.699 150.09 145.747 148.235 147.602 147.857 150.755 147.275 153.8 148.741 156.545 150.131 162.764 152.692 170.317 149.886 174.232 144.627 176.25 142.021 176.874 138.117 174.84 135.337 173.383 132.981 170.665 132.025 168.697 130.216 166.719 128.53 164.093 127.411 161.461 127.794 158.66 128.172 156.253 129.874 154.225 131.749 150.836 134.933 148.097 138.715 145.21 142.343 146.631 135.112 143.6 127.906 144.489 120.655 144.719 118.549 145.956 116.286 148.194 115.846 151.45 115.171 154.669 116.475 157.623 117.716 164.067 119.745 171.927 116.659 175.019 110.588 176.7 107.388 175.335 103.397 172.52 101.343 169.801 99.4214 166.939 97.3007 163.52 96.9787 161.011 96.7232 158.599 97.8884 156.775 99.5288 152.692 103.147 150.08 108.303 145.287 111.139 146.861 103.229 143.35 95.323 144.535 87.3917 144.837 85.3834 146.002 83.283 148.077 82.6953 151.266 81.801 154.531 83.0122 157.48 84.1824 162.156 85.506 167.358 84.4993 171.467 81.9799 173.981 80.4315 176.214 77.6872 175.765 74.5597 175.524 72.0659 173.547 70.3488 172.489 68.2178 171.017 65.4837 168.227 63.3374 165.043 63.2403 160.602 63.0972 156.596 65.7597 153.76 68.9741 151.848 71.0233 150.923 73.8443 148.695 75.6175 148.118 76.1183 147.07 76.4863 146.58 75.6738 145.604 74.1611 145.67 72.2498 145.568 70.5174 145.557 65.0136 146.222 59.52 147.239 54.1133Z" fill="#FFFFFF" transform="matrix(1 0 0 1.00039 -99.0788 0)"/><path d="M193.722 54.149C290.543 55.3806 387.465 50.5871 484.204 56.4385 483.846 191.607 482.625 326.77 479.931 461.912 392.713 465.352 305.455 460.998 218.216 462.02 210.719 462.199 203.197 462.071 195.731 462.633 192.358 462.582 190.058 459.5 189.563 456.409 188.111 449.331 189.869 442.008 188.285 434.95 185.214 319.094 190.932 203.228 189.138 87.3611 189.113 82.6034 188.791 77.8405 189.297 73.0981 189.634 66.6693 188.985 59.2389 193.722 54.149M255.792 185.306C239.766 194.606 226.582 208.542 217.7 224.768 212.666 233.92 209.058 244.003 208.231 254.469 207.51 262.64 208.542 271.404 213.377 278.263 216.836 283.429 222.442 286.971 228.524 288.146 239.194 290.21 250.508 287.803 259.763 282.213 268.124 277.077 275.559 270.474 281.814 262.921 287.543 255.966 292.837 248.663 297.912 241.218 298.096 260.295 298.499 279.371 298.643 298.448 298.699 306.39 297.902 314.311 297.063 322.186 290.195 327.991 281.18 330.163 272.585 331.977 260.698 334.558 248.587 335.82 236.501 337.057 236.368 336.806 236.102 336.311 235.969 336.06 234.155 337.016 232.111 337.353 230.246 338.166 229.285 338.84 228.539 339.76 227.686 340.552 226.546 343.046 226.505 346.322 228.667 348.284 230.277 350.318 233.113 350.538 235.504 350.206 241.8 349.322 248.158 348.903 254.459 348.024 259.487 347.518 264.449 346.511 269.447 345.765 278.968 343.94 288.565 341.855 297.329 337.568 299.496 336.255 301.734 335.023 303.589 333.265 305.828 332.176 307.453 330.281 309.436 328.829 312.083 326.821 314.152 323.785 314.295 320.387 314.321 318.793 314.653 317.239 314.99 315.696 315.982 310.856 315.629 305.899 315.691 301.003 315.435 294.411 314.776 287.844 314.5 281.257 314.198 281.237 313.59 281.191 313.289 281.165 312.573 260.846 311.853 240.528 311.684 220.199 312.18 217.593 314.316 215.641 315.512 213.315 317.254 210.167 319.901 206.754 318.808 202.941 318.016 199.901 315.174 197.984 312.354 197.024 310.657 190.523 306.758 184.554 301.213 180.711 297.268 177.967 292.459 176.603 287.681 176.506 276.474 176.255 265.43 179.73 255.792 185.306M366.293 201.715C359.941 206.718 354.759 213.157 351.064 220.342 348.616 225.289 346.235 230.486 345.944 236.087 345.494 243.517 348.923 250.866 354.325 255.869 357.447 258.777 361.413 260.54 365.46 261.751 356.047 266.539 347.702 273.857 342.596 283.179 338.779 290.277 336.653 298.51 337.762 306.579 338.83 314.531 343.061 321.823 348.775 327.363 354.963 333.362 362.823 337.358 370.938 340.067 381.808 343.68 393.536 344.39 404.84 342.688 419.144 340.634 433.085 334.982 444.185 325.625 451.232 319.687 456.771 311.812 459.332 302.91 461.34 296.179 461.417 288.836 459.214 282.141 456.72 273.929 451.314 266.82 444.593 261.577 438.425 256.625 431.066 253.431 423.539 251.168 431.659 246.89 439.693 241.126 443.669 232.581 446.781 225.851 448.232 217.93 445.789 210.76 443.132 203.171 436.928 197.116 429.579 194.014 425.67 192.414 421.612 190.912 417.35 190.758 416.65 189.317 415.623 187.968 414.136 187.283 411.049 185.888 407.544 185.663 404.212 186.072 390.45 187.672 377.204 193.201 366.293 201.715Z" fill="#FFFFFF" transform="matrix(1 0 0 1.00039 -99.0788 0)"/><path d="M134.621 67.0117C135.511 67.1753 136.717 67.1037 137.192 68.0542 136.987 69.2705 135.337 70.3743 134.218 69.6691 133.778 68.8004 134.427 67.8601 134.621 67.0117Z" fill="#FFFFFF" transform="matrix(1 0 0 1.00039 -99.0788 0)"/><path d="M160.153 68.9945C161.742 68.6419 163.965 67.487 165.237 69.015 165.549 70.9467 163.827 72.904 161.977 73.2719 160.02 72.955 160.26 70.4765 160.153 68.9945Z" fill="#FFFFFF" transform="matrix(1 0 0 1.00039 -99.0788 0)"/><path d="M133.38 106.653C132.317 105.227 134.044 103.699 134.846 102.569 136.083 103.167 138.163 103.576 138.163 105.283 137.315 106.872 134.943 107.45 133.38 106.653Z" fill="#FFFFFF" transform="matrix(1 0 0 1.00039 -99.0788 0)"/><path d="M160.582 105.712C160.03 104.424 161.354 103.346 161.992 102.37 163.27 102.748 164.624 103.126 165.467 104.251 164.614 105.881 162.161 106.734 160.582 105.712Z" fill="#FFFFFF" transform="matrix(1 0 0 1.00039 -99.0788 0)"/><path d="M132.654 134.959C132.715 133.558 133.998 132.736 134.913 131.867 135.843 132.731 137.182 133.533 137.223 134.959 136.456 136.614 133.39 136.655 132.654 134.959Z" fill="#FFFFFF" transform="matrix(1 0 0 1.00039 -99.0788 0)"/><path d="M158.563 136.441C159.335 135.112 160.796 134.555 162.074 133.86 163.27 134.478 164.721 135.051 165.125 136.482 163.265 137.769 160.301 138.05 158.563 136.441Z" fill="#FFFFFF" transform="matrix(1 0 0 1.00039 -99.0788 0)"/><path d="M133.231 167.205C132.521 165.733 134.069 164.399 134.841 163.285 136.078 163.893 138.316 164.338 138.122 166.086 137.207 167.609 134.673 168.314 133.231 167.205Z" fill="#FFFFFF" transform="matrix(1 0 0 1.00039 -99.0788 0)"/><path d="M160.183 167.46C161.527 167.057 162.989 166.27 164.404 166.796 165.217 167.287 164.839 168.396 164.455 169.05 163.806 170.092 162.841 171.232 161.507 171.262 159.948 170.757 160.301 168.733 160.183 167.46Z" fill="#FFFFFF" transform="matrix(1 0 0 1.00039 -99.0788 0)"/><path d="M277.067 191.745C282.243 190.983 287.936 191.193 292.5 194.029 297.125 197.003 299.399 202.614 299.45 207.97 299.43 210.275 299.583 212.876 298.055 214.787 293.103 221.921 288.422 229.239 283.404 236.327 277.583 244.539 271.711 252.813 264.414 259.804 259.528 264.403 254.351 268.997 248.02 271.481 243.456 273.27 238.346 273.97 233.532 272.84 227.788 271.532 223.521 265.952 223.357 260.131 223.168 251.122 225.667 242.224 229.582 234.171 236.618 219.969 247.192 207.398 260.473 198.674 265.528 195.404 271.088 192.736 277.067 191.745Z" fill="#FFFFFF" transform="matrix(1 0 0 1.00039 -99.0788 0)"/><path d="M132.669 197.76C132.71 196.364 133.998 195.552 134.913 194.688 135.873 195.593 137.688 196.645 137.008 198.204 135.909 199.323 133.323 199.385 132.669 197.76Z" fill="#FFFFFF" transform="matrix(1 0 0 1.00039 -99.0788 0)"/><path d="M158.4 198.654C159.882 198.352 161.951 197.392 163.091 198.838 163.531 200.596 161.788 202.681 159.979 202.584 158.487 201.909 158.599 200.008 158.4 198.654Z" fill="#FFFFFF" transform="matrix(1 0 0 1.00039 -99.0788 0)"/><path d="M379.033 209.871C384.481 206.084 390.807 203.049 397.563 202.967 400.68 203.182 403.701 204.086 406.66 205.047 408.995 205.788 411.545 204.929 413.39 203.432 417.979 203.698 422.517 205.297 426.237 208.006 429.988 210.791 432.62 215.436 431.976 220.209 431.128 226.612 427.147 232.178 422.389 236.353 416.098 241.744 408.535 245.562 400.629 247.953 391.426 250.626 381.435 251.852 372.093 249.169 368.301 248.045 364.346 246.384 361.97 243.068 359.936 240.257 359.915 236.491 360.978 233.302 364.142 223.746 370.887 215.656 379.033 209.871Z" fill="#FFFFFF" transform="matrix(1 0 0 1.00039 -99.0788 0)"/><path d="M135.066 232.586C136.364 233.936 137.918 235.576 137.565 237.615 137.115 239.996 132.915 241.146 131.954 238.606 131.688 236.184 133.63 234.293 135.066 232.586Z" fill="#FFFFFF" transform="matrix(1 0 0 1.00039 -99.0788 0)"/><path d="M160.275 236.491C162.427 236.092 164.706 235.177 166.878 235.872 167.757 236.767 166.489 237.809 165.897 238.463 163.919 240.124 161.589 241.862 158.906 241.903 158.732 241.734 158.395 241.386 158.226 241.218 158.226 239.434 159.376 237.942 160.275 236.491Z" fill="#FFFFFF" transform="matrix(1 0 0 1.00039 -99.0788 0)"/><path d="M401.421 260.979C408.009 260.284 414.632 261.92 420.856 263.969 429.508 266.861 437.792 271.982 442.754 279.821 445.748 284.38 447.138 290.001 446.321 295.423 445.043 304.172 439.805 312.026 432.84 317.336 425.113 323.213 415.873 326.974 406.343 328.65 396.291 330.408 385.763 330.229 375.998 327.112 368.434 324.654 360.84 320.939 355.883 314.51 352.776 310.585 351.478 305.403 352.102 300.462 353.195 291.396 358.096 283.03 364.939 277.067 375.17 268.241 388.257 263.371 401.421 260.979Z" fill="#FFFFFF" transform="matrix(1 0 0 1.00039 -99.0788 0)"/><path d="M132.388 270.326C132.148 268.507 133.737 267.194 134.877 266.018 135.991 267.194 137.555 268.481 137.35 270.285 136.742 272.365 133.042 272.391 132.388 270.326Z" fill="#FFFFFF" transform="matrix(1 0 0 1.00039 -99.0788 0)"/><path d="M158.507 273.341C157.715 271.941 159.335 270.617 160.03 269.509 161.43 269.825 163.009 270.06 163.893 271.343 162.953 273.147 160.357 274.22 158.507 273.341Z" fill="#FFFFFF" transform="matrix(1 0 0 1.00039 -99.0788 0)"/><path d="M131.08 308.715C130.349 306.221 131.913 303.789 132.935 301.607 134.596 303.002 136.011 305.398 134.785 307.524 134.172 308.761 132.153 310.238 131.08 308.715Z" fill="#FFFFFF" transform="matrix(1 0 0 1.00039 -99.0788 0)"/><path d="M158.047 305.475C160.142 305.153 162.401 304.443 164.461 305.265 165.437 305.879 164.767 307.131 164.215 307.795 162.549 309.809 160.306 311.347 157.873 312.282 157.046 312.568 155.523 312.946 155.257 311.735 155.272 309.364 156.882 307.422 158.047 305.475Z" fill="#FFFFFF" transform="matrix(1 0 0 1.00039 -99.0788 0)"/><path d="M160.05 340.695C161.318 341.104 163.679 341.145 163.668 342.888 162.641 344.492 160.158 345.371 158.415 344.503 157.858 343.021 159.299 341.809 160.05 340.695Z" fill="#FFFFFF" transform="matrix(1 0 0 1.00039 -99.0788 0)"/><path d="M130.574 344.4C130.559 342.964 131.892 342.126 132.823 341.252 133.748 342.131 135.224 342.975 135.071 344.452 134.213 345.969 131.371 345.99 130.574 344.4Z" fill="#FFFFFF" transform="matrix(1 0 0 1.00039 -99.0788 0)"/><path d="M158.068 375.395C157.255 374.051 159.151 373.12 159.979 372.359 160.745 373.003 161.742 373.545 162.023 374.587 161.558 376.151 159.217 376.151 158.068 375.395Z" fill="#FFFFFF" transform="matrix(1 0 0 1.00039 -99.0788 0)"/><path d="M130.232 376.636C130.41 375.016 131.709 373.892 132.771 372.793 133.896 373.974 135.449 375.267 135.26 377.076 134.616 379.324 130.318 379.125 130.232 376.636Z" fill="#FFFFFF" transform="matrix(1 0 0 1.00039 -99.0788 0)"/><path d="M157.97 399.423C160.158 399.75 162.631 399.853 164.389 401.365 165.288 402.162 164.946 403.547 164.169 404.304 162.672 405.878 160.546 406.849 158.39 407.033 157.229 407.176 155.799 406.573 155.722 405.254 155.661 403.093 156.923 401.212 157.97 399.423Z" fill="#FFFFFF" transform="matrix(1 0 0 1.00039 -99.0788 0)"/><path d="M129.966 407.109C129.01 405.551 130.155 403.721 130.998 402.372 132.49 402.944 134.397 403.195 135.27 404.723 135.424 407.099 131.703 408.509 129.966 407.109Z" fill="#FFFFFF" transform="matrix(1 0 0 1.00039 -99.0788 0)"/><path d="M130.922 435.497C132.291 435.62 134.32 435.385 134.928 436.974 134.969 438.742 133.068 440.388 131.33 440.168 129.777 439.131 130.661 436.984 130.922 435.497Z" fill="#FFFFFF" transform="matrix(1 0 0 1.00039 -99.0788 0)"/><path d="M159.953 437.398C161.021 437.367 162.784 436.601 163.326 437.93 163.193 439.33 161.885 440.628 160.485 440.776 159.156 440.224 159.923 438.461 159.953 437.398Z" fill="#FFFFFF" transform="matrix(1 0 0 1.00039 -99.0788 0)"/></g></svg>