<svg width="428" height="518" xmlns="http://www.w3.org/2000/svg" xmlns:xlink="http://www.w3.org/1999/xlink" xml:space="preserve" overflow="hidden"><defs><clipPath id="clip0"><rect x="0" y="0" width="436" height="520"/></clipPath></defs><g clip-path="url(#clip0)"><path d="M138.104 46.1251C255.04 50.778 372.084 49.377 489.076 50.1184 491.781 130.91 488.447 211.722 486.535 292.488 485.149 350.675 484.423 408.934 487.404 467.085 369.599 470.649 251.712 468.931 133.906 466.4 135.359 462.928 135.307 458.991 134.044 455.473 132.393 450.416 129.248 445.952 127.914 440.783 126.973 437.27 127.633 433.067 130.491 430.608 132.909 428.425 134.709 425.014 133.579 421.727 131.595 415.882 125.593 412.692 123.138 407.129 122.075 404.767 123.01 402.036 124.826 400.334 126.804 397.971 130.215 397.388 131.943 394.776 132.966 393.308 132.925 391.37 132.265 389.77 130.435 385.143 126.191 381.794 124.969 376.89 124.243 374.134 126.063 371.552 128.282 370.12 130.92 368.341 133.109 365.37 132.669 362.031 131.846 355.86 126.809 351.335 125.46 345.332 124.994 343.261 125.342 341.012 126.564 339.263 127.469 337.826 128.916 336.896 130.133 335.755 132.526 333.27 133.492 329.589 132.838 326.225 131.554 319.261 126.365 313.733 125.163 306.754 124.493 303.17 126.089 299.473 128.839 297.177 131.606 295.04 133.191 291.42 132.587 287.943 131.559 281.557 126.487 276.756 125.153 270.477 124.544 267.751 125.454 264.837 127.362 262.838 129.402 260.414 132.828 259.366 134.213 256.365 135.057 254.636 134.443 252.612 133.329 251.17 130.419 247.279 125.889 244.881 123.322 240.703 122.07 238.771 122.039 236.173 123.307 234.24 124.473 231.98 127.05 231.172 128.768 229.449 132.332 226.269 134.469 221.591 134.53 216.815 134.678 209.877 131.35 203.286 126.707 198.295 128.093 193.167 131.677 189.051 133.579 184.147 134.459 181.939 134.643 179.208 133.109 177.235 131.411 174.755 128.129 174.197 126.334 171.815 124.519 169.913 123.558 167.044 124.585 164.518 126.564 159.513 131.544 156.537 133.84 151.731 134.709 149.941 134.704 147.722 133.635 146.019 132.137 143.32 128.998 142.082 127.5 139.388 126.508 137.772 126.298 135.737 126.871 133.932 128.354 129.121 132.736 125.91 134.402 121.2 135.364 118.7 133.743 116.113 131.606 114.865 128.901 113.27 126.114 111.455 124.59 108.612 123.409 106.495 123.655 103.857 124.739 101.755 127.443 96.3355 132.766 92.603 134.878 86.8354 136.125 83.5886 134.949 79.9225 132.618 77.4887 130.337 75.1469 128.604 71.8899 129.371 68.5408 130.476 63.4942 134.218 59.6492 136.422 55.0934 137.889 52.363 138.57 49.2134 138.104 46.1251M145.784 54.1424C144.71 60.0633 143.908 66.0865 144.184 72.1148 144.378 73.5158 144.347 75.3821 145.738 76.2002 147.707 76.0417 148.765 74.0271 149.808 72.5853 152.375 68.0295 156.731 64.0413 162.074 63.3255 165.771 62.7733 169.366 65.0383 171.048 68.2596 172.116 70.3764 174.07 72.1046 174.325 74.5794 174.785 77.729 172.531 80.4901 169.994 82.0393 165.889 84.5499 160.689 85.5571 156.015 84.2175 153.075 83.0619 149.829 81.8502 146.643 82.7347 144.352 83.3738 143.222 85.7974 142.987 87.991 142.082 95.7577 145.349 103.478 143.836 111.22 148.499 108.402 151.132 103.453 155.044 99.8277 156.925 98.0688 159.431 96.7599 162.069 97.0309 165.495 97.353 168.363 99.4749 171.078 101.403 173.901 103.453 175.256 107.446 173.579 110.642 170.189 117.309 161.036 120.398 154.323 117.028 151.807 116.046 148.964 115.254 146.29 116.041 144.286 116.66 143.279 118.767 143.033 120.71 142.138 127.97 145.186 135.19 143.749 142.43 146.331 139.163 148.821 135.798 151.741 132.817 154.246 130.291 157.355 127.822 161.082 127.791 163.925 127.745 166.364 129.427 168.409 131.227 170.629 132.664 173.093 134.152 174.126 136.734 175.486 139.858 174.111 143.427 171.917 145.794 167.821 150.289 160.903 152.61 155.121 150.217 152.37 148.847 149.333 147.359 146.173 147.926 144.306 148.3 143.243 150.166 142.992 151.92 141.97 159.344 145.39 166.707 143.908 174.1 146.837 170.715 150.038 167.54 153.566 164.784 156.639 162.458 160.157 160.188 164.145 160.177 167.448 160.142 170.127 162.627 171.554 165.413 173.149 168.542 174.484 172.193 173.569 175.721 172.776 178.518 169.877 179.909 167.249 180.481 160.714 181.882 153.945 180.906 147.379 182.092 145.063 182.562 142.44 183.411 141.269 185.656 139.986 188.279 140.886 191.316 141.888 193.878 142.921 195.918 142.215 198.254 142.604 200.428 142.813 201.547 142.834 203.214 144.163 203.608 146.393 203.02 147.717 200.903 149.297 199.384 152.339 196.245 155.463 192.472 160.019 191.73 162.565 191.28 164.728 192.87 166.564 194.394 169.207 195.713 171.973 197.119 173.742 199.589 175.547 201.905 176.12 205.121 175.113 207.903 173.661 212.024 169.841 214.964 165.715 216.104 161.292 217.362 156.409 216.477 152.538 214.049 151.178 213.246 149.936 212.044 148.264 212.014 146.157 211.779 144.342 213.287 143.355 215.015 141.53 218.185 140.922 221.882 140.579 225.482 140.211 230.63 140.38 235.938 141.954 240.898 142.491 242.273 143.12 244.032 144.721 244.451 146.638 244.466 147.65 242.462 148.52 241.041 150.166 238.494 150.069 235.237 151.864 232.768 153.684 229.884 157.191 228.411 160.54 228.652 166.083 228.989 171.201 232.18 174.601 236.47 175.736 240.003 175.174 244.374 172.454 247.089 170.107 249.457 166.845 250.602 163.67 251.318 156.414 252.934 148.929 252.535 141.596 253.481 140.911 260.378 140.466 267.404 141.53 274.281 141.888 275.687 142.22 278.146 144.138 278.044 146.295 276.975 147.788 274.639 148.177 272.292 148.76 269.623 150.268 267.082 152.615 265.614 155.381 263.86 158.884 263.712 162.003 264.453 166.426 265.522 170.501 268.217 173.006 272.041 174.857 274.864 175.639 278.428 174.837 281.736 171.978 284.788 167.714 286.22 163.608 286.419 156.225 286.803 149.041 284.435 141.673 284.507 141.617 292.1 140.61 299.667 140.865 307.265 140.998 308.901 140.983 310.686 141.888 312.133 142.665 312.971 143.647 312.046 144.204 311.432 146.152 309.116 147.466 306.36 148.693 303.62 150.181 300.393 153.397 297.985 156.992 297.801 161.665 297.51 166.165 299.754 169.56 302.837 172.505 305.558 174.908 309.305 174.831 313.447 174.806 317.236 172.111 320.431 169.054 322.359 164.554 324.706 159.298 323.929 154.435 323.791 151.229 323.709 147.824 323.397 144.828 324.767 142.542 325.805 141.285 328.372 141.371 330.816 141.52 336.793 140.64 342.796 141.382 348.758 141.479 349.867 141.975 350.88 142.573 351.805 144.807 351.248 146.5 348.988 146.623 346.713 147.717 339.34 155.223 333.582 162.627 334.416 166.18 334.794 169.325 337.223 170.807 340.449 171.907 343.113 173.753 345.644 173.579 348.666 173.507 351.519 171.298 353.753 168.88 354.955 164.564 357.077 159.676 357.65 154.921 357.742 153.617 357.711 152.211 357.875 151.051 357.154 148.831 355.952 145.876 355.241 143.677 356.857 141.029 358.897 140.257 362.43 139.909 365.585 139.582 369.844 139.894 374.323 141.714 378.245 142.297 379.554 143.683 381.206 145.268 380.362 147.855 378.593 148.642 375.346 149.501 372.529 150.78 368.5 154.737 365.427 159.042 365.754 167.351 366.204 175.143 373.761 174.729 382.3 172.607 384.703 169.775 386.446 166.661 387.229 158.505 389.33 149.905 387.305 141.755 389.458 142.067 390.496 142.353 391.57 142.271 392.669 142.021 398.15 140.395 403.499 140.395 408.995 140.446 410.181 140.584 412.017 142.072 412.232 143.064 412.078 144.465 411.828 144.782 410.708 146.413 405.973 147.988 401.049 151.163 397.082 152.82 394.985 155.238 393.272 157.994 393.231 160.525 393.099 162.749 394.474 165.096 395.195 168.369 396.361 171.196 399.014 172.07 402.435 173.579 408.33 170.342 414.717 165.28 417.815 161.067 420.464 155.427 420.402 151.143 417.948 149.552 417.023 147.655 416.348 145.81 416.828 143.713 417.37 142.307 419.231 141.417 421.098 139.449 425.464 139.127 430.419 139.577 435.138 139.935 437.766 140.38 440.681 142.317 442.654 144.01 444.209 146.495 442.552 147.313 440.85 148.341 438.165 149.716 435.532 151.935 433.645 154.942 430.946 159.221 429.902 163.174 430.593 168.752 431.508 173.696 435.195 176.595 439.985 177.531 443.871 176.805 448.494 173.64 451.214 170.071 454.302 165.112 454.987 160.551 455.013 153.812 454.911 146.986 453.474 141.029 450.247 140.615 453.366 140.374 456.859 142.22 459.599 143.897 462.1 147.006 463.061 149.854 463.368 155.136 463.889 160.407 463.01 165.643 462.442 170.02 461.977 174.499 461.333 178.861 462.289 178.671 326.23 182.844 190.186 181.1 54.1219 169.34 53.4214 157.554 53.7998 145.784 54.1424M192.282 54.1782C190.943 55.6916 189.859 57.4454 189.266 59.3935 187.65 64.5015 188.212 69.9367 187.727 75.198 187.41 77.908 187.645 80.6332 187.645 83.3534 189.629 200.622 183.749 317.895 186.852 435.159 188.432 442.24 186.678 449.572 188.131 456.669 188.616 459.001 189.833 461.466 192.18 462.396 194.317 463.332 196.639 462.682 198.863 462.57 292.12 460.601 385.414 465.847 478.656 462.161 481.345 326.946 482.572 191.71 482.93 56.4688 386.14 50.6144 289.16 55.4104 192.282 54.1782M133.175 67.0171C132.945 67.8966 132.367 68.8169 132.736 69.7475 134.065 70.4429 135.348 69.1595 135.9 68.0346 135.118 67.4006 134.167 67.1091 133.175 67.0171M158.695 69.0214C158.828 70.5093 158.562 72.9994 160.54 73.3164 162.386 72.9278 164.114 70.9798 163.792 69.0419 162.494 67.5284 160.295 68.6891 158.695 69.0214M131.923 106.715C133.487 107.508 135.849 106.925 136.708 105.34 136.698 103.627 134.617 103.233 133.38 102.609 132.597 103.755 130.849 105.278 131.923 106.715M159.114 105.738C160.699 106.843 163.153 105.902 164.058 104.297 163.158 103.233 161.829 102.788 160.54 102.415 159.912 103.392 158.618 104.455 159.114 105.738M131.186 135.041C131.953 136.719 134.96 136.683 135.757 135.052 135.737 133.615 134.372 132.807 133.451 131.928 132.541 132.812 131.253 133.635 131.186 135.041M157.074 136.535C158.904 138.109 161.783 137.813 163.721 136.581 163.261 135.164 161.854 134.571 160.663 133.917 159.344 134.602 157.902 135.226 157.074 136.535M131.759 167.285C133.201 168.415 135.768 167.699 136.673 166.16 136.831 164.416 134.602 163.987 133.375 163.363 132.618 164.488 131.074 165.807 131.759 167.285M158.72 167.55C158.863 168.829 158.5 170.9 160.106 171.365 161.548 171.247 162.57 169.989 163.189 168.793 163.465 168.2 163.649 167.285 162.969 166.891 161.548 166.354 160.075 167.152 158.72 167.55M131.196 197.876C131.928 199.579 134.965 199.523 135.768 197.891 135.716 196.46 134.387 195.657 133.451 194.783 132.536 195.657 131.263 196.475 131.196 197.876M156.931 198.761C157.166 200.116 157.038 201.987 158.511 202.693 160.336 202.8 162.074 200.719 161.66 198.945 160.494 197.498 158.424 198.474 156.931 198.761M130.562 237.298C130.256 238.198 130.44 239.394 131.375 239.849 133.257 240.795 136.079 239.481 136.166 237.257 136.192 235.396 134.791 234 133.651 232.706 132.398 234.056 131.11 235.498 130.562 237.298M158.797 236.633C157.928 238.106 156.752 239.594 156.777 241.388 156.956 241.547 157.314 241.874 157.493 242.033 160.157 241.976 162.468 240.253 164.437 238.607 165.045 237.932 166.313 236.904 165.434 235.984 163.235 235.324 160.955 236.204 158.797 236.633M130.879 269.991C130.895 272.686 135.936 272.66 135.926 269.965 135.768 268.355 134.438 267.25 133.41 266.141 132.372 267.255 131.028 268.365 130.879 269.991M157.079 273.504C158.966 274.368 161.476 273.258 162.483 271.489 161.548 270.247 159.993 269.955 158.572 269.648 157.897 270.768 156.24 272.118 157.079 273.504M129.627 308.901C130.721 310.405 132.736 308.901 133.339 307.659 134.551 305.527 133.104 303.17 131.478 301.753 130.465 303.952 128.86 306.401 129.627 308.901M156.593 305.639C155.463 307.71 153.3 309.939 154.037 312.44 156.041 313.304 158.096 311.657 159.773 310.676 161.292 309.459 163.486 308.124 163.486 305.956 161.706 304.177 158.802 305.414 156.593 305.639M158.582 340.874C157.856 342.004 156.404 343.215 156.971 344.698 158.761 345.552 161.798 344.647 162.289 342.586 161.507 341.323 159.871 341.247 158.582 340.874M129.1 344.616C129.964 346.166 132.756 346.15 133.625 344.621 133.733 343.149 132.28 342.321 131.37 341.421 130.44 342.315 129.085 343.154 129.1 344.616M156.358 375.285C157.462 376.594 159.364 376.031 160.643 375.32 160.52 374.027 159.487 373.26 158.531 372.539 157.682 373.311 156.358 373.971 156.358 375.285M128.768 376.844C128.86 379.329 133.139 379.528 133.799 377.289 133.998 375.469 132.424 374.18 131.314 372.984 130.256 374.093 128.947 375.218 128.768 376.844M156.516 399.633C155.484 401.438 154.205 403.314 154.277 405.482 154.359 406.807 155.801 407.395 156.961 407.246 159.216 407.042 161.486 405.999 162.949 404.24 163.598 403.493 163.726 402.261 162.933 401.571 161.169 400.068 158.7 399.965 156.516 399.633M128.502 407.333C130.24 408.729 134.019 407.303 133.789 404.91 132.868 403.376 130.936 403.095 129.376 402.624 128.768 404.056 127.515 405.789 128.502 407.333M129.453 435.721C129.207 437.219 128.302 439.392 129.888 440.42 131.621 440.599 133.492 438.988 133.467 437.224 132.874 435.619 130.823 435.864 129.453 435.721M158.49 437.623C158.485 438.697 157.718 440.435 159.027 441.023 160.423 440.86 161.696 439.612 161.885 438.221 161.445 436.81 159.559 437.618 158.49 437.623Z" transform="matrix(1.00155 0 0 1 -98.6947 0)"/><path d="M308.891 184.061C314.955 183.498 321.045 182.915 327.145 183.171 329.615 183.381 332.289 183.631 334.339 185.175 336.691 187.052 337.059 190.513 336.216 193.239 335.597 195.238 333.342 196.03 332.56 197.927 324.225 214.243 317.215 231.285 312.266 248.94 318.33 248.046 324.333 246.716 330.243 245.095 331.854 244.605 333.818 244.446 335.121 245.735 336.548 246.844 336.911 248.797 336.405 250.474 335.438 254.084 332.994 257.679 329.241 258.758 322.681 260.798 315.804 261.452 309.07 262.72 305.051 280.672 303.553 299.089 302.807 317.435 302.582 321.505 301.227 325.621 298.481 328.689 296.962 330.382 294.702 331.547 292.386 331.261 290.515 331.021 289.119 329.533 288.234 327.973 285.693 323.438 283.868 318.555 281.961 313.738 281.091 311.192 280.007 308.533 280.432 305.798 280.682 304.075 281.966 302.469 283.74 302.193 285.519 301.774 287.212 302.658 288.725 303.482 290.05 290.367 291.696 277.272 294.16 264.321 288.321 265.21 282.477 266.141 276.587 266.581 274.317 266.754 271.847 266.78 269.863 265.502 267.445 264.07 266.028 261.053 266.662 258.287 267.092 256.692 268.529 255.618 270.011 255.061 272.307 254.192 274.767 253.89 277.185 253.542 283.868 252.627 290.551 251.717 297.228 250.786 299.81 240.545 303.185 230.518 306.989 220.67 310.042 212.806 313.273 205.004 317.011 197.436 305.184 198.837 293.353 200.3 281.664 202.641 273.637 204.237 265.609 205.832 257.597 207.489 252.775 208.481 247.826 209.171 242.907 208.747 239.41 208.291 235.37 206.635 234.21 202.994 233.627 200.453 234.051 197.426 235.933 195.504 237.206 194.215 239.103 193.949 240.836 193.98 252.929 193.975 264.806 191.423 276.638 189.184 287.304 187.001 298.041 185.088 308.891 184.061Z" transform="matrix(1.00155 0 0 1 -98.6947 0)"/><path d="M391.452 187.41C393.681 185.313 397.061 185.37 399.914 185.697 402.885 186.06 406.321 187.093 407.696 190.022 409.062 193.008 407.584 196.255 405.927 198.786 407.206 205.06 407.027 211.487 407.507 217.848 408.888 239.466 410.595 261.069 412.528 282.651 413.024 287.805 413.479 292.969 414.185 298.108 415.652 306.028 417.933 313.779 419.502 321.679 419.932 323.535 419.881 325.596 418.771 327.217 416.639 330.336 412.815 332.253 409.041 332.1 407.134 331.992 405.672 330.545 404.669 329.047 402.696 326.076 401.663 322.594 401.024 319.117 399.142 308.441 397.951 297.658 396.908 286.874 394.627 262.475 393.324 237.993 391.616 213.553 381.998 222.567 371.654 230.855 360.467 237.85 357.992 239.261 355.216 240.949 352.25 240.223 348.906 239.543 346.155 235.718 347.582 232.369 349.07 228.918 352.613 227.164 355.569 225.165 368.576 216.754 379.493 205.658 390.47 194.849 390.675 192.395 389.806 189.501 391.452 187.41Z" transform="matrix(1.00155 0 0 1 -98.6947 0)"/><path d="M145.784 54.1424C157.554 53.7998 169.34 53.4214 181.1 54.1219 182.844 190.186 178.671 326.23 178.861 462.289 174.499 461.333 170.02 461.977 165.643 462.442 160.407 463.01 155.136 463.889 149.854 463.368 147.006 463.061 143.897 462.1 142.22 459.599 140.374 456.859 140.615 453.366 141.029 450.247 146.986 453.474 153.812 454.911 160.551 455.013 165.112 454.987 170.071 454.302 173.64 451.214 176.805 448.494 177.531 443.871 176.595 439.985 173.696 435.195 168.752 431.508 163.174 430.593 159.221 429.902 154.942 430.946 151.935 433.645 149.716 435.532 148.341 438.165 147.313 440.85 146.495 442.552 144.01 444.209 142.317 442.654 140.38 440.681 139.935 437.766 139.577 435.138 139.127 430.419 139.449 425.464 141.417 421.098 142.307 419.231 143.713 417.37 145.81 416.828 147.655 416.348 149.552 417.023 151.143 417.948 155.427 420.402 161.067 420.464 165.28 417.815 170.342 414.717 173.579 408.33 172.07 402.435 171.196 399.014 168.369 396.361 165.096 395.195 162.749 394.474 160.525 393.099 157.994 393.231 155.238 393.272 152.82 394.985 151.163 397.082 147.988 401.049 146.413 405.973 144.782 410.708 144.465 411.828 143.064 412.078 142.072 412.232 140.584 412.017 140.446 410.181 140.395 408.995 140.395 403.499 142.021 398.15 142.271 392.669 142.353 391.57 142.067 390.496 141.755 389.458 149.905 387.305 158.505 389.33 166.661 387.229 169.775 386.446 172.607 384.703 174.729 382.3 175.143 373.761 167.351 366.204 159.042 365.754 154.737 365.427 150.78 368.5 149.501 372.529 148.642 375.346 147.855 378.593 145.268 380.362 143.683 381.206 142.297 379.554 141.714 378.245 139.894 374.323 139.582 369.844 139.909 365.585 140.257 362.43 141.029 358.897 143.677 356.857 145.876 355.241 148.831 355.952 151.051 357.154 152.211 357.875 153.617 357.711 154.921 357.742 159.676 357.65 164.564 357.077 168.88 354.955 171.298 353.753 173.507 351.519 173.579 348.666 173.753 345.644 171.907 343.113 170.807 340.449 169.325 337.223 166.18 334.794 162.627 334.416 155.223 333.582 147.717 339.34 146.623 346.713 146.5 348.988 144.807 351.248 142.573 351.805 141.975 350.88 141.479 349.867 141.382 348.758 140.64 342.796 141.52 336.793 141.371 330.816 141.285 328.372 142.542 325.805 144.828 324.767 147.824 323.397 151.229 323.709 154.435 323.791 159.298 323.929 164.554 324.706 169.054 322.359 172.111 320.431 174.806 317.236 174.831 313.447 174.908 309.305 172.505 305.558 169.56 302.837 166.165 299.754 161.665 297.51 156.992 297.801 153.397 297.985 150.181 300.393 148.693 303.62 147.466 306.36 146.152 309.116 144.204 311.432 143.647 312.046 142.665 312.971 141.888 312.133 140.983 310.686 140.998 308.901 140.865 307.265 140.61 299.667 141.617 292.1 141.673 284.507 149.041 284.435 156.225 286.803 163.608 286.419 167.714 286.22 171.978 284.788 174.837 281.736 175.639 278.428 174.857 274.864 173.006 272.041 170.501 268.217 166.426 265.522 162.003 264.453 158.884 263.712 155.381 263.86 152.615 265.614 150.268 267.082 148.76 269.623 148.177 272.292 147.788 274.639 146.295 276.975 144.138 278.044 142.22 278.146 141.888 275.687 141.53 274.281 140.466 267.404 140.911 260.378 141.596 253.481 148.929 252.535 156.414 252.934 163.67 251.318 166.845 250.602 170.107 249.457 172.454 247.089 175.174 244.374 175.736 240.003 174.601 236.47 171.201 232.18 166.083 228.989 160.54 228.652 157.191 228.411 153.684 229.884 151.864 232.768 150.069 235.237 150.166 238.494 148.52 241.041 147.65 242.462 146.638 244.466 144.721 244.451 143.12 244.032 142.491 242.273 141.954 240.898 140.38 235.938 140.211 230.63 140.579 225.482 140.922 221.882 141.53 218.185 143.355 215.015 144.342 213.287 146.157 211.779 148.264 212.014 149.936 212.044 151.178 213.246 152.538 214.049 156.409 216.477 161.292 217.362 165.715 216.104 169.841 214.964 173.661 212.024 175.113 207.903 176.12 205.121 175.547 201.905 173.742 199.589 171.973 197.119 169.207 195.713 166.564 194.394 164.728 192.87 162.565 191.28 160.019 191.73 155.463 192.472 152.339 196.245 149.297 199.384 147.717 200.903 146.393 203.02 144.163 203.608 142.834 203.214 142.813 201.547 142.604 200.428 142.215 198.254 142.921 195.918 141.888 193.878 140.886 191.316 139.986 188.279 141.269 185.656 142.44 183.411 145.063 182.562 147.379 182.092 153.945 180.906 160.714 181.882 167.249 180.481 169.877 179.909 172.776 178.518 173.569 175.721 174.484 172.193 173.149 168.542 171.554 165.413 170.127 162.627 167.448 160.142 164.145 160.177 160.157 160.188 156.639 162.458 153.566 164.784 150.038 167.54 146.837 170.715 143.908 174.1 145.39 166.707 141.97 159.344 142.992 151.92 143.243 150.166 144.306 148.3 146.173 147.926 149.333 147.359 152.37 148.847 155.121 150.217 160.903 152.61 167.821 150.289 171.917 145.794 174.111 143.427 175.486 139.858 174.126 136.734 173.093 134.152 170.629 132.664 168.409 131.227 166.364 129.427 163.925 127.745 161.082 127.791 157.355 127.822 154.246 130.291 151.741 132.817 148.821 135.798 146.331 139.163 143.749 142.43 145.186 135.19 142.138 127.97 143.033 120.71 143.279 118.767 144.286 116.66 146.29 116.041 148.964 115.254 151.807 116.046 154.323 117.028 161.036 120.398 170.189 117.309 173.579 110.642 175.256 107.446 173.901 103.453 171.078 101.403 168.363 99.4749 165.495 97.353 162.069 97.0309 159.431 96.7599 156.925 98.0688 155.044 99.8277 151.132 103.453 148.499 108.402 143.836 111.22 145.349 103.478 142.082 95.7577 142.987 87.991 143.222 85.7974 144.352 83.3738 146.643 82.7347 149.829 81.8502 153.075 83.0619 156.015 84.2175 160.689 85.5571 165.889 84.5499 169.994 82.0393 172.531 80.4901 174.785 77.729 174.325 74.5794 174.07 72.1046 172.116 70.3764 171.048 68.2596 169.366 65.0383 165.771 62.7733 162.074 63.3255 156.731 64.0413 152.375 68.0295 149.808 72.5853 148.765 74.0271 147.707 76.0417 145.738 76.2002 144.347 75.3821 144.378 73.5158 144.184 72.1148 143.908 66.0865 144.71 60.0633 145.784 54.1424Z" fill="#FFFFFF" transform="matrix(1.00155 0 0 1 -98.6947 0)"/><path d="M192.282 54.1782C289.16 55.4104 386.14 50.6144 482.93 56.4688 482.572 191.71 481.345 326.946 478.656 462.161 385.414 465.847 292.12 460.601 198.863 462.57 196.639 462.682 194.317 463.332 192.18 462.396 189.833 461.466 188.616 459.001 188.131 456.669 186.678 449.572 188.432 442.24 186.852 435.159 183.749 317.895 189.629 200.622 187.645 83.3534 187.645 80.6332 187.41 77.908 187.727 75.198 188.212 69.9367 187.65 64.5015 189.266 59.3935 189.859 57.4454 190.943 55.6916 192.282 54.1782M308.891 184.061C298.041 185.088 287.304 187.001 276.638 189.184 264.806 191.423 252.929 193.975 240.836 193.98 239.103 193.949 237.206 194.215 235.933 195.504 234.051 197.426 233.627 200.453 234.21 202.994 235.37 206.635 239.41 208.291 242.907 208.747 247.826 209.171 252.775 208.481 257.597 207.489 265.609 205.832 273.637 204.237 281.664 202.641 293.353 200.3 305.184 198.837 317.011 197.436 313.273 205.004 310.042 212.806 306.989 220.67 303.185 230.518 299.81 240.545 297.228 250.786 290.551 251.717 283.868 252.627 277.185 253.542 274.767 253.89 272.307 254.192 270.011 255.061 268.529 255.618 267.092 256.692 266.662 258.287 266.028 261.053 267.445 264.07 269.863 265.502 271.847 266.78 274.317 266.754 276.587 266.581 282.477 266.141 288.321 265.21 294.16 264.321 291.696 277.272 290.05 290.367 288.725 303.482 287.212 302.658 285.519 301.774 283.74 302.193 281.966 302.469 280.682 304.075 280.432 305.798 280.007 308.533 281.091 311.192 281.961 313.738 283.868 318.555 285.693 323.438 288.234 327.973 289.119 329.533 290.515 331.021 292.386 331.261 294.702 331.547 296.962 330.382 298.481 328.689 301.227 325.621 302.582 321.505 302.807 317.435 303.553 299.089 305.051 280.672 309.07 262.72 315.804 261.452 322.681 260.798 329.241 258.758 332.994 257.679 335.438 254.084 336.405 250.474 336.911 248.797 336.548 246.844 335.121 245.735 333.818 244.446 331.854 244.605 330.243 245.095 324.333 246.716 318.33 248.046 312.266 248.94 317.215 231.285 324.225 214.243 332.56 197.927 333.342 196.03 335.597 195.238 336.216 193.239 337.059 190.513 336.691 187.052 334.339 185.175 332.289 183.631 329.615 183.381 327.145 183.171 321.045 182.915 314.955 183.498 308.891 184.061M391.452 187.41C389.806 189.501 390.675 192.395 390.47 194.849 379.493 205.658 368.576 216.754 355.569 225.165 352.613 227.164 349.07 228.918 347.582 232.369 346.155 235.718 348.906 239.543 352.25 240.223 355.216 240.949 357.992 239.261 360.467 237.85 371.654 230.855 381.998 222.567 391.616 213.553 393.324 237.993 394.627 262.475 396.908 286.874 397.951 297.658 399.142 308.441 401.024 319.117 401.663 322.594 402.696 326.076 404.669 329.047 405.672 330.545 407.134 331.992 409.041 332.1 412.815 332.253 416.639 330.336 418.771 327.217 419.881 325.596 419.932 323.535 419.502 321.679 417.933 313.779 415.652 306.028 414.185 298.108 413.479 292.969 413.024 287.805 412.528 282.651 410.595 261.069 408.888 239.466 407.507 217.848 407.027 211.487 407.206 205.06 405.927 198.786 407.584 196.255 409.062 193.008 407.696 190.022 406.321 187.093 402.885 186.06 399.914 185.697 397.061 185.37 393.681 185.313 391.452 187.41Z" fill="#FFFFFF" transform="matrix(1.00155 0 0 1 -98.6947 0)"/><path d="M133.175 67.0171C134.167 67.1091 135.118 67.4006 135.9 68.0346 135.348 69.1595 134.065 70.4429 132.736 69.7475 132.367 68.8169 132.945 67.8966 133.175 67.0171Z" fill="#FFFFFF" transform="matrix(1.00155 0 0 1 -98.6947 0)"/><path d="M158.695 69.0214C160.295 68.6891 162.494 67.5284 163.792 69.0419 164.114 70.9798 162.386 72.9278 160.54 73.3164 158.562 72.9994 158.828 70.5093 158.695 69.0214Z" fill="#FFFFFF" transform="matrix(1.00155 0 0 1 -98.6947 0)"/><path d="M131.923 106.715C130.849 105.278 132.597 103.755 133.38 102.609 134.617 103.233 136.698 103.627 136.708 105.34 135.849 106.925 133.487 107.508 131.923 106.715Z" fill="#FFFFFF" transform="matrix(1.00155 0 0 1 -98.6947 0)"/><path d="M159.114 105.738C158.618 104.455 159.912 103.392 160.54 102.415 161.829 102.788 163.158 103.233 164.058 104.297 163.153 105.902 160.699 106.843 159.114 105.738Z" fill="#FFFFFF" transform="matrix(1.00155 0 0 1 -98.6947 0)"/><path d="M131.186 135.041C131.253 133.635 132.541 132.812 133.451 131.928 134.372 132.807 135.737 133.615 135.757 135.052 134.96 136.683 131.953 136.719 131.186 135.041Z" fill="#FFFFFF" transform="matrix(1.00155 0 0 1 -98.6947 0)"/><path d="M157.074 136.535C157.902 135.226 159.344 134.602 160.663 133.917 161.854 134.571 163.261 135.164 163.721 136.581 161.783 137.813 158.904 138.109 157.074 136.535Z" fill="#FFFFFF" transform="matrix(1.00155 0 0 1 -98.6947 0)"/><path d="M131.759 167.285C131.074 165.807 132.618 164.488 133.375 163.363 134.602 163.987 136.831 164.416 136.673 166.16 135.768 167.699 133.201 168.415 131.759 167.285Z" fill="#FFFFFF" transform="matrix(1.00155 0 0 1 -98.6947 0)"/><path d="M158.72 167.55C160.075 167.152 161.548 166.354 162.969 166.891 163.649 167.285 163.465 168.2 163.189 168.793 162.57 169.989 161.548 171.247 160.106 171.365 158.5 170.9 158.863 168.829 158.72 167.55Z" fill="#FFFFFF" transform="matrix(1.00155 0 0 1 -98.6947 0)"/><path d="M131.196 197.876C131.263 196.475 132.536 195.657 133.451 194.783 134.387 195.657 135.716 196.46 135.768 197.891 134.965 199.523 131.928 199.579 131.196 197.876Z" fill="#FFFFFF" transform="matrix(1.00155 0 0 1 -98.6947 0)"/><path d="M156.931 198.761C158.424 198.474 160.494 197.498 161.66 198.945 162.074 200.719 160.336 202.8 158.511 202.693 157.038 201.987 157.166 200.116 156.931 198.761Z" fill="#FFFFFF" transform="matrix(1.00155 0 0 1 -98.6947 0)"/><path d="M130.562 237.298C131.11 235.498 132.398 234.056 133.651 232.706 134.791 234 136.192 235.396 136.166 237.257 136.079 239.481 133.257 240.795 131.375 239.849 130.44 239.394 130.256 238.198 130.562 237.298Z" fill="#FFFFFF" transform="matrix(1.00155 0 0 1 -98.6947 0)"/><path d="M158.797 236.633C160.955 236.204 163.235 235.324 165.434 235.984 166.313 236.904 165.045 237.932 164.437 238.607 162.468 240.253 160.157 241.976 157.493 242.033 157.314 241.874 156.956 241.547 156.777 241.388 156.752 239.594 157.928 238.106 158.797 236.633Z" fill="#FFFFFF" transform="matrix(1.00155 0 0 1 -98.6947 0)"/><path d="M130.879 269.991C131.028 268.365 132.372 267.255 133.41 266.141 134.438 267.25 135.768 268.355 135.926 269.965 135.936 272.66 130.895 272.686 130.879 269.991Z" fill="#FFFFFF" transform="matrix(1.00155 0 0 1 -98.6947 0)"/><path d="M157.079 273.504C156.24 272.118 157.897 270.768 158.572 269.648 159.993 269.955 161.548 270.247 162.483 271.489 161.476 273.258 158.966 274.368 157.079 273.504Z" fill="#FFFFFF" transform="matrix(1.00155 0 0 1 -98.6947 0)"/><path d="M129.627 308.901C128.86 306.401 130.465 303.952 131.478 301.753 133.104 303.17 134.551 305.527 133.339 307.659 132.736 308.901 130.721 310.405 129.627 308.901Z" fill="#FFFFFF" transform="matrix(1.00155 0 0 1 -98.6947 0)"/><path d="M156.593 305.639C158.802 305.414 161.706 304.177 163.486 305.956 163.486 308.124 161.292 309.459 159.773 310.676 158.096 311.657 156.041 313.304 154.037 312.44 153.3 309.939 155.463 307.71 156.593 305.639Z" fill="#FFFFFF" transform="matrix(1.00155 0 0 1 -98.6947 0)"/><path d="M158.582 340.874C159.871 341.247 161.507 341.323 162.289 342.586 161.798 344.647 158.761 345.552 156.971 344.698 156.404 343.215 157.856 342.004 158.582 340.874Z" fill="#FFFFFF" transform="matrix(1.00155 0 0 1 -98.6947 0)"/><path d="M129.1 344.616C129.085 343.154 130.44 342.315 131.37 341.421 132.28 342.321 133.733 343.149 133.625 344.621 132.756 346.15 129.964 346.166 129.1 344.616Z" fill="#FFFFFF" transform="matrix(1.00155 0 0 1 -98.6947 0)"/><path d="M156.358 375.285C156.358 373.971 157.682 373.311 158.531 372.539 159.487 373.26 160.52 374.027 160.643 375.32 159.364 376.031 157.462 376.594 156.358 375.285Z" fill="#FFFFFF" transform="matrix(1.00155 0 0 1 -98.6947 0)"/><path d="M128.768 376.844C128.947 375.218 130.256 374.093 131.314 372.984 132.424 374.18 133.998 375.469 133.799 377.289 133.139 379.528 128.86 379.329 128.768 376.844Z" fill="#FFFFFF" transform="matrix(1.00155 0 0 1 -98.6947 0)"/><path d="M156.516 399.633C158.7 399.965 161.169 400.068 162.933 401.571 163.726 402.261 163.598 403.493 162.949 404.24 161.486 405.999 159.216 407.042 156.961 407.246 155.801 407.395 154.359 406.807 154.277 405.482 154.205 403.314 155.484 401.438 156.516 399.633Z" fill="#FFFFFF" transform="matrix(1.00155 0 0 1 -98.6947 0)"/><path d="M128.502 407.333C127.515 405.789 128.768 404.056 129.376 402.624 130.936 403.095 132.868 403.376 133.789 404.91 134.019 407.303 130.24 408.729 128.502 407.333Z" fill="#FFFFFF" transform="matrix(1.00155 0 0 1 -98.6947 0)"/><path d="M129.453 435.721C130.823 435.864 132.874 435.619 133.467 437.224 133.492 438.988 131.621 440.599 129.888 440.42 128.302 439.392 129.207 437.219 129.453 435.721Z" fill="#FFFFFF" transform="matrix(1.00155 0 0 1 -98.6947 0)"/><path d="M158.49 437.623C159.559 437.618 161.445 436.81 161.885 438.221 161.696 439.612 160.423 440.86 159.027 441.023 157.718 440.435 158.485 438.697 158.49 437.623Z" fill="#FFFFFF" transform="matrix(1.00155 0 0 1 -98.6947 0)"/></g></svg>