<svg width="428" height="518" xmlns="http://www.w3.org/2000/svg" xmlns:xlink="http://www.w3.org/1999/xlink" xml:space="preserve" overflow="hidden"><defs><clipPath id="clip0"><rect x="0" y="0" width="430" height="518"/></clipPath></defs><g clip-path="url(#clip0)"><path d="M139.09 45.0691C255.57 49.6544 372.161 48.3516 488.702 48.9979 491.465 129.869 488.035 210.76 486.162 291.606 484.793 349.077 484.122 406.614 487.053 464.05 369.693 467.587 252.262 465.882 134.902 463.373 136.21 460.238 136.352 456.691 135.35 453.45 133.813 448.025 130.378 443.353 128.953 437.887 128.011 434.376 128.668 430.167 131.543 427.714 133.905 425.571 135.676 422.253 134.627 419.022 132.673 412.935 126.205 409.754 124.001 403.821 122.795 400.06 126.052 396.813 129.08 395.174 131.35 394.034 133.869 392.146 133.762 389.322 133.457 385.683 130.765 382.914 128.871 379.988 127.202 377.495 125.207 374.538 126.123 371.393 127.05 368.309 130.5 367.296 132.21 364.792 133.65 362.924 134.052 360.405 133.467 358.146 132.093 352.736 127.93 348.538 126.561 343.128 125.981 340.873 126.388 338.375 127.818 336.517 129.065 334.711 131.253 333.784 132.337 331.84 133.899 329.428 134.403 326.41 133.808 323.611 132.449 316.741 127.314 311.255 126.189 304.318 125.569 300.751 127.217 297.112 129.96 294.858 132.729 292.7 134.235 289.031 133.584 285.56 132.449 279.061 127.106 274.191 126.093 267.662 125.502 263.992 127.869 260.628 130.78 258.659 132.958 257.178 135.609 255.346 135.625 252.415 135.462 249.88 133.503 248.012 131.793 246.348 129.034 243.677 125.655 241.417 123.935 237.875 122.505 234.908 124.2 231.274 126.907 229.697 131.462 226.944 134.821 222.139 135.396 216.796 136.266 209.493 132.968 202.292 128.149 196.969 127.604 196.526 127.986 195.834 128.118 195.31 129.721 190.592 133.06 186.714 134.734 182.027 135.528 179.874 135.538 177.254 134.017 175.411 132.77 173.691 130.744 172.913 129.044 171.757 126.617 169.854 124.49 166.76 125.436 163.544 126.637 159.599 129.971 156.907 132.464 153.788 134.23 151.655 136.073 148.953 135.299 146.037 134.602 143.35 132.174 141.752 130.235 139.996 128.256 138.225 127.039 135.421 127.823 132.78 129.106 128.184 133.039 125.034 135.029 120.8 135.767 119.258 135.991 117.334 135.024 115.838 133.737 113.66 131.207 112.831 129.309 111.334 127.508 109.92 125.787 108.189 125.1 105.95 124.541 104.093 124.963 102.082 125.803 100.383 128.576 94.8813 134.088 91.1052 136.027 85.1357 137.146 81.787 135.63 78.2348 133.258 75.8379 131.019 73.5274 129.62 70.1889 130.48 66.9625 132.093 60.8962 137.202 56.4789 138.826 50.4076 139.335 48.6722 139.284 46.8503 139.09 45.0691M193.03 53.0845C190.643 55.7155 189.503 59.2016 189.142 62.6825 188.714 67.4001 188.735 72.1432 188.368 76.8608 190.577 195.274 184.551 313.698 187.646 432.106 189.076 438.6 187.803 445.287 188.618 451.841 188.958 454.549 189.798 457.623 192.338 459.073 194.516 460.355 197.086 459.75 199.447 459.562 292.41 457.587 385.403 462.813 478.34 459.149 481.022 324.568 482.244 189.961 482.6 55.3542 386.166 49.5374 289.55 54.2855 193.03 53.0845M146.749 53.0438C145.752 58.372 145.09 63.7869 145.08 69.2118 145.162 70.9421 145.121 72.7895 145.976 74.3518 146.322 75.0796 147.299 75.161 147.884 74.6724 150.617 72.7233 151.554 69.2373 154.012 67.0083 157.35 63.568 162.566 60.8199 167.36 62.7894 170.699 64.0617 171.991 67.5782 173.951 70.2449 175.289 72.1635 175.691 74.7997 174.587 76.9269 173.162 79.7107 170.307 81.4206 167.462 82.4537 163.589 83.7921 159.152 84.1127 155.345 82.3774 152.821 81.4104 149.93 80.7081 147.289 81.6089 145.263 82.3366 144.271 84.4995 144.001 86.4995 142.989 94.3062 146.347 102.072 144.805 109.853 150.118 106.698 152.714 100.647 157.716 97.151 160.617 95.0594 164.587 95.4411 167.544 97.2121 170.21 98.8203 173.254 100.398 174.587 103.39 175.732 105.828 175.07 108.739 173.533 110.851 169.879 115.813 162.918 118.286 157.014 116.342 154.052 115.11 150.805 113.798 147.554 114.556 145.503 115.039 144.322 117.08 144.052 119.044 143.004 126.388 146.251 133.726 144.673 141.05 147.574 137.238 150.47 133.37 153.986 130.103 156.393 127.92 159.503 125.991 162.897 126.398 165.462 126.647 167.564 128.281 169.462 129.894 171.686 131.279 174.073 132.826 175.045 135.401 176.302 138.495 174.918 141.971 172.755 144.286 168.684 148.734 161.839 151.024 156.098 148.688 153.477 147.37 150.643 146.001 147.625 146.297 145.645 146.444 144.297 148.261 144.027 150.108 142.826 157.574 146.439 165.024 144.846 172.46 148.622 168.205 152.694 164.108 157.533 161.06 160.434 159.304 164.012 157.818 167.406 158.999 170.47 160.113 172.292 163.106 173.447 165.991 174.516 168.724 175.34 171.885 174.18 174.719 173.091 177.208 170.343 178.317 167.859 178.846 161.264 180.19 154.434 179.167 147.833 180.495 145.447 181.004 142.755 182.139 141.945 184.663 140.989 187.676 142.363 190.709 143.365 193.513 143.548 195.763 143.274 198.073 143.884 200.282 144.062 200.892 144.352 201.574 145.014 201.798 146.134 201.737 146.968 200.892 147.757 200.19 150.76 197.254 153.355 193.819 156.928 191.523 158.943 190.216 161.538 189.422 163.879 190.307 165.676 190.872 166.811 192.521 168.541 193.213 171.625 194.623 174.612 196.836 175.885 200.099 177.035 202.933 176.368 206.251 174.633 208.704 171.589 213.081 165.986 215.31 160.755 214.72 157.487 214.409 154.419 212.999 151.788 211.091 150.032 209.788 147.355 209.834 145.767 211.386 143.869 213.167 143.034 215.737 142.403 218.19 141.197 223.478 141.136 228.995 141.874 234.353 142.286 236.755 142.734 239.275 144.123 241.33 144.643 242.094 145.635 242.796 146.576 242.333 148.185 241.575 149.014 239.87 149.833 238.389 151.136 236.084 151.116 233.264 152.648 231.066 154.49 227.941 158.271 226.389 161.803 226.75 167.223 227.229 172.226 230.358 175.523 234.613 176.49 238.012 176.063 242.099 173.584 244.796 171.518 247.071 168.556 248.267 165.645 249.035 158.098 250.934 150.251 250.465 142.587 251.443 141.915 257.519 141.64 263.667 142.169 269.768 142.434 271.707 142.566 273.855 143.818 275.453 144.515 276.333 145.711 275.779 146.347 275.127 147.579 273.88 148.76 272.415 149.034 270.628 149.564 267.799 151.085 265.046 153.584 263.504 156.409 261.723 159.986 261.621 163.147 262.42 167.462 263.534 171.437 266.186 173.885 269.941 175.717 272.74 176.495 276.293 175.686 279.565 172.801 282.659 168.47 284.064 164.322 284.237 157.029 284.573 149.935 282.252 142.648 282.328 142.607 289.993 141.559 297.636 141.869 305.311 142.017 307.066 142.006 309.087 143.431 310.364 145.487 309.423 146.52 307.316 147.63 305.479 148.999 303.219 149.64 300.517 151.528 298.588 153.91 295.911 157.798 295.031 161.228 295.753 166.495 296.837 171.208 300.298 173.956 304.904 175.773 307.947 176.404 311.957 174.628 315.168 172.963 318.034 170.241 320.456 166.923 321.128 162.231 322.156 157.421 321.367 152.678 321.341 150.241 321.336 147.65 321.377 145.457 322.578 143.421 323.657 142.332 326.008 142.352 328.252 142.525 334.38 141.569 340.543 142.429 346.644 142.612 347.647 143.065 349.662 144.5 349.057 146.006 348.054 147.411 346.466 147.533 344.583 148.403 337.464 155.264 331.789 162.368 331.917 165.36 331.947 168.332 333.326 170.2 335.683 171.584 337.291 172.195 339.362 173.182 341.209 174.338 343.423 174.979 346.186 173.859 348.543 172.663 351.072 170.032 352.507 167.503 353.408 162.862 354.955 157.864 355.474 153.004 355.067 150.719 354.024 148.129 352.685 145.604 353.8 142.653 355.159 141.589 358.614 141.08 361.576 140.449 366.334 140.709 371.423 142.795 375.82 143.386 377.184 145.029 378.696 146.51 377.561 150.246 374.706 149.528 369.21 152.805 366.024 155.355 363.189 159.599 362.614 163.126 363.673 170.032 365.642 175.976 372.207 175.589 379.658 173.498 382.014 170.734 383.744 167.681 384.533 159.503 386.68 150.872 384.624 142.693 386.797 142.968 387.612 143.269 388.441 143.248 389.327 143.238 395.495 140.887 401.525 141.548 407.704 141.676 410.243 145.492 409.648 145.884 407.597 147.391 403.088 148.958 398.467 151.889 394.65 153.538 392.467 155.966 390.63 158.8 390.538 161.299 390.375 163.518 391.698 165.823 392.436 169.421 393.637 172.485 396.696 173.121 400.518 174.18 406.553 170.561 412.844 165.177 415.556 161.136 417.632 156.093 417.388 152.159 415.179 150.465 414.182 148.393 413.464 146.444 414.126 143.864 415.037 142.49 417.688 141.66 420.126 140.154 424.951 139.986 430.187 141.055 435.124 141.564 437.022 142.195 439.302 144.108 440.233 146.006 440.778 147.889 439.098 148.51 437.404 149.777 433.851 152.2 430.594 155.635 428.905 159.605 426.9 164.434 427.215 168.414 429.032 172.144 430.742 175.416 433.597 177.472 437.164 178.322 440.91 177.681 445.317 174.74 448.03 171.284 451.215 166.337 451.964 161.808 452.035 154.973 451.984 148.047 450.544 142.006 447.287 141.609 450.345 141.37 453.755 143.121 456.472 144.536 458.707 147.157 459.77 149.676 460.188 159.701 461.674 169.701 457.5 179.701 459.271 179.503 323.85 183.666 188.445 181.936 53.0234 170.215 52.3211 158.47 52.7028 146.749 53.0438M133.803 68.6012C134.927 69.1559 136.251 68.1991 136.739 67.1813 136.643 65.9599 135.065 66.1278 134.215 65.8174 134.011 66.7131 133.299 67.6902 133.803 68.6012M159.605 67.8632C159.747 69.3085 159.482 71.7666 161.381 72.0872 163.248 71.8582 165.019 69.7869 164.673 67.8887 163.452 66.3263 161.157 67.5375 159.605 67.8632M161.442 101.095C160.816 102.052 159.732 102.973 159.93 104.235 160.658 105.243 162.154 104.846 163.162 104.52 163.834 104.21 164.968 103.711 164.694 102.795 164.007 101.68 162.566 101.523 161.442 101.095M132.902 105.319C134.413 106.194 136.78 105.589 137.67 104.072 137.849 102.327 135.579 101.894 134.388 101.278 133.645 102.413 131.91 103.889 132.902 105.319M132.556 134.164C133.726 135.029 135.696 135.014 136.663 133.838 137.019 132.286 135.411 131.375 134.464 130.464 133.523 131.396 131.543 132.642 132.556 134.164M158.21 134.917C158.475 136.032 159.94 135.961 160.841 136.078 162.073 136.022 163.829 136.123 164.47 134.836 164.088 133.543 162.638 133.126 161.64 132.439 160.424 133.116 158.831 133.564 158.21 134.917M134.398 161.747C133.614 162.841 132.408 163.93 132.607 165.406 133.899 166.938 136.953 166.108 137.716 164.373 137.604 162.734 135.615 162.363 134.398 161.747M159.64 165.9C159.772 167.172 159.447 168.918 160.77 169.671 162.694 169.717 164.699 167.411 164.175 165.528 162.851 164.444 161.06 165.549 159.64 165.9M132.561 196.724C133.721 197.579 135.691 197.574 136.643 196.399 137.06 194.857 135.396 193.92 134.459 193.015 133.523 193.946 131.533 195.213 132.561 196.724M157.874 196.959C158.083 198.282 157.94 200.149 159.355 200.842 161.152 201.132 162.709 199.111 162.668 197.442 161.788 195.605 159.36 196.694 157.874 196.959M134.617 230.755C133.197 232.501 131.116 234.45 131.564 236.913 132.81 239.478 137.345 237.85 137.172 235.132 137.095 233.341 135.767 231.992 134.617 230.755M161.884 234.16C159.228 234.15 158.083 236.949 157.691 239.163 157.895 240.664 159.854 239.936 160.76 239.58 163.04 238.45 165.706 237.117 166.678 234.613 165.732 233.051 163.381 234.048 161.884 234.16M131.915 268.196C132.393 270.461 136.495 270.44 136.933 268.15 136.953 266.415 135.513 265.203 134.419 264.048 133.324 265.214 131.833 266.44 131.915 268.196M159.493 267.539C158.785 268.639 157.432 269.768 157.844 271.224 158.678 272.033 159.966 271.636 160.948 271.346 161.91 270.959 163.162 270.41 163.197 269.204 162.363 267.997 160.785 267.891 159.493 267.539M132.51 299.489C131.497 301.504 130.296 303.621 130.444 305.952 130.495 306.807 131.38 307.509 132.225 307.178 134.027 306.639 135.182 304.542 134.683 302.72 134.403 301.402 133.391 300.435 132.51 299.489M157.467 303.397C156.363 305.29 154.877 307.143 154.714 309.413 154.775 310.578 156.164 310.542 156.979 310.252 159.584 309.377 161.946 307.733 163.706 305.631 164.327 304.924 164.902 303.484 163.691 303.041 161.65 302.435 159.498 303.01 157.467 303.397M159.503 338.436C158.78 339.545 157.258 340.802 157.945 342.258 159.126 342.95 160.571 342.426 161.717 341.906 162.398 341.535 163.391 340.909 163.116 339.988 162.256 338.884 160.75 338.772 159.503 338.436M130.541 342.736C131.604 343.459 133.111 343.443 134.2 342.761 135.543 341.311 133.355 339.871 132.368 338.97 131.416 339.891 129.36 341.27 130.541 342.736M157.075 372.599C158.22 373.673 160.444 373.886 161.401 372.497 161.584 371.296 160.205 370.68 159.498 369.958 158.49 370.634 157.569 371.459 157.075 372.599M129.818 374.431C130.139 376.818 134.505 376.818 134.836 374.436 134.841 372.721 133.411 371.525 132.322 370.395 131.248 371.535 129.823 372.721 129.818 374.431M157.437 396.915C156.434 398.67 155.202 400.477 155.202 402.574 155.177 403.653 156.18 404.462 157.208 404.482 159.488 404.564 161.747 403.551 163.401 402.014 164.241 401.271 164.846 399.846 163.915 398.93 162.175 397.337 159.645 397.245 157.437 396.915M130.424 399.882C129.757 401.337 128.245 403.597 129.935 404.884 131.742 405.642 135.121 404.436 134.775 402.121 133.854 400.635 131.966 400.36 130.424 399.882M130.485 432.818C130.256 434.289 129.34 436.426 130.871 437.48 132.592 437.755 134.256 436.187 134.531 434.554 134.159 432.737 131.884 432.971 130.485 432.818M159.416 434.732C159.381 435.79 158.678 437.465 159.895 438.08 161.355 437.999 163.085 436.406 162.643 434.879 161.691 434.182 160.48 434.655 159.416 434.732Z" transform="matrix(1 0 0 1.00085 -100.403 0)"/><path d="M382.222 185.264C389.678 184.404 397.469 184.231 404.625 186.821 414.319 190.231 422.024 198.765 424.345 208.791 426.487 218.048 424.951 227.86 421.373 236.562 418.625 243.025 415.266 249.234 411.215 254.974 397.668 273.575 381.169 289.708 365.657 306.624 363.189 309.438 360.304 311.886 358.115 314.934 362.767 315.565 367.469 314.807 372.1 314.273 387.841 311.967 403.424 308.588 419.235 306.756 428.08 305.586 436.981 304.705 445.76 303.107 449.154 301.591 452.264 299.29 455.928 298.4 458.752 297.774 461.551 299.774 462.294 302.481 463.266 305.779 463.755 309.896 461.266 312.664 458.742 315.453 455.022 316.863 451.409 317.55 435.602 319.341 419.902 321.927 404.136 323.988 386.696 326.395 369.306 330.013 351.622 329.799 348.421 329.784 345.316 328.349 343.072 326.1 340.1 323.087 339.479 318.268 340.848 314.374 342.548 310.715 345.856 308.212 348.583 305.351 362.039 292.125 374.533 277.962 386.706 263.555 392.971 256.002 399.067 248.252 404.126 239.819 407.754 233.778 410.05 226.877 410.263 219.809 410.452 215.142 409.704 210.211 406.925 206.338 403.698 201.839 398.279 199.315 392.848 198.867 388.07 198.485 383.184 198.867 378.594 200.272 371.942 202.567 365.841 206.165 359.723 209.585 354.639 212.923 350.38 217.437 344.98 220.312 342.039 221.992 337.744 221.351 335.845 218.404 334.283 215.814 334.283 212.46 335.433 209.717 336.705 206.791 339.199 204.592 341.886 202.974 345.881 200.638 349.927 198.389 354.064 196.317 362.853 191.366 372.049 186.46 382.222 185.264Z" transform="matrix(1 0 0 1.00085 -100.403 0)"/><path d="M248.979 192.46C264.191 189.299 279.606 186.852 295.153 186.333 298.756 186.307 302.573 186.185 305.911 187.763 309 189.305 309.723 193.366 308.726 196.409 308.084 198.45 305.753 199.238 305.01 201.223 296.761 217.422 289.799 234.328 284.893 251.85 290.771 250.964 296.603 249.717 302.334 248.135 303.713 247.809 305.245 247.305 306.608 247.977 308.451 248.817 309.575 250.949 309.005 252.939 308.161 256.73 305.626 260.527 301.728 261.641 295.209 263.656 288.374 264.293 281.692 265.575 277.763 283.326 276.227 301.509 275.499 319.642 275.326 323.922 273.926 328.303 270.939 331.464 269.356 333.128 266.969 334.197 264.659 333.693 262.812 333.24 261.56 331.637 260.715 330.039 258.364 325.743 256.639 321.153 254.837 316.614 254.013 314.288 253.081 311.911 253.102 309.407 253.107 307.535 254.13 305.499 256.038 304.965 257.926 304.303 259.829 305.219 261.458 306.125 262.791 293.071 264.415 280.038 266.873 267.148 260.883 268.064 254.893 269.025 248.842 269.438 246.613 269.606 244.201 269.458 242.333 268.099 239.921 266.466 238.547 263.005 239.86 260.282 241.361 257.814 244.491 257.376 247.086 256.857 254.689 255.733 262.313 254.766 269.921 253.687 272.695 242.705 276.374 231.972 280.527 221.437 283.305 214.384 286.257 207.386 289.616 200.587 278.018 201.956 266.41 203.386 254.944 205.666 246.761 207.279 238.582 208.918 230.414 210.597 225.804 211.559 221.076 212.185 216.358 211.895 212.898 211.539 208.984 210.114 207.427 206.75 206.521 204.307 206.918 201.361 208.404 199.228 209.625 197.549 211.803 197.06 213.768 197.142 225.661 197.142 237.346 194.658 248.979 192.46Z" transform="matrix(1 0 0 1.00085 -100.403 0)"/><path d="M193.03 53.0845C289.55 54.2855 386.166 49.5374 482.6 55.3542 482.244 189.961 481.022 324.568 478.34 459.149 385.403 462.813 292.41 457.587 199.447 459.562 197.086 459.75 194.516 460.355 192.338 459.073 189.798 457.623 188.958 454.549 188.618 451.841 187.803 445.287 189.076 438.6 187.646 432.106 184.551 313.698 190.577 195.274 188.368 76.8608 188.735 72.1432 188.714 67.4001 189.142 62.6825 189.503 59.2016 190.643 55.7155 193.03 53.0845M382.222 185.264C372.049 186.46 362.853 191.366 354.064 196.317 349.927 198.389 345.881 200.638 341.886 202.974 339.199 204.592 336.705 206.791 335.433 209.717 334.283 212.46 334.283 215.814 335.845 218.404 337.744 221.351 342.039 221.992 344.98 220.312 350.38 217.437 354.639 212.923 359.723 209.585 365.841 206.165 371.942 202.567 378.594 200.272 383.184 198.867 388.07 198.485 392.848 198.867 398.279 199.315 403.698 201.839 406.925 206.338 409.704 210.211 410.452 215.142 410.263 219.809 410.05 226.877 407.754 233.778 404.126 239.819 399.067 248.252 392.971 256.002 386.706 263.555 374.533 277.962 362.039 292.125 348.583 305.351 345.856 308.212 342.548 310.715 340.848 314.374 339.479 318.268 340.1 323.087 343.072 326.1 345.316 328.349 348.421 329.784 351.622 329.799 369.306 330.013 386.696 326.395 404.136 323.988 419.902 321.927 435.602 319.341 451.409 317.55 455.022 316.863 458.742 315.453 461.266 312.664 463.755 309.896 463.266 305.779 462.294 302.481 461.551 299.774 458.752 297.774 455.928 298.4 452.264 299.29 449.154 301.591 445.76 303.107 436.981 304.705 428.08 305.586 419.235 306.756 403.424 308.588 387.841 311.967 372.1 314.273 367.469 314.807 362.767 315.565 358.115 314.934 360.304 311.886 363.189 309.438 365.657 306.624 381.169 289.708 397.668 273.575 411.215 254.974 415.266 249.234 418.625 243.025 421.373 236.562 424.951 227.86 426.487 218.048 424.345 208.791 422.024 198.765 414.319 190.231 404.625 186.821 397.469 184.231 389.678 184.404 382.222 185.264M248.979 192.46C237.346 194.658 225.661 197.142 213.768 197.142 211.803 197.06 209.625 197.549 208.404 199.228 206.918 201.361 206.521 204.307 207.427 206.75 208.984 210.114 212.898 211.539 216.358 211.895 221.076 212.185 225.804 211.559 230.414 210.597 238.582 208.918 246.761 207.279 254.944 205.666 266.41 203.386 278.018 201.956 289.616 200.587 286.257 207.386 283.305 214.384 280.527 221.437 276.374 231.972 272.695 242.705 269.921 253.687 262.313 254.766 254.689 255.733 247.086 256.857 244.491 257.376 241.361 257.814 239.86 260.282 238.547 263.005 239.921 266.466 242.333 268.099 244.201 269.458 246.613 269.606 248.842 269.438 254.893 269.025 260.883 268.064 266.873 267.148 264.415 280.038 262.791 293.071 261.458 306.125 259.829 305.219 257.926 304.303 256.038 304.965 254.13 305.499 253.107 307.535 253.102 309.407 253.081 311.911 254.013 314.288 254.837 316.614 256.639 321.153 258.364 325.743 260.715 330.039 261.56 331.637 262.812 333.24 264.659 333.693 266.969 334.197 269.356 333.128 270.939 331.464 273.926 328.303 275.326 323.922 275.499 319.642 276.227 301.509 277.763 283.326 281.692 265.575 288.374 264.293 295.209 263.656 301.728 261.641 305.626 260.527 308.161 256.73 309.005 252.939 309.575 250.949 308.451 248.817 306.608 247.977 305.245 247.305 303.713 247.809 302.334 248.135 296.603 249.717 290.771 250.964 284.893 251.85 289.799 234.328 296.761 217.422 305.01 201.223 305.753 199.238 308.084 198.45 308.726 196.409 309.723 193.366 309 189.305 305.911 187.763 302.573 186.185 298.756 186.307 295.153 186.333 279.606 186.852 264.191 189.299 248.979 192.46Z" fill="#FFFFFF" transform="matrix(1 0 0 1.00085 -100.403 0)"/><path d="M146.749 53.0438C158.47 52.7028 170.215 52.3211 181.936 53.0234 183.666 188.445 179.503 323.85 179.701 459.271 169.701 457.5 159.701 461.674 149.676 460.188 147.157 459.77 144.536 458.707 143.121 456.472 141.37 453.755 141.609 450.345 142.006 447.287 148.047 450.544 154.973 451.984 161.808 452.035 166.337 451.964 171.284 451.215 174.74 448.03 177.681 445.317 178.322 440.91 177.472 437.164 175.416 433.597 172.144 430.742 168.414 429.032 164.434 427.215 159.605 426.9 155.635 428.905 152.2 430.594 149.777 433.851 148.51 437.404 147.889 439.098 146.006 440.778 144.108 440.233 142.195 439.302 141.564 437.022 141.055 435.124 139.986 430.187 140.154 424.951 141.66 420.126 142.49 417.688 143.864 415.037 146.444 414.126 148.393 413.464 150.465 414.182 152.159 415.179 156.093 417.388 161.136 417.632 165.177 415.556 170.561 412.844 174.18 406.553 173.121 400.518 172.485 396.696 169.421 393.637 165.823 392.436 163.518 391.698 161.299 390.375 158.8 390.538 155.966 390.63 153.538 392.467 151.889 394.65 148.958 398.467 147.391 403.088 145.884 407.597 145.492 409.648 141.676 410.243 141.548 407.704 140.887 401.525 143.238 395.495 143.248 389.327 143.269 388.441 142.968 387.612 142.693 386.797 150.872 384.624 159.503 386.68 167.681 384.533 170.734 383.744 173.498 382.014 175.589 379.658 175.976 372.207 170.032 365.642 163.126 363.673 159.599 362.614 155.355 363.189 152.805 366.024 149.528 369.21 150.246 374.706 146.51 377.561 145.029 378.696 143.386 377.184 142.795 375.82 140.709 371.423 140.449 366.334 141.08 361.576 141.589 358.614 142.653 355.159 145.604 353.8 148.129 352.685 150.719 354.024 153.004 355.067 157.864 355.474 162.862 354.955 167.503 353.408 170.032 352.507 172.663 351.072 173.859 348.543 174.979 346.186 174.338 343.423 173.182 341.209 172.195 339.362 171.584 337.291 170.2 335.683 168.332 333.326 165.36 331.947 162.368 331.917 155.264 331.789 148.403 337.464 147.533 344.583 147.411 346.466 146.006 348.054 144.5 349.057 143.065 349.662 142.612 347.647 142.429 346.644 141.569 340.543 142.525 334.38 142.352 328.252 142.332 326.008 143.421 323.657 145.457 322.578 147.65 321.377 150.241 321.336 152.678 321.341 157.421 321.367 162.231 322.156 166.923 321.128 170.241 320.456 172.963 318.034 174.628 315.168 176.404 311.957 175.773 307.947 173.956 304.904 171.208 300.298 166.495 296.837 161.228 295.753 157.798 295.031 153.91 295.911 151.528 298.588 149.64 300.517 148.999 303.219 147.63 305.479 146.52 307.316 145.487 309.423 143.431 310.364 142.006 309.087 142.017 307.066 141.869 305.311 141.559 297.636 142.607 289.993 142.648 282.328 149.935 282.252 157.029 284.573 164.322 284.237 168.47 284.064 172.801 282.659 175.686 279.565 176.495 276.293 175.717 272.74 173.885 269.941 171.437 266.186 167.462 263.534 163.147 262.42 159.986 261.621 156.409 261.723 153.584 263.504 151.085 265.046 149.564 267.799 149.034 270.628 148.76 272.415 147.579 273.88 146.347 275.127 145.711 275.779 144.515 276.333 143.818 275.453 142.566 273.855 142.434 271.707 142.169 269.768 141.64 263.667 141.915 257.519 142.587 251.443 150.251 250.465 158.098 250.934 165.645 249.035 168.556 248.267 171.518 247.071 173.584 244.796 176.063 242.099 176.49 238.012 175.523 234.613 172.226 230.358 167.223 227.229 161.803 226.75 158.271 226.389 154.49 227.941 152.648 231.066 151.116 233.264 151.136 236.084 149.833 238.389 149.014 239.87 148.185 241.575 146.576 242.333 145.635 242.796 144.643 242.094 144.123 241.33 142.734 239.275 142.286 236.755 141.874 234.353 141.136 228.995 141.197 223.478 142.403 218.19 143.034 215.737 143.869 213.167 145.767 211.386 147.355 209.834 150.032 209.788 151.788 211.091 154.419 212.999 157.487 214.409 160.755 214.72 165.986 215.31 171.589 213.081 174.633 208.704 176.368 206.251 177.035 202.933 175.885 200.099 174.612 196.836 171.625 194.623 168.541 193.213 166.811 192.521 165.676 190.872 163.879 190.307 161.538 189.422 158.943 190.216 156.928 191.523 153.355 193.819 150.76 197.254 147.757 200.19 146.968 200.892 146.134 201.737 145.014 201.798 144.352 201.574 144.062 200.892 143.884 200.282 143.274 198.073 143.548 195.763 143.365 193.513 142.363 190.709 140.989 187.676 141.945 184.663 142.755 182.139 145.447 181.004 147.833 180.495 154.434 179.167 161.264 180.19 167.859 178.846 170.343 178.317 173.091 177.208 174.18 174.719 175.34 171.885 174.516 168.724 173.447 165.991 172.292 163.106 170.47 160.113 167.406 158.999 164.012 157.818 160.434 159.304 157.533 161.06 152.694 164.108 148.622 168.205 144.846 172.46 146.439 165.024 142.826 157.574 144.027 150.108 144.297 148.261 145.645 146.444 147.625 146.297 150.643 146.001 153.477 147.37 156.098 148.688 161.839 151.024 168.684 148.734 172.755 144.286 174.918 141.971 176.302 138.495 175.045 135.401 174.073 132.826 171.686 131.279 169.462 129.894 167.564 128.281 165.462 126.647 162.897 126.398 159.503 125.991 156.393 127.92 153.986 130.103 150.47 133.37 147.574 137.238 144.673 141.05 146.251 133.726 143.004 126.388 144.052 119.044 144.322 117.08 145.503 115.039 147.554 114.556 150.805 113.798 154.052 115.11 157.014 116.342 162.918 118.286 169.879 115.813 173.533 110.851 175.07 108.739 175.732 105.828 174.587 103.39 173.254 100.398 170.21 98.8203 167.544 97.2121 164.587 95.4411 160.617 95.0594 157.716 97.151 152.714 100.647 150.118 106.698 144.805 109.853 146.347 102.072 142.989 94.3062 144.001 86.4995 144.271 84.4995 145.263 82.3366 147.289 81.6089 149.93 80.7081 152.821 81.4104 155.345 82.3774 159.152 84.1127 163.589 83.7921 167.462 82.4537 170.307 81.4206 173.162 79.7107 174.587 76.9269 175.691 74.7997 175.289 72.1635 173.951 70.2449 171.991 67.5782 170.699 64.0617 167.36 62.7894 162.566 60.8199 157.35 63.568 154.012 67.0083 151.554 69.2373 150.617 72.7233 147.884 74.6724 147.299 75.161 146.322 75.0796 145.976 74.3518 145.121 72.7895 145.162 70.9421 145.08 69.2118 145.09 63.7869 145.752 58.372 146.749 53.0438Z" fill="#FFFFFF" transform="matrix(1 0 0 1.00085 -100.403 0)"/><path d="M133.803 68.6012C133.299 67.6902 134.011 66.7131 134.215 65.8174 135.065 66.1278 136.643 65.9599 136.739 67.1813 136.251 68.1991 134.927 69.1559 133.803 68.6012Z" fill="#FFFFFF" transform="matrix(1 0 0 1.00085 -100.403 0)"/><path d="M159.605 67.8632C161.157 67.5375 163.452 66.3263 164.673 67.8887 165.019 69.7869 163.248 71.8582 161.381 72.0872 159.482 71.7666 159.747 69.3085 159.605 67.8632Z" fill="#FFFFFF" transform="matrix(1 0 0 1.00085 -100.403 0)"/><path d="M161.442 101.095C162.566 101.523 164.007 101.68 164.694 102.795 164.968 103.711 163.834 104.21 163.162 104.52 162.154 104.846 160.658 105.243 159.93 104.235 159.732 102.973 160.816 102.052 161.442 101.095Z" fill="#FFFFFF" transform="matrix(1 0 0 1.00085 -100.403 0)"/><path d="M132.902 105.319C131.91 103.889 133.645 102.413 134.388 101.278 135.579 101.894 137.849 102.327 137.67 104.072 136.78 105.589 134.413 106.194 132.902 105.319Z" fill="#FFFFFF" transform="matrix(1 0 0 1.00085 -100.403 0)"/><path d="M132.556 134.164C131.543 132.642 133.523 131.396 134.464 130.464 135.411 131.375 137.019 132.286 136.663 133.838 135.696 135.014 133.726 135.029 132.556 134.164Z" fill="#FFFFFF" transform="matrix(1 0 0 1.00085 -100.403 0)"/><path d="M158.21 134.917C158.831 133.564 160.424 133.116 161.64 132.439 162.638 133.126 164.088 133.543 164.47 134.836 163.829 136.123 162.073 136.022 160.841 136.078 159.94 135.961 158.475 136.032 158.21 134.917Z" fill="#FFFFFF" transform="matrix(1 0 0 1.00085 -100.403 0)"/><path d="M134.398 161.747C135.615 162.363 137.604 162.734 137.716 164.373 136.953 166.108 133.899 166.938 132.607 165.406 132.408 163.93 133.614 162.841 134.398 161.747Z" fill="#FFFFFF" transform="matrix(1 0 0 1.00085 -100.403 0)"/><path d="M159.64 165.9C161.06 165.549 162.851 164.444 164.175 165.528 164.699 167.411 162.694 169.717 160.77 169.671 159.447 168.918 159.772 167.172 159.64 165.9Z" fill="#FFFFFF" transform="matrix(1 0 0 1.00085 -100.403 0)"/><path d="M132.561 196.724C131.533 195.213 133.523 193.946 134.459 193.015 135.396 193.92 137.06 194.857 136.643 196.399 135.691 197.574 133.721 197.579 132.561 196.724Z" fill="#FFFFFF" transform="matrix(1 0 0 1.00085 -100.403 0)"/><path d="M157.874 196.959C159.36 196.694 161.788 195.605 162.668 197.442 162.709 199.111 161.152 201.132 159.355 200.842 157.94 200.149 158.083 198.282 157.874 196.959Z" fill="#FFFFFF" transform="matrix(1 0 0 1.00085 -100.403 0)"/><path d="M134.617 230.755C135.767 231.992 137.095 233.341 137.172 235.132 137.345 237.85 132.81 239.478 131.564 236.913 131.116 234.45 133.197 232.501 134.617 230.755Z" fill="#FFFFFF" transform="matrix(1 0 0 1.00085 -100.403 0)"/><path d="M161.884 234.16C163.381 234.048 165.732 233.051 166.678 234.613 165.706 237.117 163.04 238.45 160.76 239.58 159.854 239.936 157.895 240.664 157.691 239.163 158.083 236.949 159.228 234.15 161.884 234.16Z" fill="#FFFFFF" transform="matrix(1 0 0 1.00085 -100.403 0)"/><path d="M131.915 268.196C131.833 266.44 133.324 265.214 134.419 264.048 135.513 265.203 136.953 266.415 136.933 268.15 136.495 270.44 132.393 270.461 131.915 268.196Z" fill="#FFFFFF" transform="matrix(1 0 0 1.00085 -100.403 0)"/><path d="M159.493 267.539C160.785 267.891 162.363 267.997 163.197 269.204 163.162 270.41 161.91 270.959 160.948 271.346 159.966 271.636 158.678 272.033 157.844 271.224 157.432 269.768 158.785 268.639 159.493 267.539Z" fill="#FFFFFF" transform="matrix(1 0 0 1.00085 -100.403 0)"/><path d="M132.51 299.489C133.391 300.435 134.403 301.402 134.683 302.72 135.182 304.542 134.027 306.639 132.225 307.178 131.38 307.509 130.495 306.807 130.444 305.952 130.296 303.621 131.497 301.504 132.51 299.489Z" fill="#FFFFFF" transform="matrix(1 0 0 1.00085 -100.403 0)"/><path d="M157.467 303.397C159.498 303.01 161.65 302.435 163.691 303.041 164.902 303.484 164.327 304.924 163.706 305.631 161.946 307.733 159.584 309.377 156.979 310.252 156.164 310.542 154.775 310.578 154.714 309.413 154.877 307.143 156.363 305.29 157.467 303.397Z" fill="#FFFFFF" transform="matrix(1 0 0 1.00085 -100.403 0)"/><path d="M159.503 338.436C160.75 338.772 162.256 338.884 163.116 339.988 163.391 340.909 162.398 341.535 161.717 341.906 160.571 342.426 159.126 342.95 157.945 342.258 157.258 340.802 158.78 339.545 159.503 338.436Z" fill="#FFFFFF" transform="matrix(1 0 0 1.00085 -100.403 0)"/><path d="M130.541 342.736C129.36 341.27 131.416 339.891 132.368 338.97 133.355 339.871 135.543 341.311 134.2 342.761 133.111 343.443 131.604 343.459 130.541 342.736Z" fill="#FFFFFF" transform="matrix(1 0 0 1.00085 -100.403 0)"/><path d="M157.075 372.599C157.569 371.459 158.49 370.634 159.498 369.958 160.205 370.68 161.584 371.296 161.401 372.497 160.444 373.886 158.22 373.673 157.075 372.599Z" fill="#FFFFFF" transform="matrix(1 0 0 1.00085 -100.403 0)"/><path d="M129.818 374.431C129.823 372.721 131.248 371.535 132.322 370.395 133.411 371.525 134.841 372.721 134.836 374.436 134.505 376.818 130.139 376.818 129.818 374.431Z" fill="#FFFFFF" transform="matrix(1 0 0 1.00085 -100.403 0)"/><path d="M157.437 396.915C159.645 397.245 162.175 397.337 163.915 398.93 164.846 399.846 164.241 401.271 163.401 402.014 161.747 403.551 159.488 404.564 157.208 404.482 156.18 404.462 155.177 403.653 155.202 402.574 155.202 400.477 156.434 398.67 157.437 396.915Z" fill="#FFFFFF" transform="matrix(1 0 0 1.00085 -100.403 0)"/><path d="M130.424 399.882C131.966 400.36 133.854 400.635 134.775 402.121 135.121 404.436 131.742 405.642 129.935 404.884 128.245 403.597 129.757 401.337 130.424 399.882Z" fill="#FFFFFF" transform="matrix(1 0 0 1.00085 -100.403 0)"/><path d="M130.485 432.818C131.884 432.971 134.159 432.737 134.531 434.554 134.256 436.187 132.592 437.755 130.871 437.48 129.34 436.426 130.256 434.289 130.485 432.818Z" fill="#FFFFFF" transform="matrix(1 0 0 1.00085 -100.403 0)"/><path d="M159.416 434.732C160.48 434.655 161.691 434.182 162.643 434.879 163.085 436.406 161.355 437.999 159.895 438.08 158.678 437.465 159.381 435.79 159.416 434.732Z" fill="#FFFFFF" transform="matrix(1 0 0 1.00085 -100.403 0)"/></g></svg>