<svg width="428" height="518" xmlns="http://www.w3.org/2000/svg" xmlns:xlink="http://www.w3.org/1999/xlink" xml:space="preserve" overflow="hidden"><defs><clipPath id="clip0"><rect x="0" y="0" width="427" height="558"/></clipPath></defs><g clip-path="url(#clip0)"><path d="M139.375 45.9525C255.939 50.5564 372.621 49.2068 489.241 49.9045 491.93 129.515 488.681 209.152 486.782 288.742 485.356 347.559 484.566 406.453 487.581 465.234 370.141 468.773 252.619 467.077 135.179 464.556 136.212 461.954 136.605 459.082 136.014 456.326 134.812 450.083 130.651 444.919 129.149 438.777 128.288 435.293 129.037 431.168 131.894 428.79 134.236 426.646 135.953 423.315 134.873 420.111 133.442 415.767 129.683 412.844 126.908 409.386 125.181 407.313 123.394 404.645 124.214 401.818 125.197 398.813 128.013 396.96 130.671 395.544 132.902 394.332 134.674 391.765 133.844 389.152 132.739 385.394 129.857 382.557 127.921 379.237 126.633 377.133 125.507 374.485 126.556 372.051 127.769 369.122 131.206 368.165 132.76 365.491 134.527 362.95 134.165 359.583 132.958 356.894 131.053 352.245 127.473 348.282 126.643 343.22 126.134 340.21 127.779 337.267 130.157 335.52 133.401 333.192 134.878 328.874 134.135 324.998 132.877 318.077 127.743 312.577 126.49 305.656 125.747 301.958 127.453 298.149 130.33 295.826 133.182 293.58 134.593 289.69 133.763 286.145 132.495 280.253 128.028 275.694 126.556 269.884 125.818 267.113 126.572 264.057 128.517 261.959 130.498 259.489 133.895 258.471 135.387 255.563 136.263 253.979 135.897 252.003 134.883 250.572 131.934 246.283 126.857 243.864 124.346 239.22 122.645 236.159 124.402 232.232 127.3 230.628 131.914 227.802 135.23 222.857 135.713 217.428 136.421 210.043 132.989 202.826 128.018 197.535 129.403 192.193 133.294 187.986 135.072 182.807 135.856 180.591 135.718 177.902 134.058 176.115 132.434 174.057 129.633 173.507 127.967 171.501 126.19 169.708 124.937 167.085 125.691 164.544 126.704 161.025 129.551 158.509 131.838 155.794 133.686 153.63 135.795 151.206 135.749 148.186 135.632 145.191 133.147 143.164 131.018 141.417 128.848 139.665 127.29 136.813 128.023 133.972 129.225 129.195 133.36 125.986 135.357 121.601 136.044 120.114 136.228 118.27 135.321 116.829 133.849 114.318 130.819 113.549 128.787 111.624 126.383 109.674 124.397 106.567 125.319 103.364 126.572 98.9178 130.177 95.7449 132.851 92.1443 135.158 89.1905 137.425 85.4829 136.406 81.5818 135.632 78.0474 132.108 76.1274 130.997 72.7662 130.142 70.4998 130.483 67.9534 131.425 65.7686 133.564 60.7624 137.577 56.6983 139.07 51.3865 139.614 49.6244 139.543 47.7655 139.375 45.9525M147.035 53.9227C146.016 59.3007 145.354 64.7755 145.359 70.2554 145.436 71.9309 145.42 73.7338 146.25 75.2464 146.627 76.0765 147.707 76.0205 148.308 75.4806 150.707 73.6981 151.639 70.6985 153.66 68.5849 156.426 65.5242 160.245 62.9981 164.498 63.0134 167.706 63.0083 170.609 65.0811 172.122 67.8312 173.217 70.0415 175.274 71.8189 175.493 74.406 175.885 77.5585 173.578 80.273 171.032 81.8008 166.932 84.2454 161.773 85.2181 157.144 83.8634 154.266 82.7073 151.089 81.5665 147.967 82.3763 145.751 82.962 144.549 85.2181 144.279 87.3469 143.256 95.1745 146.602 102.956 145.094 110.764 149.77 107.963 152.387 102.977 156.324 99.371 158.112 97.726 160.439 96.4834 162.934 96.626 166.423 96.8144 169.357 98.9636 172.117 100.899 174.974 102.926 176.441 106.919 174.76 110.158 171.383 116.85 162.206 119.936 155.494 116.544 153.049 115.602 150.304 114.843 147.697 115.525 145.802 116.035 144.672 117.909 144.371 119.747 143.174 127.147 146.602 134.583 144.906 141.937 148.288 137.817 151.353 133.335 155.545 129.974 158.071 127.937 161.508 126.572 164.732 127.672 167.289 128.38 169 130.529 171.241 131.807 173.461 133.157 175.422 135.306 175.763 137.975 176.13 140.75 174.75 143.434 172.896 145.41 168.817 149.729 162.099 151.944 156.431 149.668 153.706 148.313 150.752 146.846 147.62 147.3 145.721 147.564 144.539 149.388 144.279 151.165 143.174 158.6 146.632 165.98 145.171 173.39 148.878 169.194 152.897 165.17 157.638 162.135 160.444 160.414 163.821 158.932 167.167 159.797 170.38 160.668 172.382 163.678 173.594 166.586 174.735 169.407 175.677 172.697 174.49 175.656 173.421 178.187 170.62 179.298 168.109 179.832 161.534 181.167 154.725 180.148 148.145 181.472 145.823 181.966 143.21 183.026 142.298 185.414 141.188 188.495 142.614 191.653 143.648 194.535 143.887 197.077 143.378 199.832 144.56 202.2 145.201 203.366 146.602 202.445 147.31 201.828 150.783 198.717 153.508 194.729 157.567 192.3 159.578 191.052 162.181 190.42 164.437 191.403 166.102 192.02 167.187 193.568 168.842 194.209 172.071 195.671 175.193 198.065 176.344 201.548 177.429 204.746 176.283 208.317 174.098 210.776 169.621 216.002 161.564 217.203 155.509 214.158 153.192 213.246 151.409 210.848 148.7 211.179 146.006 211.454 144.427 214.041 143.561 216.343 141.509 222.026 141.387 228.229 141.988 234.183 142.41 237.05 142.803 240.121 144.544 242.535 145.201 243.549 146.673 243.808 147.569 242.948 149.647 241.012 150.854 238.267 151.465 235.527 152.133 232.874 153.701 230.333 156.136 228.978 158.881 227.41 162.257 227.476 165.226 228.326 169.438 229.579 173.273 232.222 175.891 235.757 176.695 239.026 176.39 242.815 174.169 245.489 171.949 248.158 168.552 249.441 165.272 250.23 157.918 251.942 150.304 251.524 142.859 252.476 142.247 257.753 142.039 263.08 142.263 268.391 142.405 270.734 142.558 273.133 143.393 275.348 143.724 276.239 144.509 277.319 145.604 276.876 147.147 276.015 148.211 274.462 148.99 272.919 149.53 270.469 150.223 267.923 152.021 266.074 154.755 263.074 159.232 262.453 163.021 263.37 169.514 264.842 175.707 270.128 176.267 277.064 176.232 278.557 176.609 280.589 175.111 281.505 172.28 283.858 168.638 285.091 164.987 285.269 157.562 285.712 150.335 283.298 142.925 283.38 142.884 291.121 141.804 298.841 142.156 306.587 142.319 308.07 142.283 309.755 143.256 310.983 143.933 311.675 144.829 310.83 145.318 310.336 147.483 307.896 148.782 304.861 150.167 301.953 151.873 298.566 155.591 296.371 159.39 296.59 165.023 296.86 170.212 300.237 173.461 304.739 175.789 307.937 176.935 312.419 175.004 316.086 173.41 318.943 170.752 321.392 167.498 322.146 160.984 323.725 154.231 321.52 147.707 322.89 144.84 323.424 142.65 326.068 142.64 328.981 142.767 334.751 142.028 340.521 142.507 346.281 142.706 347.62 142.726 349.225 143.816 350.197 145.105 350.549 145.945 349.184 146.688 348.369 148.109 346.902 147.666 344.702 148.45 342.945 150.961 335.734 159.935 330.712 167.172 334.104 170.92 335.785 172.31 339.864 173.94 343.302 174.923 345.527 175.147 348.298 173.741 350.401 172.122 352.856 169.275 354.093 166.555 354.918 162.395 356.105 158.01 356.487 153.696 356.242 152.005 355.866 150.574 354.654 148.797 354.557 146.347 354.098 143.979 355.642 142.92 357.791 140.862 361.778 140.801 366.474 141.321 370.838 141.733 373.487 142.278 376.334 144.111 378.401 144.906 379.328 146.352 379.247 147.167 378.391 148.843 376.751 149.78 374.495 150.35 372.254 151.073 369.514 152.678 366.866 155.214 365.466 157.867 363.963 161.142 364.04 163.978 364.956 168.256 366.357 171.995 369.412 174.164 373.365 175.356 375.631 176.196 378.31 175.728 380.866 173.573 383.504 170.385 385.139 167.1 385.878 159.171 387.67 150.88 385.822 142.996 387.93 143.368 388.959 143.602 390.038 143.521 391.144 143.276 396.44 141.764 401.599 141.652 406.906 141.702 408.098 141.652 409.595 142.711 410.399 143.811 410.949 144.901 410.104 145.868 409.661 147.651 404.258 149.433 398.528 153.462 394.321 155.728 391.902 159.41 390.96 162.512 392.228 164.839 393.211 167.406 393.761 169.443 395.335 171.979 397.163 173.543 400.209 173.604 403.331 173.797 409.748 169.178 415.961 162.99 417.667 159.278 418.685 155.188 418.018 151.898 416.042 149.876 414.845 147.091 414.54 145.176 416.103 142.624 418.212 141.667 421.599 141.086 424.736 140.399 429.217 140.409 433.949 141.932 438.272 142.497 439.704 143.414 441.476 145.166 441.557 146.933 441.359 148.415 439.917 148.919 438.252 150.202 434.758 152.683 431.601 156.09 429.986 164.075 426.248 173.68 431.137 177.78 438.364 178.539 441.853 178.08 445.876 175.605 448.616 172.422 452.079 167.467 453.026 162.97 453.194 155.855 453.296 148.588 451.87 142.303 448.458 141.85 451.6 141.636 455.155 143.551 457.89 145.303 460.365 148.435 461.272 151.313 461.557 156.589 462.025 161.845 461.144 167.075 460.584 171.348 460.131 175.717 459.515 179.965 460.457 180.041 449.405 179.96 438.354 180.036 427.303 180.428 302.829 183.866 178.361 182.211 53.882 170.492 53.2352 158.753 53.5866 147.035 53.9227M193.405 53.9533C189.779 57.7423 189.274 63.2579 189.142 68.2437 189.132 71.4777 188.78 74.6963 188.674 77.9252 190.874 196.236 184.884 314.553 187.93 432.859 187.986 434.259 188.419 435.609 188.531 437.014 189.02 442.902 188.062 448.881 189.208 454.722 189.687 457.024 190.807 459.484 193.089 460.477 195.814 461.75 198.793 460.513 201.645 460.696 294.049 458.832 386.494 464.001 478.877 460.309 481.526 325.635 482.768 190.94 483.125 56.2451 386.641 50.4087 289.97 55.201 193.405 53.9533M134.491 66.7261C134.247 67.6631 133.498 68.6868 134.16 69.6086 135.306 69.9142 136.396 69.135 136.987 68.2132 137.037 66.8636 135.382 67.0113 134.491 66.7261M159.894 68.7632C160.037 70.2146 159.772 72.3333 161.437 73.0055 163.464 72.9342 165.69 70.4387 164.768 68.4525 163.255 67.49 161.452 68.3914 159.894 68.7632M134.583 102.243C133.875 103.394 132.24 104.774 133.126 106.221 134.685 107.178 137.812 106.476 137.985 104.408 137.353 103.104 135.83 102.712 134.583 102.243M160.408 105.482C161.941 106.155 164.534 105.656 165.038 103.888 164.498 102.61 162.878 102.493 161.758 102.009 161.101 103.012 159.665 104.168 160.408 105.482M132.576 134.741C133.498 136.07 135.871 136.034 136.875 134.817 137.399 133.32 135.668 132.357 134.817 131.415 133.839 132.26 132.266 133.228 132.576 134.741M158.473 135.999C159.94 137.521 163.113 137.409 164.676 136.004 164.747 134.562 162.889 134.079 161.885 133.391 160.673 134.104 158.972 134.542 158.473 135.999M134.567 162.756C133.87 163.928 132.21 165.323 133.157 166.774 134.71 167.605 136.981 167.029 137.949 165.547 138.102 163.754 135.866 163.271 134.567 162.756M159.92 166.897C160.077 168.175 159.685 170.345 161.391 170.701 163.108 170.37 164.432 168.715 164.661 167.024 163.892 165.073 161.371 166.484 159.92 166.897M132.612 197.398C133.595 198.722 136.375 198.696 137.012 197.051 136.997 195.671 135.637 194.892 134.792 194.011 133.839 194.887 132.179 195.88 132.612 197.398M158.147 197.958C158.381 199.328 158.224 201.441 159.909 201.915 161.671 201.838 163.54 199.628 162.685 197.917 161.366 196.863 159.604 197.678 158.147 197.958M131.782 237.824C132.805 240.31 136.941 239.164 137.374 236.785 137.74 234.753 136.151 233.134 134.893 231.774 133.457 233.495 131.497 235.385 131.782 237.824M159.986 235.701C159.161 237.274 157.485 239.011 158.229 240.89 160.195 241.491 162.079 240.106 163.703 239.154 164.987 238.176 166.764 237.178 166.937 235.415 164.91 234 162.206 235.38 159.986 235.701M134.639 265.101C133.544 266.329 131.97 267.617 132.194 269.451 132.968 271.442 136.498 271.432 137.18 269.379 137.338 267.561 135.825 266.242 134.639 265.101M158.295 272.466C160.072 273.138 162.721 272.338 163.495 270.5 162.985 268.987 161.065 269.008 159.802 268.57 159.089 269.695 157.434 271.04 158.295 272.466M130.86 307.56C131.772 309.19 133.916 307.805 134.537 306.593 135.881 304.469 134.435 302.009 132.795 300.558 131.726 302.697 130.264 305.075 130.86 307.56M157.796 304.433C156.635 306.389 155.02 308.339 155.025 310.723 155.275 311.757 156.574 311.538 157.322 311.309 159.843 310.453 162.12 308.869 163.866 306.863 164.411 306.155 165.191 305.044 164.325 304.28 162.252 303.354 159.925 304.117 157.796 304.433M158.015 342.675C157.938 343.403 158.804 343.74 159.405 343.689 160.902 343.582 162.649 343.083 163.444 341.687 163.367 339.951 161.04 339.966 159.813 339.513 159.11 340.485 158.147 341.422 158.015 342.675M132.52 340.22C131.588 340.974 130.351 341.896 130.432 343.246 131.221 344.824 134.119 344.779 134.914 343.22 134.914 341.86 133.681 340.689 132.52 340.22M157.648 373.93C158.723 374.877 160.617 374.806 161.621 373.792 162.064 372.519 160.49 371.821 159.767 371.068 158.916 371.842 157.353 372.539 157.648 373.93M130.111 375.794C130.763 378.024 135.026 377.821 135.128 375.346 134.939 373.731 133.656 372.601 132.586 371.506 131.486 372.697 129.908 373.986 130.111 375.794M157.735 398.044C156.706 399.827 155.428 401.686 155.499 403.835 155.509 405.037 156.772 405.714 157.852 405.643 160.026 405.566 162.155 404.614 163.729 403.122 164.549 402.373 165.129 400.973 164.208 400.071 162.471 398.472 159.94 398.401 157.735 398.044M129.561 405.368C130.32 406.712 132.164 406.335 133.315 405.806 134.359 405.383 135.708 404.161 134.853 402.974 133.839 401.742 132.148 401.482 130.712 401.013 130.071 402.358 129.083 403.814 129.561 405.368M130.717 434.02C130.519 435.502 129.531 437.88 131.339 438.721 133.014 438.705 134.863 437.177 134.73 435.415 134.068 433.882 132.082 434.127 130.717 434.02M159.701 435.884C159.69 436.964 158.891 438.797 160.317 439.296 161.682 439.021 162.878 437.85 163.103 436.465 162.547 435.1 160.775 435.884 159.701 435.884Z" transform="matrix(1 0 0 1.0006 -99.8297 0)"/><path d="M299.824 190.329C310.967 182.063 324.372 176.736 338.224 175.6 342.303 175.478 347.58 176.14 349.393 180.423 353.701 180.601 357.811 182.114 361.758 183.754 368.735 186.748 374.633 192.417 377.429 199.537 379.456 204.762 379.323 210.613 377.846 215.966 376.385 221.553 373.548 226.814 369.407 230.868 365.303 234.774 360.622 238.089 355.55 240.625 363.922 243.126 372.071 246.874 378.63 252.756 385.939 259.046 391.169 267.892 392.457 277.508 393.501 285.228 391.638 293.127 388.103 299.997 384.35 307.341 378.493 313.458 371.801 318.199 359.054 327.285 343.5 332.031 327.926 332.668 315.699 333.157 303.354 330.437 292.516 324.743 285.712 321.178 279.545 316.162 275.353 309.674 271.686 304.128 269.598 297.502 269.777 290.835 269.991 282.901 272.837 275.16 277.278 268.631 282.407 261.195 289.613 255.349 297.573 251.162 294.125 250.062 290.688 248.692 287.846 246.39 281.083 240.992 277.059 231.983 278.445 223.325 279.259 218.237 281.475 213.506 283.823 208.963 287.719 201.691 293.188 195.248 299.824 190.329M326.215 192.885C320.46 193.817 315.179 196.608 310.494 199.98 303.079 205.429 296.906 212.798 293.667 221.476 292.465 224.527 291.925 228.107 293.387 231.173 295.022 234.631 298.571 236.638 302.024 237.906 310.672 241.084 320.206 240.498 329.037 238.415 337.995 236.271 346.592 232.294 353.737 226.442 358.763 222.22 363.026 216.516 363.948 209.87 364.676 204.777 361.666 199.857 357.526 197.102 354.017 194.8 349.897 193.333 345.695 193.084 343.734 194.143 341.59 195.416 339.253 194.8 335.046 193.552 330.661 191.953 326.215 192.885M333.355 250.439C325.39 251.886 317.563 254.238 310.295 257.829 302.345 261.766 294.828 267.169 289.944 274.712 286.257 280.528 283.726 287.439 284.337 294.405 284.912 300.807 289.302 306.139 294.395 309.715 301.159 314.385 309.134 317.181 317.242 318.367 328.706 319.885 340.587 318.439 351.343 314.171 359.711 310.728 367.773 305.645 372.942 298.052 376.66 292.516 379.079 285.778 378.33 279.04 377.617 272.664 373.879 267.032 369.285 262.733 362.777 256.714 354.287 253.332 345.756 251.366 341.692 250.567 337.486 249.818 333.355 250.439Z" transform="matrix(1 0 0 1.0006 -99.8297 0)"/><path d="M147.035 53.9227C158.753 53.5866 170.492 53.2352 182.211 53.882 183.866 178.361 180.428 302.829 180.036 427.303 179.96 438.354 180.041 449.405 179.965 460.457 175.717 459.515 171.348 460.131 167.075 460.584 161.845 461.144 156.589 462.025 151.313 461.557 148.435 461.272 145.303 460.365 143.551 457.89 141.636 455.155 141.85 451.6 142.303 448.458 148.588 451.87 155.855 453.296 162.97 453.194 167.467 453.026 172.422 452.079 175.605 448.616 178.08 445.876 178.539 441.853 177.78 438.364 173.68 431.137 164.075 426.248 156.09 429.986 152.683 431.601 150.202 434.758 148.919 438.252 148.415 439.917 146.933 441.359 145.166 441.557 143.414 441.476 142.497 439.704 141.932 438.272 140.409 433.949 140.399 429.217 141.086 424.736 141.667 421.599 142.624 418.212 145.176 416.103 147.091 414.54 149.876 414.845 151.898 416.042 155.188 418.018 159.278 418.685 162.99 417.667 169.178 415.961 173.797 409.748 173.604 403.331 173.543 400.209 171.979 397.163 169.443 395.335 167.406 393.761 164.839 393.211 162.512 392.228 159.41 390.96 155.728 391.902 153.462 394.321 149.433 398.528 147.651 404.258 145.868 409.661 144.901 410.104 143.811 410.949 142.711 410.399 141.652 409.595 141.702 408.098 141.652 406.906 141.764 401.599 143.276 396.44 143.521 391.144 143.602 390.038 143.368 388.959 142.996 387.93 150.88 385.822 159.171 387.67 167.1 385.878 170.385 385.139 173.573 383.504 175.728 380.866 176.196 378.31 175.356 375.631 174.164 373.365 171.995 369.412 168.256 366.357 163.978 364.956 161.142 364.04 157.867 363.963 155.214 365.466 152.678 366.866 151.073 369.514 150.35 372.254 149.78 374.495 148.843 376.751 147.167 378.391 146.352 379.247 144.906 379.328 144.111 378.401 142.278 376.334 141.733 373.487 141.321 370.838 140.801 366.474 140.862 361.778 142.92 357.791 143.979 355.642 146.347 354.098 148.797 354.557 150.574 354.654 152.005 355.866 153.696 356.242 158.01 356.487 162.395 356.105 166.555 354.918 169.275 354.093 172.122 352.856 173.741 350.401 175.147 348.298 174.923 345.527 173.94 343.302 172.31 339.864 170.92 335.785 167.172 334.104 159.935 330.712 150.961 335.734 148.45 342.945 147.666 344.702 148.109 346.902 146.688 348.369 145.945 349.184 145.105 350.549 143.816 350.197 142.726 349.225 142.706 347.62 142.507 346.281 142.028 340.521 142.767 334.751 142.64 328.981 142.65 326.068 144.84 323.424 147.707 322.89 154.231 321.52 160.984 323.725 167.498 322.146 170.752 321.392 173.41 318.943 175.004 316.086 176.935 312.419 175.789 307.937 173.461 304.739 170.212 300.237 165.023 296.86 159.39 296.59 155.591 296.371 151.873 298.566 150.167 301.953 148.782 304.861 147.483 307.896 145.318 310.336 144.829 310.83 143.933 311.675 143.256 310.983 142.283 309.755 142.319 308.07 142.156 306.587 141.804 298.841 142.884 291.121 142.925 283.38 150.335 283.298 157.562 285.712 164.987 285.269 168.638 285.091 172.28 283.858 175.111 281.505 176.609 280.589 176.232 278.557 176.267 277.064 175.707 270.128 169.514 264.842 163.021 263.37 159.232 262.453 154.755 263.074 152.021 266.074 150.223 267.923 149.53 270.469 148.99 272.919 148.211 274.462 147.147 276.015 145.604 276.876 144.509 277.319 143.724 276.239 143.393 275.348 142.558 273.133 142.405 270.734 142.263 268.391 142.039 263.08 142.247 257.753 142.859 252.476 150.304 251.524 157.918 251.942 165.272 250.23 168.552 249.441 171.949 248.158 174.169 245.489 176.39 242.815 176.695 239.026 175.891 235.757 173.273 232.222 169.438 229.579 165.226 228.326 162.257 227.476 158.881 227.41 156.136 228.978 153.701 230.333 152.133 232.874 151.465 235.527 150.854 238.267 149.647 241.012 147.569 242.948 146.673 243.808 145.201 243.549 144.544 242.535 142.803 240.121 142.41 237.05 141.988 234.183 141.387 228.229 141.509 222.026 143.561 216.343 144.427 214.041 146.006 211.454 148.7 211.179 151.409 210.848 153.192 213.246 155.509 214.158 161.564 217.203 169.621 216.002 174.098 210.776 176.283 208.317 177.429 204.746 176.344 201.548 175.193 198.065 172.071 195.671 168.842 194.209 167.187 193.568 166.102 192.02 164.437 191.403 162.181 190.42 159.578 191.052 157.567 192.3 153.508 194.729 150.783 198.717 147.31 201.828 146.602 202.445 145.201 203.366 144.56 202.2 143.378 199.832 143.887 197.077 143.648 194.535 142.614 191.653 141.188 188.495 142.298 185.414 143.21 183.026 145.823 181.966 148.145 181.472 154.725 180.148 161.534 181.167 168.109 179.832 170.62 179.298 173.421 178.187 174.49 175.656 175.677 172.697 174.735 169.407 173.594 166.586 172.382 163.678 170.38 160.668 167.167 159.797 163.821 158.932 160.444 160.414 157.638 162.135 152.897 165.17 148.878 169.194 145.171 173.39 146.632 165.98 143.174 158.6 144.279 151.165 144.539 149.388 145.721 147.564 147.62 147.3 150.752 146.846 153.706 148.313 156.431 149.668 162.099 151.944 168.817 149.729 172.896 145.41 174.75 143.434 176.13 140.75 175.763 137.975 175.422 135.306 173.461 133.157 171.241 131.807 169 130.529 167.289 128.38 164.732 127.672 161.508 126.572 158.071 127.937 155.545 129.974 151.353 133.335 148.288 137.817 144.906 141.937 146.602 134.583 143.174 127.147 144.371 119.747 144.672 117.909 145.802 116.035 147.697 115.525 150.304 114.843 153.049 115.602 155.494 116.544 162.206 119.936 171.383 116.85 174.76 110.158 176.441 106.919 174.974 102.926 172.117 100.899 169.357 98.9636 166.423 96.8144 162.934 96.626 160.439 96.4834 158.112 97.726 156.324 99.371 152.387 102.977 149.77 107.963 145.094 110.764 146.602 102.956 143.256 95.1745 144.279 87.3469 144.549 85.2181 145.751 82.962 147.967 82.3763 151.089 81.5665 154.266 82.7073 157.144 83.8634 161.773 85.2181 166.932 84.2454 171.032 81.8008 173.578 80.273 175.885 77.5585 175.493 74.406 175.274 71.8189 173.217 70.0415 172.122 67.8312 170.609 65.0811 167.706 63.0083 164.498 63.0134 160.245 62.9981 156.426 65.5242 153.66 68.5849 151.639 70.6985 150.707 73.6981 148.308 75.4806 147.707 76.0205 146.627 76.0765 146.25 75.2464 145.42 73.7338 145.436 71.9309 145.359 70.2554 145.354 64.7755 146.016 59.3007 147.035 53.9227Z" fill="#FFFFFF" transform="matrix(1 0 0 1.0006 -99.8297 0)"/><path d="M193.405 53.9533C289.97 55.201 386.641 50.4087 483.125 56.2451 482.768 190.94 481.526 325.635 478.877 460.309 386.494 464.001 294.049 458.832 201.645 460.696 198.793 460.513 195.814 461.75 193.089 460.477 190.807 459.484 189.687 457.024 189.208 454.722 188.062 448.881 189.02 442.902 188.531 437.014 188.419 435.609 187.986 434.259 187.93 432.859 184.884 314.553 190.874 196.236 188.674 77.9252 188.78 74.6963 189.132 71.4777 189.142 68.2437 189.274 63.2579 189.779 57.7423 193.405 53.9533M299.824 190.329C293.188 195.248 287.719 201.691 283.823 208.963 281.475 213.506 279.259 218.237 278.445 223.325 277.059 231.983 281.083 240.992 287.846 246.39 290.688 248.692 294.125 250.062 297.573 251.162 289.613 255.349 282.407 261.195 277.278 268.631 272.837 275.16 269.991 282.901 269.777 290.835 269.598 297.502 271.686 304.128 275.353 309.674 279.545 316.162 285.712 321.178 292.516 324.743 303.354 330.437 315.699 333.157 327.926 332.668 343.5 332.031 359.054 327.285 371.801 318.199 378.493 313.458 384.35 307.341 388.103 299.997 391.638 293.127 393.501 285.228 392.457 277.508 391.169 267.892 385.939 259.046 378.63 252.756 372.071 246.874 363.922 243.126 355.55 240.625 360.622 238.089 365.303 234.774 369.407 230.868 373.548 226.814 376.385 221.553 377.846 215.966 379.323 210.613 379.456 204.762 377.429 199.537 374.633 192.417 368.735 186.748 361.758 183.754 357.811 182.114 353.701 180.601 349.393 180.423 347.58 176.14 342.303 175.478 338.224 175.6 324.372 176.736 310.967 182.063 299.824 190.329Z" fill="#FFFFFF" transform="matrix(1 0 0 1.0006 -99.8297 0)"/><path d="M134.491 66.7261C135.382 67.0113 137.037 66.8636 136.987 68.2132 136.396 69.135 135.306 69.9142 134.16 69.6086 133.498 68.6868 134.247 67.6631 134.491 66.7261Z" fill="#FFFFFF" transform="matrix(1 0 0 1.0006 -99.8297 0)"/><path d="M159.894 68.7632C161.452 68.3914 163.255 67.49 164.768 68.4525 165.69 70.4387 163.464 72.9342 161.437 73.0055 159.772 72.3333 160.037 70.2146 159.894 68.7632Z" fill="#FFFFFF" transform="matrix(1 0 0 1.0006 -99.8297 0)"/><path d="M134.583 102.243C135.83 102.712 137.353 103.104 137.985 104.408 137.812 106.476 134.685 107.178 133.126 106.221 132.24 104.774 133.875 103.394 134.583 102.243Z" fill="#FFFFFF" transform="matrix(1 0 0 1.0006 -99.8297 0)"/><path d="M160.408 105.482C159.665 104.168 161.101 103.012 161.758 102.009 162.878 102.493 164.498 102.61 165.038 103.888 164.534 105.656 161.941 106.155 160.408 105.482Z" fill="#FFFFFF" transform="matrix(1 0 0 1.0006 -99.8297 0)"/><path d="M132.576 134.741C132.266 133.228 133.839 132.26 134.817 131.415 135.668 132.357 137.399 133.32 136.875 134.817 135.871 136.034 133.498 136.07 132.576 134.741Z" fill="#FFFFFF" transform="matrix(1 0 0 1.0006 -99.8297 0)"/><path d="M158.473 135.999C158.972 134.542 160.673 134.104 161.885 133.391 162.889 134.079 164.747 134.562 164.676 136.004 163.113 137.409 159.94 137.521 158.473 135.999Z" fill="#FFFFFF" transform="matrix(1 0 0 1.0006 -99.8297 0)"/><path d="M134.567 162.756C135.866 163.271 138.102 163.754 137.949 165.547 136.981 167.029 134.71 167.605 133.157 166.774 132.21 165.323 133.87 163.928 134.567 162.756Z" fill="#FFFFFF" transform="matrix(1 0 0 1.0006 -99.8297 0)"/><path d="M159.92 166.897C161.371 166.484 163.892 165.073 164.661 167.024 164.432 168.715 163.108 170.37 161.391 170.701 159.685 170.345 160.077 168.175 159.92 166.897Z" fill="#FFFFFF" transform="matrix(1 0 0 1.0006 -99.8297 0)"/><path d="M326.215 192.885C330.661 191.953 335.046 193.552 339.253 194.8 341.59 195.416 343.734 194.143 345.695 193.084 349.897 193.333 354.017 194.8 357.526 197.102 361.666 199.857 364.676 204.777 363.948 209.87 363.026 216.516 358.763 222.22 353.737 226.442 346.592 232.294 337.995 236.271 329.037 238.415 320.206 240.498 310.672 241.084 302.024 237.906 298.571 236.638 295.022 234.631 293.387 231.173 291.925 228.107 292.465 224.527 293.667 221.476 296.906 212.798 303.079 205.429 310.494 199.98 315.179 196.608 320.46 193.817 326.215 192.885Z" fill="#FFFFFF" transform="matrix(1 0 0 1.0006 -99.8297 0)"/><path d="M132.612 197.398C132.179 195.88 133.839 194.887 134.792 194.011 135.637 194.892 136.997 195.671 137.012 197.051 136.375 198.696 133.595 198.722 132.612 197.398Z" fill="#FFFFFF" transform="matrix(1 0 0 1.0006 -99.8297 0)"/><path d="M158.147 197.958C159.604 197.678 161.366 196.863 162.685 197.917 163.54 199.628 161.671 201.838 159.909 201.915 158.224 201.441 158.381 199.328 158.147 197.958Z" fill="#FFFFFF" transform="matrix(1 0 0 1.0006 -99.8297 0)"/><path d="M131.782 237.824C131.497 235.385 133.457 233.495 134.893 231.774 136.151 233.134 137.74 234.753 137.374 236.785 136.941 239.164 132.805 240.31 131.782 237.824Z" fill="#FFFFFF" transform="matrix(1 0 0 1.0006 -99.8297 0)"/><path d="M159.986 235.701C162.206 235.38 164.91 234 166.937 235.415 166.764 237.178 164.987 238.176 163.703 239.154 162.079 240.106 160.195 241.491 158.229 240.89 157.485 239.011 159.161 237.274 159.986 235.701Z" fill="#FFFFFF" transform="matrix(1 0 0 1.0006 -99.8297 0)"/><path d="M333.355 250.439C337.486 249.818 341.692 250.567 345.756 251.366 354.287 253.332 362.777 256.714 369.285 262.733 373.879 267.032 377.617 272.664 378.33 279.04 379.079 285.778 376.66 292.516 372.942 298.052 367.773 305.645 359.711 310.728 351.343 314.171 340.587 318.439 328.706 319.885 317.242 318.367 309.134 317.181 301.159 314.385 294.395 309.715 289.302 306.139 284.912 300.807 284.337 294.405 283.726 287.439 286.257 280.528 289.944 274.712 294.828 267.169 302.345 261.766 310.295 257.829 317.563 254.238 325.39 251.886 333.355 250.439Z" fill="#FFFFFF" transform="matrix(1 0 0 1.0006 -99.8297 0)"/><path d="M134.639 265.101C135.825 266.242 137.338 267.561 137.18 269.379 136.498 271.432 132.968 271.442 132.194 269.451 131.97 267.617 133.544 266.329 134.639 265.101Z" fill="#FFFFFF" transform="matrix(1 0 0 1.0006 -99.8297 0)"/><path d="M158.295 272.466C157.434 271.04 159.089 269.695 159.802 268.57 161.065 269.008 162.985 268.987 163.495 270.5 162.721 272.338 160.072 273.138 158.295 272.466Z" fill="#FFFFFF" transform="matrix(1 0 0 1.0006 -99.8297 0)"/><path d="M130.86 307.56C130.264 305.075 131.726 302.697 132.795 300.558 134.435 302.009 135.881 304.469 134.537 306.593 133.916 307.805 131.772 309.19 130.86 307.56Z" fill="#FFFFFF" transform="matrix(1 0 0 1.0006 -99.8297 0)"/><path d="M157.796 304.433C159.925 304.117 162.252 303.354 164.325 304.28 165.191 305.044 164.411 306.155 163.866 306.863 162.12 308.869 159.843 310.453 157.322 311.309 156.574 311.538 155.275 311.757 155.025 310.723 155.02 308.339 156.635 306.389 157.796 304.433Z" fill="#FFFFFF" transform="matrix(1 0 0 1.0006 -99.8297 0)"/><path d="M158.015 342.675C158.147 341.422 159.11 340.485 159.813 339.513 161.04 339.966 163.367 339.951 163.444 341.687 162.649 343.083 160.902 343.582 159.405 343.689 158.804 343.74 157.938 343.403 158.015 342.675Z" fill="#FFFFFF" transform="matrix(1 0 0 1.0006 -99.8297 0)"/><path d="M132.52 340.22C133.681 340.689 134.914 341.86 134.914 343.22 134.119 344.779 131.221 344.824 130.432 343.246 130.351 341.896 131.588 340.974 132.52 340.22Z" fill="#FFFFFF" transform="matrix(1 0 0 1.0006 -99.8297 0)"/><path d="M157.648 373.93C157.353 372.539 158.916 371.842 159.767 371.068 160.49 371.821 162.064 372.519 161.621 373.792 160.617 374.806 158.723 374.877 157.648 373.93Z" fill="#FFFFFF" transform="matrix(1 0 0 1.0006 -99.8297 0)"/><path d="M130.111 375.794C129.908 373.986 131.486 372.697 132.586 371.506 133.656 372.601 134.939 373.731 135.128 375.346 135.026 377.821 130.763 378.024 130.111 375.794Z" fill="#FFFFFF" transform="matrix(1 0 0 1.0006 -99.8297 0)"/><path d="M157.735 398.044C159.94 398.401 162.471 398.472 164.208 400.071 165.129 400.973 164.549 402.373 163.729 403.122 162.155 404.614 160.026 405.566 157.852 405.643 156.772 405.714 155.509 405.037 155.499 403.835 155.428 401.686 156.706 399.827 157.735 398.044Z" fill="#FFFFFF" transform="matrix(1 0 0 1.0006 -99.8297 0)"/><path d="M129.561 405.368C129.083 403.814 130.071 402.358 130.712 401.013 132.148 401.482 133.839 401.742 134.853 402.974 135.708 404.161 134.359 405.383 133.315 405.806 132.164 406.335 130.32 406.712 129.561 405.368Z" fill="#FFFFFF" transform="matrix(1 0 0 1.0006 -99.8297 0)"/><path d="M130.717 434.02C132.082 434.127 134.068 433.882 134.73 435.415 134.863 437.177 133.014 438.705 131.339 438.721 129.531 437.88 130.519 435.502 130.717 434.02Z" fill="#FFFFFF" transform="matrix(1 0 0 1.0006 -99.8297 0)"/><path d="M159.701 435.884C160.775 435.884 162.547 435.1 163.103 436.465 162.878 437.85 161.682 439.021 160.317 439.296 158.891 438.797 159.69 436.964 159.701 435.884Z" fill="#FFFFFF" transform="matrix(1 0 0 1.0006 -99.8297 0)"/></g></svg>