<svg width="428" height="518" xmlns="http://www.w3.org/2000/svg" xmlns:xlink="http://www.w3.org/1999/xlink" xml:space="preserve" overflow="hidden"><defs><clipPath id="clip0"><rect x="0" y="0" width="421" height="518"/></clipPath></defs><g clip-path="url(#clip0)"><path d="M139.106 45.9477C255.592 50.5979 372.196 49.1616 488.738 49.946 491.29 127.172 488.361 204.419 486.426 281.625 484.908 342.827 483.92 404.111 487.057 465.283 369.705 468.838 252.277 467.127 134.919 464.611 136.366 461.132 136.315 457.195 135.047 453.68 133.396 448.653 130.269 444.217 128.95 439.078 128.013 435.573 128.68 431.402 131.522 428.947 133.84 426.828 135.627 423.614 134.68 420.41 132.831 414.283 126.403 411.079 124.07 405.227 122.721 401.595 125.731 398.284 128.66 396.599 131.003 395.381 133.763 393.634 133.768 390.66 133.58 387.155 131.059 384.451 129.22 381.66 127.488 379.087 125.339 376.164 126.031 372.879 126.592 370.418 128.894 369.104 130.682 367.597 132.831 365.824 134.15 362.951 133.626 360.155 132.551 354.012 127.417 349.474 126.388 343.316 125.863 340.306 127.478 337.347 129.862 335.59 133.147 333.231 134.639 328.871 133.855 324.949 132.617 318.394 127.992 313.128 126.418 306.685 125.705 303.883 126.092 300.761 127.784 298.377 129.016 296.416 131.186 295.28 132.337 293.263 133.61 291.18 134.028 288.613 133.503 286.229 132.245 280.143 127.473 275.477 126.194 269.401 125.604 266.706 126.5 263.823 128.39 261.837 130.34 259.509 133.544 258.48 135.042 255.735 136.025 254.105 135.643 252.017 134.568 250.53 131.593 246.251 126.485 243.822 124.035 239.126 122.451 236.156 124.111 232.407 126.851 230.777 131.517 227.971 134.93 223.025 135.434 217.555 136.203 210.119 132.719 202.866 127.748 197.528 129.133 192.419 132.699 188.319 134.599 183.429 135.469 181.234 135.653 178.514 134.125 176.558 132.429 174.083 129.149 173.517 127.356 171.134 125.548 169.229 124.61 166.366 125.649 163.85 127.59 159.011 132.317 156.072 134.685 151.498 135.612 149.767 135.806 147.571 134.843 145.814 133.376 142.794 129.851 141.536 128.364 138.541 127.432 136.85 127.386 134.782 128.048 132.989 129.658 128.435 133.773 125.308 135.398 120.775 136.381 118.294 134.792 115.697 132.663 114.449 129.948 112.829 127.121 111.016 125.609 108.133 124.534 106.157 124.682 103.712 125.624 101.715 128.288 96.0108 133.987 92.2111 136.004 86.1398 137.125 82.8545 135.745 79.3197 133.417 76.9309 131.099 74.5625 129.576 71.1499 130.493 67.8188 132.103 61.8391 137.094 57.4639 138.775 51.4995 139.33 49.7015 139.284 47.8017 139.106 45.9477M146.751 53.9341C145.682 59.8272 144.882 65.8323 145.157 71.8324 145.351 73.2433 145.325 75.1075 146.721 75.9224 148.672 75.7238 149.721 73.7526 150.75 72.3163 153.393 67.6354 157.957 63.5047 163.509 63.0361 167.008 62.7305 170.293 64.941 171.898 67.9614 172.967 70.0854 174.923 71.8171 175.178 74.2925 175.641 77.4199 173.41 80.1652 170.894 81.7136 166.799 84.2196 161.619 85.2281 156.959 83.8987 154.02 82.7476 150.78 81.5302 147.607 82.4165 145.325 83.0583 144.2 85.4624 143.965 87.6423 143.064 95.3843 146.313 103.07 144.816 110.787 149.456 107.985 152.079 103.05 155.976 99.4438 157.845 97.6967 160.33 96.3928 162.954 96.6577 166.371 96.9684 169.234 99.0821 171.938 101.002 174.745 103.04 176.11 107.002 174.454 110.191 171.093 116.838 161.986 119.929 155.293 116.593 152.772 115.605 149.919 114.805 147.24 115.6 145.065 116.283 144.123 118.671 143.94 120.76 143.283 127.824 146.099 134.833 144.734 141.882 147.836 137.975 150.77 133.86 154.554 130.565 157.004 128.451 160.249 126.739 163.575 127.463 166.814 128.038 168.913 130.794 171.679 132.312 174.791 134.278 176.543 138.413 174.913 141.892 171.892 148.554 163.341 152.293 156.429 149.797 153.541 148.437 150.444 146.746 147.133 147.357 145.259 147.734 144.21 149.614 143.965 151.376 142.972 158.757 146.349 166.076 144.887 173.426 148.371 169.427 152.191 165.658 156.577 162.653 159.47 160.758 162.908 159.042 166.463 159.714 169.687 160.366 171.821 163.244 173.074 166.091 174.312 168.959 175.341 172.264 174.322 175.356 173.405 177.974 170.629 179.227 168.113 179.792 161.482 181.208 154.6 180.164 147.959 181.473 145.539 181.972 142.794 183.093 141.948 185.64 141.016 188.599 142.284 191.604 143.313 194.344 143.716 197.003 142.987 199.983 144.413 202.422 145.188 203.278 146.273 202.433 146.965 201.908 151.04 198.337 154.122 193.295 159.403 191.339 162.032 190.31 164.925 191.344 166.881 193.224 169.224 194.752 172.005 195.709 173.864 197.925 176.252 200.39 177.179 204.215 175.845 207.434 173.894 212.36 168.704 215.456 163.539 215.798 159.398 216.134 155.288 214.657 151.967 212.242 150.174 210.816 147.357 210.801 145.712 212.461 143.446 214.708 142.641 217.957 142.04 220.988 141.103 226.662 141.144 232.54 142.412 238.158 142.896 239.94 143.405 241.917 144.877 243.154 145.687 243.832 146.848 243.46 147.526 242.783 148.942 241.397 149.843 239.574 150.577 237.76 151.208 235.626 151.626 233.35 153.032 231.552 154.886 228.862 158.262 227.548 161.466 227.772 166.519 228.063 171.169 230.803 174.556 234.46 175.005 235.02 175.641 235.524 175.723 236.288 176.303 239.35 176.028 242.803 174.027 245.319 171.826 248.131 168.317 249.455 164.955 250.265 157.626 251.956 150.047 251.579 142.621 252.48 141.857 258.964 141.582 265.555 142.315 272.049 142.646 273.74 142.779 275.854 144.327 276.914 145.886 277.27 146.899 275.62 147.745 274.586 149.181 272.92 148.992 270.577 150.001 268.708 151.386 265.56 154.549 263.385 157.957 263.095 163.152 262.591 168.368 264.913 171.964 268.601 175.035 271.698 176.762 276.318 175.692 280.642 172.855 283.698 168.592 285.119 164.497 285.318 157.147 285.695 149.996 283.346 142.656 283.408 142.661 291.837 141.21 300.277 142.101 308.696 142.167 309.827 142.967 312.114 144.419 310.932 147.195 308.421 148.442 304.754 150.154 301.525 151.977 298.28 155.716 296.33 159.419 296.635 165.144 297.058 170.37 300.593 173.517 305.299 175.651 308.467 176.553 312.822 174.617 316.301 172.977 319.082 170.364 321.486 167.14 322.199 160.712 323.722 154.071 321.624 147.622 322.882 144.663 323.371 142.351 326.065 142.361 329.075 142.509 335.029 141.683 340.999 142.305 346.948 142.386 348.226 142.855 349.434 143.583 350.483 145.335 350.07 146.481 348.532 147.276 347.029 147.658 344.748 148.091 342.405 149.39 340.433 152.818 334.668 160.707 331.082 167.023 334.209 170.874 336.079 172.244 340.383 173.899 343.989 175.203 347.045 174.154 350.824 171.332 352.622 166.504 355.81 160.458 356.32 154.819 356.361 152.431 356.62 150.612 354.613 148.264 354.568 145.809 354.211 143.563 355.882 142.549 358.016 140.609 361.943 140.537 366.512 141.037 370.78 141.449 373.464 141.984 376.362 143.853 378.456 144.811 379.581 146.517 379.113 147.296 378.028 150.128 375.069 149.741 370.464 152.532 367.485 155.028 364.449 159.403 363.715 163.035 364.805 169.988 366.741 175.982 373.347 175.59 380.829 173.461 383.228 170.639 384.97 167.527 385.744 159.414 387.828 150.862 385.821 142.748 387.955 143.043 388.994 143.334 390.064 143.252 391.164 142.998 396.476 141.49 401.661 141.378 406.989 141.419 408.084 141.393 409.373 142.188 410.244 143.201 411.176 144.5 410.183 145.534 409.796 147.505 404.142 149.262 397.953 153.826 393.782 156.505 391.261 160.605 391.24 163.748 392.86 167.313 393.909 170.976 395.875 172.448 399.497 174.949 405.502 171.729 412.648 166.463 416.025 162.103 418.933 156.139 418.821 151.702 416.137 149.828 415.047 147.342 414.578 145.422 415.801 143.186 417.242 142.071 419.83 141.363 422.3 140.155 426.904 140.043 431.825 141.082 436.475 141.576 438.252 142.172 440.29 143.833 441.334 145.697 442.19 147.745 440.504 148.422 438.823 149.456 436.032 151.04 433.363 153.429 431.524 156.521 429.038 160.743 428.234 164.589 429.023 169.932 430.088 174.643 433.658 177.439 438.288 178.346 442.062 177.704 446.529 174.729 449.264 171.327 452.402 166.468 453.171 162.001 453.263 155.105 453.247 148.106 451.806 142.015 448.516 141.607 451.623 141.363 455.101 143.206 457.832 144.877 460.322 147.974 461.28 150.811 461.585 155.889 462.095 160.967 461.275 166.004 460.73 170.538 460.246 175.178 459.528 179.701 460.511 179.512 324.97 183.663 189.449 181.937 53.9087 170.217 53.2262 158.476 53.5929 146.751 53.9341M193.066 53.9698C188.359 59.0734 189.001 66.4741 188.67 72.8918 188.12 78.2756 188.543 83.6898 188.543 89.0889 190.234 203.889 184.616 318.69 187.662 433.48 189.073 439.867 187.809 446.438 188.599 452.881 188.92 455.611 189.709 458.718 192.225 460.241 194.477 461.646 197.176 460.954 199.641 460.786 292.54 458.835 385.469 464.056 478.348 460.383 481.022 325.688 482.244 190.972 482.601 56.2516 386.182 50.4197 289.571 55.1973 193.066 53.9698M134.201 66.7492C134.013 67.6558 133.111 68.8884 134.023 69.6626 135.179 69.8052 136.473 69.0514 136.743 67.8799 136.335 66.8816 135.072 66.9886 134.201 66.7492M159.607 68.7611C159.745 70.2432 159.48 72.7085 161.441 73.0344 163.28 72.6575 164.981 70.7322 164.701 68.812 163.453 67.2432 161.201 68.43 159.607 68.7611M132.943 106.305C134.507 107.089 136.855 106.519 137.705 104.94 137.716 103.233 135.617 102.836 134.39 102.209 133.621 103.361 131.868 104.884 132.943 106.305M160.03 105.332C161.609 106.437 164.038 105.485 164.965 103.906 164.059 102.846 162.74 102.393 161.446 102.021 160.83 102.999 159.541 104.048 160.03 105.332M132.215 134.497C132.928 136.203 135.984 136.162 136.763 134.527 136.743 133.096 135.378 132.296 134.466 131.42 133.57 132.296 132.286 133.106 132.215 134.497M157.993 135.994C159.821 137.593 162.724 137.288 164.655 136.014 164.1 134.665 162.775 134.033 161.563 133.402 160.254 134.084 158.838 134.716 157.993 135.994M132.775 166.631C134.247 167.818 137.436 167.018 137.741 165.001 137.155 163.651 135.592 163.31 134.39 162.729 133.641 163.855 132.108 165.154 132.775 166.631M159.633 166.906C159.785 168.174 159.419 170.217 160.993 170.701 162.312 170.639 163.264 169.539 163.906 168.5 164.278 167.848 164.665 166.784 163.896 166.264 162.475 165.694 160.993 166.514 159.633 166.906M132.21 197.13C132.994 198.796 135.938 198.745 136.773 197.146 136.733 195.709 135.398 194.91 134.466 194.028 133.554 194.91 132.281 195.73 132.21 197.13M157.85 197.991C158.089 199.341 157.962 201.205 159.424 201.913 161.303 202.061 163.407 199.555 162.307 197.828 160.926 196.972 159.291 197.696 157.85 197.991M134.624 231.806C133.198 233.518 131.252 235.392 131.517 237.811 132.469 240.343 136.646 239.212 137.104 236.844 137.476 234.801 135.902 233.171 134.624 231.806M159.714 235.718C158.848 237.18 157.692 238.652 157.697 240.429 157.865 240.597 158.206 240.934 158.375 241.102 161.049 241.061 163.366 239.334 165.337 237.684 165.938 237.012 167.207 235.983 166.32 235.076 164.135 234.419 161.864 235.3 159.714 235.718M131.904 268.963C131.935 271.621 136.88 271.616 136.936 268.973 136.799 267.343 135.449 266.228 134.425 265.107 133.396 266.228 132.047 267.338 131.904 268.963M157.987 272.436C159.867 273.328 162.373 272.202 163.392 270.45 162.449 269.222 160.921 268.917 159.505 268.601 158.823 269.717 157.188 271.051 157.987 272.436M130.661 307.718C131.756 309.206 133.748 307.713 134.354 306.481 135.561 304.372 134.11 302.08 132.597 300.608 131.405 302.722 129.928 305.233 130.661 307.718M157.519 304.464C156.393 306.527 154.244 308.742 154.967 311.233 156.959 312.104 159.006 310.464 160.672 309.491 162.184 308.274 164.395 306.944 164.385 304.774 162.602 303.012 159.719 304.24 157.519 304.464M159.505 339.562C158.782 340.688 157.305 341.916 157.911 343.388 159.658 344.198 162.108 343.357 163.117 341.748 163.157 340.021 160.758 339.98 159.505 339.562M130.132 343.286C130.992 344.839 133.794 344.824 134.649 343.276 134.721 341.814 133.289 340.999 132.378 340.097 131.466 341.009 130.121 341.839 130.132 343.286M157.595 374.218C158.94 374.982 160.789 374.687 161.695 373.388 161.069 372.507 160.305 371.748 159.454 371.096 158.634 371.906 156.638 372.873 157.595 374.218M129.806 375.369C129.851 377.88 134.227 378.079 134.818 375.787 134.975 373.994 133.432 372.731 132.337 371.544 131.293 372.649 129.989 373.76 129.806 375.369M157.442 398.096C156.408 399.894 155.13 401.768 155.212 403.938 155.303 405.247 156.734 405.828 157.88 405.68 160.025 405.497 162.144 404.529 163.626 402.96 164.4 402.211 164.741 400.831 163.845 400.042 162.093 398.524 159.628 398.432 157.442 398.096M129.561 405.797C131.313 407.132 135.016 405.731 134.807 403.357 133.891 401.824 131.96 401.544 130.407 401.071 129.801 402.512 128.527 404.264 129.561 405.797M130.483 434.045C130.244 435.533 129.347 437.667 130.891 438.711 132.688 438.96 134.975 436.994 134.318 435.115 133.381 433.989 131.782 434.178 130.483 434.045M159.403 435.94C159.393 437.04 158.675 438.65 159.913 439.358 161.334 439.149 162.602 437.926 162.811 436.5 162.256 435.151 160.483 435.935 159.403 435.94Z" transform="matrix(1.0009 0 0 1 -102.546 0)"/><path d="M323.788 184.687C333.374 179.145 344.355 175.682 355.5 175.916 360.262 176.008 365.055 177.353 368.992 180.083 374.549 183.903 378.451 189.862 380.147 196.356 383.096 197.375 386.091 199.463 386.697 202.733 387.323 205.203 386.096 207.587 384.975 209.711 383.478 212.584 381.547 215.202 379.913 217.993 379.388 218.747 379.48 219.689 379.474 220.56 379.622 235.148 380.07 249.725 380.534 264.307 380.962 276.542 381.288 288.781 381.986 301.005 382.261 305.391 382.418 309.791 382.149 314.182 382.031 316.887 382.5 319.724 381.461 322.306 380.722 324.348 379.113 325.887 378.16 327.812 376.225 331.444 373.148 334.306 369.715 336.506 367.663 338.442 365.305 339.995 362.865 341.401 354.71 345.45 345.695 347.279 336.756 348.664 326.9 349.999 316.988 350.819 307.067 351.471 303.19 351.766 299.355 352.423 295.515 352.953 292.953 353.315 290.217 352.046 288.965 349.759 287.08 346.8 288.44 342.471 291.583 340.994 293.314 340.199 295.168 339.71 296.895 338.89 297.537 340.097 298.973 339.313 300.022 339.333 316.311 337.489 332.946 337.5 348.838 333.053 352.989 331.82 357.232 330.328 360.583 327.491 361.688 326.09 363.288 325.275 364.78 324.364 365.279 315.725 366.573 307.138 366.481 298.469 366.379 279.119 365.931 259.769 365.758 240.424 360.827 247.652 355.683 254.747 350.147 261.531 343.795 269.289 336.221 276.083 327.659 281.324 318.664 286.744 307.744 289.112 297.353 287.34 291.364 286.321 285.705 283.117 282.109 278.172 277.143 271.677 275.747 263.177 276.272 255.185 276.837 244.372 280.433 233.91 285.583 224.451 294.44 208.096 307.668 194.039 323.788 184.687M343.596 191.37C333.364 193.646 324.644 200.054 317.05 207.027 309.786 213.867 303.751 221.961 299.009 230.726 294.343 239.472 291.241 249.272 291.45 259.26 291.608 265.036 295.82 270.577 301.51 271.917 308.202 273.501 315.303 271.611 321.063 268.071 328.382 263.375 334.596 257.131 340.158 250.489 349.586 238.83 357.619 226.132 366.094 213.786 367.805 211.127 367.301 207.699 367.077 204.709 366.451 199.601 363.44 194.568 358.617 192.434 353.926 190.376 348.552 190.382 343.596 191.37Z" transform="matrix(1.0009 0 0 1 -102.546 0)"/><path d="M146.751 53.9341C158.476 53.5929 170.217 53.2262 181.937 53.9087 183.663 189.449 179.512 324.97 179.701 460.511 175.178 459.528 170.538 460.246 166.004 460.73 160.967 461.275 155.889 462.095 150.811 461.585 147.974 461.28 144.877 460.322 143.206 457.832 141.363 455.101 141.607 451.623 142.015 448.516 148.106 451.806 155.105 453.247 162.001 453.263 166.468 453.171 171.327 452.402 174.729 449.264 177.704 446.529 178.346 442.062 177.439 438.288 174.643 433.658 169.932 430.088 164.589 429.023 160.743 428.234 156.521 429.038 153.429 431.524 151.04 433.363 149.456 436.032 148.422 438.823 147.745 440.504 145.697 442.19 143.833 441.334 142.172 440.29 141.576 438.252 141.082 436.475 140.043 431.825 140.155 426.904 141.363 422.3 142.071 419.83 143.186 417.242 145.422 415.801 147.342 414.578 149.828 415.047 151.702 416.137 156.139 418.821 162.103 418.933 166.463 416.025 171.729 412.648 174.949 405.502 172.448 399.497 170.976 395.875 167.313 393.909 163.748 392.86 160.605 391.24 156.505 391.261 153.826 393.782 149.262 397.953 147.505 404.142 145.534 409.796 144.5 410.183 143.201 411.176 142.188 410.244 141.393 409.373 141.419 408.084 141.378 406.989 141.49 401.661 142.998 396.476 143.252 391.164 143.334 390.064 143.043 388.994 142.748 387.955 150.862 385.821 159.414 387.828 167.527 385.744 170.639 384.97 173.461 383.228 175.59 380.829 175.982 373.347 169.988 366.741 163.035 364.805 159.403 363.715 155.028 364.449 152.532 367.485 149.741 370.464 150.128 375.069 147.296 378.028 146.517 379.113 144.811 379.581 143.853 378.456 141.984 376.362 141.449 373.464 141.037 370.78 140.537 366.512 140.609 361.943 142.549 358.016 143.563 355.882 145.809 354.211 148.264 354.568 150.612 354.613 152.431 356.62 154.819 356.361 160.458 356.32 166.504 355.81 171.332 352.622 174.154 350.824 175.203 347.045 173.899 343.989 172.244 340.383 170.874 336.079 167.023 334.209 160.707 331.082 152.818 334.668 149.39 340.433 148.091 342.405 147.658 344.748 147.276 347.029 146.481 348.532 145.335 350.07 143.583 350.483 142.855 349.434 142.386 348.226 142.305 346.948 141.683 340.999 142.509 335.029 142.361 329.075 142.351 326.065 144.663 323.371 147.622 322.882 154.071 321.624 160.712 323.722 167.14 322.199 170.364 321.486 172.977 319.082 174.617 316.301 176.553 312.822 175.651 308.467 173.517 305.299 170.37 300.593 165.144 297.058 159.419 296.635 155.716 296.33 151.977 298.28 150.154 301.525 148.442 304.754 147.195 308.421 144.419 310.932 142.967 312.114 142.167 309.827 142.101 308.696 141.21 300.277 142.661 291.837 142.656 283.408 149.996 283.346 157.147 285.695 164.497 285.318 168.592 285.119 172.855 283.698 175.692 280.642 176.762 276.318 175.035 271.698 171.964 268.601 168.368 264.913 163.152 262.591 157.957 263.095 154.549 263.385 151.386 265.56 150.001 268.708 148.992 270.577 149.181 272.92 147.745 274.586 146.899 275.62 145.886 277.27 144.327 276.914 142.779 275.854 142.646 273.74 142.315 272.049 141.582 265.555 141.857 258.964 142.621 252.48 150.047 251.579 157.626 251.956 164.955 250.265 168.317 249.455 171.826 248.131 174.027 245.319 176.028 242.803 176.303 239.35 175.723 236.288 175.641 235.524 175.005 235.02 174.556 234.46 171.169 230.803 166.519 228.063 161.466 227.772 158.262 227.548 154.886 228.862 153.032 231.552 151.626 233.35 151.208 235.626 150.577 237.76 149.843 239.574 148.942 241.397 147.526 242.783 146.848 243.46 145.687 243.832 144.877 243.154 143.405 241.917 142.896 239.94 142.412 238.158 141.144 232.54 141.103 226.662 142.04 220.988 142.641 217.957 143.446 214.708 145.712 212.461 147.357 210.801 150.174 210.816 151.967 212.242 155.288 214.657 159.398 216.134 163.539 215.798 168.704 215.456 173.894 212.36 175.845 207.434 177.179 204.215 176.252 200.39 173.864 197.925 172.005 195.709 169.224 194.752 166.881 193.224 164.925 191.344 162.032 190.31 159.403 191.339 154.122 193.295 151.04 198.337 146.965 201.908 146.273 202.433 145.188 203.278 144.413 202.422 142.987 199.983 143.716 197.003 143.313 194.344 142.284 191.604 141.016 188.599 141.948 185.64 142.794 183.093 145.539 181.972 147.959 181.473 154.6 180.164 161.482 181.208 168.113 179.792 170.629 179.227 173.405 177.974 174.322 175.356 175.341 172.264 174.312 168.959 173.074 166.091 171.821 163.244 169.687 160.366 166.463 159.714 162.908 159.042 159.47 160.758 156.577 162.653 152.191 165.658 148.371 169.427 144.887 173.426 146.349 166.076 142.972 158.757 143.965 151.376 144.21 149.614 145.259 147.734 147.133 147.357 150.444 146.746 153.541 148.437 156.429 149.797 163.341 152.293 171.892 148.554 174.913 141.892 176.543 138.413 174.791 134.278 171.679 132.312 168.913 130.794 166.814 128.038 163.575 127.463 160.249 126.739 157.004 128.451 154.554 130.565 150.77 133.86 147.836 137.975 144.734 141.882 146.099 134.833 143.283 127.824 143.94 120.76 144.123 118.671 145.065 116.283 147.24 115.6 149.919 114.805 152.772 115.605 155.293 116.593 161.986 119.929 171.093 116.838 174.454 110.191 176.11 107.002 174.745 103.04 171.938 101.002 169.234 99.0821 166.371 96.9684 162.954 96.6577 160.33 96.3928 157.845 97.6967 155.976 99.4438 152.079 103.05 149.456 107.985 144.816 110.787 146.313 103.07 143.064 95.3843 143.965 87.6423 144.2 85.4624 145.325 83.0583 147.607 82.4165 150.78 81.5302 154.02 82.7476 156.959 83.8987 161.619 85.2281 166.799 84.2196 170.894 81.7136 173.41 80.1652 175.641 77.4199 175.178 74.2925 174.923 71.8171 172.967 70.0854 171.898 67.9614 170.293 64.941 167.008 62.7305 163.509 63.0361 157.957 63.5047 153.393 67.6354 150.75 72.3163 149.721 73.7526 148.672 75.7238 146.721 75.9224 145.325 75.1075 145.351 73.2433 145.157 71.8324 144.882 65.8323 145.682 59.8272 146.751 53.9341Z" fill="#FFFFFF" transform="matrix(1.0009 0 0 1 -102.546 0)"/><path d="M193.066 53.9698C289.571 55.1973 386.182 50.4197 482.601 56.2516 482.244 190.972 481.022 325.688 478.348 460.383 385.469 464.056 292.54 458.835 199.641 460.786 197.176 460.954 194.477 461.646 192.225 460.241 189.709 458.718 188.92 455.611 188.599 452.881 187.809 446.438 189.073 439.867 187.662 433.48 184.616 318.69 190.234 203.889 188.543 89.0889 188.543 83.6898 188.12 78.2756 188.67 72.8918 189.001 66.4741 188.359 59.0734 193.066 53.9698M323.788 184.687C307.668 194.039 294.44 208.096 285.583 224.451 280.433 233.91 276.837 244.372 276.272 255.185 275.747 263.177 277.143 271.677 282.109 278.172 285.705 283.117 291.364 286.321 297.353 287.34 307.744 289.112 318.664 286.744 327.659 281.324 336.221 276.083 343.795 269.289 350.147 261.531 355.683 254.747 360.827 247.652 365.758 240.424 365.931 259.769 366.379 279.119 366.481 298.469 366.573 307.138 365.279 315.725 364.78 324.364 363.288 325.275 361.688 326.09 360.583 327.491 357.232 330.328 352.989 331.82 348.838 333.053 332.946 337.5 316.311 337.489 300.022 339.333 298.973 339.313 297.537 340.097 296.895 338.89 295.168 339.71 293.314 340.199 291.583 340.994 288.44 342.471 287.08 346.8 288.965 349.759 290.217 352.046 292.953 353.315 295.515 352.953 299.355 352.423 303.19 351.766 307.067 351.471 316.988 350.819 326.9 349.999 336.756 348.664 345.695 347.279 354.71 345.45 362.865 341.401 365.305 339.995 367.663 338.442 369.715 336.506 373.148 334.306 376.225 331.444 378.16 327.812 379.113 325.887 380.722 324.348 381.461 322.306 382.5 319.724 382.031 316.887 382.149 314.182 382.418 309.791 382.261 305.391 381.986 301.005 381.288 288.781 380.962 276.542 380.534 264.307 380.07 249.725 379.622 235.148 379.474 220.56 379.48 219.689 379.388 218.747 379.913 217.993 381.547 215.202 383.478 212.584 384.975 209.711 386.096 207.587 387.323 205.203 386.697 202.733 386.091 199.463 383.096 197.375 380.147 196.356 378.451 189.862 374.549 183.903 368.992 180.083 365.055 177.353 360.262 176.008 355.5 175.916 344.355 175.682 333.374 179.145 323.788 184.687Z" fill="#FFFFFF" transform="matrix(1.0009 0 0 1 -102.546 0)"/><path d="M134.201 66.7492C135.072 66.9886 136.335 66.8816 136.743 67.8799 136.473 69.0514 135.179 69.8052 134.023 69.6626 133.111 68.8884 134.013 67.6558 134.201 66.7492Z" fill="#FFFFFF" transform="matrix(1.0009 0 0 1 -102.546 0)"/><path d="M159.607 68.7611C161.201 68.43 163.453 67.2432 164.701 68.812 164.981 70.7322 163.28 72.6575 161.441 73.0344 159.48 72.7085 159.745 70.2432 159.607 68.7611Z" fill="#FFFFFF" transform="matrix(1.0009 0 0 1 -102.546 0)"/><path d="M132.943 106.305C131.868 104.884 133.621 103.361 134.39 102.209 135.617 102.836 137.716 103.233 137.705 104.94 136.855 106.519 134.507 107.089 132.943 106.305Z" fill="#FFFFFF" transform="matrix(1.0009 0 0 1 -102.546 0)"/><path d="M160.03 105.332C159.541 104.048 160.83 102.999 161.446 102.021 162.74 102.393 164.059 102.846 164.965 103.906 164.038 105.485 161.609 106.437 160.03 105.332Z" fill="#FFFFFF" transform="matrix(1.0009 0 0 1 -102.546 0)"/><path d="M132.215 134.497C132.286 133.106 133.57 132.296 134.466 131.42 135.378 132.296 136.743 133.096 136.763 134.527 135.984 136.162 132.928 136.203 132.215 134.497Z" fill="#FFFFFF" transform="matrix(1.0009 0 0 1 -102.546 0)"/><path d="M157.993 135.994C158.838 134.716 160.254 134.084 161.563 133.402 162.775 134.033 164.1 134.665 164.655 136.014 162.724 137.288 159.821 137.593 157.993 135.994Z" fill="#FFFFFF" transform="matrix(1.0009 0 0 1 -102.546 0)"/><path d="M132.775 166.631C132.108 165.154 133.641 163.855 134.39 162.729 135.592 163.31 137.155 163.651 137.741 165.001 137.436 167.018 134.247 167.818 132.775 166.631Z" fill="#FFFFFF" transform="matrix(1.0009 0 0 1 -102.546 0)"/><path d="M159.633 166.906C160.993 166.514 162.475 165.694 163.896 166.264 164.665 166.784 164.278 167.848 163.906 168.5 163.264 169.539 162.312 170.639 160.993 170.701 159.419 170.217 159.785 168.174 159.633 166.906Z" fill="#FFFFFF" transform="matrix(1.0009 0 0 1 -102.546 0)"/><path d="M343.596 191.37C348.552 190.382 353.926 190.376 358.617 192.434 363.44 194.568 366.451 199.601 367.077 204.709 367.301 207.699 367.805 211.127 366.094 213.786 357.619 226.132 349.586 238.83 340.158 250.489 334.596 257.131 328.382 263.375 321.063 268.071 315.303 271.611 308.202 273.501 301.51 271.917 295.82 270.577 291.608 265.036 291.45 259.26 291.241 249.272 294.343 239.472 299.009 230.726 303.751 221.961 309.786 213.867 317.05 207.027 324.644 200.054 333.364 193.646 343.596 191.37Z" fill="#FFFFFF" transform="matrix(1.0009 0 0 1 -102.546 0)"/><path d="M132.21 197.13C132.281 195.73 133.554 194.91 134.466 194.028 135.398 194.91 136.733 195.709 136.773 197.146 135.938 198.745 132.994 198.796 132.21 197.13Z" fill="#FFFFFF" transform="matrix(1.0009 0 0 1 -102.546 0)"/><path d="M157.85 197.991C159.291 197.696 160.926 196.972 162.307 197.828 163.407 199.555 161.303 202.061 159.424 201.913 157.962 201.205 158.089 199.341 157.85 197.991Z" fill="#FFFFFF" transform="matrix(1.0009 0 0 1 -102.546 0)"/><path d="M134.624 231.806C135.902 233.171 137.476 234.801 137.104 236.844 136.646 239.212 132.469 240.343 131.517 237.811 131.252 235.392 133.198 233.518 134.624 231.806Z" fill="#FFFFFF" transform="matrix(1.0009 0 0 1 -102.546 0)"/><path d="M159.714 235.718C161.864 235.3 164.135 234.419 166.32 235.076 167.207 235.983 165.938 237.012 165.337 237.684 163.366 239.334 161.049 241.061 158.375 241.102 158.206 240.934 157.865 240.597 157.697 240.429 157.692 238.652 158.848 237.18 159.714 235.718Z" fill="#FFFFFF" transform="matrix(1.0009 0 0 1 -102.546 0)"/><path d="M131.904 268.963C132.047 267.338 133.396 266.228 134.425 265.107 135.449 266.228 136.799 267.343 136.936 268.973 136.88 271.616 131.935 271.621 131.904 268.963Z" fill="#FFFFFF" transform="matrix(1.0009 0 0 1 -102.546 0)"/><path d="M157.987 272.436C157.188 271.051 158.823 269.717 159.505 268.601 160.921 268.917 162.449 269.222 163.392 270.45 162.373 272.202 159.867 273.328 157.987 272.436Z" fill="#FFFFFF" transform="matrix(1.0009 0 0 1 -102.546 0)"/><path d="M130.661 307.718C129.928 305.233 131.405 302.722 132.597 300.608 134.11 302.08 135.561 304.372 134.354 306.481 133.748 307.713 131.756 309.206 130.661 307.718Z" fill="#FFFFFF" transform="matrix(1.0009 0 0 1 -102.546 0)"/><path d="M157.519 304.464C159.719 304.24 162.602 303.012 164.385 304.774 164.395 306.944 162.184 308.274 160.672 309.491 159.006 310.464 156.959 312.104 154.967 311.233 154.244 308.742 156.393 306.527 157.519 304.464Z" fill="#FFFFFF" transform="matrix(1.0009 0 0 1 -102.546 0)"/><path d="M159.505 339.562C160.758 339.98 163.157 340.021 163.117 341.748 162.108 343.357 159.658 344.198 157.911 343.388 157.305 341.916 158.782 340.688 159.505 339.562Z" fill="#FFFFFF" transform="matrix(1.0009 0 0 1 -102.546 0)"/><path d="M130.132 343.286C130.121 341.839 131.466 341.009 132.378 340.097 133.289 340.999 134.721 341.814 134.649 343.276 133.794 344.824 130.992 344.839 130.132 343.286Z" fill="#FFFFFF" transform="matrix(1.0009 0 0 1 -102.546 0)"/><path d="M157.595 374.218C156.638 372.873 158.634 371.906 159.454 371.096 160.305 371.748 161.069 372.507 161.695 373.388 160.789 374.687 158.94 374.982 157.595 374.218Z" fill="#FFFFFF" transform="matrix(1.0009 0 0 1 -102.546 0)"/><path d="M129.806 375.369C129.989 373.76 131.293 372.649 132.337 371.544 133.432 372.731 134.975 373.994 134.818 375.787 134.227 378.079 129.851 377.88 129.806 375.369Z" fill="#FFFFFF" transform="matrix(1.0009 0 0 1 -102.546 0)"/><path d="M157.442 398.096C159.628 398.432 162.093 398.524 163.845 400.042 164.741 400.831 164.4 402.211 163.626 402.96 162.144 404.529 160.025 405.497 157.88 405.68 156.734 405.828 155.303 405.247 155.212 403.938 155.13 401.768 156.408 399.894 157.442 398.096Z" fill="#FFFFFF" transform="matrix(1.0009 0 0 1 -102.546 0)"/><path d="M129.561 405.797C128.527 404.264 129.801 402.512 130.407 401.071 131.96 401.544 133.891 401.824 134.807 403.357 135.016 405.731 131.313 407.132 129.561 405.797Z" fill="#FFFFFF" transform="matrix(1.0009 0 0 1 -102.546 0)"/><path d="M130.483 434.045C131.782 434.178 133.381 433.989 134.318 435.115 134.975 436.994 132.688 438.96 130.891 438.711 129.347 437.667 130.244 435.533 130.483 434.045Z" fill="#FFFFFF" transform="matrix(1.0009 0 0 1 -102.546 0)"/><path d="M159.403 435.94C160.483 435.935 162.256 435.151 162.811 436.5 162.602 437.926 161.334 439.149 159.913 439.358 158.675 438.65 159.393 437.04 159.403 435.94Z" fill="#FFFFFF" transform="matrix(1.0009 0 0 1 -102.546 0)"/></g></svg>