<svg width="428" height="518" xmlns="http://www.w3.org/2000/svg" xmlns:xlink="http://www.w3.org/1999/xlink" xml:space="preserve" overflow="hidden"><defs><clipPath id="clip0"><rect x="0" y="0" width="432" height="520"/></clipPath></defs><g clip-path="url(#clip0)"><path d="M138.086 46.1275C255.015 50.7699 372.062 49.3844 489.053 50.1104 491.732 130.381 488.465 210.672 486.543 290.917 485.142 349.612 484.365 408.384 487.376 467.043 369.572 470.637 251.687 468.893 133.878 466.378 135.637 462.395 135.141 457.824 133.474 453.903 131.777 449.465 129.103 445.415 127.917 440.788 126.966 437.276 127.61 433.053 130.473 430.594 132.805 428.472 134.604 425.24 133.664 422.025 131.813 415.853 125.335 412.643 123.003 406.753 121.725 403.368 124.348 400.208 127.017 398.47 129.098 397.228 131.639 396.108 132.488 393.628 133.357 390.918 131.69 388.29 130.264 386.102 128.275 382.994 125.519 380.125 124.875 376.367 124.399 373.606 126.408 371.29 128.556 369.884 131.235 368.064 133.244 364.874 132.605 361.54 131.557 355.604 126.797 351.177 125.452 345.338 124.956 343.165 125.381 340.787 126.725 338.998 127.958 337.152 130.177 336.232 131.281 334.279 132.825 331.917 133.357 328.972 132.83 326.211 131.547 319.242 126.352 313.71 125.156 306.721 124.45 302.999 126.23 299.21 129.123 296.894 131.91 294.665 133.27 290.841 132.488 287.354 131.255 281.413 126.736 276.821 125.253 270.972 124.512 268.237 125.217 265.19 127.124 263.089 129.149 260.486 132.748 259.464 134.195 256.365 135.054 254.632 134.436 252.592 133.311 251.14 130.402 247.259 125.877 244.856 123.315 240.689 121.981 238.655 122.063 235.899 123.484 233.93 124.609 231.952 126.899 231.21 128.474 229.687 132.206 226.496 134.471 221.69 134.522 216.782 134.65 209.87 131.368 203.279 126.715 198.32 128.091 192.916 132.048 188.677 133.812 183.436 134.553 181.284 134.425 178.702 132.871 176.928 131.209 174.729 128.239 174.177 126.531 172.03 124.593 170.097 123.494 167.122 124.588 164.478 126.536 159.616 131.286 156.666 133.664 152.075 134.599 150.326 134.788 148.117 133.812 146.348 132.278 143.219 128.52 141.951 127.14 138.71 125.754 135.862 127.037 132.646 128.673 130.202 130.611 127.032 133.531 124.353 134.528 120.682 135.223 118.151 133.362 115.835 131.281 114.654 128.551 113.079 125.795 111.142 124.394 108.222 123.346 106.039 123.781 103.447 124.91 101.387 127.467 96.6112 131.889 93.1294 134.287 88.2518 135.412 86.0124 135.775 83.2872 134.804 80.9251 133.643 77.7757 130.381 75.8993 129.543 72.576 128.356 68.6238 130.514 64.7739 132.554 61.5324 135.468 56.9155 139.114 51.9152 138.086 46.1275M145.771 54.1495C144.768 59.5537 144.094 65.0448 144.104 70.5513 144.206 72.2845 144.14 74.1865 145.111 75.705 145.607 76.523 146.67 76.1447 147.248 75.6436 149.467 73.8695 150.387 71.0575 152.294 69.0124 155.132 65.7964 159.141 63.1275 163.584 63.2707 166.774 63.3678 169.571 65.5203 171.043 68.2659 172.107 70.3826 174.07 72.1005 174.315 74.5802 174.775 77.7143 172.536 80.4701 170.015 82.0193 165.9 84.545 160.69 85.5471 156.006 84.2178 153.067 83.0521 149.82 81.8506 146.64 82.7248 144.544 83.3077 143.368 85.4346 143.066 87.4644 141.895 95.3892 145.397 103.294 143.823 111.203 149.728 107.813 152.213 100.548 158.409 97.5928 162.863 95.7267 167.265 98.6512 170.772 101.156 173.615 103.12 175.251 106.975 173.732 110.262 170.823 116.597 162.725 119.844 156.16 117.768 153.205 116.531 149.984 115.227 146.727 115.902 144.508 116.341 143.27 118.576 143.03 120.667 142.12 127.942 145.172 135.172 143.746 142.427 146.169 139.328 148.542 136.179 151.241 133.316 153.736 130.724 156.743 128.121 160.485 127.804 163.532 127.523 166.227 129.272 168.395 131.22 170.614 132.651 173.068 134.134 174.106 136.706 175.486 139.845 174.095 143.439 171.882 145.811 167.781 150.295 160.864 152.601 155.091 150.203 152.351 148.823 149.319 147.356 146.164 147.918 144.288 148.291 143.224 150.173 142.984 151.937 141.962 159.36 145.413 166.733 143.879 174.121 147.289 170.189 151.042 166.493 155.311 163.491 158.302 161.482 161.871 159.621 165.583 160.327 168.671 160.961 170.777 163.65 172.035 166.37 173.375 169.341 174.51 172.792 173.451 176.023 172.531 178.656 169.734 179.914 167.203 180.481 160.557 181.892 153.67 180.855 147.013 182.158 144.579 182.659 141.808 183.779 140.954 186.346 140.029 189.296 141.266 192.307 142.319 195.037 142.744 197.722 141.977 200.753 143.444 203.213 144.242 204.046 145.336 203.172 146.031 202.65 150.214 198.969 153.394 193.672 158.962 191.919 161.809 190.968 164.54 192.573 166.585 194.414 169.565 195.83 172.648 197.543 174.346 200.503 176.043 203.223 175.946 206.812 174.361 209.553 171.754 214.21 166.293 216.838 161.048 216.654 157.418 216.583 153.925 215.156 151.011 213.045 149.119 211.526 146.123 211.649 144.497 213.5 142.263 215.944 141.491 219.323 140.934 222.493 140.116 227.979 140.193 233.639 141.414 239.058 141.91 240.853 142.417 242.852 143.91 244.095 144.999 244.948 146.374 244.074 147.079 243.159 148.562 241.293 149.656 239.094 150.147 236.758 150.842 233.659 152.79 230.679 155.802 229.431 159.253 227.974 163.221 228.659 166.544 230.147 169.739 231.63 172.705 233.843 174.75 236.732 175.522 240.04 175.215 243.885 172.919 246.549 170.603 249.258 167.086 250.521 163.701 251.293 156.436 252.924 148.935 252.515 141.588 253.471 140.908 260.496 140.407 267.659 141.604 274.654 141.9 276.019 142.57 278.626 144.477 277.89 146.389 276.648 147.836 274.541 148.168 272.271 148.9 268.59 151.661 265.261 155.388 264.403 161.078 263.048 167.132 265.568 171.11 269.648 174.187 272.767 175.905 277.409 174.821 281.75 171.922 284.777 167.674 286.219 163.553 286.403 156.185 286.776 149.017 284.419 141.66 284.491 141.675 292.947 140.213 301.414 141.108 309.855 141.169 311 141.972 313.311 143.449 312.105 146.113 309.661 147.422 306.159 149.007 302.989 150.786 299.578 154.621 297.441 158.466 297.763 164.218 298.178 169.484 301.726 172.643 306.46 174.791 309.64 175.691 314.022 173.743 317.514 172.096 320.301 169.479 322.704 166.252 323.419 161.349 324.565 156.298 323.67 151.333 323.685 149.002 323.701 146.543 323.787 144.451 324.943 142.391 326.063 141.302 328.466 141.363 330.751 141.517 336.754 140.627 342.776 141.379 348.758 141.481 349.863 141.941 350.88 142.59 351.775 144.38 351.473 145.474 349.822 146.313 348.365 146.67 346.043 147.136 343.676 148.45 341.677 151.906 335.93 159.79 332.357 166.109 335.47 169.985 337.336 171.355 341.662 173.022 345.287 174.341 348.365 173.282 352.174 170.424 353.978 165.434 357.246 159.197 357.726 153.384 357.706 151.497 357.828 150.055 356.33 148.245 356.059 146.088 355.477 143.649 356.269 142.36 358.12 139.998 361.418 139.697 365.692 139.809 369.618 140.044 373.008 140.484 376.638 142.498 379.491 143.168 380.555 144.728 380.954 145.699 380.049 149.186 377.191 148.603 372.037 151.609 368.846 154.11 365.835 158.476 365.109 162.101 366.188 169.085 368.126 175.128 374.757 174.714 382.278 172.505 384.803 169.499 386.567 166.232 387.319 158.184 389.236 149.748 387.319 141.731 389.446 141.987 390.162 142.161 390.898 142.248 391.66 142.36 398.035 139.794 404.268 140.596 410.643 140.857 412.74 143.255 412.223 144.528 411.38 145.53 408.547 146.42 405.674 147.673 402.938 149.375 399.288 151.563 395.32 155.48 393.71 158.159 392.585 161.053 393.521 163.563 394.63 167.188 395.637 170.67 398.056 171.866 401.773 173.789 407.683 170.634 414.345 165.562 417.607 161.308 420.44 155.5 420.44 151.113 417.914 149.442 416.927 147.386 416.257 145.469 416.901 143.398 417.607 142.079 419.55 141.23 421.467 139.374 425.91 139.088 430.89 139.63 435.635 140.034 438.176 140.504 441.08 142.57 442.839 144.59 444.127 147.023 442.051 147.616 440.103 149.257 435.343 153.343 431.274 158.45 430.553 165.716 429.428 172.909 433.861 176.585 439.955 177.526 443.861 176.785 448.509 173.589 451.224 170.031 454.276 165.107 454.956 160.577 454.987 153.828 454.884 146.987 453.463 141.026 450.216 140.596 453.345 140.366 456.848 142.227 459.593 143.904 462.078 147.008 463.034 149.851 463.341 155.127 463.862 160.393 462.988 165.629 462.421 170.005 461.96 174.489 461.296 178.845 462.267 178.661 326.211 182.828 190.175 181.095 54.1137 169.33 53.4286 157.54 53.7865 145.771 54.1495M192.282 54.1751C190.41 56.1895 189.239 58.751 188.713 61.4352 187.711 66.4713 188.166 71.6403 187.588 76.7224 187.537 81.9988 187.731 87.2803 187.772 92.5567 189.316 206.746 183.82 320.94 186.836 435.118 188.391 442.082 186.734 449.291 188.043 456.285 188.442 458.249 189.199 460.294 190.819 461.582 192.353 462.804 194.434 463.044 196.326 462.794 199.025 462.364 201.766 462.543 204.491 462.441 295.867 460.774 387.273 465.749 478.628 462.134 481.323 326.932 482.539 191.699 482.902 56.4656 386.123 50.6114 289.148 55.4072 192.282 54.1751M133.152 67.0388C132.932 67.9182 131.9 69.7435 133.382 69.9736 134.369 69.8611 135.54 69.222 135.693 68.1483 135.371 67.1053 134.011 67.2331 133.152 67.0388M158.696 69.0175C158.803 70.5002 158.563 73.0003 160.526 73.3071 162.377 72.9339 164.09 70.9808 163.788 69.0533 162.51 67.5143 160.291 68.6749 158.696 69.0175M131.593 106.315C132.927 107.783 135.826 106.98 136.701 105.323 136.68 103.621 134.614 103.217 133.372 102.614 132.58 103.708 131.342 104.827 131.593 106.315M159.105 105.722C160.649 106.832 163.169 105.922 164.023 104.291 163.159 103.191 161.814 102.793 160.531 102.419 159.902 103.386 158.609 104.444 159.105 105.722M131.199 135.064C131.987 136.716 134.972 136.66 135.76 135.029 135.714 133.597 134.374 132.794 133.444 131.925 132.534 132.81 131.194 133.643 131.199 135.064M157.09 136.522C158.87 138.117 161.799 137.82 163.686 136.557 163.261 135.126 161.825 134.548 160.623 133.919 159.335 134.62 157.873 135.187 157.09 136.522M131.762 167.28C133.203 168.395 135.75 167.689 136.66 166.16 136.839 164.412 134.599 163.967 133.362 163.364 132.605 164.483 131.051 165.808 131.762 167.28M158.726 167.536C158.844 168.809 158.491 170.854 160.061 171.345 161.518 171.273 162.556 169.98 163.18 168.783 163.568 168.103 163.584 166.891 162.602 166.748 161.257 166.523 159.974 167.142 158.726 167.536M131.194 197.89C131.956 199.562 134.942 199.501 135.755 197.895 135.724 196.454 134.39 195.646 133.444 194.777 132.523 195.651 131.22 196.479 131.194 197.89M157.136 198.719C156.855 200.012 157.147 201.975 158.491 202.676 160.322 202.804 162.085 200.697 161.636 198.923 160.557 197.573 158.522 198.335 157.136 198.719M133.597 232.693C132.39 234.079 131.087 235.495 130.55 237.3 130.248 238.189 130.432 239.375 131.358 239.83 133.234 240.787 136.067 239.478 136.153 237.254 136.179 235.387 134.799 233.956 133.597 232.693M158.818 236.604C157.919 238.061 156.763 239.559 156.763 241.354 157.3 242.566 158.834 241.891 159.754 241.579 161.953 240.562 164.248 239.268 165.567 237.167 166.165 236.548 165.373 235.72 164.703 235.771 162.704 235.582 160.751 236.19 158.818 236.604M130.872 269.935C130.857 272.476 135.269 272.69 135.888 270.405 136.077 268.6 134.512 267.322 133.403 266.136 132.36 267.225 131.051 268.334 130.872 269.935M157.106 273.539C159.008 274.28 161.477 273.273 162.448 271.479 161.554 270.195 159.969 269.945 158.553 269.643 157.878 270.768 156.18 272.148 157.106 273.539M129.619 308.889C130.734 310.382 132.733 308.879 133.336 307.626 134.522 305.504 133.111 303.132 131.465 301.751 130.448 303.945 128.857 306.389 129.619 308.889M156.589 305.622C155.424 307.565 153.813 309.518 153.798 311.895 154.048 313.081 155.551 312.718 156.364 312.447 159.018 311.409 161.559 309.727 163.169 307.34 163.727 306.634 163.599 305.407 162.581 305.228 160.598 304.753 158.558 305.289 156.589 305.622M158.578 340.864C157.857 341.984 156.318 343.252 157.008 344.699 158.757 345.512 161.216 344.643 162.229 343.027 162.167 341.294 159.851 341.268 158.578 340.864M129.098 344.607C129.967 346.141 132.738 346.13 133.607 344.612 133.756 343.139 132.273 342.296 131.353 341.411 130.417 342.296 129.067 343.15 129.098 344.607M156.313 374.885C156.901 376.695 159.902 376.306 160.725 374.803 160.173 373.883 159.381 373.151 158.522 372.533 157.694 373.213 156.702 373.826 156.313 374.885M128.755 376.828C128.863 379.312 133.147 379.501 133.791 377.252 133.98 375.442 132.421 374.154 131.301 372.972 130.238 374.077 128.934 375.202 128.755 376.828M156.518 399.61C155.464 401.405 154.202 403.281 154.263 405.454 154.345 406.778 155.792 407.376 156.957 407.223 159.217 407.013 161.487 405.975 162.95 404.206 163.701 403.373 163.655 401.967 162.679 401.328 160.894 400.055 158.614 399.912 156.518 399.61M128.505 407.32C130.258 408.69 133.98 407.284 133.791 404.902 132.912 403.383 131 403.128 129.507 402.57 128.694 403.941 127.518 405.761 128.505 407.32M129.445 435.701C129.195 437.194 128.305 439.336 129.86 440.385 131.608 440.594 133.51 438.943 133.459 437.158 132.81 435.599 130.821 435.834 129.445 435.701M158.496 437.603C158.461 438.687 157.724 440.364 158.992 441.003 160.449 440.834 162.316 439.209 161.656 437.654 160.664 437.123 159.534 437.511 158.496 437.603Z" transform="matrix(1 0 0 1.00006 -96.5781 0)"/><path d="M393.679 183.559C399.937 182.802 406.303 182.562 412.561 183.416 419.545 184.367 426.641 186.985 431.499 192.282 436.253 197.425 437.915 204.782 437.302 211.618 436.494 218.669 432.547 224.886 428.078 230.213 422.919 236.18 417.106 241.6 410.766 246.298 417.597 245.316 424.606 245.148 431.452 246.124 440.957 247.597 450.242 252.536 455.672 260.645 459.798 266.795 461.076 274.429 460.641 281.714 460.273 290.36 457.599 298.934 452.696 306.082 448.089 312.933 441.668 318.337 434.781 322.78 423.211 330.24 410.209 335.179 396.997 338.834 391.394 340.327 385.734 341.928 379.89 341.989 377.702 341.994 375.365 341.59 373.647 340.143 371.48 338.262 370.421 335.184 370.979 332.372 371.398 330.429 372.993 328.987 374.726 328.154 378.085 326.497 381.894 326.329 385.519 325.664 400.397 323.148 415.168 318.562 427.93 310.341 434.091 306.373 439.541 300.969 442.532 294.19 445.196 288.162 445.993 281.341 444.971 274.843 444.194 269.97 441.387 265.364 437.056 262.879 431.238 259.499 424.274 259.07 417.704 259.208 406.574 259.295 395.663 261.775 384.87 264.239 379.179 266.969 373.831 270.471 367.926 272.767 365.513 273.575 362.88 274.265 360.344 273.698 354.418 271.755 352.889 262.368 358.36 259.003 365.585 255.067 373.755 253.333 381.132 249.724 390.305 245.301 399.16 240.117 407.213 233.864 412.239 229.886 417.234 225.453 420.02 219.553 422.163 214.982 422.725 209.394 420.578 204.726 418.727 200.989 414.401 199.659 410.623 198.826 398.465 196.576 385.647 198.775 374.701 204.445 368.616 207.528 362.747 211.608 359.117 217.518 356.351 221.506 350.215 221.726 346.514 218.986 343.354 216.409 343.38 211.383 345.834 208.32 349.674 203.136 354.883 199.112 360.283 195.656 370.462 189.485 381.823 185.032 393.679 183.559Z" transform="matrix(1 0 0 1.00006 -96.5781 0)"/><path d="M252.05 189.715C260.747 188.667 270.032 188.672 278.033 192.706 286.377 196.842 292.712 204.874 294.619 214.011 296.511 223.004 295.033 232.453 291.618 240.899 288.105 249.31 283.483 257.27 277.788 264.392 265.624 280.237 251.452 294.348 237.944 309.012 234.692 312.744 230.934 316.031 227.938 319.968 232.882 320.643 237.872 319.779 242.786 319.206 255.092 317.315 267.327 314.963 279.633 313.03 291.25 311.415 302.927 310.228 314.518 308.398 316.921 308.188 318.751 306.47 320.894 305.545 323.327 304.41 325.93 302.697 328.732 303.485 331.119 304.078 332.489 306.455 332.95 308.72 333.532 311.619 333.814 315.024 331.769 317.448 329.125 320.546 325.045 322.064 321.113 322.683 307.427 324.202 293.832 326.41 280.186 328.256 260.783 330.659 241.533 335.041 221.89 334.918 217.196 335.036 212.308 332.224 210.621 327.735 209.496 324.416 209.507 320.393 211.669 317.489 213.771 314.518 216.613 312.207 219.113 309.594 232.335 296.547 244.616 282.594 256.606 268.416 263.002 260.706 269.224 252.802 274.352 244.176 278.836 236.589 281.234 227.56 280.027 218.75 279.388 213.975 276.791 209.445 272.726 206.781 267.634 203.243 261.12 202.829 255.133 203.458 246.84 204.169 239.595 208.663 232.432 212.503 225.903 215.749 221.118 221.568 214.676 224.947 212.196 226.312 208.888 226.098 206.684 224.293 204.568 222.473 204.077 219.415 204.435 216.777 204.925 213.188 207.482 210.289 210.371 208.3 216.066 204.649 222.222 201.812 228.086 198.453 235.592 194.429 243.496 190.712 252.05 189.715Z" transform="matrix(1 0 0 1.00006 -96.5781 0)"/><path d="M145.771 54.1495C157.54 53.7865 169.33 53.4286 181.095 54.1137 182.828 190.175 178.661 326.211 178.845 462.267 174.489 461.296 170.005 461.96 165.629 462.421 160.393 462.988 155.127 463.862 149.851 463.341 147.008 463.034 143.904 462.078 142.227 459.593 140.366 456.848 140.596 453.345 141.026 450.216 146.987 453.463 153.828 454.884 160.577 454.987 165.107 454.956 170.031 454.276 173.589 451.224 176.785 448.509 177.526 443.861 176.585 439.955 172.909 433.861 165.716 429.428 158.45 430.553 153.343 431.274 149.257 435.343 147.616 440.103 147.023 442.051 144.59 444.127 142.57 442.839 140.504 441.08 140.034 438.176 139.63 435.635 139.088 430.89 139.374 425.91 141.23 421.467 142.079 419.55 143.398 417.607 145.469 416.901 147.386 416.257 149.442 416.927 151.113 417.914 155.5 420.44 161.308 420.44 165.562 417.607 170.634 414.345 173.789 407.683 171.866 401.773 170.67 398.056 167.188 395.637 163.563 394.63 161.053 393.521 158.159 392.585 155.48 393.71 151.563 395.32 149.375 399.288 147.673 402.938 146.42 405.674 145.53 408.547 144.528 411.38 143.255 412.223 140.857 412.74 140.596 410.643 139.794 404.268 142.36 398.035 142.248 391.66 142.161 390.898 141.987 390.162 141.731 389.446 149.748 387.319 158.184 389.236 166.232 387.319 169.499 386.567 172.505 384.803 174.714 382.278 175.128 374.757 169.085 368.126 162.101 366.188 158.476 365.109 154.11 365.835 151.609 368.846 148.603 372.037 149.186 377.191 145.699 380.049 144.728 380.954 143.168 380.555 142.498 379.491 140.484 376.638 140.044 373.008 139.809 369.618 139.697 365.692 139.998 361.418 142.36 358.12 143.649 356.269 146.088 355.477 148.245 356.059 150.055 356.33 151.497 357.828 153.384 357.706 159.197 357.726 165.434 357.246 170.424 353.978 173.282 352.174 174.341 348.365 173.022 345.287 171.355 341.662 169.985 337.336 166.109 335.47 159.79 332.357 151.906 335.93 148.45 341.677 147.136 343.676 146.67 346.043 146.313 348.365 145.474 349.822 144.38 351.473 142.59 351.775 141.941 350.88 141.481 349.863 141.379 348.758 140.627 342.776 141.517 336.754 141.363 330.751 141.302 328.466 142.391 326.063 144.451 324.943 146.543 323.787 149.002 323.701 151.333 323.685 156.298 323.67 161.349 324.565 166.252 323.419 169.479 322.704 172.096 320.301 173.743 317.514 175.691 314.022 174.791 309.64 172.643 306.46 169.484 301.726 164.218 298.178 158.466 297.763 154.621 297.441 150.786 299.578 149.007 302.989 147.422 306.159 146.113 309.661 143.449 312.105 141.972 313.311 141.169 311 141.108 309.855 140.213 301.414 141.675 292.947 141.66 284.491 149.017 284.419 156.185 286.776 163.553 286.403 167.674 286.219 171.922 284.777 174.821 281.75 175.905 277.409 174.187 272.767 171.11 269.648 167.132 265.568 161.078 263.048 155.388 264.403 151.661 265.261 148.9 268.59 148.168 272.271 147.836 274.541 146.389 276.648 144.477 277.89 142.57 278.626 141.9 276.019 141.604 274.654 140.407 267.659 140.908 260.496 141.588 253.471 148.935 252.515 156.436 252.924 163.701 251.293 167.086 250.521 170.603 249.258 172.919 246.549 175.215 243.885 175.522 240.04 174.75 236.732 172.705 233.843 169.739 231.63 166.544 230.147 163.221 228.659 159.253 227.974 155.802 229.431 152.79 230.679 150.842 233.659 150.147 236.758 149.656 239.094 148.562 241.293 147.079 243.159 146.374 244.074 144.999 244.948 143.91 244.095 142.417 242.852 141.91 240.853 141.414 239.058 140.193 233.639 140.116 227.979 140.934 222.493 141.491 219.323 142.263 215.944 144.497 213.5 146.123 211.649 149.119 211.526 151.011 213.045 153.925 215.156 157.418 216.583 161.048 216.654 166.293 216.838 171.754 214.21 174.361 209.553 175.946 206.812 176.043 203.223 174.346 200.503 172.648 197.543 169.565 195.83 166.585 194.414 164.54 192.573 161.809 190.968 158.962 191.919 153.394 193.672 150.214 198.969 146.031 202.65 145.336 203.172 144.242 204.046 143.444 203.213 141.977 200.753 142.744 197.722 142.319 195.037 141.266 192.307 140.029 189.296 140.954 186.346 141.808 183.779 144.579 182.659 147.013 182.158 153.67 180.855 160.557 181.892 167.203 180.481 169.734 179.914 172.531 178.656 173.451 176.023 174.51 172.792 173.375 169.341 172.035 166.37 170.777 163.65 168.671 160.961 165.583 160.327 161.871 159.621 158.302 161.482 155.311 163.491 151.042 166.493 147.289 170.189 143.879 174.121 145.413 166.733 141.962 159.36 142.984 151.937 143.224 150.173 144.288 148.291 146.164 147.918 149.319 147.356 152.351 148.823 155.091 150.203 160.864 152.601 167.781 150.295 171.882 145.811 174.095 143.439 175.486 139.845 174.106 136.706 173.068 134.134 170.614 132.651 168.395 131.22 166.227 129.272 163.532 127.523 160.485 127.804 156.743 128.121 153.736 130.724 151.241 133.316 148.542 136.179 146.169 139.328 143.746 142.427 145.172 135.172 142.12 127.942 143.03 120.667 143.27 118.576 144.508 116.341 146.727 115.902 149.984 115.227 153.205 116.531 156.16 117.768 162.725 119.844 170.823 116.597 173.732 110.262 175.251 106.975 173.615 103.12 170.772 101.156 167.265 98.6512 162.863 95.7267 158.409 97.5928 152.213 100.548 149.728 107.813 143.823 111.203 145.397 103.294 141.895 95.3892 143.066 87.4644 143.368 85.4346 144.544 83.3077 146.64 82.7248 149.82 81.8506 153.067 83.0521 156.006 84.2178 160.69 85.5471 165.9 84.545 170.015 82.0193 172.536 80.4701 174.775 77.7143 174.315 74.5802 174.07 72.1005 172.107 70.3826 171.043 68.2659 169.571 65.5203 166.774 63.3678 163.584 63.2707 159.141 63.1275 155.132 65.7964 152.294 69.0124 150.387 71.0575 149.467 73.8695 147.248 75.6436 146.67 76.1447 145.607 76.523 145.111 75.705 144.14 74.1865 144.206 72.2845 144.104 70.5513 144.094 65.0448 144.768 59.5537 145.771 54.1495Z" fill="#FFFFFF" transform="matrix(1 0 0 1.00006 -96.5781 0)"/><path d="M192.282 54.1751C289.148 55.4072 386.123 50.6114 482.902 56.4656 482.539 191.699 481.323 326.932 478.628 462.134 387.273 465.749 295.867 460.774 204.491 462.441 201.766 462.543 199.025 462.364 196.326 462.794 194.434 463.044 192.353 462.804 190.819 461.582 189.199 460.294 188.442 458.249 188.043 456.285 186.734 449.291 188.391 442.082 186.836 435.118 183.82 320.94 189.316 206.746 187.772 92.5567 187.731 87.2803 187.537 81.9988 187.588 76.7224 188.166 71.6403 187.711 66.4713 188.713 61.4352 189.239 58.751 190.41 56.1895 192.282 54.1751M393.679 183.559C381.823 185.032 370.462 189.485 360.283 195.656 354.883 199.112 349.674 203.136 345.834 208.32 343.38 211.383 343.354 216.409 346.514 218.986 350.215 221.726 356.351 221.506 359.117 217.518 362.747 211.608 368.616 207.528 374.701 204.445 385.647 198.775 398.465 196.576 410.623 198.826 414.401 199.659 418.727 200.989 420.578 204.726 422.725 209.394 422.163 214.982 420.02 219.553 417.234 225.453 412.239 229.886 407.213 233.864 399.16 240.117 390.305 245.301 381.132 249.724 373.755 253.333 365.585 255.067 358.36 259.003 352.889 262.368 354.418 271.755 360.344 273.698 362.88 274.265 365.513 273.575 367.926 272.767 373.831 270.471 379.179 266.969 384.87 264.239 395.663 261.775 406.574 259.295 417.704 259.208 424.274 259.07 431.238 259.499 437.056 262.879 441.387 265.364 444.194 269.97 444.971 274.843 445.993 281.341 445.196 288.162 442.532 294.19 439.541 300.969 434.091 306.373 427.93 310.341 415.168 318.562 400.397 323.148 385.519 325.664 381.894 326.329 378.085 326.497 374.726 328.154 372.993 328.987 371.398 330.429 370.979 332.372 370.421 335.184 371.48 338.262 373.647 340.143 375.365 341.59 377.702 341.994 379.89 341.989 385.734 341.928 391.394 340.327 396.997 338.834 410.209 335.179 423.211 330.24 434.781 322.78 441.668 318.337 448.089 312.933 452.696 306.082 457.599 298.934 460.273 290.36 460.641 281.714 461.076 274.429 459.798 266.795 455.672 260.645 450.242 252.536 440.957 247.597 431.452 246.124 424.606 245.148 417.597 245.316 410.766 246.298 417.106 241.6 422.919 236.18 428.078 230.213 432.547 224.886 436.494 218.669 437.302 211.618 437.915 204.782 436.253 197.425 431.499 192.282 426.641 186.985 419.545 184.367 412.561 183.416 406.303 182.562 399.937 182.802 393.679 183.559M252.05 189.715C243.496 190.712 235.592 194.429 228.086 198.453 222.222 201.812 216.066 204.649 210.371 208.3 207.482 210.289 204.925 213.188 204.435 216.777 204.077 219.415 204.568 222.473 206.684 224.293 208.888 226.098 212.196 226.312 214.676 224.947 221.118 221.568 225.903 215.749 232.432 212.503 239.595 208.663 246.84 204.169 255.133 203.458 261.12 202.829 267.634 203.243 272.726 206.781 276.791 209.445 279.388 213.975 280.027 218.75 281.234 227.56 278.836 236.589 274.352 244.176 269.224 252.802 263.002 260.706 256.606 268.416 244.616 282.594 232.335 296.547 219.113 309.594 216.613 312.207 213.771 314.518 211.669 317.489 209.507 320.393 209.496 324.416 210.621 327.735 212.308 332.224 217.196 335.036 221.89 334.918 241.533 335.041 260.783 330.659 280.186 328.256 293.832 326.41 307.427 324.202 321.113 322.683 325.045 322.064 329.125 320.546 331.769 317.448 333.814 315.024 333.532 311.619 332.95 308.72 332.489 306.455 331.119 304.078 328.732 303.485 325.93 302.697 323.327 304.41 320.894 305.545 318.751 306.47 316.921 308.188 314.518 308.398 302.927 310.228 291.25 311.415 279.633 313.03 267.327 314.963 255.092 317.315 242.786 319.206 237.872 319.779 232.882 320.643 227.938 319.968 230.934 316.031 234.692 312.744 237.944 309.012 251.452 294.348 265.624 280.237 277.788 264.392 283.483 257.27 288.105 249.31 291.618 240.899 295.033 232.453 296.511 223.004 294.619 214.011 292.712 204.874 286.377 196.842 278.033 192.706 270.032 188.672 260.747 188.667 252.05 189.715Z" fill="#FFFFFF" transform="matrix(1 0 0 1.00006 -96.5781 0)"/><path d="M133.152 67.0388C134.011 67.2331 135.371 67.1053 135.693 68.1483 135.54 69.222 134.369 69.8611 133.382 69.9736 131.9 69.7435 132.932 67.9182 133.152 67.0388Z" fill="#FFFFFF" transform="matrix(1 0 0 1.00006 -96.5781 0)"/><path d="M158.696 69.0175C160.291 68.6749 162.51 67.5143 163.788 69.0533 164.09 70.9808 162.377 72.9339 160.526 73.3071 158.563 73.0003 158.803 70.5002 158.696 69.0175Z" fill="#FFFFFF" transform="matrix(1 0 0 1.00006 -96.5781 0)"/><path d="M131.593 106.315C131.342 104.827 132.58 103.708 133.372 102.614 134.614 103.217 136.68 103.621 136.701 105.323 135.826 106.98 132.927 107.783 131.593 106.315Z" fill="#FFFFFF" transform="matrix(1 0 0 1.00006 -96.5781 0)"/><path d="M159.105 105.722C158.609 104.444 159.902 103.386 160.531 102.419 161.814 102.793 163.159 103.191 164.023 104.291 163.169 105.922 160.649 106.832 159.105 105.722Z" fill="#FFFFFF" transform="matrix(1 0 0 1.00006 -96.5781 0)"/><path d="M131.199 135.064C131.194 133.643 132.534 132.81 133.444 131.925 134.374 132.794 135.714 133.597 135.76 135.029 134.972 136.66 131.987 136.716 131.199 135.064Z" fill="#FFFFFF" transform="matrix(1 0 0 1.00006 -96.5781 0)"/><path d="M157.09 136.522C157.873 135.187 159.335 134.62 160.623 133.919 161.825 134.548 163.261 135.126 163.686 136.557 161.799 137.82 158.87 138.117 157.09 136.522Z" fill="#FFFFFF" transform="matrix(1 0 0 1.00006 -96.5781 0)"/><path d="M131.762 167.28C131.051 165.808 132.605 164.483 133.362 163.364 134.599 163.967 136.839 164.412 136.66 166.16 135.75 167.689 133.203 168.395 131.762 167.28Z" fill="#FFFFFF" transform="matrix(1 0 0 1.00006 -96.5781 0)"/><path d="M158.726 167.536C159.974 167.142 161.257 166.523 162.602 166.748 163.584 166.891 163.568 168.103 163.18 168.783 162.556 169.98 161.518 171.273 160.061 171.345 158.491 170.854 158.844 168.809 158.726 167.536Z" fill="#FFFFFF" transform="matrix(1 0 0 1.00006 -96.5781 0)"/><path d="M131.194 197.89C131.22 196.479 132.523 195.651 133.444 194.777 134.39 195.646 135.724 196.454 135.755 197.895 134.942 199.501 131.956 199.562 131.194 197.89Z" fill="#FFFFFF" transform="matrix(1 0 0 1.00006 -96.5781 0)"/><path d="M157.136 198.719C158.522 198.335 160.557 197.573 161.636 198.923 162.085 200.697 160.322 202.804 158.491 202.676 157.147 201.975 156.855 200.012 157.136 198.719Z" fill="#FFFFFF" transform="matrix(1 0 0 1.00006 -96.5781 0)"/><path d="M133.597 232.693C134.799 233.956 136.179 235.387 136.153 237.254 136.067 239.478 133.234 240.787 131.358 239.83 130.432 239.375 130.248 238.189 130.55 237.3 131.087 235.495 132.39 234.079 133.597 232.693Z" fill="#FFFFFF" transform="matrix(1 0 0 1.00006 -96.5781 0)"/><path d="M158.818 236.604C160.751 236.19 162.704 235.582 164.703 235.771 165.373 235.72 166.165 236.548 165.567 237.167 164.248 239.268 161.953 240.562 159.754 241.579 158.834 241.891 157.3 242.566 156.763 241.354 156.763 239.559 157.919 238.061 158.818 236.604Z" fill="#FFFFFF" transform="matrix(1 0 0 1.00006 -96.5781 0)"/><path d="M130.872 269.935C131.051 268.334 132.36 267.225 133.403 266.136 134.512 267.322 136.077 268.6 135.888 270.405 135.269 272.69 130.857 272.476 130.872 269.935Z" fill="#FFFFFF" transform="matrix(1 0 0 1.00006 -96.5781 0)"/><path d="M157.106 273.539C156.18 272.148 157.878 270.768 158.553 269.643 159.969 269.945 161.554 270.195 162.448 271.479 161.477 273.273 159.008 274.28 157.106 273.539Z" fill="#FFFFFF" transform="matrix(1 0 0 1.00006 -96.5781 0)"/><path d="M129.619 308.889C128.857 306.389 130.448 303.945 131.465 301.751 133.111 303.132 134.522 305.504 133.336 307.626 132.733 308.879 130.734 310.382 129.619 308.889Z" fill="#FFFFFF" transform="matrix(1 0 0 1.00006 -96.5781 0)"/><path d="M156.589 305.622C158.558 305.289 160.598 304.753 162.581 305.228 163.599 305.407 163.727 306.634 163.169 307.34 161.559 309.727 159.018 311.409 156.364 312.447 155.551 312.718 154.048 313.081 153.798 311.895 153.813 309.518 155.424 307.565 156.589 305.622Z" fill="#FFFFFF" transform="matrix(1 0 0 1.00006 -96.5781 0)"/><path d="M158.578 340.864C159.851 341.268 162.167 341.294 162.229 343.027 161.216 344.643 158.757 345.512 157.008 344.699 156.318 343.252 157.857 341.984 158.578 340.864Z" fill="#FFFFFF" transform="matrix(1 0 0 1.00006 -96.5781 0)"/><path d="M129.098 344.607C129.067 343.15 130.417 342.296 131.353 341.411 132.273 342.296 133.756 343.139 133.607 344.612 132.738 346.13 129.967 346.141 129.098 344.607Z" fill="#FFFFFF" transform="matrix(1 0 0 1.00006 -96.5781 0)"/><path d="M156.313 374.885C156.702 373.826 157.694 373.213 158.522 372.533 159.381 373.151 160.173 373.883 160.725 374.803 159.902 376.306 156.901 376.695 156.313 374.885Z" fill="#FFFFFF" transform="matrix(1 0 0 1.00006 -96.5781 0)"/><path d="M128.755 376.828C128.934 375.202 130.238 374.077 131.301 372.972 132.421 374.154 133.98 375.442 133.791 377.252 133.147 379.501 128.863 379.312 128.755 376.828Z" fill="#FFFFFF" transform="matrix(1 0 0 1.00006 -96.5781 0)"/><path d="M156.518 399.61C158.614 399.912 160.894 400.055 162.679 401.328 163.655 401.967 163.701 403.373 162.95 404.206 161.487 405.975 159.217 407.013 156.957 407.223 155.792 407.376 154.345 406.778 154.263 405.454 154.202 403.281 155.464 401.405 156.518 399.61Z" fill="#FFFFFF" transform="matrix(1 0 0 1.00006 -96.5781 0)"/><path d="M128.505 407.32C127.518 405.761 128.694 403.941 129.507 402.57 131 403.128 132.912 403.383 133.791 404.902 133.98 407.284 130.258 408.69 128.505 407.32Z" fill="#FFFFFF" transform="matrix(1 0 0 1.00006 -96.5781 0)"/><path d="M129.445 435.701C130.821 435.834 132.81 435.599 133.459 437.158 133.51 438.943 131.608 440.594 129.86 440.385 128.305 439.336 129.195 437.194 129.445 435.701Z" fill="#FFFFFF" transform="matrix(1 0 0 1.00006 -96.5781 0)"/><path d="M158.496 437.603C159.534 437.511 160.664 437.123 161.656 437.654 162.316 439.209 160.449 440.834 158.992 441.003 157.724 440.364 158.461 438.687 158.496 437.603Z" fill="#FFFFFF" transform="matrix(1 0 0 1.00006 -96.5781 0)"/></g></svg>