<svg width="428" height="518" xmlns="http://www.w3.org/2000/svg" xmlns:xlink="http://www.w3.org/1999/xlink" xml:space="preserve" overflow="hidden"><defs><clipPath id="clip0"><rect x="0" y="0" width="429" height="518"/></clipPath></defs><g clip-path="url(#clip0)"><path d="M138.11 44.7852C255.075 49.3886 372.158 48.0792 489.185 48.7287 491.983 131.036 488.418 213.359 486.556 295.641 485.226 352.241 484.633 408.903 487.523 465.463 369.673 469.017 251.746 467.314 133.895 464.777 135.409 461.258 135.292 457.238 133.987 453.673 132.294 448.599 129.108 444.119 127.85 438.891 127.016 435.495 127.686 431.47 130.417 429.086 132.719 426.989 134.571 423.843 133.716 420.636 132.56 416.386 129.011 413.465 126.274 410.223 124.356 407.988 122.147 405.251 122.822 402.095 123.691 399.016 126.515 397.057 129.2 395.646 131.287 394.51 133.159 392.306 132.693 389.779 131.962 386.076 129.19 383.288 127.246 380.183 125.747 377.877 124.147 375.038 125.149 372.225 126.208 369.187 129.686 368.205 131.328 365.601 132.964 363.386 133.026 360.394 132.095 357.883 130.356 352.789 126.371 348.651 125.374 343.28 124.765 340.242 126.351 337.188 128.76 335.403 132.095 333.056 133.635 328.647 132.842 324.693 131.614 318.126 126.98 312.847 125.389 306.402 124.658 303.594 125.026 300.459 126.714 298.055 127.932 296.065 130.146 294.95 131.297 292.915 132.581 290.833 133.01 288.265 132.499 285.877 131.225 279.58 126.146 274.793 125.067 268.44 124.397 264.691 126.796 261.218 129.783 259.218 131.911 257.761 134.473 256.006 134.617 253.168 134.591 250.62 132.627 248.702 130.934 247.035 128.111 244.263 124.581 241.966 122.847 238.289 121.472 235.332 123.165 231.767 125.819 230.192 130.387 227.435 133.762 222.658 134.381 217.313 135.312 209.738 131.793 202.285 126.709 196.848 128.121 191.601 131.855 187.417 133.706 182.358 134.545 180.128 134.535 177.387 132.893 175.52 131.236 173.315 128.259 172.768 126.545 170.62 124.617 168.691 123.507 165.735 124.586 163.096 126.53 158.191 131.338 155.239 133.706 150.6 134.617 148.866 134.785 146.688 133.819 144.938 132.34 141.91 128.781 140.652 127.302 137.624 126.3 135.793 126.371 133.553 127.169 131.665 128.765 127.742 132.018 124.827 133.906 121.073 134.688 119.528 135.031 117.584 134.115 116.014 132.693 113.451 129.645 112.664 127.589 110.761 125.241 108.858 123.216 105.923 123.927 102.751 124.842 98.7106 127.947 95.7236 130.417 92.5729 133.036 89.325 136.038 85.4889 135.246 81.039 134.606 76.8602 130.105 74.7375 129.394 70.5894 128.52 66.3493 131.098 62.5285 133.236 59.1118 135.992 54.8665 139.041 50.1046 138.11 44.7852M192.312 52.8155C190.9 54.3908 189.805 56.2373 189.207 58.2679 187.55 64.0885 188.25 70.2263 187.585 76.1799 189.795 195.212 183.76 314.243 186.849 433.265 188.389 440.288 186.803 447.54 188.051 454.599 188.501 457.028 189.631 459.657 192.04 460.711 194.751 461.944 197.687 460.757 200.505 460.91 293.257 459.054 386.045 464.204 478.776 460.542 481.482 325.414 482.689 190.261 483.052 55.112 386.229 49.2556 289.217 54.0481 192.312 52.8155M144.309 71.909C144.519 73.0138 144.78 75.0393 146.329 74.7887 149.005 73.5509 149.961 70.4871 151.741 68.344 154.528 64.8915 158.569 61.9914 163.152 61.9045 166.446 61.8278 169.448 63.9504 170.988 66.7738 172.149 69.0396 174.282 70.9321 174.379 73.6327 174.609 76.9113 172.052 79.5557 169.382 81.0441 165.357 83.2486 160.426 84.1334 155.971 82.824 153.096 81.6783 149.951 80.5377 146.836 81.2998 144.606 81.8267 143.348 84.0567 143.056 86.1845 141.956 94.092 145.393 101.959 143.839 109.846 148.749 106.874 151.398 101.534 155.7 97.8923 157.735 96.143 160.533 95.1661 163.208 95.8156 165.929 96.3936 168.236 98.0457 170.507 99.5699 172.717 101.115 174.512 103.631 174.318 106.439 174.118 109.523 172.026 112.132 169.617 113.896 165.536 116.873 159.868 118.05 155.137 115.968 152.421 114.802 149.332 113.82 146.381 114.613 144.345 115.196 143.296 117.308 143.041 119.267 142.11 126.545 145.245 133.803 143.711 141.051 146.739 137.302 149.562 133.338 153.142 130.09 155.219 128.243 157.715 126.602 160.559 126.407 163.034 126.223 165.413 127.323 167.269 128.888 169.341 130.745 172.18 131.778 173.607 134.305 175.417 137.056 174.742 140.729 172.84 143.245 168.968 148.457 161.561 151.27 155.352 148.897 152.554 147.531 149.536 145.977 146.329 146.473 144.406 146.785 143.25 148.652 143.005 150.457 141.961 157.894 145.399 165.275 143.91 172.686 147.429 168.64 151.291 164.84 155.73 161.807 158.503 160.012 161.74 158.385 165.142 158.835 168.047 159.214 170.251 161.505 171.566 163.986 173.111 166.988 174.364 170.446 173.699 173.862 173.131 176.676 170.39 178.292 167.791 178.906 160.753 180.619 153.373 179.269 146.324 180.89 144.135 181.432 141.757 182.578 140.984 184.87 140.013 187.841 141.296 190.885 142.34 193.647 142.698 196.219 142.11 198.997 143.24 201.436 143.798 202.7 145.286 201.907 145.997 201.247 149.163 198.449 151.664 194.941 155.106 192.45 157.224 190.89 159.966 189.688 162.62 190.496 164.61 190.977 165.848 192.787 167.699 193.544 170.768 194.951 173.724 197.15 175.018 200.378 176.205 203.247 175.54 206.613 173.775 209.098 170.86 213.277 165.607 215.512 160.574 215.18 157.132 215.001 153.848 213.625 151.076 211.625 149.378 210.28 146.749 210.116 145.056 211.559 142.995 213.282 142.12 215.968 141.455 218.479 140.115 224.335 140.1 230.473 141.158 236.376 141.644 238.508 142.11 240.851 143.711 242.462 144.514 243.301 145.838 243.009 146.575 242.237 148.068 240.749 149.045 238.795 149.756 236.831 150.334 234.412 151.066 231.905 152.841 230.074 155.168 227.507 158.912 226.755 162.216 227.358 167.126 228.217 171.586 231.133 174.64 235.036 175.729 238.57 175.182 242.907 172.461 245.608 170.195 247.915 167.034 249.04 163.95 249.771 156.61 251.449 149.025 251.04 141.598 251.996 140.959 257.807 140.703 263.678 141.107 269.514 141.343 271.642 141.465 273.923 142.601 275.806 143.102 276.772 144.381 276.726 145.092 276.031 146.514 274.742 147.803 273.105 148.104 271.156 148.631 268.481 150.027 265.883 152.324 264.328 154.887 262.548 158.211 262.231 161.219 262.794 165.817 263.684 170.103 266.343 172.788 270.2 174.809 273.085 175.699 276.818 174.834 280.266 171.955 283.268 167.75 284.716 163.653 284.905 156.257 285.304 149.061 282.92 141.675 283.002 141.665 291.298 140.314 299.595 141.051 307.886 141.21 308.98 141.516 311.512 143.174 310.791 146.227 308.361 147.424 304.423 149.25 301.114 151.096 297.871 154.861 295.953 158.564 296.275 164.195 296.7 169.346 300.147 172.512 304.73 174.747 307.927 175.76 312.382 173.791 315.957 172.139 318.796 169.464 321.235 166.175 321.931 159.705 323.43 153.015 321.302 146.534 322.621 143.598 323.153 141.368 325.864 141.378 328.841 141.562 335.142 140.55 341.485 141.481 347.761 141.711 348.681 141.972 350.226 143.22 350.134 145.01 349.234 146.473 347.352 146.606 345.316 147.634 337.884 155.178 332.043 162.63 332.887 166.241 333.26 169.433 335.761 170.886 339.055 171.996 341.705 173.827 344.252 173.581 347.265 173.438 350.206 171.054 352.415 168.538 353.576 163.837 355.74 158.559 356.236 153.444 356.169 151.229 356.236 149.521 354.384 147.291 354.379 144.657 354.006 142.34 355.934 141.363 358.246 139.491 362.496 139.511 367.34 140.233 371.857 140.719 374.245 141.286 376.89 143.163 378.598 144.56 379.744 146.232 378.357 146.969 377.13 149.076 374.404 148.958 370.66 151.102 367.964 153.194 364.946 157.132 363.678 160.661 364.343 168.292 365.678 175.095 372.675 174.763 380.68 172.517 383.324 169.356 385.094 165.981 385.83 158.017 387.625 149.7 385.815 141.772 387.866 142.105 388.966 142.36 390.106 142.263 391.272 141.987 396.597 140.463 401.788 140.391 407.133 140.458 408.325 140.437 409.921 141.67 410.56 142.749 410.852 143.711 410.131 144.642 409.706 146.345 404.458 148.094 398.97 151.818 394.766 153.925 392.306 157.398 390.971 160.564 391.968 164.374 393.339 168.804 394.479 170.973 398.259 174.568 404.392 171.208 412.545 165.49 416.089 161.203 418.903 155.383 418.841 150.999 416.274 149.582 415.465 147.936 414.872 146.283 415.143 144.58 415.384 143.194 416.586 142.279 417.987 140.417 420.831 139.777 424.283 139.486 427.618 139.251 431.357 139.424 435.239 140.816 438.763 141.404 440.16 142.473 441.904 144.243 441.679 145.936 441.285 147.286 439.883 147.756 438.231 149.439 433.556 153.546 429.639 158.579 428.963 165.766 427.91 172.855 432.257 176.537 438.257 177.489 441.745 176.993 445.888 174.548 448.691 171.331 452.297 166.206 453.233 161.597 453.387 154.513 453.453 147.296 452.016 141.036 448.625 140.621 451.678 140.386 455.074 142.11 457.801 143.741 460.409 146.913 461.432 149.823 461.739 155.142 462.281 160.457 461.386 165.735 460.818 170.088 460.358 174.548 459.714 178.88 460.675 178.686 324.698 182.87 188.741 181.125 52.7643 169.361 52.0534 157.572 52.4523 145.798 52.7797 144.667 59.0709 143.736 65.5104 144.309 71.909M132.821 68.6969C133.993 68.5588 135.302 68.1599 135.762 66.9375 135.527 65.7764 134.115 65.9247 133.251 65.5974 132.821 66.5794 132.422 67.628 132.821 68.6969M158.738 67.6228C158.82 69.0652 158.564 71.1265 160.129 71.8732 161.536 72.1136 162.666 70.8861 163.367 69.812 163.914 69.0141 164.267 67.6024 163.167 67.0858 161.679 66.651 160.175 67.2853 158.738 67.6228M133.246 101.416C132.407 102.45 130.939 103.964 131.895 105.319 133.486 106.127 135.998 105.549 136.755 103.831 136.483 102.317 134.611 101.488 133.246 101.416M159.106 104.352C160.559 105.37 163.438 104.664 163.878 102.838 163.208 101.647 161.71 101.473 160.554 101.028 159.914 102.005 158.631 103.058 159.106 104.352M131.195 133.522C131.762 135.358 135.113 135.312 135.778 133.553 135.65 132.167 134.386 131.374 133.456 130.525 132.555 131.379 131.323 132.172 131.195 133.522M157.086 135.082C158.861 136.734 161.878 136.448 163.756 135.092 163.188 133.773 161.884 133.138 160.687 132.509 159.357 133.159 157.961 133.824 157.086 135.082M132.023 166.119C133.594 166.758 135.854 166.247 136.688 164.692 136.78 162.963 134.596 162.554 133.389 161.935 132.586 163.07 130.734 164.743 132.023 166.119M158.733 166.114C158.871 167.387 158.508 169.407 160.058 169.919 161.413 169.904 162.41 168.727 163.06 167.653 163.52 166.927 163.725 165.75 162.768 165.331 161.372 165.085 160.032 165.694 158.733 166.114M131.2 196.455C131.947 198.122 135.051 198.091 135.747 196.409 135.732 194.997 134.376 194.209 133.476 193.335 132.54 194.199 131.22 195.028 131.2 196.455M156.948 197.309C157.152 198.72 157.091 201.232 159.076 201.273 160.615 200.848 162.129 199.124 161.638 197.478 160.487 196.05 158.421 197.022 156.948 197.309M130.499 237.306C131.517 239.782 135.629 238.647 136.1 236.294 136.494 234.248 134.898 232.591 133.614 231.225 132.172 232.949 130.182 234.862 130.499 237.306M158.825 235.148C157.95 236.708 156.308 238.473 157.025 240.34 158.406 240.974 159.899 240.063 161.147 239.465 163.05 238.304 165.367 237.056 165.904 234.698 163.602 233.721 161.132 234.693 158.825 235.148M130.929 269.044C131.681 271.018 135.21 271.003 135.895 268.988 136.131 267.156 134.53 265.847 133.415 264.645 132.279 265.857 130.642 267.187 130.929 269.044M156.815 271.606C157.551 272.87 159.316 272.22 160.405 271.842 161.239 271.463 162.625 270.747 162.165 269.627 161.29 268.584 159.817 268.507 158.605 268.144 157.874 269.197 156.764 270.22 156.815 271.606M131.476 300.234C130.458 302.377 129.016 304.694 129.532 307.154 130.254 308.857 132.468 307.671 133.123 306.51 134.668 304.377 133.256 301.697 131.476 300.234M156.702 304.142C155.449 305.697 154.406 307.497 153.874 309.43 153.567 310.213 153.976 311.374 154.984 311.21 157.715 310.893 160.052 309.123 162.027 307.308 162.789 306.474 164.231 305.027 163.111 303.958 161.086 303.093 158.769 303.717 156.702 304.142M157.076 343.214C158.861 343.945 161.618 343.096 162.313 341.198 161.72 339.746 159.868 339.736 158.585 339.332 157.889 340.462 156.262 341.792 157.076 343.214M129.195 343.219C130.11 344.59 132.714 344.569 133.578 343.147 133.86 341.664 132.269 340.779 131.374 339.874 130.453 340.774 128.862 341.72 129.195 343.219M128.76 375.442C129.077 377.892 133.517 377.892 133.839 375.457 133.808 373.749 132.397 372.562 131.307 371.427 130.213 372.562 128.847 373.739 128.76 375.442M156.17 373.473C157.127 374.895 159.848 374.951 160.584 373.325 160.39 372.215 159.311 371.652 158.544 370.977 157.608 371.662 156.753 372.46 156.17 373.473M156.544 398.049C155.526 399.753 154.365 401.522 154.273 403.573 154.145 404.796 155.306 405.711 156.457 405.671 158.748 405.671 161.019 404.648 162.641 403.047 163.428 402.31 163.899 400.965 163.05 400.095 161.311 398.479 158.769 398.392 156.544 398.049M129.389 401.031C128.76 402.474 127.41 404.361 128.607 405.86 130.356 406.99 133.629 405.819 133.849 403.625 133.241 401.804 130.959 401.558 129.389 401.031M129.44 434.119C129.21 435.618 128.29 437.812 129.906 438.83 131.665 438.988 133.752 437.239 133.399 435.393 132.622 434.017 130.78 434.262 129.44 434.119M158.498 436.027C158.436 437.075 157.986 438.262 158.615 439.239 160.155 439.74 161.797 438.006 161.873 436.538 161.316 435.239 159.567 435.986 158.498 436.027Z" transform="matrix(1 0 0 1.00074 -100.49 0)"/><path d="M398.893 182.072C399.809 180.491 400.638 178.512 402.551 177.939 405.133 177.151 407.88 178.21 409.982 179.724 412.299 181.366 414.463 183.698 414.754 186.649 415.056 188.813 413.343 190.455 412.729 192.388 411.517 195.984 411.885 199.851 411.711 203.585 411.512 222.816 411.394 242.053 411.594 261.285 418.626 259.909 425.675 258.579 432.784 257.648 433.337 257.525 434.099 257.597 434.354 256.942 435.326 255.377 436.037 253.372 437.919 252.676 440.022 251.996 442.272 252.963 443.924 254.272 446.507 256.339 448.64 259.443 448.369 262.891 448.287 265.331 446.901 267.709 444.691 268.809 442.103 270.092 439.193 270.481 436.37 270.916 428.411 271.898 420.427 272.65 412.478 273.709 413.194 283.314 414.391 292.884 416.1 302.362 417 307.436 418.202 312.448 418.928 317.553 419.255 319.834 419.762 322.355 418.498 324.453 416.534 327.803 412.55 329.859 408.683 329.521 406.448 329.301 404.873 327.424 403.921 325.547 402.075 321.829 401.359 317.691 400.694 313.63 398.863 301.354 397.865 288.971 396.98 276.593 377.785 280.225 358.891 285.222 339.874 289.667 333.357 291.155 326.841 292.69 320.248 293.82 318.356 294.086 316.289 294.577 314.499 293.646 312.448 292.592 310.617 291.063 309.236 289.217 307.993 287.559 307.599 285.283 308.382 283.35 309.333 280.762 311.655 279.12 313.538 277.248 325.634 265.284 336.738 252.37 348.814 240.386 364.987 224.704 378.721 206.786 393.196 189.59 395.267 187.227 397.456 184.9 398.893 182.072M374.082 232.391C360.502 246.973 346.692 261.341 333.296 276.097 341.592 274.159 350.047 272.992 358.323 270.977 370.834 268.133 383.493 266.006 396.05 263.377 395.773 259.474 395.543 255.561 395.574 251.648 395.594 237.209 395.85 222.775 396.198 208.341 388.838 216.366 381.508 224.422 374.082 232.391Z" transform="matrix(1 0 0 1.00074 -100.49 0)"/><path d="M261.172 183.923C263.525 181.693 267.11 181.862 270.108 182.24 273.141 182.65 276.701 183.959 277.693 187.171 278.665 190.066 277.084 192.864 275.724 195.319 276.926 201.856 276.813 208.52 277.299 215.129 278.276 230.734 279.509 246.319 280.772 261.898 281.688 272.634 282.532 283.376 283.846 294.071 285.304 302.505 287.871 310.704 289.401 319.123 289.846 321.21 289.079 323.404 287.611 324.918 285.248 327.409 281.744 328.964 278.286 328.565 275.698 328.012 274.241 325.511 273.141 323.332 271.167 319.292 270.619 314.786 269.903 310.407 266.369 286.854 264.916 263.06 263.315 239.322 262.661 229.558 262.006 219.799 261.356 210.034 252.723 218.141 243.501 225.645 233.603 232.161 230.908 233.905 228.217 235.823 225.092 236.698 221.614 237.685 217.727 235.245 217.001 231.742 216.617 229.675 217.676 227.665 219.082 226.228 221.307 223.941 224.202 222.504 226.78 220.668 239.173 212.413 249.638 201.723 260.211 191.34 260.42 188.895 259.561 186.02 261.172 183.923Z" transform="matrix(1 0 0 1.00074 -100.49 0)"/><path d="M192.312 52.8155C289.217 54.0481 386.229 49.2556 483.052 55.112 482.689 190.261 481.482 325.414 478.776 460.542 386.045 464.204 293.257 459.054 200.505 460.91 197.687 460.757 194.751 461.944 192.04 460.711 189.631 459.657 188.501 457.028 188.051 454.599 186.803 447.54 188.389 440.288 186.849 433.265 183.76 314.243 189.795 195.212 187.585 76.1799 188.25 70.2263 187.55 64.0885 189.207 58.2679 189.805 56.2373 190.9 54.3908 192.312 52.8155M398.893 182.072C397.456 184.9 395.267 187.227 393.196 189.59 378.721 206.786 364.987 224.704 348.814 240.386 336.738 252.37 325.634 265.284 313.538 277.248 311.655 279.12 309.333 280.762 308.382 283.35 307.599 285.283 307.993 287.559 309.236 289.217 310.617 291.063 312.448 292.592 314.499 293.646 316.289 294.577 318.356 294.086 320.248 293.82 326.841 292.69 333.357 291.155 339.874 289.667 358.891 285.222 377.785 280.225 396.98 276.593 397.865 288.971 398.863 301.354 400.694 313.63 401.359 317.691 402.075 321.829 403.921 325.547 404.873 327.424 406.448 329.301 408.683 329.521 412.55 329.859 416.534 327.803 418.498 324.453 419.762 322.355 419.255 319.834 418.928 317.553 418.202 312.448 417 307.436 416.1 302.362 414.391 292.884 413.194 283.314 412.478 273.709 420.427 272.65 428.411 271.898 436.37 270.916 439.193 270.481 442.103 270.092 444.691 268.809 446.901 267.709 448.287 265.331 448.369 262.891 448.64 259.443 446.507 256.339 443.924 254.272 442.272 252.963 440.022 251.996 437.919 252.676 436.037 253.372 435.326 255.377 434.354 256.942 434.099 257.597 433.337 257.525 432.784 257.648 425.675 258.579 418.626 259.909 411.594 261.285 411.394 242.053 411.512 222.816 411.711 203.585 411.885 199.851 411.517 195.984 412.729 192.388 413.343 190.455 415.056 188.813 414.754 186.649 414.463 183.698 412.299 181.366 409.982 179.724 407.88 178.21 405.133 177.151 402.551 177.939 400.638 178.512 399.809 180.491 398.893 182.072M261.172 183.923C259.561 186.02 260.42 188.895 260.211 191.34 249.638 201.723 239.173 212.413 226.78 220.668 224.202 222.504 221.307 223.941 219.082 226.228 217.676 227.665 216.617 229.675 217.001 231.742 217.727 235.245 221.614 237.685 225.092 236.698 228.217 235.823 230.908 233.905 233.603 232.161 243.501 225.645 252.723 218.141 261.356 210.034 262.006 219.799 262.661 229.558 263.315 239.322 264.916 263.06 266.369 286.854 269.903 310.407 270.619 314.786 271.167 319.292 273.141 323.332 274.241 325.511 275.698 328.012 278.286 328.565 281.744 328.964 285.248 327.409 287.611 324.918 289.079 323.404 289.846 321.21 289.401 319.123 287.871 310.704 285.304 302.505 283.846 294.071 282.532 283.376 281.688 272.634 280.772 261.898 279.509 246.319 278.276 230.734 277.299 215.129 276.813 208.52 276.926 201.856 275.724 195.319 277.084 192.864 278.665 190.066 277.693 187.171 276.701 183.959 273.141 182.65 270.108 182.24 267.11 181.862 263.525 181.693 261.172 183.923Z" fill="#FCFCFC" transform="matrix(1 0 0 1.00074 -100.49 0)"/><path d="M144.309 71.909C143.736 65.5104 144.667 59.0709 145.798 52.7797 157.572 52.4523 169.361 52.0534 181.125 52.7643 182.87 188.741 178.686 324.698 178.88 460.675 174.548 459.714 170.088 460.358 165.735 460.818 160.457 461.386 155.142 462.281 149.823 461.739 146.913 461.432 143.741 460.409 142.11 457.801 140.386 455.074 140.621 451.678 141.036 448.625 147.296 452.016 154.513 453.453 161.597 453.387 166.206 453.233 171.331 452.297 174.548 448.691 176.993 445.888 177.489 441.745 176.537 438.257 172.855 432.257 165.766 427.91 158.579 428.963 153.546 429.639 149.439 433.556 147.756 438.231 147.286 439.883 145.936 441.285 144.243 441.679 142.473 441.904 141.404 440.16 140.816 438.763 139.424 435.239 139.251 431.357 139.486 427.618 139.777 424.283 140.417 420.831 142.279 417.987 143.194 416.586 144.58 415.384 146.283 415.143 147.936 414.872 149.582 415.465 150.999 416.274 155.383 418.841 161.203 418.903 165.49 416.089 171.208 412.545 174.568 404.392 170.973 398.259 168.804 394.479 164.374 393.339 160.564 391.968 157.398 390.971 153.925 392.306 151.818 394.766 148.094 398.97 146.345 404.458 144.642 409.706 143.711 410.131 142.749 410.852 141.67 410.56 140.437 409.921 140.458 408.325 140.391 407.133 140.463 401.788 141.987 396.597 142.263 391.272 142.36 390.106 142.105 388.966 141.772 387.866 149.7 385.815 158.017 387.625 165.981 385.83 169.356 385.094 172.517 383.324 174.763 380.68 175.095 372.675 168.292 365.678 160.661 364.343 157.132 363.678 153.194 364.946 151.102 367.964 148.958 370.66 149.076 374.404 146.969 377.13 146.232 378.357 144.56 379.744 143.163 378.598 141.286 376.89 140.719 374.245 140.233 371.857 139.511 367.34 139.491 362.496 141.363 358.246 142.34 355.934 144.657 354.006 147.291 354.379 149.521 354.384 151.229 356.236 153.444 356.169 158.559 356.236 163.837 355.74 168.538 353.576 171.054 352.415 173.438 350.206 173.581 347.265 173.827 344.252 171.996 341.705 170.886 339.055 169.433 335.761 166.241 333.26 162.63 332.887 155.178 332.043 147.634 337.884 146.606 345.316 146.473 347.352 145.01 349.234 143.22 350.134 141.972 350.226 141.711 348.681 141.481 347.761 140.55 341.485 141.562 335.142 141.378 328.841 141.368 325.864 143.598 323.153 146.534 322.621 153.015 321.302 159.705 323.43 166.175 321.931 169.464 321.235 172.139 318.796 173.791 315.957 175.76 312.382 174.747 307.927 172.512 304.73 169.346 300.147 164.195 296.7 158.564 296.275 154.861 295.953 151.096 297.871 149.25 301.114 147.424 304.423 146.227 308.361 143.174 310.791 141.516 311.512 141.21 308.98 141.051 307.886 140.314 299.595 141.665 291.298 141.675 283.002 149.061 282.92 156.257 285.304 163.653 284.905 167.75 284.716 171.955 283.268 174.834 280.266 175.699 276.818 174.809 273.085 172.788 270.2 170.103 266.343 165.817 263.684 161.219 262.794 158.211 262.231 154.887 262.548 152.324 264.328 150.027 265.883 148.631 268.481 148.104 271.156 147.803 273.105 146.514 274.742 145.092 276.031 144.381 276.726 143.102 276.772 142.601 275.806 141.465 273.923 141.343 271.642 141.107 269.514 140.703 263.678 140.959 257.807 141.598 251.996 149.025 251.04 156.61 251.449 163.95 249.771 167.034 249.04 170.195 247.915 172.461 245.608 175.182 242.907 175.729 238.57 174.64 235.036 171.586 231.133 167.126 228.217 162.216 227.358 158.912 226.755 155.168 227.507 152.841 230.074 151.066 231.905 150.334 234.412 149.756 236.831 149.045 238.795 148.068 240.749 146.575 242.237 145.838 243.009 144.514 243.301 143.711 242.462 142.11 240.851 141.644 238.508 141.158 236.376 140.1 230.473 140.115 224.335 141.455 218.479 142.12 215.968 142.995 213.282 145.056 211.559 146.749 210.116 149.378 210.28 151.076 211.625 153.848 213.625 157.132 215.001 160.574 215.18 165.607 215.512 170.86 213.277 173.775 209.098 175.54 206.613 176.205 203.247 175.018 200.378 173.724 197.15 170.768 194.951 167.699 193.544 165.848 192.787 164.61 190.977 162.62 190.496 159.966 189.688 157.224 190.89 155.106 192.45 151.664 194.941 149.163 198.449 145.997 201.247 145.286 201.907 143.798 202.7 143.24 201.436 142.11 198.997 142.698 196.219 142.34 193.647 141.296 190.885 140.013 187.841 140.984 184.87 141.757 182.578 144.135 181.432 146.324 180.89 153.373 179.269 160.753 180.619 167.791 178.906 170.39 178.292 173.131 176.676 173.699 173.862 174.364 170.446 173.111 166.988 171.566 163.986 170.251 161.505 168.047 159.214 165.142 158.835 161.74 158.385 158.503 160.012 155.73 161.807 151.291 164.84 147.429 168.64 143.91 172.686 145.399 165.275 141.961 157.894 143.005 150.457 143.25 148.652 144.406 146.785 146.329 146.473 149.536 145.977 152.554 147.531 155.352 148.897 161.561 151.27 168.968 148.457 172.84 143.245 174.742 140.729 175.417 137.056 173.607 134.305 172.18 131.778 169.341 130.745 167.269 128.888 165.413 127.323 163.034 126.223 160.559 126.407 157.715 126.602 155.219 128.243 153.142 130.09 149.562 133.338 146.739 137.302 143.711 141.051 145.245 133.803 142.11 126.545 143.041 119.267 143.296 117.308 144.345 115.196 146.381 114.613 149.332 113.82 152.421 114.802 155.137 115.968 159.868 118.05 165.536 116.873 169.617 113.896 172.026 112.132 174.118 109.523 174.318 106.439 174.512 103.631 172.717 101.115 170.507 99.5699 168.236 98.0457 165.929 96.3936 163.208 95.8156 160.533 95.1661 157.735 96.143 155.7 97.8923 151.398 101.534 148.749 106.874 143.839 109.846 145.393 101.959 141.956 94.092 143.056 86.1845 143.348 84.0567 144.606 81.8267 146.836 81.2998 149.951 80.5377 153.096 81.6783 155.971 82.824 160.426 84.1334 165.357 83.2486 169.382 81.0441 172.052 79.5557 174.609 76.9113 174.379 73.6327 174.282 70.9321 172.149 69.0396 170.988 66.7738 169.448 63.9504 166.446 61.8278 163.152 61.9045 158.569 61.9914 154.528 64.8915 151.741 68.344 149.961 70.4871 149.005 73.5509 146.329 74.7887 144.78 75.0393 144.519 73.0138 144.309 71.909Z" fill="#FCFCFC" transform="matrix(1 0 0 1.00074 -100.49 0)"/><path d="M132.821 68.6969C132.422 67.628 132.821 66.5794 133.251 65.5974 134.115 65.9247 135.527 65.7764 135.762 66.9375 135.302 68.1599 133.993 68.5588 132.821 68.6969Z" fill="#FCFCFC" transform="matrix(1 0 0 1.00074 -100.49 0)"/><path d="M158.738 67.6228C160.175 67.2853 161.679 66.651 163.167 67.0858 164.267 67.6024 163.914 69.0141 163.367 69.812 162.666 70.8861 161.536 72.1136 160.129 71.8732 158.564 71.1265 158.82 69.0652 158.738 67.6228Z" fill="#FCFCFC" transform="matrix(1 0 0 1.00074 -100.49 0)"/><path d="M133.246 101.416C134.611 101.488 136.483 102.317 136.755 103.831 135.998 105.549 133.486 106.127 131.895 105.319 130.939 103.964 132.407 102.45 133.246 101.416Z" fill="#FCFCFC" transform="matrix(1 0 0 1.00074 -100.49 0)"/><path d="M159.106 104.352C158.631 103.058 159.914 102.005 160.554 101.028 161.71 101.473 163.208 101.647 163.878 102.838 163.438 104.664 160.559 105.37 159.106 104.352Z" fill="#FCFCFC" transform="matrix(1 0 0 1.00074 -100.49 0)"/><path d="M131.195 133.522C131.323 132.172 132.555 131.379 133.456 130.525 134.386 131.374 135.65 132.167 135.778 133.553 135.113 135.312 131.762 135.358 131.195 133.522Z" fill="#FCFCFC" transform="matrix(1 0 0 1.00074 -100.49 0)"/><path d="M157.086 135.082C157.961 133.824 159.357 133.159 160.687 132.509 161.884 133.138 163.188 133.773 163.756 135.092 161.878 136.448 158.861 136.734 157.086 135.082Z" fill="#FCFCFC" transform="matrix(1 0 0 1.00074 -100.49 0)"/><path d="M132.023 166.119C130.734 164.743 132.586 163.07 133.389 161.935 134.596 162.554 136.78 162.963 136.688 164.692 135.854 166.247 133.594 166.758 132.023 166.119Z" fill="#FCFCFC" transform="matrix(1 0 0 1.00074 -100.49 0)"/><path d="M158.733 166.114C160.032 165.694 161.372 165.085 162.768 165.331 163.725 165.75 163.52 166.927 163.06 167.653 162.41 168.727 161.413 169.904 160.058 169.919 158.508 169.407 158.871 167.387 158.733 166.114Z" fill="#FCFCFC" transform="matrix(1 0 0 1.00074 -100.49 0)"/><path d="M131.2 196.455C131.22 195.028 132.54 194.199 133.476 193.335 134.376 194.209 135.732 194.997 135.747 196.409 135.051 198.091 131.947 198.122 131.2 196.455Z" fill="#FCFCFC" transform="matrix(1 0 0 1.00074 -100.49 0)"/><path d="M156.948 197.309C158.421 197.022 160.487 196.05 161.638 197.478 162.129 199.124 160.615 200.848 159.076 201.273 157.091 201.232 157.152 198.72 156.948 197.309Z" fill="#FCFCFC" transform="matrix(1 0 0 1.00074 -100.49 0)"/><path d="M374.082 232.391C381.508 224.422 388.838 216.366 396.198 208.341 395.85 222.775 395.594 237.209 395.574 251.648 395.543 255.561 395.773 259.474 396.05 263.377 383.493 266.006 370.834 268.133 358.323 270.977 350.047 272.992 341.592 274.159 333.296 276.097 346.692 261.341 360.502 246.973 374.082 232.391Z" fill="#FCFCFC" transform="matrix(1 0 0 1.00074 -100.49 0)"/><path d="M130.499 237.306C130.182 234.862 132.172 232.949 133.614 231.225 134.898 232.591 136.494 234.248 136.1 236.294 135.629 238.647 131.517 239.782 130.499 237.306Z" fill="#FCFCFC" transform="matrix(1 0 0 1.00074 -100.49 0)"/><path d="M158.825 235.148C161.132 234.693 163.602 233.721 165.904 234.698 165.367 237.056 163.05 238.304 161.147 239.465 159.899 240.063 158.406 240.974 157.025 240.34 156.308 238.473 157.95 236.708 158.825 235.148Z" fill="#FCFCFC" transform="matrix(1 0 0 1.00074 -100.49 0)"/><path d="M130.929 269.044C130.642 267.187 132.279 265.857 133.415 264.645 134.53 265.847 136.131 267.156 135.895 268.988 135.21 271.003 131.681 271.018 130.929 269.044Z" fill="#FCFCFC" transform="matrix(1 0 0 1.00074 -100.49 0)"/><path d="M156.815 271.606C156.764 270.22 157.874 269.197 158.605 268.144 159.817 268.507 161.29 268.584 162.165 269.627 162.625 270.747 161.239 271.463 160.405 271.842 159.316 272.22 157.551 272.87 156.815 271.606Z" fill="#FCFCFC" transform="matrix(1 0 0 1.00074 -100.49 0)"/><path d="M131.476 300.234C133.256 301.697 134.668 304.377 133.123 306.51 132.468 307.671 130.254 308.857 129.532 307.154 129.016 304.694 130.458 302.377 131.476 300.234Z" fill="#FCFCFC" transform="matrix(1 0 0 1.00074 -100.49 0)"/><path d="M156.702 304.142C158.769 303.717 161.086 303.093 163.111 303.958 164.231 305.027 162.789 306.474 162.027 307.308 160.052 309.123 157.715 310.893 154.984 311.21 153.976 311.374 153.567 310.213 153.874 309.43 154.406 307.497 155.449 305.697 156.702 304.142Z" fill="#FCFCFC" transform="matrix(1 0 0 1.00074 -100.49 0)"/><path d="M157.076 343.214C156.262 341.792 157.889 340.462 158.585 339.332 159.868 339.736 161.72 339.746 162.313 341.198 161.618 343.096 158.861 343.945 157.076 343.214Z" fill="#FCFCFC" transform="matrix(1 0 0 1.00074 -100.49 0)"/><path d="M129.195 343.219C128.862 341.72 130.453 340.774 131.374 339.874 132.269 340.779 133.86 341.664 133.578 343.147 132.714 344.569 130.11 344.59 129.195 343.219Z" fill="#FCFCFC" transform="matrix(1 0 0 1.00074 -100.49 0)"/><path d="M128.76 375.442C128.847 373.739 130.213 372.562 131.307 371.427 132.397 372.562 133.808 373.749 133.839 375.457 133.517 377.892 129.077 377.892 128.76 375.442Z" fill="#FCFCFC" transform="matrix(1 0 0 1.00074 -100.49 0)"/><path d="M156.17 373.473C156.753 372.46 157.608 371.662 158.544 370.977 159.311 371.652 160.39 372.215 160.584 373.325 159.848 374.951 157.127 374.895 156.17 373.473Z" fill="#FCFCFC" transform="matrix(1 0 0 1.00074 -100.49 0)"/><path d="M156.544 398.049C158.769 398.392 161.311 398.479 163.05 400.095 163.899 400.965 163.428 402.31 162.641 403.047 161.019 404.648 158.748 405.671 156.457 405.671 155.306 405.711 154.145 404.796 154.273 403.573 154.365 401.522 155.526 399.753 156.544 398.049Z" fill="#FCFCFC" transform="matrix(1 0 0 1.00074 -100.49 0)"/><path d="M129.389 401.031C130.959 401.558 133.241 401.804 133.849 403.625 133.629 405.819 130.356 406.99 128.607 405.86 127.41 404.361 128.76 402.474 129.389 401.031Z" fill="#FCFCFC" transform="matrix(1 0 0 1.00074 -100.49 0)"/><path d="M129.44 434.119C130.78 434.262 132.622 434.017 133.399 435.393 133.752 437.239 131.665 438.988 129.906 438.83 128.29 437.812 129.21 435.618 129.44 434.119Z" fill="#FCFCFC" transform="matrix(1 0 0 1.00074 -100.49 0)"/><path d="M158.498 436.027C159.567 435.986 161.316 435.239 161.873 436.538 161.797 438.006 160.155 439.74 158.615 439.239 157.986 438.262 158.436 437.075 158.498 436.027Z" fill="#FCFCFC" transform="matrix(1 0 0 1.00074 -100.49 0)"/></g></svg>