<?xml version="1.0" encoding="UTF-8" ?>
<!DOCTYPE svg PUBLIC "-//W3C//DTD SVG 1.1//EN" "http://www.w3.org/Graphics/SVG/1.1/DTD/svg11.dtd">
<svg width="214pt" height="326pt" viewBox="0 0 214 326" version="1.1" xmlns="http://www.w3.org/2000/svg">
<g id="#000000ff">
<path fill="#000000" opacity="1.00" d=" M 85.77 2.08 C 88.35 2.54 90.77 3.62 92.78 5.29 C 97.33 8.90 102.84 11.97 105.02 17.69 C 109.30 11.31 116.12 6.67 123.67 5.21 C 125.16 7.07 123.04 8.67 122.21 10.28 C 120.30 12.76 120.44 15.98 120.28 18.94 C 122.47 18.28 124.72 16.89 127.06 17.77 C 134.54 20.21 141.00 26.99 141.63 35.04 C 141.60 40.13 136.96 43.80 132.32 44.80 C 137.79 56.80 136.46 71.78 128.16 82.18 C 144.96 97.49 157.61 116.83 167.04 137.40 C 167.85 137.12 169.46 136.54 170.26 136.25 C 174.99 143.38 178.12 151.38 182.03 158.95 C 184.45 163.47 185.13 169.34 189.71 172.34 C 193.11 174.94 196.62 177.94 198.09 182.09 C 199.24 184.88 197.32 187.46 195.96 189.75 C 202.35 200.78 208.45 212.06 212.82 224.08 C 206.03 228.13 198.73 231.41 191.11 233.52 C 185.02 221.13 178.59 208.90 173.01 196.26 C 168.96 196.33 165.38 193.72 164.11 189.90 C 162.06 185.65 164.72 181.02 163.39 176.66 C 161.21 168.56 155.64 162.03 150.62 155.53 C 145.98 150.45 141.75 144.91 136.28 140.67 C 132.41 137.54 129.06 133.79 126.61 129.45 C 129.40 138.37 130.69 147.67 131.84 156.91 C 132.72 169.30 130.15 181.58 128.79 193.82 C 130.59 199.29 134.35 203.88 136.72 209.13 C 143.70 220.91 149.84 233.45 152.32 247.03 C 152.41 249.69 152.44 252.34 152.45 255.00 C 151.02 253.73 149.60 252.45 148.18 251.17 C 148.08 254.92 147.37 258.62 146.19 262.18 C 144.75 260.14 143.32 258.09 141.90 256.04 C 141.94 267.19 141.44 278.51 137.95 289.20 C 138.47 289.32 139.51 289.57 140.03 289.70 C 140.53 290.17 141.55 291.13 142.06 291.61 C 141.66 293.22 141.19 294.83 140.66 296.41 C 140.87 298.19 141.04 299.98 141.21 301.77 C 149.14 301.69 157.78 301.70 164.45 306.67 C 169.92 310.03 168.82 320.56 162.03 321.51 C 151.37 322.06 140.59 320.23 130.01 322.28 C 125.80 323.08 121.52 322.23 117.81 320.13 C 117.77 315.80 118.09 311.45 117.58 307.14 C 117.01 302.67 114.56 298.52 115.00 293.92 C 114.92 292.01 116.64 290.84 117.74 289.53 C 117.96 284.68 117.75 279.82 117.87 274.96 C 118.33 266.47 120.03 258.03 123.18 250.12 C 120.34 246.54 117.30 243.12 114.45 239.55 C 106.74 229.02 102.04 216.74 97.03 204.80 C 93.84 204.94 90.57 204.61 87.45 205.37 C 85.45 209.93 83.58 214.56 81.54 219.12 C 80.16 222.31 83.13 225.13 84.28 227.90 C 82.31 227.24 80.33 226.61 78.35 225.98 C 75.17 231.73 72.03 237.59 67.74 242.62 C 65.77 245.07 63.43 247.26 61.88 250.02 C 62.02 252.35 62.97 254.53 63.59 256.76 C 66.80 267.01 66.92 277.90 66.33 288.53 C 67.89 290.00 70.00 291.57 69.86 293.98 C 69.74 298.43 67.33 302.46 67.09 306.90 C 66.90 310.93 67.08 314.96 67.09 318.98 C 63.11 322.27 57.80 321.93 53.00 321.30 C 44.39 320.02 35.65 320.58 27.01 321.22 C 23.59 321.39 19.56 320.60 17.72 317.37 C 15.18 313.78 16.52 308.56 20.02 306.13 C 26.65 301.12 35.33 300.76 43.30 301.06 C 43.45 299.31 43.64 297.56 43.85 295.82 C 43.48 294.04 42.53 292.10 43.32 290.31 C 44.36 289.36 45.60 288.68 46.76 287.91 C 43.65 277.55 42.83 266.67 42.94 255.89 C 41.94 257.92 41.05 260.02 39.81 261.92 C 38.60 261.88 37.53 261.18 37.49 259.87 C 36.90 257.04 37.11 254.12 37.22 251.25 C 35.72 252.52 34.58 254.82 32.36 254.80 C 31.89 245.43 35.49 236.48 38.88 227.93 C 41.17 221.90 44.51 216.37 47.82 210.87 C 43.33 207.78 39.00 204.47 34.64 201.21 C 29.06 202.94 22.25 203.24 17.43 199.47 C 13.76 196.31 14.20 191.10 14.68 186.78 C 11.03 184.09 7.30 181.51 3.69 178.77 C 4.53 175.14 6.49 171.98 8.17 168.71 C 7.50 165.25 5.22 162.19 4.28 158.74 C 0.48 147.24 4.03 134.85 9.30 124.42 C 14.86 113.65 25.93 106.28 29.16 94.24 C 31.48 86.17 27.75 77.65 22.01 71.98 C 18.05 68.56 12.52 68.37 7.92 66.21 C 5.12 64.97 1.72 63.18 1.35 59.77 C 1.25 55.29 5.49 51.29 9.97 51.62 C 16.28 51.91 23.01 53.02 28.01 57.18 C 34.70 62.64 39.75 70.33 41.24 78.91 C 43.65 90.67 41.16 103.43 34.32 113.32 C 29.16 122.57 22.96 131.31 19.24 141.29 C 16.98 147.98 17.75 155.65 21.73 161.55 C 23.01 157.11 23.90 152.49 26.19 148.42 C 27.78 145.61 29.62 142.96 31.38 140.24 C 30.45 140.37 28.60 140.64 27.68 140.77 C 28.23 135.26 31.28 130.50 33.73 125.67 C 42.78 110.53 53.38 95.92 67.14 84.71 C 64.13 78.15 60.62 71.43 60.87 64.00 C 60.39 57.96 62.40 52.21 63.99 46.49 C 61.49 44.92 58.53 43.38 57.72 40.28 C 56.60 35.88 57.02 30.75 60.19 27.25 C 63.80 23.17 67.08 17.67 73.00 16.93 C 75.84 16.30 77.81 18.94 79.94 20.34 C 79.45 17.65 78.92 14.97 78.51 12.26 C 83.50 12.48 88.34 14.07 92.37 17.04 C 91.54 11.46 87.39 7.34 85.77 2.08 M 92.91 8.15 C 94.60 12.97 95.89 18.38 93.98 23.34 C 92.03 21.86 90.63 19.81 88.83 18.19 C 87.16 16.95 85.12 16.40 83.22 15.61 C 83.27 19.13 82.85 23.29 78.83 24.37 C 77.18 22.98 75.87 20.85 73.74 20.21 C 69.65 20.16 66.70 23.59 64.35 26.52 C 61.89 29.86 59.19 34.04 60.57 38.37 C 61.21 42.21 65.41 43.30 68.29 45.03 C 66.22 50.17 64.00 55.40 63.61 61.00 C 63.15 65.91 64.42 70.74 65.48 75.49 C 66.47 66.16 71.44 58.10 75.89 50.10 C 74.19 46.96 71.76 43.88 72.27 40.05 C 71.59 32.54 78.74 26.27 85.98 26.54 C 90.81 26.20 94.98 28.96 98.31 32.14 C 100.68 29.47 103.42 26.80 107.07 26.10 C 115.71 23.79 126.28 30.61 125.91 39.97 C 126.19 44.41 122.90 47.74 120.25 50.86 C 125.23 57.82 127.91 66.05 128.76 74.51 C 130.40 69.52 132.18 64.36 131.78 59.02 C 131.26 52.88 129.72 46.84 127.27 41.19 C 129.23 40.32 131.32 40.52 133.35 40.98 C 135.14 39.93 137.59 39.22 138.20 36.97 C 139.30 33.37 137.36 29.60 134.99 26.95 C 132.18 24.07 128.82 21.59 124.96 20.34 C 123.00 21.67 121.41 23.46 119.70 25.08 C 116.54 20.62 117.07 15.12 118.07 10.06 C 112.27 12.83 108.71 18.25 104.84 23.11 C 103.48 20.54 102.26 17.89 100.67 15.45 C 98.67 12.46 95.62 10.44 92.91 8.15 M 99.02 38.31 C 97.50 37.03 96.21 35.51 94.94 33.99 C 92.55 31.08 88.70 29.60 84.99 29.56 C 79.82 29.94 74.63 34.53 74.95 39.96 C 74.60 43.93 77.83 46.79 79.81 49.84 C 73.04 59.21 66.78 71.02 70.05 82.88 C 71.17 88.35 75.90 92.06 80.79 94.13 C 91.92 98.67 105.36 98.35 115.59 91.70 C 120.95 87.95 125.81 81.91 125.05 74.98 C 125.28 65.93 120.13 58.09 116.95 49.95 C 118.83 46.76 121.91 43.97 122.20 40.07 C 122.36 33.78 116.08 28.52 109.93 29.16 C 104.45 28.76 100.68 33.65 99.02 38.31 M 4.27 59.98 C 10.56 64.69 19.23 64.58 25.07 69.99 C 32.80 76.98 35.24 88.77 31.59 98.43 C 27.64 108.72 18.42 115.69 13.25 125.29 C 5.89 137.40 3.55 153.66 11.33 166.16 C 12.59 165.46 13.83 164.70 15.17 164.13 C 17.37 165.16 19.30 166.67 21.34 167.97 C 18.85 163.17 15.49 158.58 14.95 153.04 C 13.81 143.53 17.62 134.31 22.62 126.43 C 28.74 115.07 38.20 104.60 38.80 91.10 C 39.74 81.09 36.08 71.05 29.68 63.43 C 24.83 57.78 17.21 55.18 9.92 55.04 C 6.91 54.76 5.71 57.98 4.27 59.98 M 111.78 97.14 C 111.59 99.95 111.44 103.10 109.21 105.15 C 103.55 110.68 94.16 111.53 87.34 107.69 C 82.86 105.46 80.21 101.05 78.44 96.55 C 74.60 94.37 71.26 91.44 68.60 87.91 C 60.74 95.04 53.46 102.80 46.94 111.17 C 51.07 114.82 55.42 118.20 59.76 121.60 C 61.22 119.97 62.69 118.35 64.22 116.78 C 65.55 125.25 63.00 133.66 62.47 142.09 C 61.86 150.77 60.19 159.31 58.73 167.87 C 57.38 175.28 58.06 182.96 60.25 190.15 C 82.29 192.91 105.09 192.90 126.65 187.00 C 127.51 176.99 128.64 167.00 129.13 156.96 C 128.63 150.48 127.75 143.99 126.26 137.65 C 125.30 133.17 122.30 128.95 123.52 124.20 C 125.30 125.39 127.05 126.64 128.78 127.91 C 133.40 120.60 138.79 113.79 144.90 107.67 C 146.39 106.59 144.54 105.03 143.97 104.00 C 138.57 97.34 132.81 90.96 126.65 84.98 C 122.71 90.15 117.72 94.44 111.78 97.14 M 82.67 98.57 C 84.99 101.53 87.58 104.59 91.28 105.82 C 97.71 108.57 106.91 105.78 108.76 98.48 C 104.53 99.31 100.34 100.68 95.99 100.62 C 91.46 100.65 87.10 99.31 82.67 98.57 M 130.95 131.16 C 131.02 132.43 132.19 133.23 132.96 134.11 C 136.95 137.76 141.59 140.66 145.27 144.65 C 153.10 152.97 161.04 161.61 165.75 172.16 C 167.92 176.88 166.86 182.06 166.65 187.02 C 166.36 190.10 169.11 191.98 171.18 193.68 C 170.19 192.29 169.17 190.92 168.14 189.57 C 170.04 187.63 172.20 185.89 174.80 185.00 C 179.14 183.40 183.75 181.61 188.46 182.37 C 191.06 182.72 192.82 184.86 194.97 186.16 C 195.15 184.17 194.94 182.10 193.71 180.45 C 189.60 174.03 181.49 172.03 176.67 166.29 C 172.56 161.26 170.39 155.01 168.23 148.97 C 163.02 134.97 156.51 121.40 147.85 109.19 C 141.74 116.11 135.18 122.87 130.95 131.16 M 32.01 134.27 C 33.74 134.43 36.43 133.61 36.58 136.14 C 36.16 139.23 33.79 141.56 32.14 144.08 C 25.61 153.00 23.80 164.32 23.42 175.12 C 23.51 179.48 20.17 182.64 18.33 186.28 C 16.36 189.74 17.21 194.40 19.95 197.19 C 22.93 199.52 27.03 198.57 30.54 198.88 C 30.13 195.60 29.30 192.03 30.95 188.95 C 32.44 185.71 35.88 184.21 38.77 182.49 C 40.33 183.06 41.91 183.62 43.49 184.16 C 42.25 179.12 36.69 178.62 32.52 177.50 C 33.26 172.55 36.19 168.34 37.69 163.62 C 40.01 157.73 40.44 151.13 43.84 145.68 C 48.04 138.38 53.14 131.66 57.83 124.68 C 53.82 120.80 49.33 117.47 44.94 114.05 C 39.90 120.30 36.12 127.41 32.01 134.27 M 51.92 137.99 C 48.10 143.53 44.68 149.49 42.97 156.05 C 41.26 162.55 39.34 169.04 36.32 175.08 C 38.85 175.93 41.34 176.93 43.67 178.23 C 47.01 180.26 51.02 180.27 54.75 181.01 C 54.71 176.34 54.43 171.62 55.27 166.99 C 57.66 152.67 60.28 138.37 61.96 123.94 C 58.18 128.30 55.23 133.28 51.92 137.99 M 168.10 140.29 C 170.64 146.86 173.43 153.33 176.20 159.81 C 177.53 163.21 180.24 165.73 183.11 167.86 C 178.60 158.32 174.34 148.68 169.76 139.17 C 169.34 139.45 168.51 140.01 168.10 140.29 M 7.01 177.19 C 9.97 179.60 13.07 181.83 16.23 183.97 C 19.77 180.69 21.42 175.97 20.47 171.19 C 19.22 169.53 17.45 168.37 15.88 167.04 C 12.27 169.79 9.07 173.11 7.01 177.19 M 45.18 183.47 C 46.30 188.55 51.80 190.92 56.55 189.63 C 56.38 187.55 55.90 185.51 55.51 183.46 C 52.06 183.44 48.62 183.38 45.18 183.47 M 172.65 189.32 C 173.16 190.56 173.69 191.79 174.24 193.02 C 176.22 192.18 178.17 191.25 180.13 190.35 C 180.36 190.97 180.81 192.21 181.04 192.83 C 179.28 193.84 177.51 194.85 175.73 195.83 C 176.02 196.32 176.60 197.29 176.88 197.78 C 178.78 196.93 180.60 195.93 182.58 195.28 C 182.64 198.84 176.86 199.18 178.73 202.95 C 180.70 201.87 182.69 200.82 184.81 200.05 C 185.15 202.93 182.42 203.95 180.43 205.23 C 180.78 205.88 181.49 207.18 181.84 207.83 C 183.41 206.96 185.01 206.12 186.63 205.35 C 187.36 207.90 185.02 208.87 183.20 209.91 C 183.36 210.69 183.52 211.48 183.69 212.26 C 185.72 211.60 187.78 211.04 189.91 210.75 C 189.08 212.89 187.20 214.09 185.26 215.12 C 185.56 215.68 186.18 216.80 186.48 217.36 C 188.35 216.61 190.34 216.37 192.34 216.46 C 191.06 218.09 189.23 219.05 187.38 219.89 C 188.51 223.11 191.88 220.53 194.25 221.57 C 192.87 222.48 191.47 223.36 190.04 224.21 C 190.84 226.00 191.67 227.77 192.51 229.54 C 198.21 227.30 203.87 224.98 209.68 223.06 C 207.87 218.44 205.70 213.98 203.42 209.57 C 199.24 201.37 196.09 192.53 190.30 185.26 C 184.03 183.34 178.20 186.95 172.65 189.32 M 32.30 195.21 C 41.68 202.69 51.67 209.43 61.09 216.89 C 64.71 215.26 67.91 212.72 70.00 209.32 C 69.40 208.15 68.23 207.45 67.26 206.64 C 57.76 199.41 48.59 191.73 38.90 184.75 C 35.36 187.12 31.69 190.47 32.30 195.21 M 105.91 194.15 C 96.99 195.49 87.94 194.90 78.96 195.00 C 72.94 195.16 66.99 194.13 61.03 193.39 C 60.55 194.62 60.07 195.85 59.59 197.08 C 63.25 199.92 66.99 202.64 70.55 205.61 C 74.59 208.87 76.61 213.80 79.12 218.20 C 81.69 213.04 83.19 207.36 86.08 202.37 C 90.23 201.95 94.43 201.95 98.53 201.11 C 104.13 216.97 111.96 232.17 122.99 244.96 C 124.54 247.06 127.46 249.20 125.92 252.12 C 122.03 264.13 119.61 276.90 121.28 289.53 C 125.60 289.42 129.95 289.72 134.24 289.14 C 135.91 288.12 135.72 285.62 136.36 283.94 C 139.14 272.81 138.30 261.23 140.19 249.99 C 141.62 251.45 143.05 252.91 144.47 254.39 C 144.56 251.18 144.69 247.98 144.92 244.79 C 146.46 245.75 147.98 246.72 149.51 247.69 C 147.29 235.96 142.34 225.01 136.05 214.93 C 132.19 207.21 125.10 200.22 125.79 191.00 C 119.14 191.94 112.58 193.41 105.91 194.15 M 55.40 193.25 C 55.85 196.56 58.18 191.41 55.40 193.25 M 50.36 212.86 C 47.30 218.34 44.12 223.77 41.37 229.42 C 38.68 234.99 37.41 241.07 35.73 246.98 C 37.30 246.17 38.83 245.01 40.70 245.10 C 40.87 248.16 40.40 251.21 40.12 254.25 C 41.77 252.69 43.43 251.13 45.12 249.61 C 46.53 261.74 45.58 274.24 49.03 286.11 C 49.42 287.04 49.69 288.66 51.06 288.52 C 55.23 288.92 59.43 288.70 63.61 288.77 C 63.64 282.52 63.97 276.23 63.07 270.02 C 62.11 263.11 60.14 256.40 58.04 249.76 C 64.19 241.76 71.06 234.17 75.31 224.90 C 70.44 223.34 65.37 222.27 60.71 220.10 C 57.03 218.04 53.88 215.18 50.36 212.86 M 72.55 212.38 C 70.48 214.75 68.25 216.98 65.76 218.91 C 68.01 219.72 70.29 220.47 72.54 221.27 C 73.55 220.23 74.55 219.18 75.57 218.15 C 74.56 216.23 73.55 214.30 72.55 212.38 M 46.80 291.20 C 47.36 294.85 46.98 298.52 47.17 302.19 C 45.87 303.17 44.56 304.39 42.84 304.48 C 38.08 305.04 33.24 304.98 28.51 305.80 C 24.98 306.47 22.14 308.80 19.71 311.32 C 19.76 314.07 20.56 317.67 23.92 317.91 C 33.97 318.24 44.12 316.72 54.11 318.53 C 57.69 319.42 61.24 318.26 64.64 317.23 C 64.45 312.85 62.88 308.40 64.19 304.07 C 65.32 300.08 66.72 296.09 66.32 291.88 C 59.80 291.91 53.31 290.98 46.80 291.20 M 118.46 292.59 C 117.66 296.51 119.15 300.26 120.04 304.01 C 121.24 308.71 119.83 313.55 120.55 318.28 C 126.79 321.05 133.54 318.48 139.98 318.22 C 146.99 317.53 153.98 319.61 160.97 318.65 C 164.08 318.23 164.80 314.87 165.43 312.35 C 162.46 309.60 159.27 306.63 155.05 306.17 C 149.21 304.85 142.54 306.91 137.40 303.10 C 137.58 299.25 137.62 295.40 138.06 291.58 C 131.52 291.88 124.99 292.11 118.46 292.59 Z" />
<path fill="#000000" opacity="1.00" d=" M 85.82 36.93 C 90.99 37.43 90.84 43.85 90.11 47.69 C 89.52 48.27 88.33 49.43 87.74 50.01 C 83.62 48.02 83.73 43.35 84.00 39.45 C 84.46 38.82 85.37 37.56 85.82 36.93 Z" />
<path fill="#000000" opacity="1.00" d=" M 108.19 36.79 C 109.54 35.20 112.68 36.91 112.44 39.05 C 112.80 42.25 113.33 46.33 110.58 48.66 C 109.12 50.13 107.33 48.37 106.83 46.91 C 105.34 43.63 106.15 39.66 108.19 36.79 Z" />
<path fill="#000000" opacity="1.00" d=" M 100.06 59.29 C 98.77 55.97 103.91 53.42 105.84 56.22 C 108.97 59.26 105.19 65.72 101.02 64.06 C 100.47 63.24 99.96 62.40 99.49 61.53 C 100.49 61.47 102.49 61.34 103.49 61.27 C 103.54 60.55 103.65 59.10 103.70 58.37 C 102.79 58.60 100.97 59.06 100.06 59.29 Z" />
<path fill="#000000" opacity="1.00" d=" M 90.73 56.74 C 92.59 55.10 94.66 57.13 96.28 58.02 C 94.37 58.99 92.23 59.84 91.13 61.83 C 92.70 61.69 94.28 61.52 95.86 61.37 C 95.49 62.70 95.67 64.56 94.01 65.05 C 92.81 65.17 91.60 65.23 90.39 65.21 C 89.69 64.31 88.98 63.41 88.26 62.52 C 88.36 60.37 88.45 57.77 90.73 56.74 Z" />
<path fill="#000000" opacity="1.00" d=" M 104.36 75.26 C 107.15 74.73 109.35 72.54 112.14 72.17 C 112.33 72.74 112.70 73.86 112.89 74.42 C 110.67 76.08 108.12 77.23 105.96 78.95 C 103.67 81.98 102.35 86.61 98.06 87.33 C 94.09 87.97 91.39 84.45 88.94 81.93 C 86.45 78.62 81.87 78.25 79.16 75.15 C 79.63 74.57 80.57 73.42 81.03 72.85 C 87.70 77.84 96.71 77.11 104.36 75.26 M 90.44 80.13 C 92.22 81.70 93.62 84.13 96.03 84.71 C 99.38 85.44 100.61 81.44 102.41 79.49 C 98.43 79.84 94.43 80.03 90.44 80.13 Z" />
</g>
<g id="#764d2aff">
<path fill="#764d2a" opacity="1.00" d=" M 92.91 8.15 C 95.62 10.44 98.67 12.46 100.67 15.45 C 102.26 17.89 103.48 20.54 104.84 23.11 C 108.71 18.25 112.27 12.83 118.07 10.06 C 117.07 15.12 116.54 20.62 119.70 25.08 C 121.41 23.46 123.00 21.67 124.96 20.34 C 128.82 21.59 132.18 24.07 134.99 26.95 C 137.36 29.60 139.30 33.37 138.20 36.97 C 137.59 39.22 135.14 39.93 133.35 40.98 C 131.32 40.52 129.23 40.32 127.27 41.19 C 129.72 46.84 131.26 52.88 131.78 59.02 C 132.18 64.36 130.40 69.52 128.76 74.51 C 127.91 66.05 125.23 57.82 120.25 50.86 C 122.90 47.74 126.19 44.41 125.91 39.97 C 126.28 30.61 115.71 23.79 107.07 26.10 C 103.42 26.80 100.68 29.47 98.31 32.14 C 94.98 28.96 90.81 26.20 85.98 26.54 C 78.74 26.27 71.59 32.54 72.27 40.05 C 71.76 43.88 74.19 46.96 75.89 50.10 C 71.44 58.10 66.47 66.16 65.48 75.49 C 64.42 70.74 63.15 65.91 63.61 61.00 C 64.00 55.40 66.22 50.17 68.29 45.03 C 65.41 43.30 61.21 42.21 60.57 38.37 C 59.19 34.04 61.89 29.86 64.35 26.52 C 66.70 23.59 69.65 20.16 73.74 20.21 C 75.87 20.85 77.18 22.98 78.83 24.37 C 82.85 23.29 83.27 19.13 83.22 15.61 C 85.12 16.40 87.16 16.95 88.83 18.19 C 90.63 19.81 92.03 21.86 93.98 23.34 C 95.89 18.38 94.60 12.97 92.91 8.15 Z" />
<path fill="#764d2a" opacity="1.00" d=" M 4.27 59.98 C 5.71 57.98 6.91 54.76 9.92 55.04 C 17.21 55.18 24.83 57.78 29.68 63.43 C 36.08 71.05 39.74 81.09 38.80 91.10 C 38.20 104.60 28.74 115.07 22.62 126.43 C 17.62 134.31 13.81 143.53 14.95 153.04 C 15.49 158.58 18.85 163.17 21.34 167.97 C 19.30 166.67 17.37 165.16 15.17 164.13 C 13.83 164.70 12.59 165.46 11.33 166.16 C 3.55 153.66 5.89 137.40 13.25 125.29 C 18.42 115.69 27.64 108.72 31.59 98.43 C 35.24 88.77 32.80 76.98 25.07 69.99 C 19.23 64.58 10.56 64.69 4.27 59.98 Z" />
<path fill="#764d2a" opacity="1.00" d=" M 82.67 98.57 C 87.10 99.31 91.46 100.65 95.99 100.62 C 100.34 100.68 104.53 99.31 108.76 98.48 C 106.91 105.78 97.71 108.57 91.28 105.82 C 87.58 104.59 84.99 101.53 82.67 98.57 Z" />
<path fill="#764d2a" opacity="1.00" d=" M 130.95 131.16 C 135.18 122.87 141.74 116.11 147.85 109.19 C 156.51 121.40 163.02 134.97 168.23 148.97 C 170.39 155.01 172.56 161.26 176.67 166.29 C 181.49 172.03 189.60 174.03 193.71 180.45 C 194.94 182.10 195.15 184.17 194.97 186.16 C 192.82 184.86 191.06 182.72 188.46 182.37 C 183.75 181.61 179.14 183.40 174.80 185.00 C 172.20 185.89 170.04 187.63 168.14 189.57 C 169.17 190.92 170.19 192.29 171.18 193.68 C 169.11 191.98 166.36 190.10 166.65 187.02 C 166.86 182.06 167.92 176.88 165.75 172.16 C 161.04 161.61 153.10 152.97 145.27 144.65 C 141.59 140.66 136.95 137.76 132.96 134.11 C 132.19 133.23 131.02 132.43 130.95 131.16 Z" />
<path fill="#764d2a" opacity="1.00" d=" M 32.01 134.27 C 36.12 127.41 39.90 120.30 44.94 114.05 C 49.33 117.47 53.82 120.80 57.83 124.68 C 53.14 131.66 48.04 138.38 43.84 145.68 C 40.44 151.13 40.01 157.73 37.69 163.62 C 36.19 168.34 33.26 172.55 32.52 177.50 C 36.69 178.62 42.25 179.12 43.49 184.16 C 41.91 183.62 40.33 183.06 38.77 182.49 C 35.88 184.21 32.44 185.71 30.95 188.95 C 29.30 192.03 30.13 195.60 30.54 198.88 C 27.03 198.57 22.93 199.52 19.95 197.19 C 17.21 194.40 16.36 189.74 18.33 186.28 C 20.17 182.64 23.51 179.48 23.42 175.12 C 23.80 164.32 25.61 153.00 32.14 144.08 C 33.79 141.56 36.16 139.23 36.58 136.14 C 36.43 133.61 33.74 134.43 32.01 134.27 Z" />
<path fill="#764d2a" opacity="1.00" d=" M 45.18 183.47 C 48.62 183.38 52.06 183.44 55.51 183.46 C 55.90 185.51 56.38 187.55 56.55 189.63 C 51.80 190.92 46.30 188.55 45.18 183.47 Z" />
<path fill="#764d2a" opacity="1.00" d=" M 105.91 194.15 C 112.58 193.41 119.14 191.94 125.79 191.00 C 125.10 200.22 132.19 207.21 136.05 214.93 C 142.34 225.01 147.29 235.96 149.51 247.69 C 147.98 246.72 146.46 245.75 144.92 244.79 C 144.69 247.98 144.56 251.18 144.47 254.39 C 143.05 252.91 141.62 251.45 140.19 249.99 C 138.30 261.23 139.14 272.81 136.36 283.94 C 135.72 285.62 135.91 288.12 134.24 289.14 C 129.95 289.72 125.60 289.42 121.28 289.53 C 119.61 276.90 122.03 264.13 125.92 252.12 C 127.46 249.20 124.54 247.06 122.99 244.96 C 111.96 232.17 104.13 216.97 98.53 201.11 C 94.43 201.95 90.23 201.95 86.08 202.37 C 83.19 207.36 81.69 213.04 79.12 218.20 C 76.61 213.80 74.59 208.87 70.55 205.61 C 66.99 202.64 63.25 199.92 59.59 197.08 C 60.07 195.85 60.55 194.62 61.03 193.39 C 66.99 194.13 72.94 195.16 78.96 195.00 C 87.94 194.90 96.99 195.49 105.91 194.15 Z" />
<path fill="#764d2a" opacity="1.00" d=" M 50.36 212.86 C 53.88 215.18 57.03 218.04 60.71 220.10 C 65.37 222.27 70.44 223.34 75.31 224.90 C 71.06 234.17 64.19 241.76 58.04 249.76 C 60.14 256.40 62.11 263.11 63.07 270.02 C 63.97 276.23 63.64 282.52 63.61 288.77 C 59.43 288.70 55.23 288.92 51.06 288.52 C 49.69 288.66 49.42 287.04 49.03 286.11 C 45.58 274.24 46.53 261.74 45.12 249.61 C 43.43 251.13 41.77 252.69 40.12 254.25 C 40.40 251.21 40.87 248.16 40.70 245.10 C 38.83 245.01 37.30 246.17 35.73 246.98 C 37.41 241.07 38.68 234.99 41.37 229.42 C 44.12 223.77 47.30 218.34 50.36 212.86 Z" />
</g>
<g id="#ebe971ff">
<path fill="#ebe971" opacity="1.00" d=" M 99.02 38.31 C 100.68 33.65 104.45 28.76 109.93 29.16 C 116.08 28.52 122.36 33.78 122.20 40.07 C 121.91 43.97 118.83 46.76 116.95 49.95 C 120.13 58.09 125.28 65.93 125.05 74.98 C 125.81 81.91 120.95 87.95 115.59 91.70 C 105.36 98.35 91.92 98.67 80.79 94.13 C 75.90 92.06 71.17 88.35 70.05 82.88 C 66.78 71.02 73.04 59.21 79.81 49.84 C 77.83 46.79 74.60 43.93 74.95 39.96 C 74.63 34.53 79.82 29.94 84.99 29.56 C 88.70 29.60 92.55 31.08 94.94 33.99 C 96.21 35.51 97.50 37.03 99.02 38.31 M 85.82 36.93 C 85.37 37.56 84.46 38.82 84.00 39.45 C 83.73 43.35 83.62 48.02 87.74 50.01 C 88.33 49.43 89.52 48.27 90.11 47.69 C 90.84 43.85 90.99 37.43 85.82 36.93 M 108.19 36.79 C 106.15 39.66 105.34 43.63 106.83 46.91 C 107.33 48.37 109.12 50.13 110.58 48.66 C 113.33 46.33 112.80 42.25 112.44 39.05 C 112.68 36.91 109.54 35.20 108.19 36.79 M 100.06 59.29 C 100.97 59.06 102.79 58.60 103.70 58.37 C 103.65 59.10 103.54 60.55 103.49 61.27 C 102.49 61.34 100.49 61.47 99.49 61.53 C 99.96 62.40 100.47 63.24 101.02 64.06 C 105.19 65.72 108.97 59.26 105.84 56.22 C 103.91 53.42 98.77 55.97 100.06 59.29 M 90.73 56.74 C 88.45 57.77 88.36 60.37 88.26 62.52 C 88.98 63.41 89.69 64.31 90.39 65.21 C 91.60 65.23 92.81 65.17 94.01 65.05 C 95.67 64.56 95.49 62.70 95.86 61.37 C 94.28 61.52 92.70 61.69 91.13 61.83 C 92.23 59.84 94.37 58.99 96.28 58.02 C 94.66 57.13 92.59 55.10 90.73 56.74 M 104.36 75.26 C 96.71 77.11 87.70 77.84 81.03 72.85 C 80.57 73.42 79.63 74.57 79.16 75.15 C 81.87 78.25 86.45 78.62 88.94 81.93 C 91.39 84.45 94.09 87.97 98.06 87.33 C 102.35 86.61 103.67 81.98 105.96 78.95 C 108.12 77.23 110.67 76.08 112.89 74.42 C 112.70 73.86 112.33 72.74 112.14 72.17 C 109.35 72.54 107.15 74.73 104.36 75.26 Z" />
<path fill="#ebe971" opacity="1.00" d=" M 168.10 140.29 C 168.51 140.01 169.34 139.45 169.76 139.17 C 174.34 148.68 178.60 158.32 183.11 167.86 C 180.24 165.73 177.53 163.21 176.20 159.81 C 173.43 153.33 170.64 146.86 168.10 140.29 Z" />
<path fill="#ebe971" opacity="1.00" d=" M 172.65 189.32 C 178.20 186.95 184.03 183.34 190.30 185.26 C 196.09 192.53 199.24 201.37 203.42 209.57 C 205.70 213.98 207.87 218.44 209.68 223.06 C 203.87 224.98 198.21 227.30 192.51 229.54 C 191.67 227.77 190.84 226.00 190.04 224.21 C 191.47 223.36 192.87 222.48 194.25 221.57 C 191.88 220.53 188.51 223.11 187.38 219.89 C 189.23 219.05 191.06 218.09 192.34 216.46 C 190.34 216.37 188.35 216.61 186.48 217.36 C 186.18 216.80 185.56 215.68 185.26 215.12 C 187.20 214.09 189.08 212.89 189.91 210.75 C 187.78 211.04 185.72 211.60 183.69 212.26 C 183.52 211.48 183.36 210.69 183.20 209.91 C 185.02 208.87 187.36 207.90 186.63 205.35 C 185.01 206.12 183.41 206.96 181.84 207.83 C 181.49 207.18 180.78 205.88 180.43 205.23 C 182.42 203.95 185.15 202.93 184.81 200.05 C 182.69 200.82 180.70 201.87 178.73 202.95 C 176.86 199.18 182.64 198.84 182.58 195.28 C 180.60 195.93 178.78 196.93 176.88 197.78 C 176.60 197.29 176.02 196.32 175.73 195.83 C 177.51 194.85 179.28 193.84 181.04 192.83 C 180.81 192.21 180.36 190.97 180.13 190.35 C 178.17 191.25 176.22 192.18 174.24 193.02 C 173.69 191.79 173.16 190.56 172.65 189.32 Z" />
</g>
<g id="#6d0c0dff">
<path fill="#6d0c0d" opacity="1.00" d=" M 90.44 80.13 C 94.43 80.03 98.43 79.84 102.41 79.49 C 100.61 81.44 99.38 85.44 96.03 84.71 C 93.62 84.13 92.22 81.70 90.44 80.13 Z" />
<path fill="#6d0c0d" opacity="1.00" d=" M 118.46 292.59 C 124.99 292.11 131.52 291.88 138.06 291.58 C 137.62 295.40 137.58 299.25 137.40 303.10 C 142.54 306.91 149.21 304.85 155.05 306.17 C 159.27 306.63 162.46 309.60 165.43 312.35 C 164.80 314.87 164.08 318.23 160.97 318.65 C 153.98 319.61 146.99 317.53 139.98 318.22 C 133.54 318.48 126.79 321.05 120.55 318.28 C 119.83 313.55 121.24 308.71 120.04 304.01 C 119.15 300.26 117.66 296.51 118.46 292.59 Z" />
</g>
<g id="#7bb634ff">
<path fill="#7bb634" opacity="1.00" d=" M 111.78 97.14 C 117.72 94.44 122.71 90.15 126.65 84.98 C 132.81 90.96 138.57 97.34 143.97 104.00 C 144.54 105.03 146.39 106.59 144.90 107.67 C 138.79 113.79 133.40 120.60 128.78 127.91 C 127.05 126.64 125.30 125.39 123.52 124.20 C 122.30 128.95 125.30 133.17 126.26 137.65 C 127.75 143.99 128.63 150.48 129.13 156.96 C 128.64 167.00 127.51 176.99 126.65 187.00 C 105.09 192.90 82.29 192.91 60.25 190.15 C 58.06 182.96 57.38 175.28 58.73 167.87 C 60.19 159.31 61.86 150.77 62.47 142.09 C 63.00 133.66 65.55 125.25 64.22 116.78 C 62.69 118.35 61.22 119.97 59.76 121.60 C 55.42 118.20 51.07 114.82 46.94 111.17 C 53.46 102.80 60.74 95.04 68.60 87.91 C 71.26 91.44 74.60 94.37 78.44 96.55 C 80.21 101.05 82.86 105.46 87.34 107.69 C 94.16 111.53 103.55 110.68 109.21 105.15 C 111.44 103.10 111.59 99.95 111.78 97.14 M 95.41 116.97 C 87.01 118.57 81.05 125.83 78.12 133.46 C 79.49 134.01 80.87 134.53 82.26 135.02 C 84.57 130.69 87.08 126.12 91.46 123.55 C 95.47 121.17 101.08 119.87 105.03 123.10 C 108.26 125.51 108.50 130.02 107.48 133.61 C 105.55 140.19 101.20 145.65 96.73 150.70 C 87.66 161.36 78.14 171.61 68.57 181.81 C 68.84 182.50 69.37 183.89 69.64 184.58 C 80.72 183.24 91.84 182.42 102.98 181.86 C 106.08 181.97 109.17 182.64 112.29 182.46 C 112.95 181.19 113.48 179.86 113.87 178.48 C 106.12 176.19 97.99 177.39 90.08 177.87 C 85.83 178.03 81.63 178.67 77.40 179.11 C 86.86 169.59 95.47 159.28 104.13 149.04 C 109.55 142.40 114.42 133.90 112.04 125.04 C 109.91 118.27 101.92 115.26 95.41 116.97 Z" />
</g>
<g id="#ffffffff">
<path fill="#ffffff" opacity="1.00" d=" M 95.41 116.97 C 101.92 115.26 109.91 118.27 112.04 125.04 C 114.42 133.90 109.55 142.40 104.13 149.04 C 95.47 159.28 86.86 169.59 77.40 179.11 C 81.63 178.67 85.83 178.03 90.08 177.87 C 97.99 177.39 106.12 176.19 113.87 178.48 C 113.48 179.86 112.95 181.19 112.29 182.46 C 109.17 182.64 106.08 181.97 102.98 181.86 C 91.84 182.42 80.72 183.24 69.64 184.58 C 69.37 183.89 68.84 182.50 68.57 181.81 C 78.14 171.61 87.66 161.36 96.73 150.70 C 101.20 145.65 105.55 140.19 107.48 133.61 C 108.50 130.02 108.26 125.51 105.03 123.10 C 101.08 119.87 95.47 121.17 91.46 123.55 C 87.08 126.12 84.57 130.69 82.26 135.02 C 80.87 134.53 79.49 134.01 78.12 133.46 C 81.05 125.83 87.01 118.57 95.41 116.97 Z" />
<path fill="#ffffff" opacity="1.00" d=" M 72.55 212.38 C 73.55 214.30 74.56 216.23 75.57 218.15 C 74.55 219.18 73.55 220.23 72.54 221.27 C 70.29 220.47 68.01 219.72 65.76 218.91 C 68.25 216.98 70.48 214.75 72.55 212.38 Z" />
</g>
<g id="#5788caff">
<path fill="#5788ca" opacity="1.00" d=" M 7.01 177.19 C 9.07 173.11 12.27 169.79 15.88 167.04 C 17.45 168.37 19.22 169.53 20.47 171.19 C 21.42 175.97 19.77 180.69 16.23 183.97 C 13.07 181.83 9.97 179.60 7.01 177.19 Z" />
<path fill="#5788ca" opacity="1.00" d=" M 32.30 195.21 C 31.69 190.47 35.36 187.12 38.90 184.75 C 48.59 191.73 57.76 199.41 67.26 206.64 C 68.23 207.45 69.40 208.15 70.00 209.32 C 67.91 212.72 64.71 215.26 61.09 216.89 C 51.67 209.43 41.68 202.69 32.30 195.21 Z" />
<path fill="#5788ca" opacity="1.00" d=" M 46.80 291.20 C 53.31 290.98 59.80 291.91 66.32 291.88 C 66.72 296.09 65.32 300.08 64.19 304.07 C 62.88 308.40 64.45 312.85 64.64 317.23 C 61.24 318.26 57.69 319.42 54.11 318.53 C 44.12 316.72 33.97 318.24 23.92 317.91 C 20.56 317.67 19.76 314.07 19.71 311.32 C 22.14 308.80 24.98 306.47 28.51 305.80 C 33.24 304.98 38.08 305.04 42.84 304.48 C 44.56 304.39 45.87 303.17 47.17 302.19 C 46.98 298.52 47.36 294.85 46.80 291.20 Z" />
</g>
</svg>
