<svg width="605" height="327" xmlns="http://www.w3.org/2000/svg" xmlns:xlink="http://www.w3.org/1999/xlink" xml:space="preserve" overflow="hidden"><defs><clipPath id="clip0"><rect x="0" y="0" width="605" height="327"/></clipPath></defs><g clip-path="url(#clip0)"><path d="M3196.86 1625.6C3059.12 1648.73 2841.83 1617.83 2777.77 1632.92 2775.31 1663.42 2772.25 1681.29 2779.01 1703.95 2736.06 1675.03 2663.51 1569.8 2634.47 1564.36 2655.72 1549.29 2709.56 1480.93 2774.05 1419.82 2771.51 1436.78 2775.21 1481.99 2775.29 1490.86 2949.62 1470.86 3063.97 1501.24 3194.38 1483.54 3200.89 1547.45 3197.69 1562.95 3196.86 1625.6Z" stroke="#679DD4" stroke-width="15.8319" stroke-miterlimit="8" fill="none" fill-rule="evenodd" transform="matrix(1.00021 0 0 1 -2614.24 -1396.27)"/><text fill="#679DD4" font-family="Ink Free,Ink Free_MSFontService,sans-serif" font-weight="700" font-size="165" transform="matrix(0.767766 0 0 0.767606 172.41 202)">zurück</text></g></svg>